<svg width="534" height="408" viewBox="0 0 534 408" fill="none" xmlns="http://www.w3.org/2000/svg">
<path d="M485.373 232.747C485.05 232.398 484.234 231.318 482.483 230.264C480.791 229.201 478.308 228.385 476.446 228.326C475.375 228.275 474.338 228.326 473.411 228.436C473.182 228.462 472.961 228.513 472.731 228.538C472.519 228.589 472.306 228.632 472.093 228.666C471.881 228.734 471.719 228.751 471.464 228.819C471.184 228.912 470.895 229.006 470.606 229.082C468.31 229.754 465.947 230.749 463.396 232.168C458.321 235.033 452.65 239.573 446.75 245.261C446.274 245.695 445.798 246.264 445.168 246.774C444.531 247.285 443.655 247.71 442.456 247.922C440.05 248.33 436.012 247.888 428.922 244.913C421.542 241.792 416.101 238.443 413.023 234.88C411.467 233.104 410.558 231.318 410.269 229.575C410.124 228.708 410.116 227.841 410.294 227.025C410.481 226.209 410.83 225.418 411.331 224.67C412.513 222.85 413.899 221.133 415.225 219.416C416.662 217.741 418.039 216.075 419.604 214.502C422.605 211.305 425.912 208.355 429.321 205.524L431.906 203.424L434.584 201.4C435.451 200.712 436.378 200.066 437.296 199.42C438.222 198.773 439.098 198.085 440.05 197.464C443.774 194.88 447.693 192.448 451.749 189.923C453.271 189.064 454.818 188.206 456.425 187.449C457.241 187.092 458.057 186.752 458.89 186.412L460.14 185.91C460.548 185.74 460.982 185.587 461.449 185.443C465.122 184.235 468.897 183.496 472.655 183.173C480.187 182.535 487.66 183.521 494.734 185.842C501.807 188.172 508.549 191.828 514.594 196.929C520.613 202.013 525.935 208.721 529.455 216.67C532.635 223.786 533.952 231.811 533.425 239.293C532.941 246.808 530.917 253.899 527.763 260.19L526.556 262.537C526.139 263.31 525.672 264.05 525.221 264.798C524.345 266.32 523.325 267.74 522.313 269.16C521.31 270.588 520.154 271.906 519.057 273.257C517.858 274.541 516.711 275.859 515.418 277.058C514.135 278.265 512.851 279.472 511.44 280.569C510.742 281.122 510.062 281.691 509.34 282.227L507.121 283.774C504.128 285.798 500.923 287.583 497.633 289.011C494.538 290.354 491.384 291.502 488.179 292.378C484.982 293.245 481.743 293.9 478.495 294.316C475.256 294.716 472 294.903 468.752 294.869C465.513 294.809 462.274 294.537 459.06 294.044C455.855 293.526 452.675 292.786 449.53 291.808C446.401 290.805 443.315 289.564 440.314 288.076C437.321 286.563 434.414 284.786 431.642 282.745C428.879 280.688 426.26 278.333 423.854 275.731C419.731 271.2 416.288 265.81 414.001 259.944C412.811 257.028 411.994 254.026 411.331 251.042C410.753 248.05 410.337 245.057 410.243 242.107C409.963 236.207 410.66 230.528 411.867 225.154C413.117 219.79 414.945 214.723 417.164 209.919C418.226 207.666 418.736 204.92 419.536 202.089C420.318 199.275 421.329 196.359 423.132 194.097C424.569 192.219 426.643 189.779 429.007 187.594C431.336 185.392 434.065 183.547 436.327 182.569C437.33 182.17 438.367 181.804 439.302 181.345C440.271 180.903 441.147 180.376 441.844 179.585C442.66 178.701 443.494 177.987 444.301 177.451C445.117 176.932 445.934 176.609 446.707 176.456C448.246 176.142 449.691 176.669 450.924 177.893C452.174 179.134 453.262 181.132 454.308 183.895C455.362 186.658 456.382 190.187 457.657 194.421C458.227 196.282 459.137 198.323 459.885 200.261C460.642 202.2 461.245 204.036 461.381 205.43C461.39 205.549 461.424 205.787 461.449 205.923C461.713 207.284 461.925 208.406 462.07 209.316C462.223 210.251 462.316 210.99 462.342 211.577C462.359 212.147 462.333 212.623 462.24 212.963C462.138 213.303 461.985 213.541 461.789 213.745C461.381 214.102 460.803 214.272 460.174 214.442C459.579 214.655 458.933 214.867 458.55 215.377C456.654 217.792 455.098 220.7 454.078 223.777C453.058 226.855 452.59 230.077 452.726 233.019C452.854 235.969 453.568 238.562 454.69 240.662C455.804 242.753 457.487 244.7 459.774 246.349C462.529 248.364 466.057 250.124 469.772 250.753C473.454 251.433 477.297 250.889 479.762 249.061C480.459 248.594 480.859 247.616 481.258 246.953C481.428 246.57 481.649 246.324 481.87 246.12C481.99 246.026 482.134 245.984 482.296 245.958C482.449 245.916 482.636 245.916 482.865 245.967H482.84C483.673 244.751 483.962 243.059 484.829 242.022C485.671 241.01 486.291 239.786 486.623 238.672C486.955 237.55 486.989 236.572 486.921 235.926C486.844 235.255 486.734 234.923 486.691 234.532C486.597 234.149 486.529 233.588 486.198 232.695C486.147 232.551 485.518 232.891 485.373 232.747Z" fill="#4633FF"/>
<path d="M192.463 130.544C192.57 130.041 192.859 129.233 193.088 127.982C193.286 126.732 193.469 125.055 193.332 123.042C193.21 121.045 192.798 118.758 192.097 116.563C191.411 114.352 190.39 112.279 189.322 110.617C186.822 106.79 183.773 103.664 180.937 101.697C180.754 101.576 180.586 101.454 180.418 101.316C180.235 101.179 179.931 101.042 179.702 100.905C179.214 100.615 178.726 100.31 178.253 99.9899C177.811 99.624 177.232 99.441 176.729 99.1513C176.21 98.8769 175.692 98.5872 175.189 98.267C174.045 97.8249 172.993 97.2303 171.804 96.7424C171.194 96.529 170.6 96.3003 170.005 96.0411L169.106 95.6599L168.145 95.3702C163.068 93.6474 157.183 92.3514 150.703 91.6044C144.208 90.8725 137.164 90.7658 129.77 91.1775C127.407 91.2537 124.617 92.138 120.713 89.912C116.917 87.7928 111.611 82.7157 104.872 70.6863C97.8896 58.1385 94.1085 47.2831 94.3524 38.5469C94.4287 34.1406 95.5722 30.5577 97.5542 27.5999C99.521 24.6116 102.479 22.6449 106.092 21.5776C123.717 16.6988 142.089 15.9974 160.08 17.9032C169.106 18.9552 178.04 20.4341 187.005 22.7058C195.939 25.008 204.889 27.6914 213.96 31.1066C217.269 32.3568 220.486 33.9119 223.733 35.4366C225.38 36.3361 227.042 37.2662 228.658 38.2419C230.228 39.2482 231.845 40.2545 233.369 41.3522C239.514 45.6822 245.033 50.744 249.896 56.2784C259.624 67.3931 266.713 80.4287 271.013 94.5317C275.282 108.635 276.928 123.896 274.87 139.57C273.848 147.391 271.897 155.273 268.939 162.927C267.475 166.754 265.722 170.505 263.786 174.179C262.78 175.993 261.728 177.808 260.676 179.561C259.593 181.238 258.495 182.93 257.367 184.592C249.088 196.378 238.599 205.602 227.789 212.569C216.918 219.507 205.666 224.355 194.415 227.923C171.972 234.829 148.63 237.192 124.876 235.088C113.731 234.067 102.433 232.146 91.1812 228.883C79.9293 225.62 68.708 221.001 58.1117 214.719C36.2789 201.729 18.6083 182.29 8.59139 158.841C4.24617 148.733 1.50181 137.801 0.465058 126.549C-0.617437 115.313 0.20587 103.664 2.76727 92.3819C3.08744 90.9793 3.36188 89.5614 3.75828 88.1739L5.00849 84.0117L6.31968 79.8799C6.76182 78.5077 7.38693 77.0898 7.9358 75.7176C10.0855 70.0917 12.8604 64.9232 15.742 59.9376C21.7033 50.0579 28.9606 41.6266 36.8582 34.2016C37.7883 33.3326 38.6878 32.3721 39.5569 31.3658C40.4259 30.3443 41.3712 29.3685 42.2555 28.286C43.155 27.2188 44.0545 26.1058 44.9541 24.9623C45.4115 24.3982 45.8689 23.8188 46.3263 23.2395L47.7899 21.5776C49.7872 19.3821 51.7692 17.0494 54.0867 15.1131C56.4041 13.1768 58.8131 11.3625 61.4202 10.0208C63.6309 8.96882 66.2076 7.74911 68.9824 6.51415C71.803 5.32493 74.959 4.30342 78.0693 3.29716C81.2253 2.35188 84.549 1.77252 87.5983 1.26939C89.1077 0.994952 90.6628 0.933966 92.1112 0.888227C93.5596 0.842488 94.9318 0.857734 96.1973 0.949213C97.2797 1.02544 98.3775 1.11692 99.4752 1.19316C100.619 1.33037 101.732 1.45234 102.829 1.52858C105.025 1.66579 107.144 1.58956 109.218 0.949213C111.627 0.339356 113.898 0.0649209 115.911 0.0039353C117.939 -0.0265575 119.722 0.11066 121.278 0.751009C124.373 1.90974 126.37 4.02899 127.239 7.12401C128.108 10.219 127.849 14.2898 126.69 19.4584C125.547 24.6421 123.534 30.9389 121.232 38.5621C120.226 41.9163 119.631 45.8804 118.884 49.5395C118.137 53.1987 117.253 56.5681 116.109 58.8093C116.018 58.9923 115.819 59.3735 115.728 59.5869L113.456 65.3501C112.816 66.9357 112.297 68.1401 111.825 69.0397C111.352 69.8782 110.895 70.6558 110.453 71.1132C110.01 71.5858 109.568 71.8145 109.111 71.8755C108.196 72.1042 107.144 71.9212 106.016 71.5706C104.888 71.4486 103.683 71.2809 102.631 71.7078C101.991 72.0585 101.366 72.3939 100.725 72.6988C100.405 72.8665 100.07 72.9733 99.7649 73.1715L98.8349 73.7661L96.9443 74.8943C96.3497 75.3669 95.7399 75.8091 95.13 76.236C94.8251 76.4647 94.5049 76.6476 94.2152 76.8763L93.3614 77.6387C92.7973 78.1418 92.2027 78.6144 91.6233 79.0871C91.1049 79.6512 90.5713 80.1848 90.0377 80.7184L89.2144 81.496L88.4978 82.3803C88.0252 82.9597 87.5373 83.5238 87.0342 84.0726C86.6073 84.6825 86.2109 85.2924 85.7687 85.887L85.1131 86.7713C84.8997 87.0609 84.7625 87.3964 84.5795 87.7013C84.2288 88.3264 83.8629 88.9362 83.4665 89.5309C82.2925 92.0465 81.0728 94.4859 80.6154 96.8949C80.1885 97.9926 80.1123 99.502 79.8074 100.844C79.6549 101.53 79.7159 102.262 79.6244 102.963C79.5787 103.68 79.4262 104.366 79.4872 105.113C79.5024 105.845 79.5024 106.576 79.4872 107.308C79.4415 108.04 79.6244 108.802 79.6549 109.549C79.6854 111.044 80.0513 112.583 80.2495 114.108C80.9051 117.173 81.6979 120.313 83.0244 123.363C84.1678 126.458 85.8602 129.415 87.6135 132.282C89.8395 135.788 92.4466 139.036 95.2367 142.009C95.9686 142.71 96.6242 143.503 97.3865 144.159C98.1488 144.799 98.8959 145.47 99.6429 146.141C101.244 147.315 102.677 148.534 104.552 149.602C111.596 154.084 120.393 156.691 129.526 156.63C130.791 156.569 132.087 156.31 133.353 156.036C134.618 155.746 135.929 155.273 137.164 155.014C138.399 154.77 139.665 154.435 140.884 154.465C142.104 154.511 143.324 154.694 144.589 155.289L144.498 155.273C149.773 154.328 154.743 152.011 159.775 151.172C164.577 150.395 169.365 148.931 173.558 147.178C177.75 145.409 181.394 143.29 184.139 141.247C186.913 139.188 188.819 137.267 190.13 135.727C190.527 135.362 190.74 134.95 191.106 134.63C191.304 134.34 191.579 134.111 191.792 133.822C192.25 133.258 192.798 132.648 193.332 131.87C193.485 131.611 192.356 130.925 192.463 130.544Z" fill="#4633FF"/>
<path d="M259.488 365.512C259.455 365.306 259.382 364.954 259.237 364.513C259.125 364.055 258.857 363.547 258.578 363.039C258.299 362.519 257.908 362.089 257.562 361.777C257.517 361.738 257.478 361.693 257.439 361.648C257.394 361.604 257.316 361.564 257.26 361.525C257.132 361.447 257.031 361.336 256.891 361.268C256.752 361.201 256.623 361.123 256.501 361.045C256.372 360.973 256.221 360.933 256.087 360.866C255.456 360.621 254.758 360.386 253.977 360.247C253.195 360.107 252.352 360.023 251.48 359.995C249.733 359.979 247.867 360.202 246.198 360.693C244.433 361.168 242.49 362.039 240.468 363.189C238.464 364.39 236.347 365.898 234.259 367.763C234.097 367.914 233.924 368.07 233.739 368.238C233.561 368.411 233.371 368.589 233.142 368.757C232.678 369.081 232.125 369.388 231.299 369.522C230.467 369.65 229.428 369.656 227.976 369.371C226.53 369.086 224.693 368.534 222.381 367.517C217.562 365.418 214.038 363.078 212.173 360.481C210.325 357.924 210.14 355.126 211.832 352.864C215.892 347.414 221.242 342.919 227.195 339.434C230.188 337.686 233.293 336.206 236.61 334.928C239.927 333.654 243.3 332.66 246.784 331.817C249.342 331.22 251.989 330.896 254.68 330.885C257.377 330.896 260.108 331.209 262.828 331.845C265.541 332.499 268.233 333.504 270.813 334.827C271.455 335.173 272.092 335.525 272.723 335.888C273.348 336.268 273.957 336.681 274.566 337.089C275.174 337.48 275.777 337.966 276.375 338.435C276.967 338.909 277.575 339.384 278.106 339.903C280.362 341.919 282.238 344.231 283.863 346.666C285.494 349.106 286.778 351.736 287.783 354.489C288.308 355.852 288.688 357.281 289.068 358.711C289.375 360.168 289.688 361.615 289.833 363.128C290.179 366.121 290.201 369.226 289.738 372.375L289.593 373.431L289.369 374.492C289.213 375.196 289.062 375.899 288.867 376.603C288.426 377.988 287.973 379.417 287.398 380.685C286.276 383.281 284.829 385.627 283.249 387.732C281.663 389.837 279.921 391.68 278.117 393.311C276.308 394.941 274.432 396.388 272.516 397.655C268.635 400.112 264.525 402.279 260.236 403.681C259.175 404.099 258.092 404.384 257.009 404.691C255.925 404.987 254.848 405.339 253.748 405.535L250.458 406.205C249.358 406.372 248.253 406.512 247.147 406.663C246.628 406.724 246.108 406.819 245.589 406.852L244.025 406.964C242.981 407.026 241.931 407.143 240.887 407.154L237.738 407.182L236.945 407.188L236.157 407.148L234.577 407.059C232.461 406.987 230.361 406.674 228.244 406.389C227.189 406.227 226.145 405.981 225.089 405.769L223.509 405.429C222.984 405.306 222.465 405.138 221.945 404.993C220.901 404.691 219.857 404.379 218.818 404.049C217.791 403.664 216.769 403.267 215.741 402.854C215.233 402.642 214.714 402.458 214.211 402.212L212.715 401.475C211.726 400.961 210.71 400.492 209.749 399.9C208.789 399.308 207.834 398.705 206.89 398.085L206.181 397.616L205.5 397.097L204.154 396.041C202.334 394.634 200.692 393.099 199.139 391.412C196.465 388.514 194.175 385.135 192.366 381.394C190.573 377.641 189.278 373.498 188.703 369.159C188.552 368.092 188.462 366.953 188.39 365.836C188.351 364.72 188.328 363.603 188.379 362.497C188.468 360.286 188.719 358.097 189.177 355.947C189.63 353.797 190.255 351.675 191.059 349.603C191.869 347.531 192.874 345.51 194.052 343.561C195.152 341.729 196.141 339.512 197.52 337.295C198.905 335.056 200.77 332.834 202.953 331.438C204.757 330.282 207.264 328.947 209.95 328.104C212.625 327.244 215.457 326.858 217.601 327.082C218.517 327.154 219.466 327.339 220.376 327.411C221.275 327.54 222.158 327.562 223.034 327.445C224.045 327.316 224.972 327.272 225.793 327.389C226.614 327.484 227.334 327.674 227.921 327.987C229.116 328.567 229.797 329.517 229.981 330.723C230.171 331.929 229.858 333.403 229.149 335.207C228.445 337.016 227.345 339.161 226.111 341.774C225.575 342.919 225.156 344.309 224.693 345.582C224.235 346.861 223.76 348.006 223.263 348.777C223.224 348.838 223.14 348.966 223.101 349.045C222.694 349.826 222.375 350.491 222.124 351.044L221.527 352.339C221.37 352.663 221.247 352.881 221.136 353.043C221.024 353.194 220.929 353.255 220.845 353.3C220.762 353.322 220.667 353.289 220.555 353.255C220.449 353.205 220.326 353.127 220.192 353.082C220.058 353.015 219.918 352.954 219.779 352.948C219.639 352.92 219.5 352.926 219.382 353.004C218.796 353.317 218.243 353.741 217.886 354.165C217.841 354.221 217.796 354.266 217.746 354.316C217.713 354.378 217.673 354.433 217.629 354.484C217.534 354.573 217.478 354.718 217.372 354.847C217.283 354.986 217.199 355.137 217.109 355.282C217.042 355.45 216.936 355.584 216.869 355.768C216.238 357.086 215.875 359.035 216.054 360.95C216.205 362.748 216.903 364.854 218.154 366.925C218.785 367.964 219.544 368.997 220.426 369.991C220.879 370.482 221.331 370.974 221.834 371.437C222.32 371.912 222.85 372.359 223.386 372.755C225.949 374.805 228.942 376.552 232.293 377.613C235.627 378.68 239.318 378.943 242.736 378.189C243.199 378.077 243.662 377.921 244.109 377.714C244.55 377.479 244.986 377.234 245.416 377.038C245.634 376.938 245.846 376.854 246.064 376.781C246.276 376.692 246.488 376.608 246.7 376.558C247.13 376.452 247.577 376.446 248.068 376.586H248.035C249.772 375.776 251.274 374.665 252.776 373.928L253.329 373.688L253.608 373.571L253.859 373.414C254.194 373.208 254.541 373.007 254.881 372.811C255.579 372.426 256.216 371.923 256.774 371.465C257.897 370.527 258.673 369.578 259.081 368.897C259.287 368.55 259.416 368.277 259.505 368.064C259.516 368.037 259.527 368.014 259.544 367.986C259.544 367.97 259.544 367.947 259.544 367.93C259.55 367.897 259.561 367.869 259.583 367.841C259.611 367.774 259.611 367.685 259.672 367.612C259.773 367.249 259.913 366.657 259.985 365.864C259.991 365.803 259.879 365.753 259.762 365.702C259.645 365.652 259.505 365.596 259.488 365.512Z" fill="#4633FF"/>
</svg>
