<svg width="360" height="800" viewBox="0 0 360 800" fill="none" xmlns="http://www.w3.org/2000/svg">
<g clip-path="url(#clip0_4435_342287)">
<rect width="360" height="800" fill="#F0F2F2"/>
<path fill-rule="evenodd" clip-rule="evenodd" d="M23.5762 50.8003C23.6481 50.9618 23.7666 51.1499 23.9697 51.4033C24.2434 51.7447 24.6262 52.1521 25.1797 52.7402L30.084 57.9512C30.3864 58.2729 30.3704 58.7794 30.0488 59.082C29.7271 59.3844 29.2206 59.3685 28.918 59.0469L24.0146 53.8369L23.9896 53.8103C23.4649 53.2528 23.0384 52.7997 22.7207 52.4033C22.3922 51.9934 22.1378 51.5939 21.9932 51.1299C21.7638 50.3937 21.7638 49.6043 21.9932 48.8682C22.1378 48.4042 22.3922 48.0047 22.7207 47.5947C23.0384 47.1984 23.4649 46.7453 23.9896 46.1878L24.0146 46.1611L28.918 40.9512C29.2206 40.6296 29.7271 40.6136 30.0488 40.916C30.3704 41.2187 30.3864 41.7251 30.084 42.0469L25.1797 47.2578C24.6262 47.8459 24.2434 48.2534 23.9697 48.5947C23.7653 48.8497 23.6467 49.0385 23.5749 49.2007L38.501 49.2007C38.9428 49.2007 39.3008 49.5587 39.3008 50.0005C39.3008 50.4423 38.9428 50.8003 38.501 50.8003L23.5762 50.8003Z" fill="black"/>
<path d="M142.545 58C141.98 58 141.547 57.8533 141.247 57.56C140.946 57.2593 140.796 56.823 140.796 56.251V44.151C140.796 43.5863 140.946 43.1537 141.247 42.853C141.547 42.5523 141.98 42.402 142.545 42.402H150.047C150.399 42.402 150.677 42.501 150.883 42.699C151.088 42.8897 151.191 43.1463 151.191 43.469C151.191 43.7917 151.088 44.052 150.883 44.25C150.677 44.4407 150.399 44.536 150.047 44.536H143.062V49.189H149.365C149.702 49.189 149.966 49.2807 150.157 49.464C150.355 49.6473 150.454 49.8967 150.454 50.212C150.454 50.52 150.355 50.7657 150.157 50.949C149.966 51.1323 149.702 51.224 149.365 51.224H143.062V55.866H150.08C150.439 55.866 150.718 55.9613 150.916 56.152C151.121 56.3427 151.224 56.5993 151.224 56.922C151.224 57.252 151.121 57.516 150.916 57.714C150.718 57.9047 150.439 58 150.08 58H142.545ZM162.245 42.138C162.582 42.138 162.85 42.2407 163.048 42.446C163.246 42.6513 163.345 42.9373 163.345 43.304V56.13C163.345 56.35 163.312 56.526 163.246 56.658C163.18 56.7827 163.07 56.9 162.916 57.01C162.461 57.3033 161.827 57.5783 161.013 57.835C160.199 58.0843 159.341 58.209 158.439 58.209C157.485 58.209 156.646 58.0257 155.92 57.659C155.201 57.285 154.629 56.768 154.204 56.108C153.778 55.4407 153.522 54.6707 153.434 53.798C153.397 53.2993 153.379 52.764 153.379 52.192C153.379 51.62 153.397 51.0883 153.434 50.597C153.514 49.7243 153.764 48.958 154.182 48.298C154.607 47.6307 155.168 47.1137 155.865 46.747C156.569 46.373 157.368 46.186 158.263 46.186C158.776 46.186 159.289 46.2447 159.803 46.362C160.323 46.4793 160.771 46.6297 161.145 46.813V43.304C161.145 42.9373 161.24 42.6513 161.431 42.446C161.629 42.2407 161.9 42.138 162.245 42.138ZM155.634 53.479C155.7 54.271 155.982 54.9017 156.481 55.371C156.979 55.833 157.654 56.064 158.505 56.064C158.974 56.064 159.462 56.0017 159.968 55.877C160.474 55.745 160.866 55.58 161.145 55.382V49.002C160.859 48.804 160.463 48.6427 159.957 48.518C159.451 48.386 158.967 48.32 158.505 48.32C157.654 48.32 156.979 48.5547 156.481 49.024C155.989 49.486 155.707 50.1167 155.634 50.916C155.597 51.3707 155.579 51.8033 155.579 52.214C155.579 52.632 155.597 53.0537 155.634 53.479ZM167.874 42.017C168.255 42.017 168.574 42.1453 168.831 42.402C169.088 42.6587 169.216 42.9777 169.216 43.359C169.216 43.7477 169.088 44.074 168.831 44.338C168.574 44.5947 168.255 44.723 167.874 44.723C167.5 44.723 167.185 44.5947 166.928 44.338C166.671 44.074 166.543 43.7477 166.543 43.359C166.543 42.9777 166.671 42.6587 166.928 42.402C167.185 42.1453 167.5 42.017 167.874 42.017ZM166.785 47.451C166.785 47.0843 166.884 46.7983 167.082 46.593C167.28 46.3877 167.548 46.285 167.885 46.285C168.23 46.285 168.497 46.3877 168.688 46.593C168.886 46.7983 168.985 47.0843 168.985 47.451V56.933C168.985 57.2997 168.886 57.5857 168.688 57.791C168.497 57.9963 168.23 58.099 167.885 58.099C167.548 58.099 167.28 57.9963 167.082 57.791C166.884 57.5857 166.785 57.2997 166.785 56.933V47.451ZM173.523 43.788C173.86 43.788 174.128 43.8907 174.326 44.096C174.524 44.3013 174.623 44.5873 174.623 44.954V46.384H177.725C178.106 46.384 178.396 46.4757 178.594 46.659C178.792 46.835 178.891 47.0843 178.891 47.407C178.891 47.7297 178.792 47.9827 178.594 48.166C178.396 48.3493 178.106 48.441 177.725 48.441H174.623V54.337C174.623 54.9457 174.755 55.3967 175.019 55.69C175.283 55.976 175.697 56.119 176.262 56.119C176.541 56.119 176.786 56.097 176.999 56.053C177.219 56.0017 177.446 55.9357 177.681 55.855C177.71 55.8477 177.773 55.8257 177.868 55.789C177.963 55.7523 178.051 55.7267 178.132 55.712C178.22 55.6973 178.304 55.69 178.385 55.69C178.634 55.69 178.847 55.7853 179.023 55.976C179.206 56.1593 179.298 56.394 179.298 56.68C179.298 56.9513 179.225 57.175 179.078 57.351C178.931 57.5197 178.711 57.659 178.418 57.769C177.648 58.0623 176.885 58.209 176.13 58.209C175.382 58.209 174.729 58.066 174.172 57.78C173.615 57.494 173.182 57.076 172.874 56.526C172.573 55.976 172.423 55.316 172.423 54.546V44.954C172.423 44.5873 172.518 44.3013 172.709 44.096C172.907 43.8907 173.178 43.788 173.523 43.788ZM193.589 42.402C194.623 42.402 195.529 42.6073 196.306 43.018C197.083 43.4213 197.681 44.0043 198.099 44.767C198.524 45.5223 198.737 46.4133 198.737 47.44C198.737 48.4447 198.524 49.3247 198.099 50.08C197.681 50.8353 197.076 51.422 196.284 51.84C195.499 52.258 194.575 52.467 193.512 52.467H189.662V56.889C189.662 57.2703 189.559 57.5673 189.354 57.78C189.156 57.9927 188.881 58.099 188.529 58.099C188.177 58.099 187.898 57.9927 187.693 57.78C187.495 57.5673 187.396 57.2703 187.396 56.889V44.151C187.396 43.5863 187.543 43.1537 187.836 42.853C188.137 42.5523 188.573 42.402 189.145 42.402H193.589ZM193.446 50.333C194.436 50.333 195.184 50.0763 195.69 49.563C196.203 49.0423 196.46 48.3383 196.46 47.451C196.46 46.5563 196.203 45.8487 195.69 45.328C195.184 44.8 194.44 44.536 193.457 44.536H189.662V50.333H193.446ZM205.835 58.209C204.896 58.209 204.057 58.0183 203.316 57.637C202.575 57.2557 201.981 56.7277 201.534 56.053C201.087 55.371 200.819 54.59 200.731 53.71C200.687 53.2773 200.665 52.753 200.665 52.137C200.665 51.609 200.683 51.125 200.72 50.685C200.801 49.805 201.065 49.024 201.512 48.342C201.967 47.66 202.564 47.132 203.305 46.758C204.053 46.3767 204.896 46.186 205.835 46.186C206.774 46.186 207.613 46.3767 208.354 46.758C209.102 47.1393 209.7 47.671 210.147 48.353C210.602 49.0277 210.869 49.805 210.95 50.685C210.987 51.0223 211.005 51.5247 211.005 52.192C211.005 52.852 210.987 53.358 210.95 53.71C210.862 54.59 210.591 55.371 210.136 56.053C209.689 56.7277 209.095 57.2557 208.354 57.637C207.613 58.0183 206.774 58.209 205.835 58.209ZM202.909 53.413C202.953 53.9337 203.103 54.3957 203.36 54.799C203.617 55.195 203.958 55.5067 204.383 55.734C204.808 55.954 205.292 56.064 205.835 56.064C206.385 56.064 206.873 55.954 207.298 55.734C207.723 55.514 208.061 55.2023 208.31 54.799C208.567 54.3957 208.721 53.9337 208.772 53.413C208.809 52.973 208.827 52.566 208.827 52.192C208.827 51.8033 208.809 51.3963 208.772 50.971C208.721 50.4503 208.567 49.9883 208.31 49.585C208.061 49.1817 207.723 48.87 207.298 48.65C206.873 48.43 206.385 48.32 205.835 48.32C205.292 48.32 204.808 48.43 204.383 48.65C203.958 48.87 203.617 49.1817 203.36 49.585C203.111 49.9883 202.96 50.4503 202.909 50.971C202.872 51.3963 202.854 51.8033 202.854 52.192C202.854 52.566 202.872 52.973 202.909 53.413ZM215.031 43.788C215.368 43.788 215.636 43.8907 215.834 44.096C216.032 44.3013 216.131 44.5873 216.131 44.954V46.384H219.233C219.614 46.384 219.904 46.4757 220.102 46.659C220.3 46.835 220.399 47.0843 220.399 47.407C220.399 47.7297 220.3 47.9827 220.102 48.166C219.904 48.3493 219.614 48.441 219.233 48.441H216.131V54.337C216.131 54.9457 216.263 55.3967 216.527 55.69C216.791 55.976 217.205 56.119 217.77 56.119C218.048 56.119 218.294 56.097 218.507 56.053C218.727 56.0017 218.954 55.9357 219.189 55.855C219.218 55.8477 219.28 55.8257 219.376 55.789C219.471 55.7523 219.559 55.7267 219.64 55.712C219.728 55.6973 219.812 55.69 219.893 55.69C220.142 55.69 220.355 55.7853 220.531 55.976C220.714 56.1593 220.806 56.394 220.806 56.68C220.806 56.9513 220.732 57.175 220.586 57.351C220.439 57.5197 220.219 57.659 219.926 57.769C219.156 58.0623 218.393 58.209 217.638 58.209C216.89 58.209 216.237 58.066 215.68 57.78C215.122 57.494 214.69 57.076 214.382 56.526C214.081 55.976 213.931 55.316 213.931 54.546V44.954C213.931 44.5873 214.026 44.3013 214.217 44.096C214.415 43.8907 214.686 43.788 215.031 43.788Z" fill="black"/>
<path fill-rule="evenodd" clip-rule="evenodd" d="M336.424 49.1997C336.352 49.0382 336.233 48.8501 336.03 48.5967C335.757 48.2553 335.374 47.8479 334.82 47.2598L329.916 42.0488C329.614 41.7271 329.63 41.2206 329.951 40.918C330.273 40.6156 330.779 40.6315 331.082 40.9531L335.985 46.1631L336.01 46.1897C336.535 46.7472 336.962 47.2003 337.279 47.5967C337.608 48.0066 337.862 48.4061 338.007 48.8701C338.236 49.6063 338.236 50.3957 338.007 51.1318C337.862 51.5958 337.608 51.9953 337.279 52.4053C336.962 52.8016 336.535 53.2547 336.01 53.8122L335.985 53.8389L331.082 59.0488C330.779 59.3704 330.273 59.3864 329.951 59.084C329.63 58.7813 329.614 58.2749 329.916 57.9531L334.82 52.7422C335.374 52.1541 335.757 51.7466 336.03 51.4053C336.235 51.1503 336.353 50.9615 336.425 50.7993L321.499 50.7993C321.057 50.7993 320.699 50.4413 320.699 49.9995C320.699 49.5577 321.057 49.1997 321.499 49.1997L336.424 49.1997Z" fill="#F7F1F1"/>
<rect x="18" y="248" width="318" height="243" rx="8" fill="white"/>
<path d="M40.5 275.5H51.5" stroke="#626262" stroke-width="0.8" stroke-linecap="round"/>
<path fill-rule="evenodd" clip-rule="evenodd" d="M46 292.5C49.866 292.5 53 289.366 53 285.5C53 283.496 52.158 281.689 50.8085 280.413C50.3334 279.964 50 279.365 50 278.711V275.5H42V278.711C42 279.365 41.6666 279.964 41.1915 280.413C39.842 281.689 39 283.496 39 285.5C39 289.366 42.134 292.5 46 292.5ZM49.5996 285.5C49.5996 283.512 47.9882 281.9 46 281.9C44.0118 281.9 42.4004 283.512 42.4004 285.5C42.4004 287.488 44.0118 289.1 46 289.1C47.9882 289.1 49.5996 287.488 49.5996 285.5ZM50.4004 285.5C50.4004 287.93 48.4301 289.9 46 289.9C43.5699 289.9 41.5996 287.93 41.5996 285.5C41.5996 283.07 43.5699 281.1 46 281.1C48.4301 281.1 50.4004 283.07 50.4004 285.5ZM46 286.5C46.5523 286.5 47 286.052 47 285.5C47 284.948 46.5523 284.5 46 284.5C45.4477 284.5 45 284.948 45 285.5C45 286.052 45.4477 286.5 46 286.5Z" fill="#626262"/>
<path d="M46 292.5C49.866 292.5 53 289.366 53 285.5C53 283.496 52.158 281.689 50.8085 280.413C50.3334 279.964 50 279.365 50 278.711V275.5H42V278.711C42 279.365 41.6666 279.964 41.1915 280.413C39.842 281.689 39 283.496 39 285.5C39 289.366 42.134 292.5 46 292.5Z" stroke="#626262" stroke-width="0.8"/>
<path d="M67.608 286.072C67.416 286.072 67.256 286.019 67.128 285.912C67.0053 285.805 66.944 285.659 66.944 285.472C66.944 285.403 66.9493 285.336 66.96 285.272L68.336 275.944C68.4053 275.459 68.56 275.112 68.8 274.904C69.0453 274.691 69.3707 274.584 69.776 274.584C70.144 274.584 70.4453 274.68 70.68 274.872C70.9147 275.064 71.08 275.387 71.176 275.84L73.176 284.44C73.2027 284.541 73.2293 284.613 73.256 284.656C73.2827 284.693 73.3307 284.712 73.4 284.712C73.4693 284.712 73.52 284.693 73.552 284.656C73.584 284.613 73.6133 284.539 73.64 284.432L75.632 275.84C75.728 275.387 75.8907 275.064 76.12 274.872C76.3547 274.68 76.656 274.584 77.024 274.584C77.4293 274.584 77.752 274.691 77.992 274.904C78.232 275.112 78.3893 275.461 78.464 275.952L79.832 285.208C79.848 285.32 79.856 285.411 79.856 285.48C79.856 285.661 79.7947 285.805 79.672 285.912C79.5547 286.019 79.4027 286.072 79.216 286.072C79.008 286.072 78.848 286.021 78.736 285.92C78.624 285.813 78.5547 285.653 78.528 285.44L77.232 276.24C77.216 276.123 77.1893 276.043 77.152 276C77.12 275.957 77.0693 275.936 77 275.936C76.9467 275.936 76.9013 275.955 76.864 275.992C76.832 276.029 76.8053 276.099 76.784 276.2L74.736 284.792C74.6347 285.235 74.472 285.56 74.248 285.768C74.0293 285.971 73.7387 286.072 73.376 286.072C73.008 286.072 72.712 285.971 72.488 285.768C72.2693 285.56 72.1093 285.232 72.008 284.784L69.984 276.2C69.9573 276.099 69.9253 276.029 69.888 275.992C69.856 275.955 69.816 275.936 69.768 275.936C69.6987 275.936 69.648 275.957 69.616 276C69.584 276.043 69.5573 276.123 69.536 276.24L68.264 285.448C68.2373 285.667 68.168 285.827 68.056 285.928C67.944 286.024 67.7947 286.072 67.608 286.072ZM83.0097 288.92C82.8284 288.92 82.6737 288.859 82.5457 288.736C82.4231 288.619 82.3617 288.469 82.3617 288.288C82.3617 288.048 82.5004 287.848 82.7777 287.688C83.4817 287.299 84.0551 286.555 84.4978 285.456L81.4897 278.672C81.3937 278.464 81.3457 278.296 81.3457 278.168C81.3457 277.987 81.4097 277.84 81.5377 277.728C81.6657 277.611 81.8204 277.552 82.0017 277.552C82.1617 277.552 82.2951 277.595 82.4017 277.68C82.5084 277.76 82.5964 277.891 82.6657 278.072L85.1378 283.88C85.1484 283.912 85.1591 283.933 85.1698 283.944C85.1804 283.955 85.1938 283.96 85.2098 283.96C85.2311 283.96 85.2471 283.955 85.2578 283.944C85.2684 283.933 85.2791 283.912 85.2898 283.88L87.5778 278.04C87.7004 277.715 87.9111 277.552 88.2098 277.552C88.3911 277.552 88.5458 277.611 88.6738 277.728C88.8018 277.84 88.8658 277.984 88.8658 278.16C88.8658 278.277 88.8284 278.429 88.7538 278.616L85.8418 285.672C85.5484 286.381 85.2071 286.997 84.8177 287.52C84.4337 288.048 84.0391 288.443 83.6337 288.704C83.5324 288.779 83.4337 288.832 83.3377 288.864C83.2417 288.901 83.1324 288.92 83.0097 288.92ZM101.18 274.488C101.383 274.488 101.54 274.549 101.652 274.672C101.769 274.789 101.828 274.957 101.828 275.176V284.712C101.828 284.856 101.807 284.971 101.764 285.056C101.721 285.141 101.652 285.216 101.556 285.28C101.22 285.493 100.759 285.691 100.172 285.872C99.5905 286.053 98.9932 286.144 98.3799 286.144C97.7025 286.144 97.1052 286.011 96.5879 285.744C96.0705 285.477 95.6599 285.107 95.3559 284.632C95.0519 284.152 94.8679 283.597 94.8039 282.968C94.7772 282.605 94.7639 282.221 94.7639 281.816C94.7639 281.405 94.7772 281.021 94.8039 280.664C94.8679 280.035 95.0492 279.48 95.3479 279C95.6519 278.52 96.0572 278.147 96.5639 277.88C97.0705 277.613 97.6519 277.48 98.3079 277.48C98.7079 277.48 99.1052 277.525 99.4999 277.616C99.8945 277.707 100.239 277.827 100.532 277.976V275.176C100.532 274.957 100.588 274.789 100.7 274.672C100.817 274.549 100.977 274.488 101.18 274.488ZM96.0999 282.816C96.1585 283.451 96.3852 283.955 96.7799 284.328C97.1799 284.696 97.7212 284.88 98.4039 284.88C98.7772 284.88 99.1692 284.827 99.5799 284.72C99.9905 284.613 100.308 284.48 100.532 284.32V279.304C100.308 279.144 99.9879 279.013 99.5719 278.912C99.1612 278.805 98.7719 278.752 98.4039 278.752C97.7212 278.752 97.1825 278.936 96.7879 279.304C96.3932 279.672 96.1639 280.173 96.0999 280.808C96.0679 281.112 96.0519 281.437 96.0519 281.784C96.0519 282.157 96.0679 282.501 96.0999 282.816ZM105.283 286.072C105.08 286.072 104.923 286.013 104.811 285.896C104.699 285.773 104.643 285.603 104.643 285.384V280.08C104.643 279.264 104.872 278.627 105.331 278.168C105.79 277.709 106.43 277.48 107.251 277.48C107.774 277.48 108.216 277.536 108.579 277.648C109 277.771 109.211 277.995 109.211 278.32C109.211 278.512 109.152 278.664 109.035 278.776C108.923 278.888 108.792 278.944 108.643 278.944C108.552 278.944 108.443 278.928 108.315 278.896C107.984 278.805 107.651 278.76 107.315 278.76C106.392 278.76 105.931 279.216 105.931 280.128V285.384C105.931 285.603 105.872 285.773 105.755 285.896C105.643 286.013 105.486 286.072 105.283 286.072ZM114.188 286.144C113.506 286.144 112.898 286.011 112.364 285.744C111.831 285.472 111.404 285.093 111.084 284.608C110.764 284.117 110.572 283.555 110.508 282.92C110.476 282.6 110.46 282.216 110.46 281.768C110.46 281.421 110.474 281.096 110.5 280.792C110.559 280.147 110.746 279.576 111.06 279.08C111.38 278.584 111.802 278.197 112.324 277.92C112.847 277.643 113.442 277.504 114.108 277.504C114.812 277.504 115.42 277.648 115.932 277.936C116.45 278.224 116.844 278.627 117.116 279.144C117.394 279.661 117.532 280.256 117.532 280.928V281.472C117.532 281.733 117.511 281.923 117.468 282.04C117.426 282.157 117.348 282.237 117.236 282.28C117.124 282.323 116.946 282.344 116.7 282.344H111.732C111.732 282.509 111.74 282.672 111.756 282.832C111.788 283.248 111.908 283.616 112.116 283.936C112.324 284.251 112.607 284.496 112.964 284.672C113.322 284.843 113.735 284.928 114.204 284.928C114.86 284.928 115.492 284.8 116.1 284.544C116.148 284.523 116.21 284.499 116.284 284.472C116.359 284.44 116.423 284.419 116.476 284.408C116.53 284.392 116.586 284.384 116.644 284.384C116.804 284.384 116.935 284.437 117.036 284.544C117.138 284.645 117.188 284.781 117.188 284.952C117.188 285.219 117.007 285.44 116.644 285.616C115.914 285.968 115.095 286.144 114.188 286.144ZM116.292 281.304C116.303 281.155 116.308 281.048 116.308 280.984C116.308 280.499 116.215 280.085 116.028 279.744C115.847 279.397 115.588 279.136 115.252 278.96C114.916 278.779 114.527 278.688 114.084 278.688C113.647 278.688 113.258 278.781 112.916 278.968C112.58 279.149 112.311 279.405 112.108 279.736C111.906 280.067 111.788 280.448 111.756 280.88L111.732 281.304H116.292ZM122.486 286.144C121.841 286.144 121.278 286.032 120.798 285.808C120.323 285.584 119.958 285.269 119.702 284.864C119.446 284.459 119.318 283.992 119.318 283.464C119.318 283 119.438 282.573 119.678 282.184C119.923 281.789 120.286 281.475 120.766 281.24C121.246 281.005 121.825 280.888 122.502 280.888C122.886 280.888 123.251 280.915 123.598 280.968C123.945 281.016 124.329 281.101 124.75 281.224V280.472C124.75 279.864 124.587 279.419 124.262 279.136C123.937 278.848 123.425 278.704 122.726 278.704C122.417 278.704 122.102 278.741 121.782 278.816C121.467 278.885 121.195 278.968 120.966 279.064C120.769 279.155 120.601 279.2 120.462 279.2C120.302 279.2 120.166 279.144 120.054 279.032C119.947 278.915 119.894 278.771 119.894 278.6C119.894 278.456 119.937 278.336 120.022 278.24C120.107 278.139 120.246 278.048 120.438 277.968C120.737 277.835 121.099 277.72 121.526 277.624C121.958 277.528 122.398 277.48 122.846 277.48C123.865 277.48 124.646 277.728 125.19 278.224C125.739 278.715 126.014 279.461 126.014 280.464V284.736C126.014 284.875 125.995 284.981 125.958 285.056C125.926 285.125 125.859 285.195 125.758 285.264C125.454 285.477 125.009 285.677 124.422 285.864C123.841 286.051 123.195 286.144 122.486 286.144ZM120.582 283.472C120.582 283.952 120.761 284.325 121.118 284.592C121.475 284.853 121.979 284.984 122.63 284.984C122.993 284.984 123.361 284.936 123.734 284.84C124.107 284.739 124.446 284.608 124.75 284.448V282.304C124.334 282.181 123.963 282.093 123.638 282.04C123.313 281.987 122.977 281.96 122.63 281.96C121.958 281.96 121.449 282.099 121.102 282.376C120.755 282.653 120.582 283.019 120.582 283.472ZM129.376 286.072C129.173 286.072 129.013 286.013 128.896 285.896C128.784 285.773 128.728 285.603 128.728 285.384V279.016C128.728 278.824 128.754 278.677 128.808 278.576C128.861 278.475 128.965 278.379 129.12 278.288C129.424 278.075 129.829 277.888 130.336 277.728C130.848 277.563 131.354 277.48 131.856 277.48C132.416 277.48 132.888 277.563 133.272 277.728C133.656 277.888 133.986 278.115 134.264 278.408C134.632 278.141 135.026 277.92 135.448 277.744C135.874 277.568 136.36 277.48 136.904 277.48C137.917 277.48 138.669 277.744 139.16 278.272C139.656 278.8 139.904 279.539 139.904 280.488V285.384C139.904 285.603 139.845 285.773 139.728 285.896C139.616 286.013 139.458 286.072 139.256 286.072C139.053 286.072 138.893 286.013 138.776 285.896C138.664 285.773 138.608 285.603 138.608 285.384V280.632C138.608 279.379 138.002 278.752 136.792 278.752C136.109 278.752 135.461 278.987 134.848 279.456C134.928 279.755 134.968 280.136 134.968 280.6V285.384C134.968 285.603 134.909 285.773 134.792 285.896C134.68 286.013 134.522 286.072 134.32 286.072C134.117 286.072 133.957 286.013 133.84 285.896C133.728 285.773 133.672 285.603 133.672 285.384V280.624C133.672 279.979 133.52 279.507 133.216 279.208C132.917 278.904 132.445 278.752 131.8 278.752C131.544 278.752 131.24 278.808 130.888 278.92C130.536 279.032 130.248 279.157 130.024 279.296V285.384C130.024 285.603 129.965 285.773 129.848 285.896C129.736 286.013 129.578 286.072 129.376 286.072ZM148.08 286.072C147.872 286.072 147.707 286.011 147.584 285.888C147.467 285.76 147.408 285.584 147.408 285.36V275.296C147.408 275.072 147.467 274.899 147.584 274.776C147.707 274.648 147.872 274.584 148.08 274.584C148.288 274.584 148.451 274.648 148.568 274.776C148.685 274.899 148.744 275.072 148.744 275.296V279.688H155.032V275.296C155.032 275.067 155.091 274.891 155.208 274.768C155.325 274.645 155.488 274.584 155.696 274.584C155.904 274.584 156.067 274.645 156.184 274.768C156.301 274.891 156.36 275.067 156.36 275.296V285.36C156.36 285.589 156.301 285.765 156.184 285.888C156.067 286.011 155.904 286.072 155.696 286.072C155.488 286.072 155.325 286.011 155.208 285.888C155.091 285.765 155.032 285.589 155.032 285.36V280.968H148.744V285.36C148.744 285.584 148.685 285.76 148.568 285.888C148.451 286.011 148.288 286.072 148.08 286.072ZM162.734 286.144C162.067 286.144 161.47 286.008 160.942 285.736C160.419 285.459 159.998 285.075 159.678 284.584C159.358 284.093 159.166 283.531 159.102 282.896C159.07 282.581 159.054 282.208 159.054 281.776C159.054 281.403 159.067 281.056 159.094 280.736C159.153 280.101 159.342 279.539 159.662 279.048C159.987 278.552 160.414 278.168 160.942 277.896C161.47 277.619 162.067 277.48 162.734 277.48C163.401 277.48 164.001 277.619 164.534 277.896C165.067 278.168 165.494 278.552 165.814 279.048C166.134 279.539 166.323 280.101 166.382 280.736C166.409 281.056 166.422 281.403 166.422 281.776C166.422 282.208 166.406 282.581 166.374 282.896C166.31 283.531 166.118 284.093 165.798 284.584C165.478 285.075 165.054 285.459 164.526 285.736C163.998 286.008 163.401 286.144 162.734 286.144ZM160.382 282.76C160.419 283.176 160.539 283.544 160.742 283.864C160.95 284.184 161.225 284.435 161.566 284.616C161.907 284.792 162.297 284.88 162.734 284.88C163.171 284.88 163.561 284.792 163.902 284.616C164.243 284.435 164.515 284.184 164.718 283.864C164.926 283.544 165.051 283.176 165.094 282.76C165.121 282.515 165.134 282.197 165.134 281.808C165.134 281.424 165.121 281.109 165.094 280.864C165.057 280.448 164.934 280.08 164.726 279.76C164.523 279.44 164.249 279.192 163.902 279.016C163.561 278.84 163.171 278.752 162.734 278.752C162.297 278.752 161.907 278.84 161.566 279.016C161.23 279.192 160.958 279.44 160.75 279.76C160.547 280.08 160.425 280.448 160.382 280.864C160.355 281.195 160.342 281.509 160.342 281.808C160.342 282.112 160.355 282.429 160.382 282.76ZM169.551 286.072C169.348 286.072 169.188 286.013 169.071 285.896C168.959 285.773 168.903 285.603 168.903 285.384V279.016C168.903 278.824 168.929 278.677 168.983 278.576C169.036 278.475 169.14 278.379 169.295 278.288C169.599 278.075 170.004 277.888 170.511 277.728C171.023 277.563 171.529 277.48 172.031 277.48C172.591 277.48 173.063 277.563 173.447 277.728C173.831 277.888 174.161 278.115 174.439 278.408C174.807 278.141 175.201 277.92 175.623 277.744C176.049 277.568 176.535 277.48 177.079 277.48C178.092 277.48 178.844 277.744 179.335 278.272C179.831 278.8 180.079 279.539 180.079 280.488V285.384C180.079 285.603 180.02 285.773 179.903 285.896C179.791 286.013 179.633 286.072 179.431 286.072C179.228 286.072 179.068 286.013 178.951 285.896C178.839 285.773 178.783 285.603 178.783 285.384V280.632C178.783 279.379 178.177 278.752 176.967 278.752C176.284 278.752 175.636 278.987 175.023 279.456C175.103 279.755 175.143 280.136 175.143 280.6V285.384C175.143 285.603 175.084 285.773 174.967 285.896C174.855 286.013 174.697 286.072 174.495 286.072C174.292 286.072 174.132 286.013 174.015 285.896C173.903 285.773 173.847 285.603 173.847 285.384V280.624C173.847 279.979 173.695 279.507 173.391 279.208C173.092 278.904 172.62 278.752 171.975 278.752C171.719 278.752 171.415 278.808 171.063 278.92C170.711 279.032 170.423 279.157 170.199 279.296V285.384C170.199 285.603 170.14 285.773 170.023 285.896C169.911 286.013 169.753 286.072 169.551 286.072ZM186.276 286.144C185.593 286.144 184.985 286.011 184.452 285.744C183.919 285.472 183.492 285.093 183.172 284.608C182.852 284.117 182.66 283.555 182.596 282.92C182.564 282.6 182.548 282.216 182.548 281.768C182.548 281.421 182.561 281.096 182.588 280.792C182.647 280.147 182.833 279.576 183.148 279.08C183.468 278.584 183.889 278.197 184.412 277.92C184.935 277.643 185.529 277.504 186.196 277.504C186.9 277.504 187.508 277.648 188.02 277.936C188.537 278.224 188.932 278.627 189.204 279.144C189.481 279.661 189.62 280.256 189.62 280.928V281.472C189.62 281.733 189.599 281.923 189.556 282.04C189.513 282.157 189.436 282.237 189.324 282.28C189.212 282.323 189.033 282.344 188.788 282.344H183.82C183.82 282.509 183.828 282.672 183.844 282.832C183.876 283.248 183.996 283.616 184.204 283.936C184.412 284.251 184.695 284.496 185.052 284.672C185.409 284.843 185.823 284.928 186.292 284.928C186.948 284.928 187.58 284.8 188.188 284.544C188.236 284.523 188.297 284.499 188.372 284.472C188.447 284.44 188.511 284.419 188.564 284.408C188.617 284.392 188.673 284.384 188.732 284.384C188.892 284.384 189.023 284.437 189.124 284.544C189.225 284.645 189.276 284.781 189.276 284.952C189.276 285.219 189.095 285.44 188.732 285.616C188.001 285.968 187.183 286.144 186.276 286.144ZM188.38 281.304C188.391 281.155 188.396 281.048 188.396 280.984C188.396 280.499 188.303 280.085 188.116 279.744C187.935 279.397 187.676 279.136 187.34 278.96C187.004 278.779 186.615 278.688 186.172 278.688C185.735 278.688 185.345 278.781 185.004 278.968C184.668 279.149 184.399 279.405 184.196 279.736C183.993 280.067 183.876 280.448 183.844 280.88L183.82 281.304H188.38ZM192.837 273.232C193.024 273.232 193.168 273.288 193.269 273.4C193.376 273.507 193.429 273.659 193.429 273.856V288.256C193.429 288.453 193.376 288.605 193.269 288.712C193.168 288.824 193.024 288.88 192.837 288.88C192.656 288.88 192.512 288.824 192.405 288.712C192.304 288.605 192.253 288.453 192.253 288.256V273.856C192.253 273.659 192.304 273.507 192.405 273.4C192.512 273.288 192.656 273.232 192.837 273.232Z" fill="#303030"/>
<line x1="66.6" y1="301.4" x2="319.4" y2="301.4" stroke="#D6D6D6" stroke-width="1.2" stroke-linecap="round"/>
<circle cx="46" cy="342" r="8.5" stroke="#818181" stroke-width="1.6"/>
<path d="M47.5 342C47.5 341.172 46.8284 340.5 46 340.5C45.1716 340.5 44.5 341.172 44.5 342C44.5 342.828 45.1716 343.5 46 343.5C46.8284 343.5 47.5 342.828 47.5 342Z" fill="#818181"/>
<path d="M50.6029 341.999C50.6029 339.457 48.5415 337.395 45.9987 337.395C43.4559 337.395 41.3945 339.457 41.3945 341.999C41.3945 344.542 43.4559 346.604 45.9987 346.604C48.5415 346.604 50.6029 344.542 50.6029 341.999Z" stroke="#818181" stroke-width="1.6"/>
<path d="M74.452 350.126C73.7287 350.126 73.094 350.04 72.548 349.867C72.002 349.694 71.5143 349.456 71.085 349.153C70.8797 349.018 70.777 348.838 70.777 348.614C70.777 348.455 70.8307 348.322 70.938 348.215C71.05 348.108 71.1877 348.054 71.351 348.054C71.4817 348.054 71.624 348.105 71.778 348.208C72.1653 348.465 72.569 348.663 72.989 348.803C73.4137 348.938 73.9013 349.006 74.452 349.006C75.25 349.006 75.852 348.861 76.258 348.572C76.664 348.278 76.867 347.856 76.867 347.305C76.867 346.997 76.783 346.736 76.615 346.521C76.4517 346.306 76.188 346.124 75.824 345.975C75.46 345.821 74.9677 345.683 74.347 345.562C73.5117 345.399 72.8467 345.193 72.352 344.946C71.8573 344.699 71.498 344.395 71.274 344.036C71.0547 343.672 70.945 343.226 70.945 342.699C70.945 342.134 71.085 341.644 71.365 341.229C71.6497 340.814 72.0487 340.496 72.562 340.277C73.0753 340.058 73.6727 339.948 74.354 339.948C74.97 339.948 75.5137 340.025 75.985 340.179C76.461 340.333 76.8717 340.534 77.217 340.781C77.3243 340.856 77.4037 340.935 77.455 341.019C77.5063 341.103 77.532 341.201 77.532 341.313C77.532 341.462 77.4783 341.593 77.371 341.705C77.2637 341.817 77.1307 341.873 76.972 341.873C76.902 341.873 76.8343 341.861 76.769 341.838C76.7037 341.81 76.6243 341.77 76.531 341.719C76.2323 341.514 75.9057 341.355 75.551 341.243C75.201 341.131 74.802 341.075 74.354 341.075C73.6167 341.075 73.059 341.217 72.681 341.502C72.303 341.782 72.114 342.176 72.114 342.685C72.114 342.993 72.1887 343.252 72.338 343.462C72.492 343.667 72.7487 343.847 73.108 344.001C73.4673 344.15 73.9643 344.286 74.599 344.407C75.4297 344.566 76.0947 344.769 76.594 345.016C77.0933 345.259 77.4573 345.564 77.686 345.933C77.9193 346.297 78.036 346.745 78.036 347.277C78.036 347.86 77.8913 348.367 77.602 348.796C77.3127 349.225 76.8973 349.554 76.356 349.783C75.8193 350.012 75.1847 350.126 74.452 350.126ZM83.6883 350.756C83.6883 350.938 83.6393 351.08 83.5413 351.183C83.4433 351.286 83.3103 351.337 83.1423 351.337C82.9743 351.337 82.8413 351.286 82.7433 351.183C82.6453 351.08 82.5963 350.938 82.5963 350.756V349.706C81.6397 349.622 80.8043 349.328 80.0903 348.824C79.885 348.684 79.7823 348.504 79.7823 348.285C79.7823 348.131 79.836 348 79.9433 347.893C80.0553 347.786 80.1907 347.732 80.3493 347.732C80.4707 347.732 80.6153 347.783 80.7833 347.886C81.1427 348.119 81.5137 348.299 81.8963 348.425C82.2837 348.551 82.7317 348.614 83.2403 348.614C83.9637 348.614 84.5097 348.483 84.8783 348.222C85.247 347.961 85.4313 347.58 85.4313 347.081C85.4313 346.801 85.352 346.565 85.1933 346.374C85.0393 346.183 84.7943 346.019 84.4583 345.884C84.127 345.744 83.679 345.618 83.1143 345.506C82.3397 345.352 81.7213 345.161 81.2593 344.932C80.802 344.699 80.4683 344.412 80.2583 344.071C80.053 343.73 79.9503 343.313 79.9503 342.818C79.9503 342.342 80.0577 341.924 80.2723 341.565C80.4917 341.201 80.7997 340.909 81.1963 340.69C81.593 340.466 82.0597 340.326 82.5963 340.27V339.346C82.5963 339.164 82.6453 339.022 82.7433 338.919C82.8413 338.816 82.9743 338.765 83.1423 338.765C83.3103 338.765 83.4433 338.816 83.5413 338.919C83.6393 339.022 83.6883 339.164 83.6883 339.346V340.263C84.533 340.342 85.2447 340.592 85.8233 341.012C85.9307 341.082 86.01 341.159 86.0613 341.243C86.1127 341.322 86.1383 341.42 86.1383 341.537C86.1383 341.686 86.0847 341.817 85.9773 341.929C85.87 342.036 85.737 342.09 85.5783 342.09C85.5083 342.09 85.4407 342.078 85.3753 342.055C85.31 342.027 85.233 341.99 85.1443 341.943C84.855 341.756 84.5493 341.614 84.2273 341.516C83.91 341.413 83.5483 341.362 83.1423 341.362C82.4703 341.362 81.964 341.488 81.6233 341.74C81.2827 341.992 81.1123 342.347 81.1123 342.804C81.1123 343.079 81.1823 343.313 81.3223 343.504C81.4623 343.695 81.6957 343.859 82.0223 343.994C82.3537 344.129 82.8063 344.253 83.3803 344.365C84.155 344.51 84.7757 344.699 85.2423 344.932C85.7137 345.161 86.0567 345.448 86.2713 345.793C86.4907 346.138 86.6003 346.561 86.6003 347.06C86.6003 347.564 86.4837 348.01 86.2503 348.397C86.017 348.78 85.681 349.085 85.2423 349.314C84.8083 349.538 84.2903 349.673 83.6883 349.72V350.756Z" fill="#818181"/>
<path d="M101.471 349.131C101.471 349.439 101.39 349.677 101.229 349.846C101.068 350.015 100.844 350.099 100.558 350.099C100.272 350.099 100.048 350.015 99.887 349.846C99.7257 349.677 99.645 349.439 99.645 349.131V336.415L95.729 338.406C95.4943 338.531 95.2707 338.593 95.058 338.593C94.86 338.593 94.6803 338.516 94.519 338.362C94.365 338.201 94.288 338.006 94.288 337.779C94.288 337.603 94.3393 337.449 94.442 337.317C94.5447 337.185 94.695 337.068 94.893 336.965L99.359 334.644C99.6083 334.519 99.821 334.428 99.997 334.369C100.173 334.303 100.334 334.27 100.481 334.27C100.782 334.27 101.02 334.362 101.196 334.545C101.379 334.728 101.471 334.989 101.471 335.326V349.131ZM112.138 350.187C111.118 350.187 110.213 349.963 109.421 349.516C108.629 349.069 107.998 348.427 107.529 347.591C107.067 346.755 106.799 345.772 106.726 344.643C106.682 343.968 106.66 343.088 106.66 342.003C106.66 341.152 106.678 340.39 106.715 339.715C106.788 338.593 107.056 337.618 107.518 336.789C107.987 335.96 108.618 335.322 109.41 334.875C110.209 334.428 111.118 334.204 112.138 334.204C113.157 334.204 114.063 334.428 114.855 334.875C115.647 335.322 116.274 335.96 116.736 336.789C117.205 337.618 117.476 338.593 117.55 339.715C117.594 340.382 117.616 341.262 117.616 342.355C117.616 343.22 117.597 343.983 117.561 344.643C117.487 345.765 117.216 346.744 116.747 347.58C116.285 348.416 115.654 349.061 114.855 349.516C114.063 349.963 113.157 350.187 112.138 350.187ZM108.574 344.544C108.684 345.813 109.039 346.773 109.641 347.426C110.249 348.079 111.082 348.405 112.138 348.405C113.194 348.405 114.03 348.075 114.646 347.415C115.262 346.755 115.617 345.798 115.713 344.544C115.757 343.928 115.779 343.147 115.779 342.201C115.779 341.248 115.757 340.459 115.713 339.836C115.617 338.589 115.262 337.636 114.646 336.976C114.03 336.316 113.194 335.986 112.138 335.986C111.074 335.986 110.242 336.316 109.641 336.976C109.039 337.629 108.684 338.582 108.574 339.836C108.522 340.467 108.497 341.244 108.497 342.168C108.497 343.07 108.522 343.862 108.574 344.544ZM121.374 352.101C121.25 352.563 121.004 352.794 120.637 352.794C120.395 352.794 120.194 352.728 120.032 352.596C119.871 352.471 119.79 352.31 119.79 352.112C119.79 351.98 119.816 351.83 119.867 351.661L120.923 347.745C120.997 347.466 121.096 347.257 121.22 347.118C121.352 346.979 121.528 346.909 121.748 346.909C122.012 346.909 122.225 346.979 122.386 347.118C122.555 347.257 122.639 347.437 122.639 347.657C122.639 347.804 122.61 347.98 122.551 348.185L121.374 352.101ZM131.13 350.187C130.111 350.187 129.205 349.963 128.413 349.516C127.621 349.069 126.99 348.427 126.521 347.591C126.059 346.755 125.791 345.772 125.718 344.643C125.674 343.968 125.652 343.088 125.652 342.003C125.652 341.152 125.67 340.39 125.707 339.715C125.78 338.593 126.048 337.618 126.51 336.789C126.979 335.96 127.61 335.322 128.402 334.875C129.201 334.428 130.111 334.204 131.13 334.204C132.149 334.204 133.055 334.428 133.847 334.875C134.639 335.322 135.266 335.96 135.728 336.789C136.197 337.618 136.469 338.593 136.542 339.715C136.586 340.382 136.608 341.262 136.608 342.355C136.608 343.22 136.59 343.983 136.553 344.643C136.48 345.765 136.208 346.744 135.739 347.58C135.277 348.416 134.646 349.061 133.847 349.516C133.055 349.963 132.149 350.187 131.13 350.187ZM127.566 344.544C127.676 345.813 128.032 346.773 128.633 347.426C129.242 348.079 130.074 348.405 131.13 348.405C132.186 348.405 133.022 348.075 133.638 347.415C134.254 346.755 134.61 345.798 134.705 344.544C134.749 343.928 134.771 343.147 134.771 342.201C134.771 341.248 134.749 340.459 134.705 339.836C134.61 338.589 134.254 337.636 133.638 336.976C133.022 336.316 132.186 335.986 131.13 335.986C130.067 335.986 129.234 336.316 128.633 336.976C128.032 337.629 127.676 338.582 127.566 339.836C127.515 340.467 127.489 341.244 127.489 342.168C127.489 343.07 127.515 343.862 127.566 344.544ZM144.558 350.187C143.538 350.187 142.633 349.963 141.841 349.516C141.049 349.069 140.418 348.427 139.949 347.591C139.487 346.755 139.219 345.772 139.146 344.643C139.102 343.968 139.08 343.088 139.08 342.003C139.08 341.152 139.098 340.39 139.135 339.715C139.208 338.593 139.476 337.618 139.938 336.789C140.407 335.96 141.038 335.322 141.83 334.875C142.629 334.428 143.538 334.204 144.558 334.204C145.577 334.204 146.483 334.428 147.275 334.875C148.067 335.322 148.694 335.96 149.156 336.789C149.625 337.618 149.896 338.593 149.97 339.715C150.014 340.382 150.036 341.262 150.036 342.355C150.036 343.22 150.017 343.983 149.981 344.643C149.907 345.765 149.636 346.744 149.167 347.58C148.705 348.416 148.074 349.061 147.275 349.516C146.483 349.963 145.577 350.187 144.558 350.187ZM140.994 344.544C141.104 345.813 141.459 346.773 142.061 347.426C142.669 348.079 143.502 348.405 144.558 348.405C145.614 348.405 146.45 348.075 147.066 347.415C147.682 346.755 148.037 345.798 148.133 344.544C148.177 343.928 148.199 343.147 148.199 342.201C148.199 341.248 148.177 340.459 148.133 339.836C148.037 338.589 147.682 337.636 147.066 336.976C146.45 336.316 145.614 335.986 144.558 335.986C143.494 335.986 142.662 336.316 142.061 336.976C141.459 337.629 141.104 338.582 140.994 339.836C140.942 340.467 140.917 341.244 140.917 342.168C140.917 343.07 140.942 343.862 140.994 344.544ZM157.985 350.187C156.966 350.187 156.06 349.963 155.268 349.516C154.476 349.069 153.846 348.427 153.376 347.591C152.914 346.755 152.647 345.772 152.573 344.643C152.529 343.968 152.507 343.088 152.507 342.003C152.507 341.152 152.526 340.39 152.562 339.715C152.636 338.593 152.903 337.618 153.365 336.789C153.835 335.96 154.465 335.322 155.257 334.875C156.057 334.428 156.966 334.204 157.985 334.204C159.005 334.204 159.91 334.428 160.702 334.875C161.494 335.322 162.121 335.96 162.583 336.789C163.053 337.618 163.324 338.593 163.397 339.715C163.441 340.382 163.463 341.262 163.463 342.355C163.463 343.22 163.445 343.983 163.408 344.643C163.335 345.765 163.064 346.744 162.594 347.58C162.132 348.416 161.502 349.061 160.702 349.516C159.91 349.963 159.005 350.187 157.985 350.187ZM154.421 344.544C154.531 345.813 154.887 346.773 155.488 347.426C156.097 348.079 156.929 348.405 157.985 348.405C159.041 348.405 159.877 348.075 160.493 347.415C161.109 346.755 161.465 345.798 161.56 344.544C161.604 343.928 161.626 343.147 161.626 342.201C161.626 341.248 161.604 340.459 161.56 339.836C161.465 338.589 161.109 337.636 160.493 336.976C159.877 336.316 159.041 335.986 157.985 335.986C156.922 335.986 156.09 336.316 155.488 336.976C154.887 337.629 154.531 338.582 154.421 339.836C154.37 340.467 154.344 341.244 154.344 342.168C154.344 343.07 154.37 343.862 154.421 344.544ZM167.475 346.216C167.746 346.216 167.955 346.297 168.102 346.458C168.256 346.619 168.333 346.843 168.333 347.129V349.186C168.333 349.479 168.256 349.707 168.102 349.868C167.955 350.022 167.746 350.099 167.475 350.099C167.211 350.099 167.002 350.018 166.848 349.857C166.694 349.696 166.617 349.472 166.617 349.186V347.129C166.617 346.843 166.694 346.619 166.848 346.458C167.002 346.297 167.211 346.216 167.475 346.216Z" fill="#818181"/>
<path d="M175.27 350.119C174.621 350.119 174.045 349.977 173.541 349.692C173.037 349.407 172.636 348.999 172.337 348.467C172.043 347.935 171.873 347.31 171.826 346.591C171.798 346.162 171.784 345.602 171.784 344.911C171.784 344.37 171.796 343.884 171.819 343.455C171.866 342.741 172.036 342.12 172.33 341.593C172.629 341.066 173.03 340.66 173.534 340.375C174.043 340.09 174.621 339.948 175.27 339.948C175.919 339.948 176.495 340.09 176.999 340.375C177.503 340.66 177.902 341.066 178.196 341.593C178.495 342.12 178.667 342.741 178.714 343.455C178.742 343.88 178.756 344.44 178.756 345.135C178.756 345.686 178.744 346.171 178.721 346.591C178.674 347.305 178.502 347.928 178.203 348.46C177.909 348.992 177.508 349.403 176.999 349.692C176.495 349.977 175.919 350.119 175.27 350.119ZM173.002 346.528C173.072 347.335 173.298 347.947 173.681 348.362C174.068 348.777 174.598 348.985 175.27 348.985C175.942 348.985 176.474 348.775 176.866 348.355C177.258 347.935 177.484 347.326 177.545 346.528C177.573 346.136 177.587 345.639 177.587 345.037C177.587 344.43 177.573 343.929 177.545 343.532C177.484 342.739 177.258 342.132 176.866 341.712C176.474 341.292 175.942 341.082 175.27 341.082C174.593 341.082 174.064 341.292 173.681 341.712C173.298 342.127 173.072 342.734 173.002 343.532C172.969 343.933 172.953 344.428 172.953 345.016C172.953 345.59 172.969 346.094 173.002 346.528ZM183.965 350.119C183.316 350.119 182.74 349.977 182.236 349.692C181.732 349.407 181.331 348.999 181.032 348.467C180.738 347.935 180.568 347.31 180.521 346.591C180.493 346.162 180.479 345.602 180.479 344.911C180.479 344.37 180.491 343.884 180.514 343.455C180.561 342.741 180.731 342.12 181.025 341.593C181.324 341.066 181.725 340.66 182.229 340.375C182.738 340.09 183.316 339.948 183.965 339.948C184.614 339.948 185.19 340.09 185.694 340.375C186.198 340.66 186.597 341.066 186.891 341.593C187.19 342.12 187.362 342.741 187.409 343.455C187.437 343.88 187.451 344.44 187.451 345.135C187.451 345.686 187.439 346.171 187.416 346.591C187.369 347.305 187.197 347.928 186.898 348.46C186.604 348.992 186.203 349.403 185.694 349.692C185.19 349.977 184.614 350.119 183.965 350.119ZM181.697 346.528C181.767 347.335 181.993 347.947 182.376 348.362C182.763 348.777 183.293 348.985 183.965 348.985C184.637 348.985 185.169 348.775 185.561 348.355C185.953 347.935 186.179 347.326 186.24 346.528C186.268 346.136 186.282 345.639 186.282 345.037C186.282 344.43 186.268 343.929 186.24 343.532C186.179 342.739 185.953 342.132 185.561 341.712C185.169 341.292 184.637 341.082 183.965 341.082C183.288 341.082 182.759 341.292 182.376 341.712C181.993 342.127 181.767 342.734 181.697 343.532C181.664 343.933 181.648 344.428 181.648 345.016C181.648 345.59 181.664 346.094 181.697 346.528Z" fill="#818181"/>
<path d="M37.5 396C37.5 394.895 38.3954 394 39.5 394H52.5C53.6046 394 54.5 394.895 54.5 396V406.5C54.5 407.605 53.6046 408.5 52.5 408.5H39.5C38.3954 408.5 37.5 407.605 37.5 406.5V396Z" stroke="#818181" stroke-width="1.6"/>
<path d="M37.5 397H54.5" stroke="#818181" stroke-width="1.6" stroke-linecap="round"/>
<path d="M40.5 391.5V394" stroke="#818181" stroke-width="1.6" stroke-linecap="round"/>
<path d="M51.5 391.5V393.5" stroke="#818181" stroke-width="1.6" stroke-linecap="round"/>
<path d="M76.888 405.368C76.888 405.592 76.8293 405.765 76.712 405.888C76.5947 406.011 76.432 406.072 76.224 406.072C76.016 406.072 75.8533 406.011 75.736 405.888C75.6187 405.765 75.56 405.592 75.56 405.368V396.12L72.712 397.568C72.5413 397.659 72.3787 397.704 72.224 397.704C72.08 397.704 71.9493 397.648 71.832 397.536C71.72 397.419 71.664 397.277 71.664 397.112C71.664 396.984 71.7013 396.872 71.776 396.776C71.8507 396.68 71.96 396.595 72.104 396.52L75.352 394.832C75.5333 394.741 75.688 394.675 75.816 394.632C75.944 394.584 76.0613 394.56 76.168 394.56C76.3867 394.56 76.56 394.627 76.688 394.76C76.8213 394.893 76.888 395.083 76.888 395.328V405.368ZM85.2136 399C85.987 399 86.6456 399.149 87.1896 399.448C87.739 399.741 88.1523 400.149 88.4296 400.672C88.7123 401.195 88.8536 401.797 88.8536 402.48C88.8536 403.195 88.6963 403.829 88.3816 404.384C88.0723 404.939 87.6296 405.371 87.0536 405.68C86.483 405.989 85.819 406.144 85.0616 406.144C83.691 406.144 82.6856 405.688 82.0456 404.776C81.411 403.859 81.0936 402.555 81.0936 400.864C81.0936 398.752 81.5976 397.189 82.6056 396.176C83.619 395.157 85.1576 394.648 87.2216 394.648C87.435 394.648 87.6003 394.707 87.7176 394.824C87.8403 394.936 87.9016 395.093 87.9016 395.296C87.9016 395.493 87.8403 395.651 87.7176 395.768C87.6003 395.88 87.435 395.936 87.2216 395.936C86.1816 395.936 85.3283 396.069 84.6616 396.336C84.0003 396.603 83.491 397.021 83.1336 397.592C82.7816 398.157 82.5603 398.904 82.4696 399.832C82.8376 399.576 83.2643 399.373 83.7496 399.224C84.235 399.075 84.723 399 85.2136 399ZM82.4216 401.064C82.411 402.312 82.6136 403.261 83.0296 403.912C83.451 404.557 84.1283 404.88 85.0616 404.88C85.547 404.88 85.9763 404.784 86.3496 404.592C86.723 404.4 87.0136 404.123 87.2216 403.76C87.4296 403.397 87.5336 402.971 87.5336 402.48C87.5336 402.027 87.4376 401.629 87.2456 401.288C87.0536 400.941 86.771 400.675 86.3976 400.488C86.0296 400.301 85.5843 400.208 85.0616 400.208C84.5496 400.213 84.067 400.293 83.6136 400.448C83.1603 400.603 82.763 400.808 82.4216 401.064ZM97.0224 406C96.665 406 96.3904 405.907 96.1984 405.72C96.0117 405.528 95.9184 405.253 95.9184 404.896V395.76C95.9184 395.403 96.0117 395.131 96.1984 394.944C96.3904 394.752 96.665 394.656 97.0224 394.656H99.7984C100.774 394.656 101.628 394.845 102.358 395.224C103.089 395.603 103.662 396.123 104.078 396.784C104.494 397.445 104.734 398.192 104.798 399.024C104.83 399.445 104.846 399.88 104.846 400.328C104.846 400.776 104.83 401.213 104.798 401.64C104.734 402.467 104.494 403.211 104.078 403.872C103.662 404.528 103.086 405.048 102.35 405.432C101.62 405.811 100.769 406 99.7984 406H97.0224ZM99.7824 404.712C100.524 404.712 101.158 404.579 101.686 404.312C102.22 404.045 102.633 403.677 102.926 403.208C103.22 402.733 103.39 402.189 103.438 401.576C103.476 401.187 103.494 400.771 103.494 400.328C103.494 399.88 103.476 399.467 103.438 399.088C103.385 398.469 103.212 397.925 102.918 397.456C102.63 396.981 102.22 396.611 101.686 396.344C101.158 396.077 100.524 395.944 99.7824 395.944H97.2624V404.712H99.7824ZM110.77 406.144C110.087 406.144 109.479 406.011 108.946 405.744C108.412 405.472 107.986 405.093 107.666 404.608C107.346 404.117 107.154 403.555 107.09 402.92C107.058 402.6 107.042 402.216 107.042 401.768C107.042 401.421 107.055 401.096 107.082 400.792C107.14 400.147 107.327 399.576 107.642 399.08C107.962 398.584 108.383 398.197 108.906 397.92C109.428 397.643 110.023 397.504 110.69 397.504C111.394 397.504 112.002 397.648 112.514 397.936C113.031 398.224 113.426 398.627 113.698 399.144C113.975 399.661 114.114 400.256 114.114 400.928V401.472C114.114 401.733 114.092 401.923 114.05 402.04C114.007 402.157 113.93 402.237 113.818 402.28C113.706 402.323 113.527 402.344 113.282 402.344H108.314C108.314 402.509 108.322 402.672 108.338 402.832C108.37 403.248 108.49 403.616 108.698 403.936C108.906 404.251 109.188 404.496 109.546 404.672C109.903 404.843 110.316 404.928 110.786 404.928C111.442 404.928 112.074 404.8 112.682 404.544C112.73 404.523 112.791 404.499 112.866 404.472C112.94 404.44 113.004 404.419 113.058 404.408C113.111 404.392 113.167 404.384 113.226 404.384C113.386 404.384 113.516 404.437 113.618 404.544C113.719 404.645 113.77 404.781 113.77 404.952C113.77 405.219 113.588 405.44 113.226 405.616C112.495 405.968 111.676 406.144 110.77 406.144ZM112.874 401.304C112.884 401.155 112.89 401.048 112.89 400.984C112.89 400.499 112.796 400.085 112.61 399.744C112.428 399.397 112.17 399.136 111.834 398.96C111.498 398.779 111.108 398.688 110.666 398.688C110.228 398.688 109.839 398.781 109.498 398.968C109.162 399.149 108.892 399.405 108.69 399.736C108.487 400.067 108.37 400.448 108.338 400.88L108.314 401.304H112.874ZM117.523 400.8C117.496 401.147 117.483 401.483 117.483 401.808C117.483 402.139 117.496 402.477 117.523 402.824C117.582 403.453 117.811 403.955 118.211 404.328C118.611 404.696 119.152 404.88 119.835 404.88C120.304 404.88 120.715 404.76 121.067 404.52C121.419 404.28 121.686 403.957 121.867 403.552C121.878 403.536 121.907 403.488 121.955 403.408C122.003 403.323 122.072 403.253 122.163 403.2C122.254 403.147 122.36 403.12 122.483 403.12C122.659 403.12 122.803 403.179 122.915 403.296C123.032 403.408 123.091 403.552 123.091 403.728C123.091 403.819 123.075 403.917 123.043 404.024C123.011 404.125 122.96 404.251 122.891 404.4C122.635 404.923 122.238 405.344 121.699 405.664C121.166 405.984 120.539 406.144 119.819 406.144C119.147 406.144 118.55 406.011 118.027 405.744C117.51 405.477 117.096 405.104 116.787 404.624C116.483 404.144 116.299 403.589 116.235 402.96C116.203 402.645 116.187 402.264 116.187 401.816C116.187 401.363 116.203 400.981 116.235 400.672C116.294 400.043 116.478 399.488 116.787 399.008C117.096 398.523 117.51 398.147 118.027 397.88C118.55 397.613 119.147 397.48 119.819 397.48C120.539 397.48 121.168 397.643 121.707 397.968C122.246 398.288 122.64 398.709 122.891 399.232C123.024 399.504 123.091 399.725 123.091 399.896C123.091 400.072 123.032 400.219 122.915 400.336C122.803 400.448 122.659 400.504 122.483 400.504C122.366 400.504 122.267 400.483 122.187 400.44C122.112 400.392 122.056 400.344 122.019 400.296C121.982 400.248 121.931 400.173 121.867 400.072C121.446 399.192 120.768 398.752 119.835 398.752C119.158 398.752 118.616 398.939 118.211 399.312C117.811 399.68 117.582 400.176 117.523 400.8ZM129.308 395.056C129.398 394.72 129.577 394.552 129.844 394.552C130.02 394.552 130.166 394.6 130.284 394.696C130.401 394.787 130.46 394.904 130.46 395.048C130.46 395.144 130.441 395.253 130.404 395.376L129.636 398.224C129.582 398.427 129.508 398.579 129.412 398.68C129.321 398.781 129.196 398.832 129.036 398.832C128.844 398.832 128.686 398.781 128.564 398.68C128.446 398.579 128.388 398.448 128.388 398.288C128.388 398.181 128.409 398.053 128.452 397.904L129.308 395.056ZM133.767 406C133.469 406 133.242 405.917 133.087 405.752C132.938 405.581 132.863 405.357 132.863 405.08C132.863 404.531 132.954 404.051 133.135 403.64C133.322 403.224 133.602 402.827 133.975 402.448C134.349 402.069 134.877 401.624 135.559 401.112C135.805 400.925 136.111 400.707 136.479 400.456C137.002 400.088 137.402 399.787 137.679 399.552C137.957 399.317 138.183 399.051 138.359 398.752C138.541 398.453 138.631 398.112 138.631 397.728C138.631 397.36 138.549 397.029 138.383 396.736C138.223 396.443 137.978 396.211 137.647 396.04C137.322 395.869 136.917 395.784 136.431 395.784C135.951 395.784 135.525 395.869 135.151 396.04C134.778 396.211 134.426 396.496 134.095 396.896C134.015 396.987 133.933 397.056 133.847 397.104C133.762 397.152 133.663 397.176 133.551 397.176C133.375 397.176 133.226 397.12 133.103 397.008C132.981 396.896 132.919 396.744 132.919 396.552C132.919 396.472 132.938 396.387 132.975 396.296C133.018 396.2 133.074 396.112 133.143 396.032C133.997 395.019 135.093 394.512 136.431 394.512C137.167 394.512 137.802 394.648 138.335 394.92C138.869 395.192 139.274 395.571 139.551 396.056C139.834 396.541 139.975 397.099 139.975 397.728C139.975 398.283 139.85 398.776 139.599 399.208C139.349 399.64 139.029 400.024 138.639 400.36C138.25 400.691 137.693 401.117 136.967 401.64L136.687 401.84C135.978 402.368 135.477 402.755 135.183 403C134.895 403.24 134.674 403.493 134.519 403.76C134.365 404.027 134.282 404.347 134.271 404.72H139.575C139.789 404.72 139.957 404.779 140.079 404.896C140.202 405.008 140.263 405.163 140.263 405.36C140.263 405.557 140.202 405.715 140.079 405.832C139.957 405.944 139.789 406 139.575 406H133.767ZM143.397 395.936C143.184 395.936 143.016 395.88 142.893 395.768C142.776 395.651 142.717 395.493 142.717 395.296C142.717 395.099 142.776 394.944 142.893 394.832C143.016 394.715 143.184 394.656 143.397 394.656H148.677C148.976 394.656 149.208 394.715 149.373 394.832C149.538 394.949 149.621 395.125 149.621 395.36C149.621 395.531 149.586 395.683 149.517 395.816C149.448 395.949 149.349 396.088 149.221 396.232L146.821 398.88H146.861C147.506 398.88 148.074 399.013 148.565 399.28C149.061 399.541 149.442 399.909 149.709 400.384C149.981 400.853 150.117 401.395 150.117 402.008C150.117 402.829 149.877 403.549 149.397 404.168C148.917 404.781 148.25 405.253 147.397 405.584C146.549 405.915 145.584 406.08 144.501 406.08C144.096 406.08 143.73 406.061 143.405 406.024C143.208 406.003 143.056 405.939 142.949 405.832C142.842 405.72 142.789 405.576 142.789 405.4C142.789 405.203 142.848 405.048 142.965 404.936C143.088 404.824 143.266 404.768 143.501 404.768C143.56 404.768 143.69 404.773 143.893 404.784C144.293 404.8 144.514 404.808 144.557 404.808C145.352 404.808 146.069 404.701 146.709 404.488C147.354 404.269 147.864 403.952 148.237 403.536C148.61 403.115 148.797 402.611 148.797 402.024C148.797 401.608 148.706 401.245 148.525 400.936C148.344 400.627 148.082 400.389 147.741 400.224C147.405 400.053 147.008 399.968 146.549 399.968C146.378 399.968 146.229 399.979 146.101 400C145.973 400.016 145.896 400.027 145.869 400.032C145.736 400.059 145.634 400.072 145.565 400.072C145.389 400.072 145.242 400.021 145.125 399.92C145.013 399.819 144.957 399.677 144.957 399.496C144.957 399.384 144.984 399.28 145.037 399.184C145.096 399.083 145.194 398.957 145.333 398.808L147.853 395.96V395.936H143.397Z" fill="#818181"/>
<line x1="34.5" y1="371.5" x2="319.5" y2="371.5" stroke="#CED8DE" stroke-linecap="round"/>
<line x1="33.5" y1="434.424" x2="319.5" y2="434.424" stroke="#CED8DE" stroke-linecap="round"/>
<g clip-path="url(#clip1_4435_342287)">
<rect x="21" y="88" width="315" height="139" rx="4" fill="#E6E6E6"/>
<path d="M336.5 127.399C336.5 128.642 335.492 129.65 334.249 129.65H253.762C242.572 129.65 233.5 120.579 233.5 109.388V90.2515C233.5 89.0081 234.508 88.0001 235.751 88.0001L334.249 88.0001C335.492 88.0001 336.5 89.0081 336.5 90.2515V127.399Z" fill="#D9D9D9"/>
<rect x="301.5" y="201" width="48" height="42" rx="20" transform="rotate(-180 301.5 201)" fill="#C8C8C8"/>
<rect x="301.5" y="201" width="48" height="42" rx="20" transform="rotate(-180 301.5 201)" fill="#C8C8C8"/>
<path d="M21.5 157C21.5 154.791 23.2909 153 25.5 153H168.5C188.382 153 204.5 169.118 204.5 189V223C204.5 225.209 202.709 227 200.5 227H25.5C23.2909 227 21.5 225.209 21.5 223V157Z" fill="#D9D9D9"/>
<rect x="309" y="96" width="20" height="20" rx="8" fill="white"/>
<path d="M314 108.5L312.75 112.25L316.5 111L315.25 109.75L314 108.5Z" stroke="black" stroke-width="0.8" stroke-linecap="round" stroke-linejoin="round"/>
<path d="M314 108.5L322.75 99.75C324 99.75 325.25 101 325.25 102.25L316.5 111" stroke="black" stroke-width="0.8" stroke-linecap="round" stroke-linejoin="round"/>
<path d="M321.5 101L324 103.5" stroke="black" stroke-width="0.8" stroke-linecap="round"/>
</g>
<path opacity="0.44" fill-rule="evenodd" clip-rule="evenodd" d="M353 8.37891L353.46 8.68553C354.11 9.11871 354.5 9.84798 354.5 10.6289C354.5 11.4098 354.11 12.1391 353.46 12.5723L353 12.8789V8.37891ZM330 4.87891H350C351.105 4.87891 352 5.77434 352 6.87891V14.3789C352 15.4835 351.105 16.3789 350 16.3789H330C328.895 16.3789 328 15.4835 328 14.3789V6.87891C328 5.77434 328.895 4.87891 330 4.87891ZM330 5.87891C329.448 5.87891 329 6.32662 329 6.87891V14.3789C329 14.9312 329.448 15.3789 330 15.3789H350C350.552 15.3789 351 14.9312 351 14.3789V6.87891C351 6.32662 350.552 5.87891 350 5.87891H330Z" fill="black"/>
<path fill-rule="evenodd" clip-rule="evenodd" d="M331 6.87891H346V14.3789H331C330.448 14.3789 330 13.9312 330 13.3789V7.87891C330 7.32662 330.448 6.87891 331 6.87891Z" fill="black"/>
<path d="M166.258 14.3789H167.77V5.92383H166.264L164.055 7.4707V8.92383L166.158 7.44727H166.258V14.3789Z" fill="black"/>
<path d="M173.125 14.584C175.275 14.584 176.553 12.9023 176.553 10.0547C176.553 8.98242 176.348 8.08008 175.955 7.38281C175.387 6.29883 174.408 5.71289 173.172 5.71289C171.332 5.71289 170.031 6.94922 170.031 8.68359C170.031 10.3125 171.203 11.4961 172.814 11.4961C173.805 11.4961 174.607 11.0332 175.006 10.2305H175.023C175.023 10.2305 175.047 10.2305 175.053 10.2305C175.064 10.2305 175.105 10.2305 175.105 10.2305C175.105 12.1641 174.373 13.3184 173.137 13.3184C172.41 13.3184 171.848 12.9199 171.654 12.2812H170.148C170.4 13.6699 171.578 14.584 173.125 14.584ZM173.178 10.2949C172.205 10.2949 171.514 9.60352 171.514 8.63672C171.514 7.69336 172.24 6.97266 173.184 6.97266C174.127 6.97266 174.854 7.70508 174.854 8.66016C174.854 9.60352 174.145 10.2949 173.178 10.2949Z" fill="black"/>
<path d="M179.207 13.4824C179.764 13.4824 180.145 13.084 180.145 12.5566C180.145 12.0234 179.764 11.6309 179.207 11.6309C178.656 11.6309 178.27 12.0234 178.27 12.5566C178.27 13.084 178.656 13.4824 179.207 13.4824ZM179.207 9.08789C179.764 9.08789 180.145 8.69531 180.145 8.16797C180.145 7.63477 179.764 7.24219 179.207 7.24219C178.656 7.24219 178.27 7.63477 178.27 8.16797C178.27 8.69531 178.656 9.08789 179.207 9.08789Z" fill="black"/>
<path d="M185.113 14.5898C187.135 14.5898 188.336 12.9492 188.336 10.1543C188.336 7.34766 187.117 5.71289 185.113 5.71289C183.104 5.71289 181.885 7.34766 181.885 10.1426C181.885 12.9492 183.086 14.5898 185.113 14.5898ZM185.113 13.3359C184.041 13.3359 183.414 12.2227 183.414 10.1426C183.414 8.08008 184.053 6.97266 185.113 6.97266C186.174 6.97266 186.807 8.07422 186.807 10.1426C186.807 12.2227 186.186 13.3359 185.113 13.3359Z" fill="black"/>
<path d="M189.906 8.39648V8.41992H191.324V8.39648C191.324 7.53516 191.922 6.95508 192.807 6.95508C193.639 6.95508 194.248 7.49414 194.248 8.23828C194.248 8.83594 193.961 9.27539 192.807 10.4473L189.988 13.3301V14.3789H195.859V13.0957H192.062V12.9961L193.832 11.2207C195.268 9.80273 195.73 9.05273 195.73 8.14453C195.73 6.73242 194.523 5.71289 192.854 5.71289C191.119 5.71289 189.906 6.81445 189.906 8.39648Z" fill="black"/>
<path fill-rule="evenodd" clip-rule="evenodd" d="M21.5 5.37891C20.9477 5.37891 20.5 5.82662 20.5 6.37891V14.3789C20.5 14.9312 20.9477 15.3789 21.5 15.3789H22.5C23.0523 15.3789 23.5 14.9312 23.5 14.3789V6.37891C23.5 5.82662 23.0523 5.37891 22.5 5.37891H21.5ZM16 8.37891C16 7.82662 16.4477 7.37891 17 7.37891H18C18.5523 7.37891 19 7.82662 19 8.37891V14.3789C19 14.9312 18.5523 15.3789 18 15.3789H17C16.4477 15.3789 16 14.9312 16 14.3789V8.37891ZM12.5 9.37891C11.9477 9.37891 11.5 9.82662 11.5 10.3789V14.3789C11.5 14.9312 11.9477 15.3789 12.5 15.3789H13.5C14.0523 15.3789 14.5 14.9312 14.5 14.3789V10.3789C14.5 9.82662 14.0523 9.37891 13.5 9.37891H12.5ZM8 15.3789C7.44772 15.3789 7 14.9312 7 14.3789V11.8789C7 11.3266 7.44772 10.8789 8 10.8789H9C9.55228 10.8789 10 11.3266 10 11.8789V14.3789C10 14.9312 9.55228 15.3789 9 15.3789H8Z" fill="black"/>
<path d="M31.328 15.4869C30.648 15.4869 30.036 15.3989 29.492 15.2229C28.948 15.0469 28.476 14.7989 28.076 14.4789L28.46 13.5909C28.74 13.7989 29.024 13.9749 29.312 14.1189C29.6 14.2549 29.908 14.3589 30.236 14.4309C30.572 14.4949 30.936 14.5269 31.328 14.5269C32.024 14.5269 32.536 14.4029 32.864 14.1549C33.2 13.8989 33.368 13.5629 33.368 13.1469C33.368 12.7869 33.252 12.5109 33.02 12.3189C32.788 12.1269 32.384 11.9749 31.808 11.8629L30.524 11.5989C29.748 11.4389 29.168 11.1789 28.784 10.8189C28.408 10.4509 28.22 9.95491 28.22 9.33091C28.22 8.82691 28.352 8.38691 28.616 8.01091C28.888 7.62691 29.26 7.33091 29.732 7.12291C30.212 6.91491 30.772 6.81091 31.412 6.81091C32.004 6.81091 32.552 6.89891 33.056 7.07491C33.56 7.25091 33.984 7.51091 34.328 7.85491L33.944 8.70691C33.584 8.37891 33.196 8.14291 32.78 7.99891C32.372 7.84691 31.908 7.77091 31.388 7.77091C30.756 7.77091 30.256 7.90691 29.888 8.17891C29.52 8.45091 29.336 8.81891 29.336 9.28291C29.336 9.65091 29.452 9.94291 29.684 10.1589C29.916 10.3669 30.3 10.5269 30.836 10.6389L32.12 10.8909C32.936 11.0509 33.532 11.3029 33.908 11.6469C34.292 11.9909 34.484 12.4669 34.484 13.0749C34.484 13.5549 34.356 13.9789 34.1 14.3469C33.844 14.7069 33.48 14.9869 33.008 15.1869C32.536 15.3869 31.976 15.4869 31.328 15.4869ZM38.5752 15.4869C37.6152 15.4869 36.8552 15.2109 36.2952 14.6589C35.7432 14.1069 35.4672 13.3469 35.4672 12.3789C35.4672 11.7389 35.5872 11.1869 35.8272 10.7229C36.0752 10.2509 36.4152 9.88691 36.8472 9.63091C37.2792 9.36691 37.7832 9.23491 38.3592 9.23491C38.9112 9.23491 39.3792 9.35491 39.7632 9.59491C40.1472 9.82691 40.4392 10.1589 40.6392 10.5909C40.8392 11.0229 40.9392 11.5349 40.9392 12.1269V12.4869H36.3192V11.8389H40.1952L39.9912 11.9949C39.9912 11.3709 39.8512 10.8869 39.5712 10.5429C39.2992 10.1989 38.8952 10.0269 38.3592 10.0269C37.7752 10.0269 37.3232 10.2309 37.0032 10.6389C36.6832 11.0389 36.5232 11.5869 36.5232 12.2829V12.3909C36.5232 13.1269 36.7032 13.6829 37.0632 14.0589C37.4312 14.4349 37.9392 14.6229 38.5872 14.6229C38.9472 14.6229 39.2832 14.5709 39.5952 14.4669C39.9072 14.3629 40.2072 14.1909 40.4952 13.9509L40.8552 14.7069C40.5832 14.9549 40.2432 15.1469 39.8352 15.2829C39.4352 15.4189 39.0152 15.4869 38.5752 15.4869ZM42.2342 15.3789V10.8189C42.2342 10.5789 42.2262 10.3349 42.2102 10.0869C42.2022 9.83091 42.1822 9.58291 42.1502 9.34291H43.2062L43.3382 10.8549L43.1582 10.8669C43.2382 10.4989 43.3742 10.1949 43.5662 9.95491C43.7662 9.70691 44.0022 9.52691 44.2742 9.41491C44.5542 9.29491 44.8422 9.23491 45.1382 9.23491C45.2662 9.23491 45.3742 9.23891 45.4622 9.24691C45.5502 9.25491 45.6382 9.27491 45.7262 9.30691L45.7022 10.2789C45.5822 10.2309 45.4702 10.2029 45.3662 10.1949C45.2702 10.1789 45.1502 10.1709 45.0062 10.1709C44.6542 10.1709 44.3502 10.2509 44.0942 10.4109C43.8462 10.5709 43.6542 10.7829 43.5182 11.0469C43.3902 11.3109 43.3262 11.5949 43.3262 11.8989V15.3789H42.2342ZM48.7069 15.3789L46.1269 9.34291H47.3029L49.4029 14.5269H49.0669L51.2029 9.34291H52.3189L49.7269 15.3789H48.7069ZM53.2211 15.3789V9.34291H54.3131V15.3789H53.2211ZM53.1251 8.02291V6.84691H54.4211V8.02291H53.1251ZM58.611 15.4869C58.011 15.4869 57.491 15.3629 57.051 15.1149C56.611 14.8589 56.267 14.4949 56.019 14.0229C55.779 13.5429 55.659 12.9749 55.659 12.3189C55.659 11.6709 55.783 11.1189 56.031 10.6629C56.279 10.1989 56.623 9.84691 57.063 9.60691C57.503 9.35891 58.019 9.23491 58.611 9.23491C59.003 9.23491 59.383 9.30291 59.751 9.43891C60.119 9.56691 60.419 9.75491 60.651 10.0029L60.279 10.7709C60.047 10.5469 59.791 10.3829 59.511 10.2789C59.231 10.1669 58.955 10.1109 58.683 10.1109C58.091 10.1109 57.627 10.3029 57.291 10.6869C56.955 11.0629 56.787 11.6109 56.787 12.3309C56.787 13.0589 56.955 13.6189 57.291 14.0109C57.627 14.4029 58.091 14.5989 58.683 14.5989C58.947 14.5989 59.219 14.5469 59.499 14.4429C59.779 14.3389 60.039 14.1749 60.279 13.9509L60.651 14.7069C60.411 14.9629 60.103 15.1589 59.727 15.2949C59.359 15.4229 58.987 15.4869 58.611 15.4869ZM64.4947 15.4869C63.5347 15.4869 62.7747 15.2109 62.2147 14.6589C61.6627 14.1069 61.3867 13.3469 61.3867 12.3789C61.3867 11.7389 61.5067 11.1869 61.7467 10.7229C61.9947 10.2509 62.3347 9.88691 62.7667 9.63091C63.1987 9.36691 63.7027 9.23491 64.2787 9.23491C64.8307 9.23491 65.2987 9.35491 65.6827 9.59491C66.0667 9.82691 66.3587 10.1589 66.5587 10.5909C66.7587 11.0229 66.8587 11.5349 66.8587 12.1269V12.4869H62.2387V11.8389H66.1147L65.9107 11.9949C65.9107 11.3709 65.7707 10.8869 65.4907 10.5429C65.2187 10.1989 64.8147 10.0269 64.2787 10.0269C63.6947 10.0269 63.2427 10.2309 62.9227 10.6389C62.6027 11.0389 62.4427 11.5869 62.4427 12.2829V12.3909C62.4427 13.1269 62.6227 13.6829 62.9827 14.0589C63.3507 14.4349 63.8587 14.6229 64.5067 14.6229C64.8667 14.6229 65.2027 14.5709 65.5147 14.4669C65.8267 14.3629 66.1267 14.1909 66.4147 13.9509L66.7747 14.7069C66.5027 14.9549 66.1627 15.1469 65.7547 15.2829C65.3547 15.4189 64.9347 15.4869 64.4947 15.4869Z" fill="black"/>
<path d="M79.8081 6.87106C82.2189 6.87117 84.5375 7.80293 86.2846 9.47376C86.4162 9.60275 86.6265 9.60112 86.7561 9.47011L88.0137 8.19338C88.0793 8.12693 88.1159 8.03692 88.1154 7.94327C88.1148 7.84962 88.0772 7.76004 88.0108 7.69437C83.4251 3.27375 76.1905 3.27375 71.6047 7.69437C71.5383 7.75999 71.5006 7.84954 71.5 7.94319C71.4994 8.03685 71.5359 8.12689 71.6015 8.19338L72.8595 9.47011C72.989 9.60132 73.1994 9.60295 73.3309 9.47376C75.0783 7.80282 77.3972 6.87106 79.8081 6.87106ZM79.8081 11.0248C81.1327 11.0247 82.41 11.5199 83.3918 12.4142C83.5246 12.5412 83.7338 12.5384 83.8632 12.408L85.1195 11.1313C85.1856 11.0643 85.2223 10.9735 85.2214 10.8791C85.2204 10.7847 85.1819 10.6946 85.1144 10.629C82.1245 7.83147 77.4943 7.83147 74.5045 10.629C74.4369 10.6946 74.3984 10.7847 74.3975 10.8792C74.3966 10.9736 74.4334 11.0644 74.4997 11.1313L75.7556 12.408C75.885 12.5384 76.0942 12.5412 76.227 12.4142C77.2082 11.5205 78.4845 11.0253 79.8081 11.0248ZM82.2223 14.0718C82.2895 14.0055 82.3265 13.9142 82.3245 13.8195C82.3226 13.7249 82.2819 13.6352 82.2121 13.5717C80.8244 12.391 78.7919 12.391 77.4042 13.5717C77.3343 13.6351 77.2936 13.7248 77.2916 13.8194C77.2896 13.9141 77.3265 14.0054 77.3937 14.0718L79.567 16.2776C79.6307 16.3424 79.7175 16.3789 79.8081 16.3789C79.8988 16.3789 79.9856 16.3424 80.0493 16.2776L82.2223 14.0718Z" fill="black"/>
<path d="M39.5 459L40.4998 464L48 465.5L56.4998 455L55.4998 450L48.4998 448.5L39.5 459ZM55.4998 450L47 460.5M47 460.5L48 465.5M47 460.5L39.5 459" stroke="#818181" stroke-width="1.4" stroke-linejoin="round"/>
<path d="M77.1859 463.144C76.3272 463.144 75.5459 462.949 74.8419 462.56C74.1379 462.171 73.5725 461.64 73.1459 460.968C72.7245 460.296 72.4845 459.552 72.4259 458.736C72.3939 458.272 72.3779 457.816 72.3779 457.368C72.3779 456.893 72.3939 456.413 72.4259 455.928C72.4792 455.107 72.7165 454.36 73.1379 453.688C73.5645 453.016 74.1272 452.485 74.8259 452.096C75.5299 451.707 76.3112 451.512 77.1699 451.512C77.8472 451.512 78.4525 451.629 78.9859 451.864C79.5245 452.093 79.9699 452.381 80.3219 452.728C80.6739 453.075 80.9405 453.432 81.1219 453.8C81.2072 453.965 81.2499 454.128 81.2499 454.288C81.2499 454.464 81.1912 454.611 81.0739 454.728C80.9619 454.845 80.8152 454.904 80.6339 454.904C80.4899 454.904 80.3699 454.875 80.2739 454.816C80.1832 454.757 80.1032 454.664 80.0339 454.536C79.7885 454.029 79.4232 453.613 78.9379 453.288C78.4525 452.963 77.8632 452.8 77.1699 452.8C76.5459 452.8 75.9859 452.936 75.4899 453.208C74.9992 453.475 74.6019 453.853 74.2979 454.344C73.9992 454.829 73.8232 455.387 73.7699 456.016C73.7325 456.421 73.7139 456.848 73.7139 457.296C73.7139 457.771 73.7325 458.221 73.7699 458.648C73.8232 459.277 73.9992 459.835 74.2979 460.32C74.6019 460.805 75.0019 461.184 75.4979 461.456C75.9939 461.728 76.5565 461.864 77.1859 461.864C77.7939 461.864 78.3272 461.752 78.7859 461.528C79.2499 461.299 79.6072 460.984 79.8579 460.584C80.1139 460.184 80.2419 459.728 80.2419 459.216V458.208H77.8979C77.6899 458.208 77.5272 458.155 77.4099 458.048C77.2925 457.936 77.2339 457.784 77.2339 457.592C77.2339 457.405 77.2925 457.256 77.4099 457.144C77.5272 457.032 77.6899 456.976 77.8979 456.976H80.4499C80.8072 456.976 81.0792 457.072 81.2659 457.264C81.4579 457.451 81.5539 457.723 81.5539 458.08V459.144C81.5539 459.869 81.3725 460.539 81.0099 461.152C80.6472 461.76 80.1352 462.245 79.4739 462.608C78.8125 462.965 78.0499 463.144 77.1859 463.144ZM87.2841 463.144C86.6175 463.144 86.0201 463.008 85.4921 462.736C84.9695 462.459 84.5481 462.075 84.2281 461.584C83.9081 461.093 83.7161 460.531 83.6521 459.896C83.6201 459.581 83.6041 459.208 83.6041 458.776C83.6041 458.403 83.6175 458.056 83.6441 457.736C83.7028 457.101 83.8921 456.539 84.2121 456.048C84.5375 455.552 84.9641 455.168 85.4921 454.896C86.0201 454.619 86.6175 454.48 87.2841 454.48C87.9508 454.48 88.5508 454.619 89.0841 454.896C89.6175 455.168 90.0441 455.552 90.3641 456.048C90.6841 456.539 90.8735 457.101 90.9321 457.736C90.9588 458.056 90.9721 458.403 90.9721 458.776C90.9721 459.208 90.9561 459.581 90.9241 459.896C90.8601 460.531 90.6681 461.093 90.3481 461.584C90.0281 462.075 89.6041 462.459 89.0761 462.736C88.5481 463.008 87.9508 463.144 87.2841 463.144ZM84.9321 459.76C84.9695 460.176 85.0895 460.544 85.2921 460.864C85.5001 461.184 85.7748 461.435 86.1161 461.616C86.4575 461.792 86.8468 461.88 87.2841 461.88C87.7215 461.88 88.1108 461.792 88.4521 461.616C88.7935 461.435 89.0655 461.184 89.2681 460.864C89.4761 460.544 89.6015 460.176 89.6441 459.76C89.6708 459.515 89.6841 459.197 89.6841 458.808C89.6841 458.424 89.6708 458.109 89.6441 457.864C89.6068 457.448 89.4841 457.08 89.2761 456.76C89.0735 456.44 88.7988 456.192 88.4521 456.016C88.1108 455.84 87.7215 455.752 87.2841 455.752C86.8468 455.752 86.4575 455.84 86.1161 456.016C85.7801 456.192 85.5081 456.44 85.3001 456.76C85.0975 457.08 84.9748 457.448 84.9321 457.864C84.9055 458.195 84.8921 458.509 84.8921 458.808C84.8921 459.112 84.9055 459.429 84.9321 459.76ZM94.1226 463.072C93.92 463.072 93.76 463.013 93.6426 462.896C93.5306 462.773 93.4746 462.603 93.4746 462.384V452.176C93.4746 451.957 93.5306 451.789 93.6426 451.672C93.76 451.549 93.92 451.488 94.1226 451.488C94.3253 451.488 94.4826 451.549 94.5946 451.672C94.712 451.789 94.7706 451.957 94.7706 452.176V462.384C94.7706 462.603 94.712 462.773 94.5946 462.896C94.4826 463.013 94.3253 463.072 94.1226 463.072ZM103.711 451.488C103.914 451.488 104.071 451.549 104.183 451.672C104.3 451.789 104.359 451.957 104.359 452.176V461.712C104.359 461.856 104.338 461.971 104.295 462.056C104.252 462.141 104.183 462.216 104.087 462.28C103.751 462.493 103.29 462.691 102.703 462.872C102.122 463.053 101.524 463.144 100.911 463.144C100.234 463.144 99.6365 463.011 99.1191 462.744C98.6018 462.477 98.1911 462.107 97.8871 461.632C97.5831 461.152 97.3991 460.597 97.3351 459.968C97.3085 459.605 97.2951 459.221 97.2951 458.816C97.2951 458.405 97.3085 458.021 97.3351 457.664C97.3991 457.035 97.5805 456.48 97.8791 456C98.1831 455.52 98.5885 455.147 99.0951 454.88C99.6018 454.613 100.183 454.48 100.839 454.48C101.239 454.48 101.636 454.525 102.031 454.616C102.426 454.707 102.77 454.827 103.063 454.976V452.176C103.063 451.957 103.119 451.789 103.231 451.672C103.348 451.549 103.508 451.488 103.711 451.488ZM98.6311 459.816C98.6898 460.451 98.9165 460.955 99.3111 461.328C99.7111 461.696 100.252 461.88 100.935 461.88C101.308 461.88 101.7 461.827 102.111 461.72C102.522 461.613 102.839 461.48 103.063 461.32V456.304C102.839 456.144 102.519 456.013 102.103 455.912C101.692 455.805 101.303 455.752 100.935 455.752C100.252 455.752 99.7138 455.936 99.3191 456.304C98.9245 456.672 98.6951 457.173 98.6311 457.808C98.5991 458.112 98.5831 458.437 98.5831 458.784C98.5831 459.157 98.5991 459.501 98.6311 459.816Z" fill="#818181"/>
<g filter="url(#filter0_d_4435_342287)">
<rect x="18.5" y="720.5" width="157" height="47" rx="7.5" stroke="black" shape-rendering="crispEdges"/>
<path d="M76.9347 750.152C76.0654 750.152 75.2734 749.955 74.5587 749.56C73.844 749.165 73.268 748.629 72.8307 747.952C72.3987 747.269 72.1507 746.517 72.0867 745.696C72.0547 745.248 72.0387 744.805 72.0387 744.368C72.0387 743.904 72.0547 743.437 72.0867 742.968C72.1454 742.141 72.3907 741.389 72.8227 740.712C73.26 740.035 73.836 739.499 74.5507 739.104C75.2654 738.709 76.06 738.512 76.9347 738.512C77.532 738.512 78.0974 738.605 78.6307 738.792C79.164 738.979 79.636 739.251 80.0467 739.608C80.4574 739.96 80.7774 740.384 81.0067 740.88C81.1187 741.12 81.1747 741.347 81.1747 741.56C81.1747 741.784 81.1027 741.968 80.9587 742.112C80.82 742.251 80.6387 742.32 80.4147 742.32C80.228 742.32 80.0734 742.277 79.9507 742.192C79.828 742.101 79.7214 741.973 79.6307 741.808C79.4067 741.323 79.06 740.917 78.5907 740.592C78.1267 740.267 77.556 740.104 76.8787 740.104C76.3027 740.104 75.7854 740.232 75.3267 740.488C74.8734 740.744 74.508 741.101 74.2307 741.56C73.9587 742.013 73.7987 742.536 73.7507 743.128C73.7134 743.592 73.6947 743.992 73.6947 744.328C73.6947 744.664 73.7134 745.067 73.7507 745.536C73.7934 746.123 73.9507 746.645 74.2227 747.104C74.5 747.563 74.868 747.92 75.3267 748.176C75.7854 748.432 76.3027 748.56 76.8787 748.56C77.2947 748.56 77.684 748.485 78.0467 748.336C78.4094 748.181 78.7214 747.979 78.9827 747.728C79.244 747.472 79.444 747.192 79.5827 746.888C79.684 746.685 79.796 746.533 79.9187 746.432C80.0414 746.331 80.196 746.28 80.3827 746.28C80.6067 746.28 80.7907 746.349 80.9347 746.488C81.084 746.621 81.1587 746.797 81.1587 747.016C81.1587 747.117 81.1454 747.221 81.1187 747.328C81.0974 747.429 81.0547 747.555 80.9907 747.704C80.788 748.179 80.4814 748.603 80.0707 748.976C79.6654 749.344 79.188 749.632 78.6387 749.84C78.0947 750.048 77.5267 750.152 76.9347 750.152ZM85.9784 750.152C85.3064 750.152 84.7251 750.037 84.2344 749.808C83.7491 749.573 83.3784 749.251 83.1224 748.84C82.8664 748.429 82.7384 747.96 82.7384 747.432C82.7384 746.968 82.8584 746.541 83.0984 746.152C83.3438 745.757 83.7064 745.443 84.1864 745.208C84.6664 744.973 85.2504 744.856 85.9384 744.856C86.3011 744.856 86.6478 744.88 86.9784 744.928C87.3144 744.976 87.6771 745.053 88.0664 745.16V744.456C88.0664 743.917 87.9144 743.52 87.6104 743.264C87.3118 743.008 86.8318 742.88 86.1704 742.88C85.8878 742.88 85.6051 742.912 85.3224 742.976C85.0398 743.035 84.7891 743.107 84.5704 743.192C84.3091 743.299 84.1091 743.352 83.9704 743.352C83.7784 743.352 83.6158 743.285 83.4824 743.152C83.3544 743.013 83.2904 742.84 83.2904 742.632C83.2904 742.301 83.4984 742.051 83.9144 741.88C84.2238 741.747 84.5864 741.635 85.0024 741.544C85.4238 741.453 85.8558 741.408 86.2984 741.408C87.3704 741.408 88.1918 741.661 88.7624 742.168C89.3331 742.675 89.6184 743.445 89.6184 744.48V748.656C89.6184 748.811 89.5944 748.933 89.5464 749.024C89.5038 749.109 89.4264 749.192 89.3144 749.272C88.9998 749.491 88.5438 749.693 87.9464 749.88C87.3544 750.061 86.6984 750.152 85.9784 750.152ZM84.2744 747.432C84.2744 747.864 84.4371 748.2 84.7624 748.44C85.0931 748.675 85.5491 748.792 86.1304 748.792C86.4664 748.792 86.8051 748.749 87.1464 748.664C87.4878 748.573 87.7944 748.456 88.0664 748.312V746.368C87.6984 746.256 87.3624 746.176 87.0584 746.128C86.7544 746.08 86.4424 746.056 86.1224 746.056C85.5251 746.056 85.0664 746.184 84.7464 746.44C84.4318 746.696 84.2744 747.027 84.2744 747.432ZM95.7151 741.408C96.4831 741.408 97.1337 741.541 97.6671 741.808C98.2057 742.075 98.6137 742.459 98.8911 742.96C99.1684 743.461 99.3071 744.064 99.3071 744.768V749.224C99.3071 749.491 99.2351 749.699 99.0911 749.848C98.9471 749.997 98.7524 750.072 98.5071 750.072C98.2617 750.072 98.0671 749.997 97.9231 749.848C97.7791 749.699 97.7071 749.491 97.7071 749.224V744.92C97.7071 743.613 97.0431 742.96 95.7151 742.96C95.3524 742.96 94.9951 743.005 94.6431 743.096C94.2911 743.187 93.9977 743.301 93.7631 743.44V749.224C93.7631 749.491 93.6911 749.699 93.5471 749.848C93.4031 749.997 93.2084 750.072 92.9631 750.072C92.7124 750.072 92.5151 749.997 92.3711 749.848C92.2324 749.699 92.1631 749.491 92.1631 749.224V743.104C92.1631 742.853 92.1977 742.664 92.2671 742.536C92.3417 742.403 92.4831 742.28 92.6911 742.168C93.0057 741.981 93.4351 741.808 93.9791 741.648C94.5284 741.488 95.1071 741.408 95.7151 741.408ZM103.238 744.84C103.217 745.101 103.206 745.413 103.206 745.776C103.206 746.144 103.217 746.459 103.238 746.72C103.291 747.291 103.502 747.747 103.87 748.088C104.238 748.424 104.729 748.592 105.342 748.592C105.769 748.592 106.139 748.488 106.454 748.28C106.774 748.072 107.019 747.792 107.19 747.44C107.281 747.296 107.377 747.181 107.478 747.096C107.579 747.005 107.726 746.96 107.918 746.96C108.137 746.96 108.318 747.029 108.462 747.168C108.606 747.307 108.678 747.485 108.678 747.704C108.678 747.821 108.659 747.941 108.622 748.064C108.585 748.181 108.526 748.312 108.446 748.456C108.185 748.957 107.782 749.365 107.238 749.68C106.699 749.995 106.059 750.152 105.318 750.152C104.635 750.152 104.027 750.016 103.494 749.744C102.961 749.472 102.534 749.093 102.214 748.608C101.899 748.117 101.713 747.557 101.654 746.928C101.622 746.613 101.606 746.232 101.606 745.784C101.606 745.32 101.622 744.933 101.654 744.624C101.713 743.995 101.899 743.437 102.214 742.952C102.534 742.461 102.961 742.083 103.494 741.816C104.027 741.544 104.635 741.408 105.318 741.408C106.054 741.408 106.694 741.565 107.238 741.88C107.782 742.189 108.185 742.595 108.446 743.096C108.601 743.395 108.678 743.645 108.678 743.848C108.678 744.067 108.606 744.245 108.462 744.384C108.318 744.523 108.137 744.592 107.918 744.592C107.79 744.592 107.681 744.568 107.59 744.52C107.499 744.472 107.427 744.421 107.374 744.368C107.326 744.309 107.265 744.227 107.19 744.12C106.79 743.347 106.174 742.96 105.342 742.96C104.729 742.96 104.238 743.131 103.87 743.472C103.502 743.813 103.291 744.269 103.238 744.84ZM114.348 750.152C113.644 750.152 113.018 750.016 112.468 749.744C111.924 749.467 111.487 749.083 111.156 748.592C110.831 748.101 110.639 747.536 110.58 746.896C110.548 746.576 110.532 746.189 110.532 745.736C110.532 745.379 110.546 745.053 110.572 744.76C110.631 744.109 110.82 743.533 111.14 743.032C111.466 742.525 111.895 742.131 112.428 741.848C112.967 741.565 113.58 741.424 114.268 741.424C114.983 741.424 115.602 741.571 116.124 741.864C116.652 742.157 117.055 742.568 117.332 743.096C117.615 743.619 117.756 744.224 117.756 744.912V745.416C117.756 745.699 117.732 745.907 117.684 746.04C117.636 746.168 117.551 746.256 117.428 746.304C117.306 746.347 117.111 746.368 116.844 746.368H112.076L112.092 746.768C112.119 747.152 112.228 747.488 112.42 747.776C112.612 748.064 112.876 748.288 113.212 748.448C113.548 748.603 113.938 748.68 114.38 748.68C114.999 748.68 115.588 748.565 116.148 748.336C116.191 748.32 116.255 748.296 116.34 748.264C116.426 748.227 116.5 748.2 116.564 748.184C116.628 748.168 116.695 748.16 116.764 748.16C116.962 748.16 117.122 748.224 117.244 748.352C117.367 748.475 117.428 748.64 117.428 748.848C117.428 749.163 117.223 749.421 116.812 749.624C116.466 749.784 116.082 749.912 115.66 750.008C115.244 750.104 114.807 750.152 114.348 750.152ZM116.26 745.176C116.266 745.112 116.268 745.021 116.268 744.904C116.268 744.248 116.082 743.739 115.708 743.376C115.34 743.008 114.847 742.824 114.228 742.824C113.818 742.824 113.455 742.909 113.14 743.08C112.831 743.251 112.586 743.493 112.404 743.808C112.223 744.117 112.119 744.475 112.092 744.88L112.076 745.176H116.26ZM120.861 750.072C120.616 750.072 120.421 749.997 120.277 749.848C120.133 749.699 120.061 749.491 120.061 749.224V739.312C120.061 739.045 120.133 738.837 120.277 738.688C120.421 738.539 120.616 738.464 120.861 738.464C121.107 738.464 121.301 738.539 121.445 738.688C121.589 738.837 121.661 739.045 121.661 739.312V749.224C121.661 749.491 121.589 749.699 121.445 749.848C121.301 749.997 121.107 750.072 120.861 750.072Z" fill="black"/>
</g>
<g filter="url(#filter1_d_4435_342287)">
<rect x="184" y="720" width="158" height="48" rx="8" fill="black" shape-rendering="crispEdges"/>
<path d="M249.766 750.152C248.923 750.152 248.187 750.053 247.558 749.856C246.928 749.653 246.371 749.384 245.886 749.048C245.598 748.856 245.454 748.603 245.454 748.288C245.454 748.069 245.528 747.885 245.678 747.736C245.827 747.587 246.016 747.512 246.246 747.512C246.432 747.512 246.635 747.584 246.854 747.728C247.286 748 247.726 748.213 248.174 748.368C248.627 748.517 249.158 748.592 249.766 748.592C250.598 748.592 251.224 748.445 251.646 748.152C252.072 747.859 252.286 747.432 252.286 746.872C252.286 746.552 252.19 746.283 251.998 746.064C251.806 745.84 251.512 745.651 251.118 745.496C250.723 745.336 250.2 745.192 249.55 745.064C248.606 744.877 247.851 744.643 247.286 744.36C246.72 744.072 246.307 743.717 246.046 743.296C245.79 742.869 245.662 742.347 245.662 741.728C245.662 741.072 245.827 740.504 246.158 740.024C246.494 739.539 246.96 739.165 247.558 738.904C248.155 738.643 248.846 738.512 249.63 738.512C250.35 738.512 250.984 738.597 251.534 738.768C252.083 738.933 252.555 739.152 252.95 739.424C253.243 739.611 253.39 739.856 253.39 740.16C253.39 740.368 253.315 740.549 253.166 740.704C253.016 740.859 252.835 740.936 252.622 740.936C252.52 740.936 252.422 740.92 252.326 740.888C252.23 740.851 252.118 740.797 251.99 740.728C251.664 740.52 251.312 740.36 250.934 740.248C250.555 740.131 250.12 740.072 249.63 740.072C248.867 740.072 248.291 740.216 247.902 740.504C247.512 740.787 247.318 741.184 247.318 741.696C247.318 742.011 247.4 742.277 247.566 742.496C247.731 742.709 248.003 742.893 248.382 743.048C248.76 743.203 249.283 743.344 249.95 743.472C250.899 743.653 251.664 743.888 252.246 744.176C252.832 744.459 253.262 744.816 253.534 745.248C253.806 745.68 253.942 746.205 253.942 746.824C253.942 747.491 253.774 748.075 253.438 748.576C253.102 749.077 252.619 749.467 251.99 749.744C251.36 750.016 250.619 750.152 249.766 750.152ZM258.733 750.152C258.061 750.152 257.48 750.037 256.989 749.808C256.504 749.573 256.133 749.251 255.877 748.84C255.621 748.429 255.493 747.96 255.493 747.432C255.493 746.968 255.613 746.541 255.853 746.152C256.098 745.757 256.461 745.443 256.941 745.208C257.421 744.973 258.005 744.856 258.693 744.856C259.056 744.856 259.402 744.88 259.733 744.928C260.069 744.976 260.432 745.053 260.821 745.16V744.456C260.821 743.917 260.669 743.52 260.365 743.264C260.066 743.008 259.586 742.88 258.925 742.88C258.642 742.88 258.36 742.912 258.077 742.976C257.794 743.035 257.544 743.107 257.325 743.192C257.064 743.299 256.864 743.352 256.725 743.352C256.533 743.352 256.37 743.285 256.237 743.152C256.109 743.013 256.045 742.84 256.045 742.632C256.045 742.301 256.253 742.051 256.669 741.88C256.978 741.747 257.341 741.635 257.757 741.544C258.178 741.453 258.61 741.408 259.053 741.408C260.125 741.408 260.946 741.661 261.517 742.168C262.088 742.675 262.373 743.445 262.373 744.48V748.656C262.373 748.811 262.349 748.933 262.301 749.024C262.258 749.109 262.181 749.192 262.069 749.272C261.754 749.491 261.298 749.693 260.701 749.88C260.109 750.061 259.453 750.152 258.733 750.152ZM257.029 747.432C257.029 747.864 257.192 748.2 257.517 748.44C257.848 748.675 258.304 748.792 258.885 748.792C259.221 748.792 259.56 748.749 259.901 748.664C260.242 748.573 260.549 748.456 260.821 748.312V746.368C260.453 746.256 260.117 746.176 259.813 746.128C259.509 746.08 259.197 746.056 258.877 746.056C258.28 746.056 257.821 746.184 257.501 746.44C257.186 746.696 257.029 747.027 257.029 747.432ZM267.976 750.072C267.587 750.072 267.275 749.96 267.04 749.736C266.806 749.507 266.606 749.157 266.44 748.688L264.2 742.712C264.131 742.52 264.096 742.365 264.096 742.248C264.096 742.024 264.174 741.84 264.328 741.696C264.483 741.552 264.675 741.48 264.904 741.48C265.299 741.48 265.566 741.701 265.704 742.144L267.856 748.424C267.872 748.477 267.888 748.515 267.904 748.536C267.92 748.557 267.944 748.568 267.976 748.568C268.008 748.568 268.032 748.557 268.048 748.536C268.064 748.515 268.083 748.477 268.104 748.424L270.28 742.152C270.36 741.917 270.467 741.747 270.6 741.64C270.734 741.533 270.896 741.48 271.088 741.48C271.312 741.48 271.499 741.552 271.648 741.696C271.798 741.835 271.872 742.011 271.872 742.224C271.872 742.368 271.843 742.517 271.784 742.672L269.488 748.688C269.312 749.152 269.11 749.499 268.88 749.728C268.651 749.957 268.35 750.072 267.976 750.072ZM277.137 750.152C276.433 750.152 275.807 750.016 275.257 749.744C274.713 749.467 274.276 749.083 273.945 748.592C273.62 748.101 273.428 747.536 273.369 746.896C273.337 746.576 273.321 746.189 273.321 745.736C273.321 745.379 273.335 745.053 273.361 744.76C273.42 744.109 273.609 743.533 273.929 743.032C274.255 742.525 274.684 742.131 275.217 741.848C275.756 741.565 276.369 741.424 277.057 741.424C277.772 741.424 278.391 741.571 278.913 741.864C279.441 742.157 279.844 742.568 280.121 743.096C280.404 743.619 280.545 744.224 280.545 744.912V745.416C280.545 745.699 280.521 745.907 280.473 746.04C280.425 746.168 280.34 746.256 280.217 746.304C280.095 746.347 279.9 746.368 279.633 746.368H274.865L274.881 746.768C274.908 747.152 275.017 747.488 275.209 747.776C275.401 748.064 275.665 748.288 276.001 748.448C276.337 748.603 276.727 748.68 277.169 748.68C277.788 748.68 278.377 748.565 278.937 748.336C278.98 748.32 279.044 748.296 279.129 748.264C279.215 748.227 279.289 748.2 279.353 748.184C279.417 748.168 279.484 748.16 279.553 748.16C279.751 748.16 279.911 748.224 280.033 748.352C280.156 748.475 280.217 748.64 280.217 748.848C280.217 749.163 280.012 749.421 279.601 749.624C279.255 749.784 278.871 749.912 278.449 750.008C278.033 750.104 277.596 750.152 277.137 750.152ZM279.049 745.176C279.055 745.112 279.057 745.021 279.057 744.904C279.057 744.248 278.871 743.739 278.497 743.376C278.129 743.008 277.636 742.824 277.017 742.824C276.607 742.824 276.244 742.909 275.929 743.08C275.62 743.251 275.375 743.493 275.193 743.808C275.012 744.117 274.908 744.475 274.881 744.88L274.865 745.176H279.049Z" fill="white"/>
</g>
<circle cx="260.221" cy="750.217" r="22.3235" transform="rotate(52.0964 260.221 750.217)" fill="#FFF176" fill-opacity="0.4"/>
<path d="M261.855 759.942C261.979 758.944 261.27 758.034 260.271 757.91C259.273 757.786 258.363 758.495 258.239 759.494L257.491 765.519C256.872 770.511 260.416 775.06 265.408 775.679C270.4 776.299 274.949 772.754 275.568 767.763L276.166 762.942C276.29 761.944 275.582 761.034 274.583 760.91C273.585 760.786 272.675 761.495 272.551 762.493L272.701 761.288C272.825 760.29 272.116 759.38 271.117 759.256C270.119 759.132 269.209 759.841 269.085 760.84L269.235 759.634C269.359 758.636 268.65 757.726 267.652 757.602C266.653 757.479 265.743 758.187 265.62 759.186L266.666 750.75C266.79 749.752 266.082 748.842 265.083 748.718C264.085 748.594 263.175 749.303 263.051 750.301L261.331 764.16L261.855 759.942Z" fill="white" stroke="#252932" stroke-width="1.5" stroke-miterlimit="10" stroke-linecap="round" stroke-linejoin="round"/>
</g>
<defs>
<filter id="filter0_d_4435_342287" x="14" y="718" width="166" height="56" filterUnits="userSpaceOnUse" color-interpolation-filters="sRGB">
<feFlood flood-opacity="0" result="BackgroundImageFix"/>
<feColorMatrix in="SourceAlpha" type="matrix" values="0 0 0 0 0 0 0 0 0 0 0 0 0 0 0 0 0 0 127 0" result="hardAlpha"/>
<feOffset dy="2"/>
<feGaussianBlur stdDeviation="2"/>
<feComposite in2="hardAlpha" operator="out"/>
<feColorMatrix type="matrix" values="0 0 0 0 0 0 0 0 0 0 0 0 0 0 0 0 0 0 0.12 0"/>
<feBlend mode="normal" in2="BackgroundImageFix" result="effect1_dropShadow_4435_342287"/>
<feBlend mode="normal" in="SourceGraphic" in2="effect1_dropShadow_4435_342287" result="shape"/>
</filter>
<filter id="filter1_d_4435_342287" x="180" y="718" width="166" height="56" filterUnits="userSpaceOnUse" color-interpolation-filters="sRGB">
<feFlood flood-opacity="0" result="BackgroundImageFix"/>
<feColorMatrix in="SourceAlpha" type="matrix" values="0 0 0 0 0 0 0 0 0 0 0 0 0 0 0 0 0 0 127 0" result="hardAlpha"/>
<feOffset dy="2"/>
<feGaussianBlur stdDeviation="2"/>
<feComposite in2="hardAlpha" operator="out"/>
<feColorMatrix type="matrix" values="0 0 0 0 0 0 0 0 0 0 0 0 0 0 0 0 0 0 0.12 0"/>
<feBlend mode="normal" in2="BackgroundImageFix" result="effect1_dropShadow_4435_342287"/>
<feBlend mode="normal" in="SourceGraphic" in2="effect1_dropShadow_4435_342287" result="shape"/>
</filter>
<clipPath id="clip0_4435_342287">
<rect width="360" height="800" fill="white"/>
</clipPath>
<clipPath id="clip1_4435_342287">
<rect x="21" y="88" width="315" height="139" rx="4" fill="white"/>
</clipPath>
</defs>
</svg>
