<svg width="1171" height="3" viewBox="0 0 1171 3" fill="none" xmlns="http://www.w3.org/2000/svg">
<path d="M195.873 0.413532C264.348 0.366717 332.83 0.335495 401.313 0.304285C443.329 0.28868 485.401 0.327713 527.339 0.202873C538.824 0.171663 550.31 0.0390078 561.967 0.117033H561.764C573.928 0.0858228 586.092 0.0234142 598.248 0.0312167C644.26 0.0390192 692.307 -0.0390221 736.454 0.039003C738.194 0.039003 740.542 0 743.094 0C755.344 0 798.734 0.0468217 826.55 0.0312167C890.92 0.00780917 955.299 0.0078225 1019.5 0.288713C1029.53 0.335528 1170.58 0.585168 1170.23 1.46685C1169.88 2.38755 1034.48 2.66844 1016.98 2.63723C974.618 2.5514 932.039 2.34074 889.898 2.5046C828.243 2.73867 766.681 2.61384 705.096 2.66066C649.792 2.69967 594.464 2.65285 539.168 2.70747C487.219 2.75429 435.293 2.95715 383.359 2.94935C338.542 2.94154 293.74 2.71529 248.907 2.62946C238.35 2.61386 225.647 2.7699 214.076 2.76209C204.51 2.74649 188.554 2.74649 179.074 2.66847C174.978 2.63726 170.733 2.59045 166.723 2.62946C148.309 2.77771 -0.703371 2.55141 0.404585 1.48247C1.48913 0.429133 136.465 0.452544 195.873 0.413532Z" fill="black"/>
</svg>
