<svg width="1100" height="31" viewBox="0 0 1100 31" fill="none" xmlns="http://www.w3.org/2000/svg">
<path d="M729.015 1.75902C744.005 1.64051 797.082 1.4721 831.106 1.06044C909.841 0.0998918 988.595 -0.642351 1067.15 0.854609C1079.43 1.09163 1100.3 0.92322 1099.95 7.98388C1099.58 15.3315 1085.65 19.7412 1064.24 19.6726C1012.42 19.498 960.32 18.3004 908.775 20.0718C833.373 22.6603 758.063 22.3734 682.723 23.4712C615.073 24.4567 547.393 24.7249 479.749 25.779C416.206 26.7645 352.699 28.9725 289.174 29.5089C234.344 29.9705 179.527 28.6731 124.673 28.5421C111.761 28.5109 96.2322 29.9642 82.076 29.9892C70.3711 30.0079 50.8527 30.1389 39.2519 29.6399C34.2452 29.4216 29.0423 29.1347 24.1458 29.4465C1.63681 30.8437 -4.33822 28.3488 3.11984 20.2153C4.76221 18.4252 2.82569 16.1236 8.26143 14.8574C8.48817 14.8075 8.93554 14.7015 9.13777 14.6329C25.6043 9.58687 42.5673 11.6951 59.6344 11.4144C143.389 10.0609 227.168 9.19392 310.935 8.15229C362.332 7.50984 413.797 7.32896 465.091 5.88813C479.137 5.49518 493.176 4.31009 507.443 4.79036H507.198C522.071 4.40365 536.95 3.78615 551.824 3.66141C608.105 3.19361 666.875 2.00851 720.889 2.13326C723.016 2.13326 725.884 1.78397 729.015 1.75902Z" fill="black"/>
</svg>
