<svg width="1271" height="35" viewBox="0 0 1271 35" fill="none" xmlns="http://www.w3.org/2000/svg">
<path d="M843.506 27.9687C847.836 27.8829 854.913 27.7347 863.707 27.5552C868.107 27.4694 872.929 27.3679 878.063 27.2665C883.189 27.1105 888.62 26.9466 894.214 26.7749C905.411 26.4316 917.302 26.0571 928.842 25.6982C934.616 25.55 940.296 25.2613 945.766 25.035C951.235 24.8009 956.486 24.5669 961.394 24.3562L978.435 23.6149C984.115 23.3497 989.795 23.1624 995.467 22.8113L1029.53 20.9075L1046.55 19.9634L1063.56 18.793C1074.9 18.0127 1086.23 17.2403 1097.57 16.46C1103.24 16.1089 1108.9 15.5862 1114.56 15.1258L1131.54 13.7214L1148.51 12.3247C1154.17 11.8644 1159.84 11.4196 1165.48 10.8344C1176.77 9.74208 1188.07 8.64975 1199.37 7.5574C1205.02 7.00342 1210.67 6.49624 1216.31 5.91106L1233.22 4.00724C1247.31 2.43114 1271.25 -0.39336 1271 1.40902C1270.73 3.28942 1254.81 6.25435 1230.21 9.09447C1215.34 10.9281 1200.38 12.2311 1185.45 13.7136L1163.04 15.8905C1159.31 16.2806 1155.57 16.5459 1151.83 16.858L1140.61 17.7709C1133.13 18.3873 1125.66 19.0037 1118.19 19.6201C1110.73 20.2287 1103.27 20.9153 1095.79 21.3834C1080.87 22.4602 1065.96 23.5369 1051.09 24.6137L1047.01 24.918L1042.93 25.1676L1034.77 25.6592L1018.45 26.6345L1002.12 27.5942C996.685 27.8985 991.246 28.2652 985.8 28.4759C974.916 28.9597 964.031 29.4434 953.147 29.935L936.824 30.6528C931.386 30.8791 925.939 31.0117 920.493 31.199C898.724 31.8778 876.955 32.658 855.179 33.0169L822.517 33.7114L789.848 34.1327C711.62 35.1314 633.361 34.5619 555.157 33.5709C481.696 32.6346 408.267 31.4877 334.853 29.9974C271.489 28.7022 208.164 26.9622 144.776 25.5188C129.858 25.1754 111.888 25.1442 95.5266 24.7853C81.9971 24.4888 59.4478 24.0207 46.0431 23.5915C40.2615 23.4121 34.2536 23.2014 28.5889 23.1546C2.55198 22.9283 -4.31424 22.1481 4.43237 20.3067C6.35959 19.901 4.15928 19.2767 10.4559 19.0973C10.7134 19.0895 11.2362 19.0739 11.4702 19.0661C30.5786 18.2312 50.1472 19.1909 69.872 19.5654C166.678 21.4536 263.507 23.3419 360.32 25.2301C419.729 26.3926 479.199 27.6644 538.49 28.3433C554.72 28.4993 570.964 28.4447 587.443 28.8192L587.162 28.8114C604.359 28.9128 621.548 29.0143 638.745 29.1157C703.786 29.5995 771.707 29.2327 834.096 28.2418C836.577 28.1716 839.893 28.078 843.506 27.9687Z" fill="black"/>
</svg>
