<svg width="982" height="163" viewBox="0 0 982 163" fill="none" xmlns="http://www.w3.org/2000/svg">
<path d="M333.607 72.2349C327.237 69.1149 312.787 61.9949 296.137 54.3149C279.497 46.6249 260.577 38.5949 245.527 33.0549C236.817 29.8549 228.087 26.7349 219.257 23.9849C210.427 21.2249 201.507 18.7349 192.527 16.5449C174.557 12.1649 156.297 9.04493 137.917 7.39493C119.547 5.76493 101.047 5.63493 82.7366 7.45492C64.4366 9.25492 46.3366 13.0549 29.0266 19.1449C27.6566 19.5849 26.2166 20.1649 24.6865 20.7349C23.1665 21.3249 21.5566 21.8849 19.9766 22.5449C16.8066 23.8549 13.5466 25.1549 10.6766 26.4149C7.76666 27.5949 5.22656 28.7049 3.33655 29.3349C1.44653 29.9649 0.216612 30.1249 0.0366198 29.5849C-0.153383 29.0249 0.396605 28.1349 1.61658 26.9849C2.22656 26.4049 3.00653 25.7549 3.94653 25.0449C4.4165 24.6849 4.92657 24.3149 5.47656 23.9349C6.04657 23.5749 6.64661 23.1949 7.27661 22.8049C8.55664 22.0249 9.98651 21.1849 11.5565 20.3049C13.1465 19.4549 14.8966 18.6149 16.7766 17.7149C18.6466 16.7849 20.7066 15.9749 22.8666 15.0749C25.0166 14.1549 27.3466 13.3449 29.7766 12.5049C41.5566 8.43492 53.7166 5.51492 65.9866 3.48492C78.2666 1.41492 90.6865 0.404926 103.087 0.0949261C115.497 -0.235073 127.897 0.314927 140.207 1.43493C152.527 2.54493 164.747 4.33493 176.837 6.60493C194.527 9.93493 211.977 14.5049 229.047 20.1649C246.097 25.8549 262.827 32.3849 279.287 39.4649C312.237 53.6149 344.097 69.9149 376.127 85.6449C390.517 92.6949 404.917 99.7049 419.447 106.395C426.727 109.695 433.997 113.025 441.357 116.145C448.677 119.355 456.067 122.365 463.497 125.275C493.227 136.825 523.897 146.145 555.287 151.335C584.727 156.205 614.857 157.315 644.247 152.905C647.927 152.395 651.567 151.695 655.217 151.025C658.837 150.245 662.477 149.525 666.067 148.585C669.677 147.745 673.227 146.665 676.787 145.665C680.307 144.495 683.847 143.415 687.347 142.185C701.337 137.215 714.917 131.035 728.307 124.355C751.417 112.825 774.007 99.845 797.717 88.715C809.597 83.175 821.687 78.105 834.287 74.055C846.897 70.105 859.877 67.375 873.037 66.075C879.227 65.465 886.077 64.985 893.107 64.975C900.127 64.955 907.327 65.415 914.127 66.475C919.737 67.325 927.197 68.885 934.407 71.295C941.637 73.655 948.567 76.895 953.437 79.795C954.497 80.405 955.567 81.025 956.597 81.725L959.717 83.765C961.727 85.235 963.777 86.615 965.647 88.125C967.877 89.755 969.707 91.475 971.407 92.975C973.017 94.555 974.447 95.985 975.627 97.305C976.777 98.655 977.747 99.835 978.537 100.855C979.277 101.915 979.847 102.805 980.257 103.525C981.897 106.415 980.927 106.555 977.707 104.525C977.007 104.085 976.787 104.335 976.307 104.225C976.067 104.165 975.767 104.025 975.317 103.655C974.837 103.315 974.187 102.755 973.287 101.875C973.137 101.725 972.837 101.445 972.697 101.305L971.647 100.325L970.547 99.395L968.367 97.495C966.897 96.265 965.377 95.075 963.897 93.865C960.817 91.565 957.727 89.265 954.417 87.255C947.867 83.135 940.787 79.635 933.277 77.185C924.087 74.125 914.467 72.325 904.777 71.445C899.927 71.015 895.047 70.865 890.167 70.865C885.287 70.955 880.407 71.145 875.547 71.635C870.687 72.115 865.837 72.735 861.027 73.615C858.617 74.005 856.227 74.545 853.827 75.025C851.447 75.595 849.057 76.085 846.697 76.745C841.957 77.935 837.287 79.405 832.657 80.965L829.197 82.185C828.047 82.605 826.907 83.075 825.757 83.515L818.897 86.205C782.457 101.245 748.997 123.075 712.397 139.365C701.177 144.355 689.657 148.795 677.807 152.315C665.947 155.765 653.827 158.295 641.597 159.895C629.357 161.455 617.027 162.165 604.717 162.095C592.407 161.985 580.127 161.135 567.937 159.685C554.607 158.015 541.277 155.945 528.067 152.565L528.297 152.625C514.437 149.445 500.727 145.585 487.247 141.105C461.747 132.595 436.437 121.895 411.907 110.425C387.337 99.0149 363.457 86.9249 340.557 75.5249C338.757 74.6449 336.267 73.5349 333.607 72.2349Z" fill="black"/>
</svg>
