<svg width="477" height="304" viewBox="0 0 477 304" fill="none" xmlns="http://www.w3.org/2000/svg">
<path d="M207.157 18.1568C205.111 17.6199 201.789 16.6887 197.595 15.7241C195.498 15.246 193.225 14.6338 190.767 14.1305C188.318 13.6104 185.726 13.0652 183.05 12.4948C172.313 10.3559 160.15 8.56069 150.605 7.56252C106.425 2.82324 61.4645 5.91012 18.3749 16.4204C16.6973 16.8482 14.7261 17.3514 12.713 17.8715C10.6914 18.3664 8.63634 18.8697 6.79935 19.3226C3.1002 20.1698 0.189535 20.5558 0.013385 19.6163C-0.171153 18.6433 1.55679 17.3011 4.81976 15.7745C8.05756 14.1975 12.8891 12.6289 18.8279 11.0939C47.6745 3.99756 77.4522 0.659176 106.928 0.0804091C117.715 -0.171239 128.511 0.181086 139.272 0.935999C150.034 1.6993 160.763 2.92394 171.407 4.68545C182.052 6.42178 192.621 8.58593 203.089 11.1862C213.541 13.8368 223.892 16.9069 234.1 20.3795C252.436 26.6287 270.278 34.3709 287.389 43.4804C295.962 48.0099 304.283 52.9925 312.47 58.1847C320.631 63.4105 328.541 69.0304 336.292 74.8434C365.281 96.8537 391.184 123.016 412.624 152.484C421.842 165.217 430.205 178.571 437.704 192.369C445.169 206.193 451.746 220.486 457.517 235.089C458.221 236.801 458.926 238.604 459.647 240.475C460.385 242.337 461.149 244.249 461.912 246.187C462.633 248.141 463.355 250.113 464.085 252.075C464.798 254.038 465.51 255.993 466.098 257.939C468.186 264.314 471.29 275.067 472.699 281.568C473.387 284.353 473.907 287.289 474.62 290.006C475.014 291.566 475.383 292.993 475.66 294.276C475.929 295.568 476.147 296.725 476.331 297.74C476.683 299.778 476.86 301.272 476.851 302.253C476.834 304.216 476.088 304.115 474.603 302.219C473.949 301.389 473.546 302.563 472.624 299.602C472.582 299.476 472.506 299.233 472.473 299.124C470.963 294.662 469.663 290.115 468.597 285.468C467.373 280.863 466.391 276.158 464.982 271.536C451.821 226.047 429.651 183.251 400.578 145.907C382.687 123.041 362.245 102.063 339.471 84.1542C333.197 79.3059 326.738 74.7008 320.195 70.0202L320.304 70.0958C313.409 65.3062 306.237 60.9359 299.066 56.5993C285.418 48.5047 270.915 41.1653 256.119 34.9078C241.314 28.6838 226.265 23.4663 211.62 19.2555C210.454 18.9283 208.86 18.6181 207.157 18.1568Z" fill="black"/>
</svg>
