<svg width="1171" height="2" viewBox="0 0 1171 2" fill="none" xmlns="http://www.w3.org/2000/svg">
<path d="M775.831 0.00983556C791.772 0.00983556 848.215 0.0332583 884.403 0.0254558C968.147 0.0098508 1051.9 0.00982984 1135.43 0.150275C1148.49 0.173682 1170.68 0.173663 1170.24 0.618406C1169.78 1.07875 1154.92 1.34407 1132.15 1.32846C1077.04 1.28945 1021.64 1.18019 966.813 1.25822C886.596 1.37525 806.511 1.31286 726.387 1.33627C654.432 1.35968 582.454 1.33625 510.507 1.35965C442.922 1.38306 375.36 1.48451 307.798 1.47671C249.49 1.47671 191.197 1.35966 132.874 1.32065C119.141 1.31285 102.616 1.39089 87.5567 1.38308C75.1117 1.37528 54.3492 1.37528 42.0135 1.33627C36.6922 1.32067 31.1602 1.29724 25.9481 1.31284C1.99443 1.39087 -4.34121 1.22701 3.67977 0.727653C5.44313 0.618418 3.40667 0.470176 9.20393 0.392151C9.44581 0.392151 9.92177 0.384333 10.1402 0.37653C27.7037 0.0722328 45.7197 0.212701 63.8683 0.204898C152.949 0.173688 242.054 0.16588 331.151 0.150275C385.815 0.142472 440.55 0.158079 495.113 0.103462C510.055 0.0878568 524.996 0.0176362 540.164 0.0566487H539.907C555.73 0.0410437 571.554 0.00983556 587.377 0.00983556C647.238 0.0176381 709.752 -0.0213668 767.186 0.0176457C769.449 0.0332507 772.5 0.00983556 775.831 0.00983556Z" fill="black"/>
</svg>
