<svg width="469" height="148" viewBox="0 0 469 148" fill="none" xmlns="http://www.w3.org/2000/svg">
<path d="M331.24 118.394C332.934 117.648 335.736 116.482 339.125 114.846C340.819 114.033 342.723 113.202 344.669 112.195C346.632 111.206 348.704 110.157 350.843 109.075C359.348 104.629 368.609 99.1018 375.621 94.4464C408.15 72.998 436.368 45.1244 458.194 12.9226C459.032 11.656 460.014 10.1628 461.02 8.64456C462.044 7.1347 463.084 5.59126 464.015 4.21562C465.919 1.48948 467.63 -0.464864 468.402 0.0971322C469.207 0.675913 468.964 2.62199 467.823 5.58297C466.724 8.56913 464.535 12.4779 461.574 16.9907C446.937 38.6823 429.087 58.1595 409.668 75.3719C402.581 81.7049 395.107 87.5765 387.398 93.1294C379.689 98.6739 371.704 103.841 363.458 108.555C355.221 113.286 346.775 117.631 338.135 121.582C329.478 125.482 320.646 128.989 311.67 132.101C295.548 137.679 278.898 141.764 262.013 144.305C253.574 145.605 245.061 146.385 236.547 146.922C228.024 147.409 219.477 147.426 210.946 147.191C178.904 146.092 147.004 139.784 117.016 128.318C104.09 123.335 91.5501 117.379 79.4964 110.593C67.4595 103.766 55.9259 96.082 44.9207 87.7107C43.6038 86.7461 42.2533 85.706 40.8609 84.624C39.46 83.5587 38.0089 82.4599 36.5494 81.3527C35.1066 80.2203 33.6723 79.0459 32.2379 77.8883C30.8119 76.7224 29.3859 75.5732 28.069 74.3569C23.6233 70.4649 16.4683 63.679 12.5343 59.334C10.7812 57.5137 9.10354 55.4921 7.35882 53.739C6.36902 52.724 5.45472 51.8098 4.68301 50.9375C3.91131 50.0651 3.24026 49.2766 2.66148 48.5804C1.50393 47.1712 0.732222 46.0974 0.329594 45.3257C-0.475663 43.7907 0.20377 43.4888 2.26724 44.2018C3.17315 44.5122 3.02217 43.3965 5.05209 45.2167C5.13597 45.2922 5.30373 45.4431 5.37923 45.5102C8.52476 48.2112 11.5277 51.0631 14.3713 54.1332C17.3323 57.0774 20.1339 60.2399 23.2542 63.1002C53.4178 91.67 89.9899 113.311 129.271 126.707C153.395 134.86 178.61 140.069 203.984 141.436C210.938 141.738 217.883 141.739 224.938 141.755L224.82 141.755C232.176 141.646 239.516 141.051 246.839 140.413C260.679 139.071 274.721 136.613 288.36 133.116C301.991 129.584 315.219 125.096 327.583 120.047C328.556 119.669 329.822 119.007 331.24 118.394Z" fill="black"/>
</svg>
