<svg width="360" height="800" viewBox="0 0 360 800" fill="none" xmlns="http://www.w3.org/2000/svg">
<g clip-path="url(#clip0_2141_639241)">
<rect width="360" height="800" fill="url(#paint0_linear_2141_639241)"/>
<mask id="mask0_2141_639241" style="mask-type:alpha" maskUnits="userSpaceOnUse" x="0" y="590" width="360" height="210">
<path d="M0 590H360V800H0V590Z" fill="white"/>
</mask>
<g mask="url(#mask0_2141_639241)">
<g clip-path="url(#clip1_2141_639241)">
<path d="M261.066 1070.61C381.22 1070.61 478.624 973.211 478.624 853.057C478.624 732.904 381.22 635.5 261.066 635.5C140.912 635.5 43.5078 732.904 43.5078 853.057C43.5078 973.211 140.912 1070.61 261.066 1070.61Z" fill="#FF4E4E"/>
<g filter="url(#filter0_d_2141_639241)">
<path d="M260.811 1038.53C363.794 1038.53 447.278 955.606 447.278 853.315C447.278 751.025 363.794 668.102 260.811 668.102C157.828 668.102 74.3438 751.025 74.3438 853.315C74.3438 955.606 157.828 1038.53 260.811 1038.53Z" fill="#FF7171"/>
<path d="M126.265 733.009L158.046 704.035L168.373 715.207C170.712 717.738 170.549 721.669 168.01 723.985L145.421 744.578C142.882 746.893 138.924 746.719 136.585 744.188L126.258 733.016L126.265 733.009Z" fill="#FF7171"/>
<path d="M120.484 731.469L157.013 698.164L159.587 700.949C160.767 702.225 160.685 704.212 159.404 705.38L127.519 734.451C126.238 735.618 124.238 735.53 123.058 734.254L120.484 731.469Z" fill="#FF7171"/>
<path d="M117.065 687.723C117.306 688.671 117.043 689.703 116.273 690.405C115.504 691.107 114.485 691.268 113.58 690.984L110.336 701.178C109.953 702.391 110.733 703.677 111.992 703.873C116.573 704.603 121.421 703.324 125.101 699.973C128.866 696.532 130.555 691.672 130.114 686.961C129.992 685.693 128.746 684.833 127.514 685.14L117.077 687.728L117.065 687.723Z" fill="#FF7171"/>
<path d="M116.485 686.544C116.81 686.889 117.011 687.3 117.121 687.733L127.555 685.145C128.796 684.835 129.478 683.495 128.974 682.316C128.29 680.701 127.311 679.172 126.046 677.806C120.694 672.002 111.996 671.095 105.649 675.33C104.594 676.036 104.431 677.524 105.292 678.465L112.584 686.366C113.699 685.343 115.439 685.423 116.473 686.538L116.485 686.544Z" fill="#FF7171"/>
<path d="M112.387 690.257C111.354 689.144 111.428 687.414 112.542 686.391L105.258 678.497C104.389 677.56 102.889 677.59 102.088 678.579C97.3093 684.501 97.4813 693.193 102.828 698.99C104.18 700.461 105.748 701.608 107.444 702.433C108.58 702.997 109.957 702.391 110.343 701.188L113.591 691.004C113.143 690.861 112.73 690.626 112.396 690.254L112.387 690.257Z" fill="#FF7171"/>
<path d="M116.722 696.923C115.614 696.918 115.614 696.919 115.614 696.919C115.614 696.92 115.614 696.92 115.614 696.921C115.614 696.923 115.614 696.925 115.614 696.927C115.614 696.931 115.615 696.937 115.615 696.945C115.615 696.96 115.615 696.981 115.615 697.008C115.616 697.063 115.618 697.14 115.621 697.24C115.627 697.439 115.64 697.726 115.665 698.086C115.714 698.805 115.813 699.822 116.01 701.023C116.403 703.416 117.193 706.585 118.793 709.606C120.396 712.633 122.835 715.55 126.532 717.346C130.234 719.144 135.071 719.759 141.356 718.407L141.117 717.328L140.879 716.25C134.966 717.522 130.655 716.898 127.496 715.363C124.331 713.826 122.196 711.312 120.75 708.583C119.301 705.846 118.566 702.929 118.196 700.676C118.012 699.554 117.92 698.607 117.874 697.944C117.852 697.613 117.84 697.354 117.835 697.18C117.832 697.092 117.831 697.027 117.83 696.984C117.83 696.963 117.829 696.948 117.829 696.938C117.829 696.933 117.829 696.93 117.829 696.928C117.829 696.927 117.829 696.927 117.829 696.927C117.829 696.927 117.829 696.927 117.829 696.927C117.829 696.927 117.829 696.928 116.722 696.923Z" fill="#FF7171"/>
<path d="M136.895 717.979C136.895 717.979 124.716 704.577 137.751 693.149C137.751 693.149 149.949 703.601 136.895 717.979Z" fill="#FF7171"/>
<path d="M122.103 712.564C122.103 712.564 115.435 708.106 108.865 714.957C108.865 714.957 115.255 722.474 122.103 712.564Z" fill="#FF7171"/>
<path d="M246.626 668.935L259.956 642.399C260.992 640.335 263.937 640.331 264.98 642.392L278.374 668.867C279.319 670.736 277.964 672.946 275.87 672.95L249.146 673.011C247.05 673.016 245.685 670.809 246.626 668.935Z" fill="#FF7171"/>
<path d="M276.76 667.338L291.395 646.277C292.466 644.736 294.856 645.182 295.299 647.006L301.337 671.855C301.71 673.387 300.38 674.795 298.829 674.511L278.155 670.722C276.598 670.436 275.856 668.637 276.76 667.338Z" fill="#FF7171"/>
<path d="M301.381 671.328L314.845 657.923C315.831 656.942 317.513 657.584 317.593 658.972L318.693 677.885C318.761 679.051 317.605 679.901 316.513 679.487L301.948 673.98C300.851 673.565 300.55 672.155 301.381 671.328Z" fill="#FF7171"/>
</g>
<g filter="url(#filter1_dd_2141_639241)">
<rect width="20.8733" height="47.3127" rx="1.04131" transform="matrix(0.914042 -0.405619 0.405622 0.914041 178.383 684.258)" fill="#FF9669"/>
<path d="M193.22 681.475C193.258 681.7 193.321 681.925 193.418 682.144C194.041 683.546 195.679 684.179 197.082 683.562L210.631 714.094L210.63 714.094C209.225 714.718 208.592 716.361 209.215 717.766C209.312 717.986 209.437 718.185 209.58 718.365L201.781 721.826C201.743 721.601 201.68 721.377 201.583 721.159C200.96 719.755 199.318 719.121 197.913 719.743L184.37 689.225C185.771 688.599 186.402 686.959 185.78 685.556C185.68 685.331 185.551 685.127 185.404 684.944L193.22 681.475ZM195.8 697.834C193.693 698.769 192.742 701.236 193.677 703.343C194.613 705.451 197.079 706.401 199.187 705.466C201.294 704.531 202.244 702.064 201.309 699.956C200.374 697.849 197.907 696.899 195.8 697.834Z" fill="#FF4E4E"/>
</g>
<g filter="url(#filter2_dd_2141_639241)">
<rect width="20.8733" height="47.3127" rx="1.04131" transform="matrix(0.981291 -0.192532 0.192534 0.98129 189.82 675.641)" fill="#FF9669"/>
<path d="M204.898 676.223C204.885 676.45 204.896 676.683 204.942 676.916C205.238 678.424 206.701 679.407 208.209 679.111C208.211 679.111 208.213 679.11 208.215 679.109L214.646 711.889C214.643 711.889 214.64 711.89 214.637 711.89C213.129 712.186 212.146 713.649 212.442 715.157C212.488 715.394 212.567 715.615 212.666 715.823L204.301 717.464C204.313 717.241 204.301 717.012 204.256 716.782C203.96 715.276 202.5 714.293 200.994 714.586L194.558 681.783L194.561 681.783C196.069 681.487 197.052 680.024 196.756 678.516C196.711 678.285 196.634 678.067 196.537 677.864L204.898 676.223ZM203.808 692.753C201.545 693.197 200.071 695.391 200.515 697.654C200.959 699.916 203.153 701.389 205.415 700.945C207.677 700.501 209.152 698.308 208.708 696.046C208.264 693.784 206.07 692.309 203.808 692.753Z" fill="#FF4E4E"/>
</g>
<g filter="url(#filter3_d_2141_639241)">
<path d="M260.796 1010.03C347.935 1010.03 418.576 939.867 418.576 853.313C418.576 766.759 347.935 696.594 260.796 696.594C173.656 696.594 103.016 766.759 103.016 853.313C103.016 939.867 173.656 1010.03 260.796 1010.03Z" fill="#FF9669"/>
<path d="M75.4166 781.603C68.928 797.016 74.8912 810.491 81.5608 816.792C81.5608 816.792 80.1029 809.192 86.5639 804.926C85.2686 799.723 88.177 792.797 93.226 789.101C92.3406 782.907 95.2617 775.986 99.8881 773.277C98.4238 765.674 104.878 761.405 104.878 761.405C95.7167 761.041 81.9051 766.191 75.4166 781.603Z" fill="#FF9669" stroke="#FF9669" stroke-width="2.78342" stroke-linejoin="round"/>
<path d="M74.8865 782.898C75.5949 783.196 76.411 782.864 76.7092 782.156C77.0074 781.447 76.6749 780.631 75.9665 780.333L75.4265 781.616L74.8865 782.898ZM70.0322 777.835C69.3238 777.536 68.5077 777.869 68.2095 778.577C67.9113 779.286 68.2438 780.102 68.9522 780.4L69.4922 779.117L70.0322 777.835ZM75.4265 781.616L75.9665 780.333L70.0322 777.835L69.4922 779.117L68.9522 780.4L74.8865 782.898L75.4265 781.616Z" fill="#FF9669"/>
<path d="M93.7493 787.845C93.0409 787.547 92.2248 787.88 91.9266 788.588C91.6284 789.297 91.9609 790.113 92.6693 790.411L93.2093 789.128L93.7493 787.845ZM107.076 800.442C106.367 800.144 105.551 800.476 105.253 801.185C104.955 801.893 105.287 802.709 105.996 803.007L106.536 801.725L107.076 800.442ZM93.2093 789.128L92.6693 790.411L113.439 799.155L113.979 797.872L114.519 796.59L93.7493 787.845L93.2093 789.128ZM111.481 803.807L112.021 802.524L107.076 800.442L106.536 801.725L105.996 803.007L110.941 805.089L111.481 803.807ZM115.697 802.089L114.415 801.549C114.023 802.479 112.951 802.916 112.021 802.524L111.481 803.807L110.941 805.089C113.288 806.078 115.992 804.976 116.98 802.629L115.697 802.089ZM113.979 797.872L113.439 799.155C114.37 799.547 114.806 800.618 114.415 801.549L115.697 802.089L116.98 802.629C117.968 800.282 116.867 797.578 114.519 796.59L113.979 797.872Z" fill="#FF9669"/>
</g>
<g filter="url(#filter4_d_2141_639241)">
<path d="M260.827 981.512C332.123 981.512 389.92 924.104 389.92 853.287C389.92 782.471 332.123 725.062 260.827 725.062C189.531 725.062 131.734 782.471 131.734 853.287C131.734 924.104 189.531 981.512 260.827 981.512Z" fill="#C5E3DC"/>
<path d="M305.899 718.965C303.818 718.126 301.436 719.126 300.591 721.192C299.747 723.258 300.753 725.625 302.833 726.464C304.914 727.303 307.296 726.303 308.141 724.237C308.985 722.17 307.979 719.804 305.899 718.965ZM303.688 724.374C302.764 724.004 302.321 722.955 302.695 722.041C303.07 721.128 304.124 720.683 305.044 721.055C305.968 721.425 306.411 722.474 306.037 723.388C305.664 724.305 304.608 724.746 303.688 724.374Z" fill="#C5E3DC"/>
<path d="M331.84 676.512C328.234 675.06 324.114 676.791 322.653 680.372C321.191 683.954 322.934 688.046 326.54 689.498C330.146 690.95 334.266 689.219 335.727 685.637C337.189 682.055 335.446 677.963 331.84 676.512ZM328.23 685.355C326.923 684.831 326.292 683.351 326.824 682.051C327.352 680.753 328.841 680.126 330.15 680.655C331.459 681.183 332.084 682.66 331.556 683.958C331.028 685.257 329.539 685.883 328.23 685.355Z" fill="#C5E3DC"/>
<path d="M334.321 670.475C327.362 667.672 319.398 671.014 316.577 677.93C313.755 684.842 317.119 692.752 324.082 695.554C331.046 698.356 339.005 695.016 341.826 688.099C344.648 681.187 341.284 673.277 334.321 670.475ZM325.659 691.681C320.845 689.742 318.523 684.278 320.472 679.498C322.425 674.716 327.925 672.41 332.738 674.345C337.552 676.285 339.878 681.747 337.925 686.529C335.972 691.311 330.474 693.621 325.659 691.681Z" fill="#C5E3DC"/>
<path d="M327.458 712.896C324.996 711.908 322.182 713.088 321.185 715.528C320.19 717.974 321.378 720.769 323.835 721.759C326.297 722.747 329.107 721.569 330.108 719.126C331.103 716.681 329.916 713.89 327.458 712.896ZM324.972 718.988C324.048 718.618 323.604 717.569 323.979 716.656C324.352 715.738 325.407 715.298 326.327 715.669C327.251 716.04 327.694 717.088 327.32 718.002C326.945 718.916 325.892 719.36 324.972 718.988Z" fill="#C5E3DC"/>
<path d="M312.612 697.286C310.024 696.242 307.071 697.486 306.02 700.056C304.969 702.626 306.221 705.559 308.809 706.603C311.396 707.647 314.354 706.401 315.4 703.833C316.451 701.263 315.198 698.325 312.612 697.286ZM310.031 703.607C309.107 703.236 308.664 702.188 309.038 701.274C309.411 700.356 310.467 699.916 311.387 700.288C312.311 700.658 312.754 701.707 312.38 702.62C312.005 703.534 310.951 703.979 310.031 703.607Z" fill="#C5E3DC"/>
<path d="M306.798 741.955L316.122 719.122C316.718 722.234 318.834 724.988 322.005 726.267C326.972 728.266 332.633 725.888 334.646 720.955C336.659 716.022 334.265 710.398 329.299 708.399C326.128 707.12 322.676 707.633 320.067 709.454L322.862 702.612C333.093 705.884 344.291 700.807 348.393 690.753C352.695 680.218 347.583 668.213 336.976 663.939C326.369 659.666 314.283 664.744 309.981 675.28C307.673 680.924 308.074 686.992 310.571 692.062C306.686 692.114 303.03 694.437 301.475 698.237C299.408 703.3 301.863 709.067 306.96 711.121C310.241 712.441 313.809 711.894 316.492 709.994L311.945 721.127C311.447 718.585 309.711 716.335 307.118 715.289C303.035 713.645 298.386 715.6 296.73 719.651C295.075 723.706 297.043 728.324 301.121 729.969C303.719 731.014 306.539 730.601 308.68 729.122L303.983 740.826L306.782 741.966L306.798 741.955ZM302.271 727.869C299.413 726.717 298.027 723.465 299.186 720.626C300.346 717.787 303.62 716.411 306.478 717.563C309.336 718.715 310.722 721.967 309.563 724.806C308.403 727.645 305.129 729.021 302.271 727.869ZM308.101 708.348C304.547 706.916 302.832 702.882 304.27 699.354C305.712 695.825 309.773 694.121 313.325 695.549C316.878 696.981 318.593 701.015 317.156 704.543C315.714 708.073 311.653 709.776 308.101 708.348ZM323.184 697.726C315.017 694.435 311.065 685.157 314.377 677.04C317.689 668.923 327.032 665.002 335.204 668.292C343.371 671.583 347.322 680.861 344.011 688.978C340.697 697.091 331.356 701.016 323.184 697.726ZM323.13 723.505C319.701 722.124 318.045 718.23 319.438 714.828C320.83 711.426 324.748 709.777 328.173 711.16C331.603 712.542 333.258 716.435 331.866 719.837C330.475 723.244 326.555 724.888 323.13 723.505Z" fill="#C5E3DC"/>
<path d="M159.442 747.953C158.763 747.845 158.3 747.212 158.406 746.538L159.138 741.928C156.514 741.848 153.894 742.788 151.91 744.688L155.565 747.623C156.1 748.051 156.182 748.832 155.751 749.363C155.32 749.895 154.533 749.976 153.998 749.548L150.343 746.613C148.891 748.938 148.515 751.679 149.14 754.209L153.524 752.534C154.165 752.288 154.887 752.606 155.135 753.245C155.383 753.881 155.063 754.598 154.419 754.845L150.022 756.525C150.634 757.657 151.478 758.692 152.545 759.548C153.615 760.407 154.806 761.009 156.051 761.364L156.785 756.74C156.894 756.066 157.531 755.606 158.21 755.71C158.889 755.818 159.352 756.451 159.246 757.125L158.514 761.736C161.138 761.816 163.758 760.875 165.742 758.976L162.087 756.041C161.552 755.613 161.471 754.832 161.901 754.3C162.332 753.769 163.119 753.688 163.654 754.116L167.309 757.051C168.761 754.726 169.137 751.984 168.512 749.454L164.128 751.129C163.487 751.375 162.765 751.058 162.517 750.418C162.27 749.782 162.589 749.065 163.233 748.819L167.63 747.139C167.018 746.006 166.174 744.972 165.108 744.116C164.037 743.257 162.846 742.655 161.601 742.3L160.867 746.924C160.758 747.598 160.121 748.058 159.442 747.953Z" fill="#C5E3DC"/>
<path d="M153.34 731.453L137.621 750.765C136.001 752.757 136.311 755.675 138.316 757.285L157.758 772.899C159.763 774.508 162.701 774.199 164.321 772.208L180.041 752.896C181.661 750.905 181.351 747.986 179.346 746.377L159.904 730.763C157.899 729.154 154.96 729.462 153.34 731.453ZM168.389 759.505C164.12 764.749 156.384 765.562 151.105 761.325C145.825 757.085 145.007 749.401 149.272 744.157C153.538 738.913 161.277 738.1 166.557 742.337C171.836 746.577 172.655 754.261 168.389 759.505Z" fill="#C5E3DC"/>
<path d="M137.395 758.349L138.471 757.027L145.621 762.767L144.544 764.089C144.292 764.4 143.835 764.448 143.522 764.197L137.506 759.367C137.193 759.116 137.145 758.662 137.397 758.351L137.395 758.349Z" fill="#C5E3DC"/>
<path d="M149.898 768.386L150.975 767.064L158.124 772.804L157.048 774.126C156.795 774.437 156.338 774.485 156.026 774.234L150.009 769.404C149.697 769.153 149.648 768.699 149.901 768.388L149.898 768.386Z" fill="#C5E3DC"/>
</g>
<g filter="url(#filter5_d_2141_639241)">
<path d="M260.812 953.063C316.264 953.063 361.217 908.412 361.217 853.332C361.217 798.252 316.264 753.602 260.812 753.602C205.359 753.602 160.406 798.252 160.406 853.332C160.406 908.412 205.359 953.063 260.812 953.063Z" fill="#F0F2F2"/>
</g>
</g>
</g>
<g filter="url(#filter6_f_2141_639241)">
<circle cx="180" cy="160" r="80" fill="#E5EBA0"/>
</g>
<rect x="120" y="100" width="120" height="120" rx="60" fill="white"/>
<path d="M203.348 134.031L208.032 150.38L179.927 187.75L175.242 171.401L203.348 134.031Z" fill="#BC993F" stroke="#BC993F" stroke-width="0.986438" stroke-linejoin="round"/>
<path d="M175.25 171.406L151.828 169.07L156.512 185.419L179.934 187.755L175.25 171.406Z" fill="#BC993F" stroke="#BC993F" stroke-width="0.986438" stroke-linejoin="round"/>
<path d="M179.934 131.695L203.356 134.031L175.25 171.4L151.828 169.065L179.934 131.695Z" fill="#F0D385" stroke="#F0D385" stroke-width="0.986438" stroke-linejoin="round"/>
<g filter="url(#filter7_d_2141_639241)">
<path d="M178.733 159.721L178.818 167.628C179.257 170.796 181.754 173.285 184.935 173.728L192.864 173.812L184.935 173.897C181.758 174.335 179.262 176.825 178.818 179.997L178.733 187.904L178.648 179.997C178.209 176.829 175.712 174.34 172.531 173.897L164.602 173.812L172.531 173.728C175.707 173.29 178.204 170.8 178.648 167.628L178.733 159.721Z" fill="white"/>
<path d="M178.733 159.721L178.818 167.628C179.257 170.796 181.754 173.285 184.935 173.728L192.864 173.812L184.935 173.897C181.758 174.335 179.262 176.825 178.818 179.997L178.733 187.904L178.648 179.997C178.209 176.829 175.712 174.34 172.531 173.897L164.602 173.812L172.531 173.728C175.707 173.29 178.204 170.8 178.648 167.628L178.733 159.721Z" stroke="white" stroke-width="0.740387" stroke-linejoin="round"/>
</g>
<path d="M263.189 76.534L263.62 76.094L264.051 76.534C266.641 81.3734 267.075 93.692 269.232 95.4518C270.958 97.2116 282.174 95.8918 286.92 98.0916L287.351 98.5315L286.92 98.9715C282.175 101.611 270.959 102.051 269.234 103.811C267.508 105.57 267.942 117.009 265.354 121.848L264.923 122.288L264.492 121.848C261.902 117.449 261.469 105.13 259.743 103.811C257.585 102.051 246.801 102.491 241.623 99.8509L241.192 99.4109L241.623 98.9709C245.937 96.3313 257.584 96.7714 259.31 95.0117C261.035 93.6919 260.17 81.3734 263.189 76.534Z" fill="white"/>
<path d="M119.674 196.081L119.845 195.906L120.016 196.081C121.041 197.997 121.213 202.876 122.067 203.572C122.751 204.269 127.192 203.747 129.072 204.618L129.243 204.792L129.072 204.966C127.193 206.012 122.751 206.186 122.068 206.883C121.385 207.58 121.556 212.11 120.532 214.026L120.361 214.2L120.19 214.026C119.165 212.284 118.993 207.405 118.309 206.883C117.455 206.186 113.184 206.36 111.134 205.315L110.963 205.14L111.133 204.966C112.842 203.921 117.454 204.095 118.138 203.398C118.821 202.875 118.478 197.997 119.674 196.081Z" fill="white"/>
<path d="M126.852 236.59L127.108 236.328L127.365 236.59C128.902 239.463 129.16 246.777 130.44 247.822C131.465 248.867 138.125 248.083 140.942 249.389L141.199 249.651L140.943 249.912C138.125 251.479 131.466 251.74 130.441 252.785C129.417 253.83 129.674 260.622 128.138 263.495L127.882 263.756L127.626 263.495C126.089 260.883 125.831 253.569 124.806 252.785C123.525 251.74 117.122 252.001 114.048 250.434L113.792 250.173L114.048 249.911C116.609 248.344 123.525 248.606 124.549 247.561C125.574 246.777 125.06 239.463 126.852 236.59Z" fill="white"/>
<path d="M245.65 56.0493L245.821 55.8751L245.992 56.0494C247.018 57.9659 247.189 62.8443 248.044 63.5412C248.727 64.2381 253.169 63.7155 255.048 64.5866L255.219 64.7609L255.048 64.9351C253.169 65.9804 248.728 66.1546 248.044 66.8515C247.361 67.5484 247.533 72.0784 246.508 73.9949L246.337 74.1691L246.166 73.9949C245.141 72.2526 244.969 67.3742 244.286 66.8515C243.431 66.1546 239.16 66.3287 237.11 65.2834L236.939 65.1091L237.11 64.9349C238.818 63.8895 243.431 64.0638 244.114 63.3669C244.798 62.8442 244.455 57.9658 245.65 56.0493Z" fill="white"/>
<path d="M157.608 278.089C159.406 277.031 160.022 274.687 158.984 272.854C157.946 271.021 155.647 270.393 153.849 271.451C152.051 272.509 151.435 274.853 152.473 276.686C153.511 278.519 155.81 279.148 157.608 278.089Z" fill="#FF8B94"/>
<path d="M107.402 232.424C108.304 231.893 108.613 230.717 108.093 229.797C107.572 228.877 106.418 228.562 105.516 229.093C104.614 229.624 104.305 230.8 104.826 231.72C105.347 232.64 106.5 232.955 107.402 232.424Z" fill="#FF8B94"/>
<path d="M227.723 65.9396C228.625 65.4085 228.934 64.2325 228.413 63.3127C227.892 62.3929 226.739 62.0778 225.836 62.6088C224.934 63.1398 224.625 64.3159 225.146 65.2357C225.667 66.1555 226.82 66.4706 227.723 65.9396Z" fill="#FF8B94"/>
<path d="M241.875 266.604C242.777 266.073 243.086 264.897 242.565 263.977C242.044 263.057 240.891 262.742 239.989 263.273C239.087 263.804 238.778 264.98 239.298 265.9C239.819 266.82 240.973 267.135 241.875 266.604Z" fill="#FF8B94"/>
<path d="M120.141 113.58C121.043 113.049 121.352 111.873 120.831 110.953C120.31 110.034 119.157 109.718 118.254 110.249C117.352 110.78 117.043 111.957 117.564 112.876C118.085 113.796 119.238 114.111 120.141 113.58Z" fill="#FF8B94"/>
<path d="M86.1679 129.463C87.0699 128.932 87.379 127.756 86.8582 126.836C86.3374 125.916 85.1839 125.601 84.2818 126.132C83.3797 126.663 83.0706 127.839 83.5915 128.759C84.1123 129.679 85.2658 129.994 86.1679 129.463Z" fill="#FF8B94"/>
<path d="M263.772 244.878C265.57 243.82 266.186 241.476 265.148 239.643C264.11 237.81 261.811 237.182 260.013 238.24C258.215 239.298 257.599 241.642 258.637 243.475C259.675 245.309 261.974 245.937 263.772 244.878Z" fill="#FF8B94"/>
<path d="M258.108 130.831C259.906 129.773 260.522 127.429 259.484 125.596C258.446 123.763 256.147 123.135 254.349 124.193C252.551 125.251 251.935 127.595 252.973 129.429C254.011 131.262 256.31 131.89 258.108 130.831Z" fill="#FF8B94"/>
<path d="M236.878 125.066C238.675 124.007 239.291 121.663 238.253 119.83C237.215 117.997 234.916 117.369 233.119 118.427C231.321 119.486 230.705 121.83 231.743 123.663C232.781 125.496 235.08 126.124 236.878 125.066Z" fill="#FF8B94"/>
<path d="M164.208 73.9307C167.697 71.8765 168.893 67.327 166.878 63.7691C164.864 60.2111 160.402 58.992 156.912 61.0462C153.423 63.1004 152.227 67.6499 154.242 71.2079C156.256 74.7658 160.718 75.9848 164.208 73.9307Z" fill="#FF8B94"/>
<path d="M292.223 171.152C293.693 170.287 294.197 168.369 293.348 166.869C292.499 165.37 290.618 164.856 289.147 165.721C287.677 166.587 287.173 168.505 288.022 170.005C288.871 171.504 290.752 172.018 292.223 171.152Z" fill="#C3EDEE"/>
<path d="M176.149 234.668C177.619 233.802 178.123 231.885 177.274 230.385C176.425 228.885 174.544 228.371 173.073 229.237C171.602 230.103 171.099 232.02 171.948 233.52C172.797 235.02 174.678 235.534 176.149 234.668Z" fill="#C3EDEE"/>
<path d="M204.457 88.8634C205.928 87.9976 206.432 86.08 205.582 84.5802C204.733 83.0805 202.853 82.5666 201.382 83.4324C199.911 84.2981 199.407 86.2158 200.256 87.7155C201.106 89.2152 202.986 89.7292 204.457 88.8634Z" fill="#C3EDEE"/>
<path d="M284.46 203.231C285.392 202.682 285.712 201.466 285.173 200.515C284.635 199.564 283.442 199.238 282.509 199.787C281.576 200.336 281.257 201.552 281.796 202.503C282.334 203.455 283.527 203.781 284.46 203.231Z" fill="#C3EDEE"/>
<path d="M217.932 86.3018C218.865 85.7527 219.185 84.5365 218.646 83.5853C218.107 82.6342 216.915 82.3083 215.982 82.8573C215.049 83.4064 214.73 84.6226 215.268 85.5738C215.807 86.5249 217 86.8508 217.932 86.3018Z" fill="#C3EDEE"/>
<path d="M100.444 135.388C101.377 134.839 101.696 133.622 101.158 132.671C100.619 131.72 99.4264 131.394 98.4936 131.943C97.5609 132.492 97.2413 133.709 97.7799 134.66C98.3185 135.611 99.5112 135.937 100.444 135.388Z" fill="#C3EDEE"/>
<path d="M101.125 77.3165C102.596 76.4507 103.1 74.5331 102.25 73.0333C101.401 71.5336 99.5205 71.0197 98.0498 71.8855C96.579 72.7513 96.0751 74.6689 96.9244 76.1686C97.7736 77.6684 99.6543 78.1823 101.125 77.3165Z" fill="#C3EDEE"/>
<path d="M65.7384 168.262C67.2091 167.396 67.7129 165.478 66.8637 163.979C66.0145 162.479 64.1338 161.965 62.663 162.831C61.1923 163.697 60.6884 165.614 61.5376 167.114C62.3869 168.614 64.2676 169.128 65.7384 168.262Z" fill="#C3EDEE"/>
<path d="M285.691 135.501L285.645 136.967L285.653 136.967L285.691 135.501ZM255.347 143.278L254.78 144.622C259.387 146.659 263.076 147.203 266.211 146.76C269.348 146.316 271.766 144.906 273.849 143.344C274.879 142.572 275.86 141.736 276.782 140.971C277.72 140.192 278.611 139.474 279.535 138.859C281.353 137.648 283.244 136.871 285.645 136.967L285.691 135.501L285.736 134.035C282.559 133.907 280.084 134.971 277.937 136.401C276.879 137.106 275.888 137.908 274.943 138.692C273.982 139.49 273.078 140.26 272.121 140.978C270.231 142.396 268.263 143.503 265.791 143.853C263.317 144.203 260.174 143.815 255.914 141.933L255.347 143.278ZM285.691 135.501L285.653 136.967C290.111 137.121 292.787 139.385 294.395 141.644C295.208 142.787 295.744 143.928 296.076 144.784C296.241 145.211 296.354 145.562 296.423 145.8C296.458 145.919 296.482 146.009 296.497 146.066C296.504 146.095 296.509 146.115 296.512 146.126C296.513 146.132 296.514 146.135 296.514 146.136C296.514 146.137 296.514 146.137 296.514 146.136C296.514 146.136 296.514 146.136 296.514 146.135C296.514 146.135 296.514 146.134 296.514 146.134C296.513 146.133 296.513 146.133 297.922 145.821C299.331 145.509 299.331 145.508 299.331 145.507C299.331 145.507 299.331 145.506 299.33 145.506C299.33 145.504 299.33 145.503 299.329 145.501C299.329 145.498 299.328 145.495 299.327 145.491C299.325 145.482 299.322 145.471 299.319 145.458C299.313 145.431 299.304 145.396 299.293 145.351C299.27 145.262 299.237 145.138 299.192 144.983C299.101 144.674 298.962 144.243 298.763 143.729C298.367 142.705 297.723 141.33 296.731 139.937C294.727 137.122 291.287 134.226 285.728 134.034L285.691 135.501Z" fill="#C3EDEE"/>
<path d="M109.227 166.392L107.785 166.393L107.785 166.407L107.785 166.421L109.227 166.392ZM98.7847 155.491L98.5431 156.941L98.5538 156.943L98.7847 155.491ZM117.269 177.011C117.629 175.586 117.63 175.587 117.631 175.587C117.631 175.587 117.631 175.587 117.632 175.587C117.632 175.587 117.633 175.587 117.633 175.588C117.634 175.588 117.635 175.588 117.635 175.588C117.635 175.588 117.633 175.587 117.629 175.586C117.621 175.584 117.607 175.58 117.586 175.574C117.544 175.562 117.476 175.541 117.385 175.51C117.203 175.449 116.933 175.351 116.604 175.207C115.943 174.917 115.063 174.452 114.185 173.755C112.455 172.383 110.724 170.114 110.669 166.363L109.227 166.392L107.785 166.421C107.856 171.242 110.146 174.283 112.406 176.077C113.523 176.963 114.629 177.546 115.456 177.908C115.871 178.09 116.22 178.218 116.472 178.302C116.598 178.345 116.7 178.376 116.774 178.398C116.811 178.409 116.841 178.417 116.864 178.423C116.875 178.427 116.884 178.429 116.892 178.431C116.896 178.432 116.899 178.433 116.902 178.434C116.903 178.434 116.904 178.434 116.905 178.435C116.906 178.435 116.907 178.435 116.907 178.435C116.908 178.435 116.909 178.436 117.269 177.011ZM109.227 166.392L110.669 166.391C110.684 162.649 109.35 159.755 107.143 157.692C104.974 155.665 102.062 154.529 99.0156 154.039L98.7847 155.491L98.5538 156.943C101.24 157.375 103.562 158.342 105.188 159.862C106.775 161.345 107.796 163.441 107.785 166.393L109.227 166.392ZM98.7847 155.491L99.0262 154.041C95.5163 153.449 92.636 152.366 90.6419 150.863C88.6865 149.388 87.6021 147.535 87.5132 145.251L86.0721 145.315L84.631 145.38C84.7604 148.702 86.3931 151.323 88.9197 153.228C91.4078 155.104 94.7747 156.305 98.5431 156.941L98.7847 155.491Z" fill="#FF5760"/>
<path d="M216.474 263.479L215.295 262.627L215.287 262.639L215.279 262.65L216.474 263.479ZM214.348 248.394L213.299 249.405L213.306 249.413L214.348 248.394ZM216.826 276.891C217.956 275.972 217.957 275.973 217.957 275.973C217.957 275.974 217.958 275.974 217.958 275.974C217.958 275.975 217.959 275.975 217.959 275.976C217.96 275.976 217.96 275.977 217.96 275.977C217.96 275.976 217.958 275.975 217.956 275.972C217.951 275.966 217.942 275.954 217.928 275.936C217.902 275.901 217.858 275.842 217.803 275.763C217.691 275.604 217.53 275.362 217.347 275.047C216.98 274.415 216.537 273.508 216.231 272.414C215.626 270.257 215.542 267.374 217.67 264.308L216.474 263.479L215.279 262.65C212.55 266.581 212.642 270.405 213.427 273.205C213.815 274.589 214.37 275.723 214.828 276.512C215.058 276.908 215.266 277.222 215.42 277.441C215.497 277.551 215.561 277.637 215.608 277.699C215.632 277.73 215.651 277.755 215.666 277.774C215.673 277.783 215.679 277.791 215.684 277.797C215.686 277.8 215.688 277.803 215.69 277.805C215.691 277.806 215.692 277.807 215.693 277.808C215.693 277.808 215.694 277.809 215.694 277.809C215.694 277.81 215.695 277.81 216.826 276.891ZM216.474 263.479L217.654 264.33C219.829 261.319 220.423 258.187 219.836 255.204C219.259 252.271 217.567 249.604 215.391 247.376L214.348 248.394L213.306 249.413C215.225 251.377 216.543 253.558 216.979 255.771C217.404 257.935 217.013 260.249 215.295 262.627L216.474 263.479ZM214.348 248.394L215.398 247.384C212.907 244.795 211.205 242.185 210.463 239.766C209.734 237.391 209.932 235.232 211.185 233.329L209.97 232.53L208.754 231.731C206.94 234.486 206.744 237.575 207.679 240.625C208.602 243.631 210.623 246.624 213.299 249.405L214.348 248.394Z" fill="#FF5760"/>
<path d="M141.065 86.3779L140.121 85.2734C139.743 85.5979 138.69 85.8181 137.114 84.8682C135.64 83.9795 134.08 82.2197 133.204 79.5736L131.823 80.0377L130.442 80.5018C131.516 83.7476 133.49 86.0911 135.605 87.3662C137.618 88.58 140.211 89.0243 142.009 87.4823L141.065 86.3779ZM131.823 80.0377L133.204 79.5736C132.01 75.9652 128.832 74.1241 125.688 73.5977C122.595 73.0799 119.123 73.7584 116.999 75.6833L117.972 76.7614L118.946 77.8395C120.222 76.6833 122.7 76.0539 125.195 76.4716C127.639 76.8806 129.686 78.2181 130.442 80.5018L131.823 80.0377Z" fill="#C3EDEE"/>
<path d="M248.519 196.749C248.519 196.749 252.336 186.029 252.498 176.341L259.008 175.854C259.008 175.854 255.082 195.636 252.787 200.234L248.519 196.749Z" fill="#E9D083"/>
<path d="M85.4805 193.336C85.4805 193.336 98.3129 200.668 94.7069 209.63L100.603 205.757C100.603 205.757 98.2532 191.852 91.5472 189.765L85.4805 193.336Z" fill="#E9D083"/>
<path d="M179.671 46.7641C179.671 46.7641 185.45 50.0007 185.639 54.516L195.167 52.5279C195.167 52.5279 190.127 43.6266 184.377 42.1834L179.671 46.7641Z" fill="#E9D083"/>
<path d="M229.863 214.992C229.863 214.992 242.696 222.324 239.09 231.286L244.986 227.413C244.986 227.413 242.636 213.508 235.93 211.421L229.863 214.992Z" fill="#E9D083"/>
<path d="M134.058 324.238C132.76 324.238 131.608 323.953 130.6 323.384C129.592 322.815 128.789 321.998 128.192 320.934C127.604 319.87 127.263 318.619 127.17 317.182C127.114 316.323 127.086 315.203 127.086 313.822C127.086 312.739 127.109 311.769 127.156 310.91C127.249 309.482 127.59 308.241 128.178 307.186C128.775 306.131 129.578 305.319 130.586 304.75C131.603 304.181 132.76 303.896 134.058 303.896C135.355 303.896 136.508 304.181 137.516 304.75C138.524 305.319 139.322 306.131 139.91 307.186C140.507 308.241 140.852 309.482 140.946 310.91C141.002 311.759 141.03 312.879 141.03 314.27C141.03 315.371 141.006 316.342 140.96 317.182C140.866 318.61 140.521 319.856 139.924 320.92C139.336 321.984 138.533 322.805 137.516 323.384C136.508 323.953 135.355 324.238 134.058 324.238ZM129.522 317.056C129.662 318.671 130.114 319.893 130.88 320.724C131.654 321.555 132.714 321.97 134.058 321.97C135.402 321.97 136.466 321.55 137.25 320.71C138.034 319.87 138.486 318.652 138.608 317.056C138.664 316.272 138.692 315.278 138.692 314.074C138.692 312.861 138.664 311.857 138.608 311.064C138.486 309.477 138.034 308.264 137.25 307.424C136.466 306.584 135.402 306.164 134.058 306.164C132.704 306.164 131.645 306.584 130.88 307.424C130.114 308.255 129.662 309.468 129.522 311.064C129.456 311.867 129.424 312.856 129.424 314.032C129.424 315.18 129.456 316.188 129.522 317.056ZM146.135 319.184C146.481 319.184 146.747 319.287 146.933 319.492C147.129 319.697 147.227 319.982 147.227 320.346V322.964C147.227 323.337 147.129 323.627 146.933 323.832C146.747 324.028 146.481 324.126 146.135 324.126C145.799 324.126 145.533 324.023 145.337 323.818C145.141 323.613 145.043 323.328 145.043 322.964V320.346C145.043 319.982 145.141 319.697 145.337 319.492C145.533 319.287 145.799 319.184 146.135 319.184ZM158.229 324.238C156.932 324.238 155.779 323.953 154.771 323.384C153.763 322.815 152.961 321.998 152.363 320.934C151.775 319.87 151.435 318.619 151.341 317.182C151.285 316.323 151.257 315.203 151.257 313.822C151.257 312.739 151.281 311.769 151.327 310.91C151.421 309.482 151.761 308.241 152.349 307.186C152.947 306.131 153.749 305.319 154.757 304.75C155.775 304.181 156.932 303.896 158.229 303.896C159.527 303.896 160.679 304.181 161.687 304.75C162.695 305.319 163.493 306.131 164.081 307.186C164.679 308.241 165.024 309.482 165.117 310.91C165.173 311.759 165.201 312.879 165.201 314.27C165.201 315.371 165.178 316.342 165.131 317.182C165.038 318.61 164.693 319.856 164.095 320.92C163.507 321.984 162.705 322.805 161.687 323.384C160.679 323.953 159.527 324.238 158.229 324.238ZM153.693 317.056C153.833 318.671 154.286 319.893 155.051 320.724C155.826 321.555 156.885 321.97 158.229 321.97C159.573 321.97 160.637 321.55 161.421 320.71C162.205 319.87 162.658 318.652 162.779 317.056C162.835 316.272 162.863 315.278 162.863 314.074C162.863 312.861 162.835 311.857 162.779 311.064C162.658 309.477 162.205 308.264 161.421 307.424C160.637 306.584 159.573 306.164 158.229 306.164C156.876 306.164 155.817 306.584 155.051 307.424C154.286 308.255 153.833 309.468 153.693 311.064C153.628 311.867 153.595 312.856 153.595 314.032C153.595 315.18 153.628 316.188 153.693 317.056ZM175.319 324.238C174.022 324.238 172.869 323.953 171.861 323.384C170.853 322.815 170.051 321.998 169.453 320.934C168.865 319.87 168.525 318.619 168.431 317.182C168.375 316.323 168.347 315.203 168.347 313.822C168.347 312.739 168.371 311.769 168.417 310.91C168.511 309.482 168.851 308.241 169.439 307.186C170.037 306.131 170.839 305.319 171.847 304.75C172.865 304.181 174.022 303.896 175.319 303.896C176.617 303.896 177.769 304.181 178.777 304.75C179.785 305.319 180.583 306.131 181.171 307.186C181.769 308.241 182.114 309.482 182.207 310.91C182.263 311.759 182.291 312.879 182.291 314.27C182.291 315.371 182.268 316.342 182.221 317.182C182.128 318.61 181.783 319.856 181.185 320.92C180.597 321.984 179.795 322.805 178.777 323.384C177.769 323.953 176.617 324.238 175.319 324.238ZM170.783 317.056C170.923 318.671 171.376 319.893 172.141 320.724C172.916 321.555 173.975 321.97 175.319 321.97C176.663 321.97 177.727 321.55 178.511 320.71C179.295 319.87 179.748 318.652 179.869 317.056C179.925 316.272 179.953 315.278 179.953 314.074C179.953 312.861 179.925 311.857 179.869 311.064C179.748 309.477 179.295 308.264 178.511 307.424C177.727 306.584 176.663 306.164 175.319 306.164C173.966 306.164 172.907 306.584 172.141 307.424C171.376 308.255 170.923 309.468 170.783 311.064C170.718 311.867 170.685 312.856 170.685 314.032C170.685 315.18 170.718 316.188 170.783 317.056ZM192.409 324.238C191.112 324.238 189.959 323.953 188.951 323.384C187.943 322.815 187.14 321.998 186.543 320.934C185.955 319.87 185.614 318.619 185.521 317.182C185.465 316.323 185.437 315.203 185.437 313.822C185.437 312.739 185.46 311.769 185.507 310.91C185.6 309.482 185.941 308.241 186.529 307.186C187.126 306.131 187.929 305.319 188.937 304.75C189.954 304.181 191.112 303.896 192.409 303.896C193.706 303.896 194.859 304.181 195.867 304.75C196.875 305.319 197.673 306.131 198.261 307.186C198.858 308.241 199.204 309.482 199.297 310.91C199.353 311.759 199.381 312.879 199.381 314.27C199.381 315.371 199.358 316.342 199.311 317.182C199.218 318.61 198.872 319.856 198.275 320.92C197.687 321.984 196.884 322.805 195.867 323.384C194.859 323.953 193.706 324.238 192.409 324.238ZM187.873 317.056C188.013 318.671 188.466 319.893 189.231 320.724C190.006 321.555 191.065 321.97 192.409 321.97C193.753 321.97 194.817 321.55 195.601 320.71C196.385 319.87 196.838 318.652 196.959 317.056C197.015 316.272 197.043 315.278 197.043 314.074C197.043 312.861 197.015 311.857 196.959 311.064C196.838 309.477 196.385 308.264 195.601 307.424C194.817 306.584 193.753 306.164 192.409 306.164C191.056 306.164 189.996 306.584 189.231 307.424C188.466 308.255 188.013 309.468 187.873 311.064C187.808 311.867 187.775 312.856 187.775 314.032C187.775 315.18 187.808 316.188 187.873 317.056ZM213.013 322.894C213.013 323.286 212.91 323.589 212.705 323.804C212.5 324.019 212.215 324.126 211.851 324.126C211.487 324.126 211.202 324.019 210.997 323.804C210.792 323.589 210.689 323.286 210.689 322.894V306.71L205.705 309.244C205.406 309.403 205.122 309.482 204.851 309.482C204.599 309.482 204.37 309.384 204.165 309.188C203.969 308.983 203.871 308.735 203.871 308.446C203.871 308.222 203.936 308.026 204.067 307.858C204.198 307.69 204.389 307.541 204.641 307.41L210.325 304.456C210.642 304.297 210.913 304.181 211.137 304.106C211.361 304.022 211.566 303.98 211.753 303.98C212.136 303.98 212.439 304.097 212.663 304.33C212.896 304.563 213.013 304.895 213.013 305.324V322.894ZM226.085 329.152C225.095 329.152 224.227 329.054 223.481 328.858C222.734 328.662 221.992 328.363 221.255 327.962C220.956 327.803 220.727 327.626 220.569 327.43C220.419 327.243 220.345 327.015 220.345 326.744C220.345 326.473 220.438 326.24 220.625 326.044C220.821 325.857 221.059 325.764 221.339 325.764C221.488 325.764 221.619 325.783 221.731 325.82C221.852 325.857 221.992 325.913 222.151 325.988C222.907 326.399 223.555 326.669 224.097 326.8C224.647 326.931 225.282 326.996 226.001 326.996C227.195 326.996 228.143 326.669 228.843 326.016C229.552 325.363 229.907 324.383 229.907 323.076V322.362C229.393 322.623 228.791 322.833 228.101 322.992C227.41 323.151 226.715 323.23 226.015 323.23C224.876 323.23 223.863 323.011 222.977 322.572C222.09 322.124 221.381 321.499 220.849 320.696C220.317 319.893 219.995 318.969 219.883 317.924C219.836 317.411 219.813 316.846 219.813 316.23C219.813 315.558 219.836 314.951 219.883 314.41C219.985 313.365 220.307 312.441 220.849 311.638C221.399 310.835 222.132 310.21 223.047 309.762C223.961 309.314 225.007 309.09 226.183 309.09C227.265 309.09 228.297 309.244 229.277 309.552C230.257 309.86 231.031 310.196 231.601 310.56C231.834 310.7 231.988 310.859 232.063 311.036C232.137 311.204 232.175 311.489 232.175 311.89V322.936C232.175 324.261 231.918 325.386 231.405 326.31C230.901 327.243 230.191 327.948 229.277 328.424C228.362 328.909 227.298 329.152 226.085 329.152ZM222.151 317.728C222.253 318.755 222.65 319.571 223.341 320.178C224.041 320.775 224.988 321.074 226.183 321.074C226.827 321.074 227.508 320.985 228.227 320.808C228.955 320.621 229.515 320.388 229.907 320.108V312.254C229.515 311.974 228.959 311.741 228.241 311.554C227.522 311.367 226.836 311.274 226.183 311.274C224.988 311.274 224.041 311.577 223.341 312.184C222.65 312.781 222.253 313.593 222.151 314.62C222.104 315.087 222.081 315.586 222.081 316.118C222.081 316.697 222.104 317.233 222.151 317.728Z" fill="#0B3C58"/>
<path d="M124.243 404C123.439 404 122.821 403.79 122.389 403.37C121.969 402.938 121.759 402.32 121.759 401.516V380.96C121.759 380.156 121.969 379.544 122.389 379.124C122.821 378.692 123.439 378.476 124.243 378.476H132.505C134.005 378.476 135.295 378.746 136.375 379.286C137.455 379.814 138.277 380.576 138.841 381.572C139.417 382.568 139.705 383.75 139.705 385.118C139.705 386.534 139.399 387.704 138.787 388.628C138.187 389.54 137.359 390.23 136.303 390.698V390.752C137.071 390.968 137.761 391.346 138.373 391.886C138.997 392.426 139.495 393.128 139.867 393.992C140.239 394.844 140.425 395.834 140.425 396.962C140.425 398.438 140.089 399.704 139.417 400.76C138.757 401.816 137.857 402.62 136.717 403.172C135.577 403.724 134.305 404 132.901 404H124.243ZM132.559 401.12C134.107 401.12 135.295 400.742 136.123 399.986C136.951 399.218 137.365 398.138 137.365 396.746C137.365 395.258 136.951 394.124 136.123 393.344C135.295 392.564 134.107 392.174 132.559 392.174H124.765V401.12H132.559ZM132.073 389.528C133.621 389.528 134.773 389.168 135.529 388.448C136.297 387.728 136.681 386.714 136.681 385.406C136.681 382.706 135.145 381.356 132.073 381.356H124.765V389.528H132.073ZM153.07 404.324C151.57 404.324 150.226 404.018 149.038 403.406C147.862 402.782 146.914 401.918 146.194 400.814C145.474 399.71 145.042 398.444 144.898 397.016C144.826 396.308 144.79 395.468 144.79 394.496C144.79 393.656 144.82 392.876 144.88 392.156C145.012 390.728 145.438 389.462 146.158 388.358C146.89 387.242 147.85 386.378 149.038 385.766C150.226 385.142 151.57 384.83 153.07 384.83C154.57 384.83 155.92 385.142 157.12 385.766C158.32 386.378 159.28 387.242 160 388.358C160.72 389.462 161.146 390.728 161.278 392.156C161.338 392.876 161.368 393.656 161.368 394.496C161.368 395.468 161.332 396.308 161.26 397.016C161.116 398.444 160.684 399.71 159.964 400.814C159.244 401.918 158.29 402.782 157.102 403.406C155.914 404.018 154.57 404.324 153.07 404.324ZM147.778 396.71C147.862 397.646 148.132 398.474 148.588 399.194C149.056 399.914 149.674 400.478 150.442 400.886C151.21 401.282 152.086 401.48 153.07 401.48C154.054 401.48 154.93 401.282 155.698 400.886C156.466 400.478 157.078 399.914 157.534 399.194C158.002 398.474 158.284 397.646 158.38 396.71C158.44 396.158 158.47 395.444 158.47 394.568C158.47 393.704 158.44 392.996 158.38 392.444C158.296 391.508 158.02 390.68 157.552 389.96C157.096 389.24 156.478 388.682 155.698 388.286C154.93 387.89 154.054 387.692 153.07 387.692C152.086 387.692 151.21 387.89 150.442 388.286C149.686 388.682 149.074 389.24 148.606 389.96C148.15 390.68 147.874 391.508 147.778 392.444C147.718 393.188 147.688 393.896 147.688 394.568C147.688 395.252 147.718 395.966 147.778 396.71ZM174.185 404.324C172.529 404.324 171.119 404.03 169.955 403.442C168.791 402.842 167.909 401.978 167.309 400.85C166.709 399.722 166.409 398.372 166.409 396.8V386.54C166.409 386.048 166.535 385.67 166.787 385.406C167.051 385.13 167.411 384.992 167.867 384.992C168.323 384.992 168.677 385.13 168.929 385.406C169.193 385.67 169.325 386.048 169.325 386.54V396.566C169.325 399.842 170.945 401.48 174.185 401.48C175.085 401.48 175.967 401.366 176.831 401.138C177.707 400.898 178.433 400.598 179.009 400.238V386.54C179.009 386.048 179.135 385.67 179.387 385.406C179.651 385.13 180.011 384.992 180.467 384.992C180.923 384.992 181.277 385.13 181.529 385.406C181.793 385.67 181.925 386.048 181.925 386.54V400.868C181.925 401.3 181.859 401.636 181.727 401.876C181.607 402.104 181.379 402.314 181.043 402.506C180.311 402.962 179.327 403.382 178.091 403.766C176.867 404.138 175.565 404.324 174.185 404.324ZM195.184 410.624C193.912 410.624 192.796 410.498 191.836 410.246C190.876 409.994 189.922 409.61 188.974 409.094C188.59 408.89 188.296 408.662 188.092 408.41C187.9 408.17 187.804 407.876 187.804 407.528C187.804 407.18 187.924 406.88 188.164 406.628C188.416 406.388 188.722 406.268 189.082 406.268C189.274 406.268 189.442 406.292 189.586 406.34C189.742 406.388 189.922 406.46 190.126 406.556C191.098 407.084 191.932 407.432 192.628 407.6C193.336 407.768 194.152 407.852 195.076 407.852C196.612 407.852 197.83 407.432 198.73 406.592C199.642 405.752 200.098 404.492 200.098 402.812V401.894C199.438 402.23 198.664 402.5 197.776 402.704C196.888 402.908 195.994 403.01 195.094 403.01C193.63 403.01 192.328 402.728 191.188 402.164C190.048 401.588 189.136 400.784 188.452 399.752C187.768 398.72 187.354 397.532 187.21 396.188C187.15 395.528 187.12 394.802 187.12 394.01C187.12 393.146 187.15 392.366 187.21 391.67C187.342 390.326 187.756 389.138 188.452 388.106C189.16 387.074 190.102 386.27 191.278 385.694C192.454 385.118 193.798 384.83 195.31 384.83C196.702 384.83 198.028 385.028 199.288 385.424C200.548 385.82 201.544 386.252 202.276 386.72C202.576 386.9 202.774 387.104 202.87 387.332C202.966 387.548 203.014 387.914 203.014 388.43V402.632C203.014 404.336 202.684 405.782 202.024 406.97C201.376 408.17 200.464 409.076 199.288 409.688C198.112 410.312 196.744 410.624 195.184 410.624ZM190.126 395.936C190.258 397.256 190.768 398.306 191.656 399.086C192.556 399.854 193.774 400.238 195.31 400.238C196.138 400.238 197.014 400.124 197.938 399.896C198.874 399.656 199.594 399.356 200.098 398.996V388.898C199.594 388.538 198.88 388.238 197.956 387.998C197.032 387.758 196.15 387.638 195.31 387.638C193.774 387.638 192.556 388.028 191.656 388.808C190.768 389.576 190.258 390.62 190.126 391.94C190.066 392.54 190.036 393.182 190.036 393.866C190.036 394.61 190.066 395.3 190.126 395.936ZM217.752 384.83C219.132 384.83 220.344 385.106 221.388 385.658C222.432 386.21 223.242 387.026 223.818 388.106C224.406 389.174 224.7 390.47 224.7 391.994V402.488C224.7 402.98 224.568 403.364 224.304 403.64C224.052 403.904 223.698 404.036 223.242 404.036C222.786 404.036 222.426 403.904 222.162 403.64C221.91 403.364 221.784 402.98 221.784 402.488V392.372C221.784 390.884 221.406 389.732 220.65 388.916C219.894 388.1 218.796 387.692 217.356 387.692C216.324 387.692 215.322 387.962 214.35 388.502C213.378 389.042 212.58 389.714 211.956 390.518V402.488C211.956 402.98 211.824 403.364 211.56 403.64C211.308 403.904 210.954 404.036 210.498 404.036C210.042 404.036 209.682 403.904 209.418 403.64C209.166 403.364 209.04 402.98 209.04 402.488V379.646C209.04 379.154 209.166 378.776 209.418 378.512C209.682 378.236 210.042 378.098 210.498 378.098C210.954 378.098 211.308 378.236 211.56 378.512C211.824 378.776 211.956 379.154 211.956 379.646V387.26C212.664 386.54 213.528 385.958 214.548 385.514C215.58 385.058 216.648 384.83 217.752 384.83ZM231.958 380.978C232.414 380.978 232.768 381.116 233.02 381.392C233.284 381.668 233.416 382.046 233.416 382.526V385.154H238.798C239.326 385.154 239.728 385.274 240.004 385.514C240.28 385.754 240.418 386.096 240.418 386.54C240.418 386.984 240.28 387.326 240.004 387.566C239.728 387.806 239.326 387.926 238.798 387.926H233.416V398.456C233.416 399.488 233.644 400.256 234.1 400.76C234.568 401.264 235.288 401.516 236.26 401.516C236.776 401.516 237.232 401.474 237.628 401.39C238.024 401.306 238.432 401.186 238.852 401.03C239.008 400.97 239.164 400.916 239.32 400.868C239.488 400.82 239.65 400.796 239.806 400.796C240.142 400.796 240.43 400.922 240.67 401.174C240.922 401.426 241.048 401.75 241.048 402.146C241.048 402.506 240.946 402.806 240.742 403.046C240.55 403.274 240.25 403.466 239.842 403.622C238.618 404.09 237.376 404.324 236.116 404.324C234.976 404.324 233.98 404.102 233.128 403.658C232.288 403.214 231.64 402.572 231.184 401.732C230.728 400.892 230.5 399.884 230.5 398.708V382.526C230.5 382.034 230.626 381.656 230.878 381.392C231.142 381.116 231.502 380.978 231.958 380.978ZM81.2507 450.324C79.3907 450.324 77.7587 450.102 76.3547 449.658C74.9507 449.214 73.6967 448.602 72.5927 447.822C72.0647 447.474 71.8007 447.012 71.8007 446.436C71.8007 446.028 71.9387 445.686 72.2147 445.41C72.5027 445.134 72.8567 444.996 73.2767 444.996C73.6127 444.996 73.9787 445.128 74.3747 445.392C75.3707 446.052 76.4087 446.562 77.4887 446.922C78.5807 447.27 79.8347 447.444 81.2507 447.444C83.3027 447.444 84.8507 447.072 85.8947 446.328C86.9387 445.572 87.4607 444.486 87.4607 443.07C87.4607 442.278 87.2447 441.606 86.8127 441.054C86.3927 440.502 85.7147 440.034 84.7787 439.65C83.8427 439.254 82.5767 438.9 80.9807 438.588C78.8327 438.168 77.1227 437.64 75.8507 437.004C74.5787 436.368 73.6547 435.588 73.0787 434.664C72.5147 433.728 72.2327 432.582 72.2327 431.226C72.2327 429.774 72.5927 428.514 73.3127 427.446C74.0447 426.378 75.0707 425.562 76.3907 424.998C77.7107 424.434 79.2467 424.152 80.9987 424.152C82.5827 424.152 83.9807 424.35 85.1927 424.746C86.4167 425.142 87.4727 425.658 88.3607 426.294C88.6367 426.486 88.8407 426.69 88.9727 426.906C89.1047 427.122 89.1707 427.374 89.1707 427.662C89.1707 428.046 89.0327 428.382 88.7567 428.67C88.4807 428.958 88.1387 429.102 87.7307 429.102C87.5507 429.102 87.3767 429.072 87.2087 429.012C87.0407 428.94 86.8367 428.838 86.5967 428.706C85.8287 428.178 84.9887 427.77 84.0767 427.482C83.1767 427.194 82.1507 427.05 80.9987 427.05C79.1027 427.05 77.6687 427.416 76.6967 428.148C75.7247 428.868 75.2387 429.882 75.2387 431.19C75.2387 431.982 75.4307 432.648 75.8147 433.188C76.2107 433.716 76.8707 434.178 77.7947 434.574C78.7187 434.958 79.9967 435.306 81.6287 435.618C83.7647 436.026 85.4747 436.548 86.7587 437.184C88.0427 437.808 88.9787 438.594 89.5667 439.542C90.1667 440.478 90.4667 441.63 90.4667 442.998C90.4667 444.498 90.0947 445.8 89.3507 446.904C88.6067 448.008 87.5387 448.854 86.1467 449.442C84.7667 450.03 83.1347 450.324 81.2507 450.324ZM102.835 450.324C101.179 450.324 99.7693 450.03 98.6053 449.442C97.4413 448.842 96.5593 447.978 95.9593 446.85C95.3593 445.722 95.0593 444.372 95.0593 442.8V432.54C95.0593 432.048 95.1853 431.67 95.4373 431.406C95.7013 431.13 96.0613 430.992 96.5173 430.992C96.9733 430.992 97.3273 431.13 97.5793 431.406C97.8433 431.67 97.9753 432.048 97.9753 432.54V442.566C97.9753 445.842 99.5953 447.48 102.835 447.48C103.735 447.48 104.617 447.366 105.481 447.138C106.357 446.898 107.083 446.598 107.659 446.238V432.54C107.659 432.048 107.785 431.67 108.037 431.406C108.301 431.13 108.661 430.992 109.117 430.992C109.573 430.992 109.927 431.13 110.179 431.406C110.443 431.67 110.575 432.048 110.575 432.54V446.868C110.575 447.3 110.509 447.636 110.377 447.876C110.257 448.104 110.029 448.314 109.693 448.506C108.961 448.962 107.977 449.382 106.741 449.766C105.517 450.138 104.215 450.324 102.835 450.324ZM118.722 438.3C118.662 439.08 118.632 439.836 118.632 440.568C118.632 441.312 118.662 442.074 118.722 442.854C118.854 444.27 119.37 445.398 120.27 446.238C121.17 447.066 122.388 447.48 123.924 447.48C124.98 447.48 125.904 447.21 126.696 446.67C127.488 446.13 128.088 445.404 128.496 444.492C128.52 444.456 128.586 444.348 128.694 444.168C128.802 443.976 128.958 443.82 129.162 443.7C129.366 443.58 129.606 443.52 129.882 443.52C130.278 443.52 130.602 443.652 130.854 443.916C131.118 444.168 131.25 444.492 131.25 444.888C131.25 445.092 131.214 445.314 131.142 445.554C131.07 445.782 130.956 446.064 130.8 446.4C130.224 447.576 129.33 448.524 128.118 449.244C126.918 449.964 125.508 450.324 123.888 450.324C122.376 450.324 121.032 450.024 119.856 449.424C118.692 448.824 117.762 447.984 117.066 446.904C116.382 445.824 115.968 444.576 115.824 443.16C115.752 442.452 115.716 441.594 115.716 440.586C115.716 439.566 115.752 438.708 115.824 438.012C115.956 436.596 116.37 435.348 117.066 434.268C117.762 433.176 118.692 432.33 119.856 431.73C121.032 431.13 122.376 430.83 123.888 430.83C125.508 430.83 126.924 431.196 128.136 431.928C129.348 432.648 130.236 433.596 130.8 434.772C131.1 435.384 131.25 435.882 131.25 436.266C131.25 436.662 131.118 436.992 130.854 437.256C130.602 437.508 130.278 437.634 129.882 437.634C129.618 437.634 129.396 437.586 129.216 437.49C129.048 437.382 128.922 437.274 128.838 437.166C128.754 437.058 128.64 436.89 128.496 436.662C127.548 434.682 126.024 433.692 123.924 433.692C122.4 433.692 121.182 434.112 120.27 434.952C119.37 435.78 118.854 436.896 118.722 438.3ZM138.269 438.3C138.209 439.08 138.179 439.836 138.179 440.568C138.179 441.312 138.209 442.074 138.269 442.854C138.401 444.27 138.917 445.398 139.817 446.238C140.717 447.066 141.935 447.48 143.471 447.48C144.527 447.48 145.451 447.21 146.243 446.67C147.035 446.13 147.635 445.404 148.043 444.492C148.067 444.456 148.133 444.348 148.241 444.168C148.349 443.976 148.505 443.82 148.709 443.7C148.913 443.58 149.153 443.52 149.429 443.52C149.825 443.52 150.149 443.652 150.401 443.916C150.665 444.168 150.797 444.492 150.797 444.888C150.797 445.092 150.761 445.314 150.689 445.554C150.617 445.782 150.503 446.064 150.347 446.4C149.771 447.576 148.877 448.524 147.665 449.244C146.465 449.964 145.055 450.324 143.435 450.324C141.923 450.324 140.579 450.024 139.403 449.424C138.239 448.824 137.309 447.984 136.613 446.904C135.929 445.824 135.515 444.576 135.371 443.16C135.299 442.452 135.263 441.594 135.263 440.586C135.263 439.566 135.299 438.708 135.371 438.012C135.503 436.596 135.917 435.348 136.613 434.268C137.309 433.176 138.239 432.33 139.403 431.73C140.579 431.13 141.923 430.83 143.435 430.83C145.055 430.83 146.471 431.196 147.683 431.928C148.895 432.648 149.783 433.596 150.347 434.772C150.647 435.384 150.797 435.882 150.797 436.266C150.797 436.662 150.665 436.992 150.401 437.256C150.149 437.508 149.825 437.634 149.429 437.634C149.165 437.634 148.943 437.586 148.763 437.49C148.595 437.382 148.469 437.274 148.385 437.166C148.301 437.058 148.187 436.89 148.043 436.662C147.095 434.682 145.571 433.692 143.471 433.692C141.947 433.692 140.729 434.112 139.817 434.952C138.917 435.78 138.401 436.896 138.269 438.3ZM163.18 450.324C161.644 450.324 160.276 450.024 159.076 449.424C157.876 448.812 156.916 447.96 156.196 446.868C155.476 445.764 155.044 444.498 154.9 443.07C154.828 442.35 154.792 441.486 154.792 440.478C154.792 439.698 154.822 438.966 154.882 438.282C155.014 436.83 155.434 435.546 156.142 434.43C156.862 433.314 157.81 432.444 158.986 431.82C160.162 431.196 161.5 430.884 163 430.884C164.584 430.884 165.952 431.208 167.104 431.856C168.268 432.504 169.156 433.41 169.768 434.574C170.392 435.738 170.704 437.076 170.704 438.588V439.812C170.704 440.4 170.656 440.826 170.56 441.09C170.464 441.354 170.29 441.534 170.038 441.63C169.786 441.726 169.384 441.774 168.832 441.774H157.654C157.654 442.146 157.672 442.512 157.708 442.872C157.78 443.808 158.05 444.636 158.518 445.356C158.986 446.064 159.622 446.616 160.426 447.012C161.23 447.396 162.16 447.588 163.216 447.588C164.692 447.588 166.114 447.3 167.482 446.724C167.59 446.676 167.728 446.622 167.896 446.562C168.064 446.49 168.208 446.442 168.328 446.418C168.448 446.382 168.574 446.364 168.706 446.364C169.066 446.364 169.36 446.484 169.588 446.724C169.816 446.952 169.93 447.258 169.93 447.642C169.93 448.242 169.522 448.74 168.706 449.136C167.062 449.928 165.22 450.324 163.18 450.324ZM167.914 439.434C167.938 439.098 167.95 438.858 167.95 438.714C167.95 437.622 167.74 436.692 167.32 435.924C166.912 435.144 166.33 434.556 165.574 434.16C164.818 433.752 163.942 433.548 162.946 433.548C161.962 433.548 161.086 433.758 160.318 434.178C159.562 434.586 158.956 435.162 158.5 435.906C158.044 436.65 157.78 437.508 157.708 438.48L157.654 439.434H167.914ZM188.419 444.582C188.419 445.746 188.137 446.76 187.573 447.624C187.021 448.488 186.235 449.154 185.215 449.622C184.207 450.09 183.031 450.324 181.687 450.324C180.343 450.324 179.131 450.162 178.051 449.838C176.971 449.502 176.047 449.022 175.279 448.398C174.775 448.026 174.523 447.582 174.523 447.066C174.523 446.742 174.637 446.442 174.865 446.166C175.105 445.89 175.411 445.752 175.783 445.752C176.119 445.752 176.485 445.89 176.881 446.166C177.445 446.598 178.111 446.946 178.879 447.21C179.647 447.462 180.589 447.588 181.705 447.588C182.965 447.588 183.919 447.324 184.567 446.796C185.215 446.268 185.539 445.566 185.539 444.69C185.539 444.018 185.317 443.472 184.873 443.052C184.429 442.632 183.703 442.308 182.695 442.08L179.887 441.396C178.339 441.036 177.139 440.436 176.287 439.596C175.447 438.756 175.027 437.682 175.027 436.374C175.027 435.258 175.303 434.28 175.855 433.44C176.419 432.6 177.199 431.958 178.195 431.514C179.191 431.058 180.331 430.83 181.615 430.83C182.755 430.83 183.775 430.986 184.675 431.298C185.587 431.61 186.331 431.982 186.907 432.414C187.195 432.63 187.399 432.84 187.519 433.044C187.639 433.248 187.699 433.488 187.699 433.764C187.699 434.124 187.579 434.448 187.339 434.736C187.099 435.024 186.793 435.168 186.421 435.168C186.205 435.168 186.007 435.132 185.827 435.06C185.659 434.988 185.455 434.874 185.215 434.718C184.819 434.406 184.309 434.142 183.685 433.926C183.061 433.698 182.395 433.584 181.687 433.584C180.451 433.584 179.503 433.818 178.843 434.286C178.195 434.754 177.871 435.426 177.871 436.302C177.871 436.902 178.081 437.406 178.501 437.814C178.933 438.222 179.665 438.546 180.697 438.786L183.361 439.398C186.733 440.19 188.419 441.918 188.419 444.582ZM205.997 444.582C205.997 445.746 205.715 446.76 205.151 447.624C204.599 448.488 203.813 449.154 202.793 449.622C201.785 450.09 200.609 450.324 199.265 450.324C197.921 450.324 196.709 450.162 195.629 449.838C194.549 449.502 193.625 449.022 192.857 448.398C192.353 448.026 192.101 447.582 192.101 447.066C192.101 446.742 192.215 446.442 192.443 446.166C192.683 445.89 192.989 445.752 193.361 445.752C193.697 445.752 194.063 445.89 194.459 446.166C195.023 446.598 195.689 446.946 196.457 447.21C197.225 447.462 198.167 447.588 199.283 447.588C200.543 447.588 201.497 447.324 202.145 446.796C202.793 446.268 203.117 445.566 203.117 444.69C203.117 444.018 202.895 443.472 202.451 443.052C202.007 442.632 201.281 442.308 200.273 442.08L197.465 441.396C195.917 441.036 194.717 440.436 193.865 439.596C193.025 438.756 192.605 437.682 192.605 436.374C192.605 435.258 192.881 434.28 193.433 433.44C193.997 432.6 194.777 431.958 195.773 431.514C196.769 431.058 197.909 430.83 199.193 430.83C200.333 430.83 201.353 430.986 202.253 431.298C203.165 431.61 203.909 431.982 204.485 432.414C204.773 432.63 204.977 432.84 205.097 433.044C205.217 433.248 205.277 433.488 205.277 433.764C205.277 434.124 205.157 434.448 204.917 434.736C204.677 435.024 204.371 435.168 203.999 435.168C203.783 435.168 203.585 435.132 203.405 435.06C203.237 434.988 203.033 434.874 202.793 434.718C202.397 434.406 201.887 434.142 201.263 433.926C200.639 433.698 199.973 433.584 199.265 433.584C198.029 433.584 197.081 433.818 196.421 434.286C195.773 434.754 195.449 435.426 195.449 436.302C195.449 436.902 195.659 437.406 196.079 437.814C196.511 438.222 197.243 438.546 198.275 438.786L200.939 439.398C204.311 440.19 205.997 441.918 205.997 444.582ZM213.297 450.162C212.841 450.162 212.481 450.03 212.217 449.766C211.965 449.49 211.839 449.106 211.839 448.614V434.16H210.651C210.171 434.16 209.793 434.04 209.517 433.8C209.253 433.56 209.121 433.23 209.121 432.81C209.121 432.39 209.253 432.06 209.517 431.82C209.793 431.568 210.171 431.442 210.651 431.442H211.839V429.912C211.839 428.112 212.331 426.696 213.315 425.664C214.311 424.62 215.757 424.098 217.653 424.098C218.589 424.098 219.495 424.2 220.371 424.404C221.319 424.644 221.793 425.142 221.793 425.898C221.793 426.258 221.673 426.558 221.433 426.798C221.193 427.038 220.893 427.158 220.533 427.158C220.281 427.158 219.993 427.116 219.669 427.032C219.009 426.888 218.367 426.816 217.743 426.816C215.751 426.816 214.755 427.95 214.755 430.218V431.442H219.219C219.723 431.442 220.107 431.562 220.371 431.802C220.647 432.042 220.785 432.378 220.785 432.81C220.785 433.242 220.647 433.578 220.371 433.818C220.107 434.046 219.723 434.16 219.219 434.16H214.755V448.614C214.755 449.106 214.623 449.49 214.359 449.766C214.107 450.03 213.753 450.162 213.297 450.162ZM232.245 450.324C230.589 450.324 229.179 450.03 228.015 449.442C226.851 448.842 225.969 447.978 225.369 446.85C224.769 445.722 224.469 444.372 224.469 442.8V432.54C224.469 432.048 224.595 431.67 224.847 431.406C225.111 431.13 225.471 430.992 225.927 430.992C226.383 430.992 226.737 431.13 226.989 431.406C227.253 431.67 227.385 432.048 227.385 432.54V442.566C227.385 445.842 229.005 447.48 232.245 447.48C233.145 447.48 234.027 447.366 234.891 447.138C235.767 446.898 236.493 446.598 237.069 446.238V432.54C237.069 432.048 237.195 431.67 237.447 431.406C237.711 431.13 238.071 430.992 238.527 430.992C238.983 430.992 239.337 431.13 239.589 431.406C239.853 431.67 239.985 432.048 239.985 432.54V446.868C239.985 447.3 239.919 447.636 239.787 447.876C239.667 448.104 239.439 448.314 239.103 448.506C238.371 448.962 237.387 449.382 236.151 449.766C234.927 450.138 233.625 450.324 232.245 450.324ZM247.484 450.162C247.028 450.162 246.668 450.03 246.404 449.766C246.152 449.49 246.026 449.106 246.026 448.614V425.646C246.026 425.154 246.152 424.776 246.404 424.512C246.668 424.236 247.028 424.098 247.484 424.098C247.94 424.098 248.294 424.236 248.546 424.512C248.81 424.776 248.942 425.154 248.942 425.646V448.614C248.942 449.106 248.81 449.49 248.546 449.766C248.294 450.03 247.94 450.162 247.484 450.162ZM256.625 450.162C256.169 450.162 255.809 450.03 255.545 449.766C255.293 449.49 255.167 449.106 255.167 448.614V425.646C255.167 425.154 255.293 424.776 255.545 424.512C255.809 424.236 256.169 424.098 256.625 424.098C257.081 424.098 257.435 424.236 257.687 424.512C257.951 424.776 258.083 425.154 258.083 425.646V448.614C258.083 449.106 257.951 449.49 257.687 449.766C257.435 450.03 257.081 450.162 256.625 450.162ZM266.179 456.57C265.771 456.57 265.423 456.432 265.135 456.156C264.859 455.892 264.721 455.556 264.721 455.148C264.721 454.608 265.033 454.158 265.657 453.798C267.241 452.922 268.531 451.248 269.527 448.776L262.759 433.512C262.543 433.044 262.435 432.666 262.435 432.378C262.435 431.97 262.579 431.64 262.867 431.388C263.155 431.124 263.503 430.992 263.911 430.992C264.271 430.992 264.571 431.088 264.811 431.28C265.051 431.46 265.249 431.754 265.405 432.162L270.967 445.23C270.991 445.302 271.015 445.35 271.039 445.374C271.063 445.398 271.093 445.41 271.129 445.41C271.177 445.41 271.213 445.398 271.237 445.374C271.261 445.35 271.285 445.302 271.309 445.23L276.457 432.09C276.733 431.358 277.207 430.992 277.879 430.992C278.287 430.992 278.635 431.124 278.923 431.388C279.211 431.64 279.355 431.964 279.355 432.36C279.355 432.624 279.271 432.966 279.103 433.386L272.551 449.262C271.891 450.858 271.123 452.244 270.247 453.42C269.383 454.608 268.495 455.496 267.583 456.084C267.355 456.252 267.133 456.372 266.917 456.444C266.701 456.528 266.455 456.57 266.179 456.57ZM285.371 424.314C285.839 424.314 286.205 424.458 286.469 424.746C286.745 425.022 286.877 425.412 286.865 425.916L286.541 439.488C286.517 440.328 286.127 440.748 285.371 440.748C284.603 440.748 284.207 440.328 284.183 439.488L283.877 425.916C283.865 425.412 283.991 425.022 284.255 424.746C284.531 424.458 284.903 424.314 285.371 424.314ZM284.435 445.302C284.435 444.834 284.561 444.468 284.813 444.204C285.065 443.94 285.407 443.808 285.839 443.808C286.283 443.808 286.625 443.94 286.865 444.204C287.117 444.468 287.243 444.834 287.243 445.302V448.668C287.243 449.148 287.117 449.52 286.865 449.784C286.625 450.036 286.283 450.162 285.839 450.162C285.407 450.162 285.065 450.03 284.813 449.766C284.561 449.502 284.435 449.136 284.435 448.668V445.302Z" fill="#0B3C58"/>
<path opacity="0.44" fill-rule="evenodd" clip-rule="evenodd" d="M353 8L353.46 8.30662C354.11 8.73981 354.5 9.46907 354.5 10.25C354.5 11.0309 354.11 11.7602 353.46 12.1934L353 12.5V8ZM330 4.5H350C351.105 4.5 352 5.39543 352 6.5V14C352 15.1046 351.105 16 350 16H330C328.895 16 328 15.1046 328 14V6.5C328 5.39543 328.895 4.5 330 4.5ZM330 5.5C329.448 5.5 329 5.94772 329 6.5V14C329 14.5523 329.448 15 330 15H350C350.552 15 351 14.5523 351 14V6.5C351 5.94772 350.552 5.5 350 5.5H330Z" fill="#323232"/>
<path fill-rule="evenodd" clip-rule="evenodd" d="M331 6.5H346V14H331C330.448 14 330 13.5523 330 13V7.5C330 6.94772 330.448 6.5 331 6.5Z" fill="#323232"/>
<path d="M166.258 14.002H167.77V5.54688H166.264L164.055 7.09375V8.54688L166.158 7.07031H166.258V14.002Z" fill="#323232"/>
<path d="M173.125 14.207C175.275 14.207 176.553 12.5254 176.553 9.67773C176.553 8.60547 176.348 7.70312 175.955 7.00586C175.387 5.92188 174.408 5.33594 173.172 5.33594C171.332 5.33594 170.031 6.57227 170.031 8.30664C170.031 9.93555 171.203 11.1191 172.814 11.1191C173.805 11.1191 174.607 10.6562 175.006 9.85352H175.023C175.023 9.85352 175.047 9.85352 175.053 9.85352C175.064 9.85352 175.105 9.85352 175.105 9.85352C175.105 11.7871 174.373 12.9414 173.137 12.9414C172.41 12.9414 171.848 12.543 171.654 11.9043H170.148C170.4 13.293 171.578 14.207 173.125 14.207ZM173.178 9.91797C172.205 9.91797 171.514 9.22656 171.514 8.25977C171.514 7.31641 172.24 6.5957 173.184 6.5957C174.127 6.5957 174.854 7.32812 174.854 8.2832C174.854 9.22656 174.145 9.91797 173.178 9.91797Z" fill="#323232"/>
<path d="M179.207 13.1055C179.764 13.1055 180.145 12.707 180.145 12.1797C180.145 11.6465 179.764 11.2539 179.207 11.2539C178.656 11.2539 178.27 11.6465 178.27 12.1797C178.27 12.707 178.656 13.1055 179.207 13.1055ZM179.207 8.71094C179.764 8.71094 180.145 8.31836 180.145 7.79102C180.145 7.25781 179.764 6.86523 179.207 6.86523C178.656 6.86523 178.27 7.25781 178.27 7.79102C178.27 8.31836 178.656 8.71094 179.207 8.71094Z" fill="#323232"/>
<path d="M185.113 14.2129C187.135 14.2129 188.336 12.5723 188.336 9.77734C188.336 6.9707 187.117 5.33594 185.113 5.33594C183.104 5.33594 181.885 6.9707 181.885 9.76562C181.885 12.5723 183.086 14.2129 185.113 14.2129ZM185.113 12.959C184.041 12.959 183.414 11.8457 183.414 9.76562C183.414 7.70312 184.053 6.5957 185.113 6.5957C186.174 6.5957 186.807 7.69727 186.807 9.76562C186.807 11.8457 186.186 12.959 185.113 12.959Z" fill="#323232"/>
<path d="M189.906 8.01953V8.04297H191.324V8.01953C191.324 7.1582 191.922 6.57812 192.807 6.57812C193.639 6.57812 194.248 7.11719 194.248 7.86133C194.248 8.45898 193.961 8.89844 192.807 10.0703L189.988 12.9531V14.002H195.859V12.7188H192.062V12.6191L193.832 10.8438C195.268 9.42578 195.73 8.67578 195.73 7.76758C195.73 6.35547 194.523 5.33594 192.854 5.33594C191.119 5.33594 189.906 6.4375 189.906 8.01953Z" fill="#323232"/>
<path d="M9 10.5C9.55228 10.5 10 10.9477 10 11.5V14C10 14.5523 9.55228 15 9 15H8C7.44772 15 7 14.5523 7 14V11.5C7 10.9477 7.44772 10.5 8 10.5H9ZM13.5 9C14.0523 9 14.5 9.44772 14.5 10V14C14.5 14.5523 14.0523 15 13.5 15H12.5C11.9477 15 11.5 14.5523 11.5 14V10C11.5 9.44772 11.9477 9 12.5 9H13.5ZM18 7C18.5523 7 19 7.44772 19 8V14C19 14.5523 18.5523 15 18 15H17C16.4477 15 16 14.5523 16 14V8C16 7.44772 16.4477 7 17 7H18ZM22.5 5C23.0523 5 23.5 5.44772 23.5 6V14C23.5 14.5523 23.0523 15 22.5 15H21.5C20.9477 15 20.5 14.5523 20.5 14V6C20.5 5.44772 20.9477 5 21.5 5H22.5Z" fill="#323232"/>
<path d="M31.328 15.108C30.648 15.108 30.036 15.02 29.492 14.844C28.948 14.668 28.476 14.42 28.076 14.1L28.46 13.212C28.74 13.42 29.024 13.596 29.312 13.74C29.6 13.876 29.908 13.98 30.236 14.052C30.572 14.116 30.936 14.148 31.328 14.148C32.024 14.148 32.536 14.024 32.864 13.776C33.2 13.52 33.368 13.184 33.368 12.768C33.368 12.408 33.252 12.132 33.02 11.94C32.788 11.748 32.384 11.596 31.808 11.484L30.524 11.22C29.748 11.06 29.168 10.8 28.784 10.44C28.408 10.072 28.22 9.576 28.22 8.952C28.22 8.448 28.352 8.008 28.616 7.632C28.888 7.248 29.26 6.952 29.732 6.744C30.212 6.536 30.772 6.432 31.412 6.432C32.004 6.432 32.552 6.52 33.056 6.696C33.56 6.872 33.984 7.132 34.328 7.476L33.944 8.328C33.584 8 33.196 7.764 32.78 7.62C32.372 7.468 31.908 7.392 31.388 7.392C30.756 7.392 30.256 7.528 29.888 7.8C29.52 8.072 29.336 8.44 29.336 8.904C29.336 9.272 29.452 9.564 29.684 9.78C29.916 9.988 30.3 10.148 30.836 10.26L32.12 10.512C32.936 10.672 33.532 10.924 33.908 11.268C34.292 11.612 34.484 12.088 34.484 12.696C34.484 13.176 34.356 13.6 34.1 13.968C33.844 14.328 33.48 14.608 33.008 14.808C32.536 15.008 31.976 15.108 31.328 15.108ZM38.5752 15.108C37.6152 15.108 36.8552 14.832 36.2952 14.28C35.7432 13.728 35.4672 12.968 35.4672 12C35.4672 11.36 35.5872 10.808 35.8272 10.344C36.0752 9.872 36.4152 9.508 36.8472 9.252C37.2792 8.988 37.7832 8.856 38.3592 8.856C38.9112 8.856 39.3792 8.976 39.7632 9.216C40.1472 9.448 40.4392 9.78 40.6392 10.212C40.8392 10.644 40.9392 11.156 40.9392 11.748V12.108H36.3192V11.46H40.1952L39.9912 11.616C39.9912 10.992 39.8512 10.508 39.5712 10.164C39.2992 9.82 38.8952 9.648 38.3592 9.648C37.7752 9.648 37.3232 9.852 37.0032 10.26C36.6832 10.66 36.5232 11.208 36.5232 11.904V12.012C36.5232 12.748 36.7032 13.304 37.0632 13.68C37.4312 14.056 37.9392 14.244 38.5872 14.244C38.9472 14.244 39.2832 14.192 39.5952 14.088C39.9072 13.984 40.2072 13.812 40.4952 13.572L40.8552 14.328C40.5832 14.576 40.2432 14.768 39.8352 14.904C39.4352 15.04 39.0152 15.108 38.5752 15.108ZM42.2342 15V10.44C42.2342 10.2 42.2262 9.956 42.2102 9.708C42.2022 9.452 42.1822 9.204 42.1502 8.964H43.2062L43.3382 10.476L43.1582 10.488C43.2382 10.12 43.3742 9.816 43.5662 9.576C43.7662 9.328 44.0022 9.148 44.2742 9.036C44.5542 8.916 44.8422 8.856 45.1382 8.856C45.2662 8.856 45.3742 8.86 45.4622 8.868C45.5502 8.876 45.6382 8.896 45.7262 8.928L45.7022 9.9C45.5822 9.852 45.4702 9.824 45.3662 9.816C45.2702 9.8 45.1502 9.792 45.0062 9.792C44.6542 9.792 44.3502 9.872 44.0942 10.032C43.8462 10.192 43.6542 10.404 43.5182 10.668C43.3902 10.932 43.3262 11.216 43.3262 11.52V15H42.2342ZM48.7069 15L46.1269 8.964H47.3029L49.4029 14.148H49.0669L51.2029 8.964H52.3189L49.7269 15H48.7069ZM53.2211 15V8.964H54.3131V15H53.2211ZM53.1251 7.644V6.468H54.4211V7.644H53.1251ZM58.611 15.108C58.011 15.108 57.491 14.984 57.051 14.736C56.611 14.48 56.267 14.116 56.019 13.644C55.779 13.164 55.659 12.596 55.659 11.94C55.659 11.292 55.783 10.74 56.031 10.284C56.279 9.82 56.623 9.468 57.063 9.228C57.503 8.98 58.019 8.856 58.611 8.856C59.003 8.856 59.383 8.924 59.751 9.06C60.119 9.188 60.419 9.376 60.651 9.624L60.279 10.392C60.047 10.168 59.791 10.004 59.511 9.9C59.231 9.788 58.955 9.732 58.683 9.732C58.091 9.732 57.627 9.924 57.291 10.308C56.955 10.684 56.787 11.232 56.787 11.952C56.787 12.68 56.955 13.24 57.291 13.632C57.627 14.024 58.091 14.22 58.683 14.22C58.947 14.22 59.219 14.168 59.499 14.064C59.779 13.96 60.039 13.796 60.279 13.572L60.651 14.328C60.411 14.584 60.103 14.78 59.727 14.916C59.359 15.044 58.987 15.108 58.611 15.108ZM64.4947 15.108C63.5347 15.108 62.7747 14.832 62.2147 14.28C61.6627 13.728 61.3867 12.968 61.3867 12C61.3867 11.36 61.5067 10.808 61.7467 10.344C61.9947 9.872 62.3347 9.508 62.7667 9.252C63.1987 8.988 63.7027 8.856 64.2787 8.856C64.8307 8.856 65.2987 8.976 65.6827 9.216C66.0667 9.448 66.3587 9.78 66.5587 10.212C66.7587 10.644 66.8587 11.156 66.8587 11.748V12.108H62.2387V11.46H66.1147L65.9107 11.616C65.9107 10.992 65.7707 10.508 65.4907 10.164C65.2187 9.82 64.8147 9.648 64.2787 9.648C63.6947 9.648 63.2427 9.852 62.9227 10.26C62.6027 10.66 62.4427 11.208 62.4427 11.904V12.012C62.4427 12.748 62.6227 13.304 62.9827 13.68C63.3507 14.056 63.8587 14.244 64.5067 14.244C64.8667 14.244 65.2027 14.192 65.5147 14.088C65.8267 13.984 66.1267 13.812 66.4147 13.572L66.7747 14.328C66.5027 14.576 66.1627 14.768 65.7547 14.904C65.3547 15.04 64.9347 15.108 64.4947 15.108Z" fill="#323232"/>
<path d="M79.8081 6.49216C82.2189 6.49226 84.5375 7.42402 86.2846 9.09485C86.4162 9.22384 86.6265 9.22222 86.7561 9.0912L88.0137 7.81448C88.0793 7.74803 88.1159 7.65802 88.1154 7.56436C88.1148 7.47071 88.0772 7.38114 88.0108 7.31546C83.4251 2.89485 76.1905 2.89485 71.6047 7.31546C71.5383 7.38109 71.5006 7.47063 71.5 7.56429C71.4994 7.65794 71.5359 7.74798 71.6015 7.81448L72.8595 9.0912C72.989 9.22241 73.1994 9.22404 73.3309 9.09485C75.0783 7.42391 77.3972 6.49215 79.8081 6.49216ZM79.8081 10.6459C81.1327 10.6458 82.41 11.141 83.3918 12.0353C83.5246 12.1622 83.7338 12.1595 83.8632 12.0291L85.1195 10.7524C85.1856 10.6854 85.2223 10.5946 85.2214 10.5002C85.2204 10.4058 85.1819 10.3157 85.1144 10.2501C82.1245 7.45256 77.4943 7.45256 74.5045 10.2501C74.4369 10.3157 74.3984 10.4058 74.3975 10.5003C74.3966 10.5947 74.4334 10.6855 74.4997 10.7524L75.7556 12.0291C75.885 12.1595 76.0942 12.1622 76.227 12.0353C77.2082 11.1416 78.4845 10.6464 79.8081 10.6459ZM82.2223 13.6929C82.2895 13.6266 82.3265 13.5353 82.3245 13.4406C82.3226 13.3459 82.2819 13.2563 82.2121 13.1928C80.8244 12.0121 78.7919 12.0121 77.4042 13.1928C77.3343 13.2562 77.2936 13.3459 77.2916 13.4405C77.2896 13.5352 77.3265 13.6265 77.3937 13.6929L79.567 15.8987C79.6307 15.9635 79.7175 16 79.8081 16C79.8988 16 79.9856 15.9635 80.0493 15.8987L82.2223 13.6929Z" fill="#323232"/>
</g>
<defs>
<filter id="filter0_d_2141_639241" x="71.475" y="637.983" width="402.491" height="434.534" filterUnits="userSpaceOnUse" color-interpolation-filters="sRGB">
<feFlood flood-opacity="0" result="BackgroundImageFix"/>
<feColorMatrix in="SourceAlpha" type="matrix" values="0 0 0 0 0 0 0 0 0 0 0 0 0 0 0 0 0 0 127 0" result="hardAlpha"/>
<feOffset dx="7.1718" dy="7.1718"/>
<feGaussianBlur stdDeviation="5.02026"/>
<feColorMatrix type="matrix" values="0 0 0 0 0 0 0 0 0 0 0 0 0 0 0 0 0 0 0.15 0"/>
<feBlend mode="normal" in2="BackgroundImageFix" result="effect1_dropShadow_2141_639241"/>
<feBlend mode="normal" in="SourceGraphic" in2="effect1_dropShadow_2141_639241" result="shape"/>
</filter>
<filter id="filter1_dd_2141_639241" x="168.777" y="669.914" width="57.4817" height="70.9231" filterUnits="userSpaceOnUse" color-interpolation-filters="sRGB">
<feFlood flood-opacity="0" result="BackgroundImageFix"/>
<feColorMatrix in="SourceAlpha" type="matrix" values="0 0 0 0 0 0 0 0 0 0 0 0 0 0 0 0 0 0 127 0" result="hardAlpha"/>
<feOffset dy="1.24227"/>
<feGaussianBlur stdDeviation="1.8634"/>
<feComposite in2="hardAlpha" operator="out"/>
<feColorMatrix type="matrix" values="0 0 0 0 0 0 0 0 0 0 0 0 0 0 0 0 0 0 0.3 0"/>
<feBlend mode="normal" in2="BackgroundImageFix" result="effect1_dropShadow_2141_639241"/>
<feColorMatrix in="SourceAlpha" type="matrix" values="0 0 0 0 0 0 0 0 0 0 0 0 0 0 0 0 0 0 127 0" result="hardAlpha"/>
<feOffset dy="3.7268"/>
<feGaussianBlur stdDeviation="4.96906"/>
<feComposite in2="hardAlpha" operator="out"/>
<feColorMatrix type="matrix" values="0 0 0 0 0 0 0 0 0 0 0 0 0 0 0 0 0 0 0.15 0"/>
<feBlend mode="normal" in2="effect1_dropShadow_2141_639241" result="effect2_dropShadow_2141_639241"/>
<feBlend mode="normal" in="SourceGraphic" in2="effect2_dropShadow_2141_639241" result="shape"/>
</filter>
<filter id="filter2_dd_2141_639241" x="180.062" y="665.593" width="49.1067" height="69.9622" filterUnits="userSpaceOnUse" color-interpolation-filters="sRGB">
<feFlood flood-opacity="0" result="BackgroundImageFix"/>
<feColorMatrix in="SourceAlpha" type="matrix" values="0 0 0 0 0 0 0 0 0 0 0 0 0 0 0 0 0 0 127 0" result="hardAlpha"/>
<feOffset dy="1.24227"/>
<feGaussianBlur stdDeviation="1.8634"/>
<feComposite in2="hardAlpha" operator="out"/>
<feColorMatrix type="matrix" values="0 0 0 0 0 0 0 0 0 0 0 0 0 0 0 0 0 0 0.3 0"/>
<feBlend mode="normal" in2="BackgroundImageFix" result="effect1_dropShadow_2141_639241"/>
<feColorMatrix in="SourceAlpha" type="matrix" values="0 0 0 0 0 0 0 0 0 0 0 0 0 0 0 0 0 0 127 0" result="hardAlpha"/>
<feOffset dy="3.7268"/>
<feGaussianBlur stdDeviation="4.96906"/>
<feComposite in2="hardAlpha" operator="out"/>
<feColorMatrix type="matrix" values="0 0 0 0 0 0 0 0 0 0 0 0 0 0 0 0 0 0 0.15 0"/>
<feBlend mode="normal" in2="effect1_dropShadow_2141_639241" result="effect2_dropShadow_2141_639241"/>
<feBlend mode="normal" in="SourceGraphic" in2="effect2_dropShadow_2141_639241" result="shape"/>
</filter>
<filter id="filter3_d_2141_639241" x="65.2328" y="693.725" width="370.554" height="357.964" filterUnits="userSpaceOnUse" color-interpolation-filters="sRGB">
<feFlood flood-opacity="0" result="BackgroundImageFix"/>
<feColorMatrix in="SourceAlpha" type="matrix" values="0 0 0 0 0 0 0 0 0 0 0 0 0 0 0 0 0 0 127 0" result="hardAlpha"/>
<feOffset dx="7.1718" dy="7.1718"/>
<feGaussianBlur stdDeviation="5.02026"/>
<feColorMatrix type="matrix" values="0 0 0 0 0 0 0 0 0 0 0 0 0 0 0 0 0 0 0.15 0"/>
<feBlend mode="normal" in2="BackgroundImageFix" result="effect1_dropShadow_2141_639241"/>
<feBlend mode="normal" in="SourceGraphic" in2="effect1_dropShadow_2141_639241" result="shape"/>
</filter>
<filter id="filter4_d_2141_639241" x="128.866" y="659.553" width="299.554" height="339.175" filterUnits="userSpaceOnUse" color-interpolation-filters="sRGB">
<feFlood flood-opacity="0" result="BackgroundImageFix"/>
<feColorMatrix in="SourceAlpha" type="matrix" values="0 0 0 0 0 0 0 0 0 0 0 0 0 0 0 0 0 0 127 0" result="hardAlpha"/>
<feOffset dx="7.1718" dy="7.1718"/>
<feGaussianBlur stdDeviation="5.02026"/>
<feColorMatrix type="matrix" values="0 0 0 0 0 0 0 0 0 0 0 0 0 0 0 0 0 0 0.15 0"/>
<feBlend mode="normal" in2="BackgroundImageFix" result="effect1_dropShadow_2141_639241"/>
<feBlend mode="normal" in="SourceGraphic" in2="effect1_dropShadow_2141_639241" result="shape"/>
</filter>
<filter id="filter5_d_2141_639241" x="157.538" y="750.733" width="220.894" height="219.542" filterUnits="userSpaceOnUse" color-interpolation-filters="sRGB">
<feFlood flood-opacity="0" result="BackgroundImageFix"/>
<feColorMatrix in="SourceAlpha" type="matrix" values="0 0 0 0 0 0 0 0 0 0 0 0 0 0 0 0 0 0 127 0" result="hardAlpha"/>
<feOffset dx="7.1718" dy="7.1718"/>
<feGaussianBlur stdDeviation="5.02026"/>
<feColorMatrix type="matrix" values="0 0 0 0 0 0 0 0 0 0 0 0 0 0 0 0 0 0 0.15 0"/>
<feBlend mode="normal" in2="BackgroundImageFix" result="effect1_dropShadow_2141_639241"/>
<feBlend mode="normal" in="SourceGraphic" in2="effect1_dropShadow_2141_639241" result="shape"/>
</filter>
<filter id="filter6_f_2141_639241" x="76.0771" y="56.0771" width="207.846" height="207.846" filterUnits="userSpaceOnUse" color-interpolation-filters="sRGB">
<feFlood flood-opacity="0" result="BackgroundImageFix"/>
<feBlend mode="normal" in="SourceGraphic" in2="BackgroundImageFix" result="shape"/>
<feGaussianBlur stdDeviation="11.9614" result="effect1_foregroundBlur_2141_639241"/>
</filter>
<filter id="filter7_d_2141_639241" x="161.586" y="158.029" width="34.2924" height="34.2104" filterUnits="userSpaceOnUse" color-interpolation-filters="sRGB">
<feFlood flood-opacity="0" result="BackgroundImageFix"/>
<feColorMatrix in="SourceAlpha" type="matrix" values="0 0 0 0 0 0 0 0 0 0 0 0 0 0 0 0 0 0 127 0" result="hardAlpha"/>
<feOffset dy="1.32212"/>
<feGaussianBlur stdDeviation="1.32212"/>
<feComposite in2="hardAlpha" operator="out"/>
<feColorMatrix type="matrix" values="0 0 0 0 0 0 0 0 0 0 0 0 0 0 0 0 0 0 0.12 0"/>
<feBlend mode="normal" in2="BackgroundImageFix" result="effect1_dropShadow_2141_639241"/>
<feBlend mode="normal" in="SourceGraphic" in2="effect1_dropShadow_2141_639241" result="shape"/>
</filter>
<linearGradient id="paint0_linear_2141_639241" x1="200.625" y1="800.001" x2="200.628" y2="-1.10117e-05" gradientUnits="userSpaceOnUse">
<stop stop-color="#F0F0E0"/>
<stop offset="1" stop-color="#ACDADB"/>
</linearGradient>
<clipPath id="clip0_2141_639241">
<rect width="360" height="800" fill="white"/>
</clipPath>
<clipPath id="clip1_2141_639241">
<rect width="442.147" height="439.177" fill="white" transform="translate(40 633)"/>
</clipPath>
</defs>
</svg>
