<svg width="12" height="12" viewBox="0 0 12 12" fill="none" xmlns="http://www.w3.org/2000/svg">
<path fill-rule="evenodd" clip-rule="evenodd" d="M3.44949 10.7468C4.27709 11.0191 5.15267 11.1145 6.01949 11.0268C7.04709 10.9937 8.04456 10.6717 8.89751 10.0977C9.75046 9.5236 10.4244 8.72078 10.8419 7.78126C11.2595 6.84174 11.4038 5.80356 11.2583 4.78577C11.1129 3.76798 10.6835 2.81179 10.0195 2.02685C9.44481 1.34604 8.71879 0.809156 7.89949 0.459131C7.0802 0.109107 6.19037 -0.0443453 5.30116 0.011048C4.41195 0.0664413 3.54804 0.329142 2.77853 0.778142C2.00901 1.22714 1.35523 1.84998 0.869489 2.59685C-0.740511 4.98685 0.0894883 8.48685 1.69949 9.52685C1.73232 9.54917 1.76923 9.56481 1.8081 9.57287C1.84698 9.58094 1.88706 9.58126 1.92606 9.57383C1.96506 9.5664 2.00221 9.55137 2.0354 9.52958C2.06859 9.50779 2.09716 9.47968 2.11949 9.44685C2.14181 9.41402 2.15745 9.37711 2.16551 9.33824C2.17358 9.29936 2.1739 9.25928 2.16647 9.22028C2.15904 9.18128 2.14401 9.14412 2.12222 9.11093C2.10043 9.07775 2.07232 9.04917 2.03949 9.02685C0.759489 8.12685 0.179489 5.02685 1.62949 3.13685C2.04896 2.54788 2.59608 2.0613 3.22998 1.71343C3.86388 1.36556 4.56818 1.16541 5.29029 1.12791C6.01239 1.09041 6.73364 1.21653 7.40016 1.49687C8.06669 1.7772 8.66126 2.2045 9.13949 2.74685C11.5195 5.56685 10.1395 9.82685 5.92949 10.3168C5.16338 10.4246 4.38318 10.3701 3.63949 10.1568C3.59736 10.1187 3.54635 10.0918 3.49113 10.0785C3.43591 10.0651 3.37822 10.0659 3.32335 10.0806C3.26848 10.0953 3.21817 10.1235 3.17702 10.1627C3.13586 10.2018 3.10518 10.2507 3.08777 10.3048C3.07035 10.3588 3.06676 10.4164 3.07733 10.4722C3.0879 10.5281 3.11228 10.5803 3.14826 10.6243C3.18423 10.6683 3.23065 10.7025 3.28327 10.7239C3.33589 10.7453 3.39304 10.7532 3.44949 10.7468Z" fill="black"/>
<path fill-rule="evenodd" clip-rule="evenodd" d="M5.15948 5.08685C4.33792 5.15501 3.52822 5.32636 2.74948 5.59685C2.71074 5.60407 2.6738 5.61885 2.64077 5.64035C2.60775 5.66185 2.57928 5.68964 2.55699 5.72214C2.5347 5.75464 2.51904 5.79121 2.51089 5.82977C2.50273 5.86832 2.50226 5.90811 2.50948 5.94685C2.52406 6.02509 2.56913 6.09433 2.63477 6.13933C2.66727 6.16162 2.70384 6.17729 2.7424 6.18544C2.78095 6.19359 2.82074 6.19407 2.85948 6.18685H5.15948C5.22125 6.89216 5.22125 7.60153 5.15948 8.30685C5.13814 8.3505 5.12641 8.39822 5.12507 8.44679C5.12373 8.49536 5.13282 8.54366 5.15172 8.58842C5.17062 8.63318 5.19889 8.67337 5.23464 8.70628C5.27038 8.7392 5.31277 8.76406 5.35894 8.77921C5.4051 8.79436 5.45398 8.79944 5.50228 8.7941C5.55057 8.78877 5.59716 8.77314 5.63891 8.74828C5.68066 8.72342 5.71659 8.68989 5.74429 8.64997C5.77199 8.61005 5.79081 8.56466 5.79948 8.51685C6.06397 7.75639 6.21558 6.96127 6.24948 6.15685C6.94494 6.09897 7.64401 6.09897 8.33948 6.15685C8.4233 6.16754 8.50809 6.14664 8.57734 6.09822C8.64659 6.0498 8.69533 5.97733 8.71405 5.89493C8.73278 5.81254 8.72015 5.72612 8.67864 5.65252C8.63712 5.57893 8.56968 5.52343 8.48948 5.49685C7.83926 5.28955 7.16881 5.15211 6.48948 5.08685C6.24948 5.08685 6.30948 5.08685 6.29948 4.95685C6.24011 4.2053 6.13996 3.45753 5.99948 2.71685C5.99948 2.71685 5.99948 2.15685 5.75948 2.11685C5.51948 2.07685 5.33948 2.23685 5.38948 2.71685C5.25948 4.07685 5.19948 3.92685 5.15948 5.08685Z" fill="black"/>
</svg>
