<svg width="24" height="24" viewBox="0 0 24 24" fill="none" xmlns="http://www.w3.org/2000/svg">
<g clip-path="url(#clip0_1030_2179)">
<path fill-rule="evenodd" clip-rule="evenodd" d="M24 12.38C24.0389 11.8876 23.9846 11.3923 23.84 10.92C23.3804 10.1168 22.7849 9.39955 22.08 8.79999C20.59 7.41999 18.56 6.07999 17.44 4.99999L13.82 1.50999C13.73 1.42999 13.06 0.729988 12.77 0.509988C12.6629 0.401068 12.5278 0.323828 12.3796 0.286775C12.2314 0.249722 12.0758 0.254294 11.93 0.299988C11.5678 0.476892 11.2314 0.702297 10.93 0.969988C10.33 1.49999 9.75001 2.20999 9.26001 2.64999C8.19001 3.64999 7.12001 4.56999 6.09001 5.54999C5.06001 6.52999 4.02001 7.54999 3.09001 8.61999C2.48001 9.20999 1.60001 9.99999 1.00001 10.73C0.666316 11.1015 0.405148 11.5323 0.230013 12C-0.00537355 13.8433 -0.0823219 15.7035 1.28299e-05 17.56C0.00166858 19.4029 0.155525 21.2424 0.460013 23.06C0.47812 23.1195 0.511753 23.1731 0.557451 23.2153C0.603149 23.2574 0.659261 23.2867 0.720013 23.3C0.743006 23.3809 0.793599 23.4512 0.863012 23.4987C0.932426 23.5462 1.01628 23.5679 1.10001 23.56C3.82016 23.4505 6.54426 23.4906 9.26001 23.68C11.11 23.75 12.99 23.76 14.76 23.74C16.7462 23.7432 18.7304 23.6162 20.7 23.36C20.8019 23.3475 20.8947 23.2953 20.9583 23.2148C21.0219 23.1343 21.0513 23.032 21.04 22.93C21.0274 22.8274 20.9757 22.7337 20.8955 22.6684C20.8153 22.6032 20.713 22.5715 20.61 22.58C17.883 22.6856 15.1523 22.6422 12.43 22.45C11.34 22.45 10.23 22.38 9.14001 22.37H6.93001C4.98841 22.3982 3.05082 22.5552 1.13001 22.84C0.889621 21.0842 0.795964 19.3114 0.850013 17.54C0.818743 15.7806 0.929099 14.0216 1.18001 12.28C1.37541 11.8437 1.65393 11.4497 2.00001 11.12C2.60001 10.5 3.35001 9.90999 3.84001 9.40999C4.63001 8.60999 5.46001 7.82999 6.29001 7.05999C7.59001 5.89999 8.86001 4.76999 10.14 3.62999C10.64 3.19999 11.21 2.49999 11.81 1.96999C11.9164 1.87156 12.03 1.78131 12.15 1.69999C12.45 1.98999 12.83 2.39999 12.89 2.45999L16.57 5.99999C17.73 6.99999 19.78 8.34999 21.32 9.68999C21.9381 10.1858 22.4658 10.7846 22.88 11.46C23.002 12.1702 23.0222 12.8941 22.94 13.61C22.88 16.47 22.55 21.06 22.71 23.37C22.7201 23.4734 22.7691 23.5691 22.8471 23.6378C22.925 23.7065 23.0262 23.743 23.13 23.74C23.1826 23.7374 23.2341 23.7245 23.2816 23.702C23.3292 23.6795 23.3719 23.6478 23.4072 23.6088C23.4425 23.5698 23.4697 23.5242 23.4874 23.4747C23.505 23.4251 23.5127 23.3725 23.51 23.32C23.37 20.61 24 14.92 24 12.38Z" fill="black"/>
<path d="M13.57 22.17C13.6615 22.2456 13.7764 22.287 13.895 22.287C14.0137 22.287 14.1286 22.2456 14.22 22.17C14.4037 20.6439 14.4806 19.1068 14.45 17.57C14.4794 17.0504 14.4794 16.5296 14.45 16.01C14.4075 15.6224 14.3029 15.2443 14.14 14.89C14.0337 14.7137 13.8882 14.5642 13.7148 14.4532C13.5414 14.3422 13.3447 14.2727 13.14 14.25C12.5476 14.2044 11.9525 14.2044 11.36 14.25C10.8114 14.1958 10.2587 14.1958 9.71004 14.25C9.39426 14.3115 9.10075 14.4565 8.86004 14.67C8.69922 14.835 8.60031 15.0505 8.58004 15.28C8.51004 15.71 8.24004 20.96 8.37004 21.45C8.40035 21.5516 8.46714 21.6385 8.55758 21.6938C8.64803 21.7492 8.75575 21.7692 8.86004 21.75C9.44004 21.64 9.50004 15.42 9.67004 15.4H11.35C11.7 15.4 12.08 15.34 12.56 15.34C12.776 15.3469 12.9906 15.377 13.2 15.43C13.2971 15.6674 13.3773 15.9113 13.44 16.16C13.5113 16.6304 13.5547 17.1045 13.57 17.58C13.62 18.58 13.57 19.37 13.57 20.25C13.48 20.55 13.38 22 13.57 22.17Z" fill="black"/>
</g>
<defs>
<clipPath id="clip0_1030_2179">
<rect width="24" height="24" fill="white"/>
</clipPath>
</defs>
</svg>
