<svg width="360" height="800" viewBox="0 0 360 800" fill="none" xmlns="http://www.w3.org/2000/svg">
<g clip-path="url(#clip0_2141_637991)">
<rect width="360" height="800" fill="url(#paint0_linear_2141_637991)"/>
<path d="M39.3008 50.0049C39.3006 50.4465 38.9426 50.8046 38.501 50.8047L23.5762 50.8047C23.6481 50.9661 23.7667 51.1539 23.9697 51.4072C24.2434 51.7486 24.6262 52.156 25.1797 52.7441L30.084 57.9551C30.3863 58.2768 30.3702 58.7832 30.0488 59.0859C29.7271 59.3883 29.2206 59.3724 28.918 59.0508L24.0146 53.8408C23.4785 53.2711 23.0434 52.8099 22.7207 52.4072C22.3922 51.9973 22.1378 51.5978 21.9932 51.1338C21.7638 50.3977 21.7638 49.6082 21.9932 48.8721C22.1378 48.4082 22.3922 48.0085 22.7207 47.5986C23.0434 47.1961 23.4785 46.7346 24.0146 46.165L28.918 40.9551C29.2207 40.6337 29.7271 40.6176 30.0488 40.9199C30.3703 41.2225 30.3862 41.729 30.084 42.0508L25.1797 47.2617C24.6263 47.8497 24.2434 48.2573 23.9697 48.5986C23.7653 48.8536 23.647 49.0429 23.5752 49.2051L38.501 49.2051C38.9427 49.2052 39.3008 49.5631 39.3008 50.0049Z" fill="#6D8A9B"/>
<path d="M63.527 108.438C63.78 108.702 63.901 108.966 63.901 109.241C63.901 109.736 63.549 110.099 63.043 110.099C62.746 110.099 62.493 109.989 62.24 109.736L55.717 103.466C55.332 103.081 55.321 103.081 54.463 103.081V109.12C54.463 109.747 54.111 110.099 53.55 110.099C52.978 110.099 52.626 109.747 52.626 109.12V95.282C52.626 94.655 52.978 94.303 53.55 94.303C54.111 94.303 54.463 94.655 54.463 95.282V101.321C55.288 101.321 55.299 101.321 55.739 100.881L62.097 94.666C62.339 94.413 62.581 94.303 62.856 94.303C63.384 94.303 63.714 94.677 63.714 95.139C63.714 95.425 63.615 95.656 63.351 95.92L56.927 102.113L63.527 108.438ZM67.3128 94.248C67.9838 94.248 68.4788 94.743 68.4788 95.403C68.4788 96.074 67.9838 96.58 67.3128 96.58C66.6638 96.58 66.1688 96.074 66.1688 95.403C66.1688 94.743 66.6638 94.248 67.3128 94.248ZM66.4328 109.153V99.33C66.4328 98.725 66.7738 98.384 67.3238 98.384C67.8848 98.384 68.2148 98.725 68.2148 99.33V109.153C68.2148 109.758 67.8848 110.099 67.3238 110.099C66.7738 110.099 66.4328 109.758 66.4328 109.153ZM73.3062 102.85C73.2292 103.708 73.2292 104.775 73.3062 105.633C73.4602 107.316 74.5712 108.46 76.4852 108.46C77.8052 108.46 78.7952 107.723 79.2792 106.634C79.4002 106.436 79.5762 106.051 80.1042 106.04C80.5992 106.029 80.9622 106.381 80.9622 106.876C80.9622 107.14 80.8742 107.404 80.6872 107.8C80.0162 109.186 78.5092 110.198 76.4632 110.198C73.6362 110.198 71.7882 108.405 71.5352 105.82C71.4472 104.962 71.4472 103.543 71.5352 102.674C71.7772 100.078 73.6362 98.285 76.4632 98.285C78.5092 98.285 80.0272 99.308 80.6872 100.694C80.8742 101.079 80.9622 101.365 80.9622 101.607C80.9622 102.102 80.5992 102.454 80.1042 102.443C79.5982 102.443 79.4222 102.08 79.2792 101.849C78.7182 100.683 77.8162 100.034 76.4852 100.034C74.5932 100.034 73.4602 101.167 73.3062 102.85ZM92.7535 108.493C92.9955 108.746 93.1055 108.999 93.1055 109.285C93.1055 109.758 92.7645 110.099 92.2695 110.099C91.9725 110.099 91.6975 109.989 91.4665 109.725L87.3415 105.512C86.8465 104.995 86.8135 104.984 86.0985 104.984H85.7135V109.076C85.7135 109.681 85.3725 110.022 84.8225 110.022C84.2615 110.022 83.9315 109.681 83.9315 109.076V95.117C83.9315 94.512 84.2615 94.171 84.8225 94.171C85.3725 94.171 85.7135 94.512 85.7135 95.117V103.235H86.0985C86.6705 103.235 86.7035 103.224 87.2425 102.696L91.3675 98.747C91.6205 98.494 91.8405 98.384 92.1265 98.384C92.6545 98.384 92.9845 98.758 92.9845 99.22C92.9845 99.528 92.8415 99.781 92.5885 100.023L88.3645 104.038L92.7535 108.493ZM103.374 106.689C103.374 108.845 101.735 110.198 99.2595 110.198C97.5985 110.198 96.2675 109.769 95.3435 109.021C94.9805 108.757 94.8815 108.471 94.8815 108.207C94.8815 107.844 95.1675 107.404 95.6515 107.404C95.8935 107.404 96.1025 107.503 96.3225 107.657C96.9165 108.108 97.7745 108.526 99.2705 108.526C100.855 108.526 101.614 107.789 101.614 106.755C101.614 105.952 101.13 105.446 99.8755 105.16L98.1595 104.742C96.3115 104.313 95.1895 103.312 95.1895 101.673C95.1895 99.594 96.8505 98.285 99.2155 98.285C100.745 98.285 101.867 98.813 102.45 99.253C102.802 99.517 102.934 99.737 102.934 100.078C102.934 100.485 102.626 100.936 102.153 100.936C101.878 100.936 101.68 100.837 101.416 100.661C100.998 100.342 100.206 99.968 99.2595 99.968C97.7525 99.968 96.9275 100.562 96.9275 101.629C96.9275 102.322 97.3345 102.839 98.6545 103.147L100.283 103.521C102.406 104.016 103.374 105.094 103.374 106.689ZM107.197 95.931C107.747 95.931 108.088 96.283 108.088 96.877V98.483H111.377C112.037 98.483 112.367 98.802 112.367 99.33C112.367 99.858 112.037 100.177 111.377 100.177H108.088V106.612C108.088 107.877 108.638 108.482 109.826 108.482C110.53 108.482 111.014 108.328 111.41 108.185C111.619 108.108 111.773 108.042 111.993 108.042C112.389 108.042 112.752 108.372 112.752 108.867C112.752 109.329 112.488 109.582 112.015 109.769C111.355 110.022 110.607 110.198 109.738 110.198C107.648 110.198 106.306 108.944 106.306 106.766V96.877C106.306 96.283 106.636 95.931 107.197 95.931ZM118.527 110.198C115.821 110.198 114.171 108.702 114.171 106.513C114.171 104.643 115.634 102.971 118.549 102.971C119.583 102.971 120.463 103.092 121.64 103.433V102.399C121.64 100.738 120.782 99.968 118.857 99.968C117.922 99.968 116.965 100.243 116.437 100.463C116.195 100.573 115.953 100.65 115.744 100.65C115.315 100.65 114.974 100.309 114.963 99.858C114.952 99.44 115.183 99.176 115.711 98.956C116.426 98.637 117.691 98.285 119.022 98.285C121.761 98.285 123.378 99.583 123.378 102.388V108.262C123.378 108.636 123.301 108.801 123.026 108.988C122.388 109.439 120.716 110.198 118.527 110.198ZM115.909 106.524C115.909 107.844 116.943 108.603 118.725 108.603C119.748 108.603 120.837 108.295 121.64 107.866V104.918C120.518 104.588 119.693 104.445 118.725 104.445C116.811 104.445 115.909 105.336 115.909 106.524ZM127.692 110.099C127.142 110.099 126.812 109.758 126.812 109.153V101.86C126.812 99.616 128.143 98.285 130.398 98.285C131.179 98.285 131.795 98.384 132.224 98.516C132.752 98.67 133.093 98.956 133.093 99.44C133.093 99.99 132.697 100.298 132.312 100.298C132.125 100.298 131.993 100.265 131.861 100.232C131.421 100.111 131.014 100.045 130.486 100.045C129.21 100.045 128.583 100.672 128.583 101.926V109.153C128.583 109.758 128.253 110.099 127.692 110.099ZM136.265 95.931C136.815 95.931 137.156 96.283 137.156 96.877V98.483H140.445C141.105 98.483 141.435 98.802 141.435 99.33C141.435 99.858 141.105 100.177 140.445 100.177H137.156V106.612C137.156 107.877 137.706 108.482 138.894 108.482C139.598 108.482 140.082 108.328 140.478 108.185C140.687 108.108 140.841 108.042 141.061 108.042C141.457 108.042 141.82 108.372 141.82 108.867C141.82 109.329 141.556 109.582 141.083 109.769C140.423 110.022 139.675 110.198 138.806 110.198C136.716 110.198 135.374 108.944 135.374 106.766V96.877C135.374 96.283 135.704 95.931 136.265 95.931ZM150.786 114.015C150.302 114.015 149.895 113.652 149.895 113.146C149.895 112.794 150.104 112.53 150.467 112.321C151.358 111.826 152.172 110.891 152.832 109.252L148.696 99.924C148.52 99.539 148.498 99.374 148.498 99.231C148.498 98.725 148.905 98.384 149.4 98.384C149.84 98.384 150.115 98.593 150.313 99.099L153.712 107.085C153.745 107.184 153.767 107.195 153.811 107.195C153.866 107.195 153.877 107.184 153.921 107.085L157.067 99.055C157.232 98.626 157.507 98.384 157.936 98.384C158.431 98.384 158.838 98.725 158.838 99.22C158.838 99.363 158.816 99.517 158.684 99.847L154.68 109.549C153.866 111.518 152.744 113.014 151.644 113.718C151.38 113.905 151.138 114.015 150.786 114.015ZM165.721 110.198C162.938 110.198 160.991 108.361 160.727 105.732C160.639 104.896 160.639 103.587 160.716 102.762C160.969 100.122 162.938 98.285 165.721 98.285C168.515 98.285 170.495 100.122 170.737 102.762C170.814 103.587 170.814 104.896 170.726 105.732C170.462 108.361 168.515 110.198 165.721 110.198ZM162.487 105.545C162.652 107.272 163.895 108.46 165.721 108.46C167.558 108.46 168.79 107.272 168.966 105.545C169.043 104.731 169.043 103.752 168.966 102.938C168.801 101.211 167.558 100.034 165.721 100.034C163.895 100.034 162.663 101.211 162.487 102.938C162.41 103.752 162.41 104.731 162.487 105.545ZM178.625 110.198C175.567 110.198 173.873 108.493 173.873 105.6V99.33C173.873 98.725 174.203 98.384 174.764 98.384C175.314 98.384 175.655 98.725 175.655 99.33V105.457C175.655 107.437 176.623 108.46 178.625 108.46C179.769 108.46 180.902 108.119 181.573 107.701V99.33C181.573 98.725 181.914 98.384 182.464 98.384C183.014 98.384 183.355 98.725 183.355 99.33V108.086C183.355 108.614 183.234 108.856 182.816 109.087C182.123 109.516 180.517 110.198 178.625 110.198ZM187.806 110.099C187.256 110.099 186.926 109.758 186.926 109.153V101.86C186.926 99.616 188.257 98.285 190.512 98.285C191.293 98.285 191.909 98.384 192.338 98.516C192.866 98.67 193.207 98.956 193.207 99.44C193.207 99.99 192.811 100.298 192.426 100.298C192.239 100.298 192.107 100.265 191.975 100.232C191.535 100.111 191.128 100.045 190.6 100.045C189.324 100.045 188.697 100.672 188.697 101.926V109.153C188.697 109.758 188.367 110.099 187.806 110.099ZM208.518 106.689C208.518 108.845 206.879 110.198 204.404 110.198C202.743 110.198 201.412 109.769 200.488 109.021C200.125 108.757 200.026 108.471 200.026 108.207C200.026 107.844 200.312 107.404 200.796 107.404C201.038 107.404 201.247 107.503 201.467 107.657C202.061 108.108 202.919 108.526 204.415 108.526C205.999 108.526 206.758 107.789 206.758 106.755C206.758 105.952 206.274 105.446 205.02 105.16L203.304 104.742C201.456 104.313 200.334 103.312 200.334 101.673C200.334 99.594 201.995 98.285 204.36 98.285C205.889 98.285 207.011 98.813 207.594 99.253C207.946 99.517 208.078 99.737 208.078 100.078C208.078 100.485 207.77 100.936 207.297 100.936C207.022 100.936 206.824 100.837 206.56 100.661C206.142 100.342 205.35 99.968 204.404 99.968C202.897 99.968 202.072 100.562 202.072 101.629C202.072 102.322 202.479 102.839 203.799 103.147L205.427 103.521C207.55 104.016 208.518 105.094 208.518 106.689ZM214.97 110.198C212.264 110.198 210.614 108.702 210.614 106.513C210.614 104.643 212.077 102.971 214.992 102.971C216.026 102.971 216.906 103.092 218.083 103.433V102.399C218.083 100.738 217.225 99.968 215.3 99.968C214.365 99.968 213.408 100.243 212.88 100.463C212.638 100.573 212.396 100.65 212.187 100.65C211.758 100.65 211.417 100.309 211.406 99.858C211.395 99.44 211.626 99.176 212.154 98.956C212.869 98.637 214.134 98.285 215.465 98.285C218.204 98.285 219.821 99.583 219.821 102.388V108.262C219.821 108.636 219.744 108.801 219.469 108.988C218.831 109.439 217.159 110.198 214.97 110.198ZM212.352 106.524C212.352 107.844 213.386 108.603 215.168 108.603C216.191 108.603 217.28 108.295 218.083 107.866V104.918C216.961 104.588 216.136 104.445 215.168 104.445C213.254 104.445 212.352 105.336 212.352 106.524ZM227.307 110.099C226.339 110.099 225.888 109.483 225.503 108.427L222.214 99.726C222.137 99.528 222.104 99.374 222.104 99.231C222.104 98.725 222.511 98.384 222.995 98.384C223.413 98.384 223.721 98.604 223.897 99.132L227.131 108.251C227.186 108.394 227.219 108.449 227.307 108.449C227.395 108.449 227.428 108.394 227.494 108.251L230.739 99.143C230.937 98.593 231.245 98.384 231.652 98.384C232.136 98.384 232.521 98.714 232.521 99.209C232.521 99.352 232.499 99.517 232.422 99.715L229.1 108.427C228.704 109.483 228.242 110.099 227.307 110.099ZM236.03 94.248C236.701 94.248 237.196 94.743 237.196 95.403C237.196 96.074 236.701 96.58 236.03 96.58C235.381 96.58 234.886 96.074 234.886 95.403C234.886 94.743 235.381 94.248 236.03 94.248ZM235.15 109.153V99.33C235.15 98.725 235.491 98.384 236.041 98.384C236.602 98.384 236.932 98.725 236.932 99.33V109.153C236.932 109.758 236.602 110.099 236.041 110.099C235.491 110.099 235.15 109.758 235.15 109.153ZM245.411 98.285C248.491 98.285 250.207 99.99 250.207 102.883V109.153C250.207 109.758 249.866 110.099 249.316 110.099C248.766 110.099 248.425 109.758 248.425 109.153V103.026C248.425 101.057 247.435 100.034 245.411 100.034C244.245 100.034 243.101 100.364 242.419 100.782V109.153C242.419 109.758 242.078 110.099 241.528 110.099C240.967 110.099 240.637 109.758 240.637 109.153V100.397C240.637 99.869 240.758 99.627 241.176 99.396C241.88 98.967 243.497 98.285 245.411 98.285ZM258.274 114.048C256.635 114.048 255.557 113.696 254.479 113.113C254.05 112.882 253.764 112.607 253.764 112.156C253.764 111.738 254.094 111.386 254.545 111.386C254.798 111.386 254.974 111.463 255.183 111.562C256.437 112.244 257.174 112.354 258.208 112.354C260.012 112.354 261.277 111.397 261.277 109.274V108.713C260.507 109.098 259.363 109.395 258.219 109.395C255.491 109.395 253.665 107.69 253.401 105.226C253.324 104.467 253.335 103.213 253.401 102.465C253.643 99.99 255.524 98.285 258.351 98.285C260.254 98.285 261.904 98.989 262.608 99.44C262.982 99.66 263.059 99.869 263.059 100.485V109.164C263.059 112.343 261.101 114.048 258.274 114.048ZM255.183 105.072C255.337 106.656 256.437 107.701 258.351 107.701C259.352 107.701 260.65 107.382 261.277 106.942V100.771C260.65 100.32 259.352 100.001 258.351 100.001C256.437 100.001 255.337 101.057 255.183 102.63C255.106 103.323 255.117 104.39 255.183 105.072ZM274.475 106.689C274.475 108.845 272.836 110.198 270.361 110.198C268.7 110.198 267.369 109.769 266.445 109.021C266.082 108.757 265.983 108.471 265.983 108.207C265.983 107.844 266.269 107.404 266.753 107.404C266.995 107.404 267.204 107.503 267.424 107.657C268.018 108.108 268.876 108.526 270.372 108.526C271.956 108.526 272.715 107.789 272.715 106.755C272.715 105.952 272.231 105.446 270.977 105.16L269.261 104.742C267.413 104.313 266.291 103.312 266.291 101.673C266.291 99.594 267.952 98.285 270.317 98.285C271.846 98.285 272.968 98.813 273.551 99.253C273.903 99.517 274.035 99.737 274.035 100.078C274.035 100.485 273.727 100.936 273.254 100.936C272.979 100.936 272.781 100.837 272.517 100.661C272.099 100.342 271.307 99.968 270.361 99.968C268.854 99.968 268.029 100.562 268.029 101.629C268.029 102.322 268.436 102.839 269.756 103.147L271.384 103.521C273.507 104.016 274.475 105.094 274.475 106.689ZM292.856 102.663C292.944 103.543 292.944 104.94 292.856 105.831C292.625 108.416 290.799 110.198 287.95 110.198C286.069 110.198 284.309 109.483 283.583 109.01C283.319 108.834 283.209 108.636 283.209 108.229V95.117C283.209 94.512 283.55 94.171 284.1 94.171C284.661 94.171 284.991 94.512 284.991 95.117V98.967C285.761 98.582 286.905 98.285 288.049 98.285C290.799 98.285 292.614 100.067 292.856 102.663ZM284.991 107.69C285.618 108.141 286.916 108.46 287.917 108.46C289.831 108.46 290.931 107.327 291.085 105.622C291.173 104.797 291.173 103.719 291.085 102.861C290.931 101.156 289.831 100.034 287.917 100.034C286.916 100.034 285.618 100.353 284.991 100.793V107.69ZM297.116 114.015C296.632 114.015 296.225 113.652 296.225 113.146C296.225 112.794 296.434 112.53 296.797 112.321C297.688 111.826 298.502 110.891 299.162 109.252L295.026 99.924C294.85 99.539 294.828 99.374 294.828 99.231C294.828 98.725 295.235 98.384 295.73 98.384C296.17 98.384 296.445 98.593 296.643 99.099L300.042 107.085C300.075 107.184 300.097 107.195 300.141 107.195C300.196 107.195 300.207 107.184 300.251 107.085L303.397 99.055C303.562 98.626 303.837 98.384 304.266 98.384C304.761 98.384 305.168 98.725 305.168 99.22C305.168 99.363 305.146 99.517 305.014 99.847L301.01 109.549C300.196 111.518 299.074 113.014 297.974 113.718C297.71 113.905 297.468 114.015 297.116 114.015ZM148.712 138.198C146.006 138.198 144.356 136.702 144.356 134.513C144.356 132.643 145.819 130.971 148.734 130.971C149.768 130.971 150.648 131.092 151.825 131.433V130.399C151.825 128.738 150.967 127.968 149.042 127.968C148.107 127.968 147.15 128.243 146.622 128.463C146.38 128.573 146.138 128.65 145.929 128.65C145.5 128.65 145.159 128.309 145.148 127.858C145.137 127.44 145.368 127.176 145.896 126.956C146.611 126.637 147.876 126.285 149.207 126.285C151.946 126.285 153.563 127.583 153.563 130.388V136.262C153.563 136.636 153.486 136.801 153.211 136.988C152.573 137.439 150.901 138.198 148.712 138.198ZM146.094 134.524C146.094 135.844 147.128 136.603 148.91 136.603C149.933 136.603 151.022 136.295 151.825 135.866V132.918C150.703 132.588 149.878 132.445 148.91 132.445C146.996 132.445 146.094 133.336 146.094 134.524ZM165.402 122.171C165.952 122.171 166.293 122.512 166.293 123.117V136.229C166.293 136.636 166.183 136.834 165.919 137.01C165.182 137.472 163.433 138.198 161.552 138.198C158.703 138.198 156.888 136.416 156.635 133.831C156.558 132.94 156.558 131.543 156.635 130.663C156.899 128.067 158.703 126.285 161.453 126.285C162.597 126.285 163.741 126.582 164.511 126.967V123.117C164.511 122.512 164.852 122.171 165.402 122.171ZM158.417 133.622C158.571 135.327 159.671 136.46 161.585 136.46C162.586 136.46 163.884 136.141 164.511 135.69V128.793C163.884 128.353 162.586 128.034 161.585 128.034C159.671 128.034 158.582 129.156 158.417 130.861C158.329 131.719 158.34 132.797 158.417 133.622ZM178.292 122.171C178.842 122.171 179.183 122.512 179.183 123.117V136.229C179.183 136.636 179.073 136.834 178.809 137.01C178.072 137.472 176.323 138.198 174.442 138.198C171.593 138.198 169.778 136.416 169.525 133.831C169.448 132.94 169.448 131.543 169.525 130.663C169.789 128.067 171.593 126.285 174.343 126.285C175.487 126.285 176.631 126.582 177.401 126.967V123.117C177.401 122.512 177.742 122.171 178.292 122.171ZM171.307 133.622C171.461 135.327 172.561 136.46 174.475 136.46C175.476 136.46 176.774 136.141 177.401 135.69V128.793C176.774 128.353 175.476 128.034 174.475 128.034C172.561 128.034 171.472 129.156 171.307 130.861C171.219 131.719 171.23 132.797 171.307 133.622ZM183.758 122.248C184.429 122.248 184.924 122.743 184.924 123.403C184.924 124.074 184.429 124.58 183.758 124.58C183.109 124.58 182.614 124.074 182.614 123.403C182.614 122.743 183.109 122.248 183.758 122.248ZM182.878 137.153V127.33C182.878 126.725 183.219 126.384 183.769 126.384C184.33 126.384 184.66 126.725 184.66 127.33V137.153C184.66 137.758 184.33 138.099 183.769 138.099C183.219 138.099 182.878 137.758 182.878 137.153ZM193.14 126.285C196.22 126.285 197.936 127.99 197.936 130.883V137.153C197.936 137.758 197.595 138.099 197.045 138.099C196.495 138.099 196.154 137.758 196.154 137.153V131.026C196.154 129.057 195.164 128.034 193.14 128.034C191.974 128.034 190.83 128.364 190.148 128.782V137.153C190.148 137.758 189.807 138.099 189.257 138.099C188.696 138.099 188.366 137.758 188.366 137.153V128.397C188.366 127.869 188.487 127.627 188.905 127.396C189.609 126.967 191.226 126.285 193.14 126.285ZM206.002 142.048C204.363 142.048 203.285 141.696 202.207 141.113C201.778 140.882 201.492 140.607 201.492 140.156C201.492 139.738 201.822 139.386 202.273 139.386C202.526 139.386 202.702 139.463 202.911 139.562C204.165 140.244 204.902 140.354 205.936 140.354C207.74 140.354 209.005 139.397 209.005 137.274V136.713C208.235 137.098 207.091 137.395 205.947 137.395C203.219 137.395 201.393 135.69 201.129 133.226C201.052 132.467 201.063 131.213 201.129 130.465C201.371 127.99 203.252 126.285 206.079 126.285C207.982 126.285 209.632 126.989 210.336 127.44C210.71 127.66 210.787 127.869 210.787 128.485V137.164C210.787 140.343 208.829 142.048 206.002 142.048ZM202.911 133.072C203.065 134.656 204.165 135.701 206.079 135.701C207.08 135.701 208.378 135.382 209.005 134.942V128.771C208.378 128.32 207.08 128.001 206.079 128.001C204.165 128.001 203.065 129.057 202.911 130.63C202.834 131.323 202.845 132.39 202.911 133.072ZM105.611 166.198C103.202 166.198 101.563 165.549 100.32 164.669C99.9902 164.449 99.8362 164.185 99.8362 163.822C99.8362 163.338 100.21 162.942 100.738 162.942C100.98 162.942 101.211 163.052 101.409 163.184C102.509 163.91 103.752 164.438 105.611 164.438C108.152 164.438 109.406 163.481 109.406 161.765C109.406 160.313 108.317 159.598 105.446 159.026C101.519 158.256 100.1 156.969 100.1 154.527C100.1 151.821 102.234 150.204 105.457 150.204C107.547 150.204 108.999 150.82 109.956 151.513C110.275 151.733 110.451 151.986 110.451 152.349C110.451 152.8 110.077 153.229 109.571 153.229C109.318 153.229 109.098 153.108 108.878 152.987C107.998 152.382 106.942 151.975 105.457 151.975C103.092 151.975 101.937 152.943 101.937 154.505C101.937 155.913 102.861 156.639 105.842 157.211C109.725 157.948 111.243 159.235 111.243 161.721C111.243 164.493 109.098 166.198 105.611 166.198ZM119.89 167.188C119.89 167.771 119.56 168.101 119.032 168.101C118.504 168.101 118.174 167.771 118.174 167.188V165.538C116.447 165.384 115.204 164.834 114.236 164.152C113.917 163.932 113.752 163.668 113.752 163.305C113.752 162.832 114.137 162.436 114.643 162.436C114.896 162.436 115.127 162.557 115.325 162.678C116.326 163.327 117.459 163.822 119.186 163.822C121.485 163.822 122.629 162.964 122.629 161.413C122.629 160.104 121.595 159.455 118.988 158.938C115.347 158.223 114.016 157.013 114.016 154.714C114.016 152.448 115.655 150.974 118.174 150.71V149.258C118.174 148.675 118.504 148.345 119.032 148.345C119.56 148.345 119.89 148.675 119.89 149.258V150.699C121.397 150.842 122.486 151.326 123.245 151.876C123.564 152.085 123.74 152.327 123.74 152.701C123.74 153.152 123.366 153.57 122.86 153.57C122.618 153.57 122.398 153.46 122.178 153.339C121.353 152.811 120.396 152.426 119.032 152.426C116.887 152.426 115.842 153.284 115.842 154.692C115.842 155.968 116.7 156.628 119.406 157.145C123.025 157.827 124.466 159.037 124.466 161.38C124.466 163.778 122.739 165.34 119.89 165.56V167.188ZM135.242 165.131C135.242 165.747 134.901 166.099 134.329 166.099C133.757 166.099 133.416 165.747 133.416 165.131V152.415L129.5 154.406C129.214 154.56 129.005 154.593 128.829 154.593C128.444 154.593 128.059 154.241 128.059 153.779C128.059 153.405 128.29 153.163 128.664 152.965L133.13 150.644C133.581 150.413 133.933 150.27 134.252 150.27C134.835 150.27 135.242 150.644 135.242 151.326V165.131ZM147.663 151.931C148.213 151.931 148.554 152.283 148.554 152.877V154.483H151.843C152.503 154.483 152.833 154.802 152.833 155.33C152.833 155.858 152.503 156.177 151.843 156.177H148.554V162.612C148.554 163.877 149.104 164.482 150.292 164.482C150.996 164.482 151.48 164.328 151.876 164.185C152.085 164.108 152.239 164.042 152.459 164.042C152.855 164.042 153.218 164.372 153.218 164.867C153.218 165.329 152.954 165.582 152.481 165.769C151.821 166.022 151.073 166.198 150.204 166.198C148.114 166.198 146.772 164.944 146.772 162.766V152.877C146.772 152.283 147.102 151.931 147.663 151.931ZM159.953 166.198C157.17 166.198 155.223 164.361 154.959 161.732C154.871 160.896 154.871 159.587 154.948 158.762C155.201 156.122 157.17 154.285 159.953 154.285C162.747 154.285 164.727 156.122 164.969 158.762C165.046 159.587 165.046 160.896 164.958 161.732C164.694 164.361 162.747 166.198 159.953 166.198ZM156.719 161.545C156.884 163.272 158.127 164.46 159.953 164.46C161.79 164.46 163.022 163.272 163.198 161.545C163.275 160.731 163.275 159.752 163.198 158.938C163.033 157.211 161.79 156.034 159.953 156.034C158.127 156.034 156.895 157.211 156.719 158.938C156.642 159.752 156.642 160.731 156.719 161.545ZM174.86 170.015C174.376 170.015 173.969 169.652 173.969 169.146C173.969 168.794 174.178 168.53 174.541 168.321C175.432 167.826 176.246 166.891 176.906 165.252L172.77 155.924C172.594 155.539 172.572 155.374 172.572 155.231C172.572 154.725 172.979 154.384 173.474 154.384C173.914 154.384 174.189 154.593 174.387 155.099L177.786 163.085C177.819 163.184 177.841 163.195 177.885 163.195C177.94 163.195 177.951 163.184 177.995 163.085L181.141 155.055C181.306 154.626 181.581 154.384 182.01 154.384C182.505 154.384 182.912 154.725 182.912 155.22C182.912 155.363 182.89 155.517 182.758 155.847L178.754 165.549C177.94 167.518 176.818 169.014 175.718 169.718C175.454 169.905 175.212 170.015 174.86 170.015ZM189.795 166.198C187.012 166.198 185.065 164.361 184.801 161.732C184.713 160.896 184.713 159.587 184.79 158.762C185.043 156.122 187.012 154.285 189.795 154.285C192.589 154.285 194.569 156.122 194.811 158.762C194.888 159.587 194.888 160.896 194.8 161.732C194.536 164.361 192.589 166.198 189.795 166.198ZM186.561 161.545C186.726 163.272 187.969 164.46 189.795 164.46C191.632 164.46 192.864 163.272 193.04 161.545C193.117 160.731 193.117 159.752 193.04 158.938C192.875 157.211 191.632 156.034 189.795 156.034C187.969 156.034 186.737 157.211 186.561 158.938C186.484 159.752 186.484 160.731 186.561 161.545ZM202.698 166.198C199.64 166.198 197.946 164.493 197.946 161.6V155.33C197.946 154.725 198.276 154.384 198.837 154.384C199.387 154.384 199.728 154.725 199.728 155.33V161.457C199.728 163.437 200.696 164.46 202.698 164.46C203.842 164.46 204.975 164.119 205.646 163.701V155.33C205.646 154.725 205.987 154.384 206.537 154.384C207.087 154.384 207.428 154.725 207.428 155.33V164.086C207.428 164.614 207.307 164.856 206.889 165.087C206.196 165.516 204.59 166.198 202.698 166.198ZM211.879 166.099C211.329 166.099 210.999 165.758 210.999 165.153V157.86C210.999 155.616 212.33 154.285 214.585 154.285C215.366 154.285 215.982 154.384 216.411 154.516C216.939 154.67 217.28 154.956 217.28 155.44C217.28 155.99 216.884 156.298 216.499 156.298C216.312 156.298 216.18 156.265 216.048 156.232C215.608 156.111 215.201 156.045 214.673 156.045C213.397 156.045 212.77 156.672 212.77 157.926V165.153C212.77 165.758 212.44 166.099 211.879 166.099ZM234.461 158.663C234.538 159.543 234.538 160.951 234.461 161.831C234.197 164.416 232.393 166.198 229.643 166.198C228.499 166.198 227.355 165.901 226.585 165.516V169.014C226.585 169.619 226.244 169.96 225.694 169.96C225.144 169.96 224.803 169.619 224.803 169.014V156.485C224.803 155.869 224.88 155.66 225.254 155.44C225.947 155.011 227.652 154.285 229.544 154.285C232.393 154.285 234.208 156.067 234.461 158.663ZM226.585 163.701C227.212 164.141 228.51 164.46 229.511 164.46C231.425 164.46 232.514 163.327 232.679 161.633C232.767 160.775 232.756 159.686 232.679 158.85C232.525 157.156 231.425 156.023 229.511 156.023C228.51 156.023 227.212 156.342 226.585 156.793V163.701ZM242.281 166.198C239.498 166.198 237.551 164.361 237.287 161.732C237.199 160.896 237.199 159.587 237.276 158.762C237.529 156.122 239.498 154.285 242.281 154.285C245.075 154.285 247.055 156.122 247.297 158.762C247.374 159.587 247.374 160.896 247.286 161.732C247.022 164.361 245.075 166.198 242.281 166.198ZM239.047 161.545C239.212 163.272 240.455 164.46 242.281 164.46C244.118 164.46 245.35 163.272 245.526 161.545C245.603 160.731 245.603 159.752 245.526 158.938C245.361 157.211 244.118 156.034 242.281 156.034C240.455 156.034 239.223 157.211 239.047 158.938C238.97 159.752 238.97 160.731 239.047 161.545ZM251.368 151.931C251.918 151.931 252.259 152.283 252.259 152.877V154.483H255.548C256.208 154.483 256.538 154.802 256.538 155.33C256.538 155.858 256.208 156.177 255.548 156.177H252.259V162.612C252.259 163.877 252.809 164.482 253.997 164.482C254.701 164.482 255.185 164.328 255.581 164.185C255.79 164.108 255.944 164.042 256.164 164.042C256.56 164.042 256.923 164.372 256.923 164.867C256.923 165.329 256.659 165.582 256.186 165.769C255.526 166.022 254.778 166.198 253.909 166.198C251.819 166.198 250.477 164.944 250.477 162.766V152.877C250.477 152.283 250.807 151.931 251.368 151.931Z" fill="#0B3C58"/>
<g filter="url(#filter0_d_2141_637991)">
<path d="M144.5 413C155.546 413 164.5 404.046 164.5 393C164.5 386.424 161.326 380.589 156.426 376.944C155.281 376.091 154.5 374.796 154.5 373.369V365H134.5V373.369C134.5 374.796 133.719 376.091 132.574 376.944C127.674 380.589 124.5 386.424 124.5 393C124.5 404.046 133.454 413 144.5 413Z" fill="#80CFD0"/>
<g filter="url(#filter1_d_2141_637991)">
<path fill-rule="evenodd" clip-rule="evenodd" d="M144.5 383C138.977 383 134.5 387.477 134.5 393C134.5 398.523 138.977 403 144.5 403C150.023 403 154.5 398.523 154.5 393C154.5 387.477 150.023 383 144.5 383ZM132.5 393C132.5 386.373 137.873 381 144.5 381C151.127 381 156.5 386.373 156.5 393C156.5 399.627 151.127 405 144.5 405C137.873 405 132.5 399.627 132.5 393Z" fill="#D9F0F1"/>
</g>
<g filter="url(#filter2_d_2141_637991)">
<path d="M146.5 393C146.5 394.105 145.605 395 144.5 395C143.395 395 142.5 394.105 142.5 393C142.5 391.895 143.395 391 144.5 391C145.605 391 146.5 391.895 146.5 393Z" fill="#D9F0F1"/>
</g>
<g filter="url(#filter3_d_2141_637991)">
<path fill-rule="evenodd" clip-rule="evenodd" d="M144.5 395C145.605 395 146.5 394.105 146.5 393C146.5 391.895 145.605 391 144.5 391C143.395 391 142.5 391.895 142.5 393C142.5 394.105 143.395 395 144.5 395Z" fill="#D9F0F1"/>
</g>
<path d="M154.5 365V373.369C154.5 374.796 155.281 376.091 156.426 376.944C161.326 380.589 164.5 386.424 164.5 393C164.5 404.046 155.546 413 144.5 413C133.454 413 124.5 404.046 124.5 393C124.5 386.424 127.674 380.589 132.574 376.944C133.719 376.091 134.5 374.796 134.5 373.369V365" stroke="#80CFD0" stroke-width="2"/>
<g filter="url(#filter4_d_2141_637991)">
<path d="M130.5 365H158.5" stroke="#80CFD0" stroke-width="2" stroke-linecap="round"/>
</g>
</g>
<g filter="url(#filter5_d_2141_637991)">
<path d="M252.76 394.134L233.177 382.079C230.749 384.046 224.764 390.568 219.128 399.645C213.493 408.723 210.412 418.137 209.577 421.709L225.179 435.031C227.381 430.434 233.107 419.39 238.392 411.981C243.677 404.573 250.173 396.996 252.76 394.134Z" fill="#6EA088"/>
<path fill-rule="evenodd" clip-rule="evenodd" d="M233.219 380.979L254.079 393.963C254.528 394.243 254.605 394.867 254.24 395.253C246.416 403.519 232.169 421.393 225.867 437.111C225.653 437.646 224.98 437.817 224.544 437.444L207.775 423.077C207.522 422.86 207.42 422.52 207.525 422.202C210.265 413.866 218.704 394.922 232.197 381.102C232.467 380.826 232.892 380.776 233.219 380.979ZM231.152 386.539C231.865 386.609 232.89 386.452 233.707 385.586C234.027 385.247 234.538 385.105 234.934 385.351L247.484 393.169C247.998 393.49 248.015 394.278 247.707 394.803C247.301 395.493 247.107 396.464 247.677 397.625C247.843 397.963 247.83 398.373 247.586 398.66C244.792 401.934 239.162 408.712 236.004 413.167C232.005 418.806 229.145 423.434 226.494 429.329C226.318 429.721 225.875 429.912 225.451 429.858C224.632 429.756 223.594 429.88 222.903 430.675C222.503 431.135 221.782 431.379 221.32 430.983L212.043 423.029C211.7 422.734 211.66 422.214 211.826 421.792C212.121 421.041 212.217 419.944 211.441 418.815C211.266 418.56 211.199 418.237 211.314 417.949C212.413 415.177 215.239 408.817 219.186 402.041C223.156 395.224 228.032 389.294 230.297 386.818C230.511 386.584 230.838 386.508 231.152 386.539Z" fill="#85B787"/>
<path d="M254.079 393.963L254.297 393.608L254.297 393.608L254.079 393.963ZM233.219 380.979L233.001 381.334L233.001 381.334L233.219 380.979ZM254.24 395.253L253.941 394.966L253.941 394.966L254.24 395.253ZM225.867 437.111L225.483 436.955L225.483 436.955L225.867 437.111ZM224.544 437.444L224.813 437.126V437.126L224.544 437.444ZM207.775 423.077L208.043 422.76L208.043 422.76L207.775 423.077ZM207.525 422.202L207.917 422.332V422.332L207.525 422.202ZM232.197 381.102L231.902 380.81L231.902 380.81L232.197 381.102ZM233.707 385.586L234.007 385.873V385.873L233.707 385.586ZM231.152 386.539L231.111 386.954L231.111 386.954L231.152 386.539ZM234.934 385.351L235.151 384.997L235.151 384.997L234.934 385.351ZM247.484 393.169L247.266 393.524V393.524L247.484 393.169ZM247.707 394.803L247.351 394.591V394.591L247.707 394.803ZM247.677 397.625L248.048 397.44V397.44L247.677 397.625ZM247.586 398.66L247.899 398.931V398.931L247.586 398.66ZM236.004 413.167L236.34 413.409V413.409L236.004 413.167ZM226.494 429.329L226.118 429.157L226.118 429.157L226.494 429.329ZM225.451 429.858L225.502 429.445V429.445L225.451 429.858ZM222.903 430.675L222.592 430.4V430.4L222.903 430.675ZM221.32 430.983L221.589 430.665V430.665L221.32 430.983ZM212.043 423.029L211.775 423.346V423.346L212.043 423.029ZM211.826 421.792L211.441 421.639L211.441 421.639L211.826 421.792ZM211.441 418.815L211.101 419.053L211.101 419.053L211.441 418.815ZM211.314 417.949L211.698 418.103V418.103L211.314 417.949ZM219.186 402.041L219.543 402.251V402.251L219.186 402.041ZM230.297 386.818L230.601 387.1V387.1L230.297 386.818ZM254.079 393.963L254.297 393.608L233.437 380.625L233.219 380.979L233.001 381.334L253.861 394.318L254.079 393.963ZM254.24 395.253L254.539 395.541C255.084 394.965 254.972 394.028 254.297 393.608L254.079 393.963L253.861 394.318C254.085 394.457 254.126 394.77 253.941 394.966L254.24 395.253ZM225.867 437.111L226.251 437.267C232.524 421.621 246.729 403.792 254.539 395.541L254.24 395.253L253.941 394.966C246.103 403.246 231.815 421.165 225.483 436.955L225.867 437.111ZM224.544 437.444L224.276 437.762C224.929 438.321 225.932 438.062 226.251 437.267L225.867 437.111L225.483 436.955C225.373 437.23 225.031 437.313 224.813 437.126L224.544 437.444ZM207.775 423.077L207.507 423.395L224.276 437.762L224.544 437.444L224.813 437.126L208.043 422.76L207.775 423.077ZM207.525 422.202L207.132 422.071C206.972 422.557 207.131 423.073 207.507 423.395L207.775 423.077L208.043 422.76C207.913 422.648 207.868 422.482 207.917 422.332L207.525 422.202ZM232.197 381.102L231.902 380.81C218.35 394.691 209.884 413.699 207.132 422.071L207.525 422.202L207.917 422.332C210.646 414.033 219.059 395.153 232.492 381.395L232.197 381.102ZM233.219 380.979L233.437 380.625C232.947 380.32 232.309 380.393 231.902 380.81L232.197 381.102L232.492 381.395C232.625 381.258 232.837 381.232 233.001 381.334L233.219 380.979ZM233.707 385.586L233.407 385.299C232.701 386.047 231.816 386.185 231.192 386.124L231.152 386.539L231.111 386.954C231.914 387.032 233.078 386.856 234.007 385.873L233.707 385.586ZM234.934 385.351L235.151 384.997C234.542 384.617 233.82 384.861 233.407 385.299L233.707 385.586L234.007 385.873C234.235 385.632 234.535 385.593 234.716 385.706L234.934 385.351ZM247.484 393.169L247.701 392.815L235.151 384.997L234.934 385.351L234.716 385.706L247.266 393.524L247.484 393.169ZM247.707 394.803L248.063 395.015C248.262 394.677 248.354 394.26 248.315 393.868C248.276 393.473 248.096 393.06 247.701 392.815L247.484 393.169L247.266 393.524C247.385 393.598 247.471 393.74 247.492 393.951C247.513 394.165 247.46 394.404 247.351 394.591L247.707 394.803ZM247.677 397.625L248.048 397.44C247.546 396.417 247.722 395.595 248.063 395.015L247.707 394.803L247.351 394.591C246.881 395.39 246.668 396.51 247.306 397.81L247.677 397.625ZM247.586 398.66L247.899 398.931C248.274 398.492 248.272 397.895 248.048 397.44L247.677 397.625L247.306 397.81C247.415 398.032 247.386 398.254 247.272 398.388L247.586 398.66ZM236.004 413.167L236.34 413.409C239.487 408.971 245.106 402.205 247.899 398.931L247.586 398.66L247.272 398.388C244.478 401.662 238.838 408.453 235.667 412.925L236.004 413.167ZM226.494 429.329L226.871 429.5C229.507 423.639 232.351 419.034 236.34 413.409L236.004 413.167L235.667 412.925C231.659 418.577 228.783 423.23 226.118 429.157L226.494 429.329ZM225.451 429.858L225.399 430.272C225.959 430.342 226.603 430.097 226.871 429.5L226.494 429.329L226.118 429.157C226.033 429.345 225.791 429.481 225.502 429.445L225.451 429.858ZM222.903 430.675L223.214 430.95C223.774 430.305 224.642 430.177 225.399 430.272L225.451 429.858L225.502 429.445C224.621 429.334 223.414 429.455 222.592 430.4L222.903 430.675ZM221.32 430.983L221.052 431.301C221.407 431.605 221.848 431.647 222.23 431.555C222.607 431.465 222.961 431.24 223.214 430.95L222.903 430.675L222.592 430.4C222.445 430.569 222.238 430.697 222.039 430.744C221.845 430.791 221.695 430.756 221.589 430.665L221.32 430.983ZM212.043 423.029L211.775 423.346L221.052 431.301L221.32 430.983L221.589 430.665L212.311 422.711L212.043 423.029ZM211.826 421.792L211.441 421.639C211.236 422.16 211.25 422.896 211.775 423.346L212.043 423.029L212.311 422.711C212.15 422.573 212.084 422.268 212.211 421.945L211.826 421.792ZM211.441 418.815L211.101 419.053C211.784 420.046 211.696 420.992 211.441 421.639L211.826 421.792L212.211 421.945C212.547 421.091 212.651 419.842 211.781 418.577L211.441 418.815ZM211.314 417.949L210.93 417.795C210.753 418.241 210.865 418.71 211.101 419.053L211.441 418.815L211.781 418.577C211.666 418.41 211.646 418.234 211.698 418.103L211.314 417.949ZM219.186 402.041L218.829 401.83C214.87 408.627 212.035 415.006 210.93 417.795L211.314 417.949L211.698 418.103C212.79 415.349 215.607 409.008 219.543 402.251L219.186 402.041ZM230.297 386.818L229.992 386.535C227.713 389.028 222.818 394.982 218.829 401.83L219.186 402.041L219.543 402.251C223.494 395.467 228.35 389.561 230.601 387.1L230.297 386.818ZM231.152 386.539L231.192 386.124C230.799 386.085 230.323 386.173 229.992 386.535L230.297 386.818L230.601 387.1C230.698 386.994 230.877 386.931 231.111 386.954L231.152 386.539Z" fill="#85B787"/>
<ellipse cx="5.04461" cy="5.72947" rx="5.04461" ry="5.72947" transform="matrix(-0.52911 0.851009 -0.845708 -0.529684 235.301 405.828)" fill="#85B787"/>
</g>
<path d="M252.58 404.138L247.433 404.448C245.385 404.835 243.843 406.536 243.657 408.617L243.857 413.769L243.547 408.622C243.16 406.573 241.458 405.032 239.378 404.846L234.225 405.045L239.372 404.735C241.421 404.348 242.963 402.647 243.149 400.566L242.949 395.414L243.259 400.561C243.646 402.61 245.348 404.151 247.428 404.337L252.58 404.138Z" fill="white" stroke="white" stroke-width="0.830695" stroke-linejoin="round"/>
<g filter="url(#filter6_d_2141_637991)">
<path d="M161 466L163 473L151 489L149 482L161 466Z" fill="#BC993F" stroke="#BC993F" stroke-linejoin="round"/>
<path d="M149 482L139 481L141 488L151 489L149 482Z" fill="#BC993F" stroke="#BC993F" stroke-linejoin="round"/>
<path d="M151 465L161 466L149 482L139 481L151 465Z" fill="#F0D385" stroke="#F0D385" stroke-linejoin="round"/>
</g>
<path d="M171.54 466.353L166.384 466.408C164.319 466.693 162.695 468.317 162.407 470.385L162.352 475.541L162.296 470.385C162.011 468.32 160.387 466.696 158.319 466.408L153.163 466.353L158.319 466.297C160.384 466.012 162.008 464.389 162.296 462.32L162.352 457.164L162.407 462.32C162.692 464.385 164.316 466.009 166.384 466.297L171.54 466.353Z" fill="white" stroke="white" stroke-width="0.830695" stroke-linejoin="round"/>
<g filter="url(#filter7_d_2141_637991)">
<path d="M124.765 413.996L119.672 396.695L119.69 423.755L124.765 413.996Z" fill="#7D8D75" stroke="#7D8D75" stroke-linejoin="round"/>
<path d="M98.3965 412.684L119.672 396.696L119.69 423.756L98.3965 412.684Z" fill="#E3EDEB" stroke="#E3EDEB" stroke-linejoin="round"/>
</g>
<path d="M128.705 421.524L124.041 423.723C122.282 424.843 121.483 426.995 122.082 428.996L124.181 433.706L121.982 429.042C120.862 427.283 118.71 426.484 116.709 427.084L111.999 429.182L116.663 426.983C118.422 425.863 119.221 423.711 118.622 421.71L116.523 417L118.722 421.664C119.842 423.423 121.994 424.222 123.995 423.623L128.705 421.524Z" fill="white" stroke="white" stroke-width="0.830695" stroke-linejoin="round"/>
<g filter="url(#filter8_d_2141_637991)">
<path d="M207.242 333.047C207.242 334.581 206.333 335.51 204.899 335.51C203.466 335.51 202.557 334.581 202.557 333.047V312.147L196.62 315.257C195.974 315.6 195.429 315.721 194.924 315.721C193.935 315.721 192.945 314.793 192.945 313.601C192.945 312.652 193.551 312.006 194.44 311.542L202.254 307.382C203.163 306.897 204.031 306.453 204.899 306.453C206.353 306.453 207.242 307.362 207.242 309.018V333.047Z" fill="white"/>
<path d="M178.985 336.943C178.985 338.337 178.177 339.144 176.905 339.144C175.633 339.144 174.825 338.337 174.825 336.943V334.5C171.655 334.157 169.454 333.127 167.919 332.057C167.112 331.512 166.688 330.785 166.688 329.896C166.688 328.604 167.637 327.695 168.888 327.695C169.595 327.695 170.12 327.978 170.665 328.281C172.281 329.27 174.139 330.219 177.167 330.219C180.661 330.219 182.478 329.008 182.478 326.767C182.478 324.687 180.398 323.738 176.38 322.93C169.838 321.617 167.212 319.376 167.212 314.893C167.212 310.693 170.302 307.866 174.825 307.24V305.221C174.825 303.808 175.633 303 176.905 303C178.177 303 178.985 303.808 178.985 305.221V307.24C181.569 307.543 183.447 308.331 184.719 309.179C185.547 309.684 185.971 310.33 185.971 311.259C185.971 312.43 185.042 313.439 183.831 313.439C183.185 313.439 182.64 313.157 182.014 312.874C180.681 312.147 179.106 311.521 176.764 311.521C173.472 311.521 171.938 312.814 171.938 314.792C171.938 316.711 173.412 317.7 177.632 318.508C184.356 319.76 187.203 322.102 187.203 326.585C187.203 330.845 184.114 333.935 178.985 334.52V336.943Z" fill="white"/>
<path d="M152.086 335.697C147.381 335.697 144.332 334.364 142.232 332.951C141.424 332.406 141 331.679 141 330.77C141 329.498 141.949 328.569 143.221 328.569C143.908 328.569 144.453 328.832 144.998 329.175C146.775 330.285 148.814 331.275 152.086 331.275C156.003 331.275 158.022 329.902 158.022 327.337C158.022 325.035 155.821 323.965 151.359 323.077C144.312 321.663 141.545 319.281 141.545 314.556C141.545 309.487 145.745 306.297 151.702 306.297C155.68 306.297 158.386 307.387 160.142 308.538C160.97 309.063 161.394 309.709 161.394 310.638C161.394 311.809 160.466 312.839 159.254 312.839C158.608 312.839 158.042 312.557 157.437 312.254C155.983 311.385 154.246 310.739 151.702 310.739C148.007 310.739 146.27 312.193 146.27 314.455C146.27 316.595 147.865 317.726 152.57 318.614C159.739 319.947 162.747 322.431 162.747 327.176C162.747 332.264 158.668 335.697 152.086 335.697Z" fill="white"/>
</g>
<g filter="url(#filter9_d_2141_637991)">
<rect x="38" y="664" width="284" height="48" rx="8" fill="#0B3C58" shape-rendering="crispEdges"/>
<path d="M141.147 683.32C141.147 683.552 141.043 683.784 140.843 684.032L137.187 688.624C136.843 689.04 136.867 689.056 136.867 689.608V693.192C136.867 693.752 136.547 694.072 136.043 694.072C135.539 694.072 135.227 693.752 135.227 693.192V689.608C135.227 689.08 135.243 689.088 134.851 688.6L131.211 684.032C131.019 683.784 130.915 683.552 130.915 683.32C130.915 682.904 131.259 682.576 131.683 682.576C131.987 682.576 132.211 682.712 132.467 683.032L136.035 687.568L139.595 683.032C139.843 682.712 140.075 682.576 140.379 682.576C140.803 682.576 141.147 682.904 141.147 683.32ZM144.906 694.152C142.762 694.152 141.322 692.816 141.138 690.896C141.082 690.296 141.074 689.336 141.13 688.76C141.314 686.808 142.73 685.424 144.826 685.424C147.01 685.424 148.314 686.848 148.314 688.912V689.416C148.314 690.24 148.162 690.368 147.402 690.368H142.634L142.65 690.768C142.73 691.92 143.594 692.68 144.938 692.68C145.65 692.68 146.218 692.536 146.706 692.336C146.954 692.24 147.106 692.16 147.322 692.16C147.706 692.16 147.978 692.416 147.986 692.832C147.994 693.232 147.682 693.472 147.37 693.624C146.722 693.928 145.866 694.152 144.906 694.152ZM142.634 689.176H146.818C146.938 687.672 146.082 686.824 144.786 686.824C143.538 686.824 142.738 687.656 142.65 688.88C142.642 688.976 142.642 689.08 142.634 689.176ZM156.459 691.528C156.459 693.152 155.171 694.152 153.355 694.152C152.099 694.152 151.115 693.808 150.491 693.312C150.171 693.088 150.075 692.84 150.075 692.592C150.075 692.272 150.323 691.888 150.731 691.888C150.939 691.888 151.115 691.968 151.323 692.104C151.763 692.416 152.339 692.696 153.371 692.696C154.411 692.696 154.899 692.224 154.899 691.576C154.899 691.08 154.579 690.752 153.755 690.56L152.515 690.272C151.195 689.96 150.307 689.216 150.307 687.952C150.307 686.376 151.603 685.408 153.339 685.408C154.443 685.408 155.283 685.768 155.723 686.088C156.035 686.312 156.147 686.512 156.147 686.808C156.147 687.16 155.875 687.552 155.459 687.552C155.227 687.552 155.051 687.472 154.843 687.336C154.571 687.144 154.011 686.88 153.355 686.88C152.363 686.88 151.851 687.264 151.851 687.92C151.851 688.368 152.131 688.688 153.003 688.888L154.147 689.144C155.739 689.512 156.459 690.304 156.459 691.528ZM159.382 695.552C159.254 695.992 159.022 696.128 158.742 696.128C158.342 696.128 158.014 695.896 158.014 695.536C158.014 695.44 158.022 695.352 158.07 695.168L158.814 692.4C158.934 691.952 159.15 691.72 159.51 691.72C159.926 691.72 160.278 691.952 160.278 692.368C160.278 692.448 160.262 692.608 160.214 692.784L159.382 695.552ZM165.222 693.312C165.222 693.192 165.238 693.04 165.342 692.76L168.574 684.016C168.934 683.024 169.462 682.584 170.318 682.584C171.174 682.584 171.694 683.024 172.054 684.016L175.27 692.752C175.358 693 175.39 693.144 175.39 693.304C175.39 693.728 175.054 694.072 174.582 694.072C174.214 694.072 173.926 693.888 173.766 693.424L172.718 690.472H167.886L166.846 693.416C166.686 693.888 166.398 694.072 166.022 694.072C165.558 694.072 165.222 693.728 165.222 693.312ZM168.414 688.992H172.19L170.534 684.336C170.478 684.168 170.422 684.112 170.302 684.112C170.182 684.112 170.126 684.168 170.062 684.336L168.414 688.992ZM183.304 682.464C183.792 682.464 184.104 682.776 184.104 683.312V692.64C184.104 692.968 184.008 693.128 183.792 693.28C183.264 693.624 181.992 694.152 180.536 694.152C178.424 694.152 177.08 692.84 176.896 690.944C176.84 690.296 176.84 689.256 176.896 688.616C177.08 686.712 178.424 685.408 180.408 685.408C181.176 685.408 181.976 685.6 182.504 685.864V683.312C182.504 682.776 182.808 682.464 183.304 682.464ZM178.496 690.712C178.592 691.832 179.312 692.592 180.584 692.592C181.248 692.592 182.088 692.392 182.504 692.096V687.456C182.088 687.168 181.248 686.96 180.584 686.96C179.312 686.96 178.6 687.72 178.496 688.848C178.44 689.448 178.44 690.152 178.496 690.712ZM192.91 682.464C193.398 682.464 193.71 682.776 193.71 683.312V692.64C193.71 692.968 193.614 693.128 193.398 693.28C192.87 693.624 191.598 694.152 190.142 694.152C188.03 694.152 186.686 692.84 186.502 690.944C186.446 690.296 186.446 689.256 186.502 688.616C186.686 686.712 188.03 685.408 190.014 685.408C190.782 685.408 191.582 685.6 192.11 685.864V683.312C192.11 682.776 192.414 682.464 192.91 682.464ZM188.102 690.712C188.198 691.832 188.918 692.592 190.19 692.592C190.854 692.592 191.694 692.392 192.11 692.096V687.456C191.694 687.168 190.854 686.96 190.19 686.96C188.918 686.96 188.206 687.72 188.102 688.848C188.046 689.448 188.046 690.152 188.102 690.712ZM204.547 694.152C202.731 694.152 201.531 693.648 200.667 693.048C200.379 692.856 200.235 692.608 200.235 692.288C200.235 691.848 200.571 691.512 201.027 691.512C201.259 691.512 201.451 691.608 201.635 691.728C202.379 692.2 203.227 692.592 204.547 692.592C206.219 692.592 207.067 691.984 207.067 690.872C207.067 689.904 206.227 689.44 204.331 689.064C201.515 688.504 200.443 687.56 200.443 685.728C200.443 683.736 202.059 682.512 204.411 682.512C205.963 682.512 207.035 682.944 207.731 683.424C208.019 683.608 208.171 683.84 208.171 684.16C208.171 684.568 207.843 684.936 207.403 684.936C207.179 684.936 206.979 684.84 206.771 684.728C206.171 684.344 205.451 684.072 204.411 684.072C202.843 684.072 202.099 684.704 202.099 685.696C202.099 686.616 202.747 687.096 204.731 687.472C207.563 688.008 208.723 688.976 208.723 690.824C208.723 692.84 207.131 694.152 204.547 694.152ZM215.29 694.736C215.29 695.232 215.002 695.528 214.546 695.528C214.09 695.528 213.81 695.232 213.81 694.736V693.672C212.554 693.544 211.666 693.144 211.018 692.688C210.738 692.496 210.586 692.248 210.586 691.928C210.586 691.488 210.922 691.16 211.37 691.16C211.602 691.16 211.794 691.264 211.986 691.368C212.658 691.792 213.434 692.16 214.658 692.16C216.162 692.16 216.93 691.624 216.93 690.632C216.93 689.76 216.13 689.344 214.41 689C211.802 688.48 210.786 687.6 210.786 685.864C210.786 684.208 212.002 683.104 213.81 682.88V681.976C213.81 681.472 214.09 681.184 214.546 681.184C215.002 681.184 215.29 681.472 215.29 681.976V682.88C216.346 682.992 217.106 683.32 217.634 683.68C217.922 683.864 218.074 684.088 218.074 684.408C218.074 684.816 217.746 685.184 217.314 685.184C217.09 685.184 216.89 685.08 216.682 684.984C216.122 684.648 215.474 684.392 214.514 684.392C213.106 684.392 212.434 684.952 212.434 685.832C212.434 686.664 213.034 687.088 214.826 687.432C217.482 687.928 218.578 688.84 218.578 690.584C218.578 692.296 217.338 693.48 215.29 693.68V694.736ZM226.671 693.216C226.671 693.752 226.359 694.072 225.855 694.072C225.351 694.072 225.039 693.752 225.039 693.216V684.528L222.479 685.856C222.239 685.984 222.055 686.024 221.887 686.024C221.535 686.024 221.191 685.696 221.191 685.28C221.191 684.952 221.407 684.728 221.719 684.56L224.879 682.888C225.231 682.712 225.535 682.56 225.831 682.56C226.343 682.56 226.671 682.888 226.671 683.48V693.216Z" fill="white"/>
</g>
<g filter="url(#filter10_d_2141_637991)">
<rect x="38.5" y="724.5" width="283" height="47" rx="7.5" stroke="#0B3C58" shape-rendering="crispEdges"/>
<path d="M134.289 742.584C134.793 742.584 135.113 742.904 135.113 743.464V753.192C135.113 753.752 134.793 754.072 134.289 754.072C133.785 754.072 133.465 753.752 133.465 753.192V743.464C133.465 742.904 133.785 742.584 134.289 742.584ZM139.193 746.288C139.065 746.728 138.833 746.864 138.553 746.864C138.153 746.864 137.825 746.632 137.825 746.272C137.825 746.176 137.833 746.088 137.881 745.904L138.625 743.136C138.745 742.688 138.961 742.456 139.321 742.456C139.737 742.456 140.089 742.688 140.089 743.104C140.089 743.184 140.073 743.344 140.025 743.52L139.193 746.288ZM142.996 754.072C142.508 754.072 142.196 753.76 142.196 753.224V743.312C142.196 742.776 142.508 742.464 142.996 742.464C143.484 742.464 143.796 742.776 143.796 743.312V753.224C143.796 753.76 143.484 754.072 142.996 754.072ZM147.368 754.072C146.88 754.072 146.568 753.76 146.568 753.224V743.312C146.568 742.776 146.88 742.464 147.368 742.464C147.856 742.464 148.168 742.776 148.168 743.312V753.224C148.168 753.76 147.856 754.072 147.368 754.072ZM161.306 742.464C161.794 742.464 162.106 742.776 162.106 743.312V752.64C162.106 752.968 162.01 753.128 161.794 753.28C161.266 753.624 159.994 754.152 158.538 754.152C156.426 754.152 155.082 752.84 154.898 750.944C154.842 750.296 154.842 749.256 154.898 748.616C155.082 746.712 156.426 745.408 158.41 745.408C159.178 745.408 159.978 745.6 160.506 745.864V743.312C160.506 742.776 160.81 742.464 161.306 742.464ZM156.498 750.712C156.594 751.832 157.314 752.592 158.586 752.592C159.25 752.592 160.09 752.392 160.506 752.096V747.456C160.09 747.168 159.25 746.96 158.586 746.96C157.314 746.96 156.602 747.72 156.498 748.848C156.442 749.448 156.442 750.152 156.498 750.712ZM168.208 754.152C166.128 754.152 164.688 752.8 164.496 750.88C164.432 750.272 164.432 749.28 164.488 748.68C164.672 746.752 166.128 745.408 168.208 745.408C170.288 745.408 171.752 746.752 171.928 748.68C171.984 749.28 171.984 750.272 171.928 750.88C171.736 752.8 170.288 754.152 168.208 754.152ZM166.08 750.664C166.184 751.808 167 752.592 168.208 752.592C169.424 752.592 170.232 751.808 170.344 750.664C170.392 750.096 170.392 749.456 170.344 748.888C170.232 747.744 169.424 746.96 168.208 746.96C167 746.96 166.192 747.744 166.08 748.888C166.024 749.456 166.024 750.096 166.08 750.664ZM179.422 742.376C179.982 742.376 180.398 742.8 180.398 743.352C180.398 743.92 179.982 744.344 179.422 744.344C178.878 744.344 178.454 743.92 178.454 743.352C178.454 742.8 178.878 742.376 179.422 742.376ZM178.63 753.224V746.328C178.63 745.792 178.942 745.48 179.43 745.48C179.926 745.48 180.23 745.792 180.23 746.328V753.224C180.23 753.76 179.926 754.072 179.43 754.072C178.942 754.072 178.63 753.76 178.63 753.224ZM183.73 743.664C184.218 743.664 184.53 743.976 184.53 744.512V745.552H186.786C187.346 745.552 187.634 745.84 187.634 746.296C187.634 746.76 187.346 747.048 186.786 747.048H184.53V751.336C184.53 752.224 184.898 752.632 185.722 752.632C186.178 752.632 186.498 752.528 186.754 752.44C186.938 752.376 187.074 752.32 187.266 752.32C187.618 752.32 187.93 752.616 187.93 753.04C187.93 753.456 187.69 753.68 187.29 753.832C186.826 754.008 186.25 754.152 185.626 754.152C184.002 754.152 182.93 753.2 182.93 751.488V744.512C182.93 743.976 183.234 743.664 183.73 743.664ZM194.811 754.072C194.323 754.072 194.011 753.76 194.011 753.224V743.312C194.011 742.776 194.323 742.464 194.811 742.464C195.299 742.464 195.611 742.776 195.611 743.312V753.224C195.611 753.76 195.299 754.072 194.811 754.072ZM200.975 754.152C198.919 754.152 197.735 753 197.735 751.432C197.735 750.08 198.791 748.856 200.935 748.856C201.655 748.856 202.279 748.944 203.063 749.16V748.456C203.063 747.392 202.503 746.88 201.167 746.88C200.551 746.88 199.935 747.048 199.567 747.192C199.351 747.28 199.151 747.352 198.967 747.352C198.591 747.352 198.287 747.056 198.287 746.656C198.279 746.312 198.471 746.056 198.911 745.88C199.455 745.648 200.335 745.408 201.295 745.408C203.399 745.408 204.615 746.376 204.615 748.48V752.656C204.615 752.968 204.535 753.112 204.311 753.272C203.823 753.608 202.591 754.152 200.975 754.152ZM199.271 751.432C199.271 752.296 199.975 752.792 201.127 752.792C201.815 752.792 202.535 752.592 203.063 752.312V750.368C202.335 750.152 201.767 750.056 201.119 750.056C199.879 750.056 199.271 750.656 199.271 751.432ZM207.952 743.664C208.44 743.664 208.752 743.976 208.752 744.512V745.552H211.008C211.568 745.552 211.856 745.84 211.856 746.296C211.856 746.76 211.568 747.048 211.008 747.048H208.752V751.336C208.752 752.224 209.12 752.632 209.944 752.632C210.4 752.632 210.72 752.528 210.976 752.44C211.16 752.376 211.296 752.32 211.488 752.32C211.84 752.32 212.152 752.616 212.152 753.04C212.152 753.456 211.912 753.68 211.512 753.832C211.048 754.008 210.472 754.152 209.848 754.152C208.224 754.152 207.152 753.2 207.152 751.488V744.512C207.152 743.976 207.456 743.664 207.952 743.664ZM217.301 754.152C215.157 754.152 213.717 752.816 213.533 750.896C213.477 750.296 213.469 749.336 213.525 748.76C213.709 746.808 215.125 745.424 217.221 745.424C219.405 745.424 220.709 746.848 220.709 748.912V749.416C220.709 750.24 220.557 750.368 219.797 750.368H215.029L215.045 750.768C215.125 751.92 215.989 752.68 217.333 752.68C218.045 752.68 218.613 752.536 219.101 752.336C219.349 752.24 219.501 752.16 219.717 752.16C220.101 752.16 220.373 752.416 220.381 752.832C220.389 753.232 220.077 753.472 219.765 753.624C219.117 753.928 218.261 754.152 217.301 754.152ZM215.029 749.176H219.213C219.333 747.672 218.477 746.824 217.181 746.824C215.933 746.824 215.133 747.656 215.045 748.88C215.037 748.976 215.037 749.08 215.029 749.176ZM223.727 754.072C223.239 754.072 222.927 753.76 222.927 753.224V748.12C222.927 746.432 223.943 745.408 225.615 745.408C226.159 745.408 226.615 745.472 226.959 745.568C227.423 745.704 227.735 745.952 227.735 746.392C227.735 746.88 227.391 747.16 227.055 747.16C226.895 747.16 226.783 747.136 226.663 747.104C226.375 747.032 226.103 746.984 225.743 746.984C224.927 746.984 224.527 747.384 224.527 748.2V753.224C224.527 753.76 224.223 754.072 223.727 754.072Z" fill="#0B3C58"/>
</g>
</g>
<defs>
<filter id="filter0_d_2141_637991" x="123.5" y="364" width="50" height="58" filterUnits="userSpaceOnUse" color-interpolation-filters="sRGB">
<feFlood flood-opacity="0" result="BackgroundImageFix"/>
<feColorMatrix in="SourceAlpha" type="matrix" values="0 0 0 0 0 0 0 0 0 0 0 0 0 0 0 0 0 0 127 0" result="hardAlpha"/>
<feOffset dx="4" dy="4"/>
<feGaussianBlur stdDeviation="2"/>
<feComposite in2="hardAlpha" operator="out"/>
<feColorMatrix type="matrix" values="0 0 0 0 0 0 0 0 0 0 0 0 0 0 0 0 0 0 0.25 0"/>
<feBlend mode="normal" in2="BackgroundImageFix" result="effect1_dropShadow_2141_637991"/>
<feBlend mode="normal" in="SourceGraphic" in2="effect1_dropShadow_2141_637991" result="shape"/>
</filter>
<filter id="filter1_d_2141_637991" x="132.5" y="381" width="32" height="32" filterUnits="userSpaceOnUse" color-interpolation-filters="sRGB">
<feFlood flood-opacity="0" result="BackgroundImageFix"/>
<feColorMatrix in="SourceAlpha" type="matrix" values="0 0 0 0 0 0 0 0 0 0 0 0 0 0 0 0 0 0 127 0" result="hardAlpha"/>
<feOffset dx="4" dy="4"/>
<feGaussianBlur stdDeviation="2"/>
<feComposite in2="hardAlpha" operator="out"/>
<feColorMatrix type="matrix" values="0 0 0 0 0 0 0 0 0 0 0 0 0 0 0 0 0 0 0.25 0"/>
<feBlend mode="normal" in2="BackgroundImageFix" result="effect1_dropShadow_2141_637991"/>
<feBlend mode="normal" in="SourceGraphic" in2="effect1_dropShadow_2141_637991" result="shape"/>
</filter>
<filter id="filter2_d_2141_637991" x="138.735" y="391" width="11.5294" height="11.5294" filterUnits="userSpaceOnUse" color-interpolation-filters="sRGB">
<feFlood flood-opacity="0" result="BackgroundImageFix"/>
<feColorMatrix in="SourceAlpha" type="matrix" values="0 0 0 0 0 0 0 0 0 0 0 0 0 0 0 0 0 0 127 0" result="hardAlpha"/>
<feOffset dy="3.7647"/>
<feGaussianBlur stdDeviation="1.88235"/>
<feComposite in2="hardAlpha" operator="out"/>
<feColorMatrix type="matrix" values="0 0 0 0 0 0 0 0 0 0 0 0 0 0 0 0 0 0 0.25 0"/>
<feBlend mode="normal" in2="BackgroundImageFix" result="effect1_dropShadow_2141_637991"/>
<feBlend mode="normal" in="SourceGraphic" in2="effect1_dropShadow_2141_637991" result="shape"/>
</filter>
<filter id="filter3_d_2141_637991" x="142.5" y="391" width="12" height="12" filterUnits="userSpaceOnUse" color-interpolation-filters="sRGB">
<feFlood flood-opacity="0" result="BackgroundImageFix"/>
<feColorMatrix in="SourceAlpha" type="matrix" values="0 0 0 0 0 0 0 0 0 0 0 0 0 0 0 0 0 0 127 0" result="hardAlpha"/>
<feOffset dx="4" dy="4"/>
<feGaussianBlur stdDeviation="2"/>
<feComposite in2="hardAlpha" operator="out"/>
<feColorMatrix type="matrix" values="0 0 0 0 0 0 0 0 0 0 0 0 0 0 0 0 0 0 0.25 0"/>
<feBlend mode="normal" in2="BackgroundImageFix" result="effect1_dropShadow_2141_637991"/>
<feBlend mode="normal" in="SourceGraphic" in2="effect1_dropShadow_2141_637991" result="shape"/>
</filter>
<filter id="filter4_d_2141_637991" x="127.618" y="363.059" width="33.7647" height="5.7647" filterUnits="userSpaceOnUse" color-interpolation-filters="sRGB">
<feFlood flood-opacity="0" result="BackgroundImageFix"/>
<feColorMatrix in="SourceAlpha" type="matrix" values="0 0 0 0 0 0 0 0 0 0 0 0 0 0 0 0 0 0 127 0" result="hardAlpha"/>
<feOffset dy="0.941175"/>
<feGaussianBlur stdDeviation="0.941175"/>
<feComposite in2="hardAlpha" operator="out"/>
<feColorMatrix type="matrix" values="0 0 0 0 0 0 0 0 0 0 0 0 0 0 0 0 0 0 0.25 0"/>
<feBlend mode="normal" in2="BackgroundImageFix" result="effect1_dropShadow_2141_637991"/>
<feBlend mode="normal" in="SourceGraphic" in2="effect1_dropShadow_2141_637991" result="shape"/>
</filter>
<filter id="filter5_d_2141_637991" x="204.07" y="380.438" width="55.8164" height="65.625" filterUnits="userSpaceOnUse" color-interpolation-filters="sRGB">
<feFlood flood-opacity="0" result="BackgroundImageFix"/>
<feColorMatrix in="SourceAlpha" type="matrix" values="0 0 0 0 0 0 0 0 0 0 0 0 0 0 0 0 0 0 127 0" result="hardAlpha"/>
<feOffset dx="1" dy="4"/>
<feGaussianBlur stdDeviation="2"/>
<feComposite in2="hardAlpha" operator="out"/>
<feColorMatrix type="matrix" values="0 0 0 0 0 0 0 0 0 0 0 0 0 0 0 0 0 0 0.25 0"/>
<feBlend mode="normal" in2="BackgroundImageFix" result="effect1_dropShadow_2141_637991"/>
<feBlend mode="normal" in="SourceGraphic" in2="effect1_dropShadow_2141_637991" result="shape"/>
</filter>
<filter id="filter6_d_2141_637991" x="128" y="457" width="48" height="48" filterUnits="userSpaceOnUse" color-interpolation-filters="sRGB">
<feFlood flood-opacity="0" result="BackgroundImageFix"/>
<feColorMatrix in="SourceAlpha" type="matrix" values="0 0 0 0 0 0 0 0 0 0 0 0 0 0 0 0 0 0 127 0" result="hardAlpha"/>
<feOffset dx="1" dy="4"/>
<feGaussianBlur stdDeviation="2"/>
<feComposite in2="hardAlpha" operator="out"/>
<feColorMatrix type="matrix" values="0 0 0 0 0 0 0 0 0 0 0 0 0 0 0 0 0 0 0.25 0"/>
<feBlend mode="normal" in2="BackgroundImageFix" result="effect1_dropShadow_2141_637991"/>
<feBlend mode="normal" in="SourceGraphic" in2="effect1_dropShadow_2141_637991" result="shape"/>
</filter>
<filter id="filter7_d_2141_637991" x="90.0039" y="386" width="51.1523" height="51.1562" filterUnits="userSpaceOnUse" color-interpolation-filters="sRGB">
<feFlood flood-opacity="0" result="BackgroundImageFix"/>
<feColorMatrix in="SourceAlpha" type="matrix" values="0 0 0 0 0 0 0 0 0 0 0 0 0 0 0 0 0 0 127 0" result="hardAlpha"/>
<feOffset dx="1" dy="4"/>
<feGaussianBlur stdDeviation="2"/>
<feComposite in2="hardAlpha" operator="out"/>
<feColorMatrix type="matrix" values="0 0 0 0 0 0 0 0 0 0 0 0 0 0 0 0 0 0 0.25 0"/>
<feBlend mode="normal" in2="BackgroundImageFix" result="effect1_dropShadow_2141_637991"/>
<feBlend mode="normal" in="SourceGraphic" in2="effect1_dropShadow_2141_637991" result="shape"/>
</filter>
<filter id="filter8_d_2141_637991" x="137.32" y="303" width="76.0555" height="45.954" filterUnits="userSpaceOnUse" color-interpolation-filters="sRGB">
<feFlood flood-opacity="0" result="BackgroundImageFix"/>
<feColorMatrix in="SourceAlpha" type="matrix" values="0 0 0 0 0 0 0 0 0 0 0 0 0 0 0 0 0 0 127 0" result="hardAlpha"/>
<feOffset dx="1.22667" dy="4.90668"/>
<feGaussianBlur stdDeviation="2.45334"/>
<feComposite in2="hardAlpha" operator="out"/>
<feColorMatrix type="matrix" values="0 0 0 0 0 0 0 0 0 0 0 0 0 0 0 0 0 0 0.25 0"/>
<feBlend mode="normal" in2="BackgroundImageFix" result="effect1_dropShadow_2141_637991"/>
<feBlend mode="normal" in="SourceGraphic" in2="effect1_dropShadow_2141_637991" result="shape"/>
</filter>
<filter id="filter9_d_2141_637991" x="34" y="662" width="292" height="56" filterUnits="userSpaceOnUse" color-interpolation-filters="sRGB">
<feFlood flood-opacity="0" result="BackgroundImageFix"/>
<feColorMatrix in="SourceAlpha" type="matrix" values="0 0 0 0 0 0 0 0 0 0 0 0 0 0 0 0 0 0 127 0" result="hardAlpha"/>
<feOffset dy="2"/>
<feGaussianBlur stdDeviation="2"/>
<feComposite in2="hardAlpha" operator="out"/>
<feColorMatrix type="matrix" values="0 0 0 0 0 0 0 0 0 0 0 0 0 0 0 0 0 0 0.12 0"/>
<feBlend mode="normal" in2="BackgroundImageFix" result="effect1_dropShadow_2141_637991"/>
<feBlend mode="normal" in="SourceGraphic" in2="effect1_dropShadow_2141_637991" result="shape"/>
</filter>
<filter id="filter10_d_2141_637991" x="34" y="722" width="292" height="56" filterUnits="userSpaceOnUse" color-interpolation-filters="sRGB">
<feFlood flood-opacity="0" result="BackgroundImageFix"/>
<feColorMatrix in="SourceAlpha" type="matrix" values="0 0 0 0 0 0 0 0 0 0 0 0 0 0 0 0 0 0 127 0" result="hardAlpha"/>
<feOffset dy="2"/>
<feGaussianBlur stdDeviation="2"/>
<feComposite in2="hardAlpha" operator="out"/>
<feColorMatrix type="matrix" values="0 0 0 0 0 0 0 0 0 0 0 0 0 0 0 0 0 0 0.12 0"/>
<feBlend mode="normal" in2="BackgroundImageFix" result="effect1_dropShadow_2141_637991"/>
<feBlend mode="normal" in="SourceGraphic" in2="effect1_dropShadow_2141_637991" result="shape"/>
</filter>
<linearGradient id="paint0_linear_2141_637991" x1="180" y1="1.75387e-05" x2="180" y2="800" gradientUnits="userSpaceOnUse">
<stop stop-color="#F0F0E0"/>
<stop offset="1" stop-color="#ACDADB"/>
</linearGradient>
<clipPath id="clip0_2141_637991">
<rect width="360" height="800" fill="white"/>
</clipPath>
</defs>
</svg>
