<svg width="88" height="48" viewBox="0 0 88 48" fill="none" xmlns="http://www.w3.org/2000/svg">
<path d="M54.27 0.603444C54.97 0.533444 56.55 0.293444 58.37 0.203444C60.18 0.0534438 62.2299 0.0334438 63.8199 0.00344376C71.1899 -0.0765562 78.6599 1.23344 85.3399 4.33344C86.3699 4.84344 88.19 5.55344 87.28 7.62344C86.33 9.78344 84.7199 10.6334 83.0799 9.92344C79.0499 8.29344 74.78 6.78344 70.37 6.71344C63.98 6.58344 57.59 6.61344 51.38 8.03344C48.6 8.67344 45.8799 9.50344 43.2099 10.4734C40.5499 11.4734 37.98 12.7034 35.52 14.1234C30.93 16.8834 26.9699 20.4934 23.2399 24.2234C19.9999 27.4134 16.6699 30.6534 14.0699 34.5034C13.7699 34.9534 13.5299 35.5134 13.2999 36.0834C13.0899 36.6634 12.8799 37.2634 12.5799 37.7734C12.0599 38.6034 11.37 40.0834 10.76 40.8834C10.49 41.2234 10.24 41.5934 10.15 42.0034C9.77998 43.8834 8.81999 44.0734 6.65999 42.5334C6.18999 42.1934 5.42997 42.0834 5.25997 41.4734C5.24997 41.4434 5.23994 41.3934 5.22994 41.3734C4.78994 40.3834 4.8999 39.5734 5.1899 38.8434C5.5099 38.1234 6.00991 37.4934 6.32992 36.7734C9.60991 29.7334 14.3099 23.3934 19.9199 18.0034C23.3799 14.7034 27.2699 11.9134 31.2299 9.22344C32.2999 8.46344 33.3199 7.56344 34.5899 7.12344L34.5699 7.13344C35.7699 6.41344 36.99 5.72344 38.27 5.14344C43.15 3.09344 48.47 1.40344 53.52 0.823444C53.73 0.773444 53.98 0.643444 54.27 0.603444Z" fill="black"/>
<path d="M12.4499 38.2041C12.9999 38.0141 14.9699 37.4141 16.1899 36.9341C19.0299 35.8241 21.9 34.7841 25 34.4141C25.49 34.3541 26.25 34.0941 27.01 36.2241C27.8 38.4441 27.7599 39.9141 26.9599 40.1141C24.9999 40.6041 22.9199 40.7841 21.1799 41.8541C18.6399 43.4141 15.7899 44.1141 13.0899 45.2341C12.0299 45.6741 10.96 46.0641 9.89 46.4541L9.23997 46.6841C8.98997 46.7641 8.74998 46.8441 8.49998 46.9141C7.99998 47.0541 7.49999 47.1541 7.00999 47.1941C6.01999 47.2941 5.03999 47.1641 4.12999 46.7941C3.60999 46.5541 3.09002 46.2841 2.66002 45.8941C1.85002 45.2141 1.23993 44.3241 0.819929 43.3041C0.399929 42.3041 0.199978 41.0741 0.119978 39.9841C0.0799778 39.6041 0.0699094 39.1741 0.0499094 38.8741L0.00999241 37.9441C-0.0100076 37.3241 2.17073e-05 36.7141 0.0400217 36.0941C0.170022 33.9741 0.859914 31.8841 1.17991 29.7741C1.25991 29.2741 0.869914 28.6541 0.929914 28.1041C0.979914 27.6541 1.03999 26.8941 1.25999 26.4641C1.34999 26.2741 1.47001 26.0841 1.40001 25.8841C1.06001 24.9941 1.88994 24.8041 4.45994 25.2341C5.01994 25.3241 5.77001 25.2941 6.15001 25.5241C6.17001 25.5341 6.19995 25.5541 6.21995 25.5641C7.74995 26.2841 6.98997 26.9041 6.98997 27.5641C6.99997 30.8141 6.85 34.0541 6.77 37.3041L6.70994 38.7941C6.68994 39.3041 6.65991 39.7741 6.67991 40.0541C6.69991 40.2341 6.78997 40.4441 6.98997 40.4341C7.10997 40.4441 7.34001 40.1541 7.28001 40.3141L7.27 40.3341C7.36 40.2641 7.41002 40.0941 7.41002 40.0941H7.4199L7.42991 40.0841C7.45991 40.0741 7.35991 40.1041 7.54991 40.0341L9.08995 39.4241C10.1199 39.0241 11.15 38.6541 12.16 38.3941C12.27 38.3741 12.3399 38.2441 12.4499 38.2041Z" fill="black"/>
</svg>
