<svg width="37" height="115" viewBox="0 0 37 115" fill="none" xmlns="http://www.w3.org/2000/svg">
<path d="M31.0287 75.9286C30.4084 77.5332 27.7789 82.9675 25.9315 86.3387C21.7513 94.2002 16.4923 101.428 10.141 107.456C9.12964 108.386 7.60587 110.126 5.35393 108.049C3.02109 105.892 2.60306 103.559 4.1538 101.941C7.87557 97.976 11.7861 93.9981 14.2808 89.1706C17.9216 82.1451 21.8187 75.3893 24.2055 67.9862C25.2573 64.6825 26.1203 61.3381 26.808 57.9534C27.4553 54.5553 27.7924 51.1709 27.8194 47.7592C27.725 41.3271 26.2417 35.0566 24.3538 29.1099C22.7626 23.9722 21.1175 18.6996 18.07 14.1553C17.7059 13.6294 17.18 13.1441 16.6541 12.6451C16.1012 12.1732 15.5079 11.7281 15.0764 11.1887C14.3886 10.2583 12.9997 8.97737 12.366 7.9795C12.1097 7.53451 11.7861 7.1299 11.3411 6.90066C9.31843 5.92977 9.50721 4.64857 12.2041 2.35618C12.811 1.85724 13.2425 0.927026 14.0515 0.900057C14.0785 0.900057 14.1594 0.886559 14.1864 0.886559C15.5753 0.643835 16.5192 1.06164 17.3013 1.66845C18.0295 2.32919 18.5959 3.19238 19.324 3.86662C26.417 10.6494 31.1501 19.5223 33.7931 28.7727C35.3978 34.4902 36.0315 40.3695 36.463 46.2758C36.6248 47.894 36.962 49.5389 36.6114 51.1841V51.1574C36.6248 52.8834 36.5844 54.6363 36.3686 56.3488C35.3978 62.7675 33.7931 69.4021 31.2715 75.0252C31.1636 75.2409 31.1636 75.5914 31.0287 75.9286Z" fill="black"/>
<path d="M13.9298 101.671C14.631 101.348 17.1527 100.309 18.7034 99.527C22.3173 97.7065 25.9581 95.967 30.017 95.1175C30.6508 94.9826 31.6217 94.5378 32.9162 97.3021C34.2647 100.174 34.413 102.156 33.3612 102.521C30.8396 103.397 28.1157 103.896 25.9581 105.528C22.8162 107.914 19.1349 109.195 15.7233 111.002L14.5366 111.609L12.433 112.634C11.0306 113.349 9.57429 113.956 8.30673 114.171C7.03918 114.401 5.866 114.387 4.73329 114.077C3.61406 113.807 2.42741 113.012 1.65879 112.054L1.57788 111.946C0.903648 111.029 0.526076 110.153 0.269867 109.034C0.000173926 107.928 0.0271359 106.445 0.283344 104.907L0.620461 102.588L0.795768 101.402L0.876673 100.714C0.971065 99.9047 1.10592 99.0956 1.26774 98.3C1.84758 95.5491 3.18255 92.9466 4.0186 90.2497C4.22087 89.6159 3.81634 88.7257 4.00512 88.0245C4.16694 87.4447 4.38269 86.4737 4.76026 85.9343C4.92208 85.7051 5.12435 85.4761 5.05693 85.2064C4.77375 83.9658 5.91994 83.8847 9.26413 84.9635C9.9923 85.1927 11.0037 85.3006 11.4621 85.6782C11.4891 85.6917 11.5161 85.7187 11.543 85.7457C13.4444 86.9998 12.3117 87.6471 12.1903 88.5236C11.57 92.7848 10.7474 97.0054 10.0058 101.24L9.6552 103.074C9.62823 103.208 9.60125 103.33 9.60125 103.451C9.58776 103.694 9.58776 103.936 9.83049 103.923C9.88442 103.923 10.0058 103.855 10.1137 103.774C10.289 103.667 10.4103 103.532 10.2755 103.761C10.4508 103.64 10.6126 103.343 10.6126 103.357C10.6396 103.37 10.68 103.276 10.6665 103.249V103.235L11.6374 102.777C12.2847 102.48 12.9454 102.21 13.6062 101.968C13.7141 101.927 13.7815 101.739 13.9298 101.671Z" fill="black"/>
</svg>
