<svg width="50" height="161" viewBox="0 0 50 161" fill="none" xmlns="http://www.w3.org/2000/svg">
<path d="M41.3808 106.949C40.8953 108.068 39.8435 110.63 38.4411 113.435C37.7669 114.851 37.0387 116.348 36.2701 117.777C35.515 119.206 34.8272 120.622 34.1395 121.809C28.1254 133.001 20.6279 143.33 11.8359 152.257C10.447 153.633 8.24897 156.127 6.024 154.051C3.70464 151.88 3.73161 149.035 5.95658 146.634C11.2965 140.755 16.7173 134.768 20.574 127.837C26.2105 117.764 31.7662 107.731 35.3397 96.9027C36.9174 92.0482 38.1984 87.1129 39.1963 82.137C40.1402 77.1342 40.6526 72.118 40.7335 67.0748C40.6796 57.5816 38.8187 48.2231 35.9869 39.3502C33.6136 31.6909 30.7953 23.9911 26.1566 17.3297C25.6037 16.5476 24.8756 15.7925 24.1339 15.0104C23.3518 14.2687 22.5157 13.5676 21.855 12.772C20.8167 11.3966 18.7266 9.48181 17.7017 8.09289C17.2702 7.47259 16.7443 6.91953 16.124 6.54195C13.2653 4.88334 13.2248 3.41372 16.2049 1.36406C16.8792 0.919063 17.2432 -0.0787492 18.2411 0.0695821C18.2816 0.0695821 18.3625 0.0830799 18.4029 0.0830799C20.102 0.0965645 21.3695 0.770666 22.4618 1.63368C23.4866 2.57761 24.3362 3.72382 25.3745 4.68123C35.3397 14.3362 42.028 26.9039 45.7363 40.0515C47.9883 48.1692 48.9457 56.5431 49.3772 64.9171C49.5525 67.2095 49.8492 69.5425 49.4581 71.8619V71.8214C49.4716 73.0485 49.3907 74.2621 49.3232 75.4892C49.2423 76.7163 49.1884 77.9434 48.9996 79.157C47.6242 88.2591 45.2509 97.6444 41.7718 105.708C41.637 105.991 41.583 106.477 41.3808 106.949Z" fill="black"/>
<path d="M14.6119 147.673C15.3131 147.349 17.8348 146.311 19.3855 145.529C22.9859 143.708 26.6403 141.969 30.6991 141.119C31.3329 140.985 32.3038 140.54 33.5983 143.304C34.9468 146.176 35.0951 148.158 34.0433 148.522C31.5217 149.399 28.7978 149.898 26.6403 151.53C23.4983 153.916 19.817 155.197 16.4054 157.004L15.2188 157.611L13.1151 158.636C11.7127 159.351 10.2564 159.958 8.98884 160.173C7.72129 160.403 6.54812 160.389 5.41541 160.079C4.29618 159.809 3.10953 159.014 2.34091 158.056L2.26 157.948C1.58577 157.031 1.2082 156.155 0.951987 155.036C0.682294 153.93 0.709259 152.447 0.978952 150.909L1.31607 148.59L1.49137 147.403L1.57228 146.716C1.66667 145.907 1.80152 145.098 1.96334 144.302C2.54318 141.551 3.87816 138.949 4.71421 136.252C4.91648 135.618 4.51194 134.728 4.70072 134.026C4.86254 133.447 5.07829 132.476 5.45586 131.936C5.61768 131.707 5.81995 131.478 5.75252 131.208C5.46935 129.968 6.61555 129.887 9.95974 130.965C10.6879 131.195 11.6993 131.303 12.1577 131.68C12.1712 131.694 12.2117 131.721 12.2386 131.748C14.14 133.002 13.0073 133.649 12.8859 134.526C12.2656 138.787 11.443 143.007 10.7014 147.241L10.3508 149.076C10.3238 149.21 10.2969 149.331 10.2969 149.453C10.2834 149.696 10.2834 149.938 10.5261 149.925C10.58 149.925 10.7014 149.857 10.8093 149.776C10.9846 149.669 11.1059 149.534 10.9711 149.763C11.1464 149.642 11.3082 149.345 11.3082 149.359C11.3352 149.372 11.3756 149.278 11.3621 149.251V149.237L12.333 148.779C12.9803 148.482 13.641 148.212 14.3018 147.97C14.3962 147.929 14.4636 147.741 14.6119 147.673Z" fill="black"/>
</svg>
