<svg width="80" height="40" viewBox="0 0 80 40" fill="none" xmlns="http://www.w3.org/2000/svg">
<path d="M34.7227 15.0552C35.7341 14.9743 36.7454 14.7855 37.7568 14.8259C41.5729 14.9473 45.4026 15.1361 49.2187 15.2709C49.4075 15.2844 49.6099 15.1091 49.8121 15.0282L49.7986 15.0147C52.1045 15.1091 54.4104 15.2844 56.7298 15.2979C62.0832 15.3249 67.4231 15.4597 72.7361 16.552C73.5721 16.7273 74.988 16.7677 74.8801 19.8152C74.7722 22.9841 73.7878 24.8181 72.3315 24.6697C68.8254 24.3056 65.306 23.4831 61.7865 23.955C56.6489 24.6428 51.5382 24.0899 46.4275 24.1438C41.8292 24.1843 37.2443 23.9146 32.646 23.982C28.3309 24.0494 24.0024 24.6428 19.6873 24.5079C15.9655 24.4 12.2572 23.5235 8.54895 23.1594C7.67245 23.0785 6.74205 22.8897 5.89251 24.0359L5.90601 24.0764C4.92163 22.6605 3.68109 25.2361 2.75065 23.1594C2.41353 23.092 2.06291 22.8897 1.7258 22.9841C0.188547 23.4696 -0.18901 22.3504 0.39083 18.8848C0.525677 18.1162 0.417701 17.1183 0.795271 16.5924L0.822267 16.6464L0.808769 16.5924C1.90103 14.2596 3.15523 15.4192 4.31491 15.3923C10.0054 15.2844 15.6958 15.3788 21.3864 15.4058C24.8789 15.4192 28.3715 15.635 31.864 15.2979C32.8214 15.2035 33.7788 14.772 34.7497 15.0686L34.7227 15.0552Z" fill="#4633FF"/>
<path d="M77.4966 15.232C78.5484 16.149 79.3575 17.1199 79.6676 18.4144L79.8026 19.1965C79.9374 20.4506 79.7081 21.6912 79.2362 22.716C78.7642 23.7543 78.0495 24.6848 77.0247 25.5748C75.9998 26.4782 74.5975 27.1929 73.3299 27.9615L70.7948 29.4449C70.6599 29.5258 70.606 29.755 70.5117 29.9168L70.5386 29.9303C68.8531 30.9012 67.127 31.8047 65.4819 32.843C61.6792 35.2433 57.8226 37.5626 53.4805 39.0459C52.8063 39.2752 51.7679 39.882 50.2172 37.2525C48.599 34.5151 48.3294 32.5194 49.4351 31.9935C52.1186 30.7124 55.0447 29.7955 57.2831 27.8132C58.9148 26.3569 60.7083 25.1567 62.5557 24.0375L65.3201 22.3789L66.6954 21.5428L67.3831 21.1113L67.5584 21.0035C67.6124 20.9765 67.5854 20.9765 67.6124 20.963L67.6664 20.9091C67.8282 20.7607 67.99 20.6394 68.1653 20.5315C68.3271 20.4236 68.5159 20.2483 68.462 20.0191C68.3676 19.7359 68.0169 19.655 67.7607 19.5606C67.6798 19.5336 67.599 19.5201 67.5181 19.5201C67.4776 19.5201 67.4505 19.5201 67.3831 19.5067L66.7629 19.2235L64.2547 18.1177C62.5826 17.3896 60.924 16.6344 59.3598 15.7175C56.6494 14.1398 54.3165 11.9013 51.7409 10.1079C51.1341 9.68983 50.5273 9.15044 49.3541 9.81119L49.3406 9.85165C49.2867 8.22 47.1428 9.98649 47.4394 7.7885C47.2237 7.59971 47.0618 7.27608 46.7652 7.23562C45.3897 7.04684 45.6459 5.92761 47.736 3.10932C48.1945 2.48902 48.5991 1.55858 49.125 1.26192C51.0533 -0.356239 51.4308 1.15404 52.2939 1.59904C56.5685 3.75658 60.7353 6.10291 64.956 8.38182L68.7991 10.5259C69.4463 10.8765 70.0935 11.2271 70.7543 11.5372L73.667 12.9531C75.0155 13.5734 76.8628 14.1128 77.4966 15.2185V15.232Z" fill="#4633FF"/>
</svg>
