<svg width="52" height="43" viewBox="0 0 52 43" fill="none" xmlns="http://www.w3.org/2000/svg">
<path d="M12.4499 33.2725C12.9999 33.0825 14.9699 32.4825 16.1899 32.0025C19.0299 30.8925 21.9 29.8525 25 29.4825C25.49 29.4225 26.25 29.1625 27.01 31.2925C27.8 33.5125 27.7599 34.9825 26.9599 35.1825C24.9999 35.6725 22.9199 35.8525 21.1799 36.9225C18.6399 38.4825 15.7899 39.1825 13.0899 40.3025C12.0299 40.7425 10.96 41.1325 9.89 41.5225L9.23997 41.7525C8.98997 41.8325 8.74998 41.9125 8.49998 41.9825C7.99998 42.1225 7.49999 42.2225 7.00999 42.2625C6.01999 42.3625 5.03999 42.2325 4.12999 41.8625C3.60999 41.6225 3.09002 41.3525 2.66002 40.9625C1.85002 40.2825 1.23993 39.3925 0.819929 38.3725C0.399929 37.3725 0.199978 36.1425 0.119978 35.0525C0.0799778 34.6725 0.0699094 34.2425 0.0499094 33.9425L0.00999241 33.0125C-0.0100076 32.3925 2.17073e-05 31.7825 0.0400217 31.1625C0.170022 29.0425 0.859914 26.9525 1.17991 24.8425C1.25991 24.3425 0.869914 23.7225 0.929914 23.1725C0.979914 22.7225 1.03999 21.9625 1.25999 21.5325C1.34999 21.3425 1.47001 21.1525 1.40001 20.9525C1.06001 20.0625 1.88994 19.8725 4.45994 20.3025C5.01994 20.3925 5.77001 20.3625 6.15001 20.5925C6.17001 20.6025 6.19995 20.6225 6.21995 20.6325C7.74995 21.3525 6.98997 21.9725 6.98997 22.6325C6.99997 25.8825 6.85 29.1225 6.77 32.3725L6.70994 33.8625C6.68994 34.3725 6.65991 34.8425 6.67991 35.1225C6.69991 35.3025 6.78997 35.5125 6.98997 35.5025C7.10997 35.5125 7.34001 35.2225 7.28001 35.3825L7.27 35.4025C7.36 35.3325 7.41002 35.1625 7.41002 35.1625H7.4199L7.42991 35.1525C7.45991 35.1425 7.35991 35.1725 7.54991 35.1025L9.08995 34.4925C10.1199 34.0925 11.15 33.7225 12.16 33.4625C12.27 33.4525 12.3399 33.3125 12.4499 33.2725Z" fill="black"/>
<path d="M30.5197 5.50293C31.2697 5.05293 34.1396 3.84293 35.9496 3.04293C40.1696 1.22293 44.7196 -0.00707049 49.3396 0.00292951C50.0596 0.00292951 51.2596 -0.167069 51.4996 2.08293C51.7496 4.42293 51.1996 5.90293 50.0996 5.98293C49.4296 6.04293 48.7496 6.04293 48.0696 6.11293L46.0397 6.36293C44.6797 6.51293 43.3797 6.94293 42.1497 7.51293C38.5997 9.30293 34.9196 10.6129 31.5496 12.6829C28.5696 14.5629 25.6397 16.5429 23.0297 18.9129C20.6497 21.2229 18.6797 23.8929 16.6397 26.4229C15.7197 27.4929 14.8296 28.5829 13.8296 29.6029C12.9496 30.7029 11.9596 31.7729 11.1796 32.9629C10.8196 33.5329 10.7996 34.4429 10.4196 35.0629C10.0796 35.5729 9.67963 36.4929 9.23963 36.9529C9.05963 37.1529 8.84958 37.3529 8.81958 37.6229C8.68958 38.8329 7.79959 38.8129 5.57959 37.4529C5.08959 37.1529 4.35964 36.9629 4.12964 36.5329C4.11964 36.5129 4.0996 36.4829 4.0896 36.4629C3.0396 34.9829 4.11963 34.3629 4.48963 33.4629C6.45963 29.0429 9.11957 24.9429 12.1796 21.2029C12.6496 20.6329 13.1096 20.0429 13.6196 19.5029L15.1497 17.8829C16.1297 16.7629 17.2296 15.7729 18.2096 14.6329C18.7396 14.0029 19.1596 13.2429 19.9396 12.8729L19.9296 12.8829C20.5496 12.2829 21.1296 11.6029 21.8096 11.0729C24.4696 9.16293 27.2196 7.06293 30.1296 5.80293C30.2596 5.76293 30.3597 5.59293 30.5197 5.50293Z" fill="black"/>
</svg>
