<svg width="118" height="40" viewBox="0 0 118 40" fill="none" xmlns="http://www.w3.org/2000/svg">
<path d="M52.1849 14.6946C53.7087 14.6272 55.246 14.4519 56.7698 14.4924C62.5412 14.6542 68.3126 14.8834 74.084 15.0722C74.3807 15.0857 74.6774 14.9239 74.974 14.8295L74.9471 14.816C78.4396 14.9374 81.9186 15.1262 85.4112 15.1666C93.4885 15.261 101.566 15.4498 109.589 16.6095C110.843 16.7848 112.987 16.8522 112.866 19.8997C112.745 23.0686 111.275 24.8891 109.077 24.7272C103.764 24.3227 98.4508 23.4597 93.1513 23.8912C85.3977 24.525 77.6845 23.9047 69.9578 23.9047C63.0132 23.8912 56.082 23.5676 49.1374 23.5945C42.6243 23.608 36.0842 24.1474 29.5711 23.9721C23.948 23.8238 18.3519 22.9068 12.7288 22.4888C11.4073 22.3944 10.0049 22.1921 8.72391 23.3248L8.7509 23.3653C7.25411 21.9359 5.40665 24.498 3.97728 22.4079C3.46486 22.3405 2.93893 22.1247 2.42651 22.2191C0.10715 22.6911 -0.486201 21.5718 0.376817 18.1063C0.565602 17.3377 0.390374 16.3398 0.95673 15.8274L0.997223 15.8813L0.983725 15.8274C2.60188 13.508 4.5031 14.6812 6.25611 14.6677C14.8458 14.6272 23.4356 14.789 32.0388 14.8834C37.3113 14.9374 42.5839 15.1936 47.8564 14.8969C49.2993 14.816 50.7556 14.398 52.2119 14.6946H52.1849Z" fill="#4633FF"/>
<path d="M115.497 15.3297C116.548 16.2466 117.357 17.2175 117.668 18.5121L117.803 19.2942C117.937 20.5483 117.708 21.8023 117.236 22.8137C116.764 23.852 116.05 24.7824 115.025 25.6724C114 26.5759 112.597 27.2906 111.33 28.0592L108.795 29.5425C108.66 29.6234 108.606 29.8527 108.512 30.0145L108.539 30.028C106.853 30.9989 105.127 31.9023 103.482 32.9407C99.6792 35.3409 95.8226 37.6603 91.4805 39.1436C90.8063 39.3728 89.7679 39.9796 88.2172 37.3501C86.599 34.6128 86.3294 32.617 87.4351 32.0911C90.1186 30.8101 93.0447 29.9066 95.2831 27.9109C96.9148 26.4545 98.7083 25.2544 100.556 24.1352L103.32 22.4766L104.695 21.6405L105.383 21.209L105.558 21.1011C105.612 21.0607 105.585 21.0742 105.612 21.0607L105.666 21.0067C105.828 20.8584 105.99 20.737 106.165 20.6292C106.327 20.5213 106.516 20.346 106.462 20.1167C106.368 19.8336 106.017 19.7527 105.761 19.6583C105.68 19.6313 105.599 19.6178 105.518 19.6178C105.478 19.6178 105.451 19.6178 105.383 19.6043L104.763 19.3211L102.255 18.2154C100.583 17.4872 98.924 16.7321 97.3598 15.8151C94.6494 14.2374 92.3165 11.999 89.7409 10.2055C89.1341 9.7875 88.5273 9.24811 87.3541 9.90886L87.3406 9.94931C87.2867 8.31766 85.1428 10.0842 85.4394 7.88616C85.2237 7.69737 85.0618 7.37373 84.7652 7.33328C83.3897 7.1445 83.6459 6.02527 85.736 3.20698C86.1945 2.58668 86.5991 1.65624 87.125 1.35958C89.0533 -0.258583 89.4308 1.2517 90.2939 1.69669C94.5685 3.85424 98.7353 6.20058 102.956 8.47948L106.799 10.6235C107.446 10.9741 108.094 11.3247 108.754 11.6349L111.667 13.0508C113.015 13.6711 114.863 14.2105 115.497 15.3162V15.3297Z" fill="#4633FF"/>
</svg>
