<svg width="360" height="800" viewBox="0 0 360 800" fill="none" xmlns="http://www.w3.org/2000/svg">
<rect width="360" height="800" fill="#F3F3F3"/>
<path opacity="0.44" fill-rule="evenodd" clip-rule="evenodd" d="M353 8L353.46 8.30662C354.11 8.73981 354.5 9.46907 354.5 10.25C354.5 11.0309 354.11 11.7602 353.46 12.1934L353 12.5V8ZM330 4.5H350C351.105 4.5 352 5.39543 352 6.5V14C352 15.1046 351.105 16 350 16H330C328.895 16 328 15.1046 328 14V6.5C328 5.39543 328.895 4.5 330 4.5ZM330 5.5C329.448 5.5 329 5.94772 329 6.5V14C329 14.5523 329.448 15 330 15H350C350.552 15 351 14.5523 351 14V6.5C351 5.94772 350.552 5.5 350 5.5H330Z" fill="#323232"/>
<path fill-rule="evenodd" clip-rule="evenodd" d="M331 6.5H346V14H331C330.448 14 330 13.5523 330 13V7.5C330 6.94772 330.448 6.5 331 6.5Z" fill="#323232"/>
<path d="M166.258 14H167.77V5.54492H166.264L164.055 7.0918V8.54492L166.158 7.06836H166.258V14Z" fill="#323232"/>
<path d="M173.125 14.2051C175.275 14.2051 176.553 12.5234 176.553 9.67578C176.553 8.60352 176.348 7.70117 175.955 7.00391C175.387 5.91992 174.408 5.33398 173.172 5.33398C171.332 5.33398 170.031 6.57031 170.031 8.30469C170.031 9.93359 171.203 11.1172 172.814 11.1172C173.805 11.1172 174.607 10.6543 175.006 9.85156H175.023C175.023 9.85156 175.047 9.85156 175.053 9.85156C175.064 9.85156 175.105 9.85156 175.105 9.85156C175.105 11.7852 174.373 12.9395 173.137 12.9395C172.41 12.9395 171.848 12.541 171.654 11.9023H170.148C170.4 13.291 171.578 14.2051 173.125 14.2051ZM173.178 9.91602C172.205 9.91602 171.514 9.22461 171.514 8.25781C171.514 7.31445 172.24 6.59375 173.184 6.59375C174.127 6.59375 174.854 7.32617 174.854 8.28125C174.854 9.22461 174.145 9.91602 173.178 9.91602Z" fill="#323232"/>
<path d="M179.207 13.1035C179.764 13.1035 180.145 12.7051 180.145 12.1777C180.145 11.6445 179.764 11.252 179.207 11.252C178.656 11.252 178.27 11.6445 178.27 12.1777C178.27 12.7051 178.656 13.1035 179.207 13.1035ZM179.207 8.70898C179.764 8.70898 180.145 8.31641 180.145 7.78906C180.145 7.25586 179.764 6.86328 179.207 6.86328C178.656 6.86328 178.27 7.25586 178.27 7.78906C178.27 8.31641 178.656 8.70898 179.207 8.70898Z" fill="#323232"/>
<path d="M185.113 14.2109C187.135 14.2109 188.336 12.5703 188.336 9.77539C188.336 6.96875 187.117 5.33398 185.113 5.33398C183.104 5.33398 181.885 6.96875 181.885 9.76367C181.885 12.5703 183.086 14.2109 185.113 14.2109ZM185.113 12.957C184.041 12.957 183.414 11.8438 183.414 9.76367C183.414 7.70117 184.053 6.59375 185.113 6.59375C186.174 6.59375 186.807 7.69531 186.807 9.76367C186.807 11.8438 186.186 12.957 185.113 12.957Z" fill="#323232"/>
<path d="M189.906 8.01758V8.04102H191.324V8.01758C191.324 7.15625 191.922 6.57617 192.807 6.57617C193.639 6.57617 194.248 7.11523 194.248 7.85938C194.248 8.45703 193.961 8.89648 192.807 10.0684L189.988 12.9512V14H195.859V12.7168H192.062V12.6172L193.832 10.8418C195.268 9.42383 195.73 8.67383 195.73 7.76562C195.73 6.35352 194.523 5.33398 192.854 5.33398C191.119 5.33398 189.906 6.43555 189.906 8.01758Z" fill="#323232"/>
<path fill-rule="evenodd" clip-rule="evenodd" d="M21.5 5C20.9477 5 20.5 5.44772 20.5 6V14C20.5 14.5523 20.9477 15 21.5 15H22.5C23.0523 15 23.5 14.5523 23.5 14V6C23.5 5.44772 23.0523 5 22.5 5H21.5ZM16 8C16 7.44772 16.4477 7 17 7H18C18.5523 7 19 7.44772 19 8V14C19 14.5523 18.5523 15 18 15H17C16.4477 15 16 14.5523 16 14V8ZM12.5 9C11.9477 9 11.5 9.44772 11.5 10V14C11.5 14.5523 11.9477 15 12.5 15H13.5C14.0523 15 14.5 14.5523 14.5 14V10C14.5 9.44772 14.0523 9 13.5 9H12.5ZM8 15C7.44772 15 7 14.5523 7 14V11.5C7 10.9477 7.44772 10.5 8 10.5H9C9.55228 10.5 10 10.9477 10 11.5V14C10 14.5523 9.55228 15 9 15H8Z" fill="#323232"/>
<path d="M31.328 15.108C30.648 15.108 30.036 15.02 29.492 14.844C28.948 14.668 28.476 14.42 28.076 14.1L28.46 13.212C28.74 13.42 29.024 13.596 29.312 13.74C29.6 13.876 29.908 13.98 30.236 14.052C30.572 14.116 30.936 14.148 31.328 14.148C32.024 14.148 32.536 14.024 32.864 13.776C33.2 13.52 33.368 13.184 33.368 12.768C33.368 12.408 33.252 12.132 33.02 11.94C32.788 11.748 32.384 11.596 31.808 11.484L30.524 11.22C29.748 11.06 29.168 10.8 28.784 10.44C28.408 10.072 28.22 9.576 28.22 8.952C28.22 8.448 28.352 8.008 28.616 7.632C28.888 7.248 29.26 6.952 29.732 6.744C30.212 6.536 30.772 6.432 31.412 6.432C32.004 6.432 32.552 6.52 33.056 6.696C33.56 6.872 33.984 7.132 34.328 7.476L33.944 8.328C33.584 8 33.196 7.764 32.78 7.62C32.372 7.468 31.908 7.392 31.388 7.392C30.756 7.392 30.256 7.528 29.888 7.8C29.52 8.072 29.336 8.44 29.336 8.904C29.336 9.272 29.452 9.564 29.684 9.78C29.916 9.988 30.3 10.148 30.836 10.26L32.12 10.512C32.936 10.672 33.532 10.924 33.908 11.268C34.292 11.612 34.484 12.088 34.484 12.696C34.484 13.176 34.356 13.6 34.1 13.968C33.844 14.328 33.48 14.608 33.008 14.808C32.536 15.008 31.976 15.108 31.328 15.108ZM38.5752 15.108C37.6152 15.108 36.8552 14.832 36.2952 14.28C35.7432 13.728 35.4672 12.968 35.4672 12C35.4672 11.36 35.5872 10.808 35.8272 10.344C36.0752 9.872 36.4152 9.508 36.8472 9.252C37.2792 8.988 37.7832 8.856 38.3592 8.856C38.9112 8.856 39.3792 8.976 39.7632 9.216C40.1472 9.448 40.4392 9.78 40.6392 10.212C40.8392 10.644 40.9392 11.156 40.9392 11.748V12.108H36.3192V11.46H40.1952L39.9912 11.616C39.9912 10.992 39.8512 10.508 39.5712 10.164C39.2992 9.82 38.8952 9.648 38.3592 9.648C37.7752 9.648 37.3232 9.852 37.0032 10.26C36.6832 10.66 36.5232 11.208 36.5232 11.904V12.012C36.5232 12.748 36.7032 13.304 37.0632 13.68C37.4312 14.056 37.9392 14.244 38.5872 14.244C38.9472 14.244 39.2832 14.192 39.5952 14.088C39.9072 13.984 40.2072 13.812 40.4952 13.572L40.8552 14.328C40.5832 14.576 40.2432 14.768 39.8352 14.904C39.4352 15.04 39.0152 15.108 38.5752 15.108ZM42.2342 15V10.44C42.2342 10.2 42.2262 9.956 42.2102 9.708C42.2022 9.452 42.1822 9.204 42.1502 8.964H43.2062L43.3382 10.476L43.1582 10.488C43.2382 10.12 43.3742 9.816 43.5662 9.576C43.7662 9.328 44.0022 9.148 44.2742 9.036C44.5542 8.916 44.8422 8.856 45.1382 8.856C45.2662 8.856 45.3742 8.86 45.4622 8.868C45.5502 8.876 45.6382 8.896 45.7262 8.928L45.7022 9.9C45.5822 9.852 45.4702 9.824 45.3662 9.816C45.2702 9.8 45.1502 9.792 45.0062 9.792C44.6542 9.792 44.3502 9.872 44.0942 10.032C43.8462 10.192 43.6542 10.404 43.5182 10.668C43.3902 10.932 43.3262 11.216 43.3262 11.52V15H42.2342ZM48.7069 15L46.1269 8.964H47.3029L49.4029 14.148H49.0669L51.2029 8.964H52.3189L49.7269 15H48.7069ZM53.2211 15V8.964H54.3131V15H53.2211ZM53.1251 7.644V6.468H54.4211V7.644H53.1251ZM58.611 15.108C58.011 15.108 57.491 14.984 57.051 14.736C56.611 14.48 56.267 14.116 56.019 13.644C55.779 13.164 55.659 12.596 55.659 11.94C55.659 11.292 55.783 10.74 56.031 10.284C56.279 9.82 56.623 9.468 57.063 9.228C57.503 8.98 58.019 8.856 58.611 8.856C59.003 8.856 59.383 8.924 59.751 9.06C60.119 9.188 60.419 9.376 60.651 9.624L60.279 10.392C60.047 10.168 59.791 10.004 59.511 9.9C59.231 9.788 58.955 9.732 58.683 9.732C58.091 9.732 57.627 9.924 57.291 10.308C56.955 10.684 56.787 11.232 56.787 11.952C56.787 12.68 56.955 13.24 57.291 13.632C57.627 14.024 58.091 14.22 58.683 14.22C58.947 14.22 59.219 14.168 59.499 14.064C59.779 13.96 60.039 13.796 60.279 13.572L60.651 14.328C60.411 14.584 60.103 14.78 59.727 14.916C59.359 15.044 58.987 15.108 58.611 15.108ZM64.4947 15.108C63.5347 15.108 62.7747 14.832 62.2147 14.28C61.6627 13.728 61.3867 12.968 61.3867 12C61.3867 11.36 61.5067 10.808 61.7467 10.344C61.9947 9.872 62.3347 9.508 62.7667 9.252C63.1987 8.988 63.7027 8.856 64.2787 8.856C64.8307 8.856 65.2987 8.976 65.6827 9.216C66.0667 9.448 66.3587 9.78 66.5587 10.212C66.7587 10.644 66.8587 11.156 66.8587 11.748V12.108H62.2387V11.46H66.1147L65.9107 11.616C65.9107 10.992 65.7707 10.508 65.4907 10.164C65.2187 9.82 64.8147 9.648 64.2787 9.648C63.6947 9.648 63.2427 9.852 62.9227 10.26C62.6027 10.66 62.4427 11.208 62.4427 11.904V12.012C62.4427 12.748 62.6227 13.304 62.9827 13.68C63.3507 14.056 63.8587 14.244 64.5067 14.244C64.8667 14.244 65.2027 14.192 65.5147 14.088C65.8267 13.984 66.1267 13.812 66.4147 13.572L66.7747 14.328C66.5027 14.576 66.1627 14.768 65.7547 14.904C65.3547 15.04 64.9347 15.108 64.4947 15.108Z" fill="#323232"/>
<path d="M79.8081 6.49216C82.2189 6.49226 84.5375 7.42402 86.2846 9.09485C86.4162 9.22384 86.6265 9.22222 86.7561 9.0912L88.0137 7.81448C88.0793 7.74803 88.1159 7.65802 88.1154 7.56436C88.1148 7.47071 88.0772 7.38114 88.0108 7.31546C83.4251 2.89485 76.1905 2.89485 71.6047 7.31546C71.5383 7.38109 71.5006 7.47063 71.5 7.56429C71.4994 7.65794 71.5359 7.74798 71.6015 7.81448L72.8595 9.0912C72.989 9.22241 73.1994 9.22404 73.3309 9.09485C75.0783 7.42391 77.3972 6.49215 79.8081 6.49216ZM79.8081 10.6459C81.1327 10.6458 82.41 11.141 83.3918 12.0353C83.5246 12.1622 83.7338 12.1595 83.8632 12.0291L85.1195 10.7524C85.1856 10.6854 85.2223 10.5946 85.2214 10.5002C85.2204 10.4058 85.1819 10.3157 85.1144 10.2501C82.1245 7.45256 77.4943 7.45256 74.5045 10.2501C74.4369 10.3157 74.3984 10.4058 74.3975 10.5003C74.3966 10.5947 74.4334 10.6855 74.4997 10.7524L75.7556 12.0291C75.885 12.1595 76.0942 12.1622 76.227 12.0353C77.2082 11.1416 78.4845 10.6464 79.8081 10.6459ZM82.2223 13.6929C82.2895 13.6266 82.3265 13.5353 82.3245 13.4406C82.3226 13.3459 82.2819 13.2563 82.2121 13.1928C80.8244 12.0121 78.7919 12.0121 77.4042 13.1928C77.3343 13.2562 77.2936 13.3459 77.2916 13.4405C77.2896 13.5352 77.3265 13.6265 77.3937 13.6929L79.567 15.8987C79.6307 15.9635 79.7175 16 79.8081 16C79.8988 16 79.9856 15.9635 80.0493 15.8987L82.2223 13.6929Z" fill="#323232"/>
<path fill-rule="evenodd" clip-rule="evenodd" d="M23.5723 50.8003C23.6442 50.9618 23.7627 51.1499 23.9658 51.4033C24.2395 51.7447 24.6223 52.1521 25.1758 52.7402L30.0801 57.9512C30.3824 58.2729 30.3665 58.7794 30.0449 59.082C29.7232 59.3844 29.2167 59.3685 28.9141 59.0469L24.0107 53.8369L23.9857 53.8103C23.461 53.2528 23.0345 52.7997 22.7168 52.4033C22.3883 51.9934 22.1339 51.5939 21.9893 51.1299C21.7599 50.3937 21.7599 49.6043 21.9893 48.8682C22.1339 48.4042 22.3883 48.0047 22.7168 47.5947C23.0345 47.1984 23.461 46.7453 23.9856 46.1878L24.0107 46.1611L28.9141 40.9512C29.2167 40.6296 29.7232 40.6136 30.0449 40.916C30.3665 41.2187 30.3824 41.7251 30.0801 42.0469L25.1758 47.2578C24.6223 47.8459 24.2395 48.2534 23.9658 48.5947C23.7614 48.8497 23.6428 49.0385 23.571 49.2007L38.4971 49.2007C38.9389 49.2007 39.2969 49.5587 39.2969 50.0005C39.2969 50.4423 38.9389 50.8003 38.4971 50.8003L23.5723 50.8003Z" fill="#6D8A9B"/>
<path d="M149.441 42.303C149.793 42.303 150.068 42.4093 150.266 42.622C150.471 42.8347 150.574 43.1317 150.574 43.513V56.031C150.574 56.6617 150.409 57.164 150.079 57.538C149.749 57.912 149.298 58.099 148.726 58.099C148.293 58.099 147.919 57.9817 147.604 57.747C147.289 57.5123 147.01 57.1677 146.768 56.713L139.827 44.943L139.761 44.954C139.849 46.4573 139.893 49.068 139.893 52.786V56.9C139.893 57.274 139.79 57.5673 139.585 57.78C139.387 57.9927 139.112 58.099 138.76 58.099C138.408 58.099 138.129 57.9927 137.924 57.78C137.726 57.5673 137.627 57.274 137.627 56.9V44.382C137.627 43.7733 137.799 43.2747 138.144 42.886C138.489 42.4973 138.947 42.303 139.519 42.303C139.952 42.303 140.322 42.4167 140.63 42.644C140.938 42.8713 141.213 43.205 141.455 43.645L148.363 55.371H148.44C148.359 53.9337 148.319 51.367 148.319 47.671V46.439V43.513C148.319 43.1317 148.418 42.8347 148.616 42.622C148.814 42.4093 149.089 42.303 149.441 42.303ZM158.969 58.209C158.001 58.209 157.139 58.022 156.384 57.648C155.636 57.2667 155.034 56.7387 154.58 56.064C154.132 55.3893 153.868 54.612 153.788 53.732C153.744 53.292 153.722 52.7603 153.722 52.137C153.722 51.6457 153.74 51.1983 153.777 50.795C153.857 49.9003 154.118 49.1083 154.558 48.419C155.005 47.7223 155.595 47.1797 156.329 46.791C157.069 46.4023 157.913 46.208 158.859 46.208C159.841 46.208 160.692 46.4097 161.411 46.813C162.137 47.2163 162.69 47.781 163.072 48.507C163.46 49.2257 163.655 50.058 163.655 51.004V51.697C163.655 52.0857 163.622 52.3717 163.556 52.555C163.49 52.731 163.372 52.852 163.204 52.918C163.035 52.9767 162.767 53.006 162.401 53.006H155.845L155.867 53.556C155.903 54.084 156.054 54.546 156.318 54.942C156.582 55.338 156.945 55.646 157.407 55.866C157.869 56.0787 158.404 56.185 159.013 56.185C159.863 56.185 160.674 56.0273 161.444 55.712C161.502 55.69 161.59 55.657 161.708 55.613C161.825 55.5617 161.928 55.525 162.016 55.503C162.104 55.481 162.195 55.47 162.291 55.47C162.562 55.47 162.782 55.558 162.951 55.734C163.119 55.9027 163.204 56.13 163.204 56.416C163.204 56.8487 162.921 57.2043 162.357 57.483C161.88 57.703 161.352 57.879 160.773 58.011C160.201 58.143 159.599 58.209 158.969 58.209ZM161.598 51.367C161.605 51.279 161.609 51.1543 161.609 50.993C161.609 50.091 161.352 49.3907 160.839 48.892C160.333 48.386 159.654 48.133 158.804 48.133C158.239 48.133 157.74 48.2503 157.308 48.485C156.882 48.7197 156.545 49.0533 156.296 49.486C156.046 49.9113 155.903 50.4027 155.867 50.96L155.845 51.367H161.598ZM169.863 58.099C169.313 58.099 168.877 57.9413 168.554 57.626C168.239 57.3107 167.982 56.7607 167.784 55.976L165.54 47.781C165.496 47.5903 165.474 47.4473 165.474 47.352C165.474 47.022 165.584 46.7617 165.804 46.571C166.031 46.3803 166.306 46.285 166.629 46.285C166.9 46.285 167.124 46.3657 167.3 46.527C167.483 46.6883 167.608 46.9193 167.674 47.22C168.561 50.6227 169.276 53.5157 169.819 55.899C169.848 56.009 169.892 56.064 169.951 56.064C170.002 56.064 170.043 56.009 170.072 55.899L170.468 54.249C171.128 51.4183 171.652 49.2733 172.041 47.814C172.173 47.3007 172.375 46.9193 172.646 46.67C172.917 46.4133 173.295 46.285 173.779 46.285C174.256 46.285 174.633 46.4133 174.912 46.67C175.191 46.9267 175.396 47.308 175.528 47.814C175.939 49.3467 176.382 51.0957 176.859 53.061L177.563 55.899C177.578 55.965 177.592 56.009 177.607 56.031C177.629 56.053 177.658 56.064 177.695 56.064C177.724 56.064 177.746 56.053 177.761 56.031C177.776 56.009 177.794 55.965 177.816 55.899L178.608 52.577C179.18 50.1863 179.613 48.4007 179.906 47.22C179.972 46.9193 180.097 46.6883 180.28 46.527C180.463 46.3657 180.691 46.285 180.962 46.285C181.285 46.285 181.556 46.384 181.776 46.582C181.996 46.7727 182.106 47.0293 182.106 47.352C182.106 47.4473 182.084 47.5903 182.04 47.781L179.807 55.976C179.602 56.7533 179.338 57.3033 179.015 57.626C178.7 57.9413 178.271 58.099 177.728 58.099C177.178 58.099 176.742 57.9413 176.419 57.626C176.096 57.3033 175.843 56.7497 175.66 55.965L173.9 48.969C173.893 48.903 173.86 48.87 173.801 48.87C173.75 48.87 173.713 48.903 173.691 48.969L171.898 55.965C171.715 56.7497 171.465 57.3033 171.15 57.626C170.835 57.9413 170.406 58.099 169.863 58.099ZM196.769 42.402C197.803 42.402 198.708 42.6073 199.486 43.018C200.263 43.4213 200.861 44.0043 201.279 44.767C201.704 45.5223 201.917 46.4133 201.917 47.44C201.917 48.4447 201.704 49.3247 201.279 50.08C200.861 50.8353 200.256 51.422 199.464 51.84C198.679 52.258 197.755 52.467 196.692 52.467H192.842V56.889C192.842 57.2703 192.739 57.5673 192.534 57.78C192.336 57.9927 192.061 58.099 191.709 58.099C191.357 58.099 191.078 57.9927 190.873 57.78C190.675 57.5673 190.576 57.2703 190.576 56.889V44.151C190.576 43.5863 190.722 43.1537 191.016 42.853C191.316 42.5523 191.753 42.402 192.325 42.402H196.769ZM196.626 50.333C197.616 50.333 198.364 50.0763 198.87 49.563C199.383 49.0423 199.64 48.3383 199.64 47.451C199.64 46.5563 199.383 45.8487 198.87 45.328C198.364 44.8 197.619 44.536 196.637 44.536H192.842V50.333H196.626ZM209.015 58.209C208.076 58.209 207.236 58.0183 206.496 57.637C205.755 57.2557 205.161 56.7277 204.714 56.053C204.266 55.371 203.999 54.59 203.911 53.71C203.867 53.2773 203.845 52.753 203.845 52.137C203.845 51.609 203.863 51.125 203.9 50.685C203.98 49.805 204.244 49.024 204.692 48.342C205.146 47.66 205.744 47.132 206.485 46.758C207.233 46.3767 208.076 46.186 209.015 46.186C209.953 46.186 210.793 46.3767 211.534 46.758C212.282 47.1393 212.879 47.671 213.327 48.353C213.781 49.0277 214.049 49.805 214.13 50.685C214.166 51.0223 214.185 51.5247 214.185 52.192C214.185 52.852 214.166 53.358 214.13 53.71C214.042 54.59 213.77 55.371 213.316 56.053C212.868 56.7277 212.274 57.2557 211.534 57.637C210.793 58.0183 209.953 58.209 209.015 58.209ZM206.089 53.413C206.133 53.9337 206.283 54.3957 206.54 54.799C206.796 55.195 207.137 55.5067 207.563 55.734C207.988 55.954 208.472 56.064 209.015 56.064C209.565 56.064 210.052 55.954 210.478 55.734C210.903 55.514 211.24 55.2023 211.49 54.799C211.746 54.3957 211.9 53.9337 211.952 53.413C211.988 52.973 212.007 52.566 212.007 52.192C212.007 51.8033 211.988 51.3963 211.952 50.971C211.9 50.4503 211.746 49.9883 211.49 49.585C211.24 49.1817 210.903 48.87 210.478 48.65C210.052 48.43 209.565 48.32 209.015 48.32C208.472 48.32 207.988 48.43 207.563 48.65C207.137 48.87 206.796 49.1817 206.54 49.585C206.29 49.9883 206.14 50.4503 206.089 50.971C206.052 51.3963 206.034 51.8033 206.034 52.192C206.034 52.566 206.052 52.973 206.089 53.413ZM218.21 43.788C218.548 43.788 218.815 43.8907 219.013 44.096C219.211 44.3013 219.31 44.5873 219.31 44.954V46.384H222.412C222.794 46.384 223.083 46.4757 223.281 46.659C223.479 46.835 223.578 47.0843 223.578 47.407C223.578 47.7297 223.479 47.9827 223.281 48.166C223.083 48.3493 222.794 48.441 222.412 48.441H219.31V54.337C219.31 54.9457 219.442 55.3967 219.706 55.69C219.97 55.976 220.385 56.119 220.949 56.119C221.228 56.119 221.474 56.097 221.686 56.053C221.906 56.0017 222.134 55.9357 222.368 55.855C222.398 55.8477 222.46 55.8257 222.555 55.789C222.651 55.7523 222.739 55.7267 222.819 55.712C222.907 55.6973 222.992 55.69 223.072 55.69C223.322 55.69 223.534 55.7853 223.71 55.976C223.894 56.1593 223.985 56.394 223.985 56.68C223.985 56.9513 223.912 57.175 223.765 57.351C223.619 57.5197 223.399 57.659 223.105 57.769C222.335 58.0623 221.573 58.209 220.817 58.209C220.069 58.209 219.417 58.066 218.859 57.78C218.302 57.494 217.869 57.076 217.561 56.526C217.261 55.976 217.11 55.316 217.11 54.546V44.954C217.11 44.5873 217.206 44.3013 217.396 44.096C217.594 43.8907 217.866 43.788 218.21 43.788Z" fill="#0B3C58"/>
<path d="M94.0965 460.198C92.9158 460.198 91.8415 459.93 90.8735 459.395C89.9055 458.852 89.1281 458.119 88.5415 457.195C87.9548 456.271 87.6211 455.252 87.5405 454.137C87.4965 453.499 87.4745 452.872 87.4745 452.256C87.4745 451.603 87.4965 450.943 87.5405 450.276C87.6211 449.154 87.9511 448.131 88.5305 447.207C89.1171 446.283 89.8945 445.553 90.8625 445.018C91.8378 444.475 92.9158 444.204 94.0965 444.204C95.3358 444.204 96.4505 444.494 97.4405 445.073C98.4378 445.645 99.1748 446.452 99.6515 447.493C99.7981 447.808 99.8715 448.094 99.8715 448.351C99.8715 448.6 99.7908 448.806 99.6295 448.967C99.4755 449.121 99.2738 449.198 99.0245 449.198C98.6285 449.198 98.3351 448.996 98.1445 448.593C97.8218 447.86 97.3085 447.244 96.6045 446.745C95.9005 446.246 95.0388 445.997 94.0195 445.997C93.1688 445.997 92.4061 446.184 91.7315 446.558C91.0641 446.932 90.5251 447.453 90.1145 448.12C89.7111 448.787 89.4728 449.554 89.3995 450.419C89.3481 450.976 89.3225 451.574 89.3225 452.212C89.3225 452.843 89.3481 453.44 89.3995 454.005C89.4655 454.863 89.7001 455.626 90.1035 456.293C90.5141 456.96 91.0568 457.481 91.7315 457.855C92.4061 458.229 93.1688 458.416 94.0195 458.416C94.6355 458.416 95.2148 458.302 95.7575 458.075C96.3001 457.848 96.7695 457.543 97.1655 457.162C97.5615 456.773 97.8548 456.348 98.0455 455.886C98.1701 455.622 98.2985 455.424 98.4305 455.292C98.5698 455.16 98.7495 455.094 98.9695 455.094C99.2188 455.094 99.4241 455.171 99.5855 455.325C99.7541 455.479 99.8385 455.677 99.8385 455.919C99.8385 456.044 99.8238 456.168 99.7945 456.293C99.7651 456.418 99.7101 456.583 99.6295 456.788C99.3655 457.433 98.9548 458.016 98.3975 458.537C97.8401 459.05 97.1875 459.457 96.4395 459.758C95.6915 460.051 94.9105 460.198 94.0965 460.198ZM107.313 460.198C106.396 460.198 105.575 460.011 104.849 459.637C104.13 459.256 103.551 458.728 103.111 458.053C102.671 457.378 102.407 456.605 102.319 455.732C102.275 455.299 102.253 454.786 102.253 454.192C102.253 453.679 102.271 453.202 102.308 452.762C102.389 451.889 102.649 451.116 103.089 450.441C103.536 449.759 104.123 449.231 104.849 448.857C105.575 448.476 106.396 448.285 107.313 448.285C108.23 448.285 109.055 448.476 109.788 448.857C110.521 449.231 111.108 449.759 111.548 450.441C111.988 451.116 112.248 451.889 112.329 452.762C112.366 453.202 112.384 453.679 112.384 454.192C112.384 454.786 112.362 455.299 112.318 455.732C112.23 456.605 111.966 457.378 111.526 458.053C111.086 458.728 110.503 459.256 109.777 459.637C109.051 460.011 108.23 460.198 107.313 460.198ZM104.079 455.545C104.13 456.117 104.295 456.623 104.574 457.063C104.86 457.503 105.238 457.848 105.707 458.097C106.176 458.339 106.712 458.46 107.313 458.46C107.914 458.46 108.45 458.339 108.919 458.097C109.388 457.848 109.762 457.503 110.041 457.063C110.327 456.623 110.499 456.117 110.558 455.545C110.595 455.208 110.613 454.771 110.613 454.236C110.613 453.708 110.595 453.275 110.558 452.938C110.507 452.366 110.338 451.86 110.052 451.42C109.773 450.98 109.396 450.639 108.919 450.397C108.45 450.155 107.914 450.034 107.313 450.034C106.712 450.034 106.176 450.155 105.707 450.397C105.245 450.639 104.871 450.98 104.585 451.42C104.306 451.86 104.138 452.366 104.079 452.938C104.042 453.393 104.024 453.825 104.024 454.236C104.024 454.654 104.042 455.09 104.079 455.545ZM116.51 460.099C116.231 460.099 116.011 460.018 115.85 459.857C115.696 459.688 115.619 459.454 115.619 459.153V445.117C115.619 444.816 115.696 444.585 115.85 444.424C116.011 444.255 116.231 444.171 116.51 444.171C116.788 444.171 117.005 444.255 117.159 444.424C117.32 444.585 117.401 444.816 117.401 445.117V459.153C117.401 459.454 117.32 459.688 117.159 459.857C117.005 460.018 116.788 460.099 116.51 460.099ZM122.096 460.099C121.817 460.099 121.597 460.018 121.436 459.857C121.282 459.688 121.205 459.454 121.205 459.153V445.117C121.205 444.816 121.282 444.585 121.436 444.424C121.597 444.255 121.817 444.171 122.096 444.171C122.374 444.171 122.591 444.255 122.745 444.424C122.906 444.585 122.987 444.816 122.987 445.117V459.153C122.987 459.454 122.906 459.688 122.745 459.857C122.591 460.018 122.374 460.099 122.096 460.099ZM130.201 460.198C129.313 460.198 128.54 460.044 127.88 459.736C127.227 459.428 126.725 458.995 126.373 458.438C126.021 457.881 125.845 457.239 125.845 456.513C125.845 455.875 126.01 455.288 126.34 454.753C126.677 454.21 127.176 453.778 127.836 453.455C128.496 453.132 129.291 452.971 130.223 452.971C130.751 452.971 131.253 453.008 131.73 453.081C132.206 453.147 132.734 453.264 133.314 453.433V452.399C133.314 451.563 133.09 450.951 132.643 450.562C132.195 450.166 131.491 449.968 130.531 449.968C130.105 449.968 129.673 450.019 129.233 450.122C128.8 450.217 128.426 450.331 128.111 450.463C127.839 450.588 127.608 450.65 127.418 450.65C127.198 450.65 127.011 450.573 126.857 450.419C126.71 450.258 126.637 450.06 126.637 449.825C126.637 449.627 126.695 449.462 126.813 449.33C126.93 449.191 127.121 449.066 127.385 448.956C127.795 448.773 128.294 448.615 128.881 448.483C129.475 448.351 130.08 448.285 130.696 448.285C132.096 448.285 133.171 448.626 133.919 449.308C134.674 449.983 135.052 451.009 135.052 452.388V458.262C135.052 458.453 135.026 458.599 134.975 458.702C134.931 458.797 134.839 458.893 134.7 458.988C134.282 459.281 133.669 459.556 132.863 459.813C132.063 460.07 131.176 460.198 130.201 460.198ZM127.583 456.524C127.583 457.184 127.828 457.697 128.32 458.064C128.811 458.423 129.504 458.603 130.399 458.603C130.897 458.603 131.403 458.537 131.917 458.405C132.43 458.266 132.896 458.086 133.314 457.866V454.918C132.742 454.749 132.232 454.628 131.785 454.555C131.337 454.482 130.875 454.445 130.399 454.445C129.475 454.445 128.774 454.636 128.298 455.017C127.821 455.398 127.583 455.901 127.583 456.524ZM139.388 445.931C139.667 445.931 139.883 446.015 140.037 446.184C140.198 446.353 140.279 446.584 140.279 446.877V448.483H143.568C143.891 448.483 144.136 448.556 144.305 448.703C144.474 448.85 144.558 449.059 144.558 449.33C144.558 449.601 144.474 449.81 144.305 449.957C144.136 450.104 143.891 450.177 143.568 450.177H140.279V456.612C140.279 457.243 140.418 457.712 140.697 458.02C140.983 458.328 141.423 458.482 142.017 458.482C142.332 458.482 142.611 458.456 142.853 458.405C143.095 458.354 143.344 458.28 143.601 458.185C143.696 458.148 143.792 458.115 143.887 458.086C143.99 458.057 144.089 458.042 144.184 458.042C144.389 458.042 144.565 458.119 144.712 458.273C144.866 458.427 144.943 458.625 144.943 458.867C144.943 459.087 144.881 459.27 144.756 459.417C144.639 459.556 144.455 459.674 144.206 459.769C143.458 460.055 142.699 460.198 141.929 460.198C141.232 460.198 140.624 460.062 140.103 459.791C139.59 459.52 139.194 459.127 138.915 458.614C138.636 458.101 138.497 457.485 138.497 456.766V446.877C138.497 446.576 138.574 446.345 138.728 446.184C138.889 446.015 139.109 445.931 139.388 445.931ZM148.166 444.248C148.504 444.248 148.782 444.358 149.002 444.578C149.222 444.798 149.332 445.073 149.332 445.403C149.332 445.74 149.222 446.023 149.002 446.25C148.782 446.47 148.504 446.58 148.166 446.58C147.844 446.58 147.572 446.47 147.352 446.25C147.132 446.023 147.022 445.74 147.022 445.403C147.022 445.073 147.132 444.798 147.352 444.578C147.572 444.358 147.844 444.248 148.166 444.248ZM147.286 449.33C147.286 449.029 147.363 448.798 147.517 448.637C147.679 448.468 147.899 448.384 148.177 448.384C148.456 448.384 148.672 448.468 148.826 448.637C148.988 448.798 149.068 449.029 149.068 449.33V459.153C149.068 459.454 148.988 459.688 148.826 459.857C148.672 460.018 148.456 460.099 148.177 460.099C147.899 460.099 147.679 460.018 147.517 459.857C147.363 459.688 147.286 459.454 147.286 459.153V449.33ZM157.548 448.285C158.567 448.285 159.436 448.468 160.155 448.835C160.873 449.194 161.416 449.719 161.783 450.408C162.157 451.097 162.344 451.922 162.344 452.883V459.153C162.344 459.454 162.263 459.688 162.102 459.857C161.948 460.018 161.731 460.099 161.453 460.099C161.174 460.099 160.954 460.018 160.793 459.857C160.639 459.688 160.562 459.454 160.562 459.153V453.026C160.562 451.031 159.557 450.034 157.548 450.034C156.983 450.034 156.433 450.104 155.898 450.243C155.362 450.382 154.915 450.562 154.556 450.782V459.153C154.556 459.454 154.475 459.688 154.314 459.857C154.16 460.018 153.943 460.099 153.665 460.099C153.386 460.099 153.166 460.018 153.005 459.857C152.851 459.688 152.774 459.454 152.774 459.153V450.397C152.774 450.133 152.81 449.931 152.884 449.792C152.964 449.645 153.107 449.513 153.313 449.396C153.767 449.117 154.372 448.864 155.128 448.637C155.883 448.402 156.69 448.285 157.548 448.285ZM170.411 464.048C169.633 464.048 168.951 463.971 168.365 463.817C167.778 463.663 167.195 463.428 166.616 463.113C166.381 462.988 166.201 462.849 166.077 462.695C165.959 462.548 165.901 462.369 165.901 462.156C165.901 461.943 165.974 461.76 166.121 461.606C166.275 461.459 166.462 461.386 166.682 461.386C166.799 461.386 166.902 461.401 166.99 461.43C167.085 461.459 167.195 461.503 167.32 461.562C167.914 461.885 168.423 462.097 168.849 462.2C169.281 462.303 169.78 462.354 170.345 462.354C171.283 462.354 172.028 462.097 172.578 461.584C173.135 461.071 173.414 460.301 173.414 459.274V458.713C173.01 458.918 172.537 459.083 171.995 459.208C171.452 459.333 170.906 459.395 170.356 459.395C169.461 459.395 168.665 459.223 167.969 458.878C167.272 458.526 166.715 458.035 166.297 457.404C165.879 456.773 165.626 456.047 165.538 455.226C165.501 454.823 165.483 454.379 165.483 453.895C165.483 453.367 165.501 452.89 165.538 452.465C165.618 451.644 165.871 450.918 166.297 450.287C166.729 449.656 167.305 449.165 168.024 448.813C168.742 448.461 169.564 448.285 170.488 448.285C171.338 448.285 172.149 448.406 172.919 448.648C173.689 448.89 174.297 449.154 174.745 449.44C174.928 449.55 175.049 449.675 175.108 449.814C175.166 449.946 175.196 450.17 175.196 450.485V459.164C175.196 460.205 174.994 461.089 174.591 461.815C174.195 462.548 173.637 463.102 172.919 463.476C172.2 463.857 171.364 464.048 170.411 464.048ZM167.32 455.072C167.4 455.879 167.712 456.52 168.255 456.997C168.805 457.466 169.549 457.701 170.488 457.701C170.994 457.701 171.529 457.631 172.094 457.492C172.666 457.345 173.106 457.162 173.414 456.942V450.771C173.106 450.551 172.669 450.368 172.105 450.221C171.54 450.074 171.001 450.001 170.488 450.001C169.549 450.001 168.805 450.239 168.255 450.716C167.712 451.185 167.4 451.823 167.32 452.63C167.283 452.997 167.265 453.389 167.265 453.807C167.265 454.262 167.283 454.683 167.32 455.072ZM188.101 460.198C187.214 460.198 186.44 460.044 185.78 459.736C185.127 459.428 184.625 458.995 184.273 458.438C183.921 457.881 183.745 457.239 183.745 456.513C183.745 455.875 183.91 455.288 184.24 454.753C184.577 454.21 185.076 453.778 185.736 453.455C186.396 453.132 187.192 452.971 188.123 452.971C188.651 452.971 189.153 453.008 189.63 453.081C190.107 453.147 190.635 453.264 191.214 453.433V452.399C191.214 451.563 190.99 450.951 190.543 450.562C190.096 450.166 189.392 449.968 188.431 449.968C188.006 449.968 187.573 450.019 187.133 450.122C186.7 450.217 186.326 450.331 186.011 450.463C185.74 450.588 185.509 450.65 185.318 450.65C185.098 450.65 184.911 450.573 184.757 450.419C184.61 450.258 184.537 450.06 184.537 449.825C184.537 449.627 184.596 449.462 184.713 449.33C184.83 449.191 185.021 449.066 185.285 448.956C185.696 448.773 186.194 448.615 186.781 448.483C187.375 448.351 187.98 448.285 188.596 448.285C189.997 448.285 191.071 448.626 191.819 449.308C192.574 449.983 192.952 451.009 192.952 452.388V458.262C192.952 458.453 192.926 458.599 192.875 458.702C192.831 458.797 192.739 458.893 192.6 458.988C192.182 459.281 191.57 459.556 190.763 459.813C189.964 460.07 189.076 460.198 188.101 460.198ZM185.483 456.524C185.483 457.184 185.729 457.697 186.22 458.064C186.711 458.423 187.404 458.603 188.299 458.603C188.798 458.603 189.304 458.537 189.817 458.405C190.33 458.266 190.796 458.086 191.214 457.866V454.918C190.642 454.749 190.132 454.628 189.685 454.555C189.238 454.482 188.776 454.445 188.299 454.445C187.375 454.445 186.675 454.636 186.198 455.017C185.721 455.398 185.483 455.901 185.483 456.524ZM204.207 456.689C204.207 457.4 204.035 458.02 203.69 458.548C203.353 459.076 202.873 459.483 202.249 459.769C201.633 460.055 200.915 460.198 200.093 460.198C199.272 460.198 198.531 460.099 197.871 459.901C197.211 459.696 196.647 459.402 196.177 459.021C195.869 458.794 195.715 458.522 195.715 458.207C195.715 458.009 195.785 457.826 195.924 457.657C196.071 457.488 196.258 457.404 196.485 457.404C196.691 457.404 196.914 457.488 197.156 457.657C197.501 457.921 197.908 458.134 198.377 458.295C198.847 458.449 199.422 458.526 200.104 458.526C200.874 458.526 201.457 458.365 201.853 458.042C202.249 457.719 202.447 457.29 202.447 456.755C202.447 456.344 202.312 456.011 202.04 455.754C201.769 455.497 201.325 455.299 200.709 455.16L198.993 454.742C198.047 454.522 197.314 454.155 196.793 453.642C196.28 453.129 196.023 452.472 196.023 451.673C196.023 450.991 196.192 450.393 196.529 449.88C196.874 449.367 197.351 448.974 197.959 448.703C198.568 448.424 199.265 448.285 200.049 448.285C200.746 448.285 201.369 448.38 201.919 448.571C202.477 448.762 202.931 448.989 203.283 449.253C203.459 449.385 203.584 449.513 203.657 449.638C203.731 449.763 203.767 449.909 203.767 450.078C203.767 450.298 203.694 450.496 203.547 450.672C203.401 450.848 203.214 450.936 202.986 450.936C202.854 450.936 202.733 450.914 202.623 450.87C202.521 450.826 202.396 450.756 202.249 450.661C202.007 450.47 201.696 450.309 201.314 450.177C200.933 450.038 200.526 449.968 200.093 449.968C199.338 449.968 198.759 450.111 198.355 450.397C197.959 450.683 197.761 451.094 197.761 451.629C197.761 451.996 197.89 452.304 198.146 452.553C198.41 452.802 198.858 453 199.488 453.147L201.116 453.521C203.177 454.005 204.207 455.061 204.207 456.689ZM214.95 456.689C214.95 457.4 214.777 458.02 214.433 458.548C214.095 459.076 213.615 459.483 212.992 459.769C212.376 460.055 211.657 460.198 210.836 460.198C210.014 460.198 209.274 460.099 208.614 459.901C207.954 459.696 207.389 459.402 206.92 459.021C206.612 458.794 206.458 458.522 206.458 458.207C206.458 458.009 206.527 457.826 206.667 457.657C206.813 457.488 207 457.404 207.228 457.404C207.433 457.404 207.657 457.488 207.899 457.657C208.243 457.921 208.65 458.134 209.12 458.295C209.589 458.449 210.165 458.526 210.847 458.526C211.617 458.526 212.2 458.365 212.596 458.042C212.992 457.719 213.19 457.29 213.19 456.755C213.19 456.344 213.054 456.011 212.783 455.754C212.511 455.497 212.068 455.299 211.452 455.16L209.736 454.742C208.79 454.522 208.056 454.155 207.536 453.642C207.022 453.129 206.766 452.472 206.766 451.673C206.766 450.991 206.934 450.393 207.272 449.88C207.616 449.367 208.093 448.974 208.702 448.703C209.31 448.424 210.007 448.285 210.792 448.285C211.488 448.285 212.112 448.38 212.662 448.571C213.219 448.762 213.674 448.989 214.026 449.253C214.202 449.385 214.326 449.513 214.4 449.638C214.473 449.763 214.51 449.909 214.51 450.078C214.51 450.298 214.436 450.496 214.29 450.672C214.143 450.848 213.956 450.936 213.729 450.936C213.597 450.936 213.476 450.914 213.366 450.87C213.263 450.826 213.138 450.756 212.992 450.661C212.75 450.47 212.438 450.309 212.057 450.177C211.675 450.038 211.268 449.968 210.836 449.968C210.08 449.968 209.501 450.111 209.098 450.397C208.702 450.683 208.504 451.094 208.504 451.629C208.504 451.996 208.632 452.304 208.889 452.553C209.153 452.802 209.6 453 210.231 453.147L211.859 453.521C213.919 454.005 214.95 455.061 214.95 456.689ZM222.557 460.198C221.618 460.198 220.782 460.015 220.049 459.648C219.316 459.274 218.729 458.753 218.289 458.086C217.849 457.411 217.585 456.638 217.497 455.765C217.453 455.325 217.431 454.797 217.431 454.181C217.431 453.704 217.449 453.257 217.486 452.839C217.567 451.952 217.823 451.167 218.256 450.485C218.696 449.803 219.275 449.271 219.994 448.89C220.713 448.509 221.53 448.318 222.447 448.318C223.415 448.318 224.251 448.516 224.955 448.912C225.666 449.308 226.209 449.862 226.583 450.573C226.964 451.284 227.155 452.102 227.155 453.026V453.774C227.155 454.133 227.126 454.394 227.067 454.555C227.008 454.716 226.902 454.826 226.748 454.885C226.594 454.944 226.348 454.973 226.011 454.973H219.18C219.18 455.2 219.191 455.424 219.213 455.644C219.257 456.216 219.422 456.722 219.708 457.162C219.994 457.595 220.383 457.932 220.874 458.174C221.365 458.409 221.934 458.526 222.579 458.526C223.481 458.526 224.35 458.35 225.186 457.998C225.252 457.969 225.336 457.936 225.439 457.899C225.542 457.855 225.63 457.826 225.703 457.811C225.776 457.789 225.853 457.778 225.934 457.778C226.154 457.778 226.334 457.851 226.473 457.998C226.612 458.137 226.682 458.324 226.682 458.559C226.682 458.926 226.433 459.23 225.934 459.472C224.929 459.956 223.804 460.198 222.557 460.198ZM225.45 453.543C225.465 453.338 225.472 453.191 225.472 453.103C225.472 452.436 225.344 451.867 225.087 451.398C224.838 450.921 224.482 450.562 224.02 450.32C223.558 450.071 223.023 449.946 222.414 449.946C221.813 449.946 221.277 450.074 220.808 450.331C220.346 450.58 219.976 450.932 219.697 451.387C219.418 451.842 219.257 452.366 219.213 452.96L219.18 453.543H225.45ZM231.062 445.931C231.341 445.931 231.557 446.015 231.711 446.184C231.872 446.353 231.953 446.584 231.953 446.877V448.483H235.242C235.565 448.483 235.81 448.556 235.979 448.703C236.148 448.85 236.232 449.059 236.232 449.33C236.232 449.601 236.148 449.81 235.979 449.957C235.81 450.104 235.565 450.177 235.242 450.177H231.953V456.612C231.953 457.243 232.092 457.712 232.371 458.02C232.657 458.328 233.097 458.482 233.691 458.482C234.006 458.482 234.285 458.456 234.527 458.405C234.769 458.354 235.018 458.28 235.275 458.185C235.37 458.148 235.466 458.115 235.561 458.086C235.664 458.057 235.763 458.042 235.858 458.042C236.063 458.042 236.239 458.119 236.386 458.273C236.54 458.427 236.617 458.625 236.617 458.867C236.617 459.087 236.555 459.27 236.43 459.417C236.313 459.556 236.129 459.674 235.88 459.769C235.132 460.055 234.373 460.198 233.603 460.198C232.906 460.198 232.298 460.062 231.777 459.791C231.264 459.52 230.868 459.127 230.589 458.614C230.31 458.101 230.171 457.485 230.171 456.766V446.877C230.171 446.576 230.248 446.345 230.402 446.184C230.563 446.015 230.783 445.931 231.062 445.931ZM246.682 456.689C246.682 457.4 246.51 458.02 246.165 458.548C245.828 459.076 245.347 459.483 244.724 459.769C244.108 460.055 243.389 460.198 242.568 460.198C241.747 460.198 241.006 460.099 240.346 459.901C239.686 459.696 239.121 459.402 238.652 459.021C238.344 458.794 238.19 458.522 238.19 458.207C238.19 458.009 238.26 457.826 238.399 457.657C238.546 457.488 238.733 457.404 238.96 457.404C239.165 457.404 239.389 457.488 239.631 457.657C239.976 457.921 240.383 458.134 240.852 458.295C241.321 458.449 241.897 458.526 242.579 458.526C243.349 458.526 243.932 458.365 244.328 458.042C244.724 457.719 244.922 457.29 244.922 456.755C244.922 456.344 244.786 456.011 244.515 455.754C244.244 455.497 243.8 455.299 243.184 455.16L241.468 454.742C240.522 454.522 239.789 454.155 239.268 453.642C238.755 453.129 238.498 452.472 238.498 451.673C238.498 450.991 238.667 450.393 239.004 449.88C239.349 449.367 239.825 448.974 240.434 448.703C241.043 448.424 241.739 448.285 242.524 448.285C243.221 448.285 243.844 448.38 244.394 448.571C244.951 448.762 245.406 448.989 245.758 449.253C245.934 449.385 246.059 449.513 246.132 449.638C246.205 449.763 246.242 449.909 246.242 450.078C246.242 450.298 246.169 450.496 246.022 450.672C245.875 450.848 245.688 450.936 245.461 450.936C245.329 450.936 245.208 450.914 245.098 450.87C244.995 450.826 244.871 450.756 244.724 450.661C244.482 450.47 244.17 450.309 243.789 450.177C243.408 450.038 243.001 449.968 242.568 449.968C241.813 449.968 241.233 450.111 240.83 450.397C240.434 450.683 240.236 451.094 240.236 451.629C240.236 451.996 240.364 452.304 240.621 452.553C240.885 452.802 241.332 453 241.963 453.147L243.591 453.521C245.652 454.005 246.682 455.061 246.682 456.689ZM256.285 445.931C256.563 445.931 256.78 446.015 256.934 446.184C257.095 446.353 257.176 446.584 257.176 446.877V448.483H260.465C260.787 448.483 261.033 448.556 261.202 448.703C261.37 448.85 261.455 449.059 261.455 449.33C261.455 449.601 261.37 449.81 261.202 449.957C261.033 450.104 260.787 450.177 260.465 450.177H257.176V456.612C257.176 457.243 257.315 457.712 257.594 458.02C257.88 458.328 258.32 458.482 258.914 458.482C259.229 458.482 259.508 458.456 259.75 458.405C259.992 458.354 260.241 458.28 260.498 458.185C260.593 458.148 260.688 458.115 260.784 458.086C260.886 458.057 260.985 458.042 261.081 458.042C261.286 458.042 261.462 458.119 261.609 458.273C261.763 458.427 261.84 458.625 261.84 458.867C261.84 459.087 261.777 459.27 261.653 459.417C261.535 459.556 261.352 459.674 261.103 459.769C260.355 460.055 259.596 460.198 258.826 460.198C258.129 460.198 257.52 460.062 257 459.791C256.486 459.52 256.09 459.127 255.812 458.614C255.533 458.101 255.394 457.485 255.394 456.766V446.877C255.394 446.576 255.471 446.345 255.625 446.184C255.786 446.015 256.006 445.931 256.285 445.931ZM268.575 460.198C267.658 460.198 266.837 460.011 266.111 459.637C265.392 459.256 264.813 458.728 264.373 458.053C263.933 457.378 263.669 456.605 263.581 455.732C263.537 455.299 263.515 454.786 263.515 454.192C263.515 453.679 263.533 453.202 263.57 452.762C263.651 451.889 263.911 451.116 264.351 450.441C264.798 449.759 265.385 449.231 266.111 448.857C266.837 448.476 267.658 448.285 268.575 448.285C269.492 448.285 270.317 448.476 271.05 448.857C271.783 449.231 272.37 449.759 272.81 450.441C273.25 451.116 273.51 451.889 273.591 452.762C273.628 453.202 273.646 453.679 273.646 454.192C273.646 454.786 273.624 455.299 273.58 455.732C273.492 456.605 273.228 457.378 272.788 458.053C272.348 458.728 271.765 459.256 271.039 459.637C270.313 460.011 269.492 460.198 268.575 460.198ZM265.341 455.545C265.392 456.117 265.557 456.623 265.836 457.063C266.122 457.503 266.5 457.848 266.969 458.097C267.438 458.339 267.974 458.46 268.575 458.46C269.176 458.46 269.712 458.339 270.181 458.097C270.65 457.848 271.024 457.503 271.303 457.063C271.589 456.623 271.761 456.117 271.82 455.545C271.857 455.208 271.875 454.771 271.875 454.236C271.875 453.708 271.857 453.275 271.82 452.938C271.769 452.366 271.6 451.86 271.314 451.42C271.035 450.98 270.658 450.639 270.181 450.397C269.712 450.155 269.176 450.034 268.575 450.034C267.974 450.034 267.438 450.155 266.969 450.397C266.507 450.639 266.133 450.98 265.847 451.42C265.568 451.86 265.4 452.366 265.341 452.938C265.304 453.393 265.286 453.825 265.286 454.236C265.286 454.654 265.304 455.09 265.341 455.545ZM95.6792 484.689C95.6792 485.4 95.5068 486.02 95.1622 486.548C94.8248 487.076 94.3445 487.483 93.7212 487.769C93.1052 488.055 92.3865 488.198 91.5652 488.198C90.7438 488.198 90.0032 488.099 89.3432 487.901C88.6832 487.696 88.1185 487.402 87.6492 487.021C87.3412 486.794 87.1872 486.522 87.1872 486.207C87.1872 486.009 87.2568 485.826 87.3962 485.657C87.5428 485.488 87.7298 485.404 87.9572 485.404C88.1625 485.404 88.3862 485.488 88.6282 485.657C88.9728 485.921 89.3798 486.134 89.8492 486.295C90.3185 486.449 90.8942 486.526 91.5762 486.526C92.3462 486.526 92.9292 486.365 93.3252 486.042C93.7212 485.719 93.9192 485.29 93.9192 484.755C93.9192 484.344 93.7835 484.011 93.5122 483.754C93.2408 483.497 92.7972 483.299 92.1812 483.16L90.4652 482.742C89.5192 482.522 88.7858 482.155 88.2652 481.642C87.7518 481.129 87.4952 480.472 87.4952 479.673C87.4952 478.991 87.6638 478.393 88.0012 477.88C88.3458 477.367 88.8225 476.974 89.4312 476.703C90.0398 476.424 90.7365 476.285 91.5212 476.285C92.2178 476.285 92.8412 476.38 93.3912 476.571C93.9485 476.762 94.4032 476.989 94.7552 477.253C94.9312 477.385 95.0558 477.513 95.1292 477.638C95.2025 477.763 95.2392 477.909 95.2392 478.078C95.2392 478.298 95.1658 478.496 95.0192 478.672C94.8725 478.848 94.6855 478.936 94.4582 478.936C94.3262 478.936 94.2052 478.914 94.0952 478.87C93.9925 478.826 93.8678 478.756 93.7212 478.661C93.4792 478.47 93.1675 478.309 92.7862 478.177C92.4048 478.038 91.9978 477.968 91.5652 477.968C90.8098 477.968 90.2305 478.111 89.8272 478.397C89.4312 478.683 89.2332 479.094 89.2332 479.629C89.2332 479.996 89.3615 480.304 89.6182 480.553C89.8822 480.802 90.3295 481 90.9602 481.147L92.5882 481.521C94.6488 482.005 95.6792 483.061 95.6792 484.689ZM102.131 488.198C101.244 488.198 100.47 488.044 99.8104 487.736C99.1577 487.428 98.6554 486.995 98.3034 486.438C97.9514 485.881 97.7754 485.239 97.7754 484.513C97.7754 483.875 97.9404 483.288 98.2704 482.753C98.6077 482.21 99.1064 481.778 99.7664 481.455C100.426 481.132 101.222 480.971 102.153 480.971C102.681 480.971 103.184 481.008 103.66 481.081C104.137 481.147 104.665 481.264 105.244 481.433V480.399C105.244 479.563 105.021 478.951 104.573 478.562C104.126 478.166 103.422 477.968 102.461 477.968C102.036 477.968 101.603 478.019 101.163 478.122C100.731 478.217 100.357 478.331 100.041 478.463C99.77 478.588 99.539 478.65 99.3484 478.65C99.1284 478.65 98.9414 478.573 98.7874 478.419C98.6407 478.258 98.5674 478.06 98.5674 477.825C98.5674 477.627 98.626 477.462 98.7434 477.33C98.8607 477.191 99.0514 477.066 99.3154 476.956C99.726 476.773 100.225 476.615 100.811 476.483C101.405 476.351 102.01 476.285 102.626 476.285C104.027 476.285 105.101 476.626 105.849 477.308C106.605 477.983 106.982 479.009 106.982 480.388V486.262C106.982 486.453 106.957 486.599 106.905 486.702C106.861 486.797 106.77 486.893 106.63 486.988C106.212 487.281 105.6 487.556 104.793 487.813C103.994 488.07 103.107 488.198 102.131 488.198ZM99.5134 484.524C99.5134 485.184 99.759 485.697 100.25 486.064C100.742 486.423 101.435 486.603 102.329 486.603C102.828 486.603 103.334 486.537 103.847 486.405C104.361 486.266 104.826 486.086 105.244 485.866V482.918C104.672 482.749 104.163 482.628 103.715 482.555C103.268 482.482 102.806 482.445 102.329 482.445C101.405 482.445 100.705 482.636 100.228 483.017C99.7517 483.398 99.5134 483.901 99.5134 484.524ZM114.468 488.099C114.013 488.099 113.65 487.963 113.379 487.692C113.108 487.421 112.869 486.999 112.664 486.427L109.375 477.726C109.302 477.535 109.265 477.37 109.265 477.231C109.265 476.982 109.349 476.78 109.518 476.626C109.694 476.465 109.907 476.384 110.156 476.384C110.589 476.384 110.889 476.633 111.058 477.132L114.292 486.251C114.321 486.324 114.347 486.376 114.369 486.405C114.391 486.434 114.424 486.449 114.468 486.449C114.512 486.449 114.545 486.438 114.567 486.416C114.589 486.387 114.618 486.332 114.655 486.251L117.9 477.143C117.995 476.879 118.116 476.688 118.263 476.571C118.417 476.446 118.6 476.384 118.813 476.384C119.062 476.384 119.268 476.461 119.429 476.615C119.598 476.769 119.682 476.967 119.682 477.209C119.682 477.378 119.649 477.546 119.583 477.715L116.261 486.427C116.048 486.992 115.806 487.413 115.535 487.692C115.264 487.963 114.908 488.099 114.468 488.099ZM126.704 488.198C125.766 488.198 124.93 488.015 124.196 487.648C123.463 487.274 122.876 486.753 122.436 486.086C121.996 485.411 121.732 484.638 121.644 483.765C121.6 483.325 121.578 482.797 121.578 482.181C121.578 481.704 121.597 481.257 121.633 480.839C121.714 479.952 121.971 479.167 122.403 478.485C122.843 477.803 123.423 477.271 124.141 476.89C124.86 476.509 125.678 476.318 126.594 476.318C127.562 476.318 128.398 476.516 129.102 476.912C129.814 477.308 130.356 477.862 130.73 478.573C131.112 479.284 131.302 480.102 131.302 481.026V481.774C131.302 482.133 131.273 482.394 131.214 482.555C131.156 482.716 131.049 482.826 130.895 482.885C130.741 482.944 130.496 482.973 130.158 482.973H123.327C123.327 483.2 123.338 483.424 123.36 483.644C123.404 484.216 123.569 484.722 123.855 485.162C124.141 485.595 124.53 485.932 125.021 486.174C125.513 486.409 126.081 486.526 126.726 486.526C127.628 486.526 128.497 486.35 129.333 485.998C129.399 485.969 129.484 485.936 129.586 485.899C129.689 485.855 129.777 485.826 129.85 485.811C129.924 485.789 130.001 485.778 130.081 485.778C130.301 485.778 130.481 485.851 130.62 485.998C130.76 486.137 130.829 486.324 130.829 486.559C130.829 486.926 130.58 487.23 130.081 487.472C129.077 487.956 127.951 488.198 126.704 488.198ZM129.597 481.543C129.612 481.338 129.619 481.191 129.619 481.103C129.619 480.436 129.491 479.867 129.234 479.398C128.985 478.921 128.629 478.562 128.167 478.32C127.705 478.071 127.17 477.946 126.561 477.946C125.96 477.946 125.425 478.074 124.955 478.331C124.493 478.58 124.123 478.932 123.844 479.387C123.566 479.842 123.404 480.366 123.36 480.96L123.327 481.543H129.597ZM141.029 492.015C140.78 492.015 140.567 491.931 140.391 491.762C140.223 491.601 140.138 491.395 140.138 491.146C140.138 490.816 140.329 490.541 140.71 490.321C141.678 489.786 142.467 488.763 143.075 487.252L138.939 477.924C138.807 477.638 138.741 477.407 138.741 477.231C138.741 476.982 138.829 476.78 139.005 476.626C139.181 476.465 139.394 476.384 139.643 476.384C139.863 476.384 140.047 476.443 140.193 476.56C140.34 476.67 140.461 476.85 140.556 477.099L143.955 485.085C143.97 485.129 143.985 485.158 143.999 485.173C144.014 485.188 144.032 485.195 144.054 485.195C144.084 485.195 144.106 485.188 144.12 485.173C144.135 485.158 144.15 485.129 144.164 485.085L147.31 477.055C147.479 476.608 147.769 476.384 148.179 476.384C148.429 476.384 148.641 476.465 148.817 476.626C148.993 476.78 149.081 476.978 149.081 477.22C149.081 477.381 149.03 477.59 148.927 477.847L144.923 487.549C144.52 488.524 144.051 489.371 143.515 490.09C142.987 490.816 142.445 491.359 141.887 491.718C141.748 491.821 141.612 491.894 141.48 491.938C141.348 491.989 141.198 492.015 141.029 492.015ZM155.965 488.198C155.048 488.198 154.227 488.011 153.501 487.637C152.782 487.256 152.203 486.728 151.763 486.053C151.323 485.378 151.059 484.605 150.971 483.732C150.927 483.299 150.905 482.786 150.905 482.192C150.905 481.679 150.923 481.202 150.96 480.762C151.04 479.889 151.301 479.116 151.741 478.441C152.188 477.759 152.775 477.231 153.501 476.857C154.227 476.476 155.048 476.285 155.965 476.285C156.881 476.285 157.706 476.476 158.44 476.857C159.173 477.231 159.76 477.759 160.2 478.441C160.64 479.116 160.9 479.889 160.981 480.762C161.017 481.202 161.036 481.679 161.036 482.192C161.036 482.786 161.014 483.299 160.97 483.732C160.882 484.605 160.618 485.378 160.178 486.053C159.738 486.728 159.155 487.256 158.429 487.637C157.703 488.011 156.881 488.198 155.965 488.198ZM152.731 483.545C152.782 484.117 152.947 484.623 153.226 485.063C153.512 485.503 153.889 485.848 154.359 486.097C154.828 486.339 155.363 486.46 155.965 486.46C156.566 486.46 157.101 486.339 157.571 486.097C158.04 485.848 158.414 485.503 158.693 485.063C158.979 484.623 159.151 484.117 159.21 483.545C159.246 483.208 159.265 482.771 159.265 482.236C159.265 481.708 159.246 481.275 159.21 480.938C159.158 480.366 158.99 479.86 158.704 479.42C158.425 478.98 158.047 478.639 157.571 478.397C157.101 478.155 156.566 478.034 155.965 478.034C155.363 478.034 154.828 478.155 154.359 478.397C153.897 478.639 153.523 478.98 153.237 479.42C152.958 479.86 152.789 480.366 152.731 480.938C152.694 481.393 152.676 481.825 152.676 482.236C152.676 482.654 152.694 483.09 152.731 483.545ZM168.868 488.198C167.856 488.198 166.995 488.018 166.283 487.659C165.572 487.292 165.033 486.764 164.666 486.075C164.3 485.386 164.116 484.561 164.116 483.6V477.33C164.116 477.029 164.193 476.798 164.347 476.637C164.509 476.468 164.729 476.384 165.007 476.384C165.286 476.384 165.502 476.468 165.656 476.637C165.818 476.798 165.898 477.029 165.898 477.33V483.457C165.898 485.459 166.888 486.46 168.868 486.46C169.418 486.46 169.957 486.39 170.485 486.251C171.021 486.104 171.464 485.921 171.816 485.701V477.33C171.816 477.029 171.893 476.798 172.047 476.637C172.209 476.468 172.429 476.384 172.707 476.384C172.986 476.384 173.202 476.468 173.356 476.637C173.518 476.798 173.598 477.029 173.598 477.33V486.086C173.598 486.35 173.558 486.555 173.477 486.702C173.404 486.841 173.265 486.97 173.059 487.087C172.612 487.366 172.011 487.622 171.255 487.857C170.507 488.084 169.712 488.198 168.868 488.198ZM178.049 488.099C177.77 488.099 177.554 488.018 177.4 487.857C177.246 487.688 177.169 487.454 177.169 487.153V479.86C177.169 478.738 177.484 477.862 178.115 477.231C178.745 476.6 179.625 476.285 180.755 476.285C181.473 476.285 182.082 476.362 182.581 476.516C183.16 476.685 183.45 476.993 183.45 477.44C183.45 477.704 183.369 477.913 183.208 478.067C183.054 478.221 182.874 478.298 182.669 478.298C182.544 478.298 182.394 478.276 182.218 478.232C181.763 478.107 181.305 478.045 180.843 478.045C179.574 478.045 178.94 478.672 178.94 479.926V487.153C178.94 487.454 178.859 487.688 178.698 487.857C178.544 488.018 178.327 488.099 178.049 488.099ZM200.631 480.663C200.668 481.03 200.686 481.558 200.686 482.247C200.686 482.936 200.668 483.464 200.631 483.831C200.543 484.696 200.29 485.459 199.872 486.119C199.462 486.772 198.908 487.281 198.211 487.648C197.515 488.015 196.715 488.198 195.813 488.198C195.263 488.198 194.717 488.136 194.174 488.011C193.632 487.886 193.159 487.721 192.755 487.516V491.014C192.755 491.315 192.675 491.546 192.513 491.707C192.359 491.876 192.143 491.96 191.864 491.96C191.586 491.96 191.366 491.876 191.204 491.707C191.05 491.546 190.973 491.315 190.973 491.014V478.485C190.973 478.17 191.003 477.946 191.061 477.814C191.12 477.675 191.241 477.55 191.424 477.44C191.872 477.161 192.488 476.901 193.272 476.659C194.057 476.41 194.871 476.285 195.714 476.285C196.646 476.285 197.467 476.468 198.178 476.835C198.89 477.202 199.454 477.715 199.872 478.375C200.29 479.035 200.543 479.798 200.631 480.663ZM192.755 485.701C193.063 485.921 193.5 486.104 194.064 486.251C194.636 486.39 195.175 486.46 195.681 486.46C196.62 486.46 197.361 486.207 197.903 485.701C198.446 485.188 198.761 484.498 198.849 483.633C198.893 483.215 198.915 482.764 198.915 482.28C198.915 481.752 198.893 481.275 198.849 480.85C198.769 479.985 198.453 479.299 197.903 478.793C197.361 478.28 196.62 478.023 195.681 478.023C195.168 478.023 194.629 478.096 194.064 478.243C193.5 478.39 193.063 478.573 192.755 478.793V485.701ZM208.451 488.198C207.534 488.198 206.713 488.011 205.987 487.637C205.268 487.256 204.689 486.728 204.249 486.053C203.809 485.378 203.545 484.605 203.457 483.732C203.413 483.299 203.391 482.786 203.391 482.192C203.391 481.679 203.409 481.202 203.446 480.762C203.526 479.889 203.787 479.116 204.227 478.441C204.674 477.759 205.261 477.231 205.987 476.857C206.713 476.476 207.534 476.285 208.451 476.285C209.367 476.285 210.192 476.476 210.926 476.857C211.659 477.231 212.246 477.759 212.686 478.441C213.126 479.116 213.386 479.889 213.467 480.762C213.503 481.202 213.522 481.679 213.522 482.192C213.522 482.786 213.5 483.299 213.456 483.732C213.368 484.605 213.104 485.378 212.664 486.053C212.224 486.728 211.641 487.256 210.915 487.637C210.189 488.011 209.367 488.198 208.451 488.198ZM205.217 483.545C205.268 484.117 205.433 484.623 205.712 485.063C205.998 485.503 206.375 485.848 206.845 486.097C207.314 486.339 207.849 486.46 208.451 486.46C209.052 486.46 209.587 486.339 210.057 486.097C210.526 485.848 210.9 485.503 211.179 485.063C211.465 484.623 211.637 484.117 211.696 483.545C211.732 483.208 211.751 482.771 211.751 482.236C211.751 481.708 211.732 481.275 211.696 480.938C211.644 480.366 211.476 479.86 211.19 479.42C210.911 478.98 210.533 478.639 210.057 478.397C209.587 478.155 209.052 478.034 208.451 478.034C207.849 478.034 207.314 478.155 206.845 478.397C206.383 478.639 206.009 478.98 205.723 479.42C205.444 479.86 205.275 480.366 205.217 480.938C205.18 481.393 205.162 481.825 205.162 482.236C205.162 482.654 205.18 483.09 205.217 483.545ZM217.538 473.931C217.816 473.931 218.033 474.015 218.187 474.184C218.348 474.353 218.429 474.584 218.429 474.877V476.483H221.718C222.04 476.483 222.286 476.556 222.455 476.703C222.623 476.85 222.708 477.059 222.708 477.33C222.708 477.601 222.623 477.81 222.455 477.957C222.286 478.104 222.04 478.177 221.718 478.177H218.429V484.612C218.429 485.243 218.568 485.712 218.847 486.02C219.133 486.328 219.573 486.482 220.167 486.482C220.482 486.482 220.761 486.456 221.003 486.405C221.245 486.354 221.494 486.28 221.751 486.185C221.846 486.148 221.941 486.115 222.037 486.086C222.139 486.057 222.238 486.042 222.334 486.042C222.539 486.042 222.715 486.119 222.862 486.273C223.016 486.427 223.093 486.625 223.093 486.867C223.093 487.087 223.03 487.27 222.906 487.417C222.788 487.556 222.605 487.674 222.356 487.769C221.608 488.055 220.849 488.198 220.079 488.198C219.382 488.198 218.773 488.062 218.253 487.791C217.739 487.52 217.343 487.127 217.065 486.614C216.786 486.101 216.647 485.485 216.647 484.766V474.877C216.647 474.576 216.724 474.345 216.878 474.184C217.039 474.015 217.259 473.931 217.538 473.931ZM234.471 488.099C234.009 488.099 233.642 487.963 233.371 487.692C233.1 487.421 232.876 486.951 232.7 486.284L230.247 477.627C230.203 477.451 230.181 477.323 230.181 477.242C230.181 476.978 230.273 476.769 230.456 476.615C230.639 476.461 230.859 476.384 231.116 476.384C231.563 476.384 231.849 476.637 231.974 477.143L232.051 477.418C233.136 481.415 233.921 484.37 234.405 486.284C234.427 486.357 234.445 486.409 234.46 486.438C234.482 486.467 234.508 486.482 234.537 486.482C234.566 486.482 234.588 486.471 234.603 486.449C234.625 486.42 234.647 486.365 234.669 486.284L235.318 483.754C236.015 480.989 236.535 478.991 236.88 477.759C237.005 477.282 237.184 476.934 237.419 476.714C237.654 476.494 237.98 476.384 238.398 476.384C238.809 476.384 239.131 476.494 239.366 476.714C239.608 476.934 239.795 477.282 239.927 477.759C240.176 478.639 240.448 479.64 240.741 480.762C241.034 481.884 241.225 482.614 241.313 482.951C241.504 483.692 241.797 484.803 242.193 486.284C242.215 486.357 242.233 486.409 242.248 486.438C242.27 486.467 242.299 486.482 242.336 486.482C242.365 486.482 242.387 486.467 242.402 486.438C242.424 486.401 242.446 486.35 242.468 486.284C242.754 485.235 243.066 484.051 243.403 482.731C243.74 481.411 243.975 480.491 244.107 479.97L244.833 477.143C244.892 476.901 244.994 476.714 245.141 476.582C245.288 476.45 245.475 476.384 245.702 476.384C245.959 476.384 246.175 476.461 246.351 476.615C246.527 476.769 246.615 476.978 246.615 477.242C246.615 477.352 246.597 477.48 246.56 477.627L244.118 486.284C243.942 486.944 243.715 487.413 243.436 487.692C243.165 487.963 242.805 488.099 242.358 488.099C241.896 488.099 241.522 487.963 241.236 487.692C240.957 487.421 240.734 486.951 240.565 486.284L238.519 478.474C238.497 478.408 238.46 478.375 238.409 478.375C238.365 478.375 238.332 478.408 238.31 478.474L236.22 486.284C236.051 486.944 235.831 487.413 235.56 487.692C235.289 487.963 234.926 488.099 234.471 488.099ZM250.228 472.248C250.565 472.248 250.844 472.358 251.064 472.578C251.284 472.798 251.394 473.073 251.394 473.403C251.394 473.74 251.284 474.023 251.064 474.25C250.844 474.47 250.565 474.58 250.228 474.58C249.905 474.58 249.634 474.47 249.414 474.25C249.194 474.023 249.084 473.74 249.084 473.403C249.084 473.073 249.194 472.798 249.414 472.578C249.634 472.358 249.905 472.248 250.228 472.248ZM249.348 477.33C249.348 477.029 249.425 476.798 249.579 476.637C249.74 476.468 249.96 476.384 250.239 476.384C250.517 476.384 250.734 476.468 250.888 476.637C251.049 476.798 251.13 477.029 251.13 477.33V487.153C251.13 487.454 251.049 487.688 250.888 487.857C250.734 488.018 250.517 488.099 250.239 488.099C249.96 488.099 249.74 488.018 249.579 487.857C249.425 487.688 249.348 487.454 249.348 487.153V477.33ZM255.715 473.931C255.994 473.931 256.21 474.015 256.364 474.184C256.526 474.353 256.606 474.584 256.606 474.877V476.483H259.895C260.218 476.483 260.464 476.556 260.632 476.703C260.801 476.85 260.885 477.059 260.885 477.33C260.885 477.601 260.801 477.81 260.632 477.957C260.464 478.104 260.218 478.177 259.895 478.177H256.606V484.612C256.606 485.243 256.746 485.712 257.024 486.02C257.31 486.328 257.75 486.482 258.344 486.482C258.66 486.482 258.938 486.456 259.18 486.405C259.422 486.354 259.672 486.28 259.928 486.185C260.024 486.148 260.119 486.115 260.214 486.086C260.317 486.057 260.416 486.042 260.511 486.042C260.717 486.042 260.893 486.119 261.039 486.273C261.193 486.427 261.27 486.625 261.27 486.867C261.27 487.087 261.208 487.27 261.083 487.417C260.966 487.556 260.783 487.674 260.533 487.769C259.785 488.055 259.026 488.198 258.256 488.198C257.56 488.198 256.951 488.062 256.43 487.791C255.917 487.52 255.521 487.127 255.242 486.614C254.964 486.101 254.824 485.485 254.824 484.766V474.877C254.824 474.576 254.901 474.345 255.055 474.184C255.217 474.015 255.437 473.931 255.715 473.931ZM268.926 476.285C269.77 476.285 270.51 476.454 271.148 476.791C271.786 477.128 272.281 477.627 272.633 478.287C272.993 478.94 273.172 479.732 273.172 480.663V487.076C273.172 487.377 273.092 487.611 272.93 487.78C272.776 487.941 272.56 488.022 272.281 488.022C272.003 488.022 271.783 487.941 271.621 487.78C271.467 487.611 271.39 487.377 271.39 487.076V480.894C271.39 479.985 271.159 479.281 270.697 478.782C270.235 478.283 269.564 478.034 268.684 478.034C268.054 478.034 267.441 478.199 266.847 478.529C266.253 478.859 265.766 479.27 265.384 479.761V487.076C265.384 487.377 265.304 487.611 265.142 487.78C264.988 487.941 264.772 488.022 264.493 488.022C264.215 488.022 263.995 487.941 263.833 487.78C263.679 487.611 263.602 487.377 263.602 487.076V473.117C263.602 472.816 263.679 472.585 263.833 472.424C263.995 472.255 264.215 472.171 264.493 472.171C264.772 472.171 264.988 472.255 265.142 472.424C265.304 472.585 265.384 472.816 265.384 473.117V477.77C265.817 477.33 266.345 476.974 266.968 476.703C267.599 476.424 268.252 476.285 268.926 476.285Z" fill="black"/>
<circle cx="181" cy="374" r="36" fill="#CECDCD"/>
</svg>
