<svg width="360" height="800" viewBox="0 0 360 800" fill="none" xmlns="http://www.w3.org/2000/svg">
<g clip-path="url(#clip0_4434_331808)">
<rect width="360" height="800" fill="#F0F2F2"/>
<mask id="mask0_4434_331808" style="mask-type:alpha" maskUnits="userSpaceOnUse" x="0" y="590" width="360" height="210">
<path d="M0 590H360V800H0V590Z" fill="white"/>
</mask>
<g mask="url(#mask0_4434_331808)">
<g clip-path="url(#clip1_4434_331808)">
<path d="M261.066 1070.61C381.22 1070.61 478.624 973.209 478.624 853.055C478.624 732.902 381.22 635.498 261.066 635.498C140.912 635.498 43.5078 732.902 43.5078 853.055C43.5078 973.209 140.912 1070.61 261.066 1070.61Z" fill="#5B5B5B"/>
<g filter="url(#filter0_d_4434_331808)">
<path d="M260.811 1038.53C363.794 1038.53 447.278 955.604 447.278 853.313C447.278 751.023 363.794 668.1 260.811 668.1C157.828 668.1 74.3438 751.023 74.3438 853.313C74.3438 955.604 157.828 1038.53 260.811 1038.53Z" fill="#A0A0A0"/>
<path d="M126.265 733.013L158.046 704.039L168.373 715.211C170.712 717.742 170.549 721.673 168.01 723.988L145.421 744.582C142.882 746.897 138.924 746.723 136.585 744.192L126.258 733.02L126.265 733.013Z" fill="#A0A0A0"/>
<path d="M120.484 731.471L157.013 698.166L159.587 700.951C160.767 702.227 160.685 704.214 159.404 705.382L127.519 734.452C126.238 735.62 124.238 735.532 123.058 734.256L120.484 731.471Z" fill="#A0A0A0"/>
<path d="M117.065 687.725C117.306 688.673 117.043 689.705 116.273 690.407C115.504 691.109 114.485 691.27 113.58 690.986L110.336 701.18C109.953 702.393 110.733 703.679 111.992 703.875C116.573 704.605 121.421 703.326 125.101 699.975C128.866 696.534 130.555 691.674 130.114 686.963C129.992 685.695 128.746 684.835 127.514 685.142L117.077 687.73L117.065 687.725Z" fill="#A0A0A0"/>
<path d="M116.485 686.542C116.81 686.887 117.011 687.298 117.121 687.731L127.555 685.143C128.796 684.833 129.478 683.493 128.974 682.314C128.29 680.699 127.311 679.17 126.046 677.804C120.694 672.001 111.996 671.093 105.649 675.328C104.594 676.034 104.431 677.522 105.292 678.463L112.584 686.365C113.699 685.341 115.439 685.421 116.473 686.536L116.485 686.542Z" fill="#A0A0A0"/>
<path d="M112.387 690.257C111.354 689.144 111.428 687.414 112.542 686.391L105.258 678.497C104.389 677.56 102.889 677.59 102.088 678.579C97.3093 684.501 97.4813 693.193 102.828 698.99C104.18 700.461 105.748 701.608 107.444 702.433C108.58 702.997 109.957 702.391 110.343 701.188L113.591 691.004C113.143 690.861 112.73 690.626 112.396 690.254L112.387 690.257Z" fill="#A0A0A0"/>
<path d="M116.722 696.927C116.722 696.927 116.722 722.582 141.117 717.332" stroke="#A0A0A0" stroke-width="2.21073" stroke-miterlimit="10"/>
<path d="M136.895 717.981C136.895 717.981 124.716 704.579 137.751 693.151C137.751 693.151 149.949 703.603 136.895 717.981Z" fill="#A0A0A0"/>
<path d="M122.103 712.562C122.103 712.562 115.435 708.104 108.865 714.955C108.865 714.955 115.255 722.472 122.103 712.562Z" fill="#A0A0A0"/>
<path d="M246.626 668.933L259.956 642.397C260.992 640.333 263.937 640.329 264.98 642.39L278.374 668.865C279.319 670.734 277.964 672.944 275.87 672.948L249.146 673.009C247.05 673.014 245.685 670.807 246.626 668.933Z" fill="#A0A0A0"/>
<path d="M276.76 667.338L291.395 646.277C292.466 644.736 294.856 645.182 295.299 647.006L301.337 671.855C301.71 673.387 300.38 674.795 298.829 674.511L278.155 670.722C276.598 670.436 275.856 668.637 276.76 667.338Z" fill="#A0A0A0"/>
<path d="M301.381 671.328L314.845 657.923C315.831 656.942 317.513 657.584 317.593 658.972L318.693 677.885C318.761 679.051 317.605 679.901 316.513 679.487L301.948 673.98C300.851 673.565 300.55 672.155 301.381 671.328Z" fill="#A0A0A0"/>
</g>
<g filter="url(#filter1_dd_4434_331808)">
<rect width="20.8733" height="47.3127" rx="1.04131" transform="matrix(0.914042 -0.405619 0.405622 0.914041 178.352 684.254)" fill="#B9B9B9"/>
<path fill-rule="evenodd" clip-rule="evenodd" d="M193.185 681.475L185.375 684.941C185.522 685.124 185.648 685.329 185.748 685.554C186.37 686.956 185.74 688.598 184.339 689.224L197.882 719.741C199.287 719.119 200.929 719.753 201.553 721.157C201.649 721.375 201.716 721.598 201.754 721.822L209.546 718.365C209.403 718.185 209.281 717.984 209.184 717.765C208.56 716.36 209.194 714.715 210.599 714.092L210.599 714.092L197.05 683.56C195.648 684.177 194.009 683.543 193.387 682.142C193.29 681.923 193.223 681.7 193.185 681.475ZM199.156 705.464C201.263 704.528 202.213 702.062 201.278 699.955C200.343 697.847 197.876 696.897 195.769 697.832C193.662 698.767 192.711 701.234 193.646 703.341C194.582 705.449 197.048 706.399 199.156 705.464Z" fill="#5B5B5B"/>
</g>
<g filter="url(#filter2_dd_4434_331808)">
<rect width="20.8733" height="47.3127" rx="1.04131" transform="matrix(0.981291 -0.192532 0.192534 0.98129 189.789 675.643)" fill="#B9B9B9"/>
<path fill-rule="evenodd" clip-rule="evenodd" d="M204.863 676.226L196.51 677.865C196.606 678.069 196.679 678.287 196.724 678.519C197.02 680.027 196.038 681.49 194.529 681.786L194.527 681.786L200.963 714.588C202.469 714.295 203.929 715.278 204.224 716.784C204.27 717.014 204.285 717.242 204.273 717.466L212.631 715.826C212.532 715.618 212.457 715.395 212.411 715.159C212.115 713.65 213.098 712.188 214.606 711.892L214.614 711.89L208.183 679.113L208.178 679.114C206.669 679.41 205.207 678.427 204.911 676.919C204.865 676.685 204.85 676.453 204.863 676.226ZM205.384 700.948C207.646 700.504 209.12 698.31 208.676 696.048C208.233 693.785 206.039 692.311 203.776 692.755C201.514 693.199 200.039 695.393 200.483 697.655C200.927 699.918 203.121 701.392 205.384 700.948Z" fill="#5B5B5B"/>
</g>
<g filter="url(#filter3_d_4434_331808)">
<path d="M260.796 1010.03C347.935 1010.03 418.576 939.865 418.576 853.311C418.576 766.757 347.935 696.592 260.796 696.592C173.656 696.592 103.016 766.757 103.016 853.311C103.016 939.865 173.656 1010.03 260.796 1010.03Z" fill="#B9B9B9"/>
<path d="M75.4166 781.602C68.928 797.014 74.8912 810.489 81.5608 816.79C81.5608 816.79 80.1029 809.19 86.5639 804.924C85.2686 799.721 88.177 792.795 93.226 789.099C92.3406 782.905 95.2617 775.984 99.8881 773.275C98.4238 765.672 104.878 761.403 104.878 761.403C95.7167 761.039 81.9051 766.189 75.4166 781.602Z" fill="#B9B9B9" stroke="#B9B9B9" stroke-width="2.78342" stroke-linejoin="round"/>
<path d="M75.4265 781.608L69.4922 779.109" stroke="#B9B9B9" stroke-width="2.78342" stroke-linecap="round"/>
<path d="M93.2093 789.12L113.979 797.865C115.618 798.554 116.387 800.442 115.697 802.081C115.008 803.72 113.12 804.489 111.481 803.799L106.536 801.717" stroke="#B9B9B9" stroke-width="2.78342" stroke-linecap="round"/>
</g>
<g filter="url(#filter4_d_4434_331808)">
<path d="M260.827 981.505C332.123 981.505 389.92 924.096 389.92 853.28C389.92 782.463 332.123 725.055 260.827 725.055C189.531 725.055 131.734 782.463 131.734 853.28C131.734 924.096 189.531 981.505 260.827 981.505Z" fill="#E6E6E6"/>
<path d="M305.899 718.961C303.818 718.122 301.436 719.122 300.591 721.188C299.747 723.254 300.753 725.621 302.833 726.46C304.914 727.299 307.296 726.299 308.141 724.233C308.985 722.167 307.979 719.8 305.899 718.961ZM303.688 724.37C302.764 724 302.321 722.951 302.695 722.037C303.07 721.124 304.124 720.679 305.044 721.051C305.968 721.421 306.411 722.47 306.037 723.384C305.664 724.302 304.608 724.742 303.688 724.37Z" fill="#E6E6E6"/>
<path d="M331.84 676.508C328.234 675.056 324.114 676.787 322.653 680.369C321.191 683.95 322.934 688.042 326.54 689.494C330.146 690.946 334.266 689.215 335.727 685.633C337.189 682.051 335.446 677.959 331.84 676.508ZM328.23 685.351C326.923 684.827 326.292 683.347 326.824 682.047C327.352 680.749 328.841 680.122 330.15 680.651C331.459 681.179 332.084 682.656 331.556 683.954C331.028 685.253 329.539 685.879 328.23 685.351Z" fill="#E6E6E6"/>
<path d="M334.321 670.471C327.362 667.668 319.398 671.01 316.577 677.926C313.755 684.838 317.119 692.749 324.082 695.55C331.046 698.352 339.005 695.012 341.826 688.095C344.648 681.183 341.284 673.273 334.321 670.471ZM325.659 691.678C320.845 689.738 318.523 684.274 320.472 679.494C322.425 674.712 327.925 672.406 332.738 674.341C337.552 676.281 339.878 681.743 337.925 686.525C335.972 691.307 330.474 693.617 325.659 691.678Z" fill="#E6E6E6"/>
<path d="M327.458 712.892C324.996 711.904 322.182 713.084 321.185 715.525C320.19 717.97 321.378 720.765 323.835 721.755C326.297 722.743 329.107 721.565 330.108 719.123C331.103 716.678 329.916 713.887 327.458 712.892ZM324.972 718.984C324.048 718.614 323.604 717.566 323.979 716.652C324.352 715.734 325.407 715.294 326.327 715.666C327.251 716.036 327.694 717.084 327.32 717.998C326.945 718.912 325.892 719.356 324.972 718.984Z" fill="#E6E6E6"/>
<path d="M312.612 697.282C310.024 696.238 307.071 697.482 306.02 700.052C304.969 702.622 306.221 705.555 308.809 706.599C311.396 707.643 314.354 706.398 315.4 703.829C316.451 701.259 315.198 698.321 312.612 697.282ZM310.031 703.603C309.107 703.233 308.664 702.184 309.038 701.27C309.411 700.352 310.467 699.912 311.387 700.284C312.311 700.654 312.754 701.703 312.38 702.617C312.005 703.53 310.951 703.975 310.031 703.603Z" fill="#E6E6E6"/>
<path d="M306.798 741.951L316.122 719.118C316.718 722.23 318.834 724.984 322.005 726.263C326.972 728.262 332.633 725.885 334.646 720.951C336.659 716.018 334.265 710.394 329.299 708.395C326.128 707.116 322.676 707.629 320.067 709.45L322.862 702.608C333.093 705.881 344.291 700.803 348.393 690.749C352.695 680.214 347.583 668.209 336.976 663.935C326.369 659.662 314.283 664.741 309.981 675.276C307.673 680.92 308.074 686.988 310.571 692.059C306.686 692.11 303.03 694.433 301.475 698.233C299.408 703.296 301.863 709.064 306.96 711.117C310.241 712.437 313.809 711.89 316.492 709.99L311.945 721.123C311.447 718.581 309.711 716.331 307.118 715.285C303.035 713.642 298.386 715.596 296.73 719.647C295.075 723.702 297.043 728.32 301.121 729.965C303.719 731.01 306.539 730.597 308.68 729.118L303.983 740.822L306.782 741.962L306.798 741.951ZM302.271 727.865C299.413 726.714 298.027 723.461 299.186 720.622C300.346 717.784 303.62 716.407 306.478 717.559C309.336 718.711 310.722 721.963 309.563 724.802C308.403 727.641 305.129 729.017 302.271 727.865ZM308.101 708.344C304.547 706.912 302.832 702.878 304.27 699.35C305.712 695.821 309.773 694.117 313.325 695.545C316.878 696.977 318.593 701.011 317.156 704.539C315.714 708.069 311.653 709.772 308.101 708.344ZM323.184 697.722C315.017 694.431 311.065 685.153 314.377 677.036C317.689 668.919 327.032 664.998 335.204 668.288C343.371 671.579 347.322 680.857 344.011 688.974C340.697 697.087 331.356 701.012 323.184 697.722ZM323.13 723.501C319.701 722.12 318.045 718.226 319.438 714.824C320.83 711.422 324.748 709.773 328.173 711.156C331.603 712.538 333.258 716.431 331.866 719.833C330.475 723.24 326.555 724.884 323.13 723.501Z" fill="#E6E6E6"/>
<path d="M159.442 747.949C158.763 747.842 158.3 747.208 158.406 746.534L159.138 741.924C156.514 741.844 153.894 742.784 151.91 744.684L155.565 747.619C156.1 748.047 156.182 748.828 155.751 749.36C155.32 749.891 154.533 749.972 153.998 749.544L150.343 746.609C148.891 748.934 148.515 751.675 149.14 754.206L153.524 752.53C154.165 752.284 154.887 752.602 155.135 753.241C155.383 753.877 155.063 754.595 154.419 754.841L150.022 756.521C150.634 757.654 151.478 758.688 152.545 759.544C153.615 760.403 154.806 761.005 156.051 761.36L156.785 756.736C156.894 756.062 157.531 755.602 158.21 755.706C158.889 755.814 159.352 756.447 159.246 757.121L158.514 761.732C161.138 761.812 163.758 760.872 165.742 758.972L162.087 756.037C161.552 755.609 161.471 754.828 161.901 754.296C162.332 753.765 163.119 753.684 163.654 754.112L167.309 757.047C168.761 754.722 169.137 751.98 168.512 749.45L164.128 751.125C163.487 751.371 162.765 751.054 162.517 750.414C162.27 749.778 162.589 749.061 163.233 748.815L167.63 747.135C167.018 746.002 166.174 744.968 165.108 744.112C164.037 743.253 162.846 742.651 161.601 742.296L160.867 746.92C160.758 747.594 160.121 748.054 159.442 747.949Z" fill="#E6E6E6"/>
<path d="M153.34 731.45L137.621 750.761C136.001 752.753 136.311 755.671 138.316 757.281L157.758 772.895C159.763 774.504 162.701 774.195 164.321 772.204L180.041 752.892C181.661 750.901 181.351 747.982 179.346 746.373L159.904 730.759C157.899 729.15 154.96 729.458 153.34 731.45ZM168.389 759.501C164.12 764.745 156.384 765.558 151.105 761.321C145.825 757.081 145.007 749.397 149.272 744.153C153.538 738.909 161.277 738.096 166.557 742.333C171.836 746.573 172.655 754.257 168.389 759.501Z" fill="#E6E6E6"/>
<path d="M137.395 758.345L138.471 757.023L145.621 762.763L144.544 764.085C144.292 764.396 143.835 764.444 143.522 764.193L137.506 759.363C137.193 759.112 137.145 758.658 137.397 758.347L137.395 758.345Z" fill="#E6E6E6"/>
<path d="M149.898 768.382L150.975 767.06L158.124 772.8L157.048 774.122C156.795 774.433 156.338 774.481 156.026 774.23L150.009 769.4C149.697 769.149 149.648 768.695 149.901 768.384L149.898 768.382Z" fill="#E6E6E6"/>
</g>
<g filter="url(#filter5_d_4434_331808)">
<path d="M260.812 953.059C316.264 953.059 361.217 908.408 361.217 853.328C361.217 798.249 316.264 753.598 260.812 753.598C205.359 753.598 160.406 798.249 160.406 853.328C160.406 908.408 205.359 953.059 260.812 953.059Z" fill="#F0F2F2"/>
</g>
</g>
</g>
<g filter="url(#filter6_f_4434_331808)">
<circle cx="180" cy="240" r="80" fill="#F5F5F5"/>
</g>
<rect x="120" y="180" width="120" height="120" rx="60" fill="white"/>
<path d="M203.618 214.014L208.342 230.501L179.997 268.188L175.273 251.7L203.618 214.014Z" fill="#5B5B5B" stroke="#5B5B5B" stroke-width="1.49221" stroke-linejoin="round"/>
<path d="M175.277 251.699L151.656 249.344L156.38 265.831L180.001 268.187L175.277 251.699Z" fill="#5B5B5B" stroke="#5B5B5B" stroke-width="1.49221" stroke-linejoin="round"/>
<path d="M180.001 211.656L203.621 214.012L175.277 251.698L151.656 249.343L180.001 211.656Z" fill="#B9B9B9" stroke="#B9B9B9" stroke-width="1.49221" stroke-linejoin="round"/>
<g filter="url(#filter7_d_4434_331808)">
<path d="M178.79 239.924L178.876 247.898C179.319 251.092 181.837 253.603 185.045 254.049L193.041 254.135L185.045 254.22C181.841 254.662 179.323 257.173 178.876 260.372L178.79 268.346L178.705 260.372C178.262 257.177 175.744 254.666 172.536 254.22L164.539 254.135L172.536 254.049C175.739 253.608 178.257 251.097 178.705 247.898L178.79 239.924Z" fill="white"/>
<path d="M178.79 239.924L178.876 247.898C179.319 251.092 181.837 253.603 185.045 254.049L193.041 254.135L185.045 254.22C181.841 254.662 179.323 257.173 178.876 260.372L178.79 268.346L178.705 260.372C178.262 257.177 175.744 254.666 172.536 254.22L164.539 254.135L172.536 254.049C175.739 253.608 178.257 251.097 178.705 247.898L178.79 239.924Z" stroke="white" stroke-width="1.12" stroke-linejoin="round"/>
</g>
<path d="M263.189 156.534L263.62 156.094L264.051 156.534C266.641 161.373 267.075 173.692 269.232 175.452C270.958 177.212 282.174 175.892 286.92 178.092L287.351 178.532L286.92 178.972C282.175 181.611 270.959 182.051 269.234 183.811C267.508 185.57 267.942 197.009 265.354 201.848L264.923 202.288L264.492 201.848C261.902 197.449 261.469 185.13 259.743 183.811C257.585 182.051 246.801 182.491 241.623 179.851L241.192 179.411L241.623 178.971C245.937 176.331 257.584 176.771 259.31 175.012C261.035 173.692 260.17 161.373 263.189 156.534Z" fill="white"/>
<path d="M119.674 276.081L119.845 275.906L120.016 276.081C121.041 277.997 121.213 282.876 122.067 283.572C122.751 284.269 127.192 283.747 129.072 284.618L129.243 284.792L129.072 284.966C127.193 286.012 122.751 286.186 122.068 286.883C121.385 287.58 121.556 292.11 120.532 294.026L120.361 294.2L120.19 294.026C119.165 292.284 118.993 287.405 118.309 286.883C117.455 286.186 113.184 286.36 111.134 285.315L110.963 285.14L111.133 284.966C112.842 283.921 117.454 284.095 118.138 283.398C118.821 282.875 118.478 277.997 119.674 276.081Z" fill="white"/>
<path d="M126.852 316.586L127.108 316.324L127.365 316.586C128.902 319.459 129.16 326.773 130.44 327.818C131.465 328.863 138.125 328.079 140.942 329.385L141.199 329.647L140.943 329.908C138.125 331.475 131.466 331.736 130.441 332.781C129.417 333.826 129.674 340.618 128.138 343.491L127.882 343.752L127.626 343.491C126.089 340.879 125.831 333.565 124.806 332.781C123.525 331.736 117.122 331.997 114.048 330.43L113.792 330.169L114.048 329.908C116.609 328.34 123.525 328.602 124.549 327.557C125.574 326.773 125.06 319.459 126.852 316.586Z" fill="white"/>
<path d="M245.65 136.051L245.821 135.877L245.992 136.051C247.018 137.968 247.189 142.846 248.044 143.543C248.727 144.24 253.169 143.717 255.048 144.589L255.219 144.763L255.048 144.937C253.169 145.982 248.728 146.157 248.044 146.853C247.361 147.55 247.533 152.08 246.508 153.997L246.337 154.171L246.166 153.997C245.141 152.255 244.969 147.376 244.286 146.853C243.431 146.157 239.16 146.331 237.11 145.285L236.939 145.111L237.11 144.937C238.818 143.891 243.431 144.066 244.114 143.369C244.798 142.846 244.455 137.968 245.65 136.051Z" fill="white"/>
<path d="M157.608 358.083C159.406 357.025 160.022 354.681 158.984 352.848C157.946 351.015 155.647 350.387 153.849 351.445C152.051 352.503 151.435 354.847 152.473 356.68C153.511 358.514 155.81 359.142 157.608 358.083Z" fill="#818181"/>
<path d="M107.402 312.418C108.304 311.887 108.613 310.711 108.093 309.791C107.572 308.871 106.418 308.556 105.516 309.087C104.614 309.618 104.305 310.794 104.826 311.714C105.347 312.634 106.5 312.949 107.402 312.418Z" fill="#818181"/>
<path d="M227.723 145.938C228.625 145.407 228.934 144.23 228.413 143.311C227.892 142.391 226.739 142.076 225.836 142.607C224.934 143.138 224.625 144.314 225.146 145.234C225.667 146.154 226.82 146.469 227.723 145.938Z" fill="#818181"/>
<path d="M241.879 346.6C242.781 346.069 243.09 344.893 242.569 343.973C242.048 343.053 240.895 342.738 239.993 343.269C239.091 343.8 238.782 344.976 239.302 345.896C239.823 346.816 240.977 347.131 241.879 346.6Z" fill="#818181"/>
<path d="M120.137 193.582C121.039 193.051 121.348 191.875 120.827 190.955C120.306 190.036 119.153 189.72 118.251 190.251C117.348 190.782 117.039 191.959 117.56 192.878C118.081 193.798 119.235 194.113 120.137 193.582Z" fill="#818181"/>
<path d="M86.1679 209.463C87.0699 208.932 87.379 207.756 86.8582 206.836C86.3374 205.916 85.1839 205.601 84.2818 206.132C83.3797 206.663 83.0706 207.839 83.5915 208.759C84.1123 209.679 85.2658 209.994 86.1679 209.463Z" fill="#818181"/>
<path d="M263.772 324.878C265.57 323.82 266.186 321.476 265.148 319.643C264.11 317.81 261.811 317.182 260.013 318.24C258.215 319.298 257.599 321.642 258.637 323.475C259.675 325.309 261.974 325.937 263.772 324.878Z" fill="#818181"/>
<path d="M258.108 210.831C259.906 209.773 260.522 207.429 259.484 205.596C258.446 203.763 256.147 203.135 254.349 204.193C252.551 205.251 251.935 207.595 252.973 209.429C254.011 211.262 256.31 211.89 258.108 210.831Z" fill="#818181"/>
<path d="M236.881 205.066C238.679 204.007 239.295 201.663 238.257 199.83C237.219 197.997 234.92 197.369 233.123 198.427C231.325 199.486 230.709 201.83 231.747 203.663C232.785 205.496 235.084 206.124 236.881 205.066Z" fill="#818181"/>
<path d="M164.208 153.925C167.697 151.871 168.893 147.321 166.878 143.763C164.864 140.205 160.402 138.986 156.912 141.04C153.423 143.095 152.227 147.644 154.242 151.202C156.256 154.76 160.718 155.979 164.208 153.925Z" fill="#818181"/>
<path d="M292.223 251.147C293.693 250.281 294.197 248.363 293.348 246.863C292.499 245.364 290.618 244.85 289.147 245.716C287.677 246.581 287.173 248.499 288.022 249.999C288.871 251.498 290.752 252.012 292.223 251.147Z" fill="#A0A0A0"/>
<path d="M176.145 314.662C177.615 313.796 178.119 311.879 177.27 310.379C176.421 308.879 174.54 308.365 173.069 309.231C171.599 310.097 171.095 312.015 171.944 313.514C172.793 315.014 174.674 315.528 176.145 314.662Z" fill="#A0A0A0"/>
<path d="M204.457 168.863C205.928 167.998 206.432 166.08 205.582 164.58C204.733 163.08 202.853 162.567 201.382 163.432C199.911 164.298 199.407 166.216 200.256 167.715C201.106 169.215 202.986 169.729 204.457 168.863Z" fill="#A0A0A0"/>
<path d="M284.46 283.231C285.392 282.682 285.712 281.466 285.173 280.515C284.635 279.564 283.442 279.238 282.509 279.787C281.576 280.336 281.257 281.552 281.796 282.503C282.334 283.455 283.527 283.781 284.46 283.231Z" fill="#A0A0A0"/>
<path d="M217.928 166.298C218.861 165.749 219.181 164.533 218.642 163.581C218.103 162.63 216.911 162.304 215.978 162.853C215.045 163.403 214.726 164.619 215.264 165.57C215.803 166.521 216.996 166.847 217.928 166.298Z" fill="#A0A0A0"/>
<path d="M100.444 215.384C101.377 214.835 101.696 213.619 101.158 212.667C100.619 211.716 99.4264 211.39 98.4936 211.939C97.5609 212.488 97.2413 213.705 97.7799 214.656C98.3185 215.607 99.5112 215.933 100.444 215.384Z" fill="#A0A0A0"/>
<path d="M101.121 157.315C102.592 156.449 103.096 154.531 102.246 153.031C101.397 151.532 99.5166 151.018 98.0459 151.884C96.5751 152.749 96.0712 154.667 96.9205 156.167C97.7697 157.666 99.6504 158.18 101.121 157.315Z" fill="#A0A0A0"/>
<path d="M65.7384 248.26C67.2091 247.394 67.7129 245.476 66.8637 243.977C66.0145 242.477 64.1338 241.963 62.663 242.829C61.1923 243.695 60.6884 245.612 61.5376 247.112C62.3869 248.612 64.2676 249.126 65.7384 248.26Z" fill="#A0A0A0"/>
<path d="M255.347 223.278C273.082 231.116 274.532 215.054 285.691 215.501C295.707 215.846 297.922 225.821 297.922 225.821" stroke="#A0A0A0" stroke-width="2.91191" stroke-miterlimit="10"/>
<path d="M117.269 257.013C117.269 257.013 109.353 254.967 109.227 246.394C109.253 239.7 104.517 236.415 98.7847 235.493C91.5062 234.266 86.2904 230.924 86.0721 225.317" stroke="#626262" stroke-width="2.91191" stroke-miterlimit="10"/>
<path d="M216.822 356.887C216.822 356.887 211.614 350.473 216.47 343.475C220.364 338.085 218.44 332.583 214.345 328.391C209.178 323.021 206.899 317.185 209.966 312.526" stroke="#626262" stroke-width="2.91191" stroke-miterlimit="10"/>
<path d="M141.065 166.38C138.889 168.246 133.774 165.932 131.823 160.04C129.873 154.148 121.373 153.682 117.972 156.763" stroke="#A0A0A0" stroke-width="2.91191" stroke-miterlimit="10"/>
<path d="M248.519 276.751C248.519 276.751 252.336 266.031 252.498 256.343L259.008 255.856C259.008 255.856 255.082 275.637 252.787 280.236L248.519 276.751V276.751Z" fill="#B3B3B3"/>
<path d="M85.4844 273.338C85.4844 273.338 98.3168 280.67 94.7108 289.632L100.607 285.759C100.607 285.759 98.2571 271.854 91.5511 269.767L85.4844 273.338Z" fill="#B3B3B3"/>
<path d="M179.675 126.758C179.675 126.758 185.454 129.995 185.643 134.51L195.171 132.522C195.171 132.522 190.131 123.621 184.381 122.178L179.675 126.758Z" fill="#B3B3B3"/>
<path d="M229.867 294.994C229.867 294.994 242.7 302.326 239.094 311.288L244.99 307.415C244.99 307.415 242.64 293.51 235.934 291.423L229.867 294.994Z" fill="#B3B3B3"/>
<path d="M134.058 404.238C132.76 404.238 131.608 403.953 130.6 403.384C129.592 402.815 128.789 401.998 128.192 400.934C127.604 399.87 127.263 398.619 127.17 397.182C127.114 396.323 127.086 395.203 127.086 393.822C127.086 392.739 127.109 391.769 127.156 390.91C127.249 389.482 127.59 388.241 128.178 387.186C128.775 386.131 129.578 385.319 130.586 384.75C131.603 384.181 132.76 383.896 134.058 383.896C135.355 383.896 136.508 384.181 137.516 384.75C138.524 385.319 139.322 386.131 139.91 387.186C140.507 388.241 140.852 389.482 140.946 390.91C141.002 391.759 141.03 392.879 141.03 394.27C141.03 395.371 141.006 396.342 140.96 397.182C140.866 398.61 140.521 399.856 139.924 400.92C139.336 401.984 138.533 402.805 137.516 403.384C136.508 403.953 135.355 404.238 134.058 404.238ZM129.522 397.056C129.662 398.671 130.114 399.893 130.88 400.724C131.654 401.555 132.714 401.97 134.058 401.97C135.402 401.97 136.466 401.55 137.25 400.71C138.034 399.87 138.486 398.652 138.608 397.056C138.664 396.272 138.692 395.278 138.692 394.074C138.692 392.861 138.664 391.857 138.608 391.064C138.486 389.477 138.034 388.264 137.25 387.424C136.466 386.584 135.402 386.164 134.058 386.164C132.704 386.164 131.645 386.584 130.88 387.424C130.114 388.255 129.662 389.468 129.522 391.064C129.456 391.867 129.424 392.856 129.424 394.032C129.424 395.18 129.456 396.188 129.522 397.056ZM146.135 399.184C146.481 399.184 146.747 399.287 146.933 399.492C147.129 399.697 147.227 399.982 147.227 400.346V402.964C147.227 403.337 147.129 403.627 146.933 403.832C146.747 404.028 146.481 404.126 146.135 404.126C145.799 404.126 145.533 404.023 145.337 403.818C145.141 403.613 145.043 403.328 145.043 402.964V400.346C145.043 399.982 145.141 399.697 145.337 399.492C145.533 399.287 145.799 399.184 146.135 399.184ZM158.229 404.238C156.932 404.238 155.779 403.953 154.771 403.384C153.763 402.815 152.961 401.998 152.363 400.934C151.775 399.87 151.435 398.619 151.341 397.182C151.285 396.323 151.257 395.203 151.257 393.822C151.257 392.739 151.281 391.769 151.327 390.91C151.421 389.482 151.761 388.241 152.349 387.186C152.947 386.131 153.749 385.319 154.757 384.75C155.775 384.181 156.932 383.896 158.229 383.896C159.527 383.896 160.679 384.181 161.687 384.75C162.695 385.319 163.493 386.131 164.081 387.186C164.679 388.241 165.024 389.482 165.117 390.91C165.173 391.759 165.201 392.879 165.201 394.27C165.201 395.371 165.178 396.342 165.131 397.182C165.038 398.61 164.693 399.856 164.095 400.92C163.507 401.984 162.705 402.805 161.687 403.384C160.679 403.953 159.527 404.238 158.229 404.238ZM153.693 397.056C153.833 398.671 154.286 399.893 155.051 400.724C155.826 401.555 156.885 401.97 158.229 401.97C159.573 401.97 160.637 401.55 161.421 400.71C162.205 399.87 162.658 398.652 162.779 397.056C162.835 396.272 162.863 395.278 162.863 394.074C162.863 392.861 162.835 391.857 162.779 391.064C162.658 389.477 162.205 388.264 161.421 387.424C160.637 386.584 159.573 386.164 158.229 386.164C156.876 386.164 155.817 386.584 155.051 387.424C154.286 388.255 153.833 389.468 153.693 391.064C153.628 391.867 153.595 392.856 153.595 394.032C153.595 395.18 153.628 396.188 153.693 397.056ZM175.319 404.238C174.022 404.238 172.869 403.953 171.861 403.384C170.853 402.815 170.051 401.998 169.453 400.934C168.865 399.87 168.525 398.619 168.431 397.182C168.375 396.323 168.347 395.203 168.347 393.822C168.347 392.739 168.371 391.769 168.417 390.91C168.511 389.482 168.851 388.241 169.439 387.186C170.037 386.131 170.839 385.319 171.847 384.75C172.865 384.181 174.022 383.896 175.319 383.896C176.617 383.896 177.769 384.181 178.777 384.75C179.785 385.319 180.583 386.131 181.171 387.186C181.769 388.241 182.114 389.482 182.207 390.91C182.263 391.759 182.291 392.879 182.291 394.27C182.291 395.371 182.268 396.342 182.221 397.182C182.128 398.61 181.783 399.856 181.185 400.92C180.597 401.984 179.795 402.805 178.777 403.384C177.769 403.953 176.617 404.238 175.319 404.238ZM170.783 397.056C170.923 398.671 171.376 399.893 172.141 400.724C172.916 401.555 173.975 401.97 175.319 401.97C176.663 401.97 177.727 401.55 178.511 400.71C179.295 399.87 179.748 398.652 179.869 397.056C179.925 396.272 179.953 395.278 179.953 394.074C179.953 392.861 179.925 391.857 179.869 391.064C179.748 389.477 179.295 388.264 178.511 387.424C177.727 386.584 176.663 386.164 175.319 386.164C173.966 386.164 172.907 386.584 172.141 387.424C171.376 388.255 170.923 389.468 170.783 391.064C170.718 391.867 170.685 392.856 170.685 394.032C170.685 395.18 170.718 396.188 170.783 397.056ZM192.409 404.238C191.112 404.238 189.959 403.953 188.951 403.384C187.943 402.815 187.14 401.998 186.543 400.934C185.955 399.87 185.614 398.619 185.521 397.182C185.465 396.323 185.437 395.203 185.437 393.822C185.437 392.739 185.46 391.769 185.507 390.91C185.6 389.482 185.941 388.241 186.529 387.186C187.126 386.131 187.929 385.319 188.937 384.75C189.954 384.181 191.112 383.896 192.409 383.896C193.706 383.896 194.859 384.181 195.867 384.75C196.875 385.319 197.673 386.131 198.261 387.186C198.858 388.241 199.204 389.482 199.297 390.91C199.353 391.759 199.381 392.879 199.381 394.27C199.381 395.371 199.358 396.342 199.311 397.182C199.218 398.61 198.872 399.856 198.275 400.92C197.687 401.984 196.884 402.805 195.867 403.384C194.859 403.953 193.706 404.238 192.409 404.238ZM187.873 397.056C188.013 398.671 188.466 399.893 189.231 400.724C190.006 401.555 191.065 401.97 192.409 401.97C193.753 401.97 194.817 401.55 195.601 400.71C196.385 399.87 196.838 398.652 196.959 397.056C197.015 396.272 197.043 395.278 197.043 394.074C197.043 392.861 197.015 391.857 196.959 391.064C196.838 389.477 196.385 388.264 195.601 387.424C194.817 386.584 193.753 386.164 192.409 386.164C191.056 386.164 189.996 386.584 189.231 387.424C188.466 388.255 188.013 389.468 187.873 391.064C187.808 391.867 187.775 392.856 187.775 394.032C187.775 395.18 187.808 396.188 187.873 397.056ZM213.013 402.894C213.013 403.286 212.91 403.589 212.705 403.804C212.5 404.019 212.215 404.126 211.851 404.126C211.487 404.126 211.202 404.019 210.997 403.804C210.792 403.589 210.689 403.286 210.689 402.894V386.71L205.705 389.244C205.406 389.403 205.122 389.482 204.851 389.482C204.599 389.482 204.37 389.384 204.165 389.188C203.969 388.983 203.871 388.735 203.871 388.446C203.871 388.222 203.936 388.026 204.067 387.858C204.198 387.69 204.389 387.541 204.641 387.41L210.325 384.456C210.642 384.297 210.913 384.181 211.137 384.106C211.361 384.022 211.566 383.98 211.753 383.98C212.136 383.98 212.439 384.097 212.663 384.33C212.896 384.563 213.013 384.895 213.013 385.324V402.894ZM226.085 409.152C225.095 409.152 224.227 409.054 223.481 408.858C222.734 408.662 221.992 408.363 221.255 407.962C220.956 407.803 220.727 407.626 220.569 407.43C220.419 407.243 220.345 407.015 220.345 406.744C220.345 406.473 220.438 406.24 220.625 406.044C220.821 405.857 221.059 405.764 221.339 405.764C221.488 405.764 221.619 405.783 221.731 405.82C221.852 405.857 221.992 405.913 222.151 405.988C222.907 406.399 223.555 406.669 224.097 406.8C224.647 406.931 225.282 406.996 226.001 406.996C227.195 406.996 228.143 406.669 228.843 406.016C229.552 405.363 229.907 404.383 229.907 403.076V402.362C229.393 402.623 228.791 402.833 228.101 402.992C227.41 403.151 226.715 403.23 226.015 403.23C224.876 403.23 223.863 403.011 222.977 402.572C222.09 402.124 221.381 401.499 220.849 400.696C220.317 399.893 219.995 398.969 219.883 397.924C219.836 397.411 219.813 396.846 219.813 396.23C219.813 395.558 219.836 394.951 219.883 394.41C219.985 393.365 220.307 392.441 220.849 391.638C221.399 390.835 222.132 390.21 223.047 389.762C223.961 389.314 225.007 389.09 226.183 389.09C227.265 389.09 228.297 389.244 229.277 389.552C230.257 389.86 231.031 390.196 231.601 390.56C231.834 390.7 231.988 390.859 232.063 391.036C232.137 391.204 232.175 391.489 232.175 391.89V402.936C232.175 404.261 231.918 405.386 231.405 406.31C230.901 407.243 230.191 407.948 229.277 408.424C228.362 408.909 227.298 409.152 226.085 409.152ZM222.151 397.728C222.253 398.755 222.65 399.571 223.341 400.178C224.041 400.775 224.988 401.074 226.183 401.074C226.827 401.074 227.508 400.985 228.227 400.808C228.955 400.621 229.515 400.388 229.907 400.108V392.254C229.515 391.974 228.959 391.741 228.241 391.554C227.522 391.367 226.836 391.274 226.183 391.274C224.988 391.274 224.041 391.577 223.341 392.184C222.65 392.781 222.253 393.593 222.151 394.62C222.104 395.087 222.081 395.586 222.081 396.118C222.081 396.697 222.104 397.233 222.151 397.728Z" fill="#303030"/>
<path d="M124.243 472C123.439 472 122.821 471.79 122.389 471.37C121.969 470.938 121.759 470.32 121.759 469.516V448.96C121.759 448.156 121.969 447.544 122.389 447.124C122.821 446.692 123.439 446.476 124.243 446.476H132.505C134.005 446.476 135.295 446.746 136.375 447.286C137.455 447.814 138.277 448.576 138.841 449.572C139.417 450.568 139.705 451.75 139.705 453.118C139.705 454.534 139.399 455.704 138.787 456.628C138.187 457.54 137.359 458.23 136.303 458.698V458.752C137.071 458.968 137.761 459.346 138.373 459.886C138.997 460.426 139.495 461.128 139.867 461.992C140.239 462.844 140.425 463.834 140.425 464.962C140.425 466.438 140.089 467.704 139.417 468.76C138.757 469.816 137.857 470.62 136.717 471.172C135.577 471.724 134.305 472 132.901 472H124.243ZM132.559 469.12C134.107 469.12 135.295 468.742 136.123 467.986C136.951 467.218 137.365 466.138 137.365 464.746C137.365 463.258 136.951 462.124 136.123 461.344C135.295 460.564 134.107 460.174 132.559 460.174H124.765V469.12H132.559ZM132.073 457.528C133.621 457.528 134.773 457.168 135.529 456.448C136.297 455.728 136.681 454.714 136.681 453.406C136.681 450.706 135.145 449.356 132.073 449.356H124.765V457.528H132.073ZM153.07 472.324C151.57 472.324 150.226 472.018 149.038 471.406C147.862 470.782 146.914 469.918 146.194 468.814C145.474 467.71 145.042 466.444 144.898 465.016C144.826 464.308 144.79 463.468 144.79 462.496C144.79 461.656 144.82 460.876 144.88 460.156C145.012 458.728 145.438 457.462 146.158 456.358C146.89 455.242 147.85 454.378 149.038 453.766C150.226 453.142 151.57 452.83 153.07 452.83C154.57 452.83 155.92 453.142 157.12 453.766C158.32 454.378 159.28 455.242 160 456.358C160.72 457.462 161.146 458.728 161.278 460.156C161.338 460.876 161.368 461.656 161.368 462.496C161.368 463.468 161.332 464.308 161.26 465.016C161.116 466.444 160.684 467.71 159.964 468.814C159.244 469.918 158.29 470.782 157.102 471.406C155.914 472.018 154.57 472.324 153.07 472.324ZM147.778 464.71C147.862 465.646 148.132 466.474 148.588 467.194C149.056 467.914 149.674 468.478 150.442 468.886C151.21 469.282 152.086 469.48 153.07 469.48C154.054 469.48 154.93 469.282 155.698 468.886C156.466 468.478 157.078 467.914 157.534 467.194C158.002 466.474 158.284 465.646 158.38 464.71C158.44 464.158 158.47 463.444 158.47 462.568C158.47 461.704 158.44 460.996 158.38 460.444C158.296 459.508 158.02 458.68 157.552 457.96C157.096 457.24 156.478 456.682 155.698 456.286C154.93 455.89 154.054 455.692 153.07 455.692C152.086 455.692 151.21 455.89 150.442 456.286C149.686 456.682 149.074 457.24 148.606 457.96C148.15 458.68 147.874 459.508 147.778 460.444C147.718 461.188 147.688 461.896 147.688 462.568C147.688 463.252 147.718 463.966 147.778 464.71ZM174.185 472.324C172.529 472.324 171.119 472.03 169.955 471.442C168.791 470.842 167.909 469.978 167.309 468.85C166.709 467.722 166.409 466.372 166.409 464.8V454.54C166.409 454.048 166.535 453.67 166.787 453.406C167.051 453.13 167.411 452.992 167.867 452.992C168.323 452.992 168.677 453.13 168.929 453.406C169.193 453.67 169.325 454.048 169.325 454.54V464.566C169.325 467.842 170.945 469.48 174.185 469.48C175.085 469.48 175.967 469.366 176.831 469.138C177.707 468.898 178.433 468.598 179.009 468.238V454.54C179.009 454.048 179.135 453.67 179.387 453.406C179.651 453.13 180.011 452.992 180.467 452.992C180.923 452.992 181.277 453.13 181.529 453.406C181.793 453.67 181.925 454.048 181.925 454.54V468.868C181.925 469.3 181.859 469.636 181.727 469.876C181.607 470.104 181.379 470.314 181.043 470.506C180.311 470.962 179.327 471.382 178.091 471.766C176.867 472.138 175.565 472.324 174.185 472.324ZM195.184 478.624C193.912 478.624 192.796 478.498 191.836 478.246C190.876 477.994 189.922 477.61 188.974 477.094C188.59 476.89 188.296 476.662 188.092 476.41C187.9 476.17 187.804 475.876 187.804 475.528C187.804 475.18 187.924 474.88 188.164 474.628C188.416 474.388 188.722 474.268 189.082 474.268C189.274 474.268 189.442 474.292 189.586 474.34C189.742 474.388 189.922 474.46 190.126 474.556C191.098 475.084 191.932 475.432 192.628 475.6C193.336 475.768 194.152 475.852 195.076 475.852C196.612 475.852 197.83 475.432 198.73 474.592C199.642 473.752 200.098 472.492 200.098 470.812V469.894C199.438 470.23 198.664 470.5 197.776 470.704C196.888 470.908 195.994 471.01 195.094 471.01C193.63 471.01 192.328 470.728 191.188 470.164C190.048 469.588 189.136 468.784 188.452 467.752C187.768 466.72 187.354 465.532 187.21 464.188C187.15 463.528 187.12 462.802 187.12 462.01C187.12 461.146 187.15 460.366 187.21 459.67C187.342 458.326 187.756 457.138 188.452 456.106C189.16 455.074 190.102 454.27 191.278 453.694C192.454 453.118 193.798 452.83 195.31 452.83C196.702 452.83 198.028 453.028 199.288 453.424C200.548 453.82 201.544 454.252 202.276 454.72C202.576 454.9 202.774 455.104 202.87 455.332C202.966 455.548 203.014 455.914 203.014 456.43V470.632C203.014 472.336 202.684 473.782 202.024 474.97C201.376 476.17 200.464 477.076 199.288 477.688C198.112 478.312 196.744 478.624 195.184 478.624ZM190.126 463.936C190.258 465.256 190.768 466.306 191.656 467.086C192.556 467.854 193.774 468.238 195.31 468.238C196.138 468.238 197.014 468.124 197.938 467.896C198.874 467.656 199.594 467.356 200.098 466.996V456.898C199.594 456.538 198.88 456.238 197.956 455.998C197.032 455.758 196.15 455.638 195.31 455.638C193.774 455.638 192.556 456.028 191.656 456.808C190.768 457.576 190.258 458.62 190.126 459.94C190.066 460.54 190.036 461.182 190.036 461.866C190.036 462.61 190.066 463.3 190.126 463.936ZM217.752 452.83C219.132 452.83 220.344 453.106 221.388 453.658C222.432 454.21 223.242 455.026 223.818 456.106C224.406 457.174 224.7 458.47 224.7 459.994V470.488C224.7 470.98 224.568 471.364 224.304 471.64C224.052 471.904 223.698 472.036 223.242 472.036C222.786 472.036 222.426 471.904 222.162 471.64C221.91 471.364 221.784 470.98 221.784 470.488V460.372C221.784 458.884 221.406 457.732 220.65 456.916C219.894 456.1 218.796 455.692 217.356 455.692C216.324 455.692 215.322 455.962 214.35 456.502C213.378 457.042 212.58 457.714 211.956 458.518V470.488C211.956 470.98 211.824 471.364 211.56 471.64C211.308 471.904 210.954 472.036 210.498 472.036C210.042 472.036 209.682 471.904 209.418 471.64C209.166 471.364 209.04 470.98 209.04 470.488V447.646C209.04 447.154 209.166 446.776 209.418 446.512C209.682 446.236 210.042 446.098 210.498 446.098C210.954 446.098 211.308 446.236 211.56 446.512C211.824 446.776 211.956 447.154 211.956 447.646V455.26C212.664 454.54 213.528 453.958 214.548 453.514C215.58 453.058 216.648 452.83 217.752 452.83ZM231.958 448.978C232.414 448.978 232.768 449.116 233.02 449.392C233.284 449.668 233.416 450.046 233.416 450.526V453.154H238.798C239.326 453.154 239.728 453.274 240.004 453.514C240.28 453.754 240.418 454.096 240.418 454.54C240.418 454.984 240.28 455.326 240.004 455.566C239.728 455.806 239.326 455.926 238.798 455.926H233.416V466.456C233.416 467.488 233.644 468.256 234.1 468.76C234.568 469.264 235.288 469.516 236.26 469.516C236.776 469.516 237.232 469.474 237.628 469.39C238.024 469.306 238.432 469.186 238.852 469.03C239.008 468.97 239.164 468.916 239.32 468.868C239.488 468.82 239.65 468.796 239.806 468.796C240.142 468.796 240.43 468.922 240.67 469.174C240.922 469.426 241.048 469.75 241.048 470.146C241.048 470.506 240.946 470.806 240.742 471.046C240.55 471.274 240.25 471.466 239.842 471.622C238.618 472.09 237.376 472.324 236.116 472.324C234.976 472.324 233.98 472.102 233.128 471.658C232.288 471.214 231.64 470.572 231.184 469.732C230.728 468.892 230.5 467.884 230.5 466.708V450.526C230.5 450.034 230.626 449.656 230.878 449.392C231.142 449.116 231.502 448.978 231.958 448.978ZM81.2507 518.324C79.3907 518.324 77.7587 518.102 76.3547 517.658C74.9507 517.214 73.6967 516.602 72.5927 515.822C72.0647 515.474 71.8007 515.012 71.8007 514.436C71.8007 514.028 71.9387 513.686 72.2147 513.41C72.5027 513.134 72.8567 512.996 73.2767 512.996C73.6127 512.996 73.9787 513.128 74.3747 513.392C75.3707 514.052 76.4087 514.562 77.4887 514.922C78.5807 515.27 79.8347 515.444 81.2507 515.444C83.3027 515.444 84.8507 515.072 85.8947 514.328C86.9387 513.572 87.4607 512.486 87.4607 511.07C87.4607 510.278 87.2447 509.606 86.8127 509.054C86.3927 508.502 85.7147 508.034 84.7787 507.65C83.8427 507.254 82.5767 506.9 80.9807 506.588C78.8327 506.168 77.1227 505.64 75.8507 505.004C74.5787 504.368 73.6547 503.588 73.0787 502.664C72.5147 501.728 72.2327 500.582 72.2327 499.226C72.2327 497.774 72.5927 496.514 73.3127 495.446C74.0447 494.378 75.0707 493.562 76.3907 492.998C77.7107 492.434 79.2467 492.152 80.9987 492.152C82.5827 492.152 83.9807 492.35 85.1927 492.746C86.4167 493.142 87.4727 493.658 88.3607 494.294C88.6367 494.486 88.8407 494.69 88.9727 494.906C89.1047 495.122 89.1707 495.374 89.1707 495.662C89.1707 496.046 89.0327 496.382 88.7567 496.67C88.4807 496.958 88.1387 497.102 87.7307 497.102C87.5507 497.102 87.3767 497.072 87.2087 497.012C87.0407 496.94 86.8367 496.838 86.5967 496.706C85.8287 496.178 84.9887 495.77 84.0767 495.482C83.1767 495.194 82.1507 495.05 80.9987 495.05C79.1027 495.05 77.6687 495.416 76.6967 496.148C75.7247 496.868 75.2387 497.882 75.2387 499.19C75.2387 499.982 75.4307 500.648 75.8147 501.188C76.2107 501.716 76.8707 502.178 77.7947 502.574C78.7187 502.958 79.9967 503.306 81.6287 503.618C83.7647 504.026 85.4747 504.548 86.7587 505.184C88.0427 505.808 88.9787 506.594 89.5667 507.542C90.1667 508.478 90.4667 509.63 90.4667 510.998C90.4667 512.498 90.0947 513.8 89.3507 514.904C88.6067 516.008 87.5387 516.854 86.1467 517.442C84.7667 518.03 83.1347 518.324 81.2507 518.324ZM102.835 518.324C101.179 518.324 99.7693 518.03 98.6053 517.442C97.4413 516.842 96.5593 515.978 95.9593 514.85C95.3593 513.722 95.0593 512.372 95.0593 510.8V500.54C95.0593 500.048 95.1853 499.67 95.4373 499.406C95.7013 499.13 96.0613 498.992 96.5173 498.992C96.9733 498.992 97.3273 499.13 97.5793 499.406C97.8433 499.67 97.9753 500.048 97.9753 500.54V510.566C97.9753 513.842 99.5953 515.48 102.835 515.48C103.735 515.48 104.617 515.366 105.481 515.138C106.357 514.898 107.083 514.598 107.659 514.238V500.54C107.659 500.048 107.785 499.67 108.037 499.406C108.301 499.13 108.661 498.992 109.117 498.992C109.573 498.992 109.927 499.13 110.179 499.406C110.443 499.67 110.575 500.048 110.575 500.54V514.868C110.575 515.3 110.509 515.636 110.377 515.876C110.257 516.104 110.029 516.314 109.693 516.506C108.961 516.962 107.977 517.382 106.741 517.766C105.517 518.138 104.215 518.324 102.835 518.324ZM118.722 506.3C118.662 507.08 118.632 507.836 118.632 508.568C118.632 509.312 118.662 510.074 118.722 510.854C118.854 512.27 119.37 513.398 120.27 514.238C121.17 515.066 122.388 515.48 123.924 515.48C124.98 515.48 125.904 515.21 126.696 514.67C127.488 514.13 128.088 513.404 128.496 512.492C128.52 512.456 128.586 512.348 128.694 512.168C128.802 511.976 128.958 511.82 129.162 511.7C129.366 511.58 129.606 511.52 129.882 511.52C130.278 511.52 130.602 511.652 130.854 511.916C131.118 512.168 131.25 512.492 131.25 512.888C131.25 513.092 131.214 513.314 131.142 513.554C131.07 513.782 130.956 514.064 130.8 514.4C130.224 515.576 129.33 516.524 128.118 517.244C126.918 517.964 125.508 518.324 123.888 518.324C122.376 518.324 121.032 518.024 119.856 517.424C118.692 516.824 117.762 515.984 117.066 514.904C116.382 513.824 115.968 512.576 115.824 511.16C115.752 510.452 115.716 509.594 115.716 508.586C115.716 507.566 115.752 506.708 115.824 506.012C115.956 504.596 116.37 503.348 117.066 502.268C117.762 501.176 118.692 500.33 119.856 499.73C121.032 499.13 122.376 498.83 123.888 498.83C125.508 498.83 126.924 499.196 128.136 499.928C129.348 500.648 130.236 501.596 130.8 502.772C131.1 503.384 131.25 503.882 131.25 504.266C131.25 504.662 131.118 504.992 130.854 505.256C130.602 505.508 130.278 505.634 129.882 505.634C129.618 505.634 129.396 505.586 129.216 505.49C129.048 505.382 128.922 505.274 128.838 505.166C128.754 505.058 128.64 504.89 128.496 504.662C127.548 502.682 126.024 501.692 123.924 501.692C122.4 501.692 121.182 502.112 120.27 502.952C119.37 503.78 118.854 504.896 118.722 506.3ZM138.269 506.3C138.209 507.08 138.179 507.836 138.179 508.568C138.179 509.312 138.209 510.074 138.269 510.854C138.401 512.27 138.917 513.398 139.817 514.238C140.717 515.066 141.935 515.48 143.471 515.48C144.527 515.48 145.451 515.21 146.243 514.67C147.035 514.13 147.635 513.404 148.043 512.492C148.067 512.456 148.133 512.348 148.241 512.168C148.349 511.976 148.505 511.82 148.709 511.7C148.913 511.58 149.153 511.52 149.429 511.52C149.825 511.52 150.149 511.652 150.401 511.916C150.665 512.168 150.797 512.492 150.797 512.888C150.797 513.092 150.761 513.314 150.689 513.554C150.617 513.782 150.503 514.064 150.347 514.4C149.771 515.576 148.877 516.524 147.665 517.244C146.465 517.964 145.055 518.324 143.435 518.324C141.923 518.324 140.579 518.024 139.403 517.424C138.239 516.824 137.309 515.984 136.613 514.904C135.929 513.824 135.515 512.576 135.371 511.16C135.299 510.452 135.263 509.594 135.263 508.586C135.263 507.566 135.299 506.708 135.371 506.012C135.503 504.596 135.917 503.348 136.613 502.268C137.309 501.176 138.239 500.33 139.403 499.73C140.579 499.13 141.923 498.83 143.435 498.83C145.055 498.83 146.471 499.196 147.683 499.928C148.895 500.648 149.783 501.596 150.347 502.772C150.647 503.384 150.797 503.882 150.797 504.266C150.797 504.662 150.665 504.992 150.401 505.256C150.149 505.508 149.825 505.634 149.429 505.634C149.165 505.634 148.943 505.586 148.763 505.49C148.595 505.382 148.469 505.274 148.385 505.166C148.301 505.058 148.187 504.89 148.043 504.662C147.095 502.682 145.571 501.692 143.471 501.692C141.947 501.692 140.729 502.112 139.817 502.952C138.917 503.78 138.401 504.896 138.269 506.3ZM163.18 518.324C161.644 518.324 160.276 518.024 159.076 517.424C157.876 516.812 156.916 515.96 156.196 514.868C155.476 513.764 155.044 512.498 154.9 511.07C154.828 510.35 154.792 509.486 154.792 508.478C154.792 507.698 154.822 506.966 154.882 506.282C155.014 504.83 155.434 503.546 156.142 502.43C156.862 501.314 157.81 500.444 158.986 499.82C160.162 499.196 161.5 498.884 163 498.884C164.584 498.884 165.952 499.208 167.104 499.856C168.268 500.504 169.156 501.41 169.768 502.574C170.392 503.738 170.704 505.076 170.704 506.588V507.812C170.704 508.4 170.656 508.826 170.56 509.09C170.464 509.354 170.29 509.534 170.038 509.63C169.786 509.726 169.384 509.774 168.832 509.774H157.654C157.654 510.146 157.672 510.512 157.708 510.872C157.78 511.808 158.05 512.636 158.518 513.356C158.986 514.064 159.622 514.616 160.426 515.012C161.23 515.396 162.16 515.588 163.216 515.588C164.692 515.588 166.114 515.3 167.482 514.724C167.59 514.676 167.728 514.622 167.896 514.562C168.064 514.49 168.208 514.442 168.328 514.418C168.448 514.382 168.574 514.364 168.706 514.364C169.066 514.364 169.36 514.484 169.588 514.724C169.816 514.952 169.93 515.258 169.93 515.642C169.93 516.242 169.522 516.74 168.706 517.136C167.062 517.928 165.22 518.324 163.18 518.324ZM167.914 507.434C167.938 507.098 167.95 506.858 167.95 506.714C167.95 505.622 167.74 504.692 167.32 503.924C166.912 503.144 166.33 502.556 165.574 502.16C164.818 501.752 163.942 501.548 162.946 501.548C161.962 501.548 161.086 501.758 160.318 502.178C159.562 502.586 158.956 503.162 158.5 503.906C158.044 504.65 157.78 505.508 157.708 506.48L157.654 507.434H167.914ZM188.419 512.582C188.419 513.746 188.137 514.76 187.573 515.624C187.021 516.488 186.235 517.154 185.215 517.622C184.207 518.09 183.031 518.324 181.687 518.324C180.343 518.324 179.131 518.162 178.051 517.838C176.971 517.502 176.047 517.022 175.279 516.398C174.775 516.026 174.523 515.582 174.523 515.066C174.523 514.742 174.637 514.442 174.865 514.166C175.105 513.89 175.411 513.752 175.783 513.752C176.119 513.752 176.485 513.89 176.881 514.166C177.445 514.598 178.111 514.946 178.879 515.21C179.647 515.462 180.589 515.588 181.705 515.588C182.965 515.588 183.919 515.324 184.567 514.796C185.215 514.268 185.539 513.566 185.539 512.69C185.539 512.018 185.317 511.472 184.873 511.052C184.429 510.632 183.703 510.308 182.695 510.08L179.887 509.396C178.339 509.036 177.139 508.436 176.287 507.596C175.447 506.756 175.027 505.682 175.027 504.374C175.027 503.258 175.303 502.28 175.855 501.44C176.419 500.6 177.199 499.958 178.195 499.514C179.191 499.058 180.331 498.83 181.615 498.83C182.755 498.83 183.775 498.986 184.675 499.298C185.587 499.61 186.331 499.982 186.907 500.414C187.195 500.63 187.399 500.84 187.519 501.044C187.639 501.248 187.699 501.488 187.699 501.764C187.699 502.124 187.579 502.448 187.339 502.736C187.099 503.024 186.793 503.168 186.421 503.168C186.205 503.168 186.007 503.132 185.827 503.06C185.659 502.988 185.455 502.874 185.215 502.718C184.819 502.406 184.309 502.142 183.685 501.926C183.061 501.698 182.395 501.584 181.687 501.584C180.451 501.584 179.503 501.818 178.843 502.286C178.195 502.754 177.871 503.426 177.871 504.302C177.871 504.902 178.081 505.406 178.501 505.814C178.933 506.222 179.665 506.546 180.697 506.786L183.361 507.398C186.733 508.19 188.419 509.918 188.419 512.582ZM205.997 512.582C205.997 513.746 205.715 514.76 205.151 515.624C204.599 516.488 203.813 517.154 202.793 517.622C201.785 518.09 200.609 518.324 199.265 518.324C197.921 518.324 196.709 518.162 195.629 517.838C194.549 517.502 193.625 517.022 192.857 516.398C192.353 516.026 192.101 515.582 192.101 515.066C192.101 514.742 192.215 514.442 192.443 514.166C192.683 513.89 192.989 513.752 193.361 513.752C193.697 513.752 194.063 513.89 194.459 514.166C195.023 514.598 195.689 514.946 196.457 515.21C197.225 515.462 198.167 515.588 199.283 515.588C200.543 515.588 201.497 515.324 202.145 514.796C202.793 514.268 203.117 513.566 203.117 512.69C203.117 512.018 202.895 511.472 202.451 511.052C202.007 510.632 201.281 510.308 200.273 510.08L197.465 509.396C195.917 509.036 194.717 508.436 193.865 507.596C193.025 506.756 192.605 505.682 192.605 504.374C192.605 503.258 192.881 502.28 193.433 501.44C193.997 500.6 194.777 499.958 195.773 499.514C196.769 499.058 197.909 498.83 199.193 498.83C200.333 498.83 201.353 498.986 202.253 499.298C203.165 499.61 203.909 499.982 204.485 500.414C204.773 500.63 204.977 500.84 205.097 501.044C205.217 501.248 205.277 501.488 205.277 501.764C205.277 502.124 205.157 502.448 204.917 502.736C204.677 503.024 204.371 503.168 203.999 503.168C203.783 503.168 203.585 503.132 203.405 503.06C203.237 502.988 203.033 502.874 202.793 502.718C202.397 502.406 201.887 502.142 201.263 501.926C200.639 501.698 199.973 501.584 199.265 501.584C198.029 501.584 197.081 501.818 196.421 502.286C195.773 502.754 195.449 503.426 195.449 504.302C195.449 504.902 195.659 505.406 196.079 505.814C196.511 506.222 197.243 506.546 198.275 506.786L200.939 507.398C204.311 508.19 205.997 509.918 205.997 512.582ZM213.297 518.162C212.841 518.162 212.481 518.03 212.217 517.766C211.965 517.49 211.839 517.106 211.839 516.614V502.16H210.651C210.171 502.16 209.793 502.04 209.517 501.8C209.253 501.56 209.121 501.23 209.121 500.81C209.121 500.39 209.253 500.06 209.517 499.82C209.793 499.568 210.171 499.442 210.651 499.442H211.839V497.912C211.839 496.112 212.331 494.696 213.315 493.664C214.311 492.62 215.757 492.098 217.653 492.098C218.589 492.098 219.495 492.2 220.371 492.404C221.319 492.644 221.793 493.142 221.793 493.898C221.793 494.258 221.673 494.558 221.433 494.798C221.193 495.038 220.893 495.158 220.533 495.158C220.281 495.158 219.993 495.116 219.669 495.032C219.009 494.888 218.367 494.816 217.743 494.816C215.751 494.816 214.755 495.95 214.755 498.218V499.442H219.219C219.723 499.442 220.107 499.562 220.371 499.802C220.647 500.042 220.785 500.378 220.785 500.81C220.785 501.242 220.647 501.578 220.371 501.818C220.107 502.046 219.723 502.16 219.219 502.16H214.755V516.614C214.755 517.106 214.623 517.49 214.359 517.766C214.107 518.03 213.753 518.162 213.297 518.162ZM232.245 518.324C230.589 518.324 229.179 518.03 228.015 517.442C226.851 516.842 225.969 515.978 225.369 514.85C224.769 513.722 224.469 512.372 224.469 510.8V500.54C224.469 500.048 224.595 499.67 224.847 499.406C225.111 499.13 225.471 498.992 225.927 498.992C226.383 498.992 226.737 499.13 226.989 499.406C227.253 499.67 227.385 500.048 227.385 500.54V510.566C227.385 513.842 229.005 515.48 232.245 515.48C233.145 515.48 234.027 515.366 234.891 515.138C235.767 514.898 236.493 514.598 237.069 514.238V500.54C237.069 500.048 237.195 499.67 237.447 499.406C237.711 499.13 238.071 498.992 238.527 498.992C238.983 498.992 239.337 499.13 239.589 499.406C239.853 499.67 239.985 500.048 239.985 500.54V514.868C239.985 515.3 239.919 515.636 239.787 515.876C239.667 516.104 239.439 516.314 239.103 516.506C238.371 516.962 237.387 517.382 236.151 517.766C234.927 518.138 233.625 518.324 232.245 518.324ZM247.484 518.162C247.028 518.162 246.668 518.03 246.404 517.766C246.152 517.49 246.026 517.106 246.026 516.614V493.646C246.026 493.154 246.152 492.776 246.404 492.512C246.668 492.236 247.028 492.098 247.484 492.098C247.94 492.098 248.294 492.236 248.546 492.512C248.81 492.776 248.942 493.154 248.942 493.646V516.614C248.942 517.106 248.81 517.49 248.546 517.766C248.294 518.03 247.94 518.162 247.484 518.162ZM256.625 518.162C256.169 518.162 255.809 518.03 255.545 517.766C255.293 517.49 255.167 517.106 255.167 516.614V493.646C255.167 493.154 255.293 492.776 255.545 492.512C255.809 492.236 256.169 492.098 256.625 492.098C257.081 492.098 257.435 492.236 257.687 492.512C257.951 492.776 258.083 493.154 258.083 493.646V516.614C258.083 517.106 257.951 517.49 257.687 517.766C257.435 518.03 257.081 518.162 256.625 518.162ZM266.179 524.57C265.771 524.57 265.423 524.432 265.135 524.156C264.859 523.892 264.721 523.556 264.721 523.148C264.721 522.608 265.033 522.158 265.657 521.798C267.241 520.922 268.531 519.248 269.527 516.776L262.759 501.512C262.543 501.044 262.435 500.666 262.435 500.378C262.435 499.97 262.579 499.64 262.867 499.388C263.155 499.124 263.503 498.992 263.911 498.992C264.271 498.992 264.571 499.088 264.811 499.28C265.051 499.46 265.249 499.754 265.405 500.162L270.967 513.23C270.991 513.302 271.015 513.35 271.039 513.374C271.063 513.398 271.093 513.41 271.129 513.41C271.177 513.41 271.213 513.398 271.237 513.374C271.261 513.35 271.285 513.302 271.309 513.23L276.457 500.09C276.733 499.358 277.207 498.992 277.879 498.992C278.287 498.992 278.635 499.124 278.923 499.388C279.211 499.64 279.355 499.964 279.355 500.36C279.355 500.624 279.271 500.966 279.103 501.386L272.551 517.262C271.891 518.858 271.123 520.244 270.247 521.42C269.383 522.608 268.495 523.496 267.583 524.084C267.355 524.252 267.133 524.372 266.917 524.444C266.701 524.528 266.455 524.57 266.179 524.57ZM285.371 492.314C285.839 492.314 286.205 492.458 286.469 492.746C286.745 493.022 286.877 493.412 286.865 493.916L286.541 507.488C286.517 508.328 286.127 508.748 285.371 508.748C284.603 508.748 284.207 508.328 284.183 507.488L283.877 493.916C283.865 493.412 283.991 493.022 284.255 492.746C284.531 492.458 284.903 492.314 285.371 492.314ZM284.435 513.302C284.435 512.834 284.561 512.468 284.813 512.204C285.065 511.94 285.407 511.808 285.839 511.808C286.283 511.808 286.625 511.94 286.865 512.204C287.117 512.468 287.243 512.834 287.243 513.302V516.668C287.243 517.148 287.117 517.52 286.865 517.784C286.625 518.036 286.283 518.162 285.839 518.162C285.407 518.162 285.065 518.03 284.813 517.766C284.561 517.502 284.435 517.136 284.435 516.668V513.302Z" fill="#303030"/>
<path opacity="0.44" fill-rule="evenodd" clip-rule="evenodd" d="M353 8L353.46 8.30662C354.11 8.73981 354.5 9.46907 354.5 10.25C354.5 11.0309 354.11 11.7602 353.46 12.1934L353 12.5V8ZM330 4.5H350C351.105 4.5 352 5.39543 352 6.5V14C352 15.1046 351.105 16 350 16H330C328.895 16 328 15.1046 328 14V6.5C328 5.39543 328.895 4.5 330 4.5ZM330 5.5C329.448 5.5 329 5.94772 329 6.5V14C329 14.5523 329.448 15 330 15H350C350.552 15 351 14.5523 351 14V6.5C351 5.94772 350.552 5.5 350 5.5H330Z" fill="#323232"/>
<path fill-rule="evenodd" clip-rule="evenodd" d="M331 6.5H346V14H331C330.448 14 330 13.5523 330 13V7.5C330 6.94772 330.448 6.5 331 6.5Z" fill="#323232"/>
<path d="M166.258 14H167.77V5.54492H166.264L164.055 7.0918V8.54492L166.158 7.06836H166.258V14Z" fill="#323232"/>
<path d="M173.125 14.2051C175.275 14.2051 176.553 12.5234 176.553 9.67578C176.553 8.60352 176.348 7.70117 175.955 7.00391C175.387 5.91992 174.408 5.33398 173.172 5.33398C171.332 5.33398 170.031 6.57031 170.031 8.30469C170.031 9.93359 171.203 11.1172 172.814 11.1172C173.805 11.1172 174.607 10.6543 175.006 9.85156H175.023C175.023 9.85156 175.047 9.85156 175.053 9.85156C175.064 9.85156 175.105 9.85156 175.105 9.85156C175.105 11.7852 174.373 12.9395 173.137 12.9395C172.41 12.9395 171.848 12.541 171.654 11.9023H170.148C170.4 13.291 171.578 14.2051 173.125 14.2051ZM173.178 9.91602C172.205 9.91602 171.514 9.22461 171.514 8.25781C171.514 7.31445 172.24 6.59375 173.184 6.59375C174.127 6.59375 174.854 7.32617 174.854 8.28125C174.854 9.22461 174.145 9.91602 173.178 9.91602Z" fill="#323232"/>
<path d="M179.207 13.1035C179.764 13.1035 180.145 12.7051 180.145 12.1777C180.145 11.6445 179.764 11.252 179.207 11.252C178.656 11.252 178.27 11.6445 178.27 12.1777C178.27 12.7051 178.656 13.1035 179.207 13.1035ZM179.207 8.70898C179.764 8.70898 180.145 8.31641 180.145 7.78906C180.145 7.25586 179.764 6.86328 179.207 6.86328C178.656 6.86328 178.27 7.25586 178.27 7.78906C178.27 8.31641 178.656 8.70898 179.207 8.70898Z" fill="#323232"/>
<path d="M185.113 14.2109C187.135 14.2109 188.336 12.5703 188.336 9.77539C188.336 6.96875 187.117 5.33398 185.113 5.33398C183.104 5.33398 181.885 6.96875 181.885 9.76367C181.885 12.5703 183.086 14.2109 185.113 14.2109ZM185.113 12.957C184.041 12.957 183.414 11.8438 183.414 9.76367C183.414 7.70117 184.053 6.59375 185.113 6.59375C186.174 6.59375 186.807 7.69531 186.807 9.76367C186.807 11.8438 186.186 12.957 185.113 12.957Z" fill="#323232"/>
<path d="M189.906 8.01758V8.04102H191.324V8.01758C191.324 7.15625 191.922 6.57617 192.807 6.57617C193.639 6.57617 194.248 7.11523 194.248 7.85938C194.248 8.45703 193.961 8.89648 192.807 10.0684L189.988 12.9512V14H195.859V12.7168H192.062V12.6172L193.832 10.8418C195.268 9.42383 195.73 8.67383 195.73 7.76562C195.73 6.35352 194.523 5.33398 192.854 5.33398C191.119 5.33398 189.906 6.43555 189.906 8.01758Z" fill="#323232"/>
<path fill-rule="evenodd" clip-rule="evenodd" d="M21.5 5C20.9477 5 20.5 5.44772 20.5 6V14C20.5 14.5523 20.9477 15 21.5 15H22.5C23.0523 15 23.5 14.5523 23.5 14V6C23.5 5.44772 23.0523 5 22.5 5H21.5ZM16 8C16 7.44772 16.4477 7 17 7H18C18.5523 7 19 7.44772 19 8V14C19 14.5523 18.5523 15 18 15H17C16.4477 15 16 14.5523 16 14V8ZM12.5 9C11.9477 9 11.5 9.44772 11.5 10V14C11.5 14.5523 11.9477 15 12.5 15H13.5C14.0523 15 14.5 14.5523 14.5 14V10C14.5 9.44772 14.0523 9 13.5 9H12.5ZM8 15C7.44772 15 7 14.5523 7 14V11.5C7 10.9477 7.44772 10.5 8 10.5H9C9.55228 10.5 10 10.9477 10 11.5V14C10 14.5523 9.55228 15 9 15H8Z" fill="#323232"/>
<path d="M31.328 15.108C30.648 15.108 30.036 15.02 29.492 14.844C28.948 14.668 28.476 14.42 28.076 14.1L28.46 13.212C28.74 13.42 29.024 13.596 29.312 13.74C29.6 13.876 29.908 13.98 30.236 14.052C30.572 14.116 30.936 14.148 31.328 14.148C32.024 14.148 32.536 14.024 32.864 13.776C33.2 13.52 33.368 13.184 33.368 12.768C33.368 12.408 33.252 12.132 33.02 11.94C32.788 11.748 32.384 11.596 31.808 11.484L30.524 11.22C29.748 11.06 29.168 10.8 28.784 10.44C28.408 10.072 28.22 9.576 28.22 8.952C28.22 8.448 28.352 8.008 28.616 7.632C28.888 7.248 29.26 6.952 29.732 6.744C30.212 6.536 30.772 6.432 31.412 6.432C32.004 6.432 32.552 6.52 33.056 6.696C33.56 6.872 33.984 7.132 34.328 7.476L33.944 8.328C33.584 8 33.196 7.764 32.78 7.62C32.372 7.468 31.908 7.392 31.388 7.392C30.756 7.392 30.256 7.528 29.888 7.8C29.52 8.072 29.336 8.44 29.336 8.904C29.336 9.272 29.452 9.564 29.684 9.78C29.916 9.988 30.3 10.148 30.836 10.26L32.12 10.512C32.936 10.672 33.532 10.924 33.908 11.268C34.292 11.612 34.484 12.088 34.484 12.696C34.484 13.176 34.356 13.6 34.1 13.968C33.844 14.328 33.48 14.608 33.008 14.808C32.536 15.008 31.976 15.108 31.328 15.108ZM38.5752 15.108C37.6152 15.108 36.8552 14.832 36.2952 14.28C35.7432 13.728 35.4672 12.968 35.4672 12C35.4672 11.36 35.5872 10.808 35.8272 10.344C36.0752 9.872 36.4152 9.508 36.8472 9.252C37.2792 8.988 37.7832 8.856 38.3592 8.856C38.9112 8.856 39.3792 8.976 39.7632 9.216C40.1472 9.448 40.4392 9.78 40.6392 10.212C40.8392 10.644 40.9392 11.156 40.9392 11.748V12.108H36.3192V11.46H40.1952L39.9912 11.616C39.9912 10.992 39.8512 10.508 39.5712 10.164C39.2992 9.82 38.8952 9.648 38.3592 9.648C37.7752 9.648 37.3232 9.852 37.0032 10.26C36.6832 10.66 36.5232 11.208 36.5232 11.904V12.012C36.5232 12.748 36.7032 13.304 37.0632 13.68C37.4312 14.056 37.9392 14.244 38.5872 14.244C38.9472 14.244 39.2832 14.192 39.5952 14.088C39.9072 13.984 40.2072 13.812 40.4952 13.572L40.8552 14.328C40.5832 14.576 40.2432 14.768 39.8352 14.904C39.4352 15.04 39.0152 15.108 38.5752 15.108ZM42.2342 15V10.44C42.2342 10.2 42.2262 9.956 42.2102 9.708C42.2022 9.452 42.1822 9.204 42.1502 8.964H43.2062L43.3382 10.476L43.1582 10.488C43.2382 10.12 43.3742 9.816 43.5662 9.576C43.7662 9.328 44.0022 9.148 44.2742 9.036C44.5542 8.916 44.8422 8.856 45.1382 8.856C45.2662 8.856 45.3742 8.86 45.4622 8.868C45.5502 8.876 45.6382 8.896 45.7262 8.928L45.7022 9.9C45.5822 9.852 45.4702 9.824 45.3662 9.816C45.2702 9.8 45.1502 9.792 45.0062 9.792C44.6542 9.792 44.3502 9.872 44.0942 10.032C43.8462 10.192 43.6542 10.404 43.5182 10.668C43.3902 10.932 43.3262 11.216 43.3262 11.52V15H42.2342ZM48.7069 15L46.1269 8.964H47.3029L49.4029 14.148H49.0669L51.2029 8.964H52.3189L49.7269 15H48.7069ZM53.2211 15V8.964H54.3131V15H53.2211ZM53.1251 7.644V6.468H54.4211V7.644H53.1251ZM58.611 15.108C58.011 15.108 57.491 14.984 57.051 14.736C56.611 14.48 56.267 14.116 56.019 13.644C55.779 13.164 55.659 12.596 55.659 11.94C55.659 11.292 55.783 10.74 56.031 10.284C56.279 9.82 56.623 9.468 57.063 9.228C57.503 8.98 58.019 8.856 58.611 8.856C59.003 8.856 59.383 8.924 59.751 9.06C60.119 9.188 60.419 9.376 60.651 9.624L60.279 10.392C60.047 10.168 59.791 10.004 59.511 9.9C59.231 9.788 58.955 9.732 58.683 9.732C58.091 9.732 57.627 9.924 57.291 10.308C56.955 10.684 56.787 11.232 56.787 11.952C56.787 12.68 56.955 13.24 57.291 13.632C57.627 14.024 58.091 14.22 58.683 14.22C58.947 14.22 59.219 14.168 59.499 14.064C59.779 13.96 60.039 13.796 60.279 13.572L60.651 14.328C60.411 14.584 60.103 14.78 59.727 14.916C59.359 15.044 58.987 15.108 58.611 15.108ZM64.4947 15.108C63.5347 15.108 62.7747 14.832 62.2147 14.28C61.6627 13.728 61.3867 12.968 61.3867 12C61.3867 11.36 61.5067 10.808 61.7467 10.344C61.9947 9.872 62.3347 9.508 62.7667 9.252C63.1987 8.988 63.7027 8.856 64.2787 8.856C64.8307 8.856 65.2987 8.976 65.6827 9.216C66.0667 9.448 66.3587 9.78 66.5587 10.212C66.7587 10.644 66.8587 11.156 66.8587 11.748V12.108H62.2387V11.46H66.1147L65.9107 11.616C65.9107 10.992 65.7707 10.508 65.4907 10.164C65.2187 9.82 64.8147 9.648 64.2787 9.648C63.6947 9.648 63.2427 9.852 62.9227 10.26C62.6027 10.66 62.4427 11.208 62.4427 11.904V12.012C62.4427 12.748 62.6227 13.304 62.9827 13.68C63.3507 14.056 63.8587 14.244 64.5067 14.244C64.8667 14.244 65.2027 14.192 65.5147 14.088C65.8267 13.984 66.1267 13.812 66.4147 13.572L66.7747 14.328C66.5027 14.576 66.1627 14.768 65.7547 14.904C65.3547 15.04 64.9347 15.108 64.4947 15.108Z" fill="#323232"/>
<path d="M79.8081 6.49216C82.2189 6.49226 84.5375 7.42402 86.2846 9.09485C86.4162 9.22384 86.6265 9.22222 86.7561 9.0912L88.0137 7.81448C88.0793 7.74803 88.1159 7.65802 88.1154 7.56436C88.1148 7.47071 88.0772 7.38114 88.0108 7.31546C83.4251 2.89485 76.1905 2.89485 71.6047 7.31546C71.5383 7.38109 71.5006 7.47063 71.5 7.56429C71.4994 7.65794 71.5359 7.74798 71.6015 7.81448L72.8595 9.0912C72.989 9.22241 73.1994 9.22404 73.3309 9.09485C75.0783 7.42391 77.3972 6.49215 79.8081 6.49216ZM79.8081 10.6459C81.1327 10.6458 82.41 11.141 83.3918 12.0353C83.5246 12.1622 83.7338 12.1595 83.8632 12.0291L85.1195 10.7524C85.1856 10.6854 85.2223 10.5946 85.2214 10.5002C85.2204 10.4058 85.1819 10.3157 85.1144 10.2501C82.1245 7.45256 77.4943 7.45256 74.5045 10.2501C74.4369 10.3157 74.3984 10.4058 74.3975 10.5003C74.3966 10.5947 74.4334 10.6855 74.4997 10.7524L75.7556 12.0291C75.885 12.1595 76.0942 12.1622 76.227 12.0353C77.2082 11.1416 78.4845 10.6464 79.8081 10.6459ZM82.2223 13.6929C82.2895 13.6266 82.3265 13.5353 82.3245 13.4406C82.3226 13.3459 82.2819 13.2563 82.2121 13.1928C80.8244 12.0121 78.7919 12.0121 77.4042 13.1928C77.3343 13.2562 77.2936 13.3459 77.2916 13.4405C77.2896 13.5352 77.3265 13.6265 77.3937 13.6929L79.567 15.8987C79.6307 15.9635 79.7175 16 79.8081 16C79.8988 16 79.9856 15.9635 80.0493 15.8987L82.2223 13.6929Z" fill="#323232"/>
</g>
<defs>
<filter id="filter0_d_4434_331808" x="71.475" y="637.977" width="402.487" height="434.54" filterUnits="userSpaceOnUse" color-interpolation-filters="sRGB">
<feFlood flood-opacity="0" result="BackgroundImageFix"/>
<feColorMatrix in="SourceAlpha" type="matrix" values="0 0 0 0 0 0 0 0 0 0 0 0 0 0 0 0 0 0 127 0" result="hardAlpha"/>
<feOffset dx="7.1718" dy="7.1718"/>
<feGaussianBlur stdDeviation="5.02026"/>
<feColorMatrix type="matrix" values="0 0 0 0 0 0 0 0 0 0 0 0 0 0 0 0 0 0 0.15 0"/>
<feBlend mode="normal" in2="BackgroundImageFix" result="effect1_dropShadow_4434_331808"/>
<feBlend mode="normal" in="SourceGraphic" in2="effect1_dropShadow_4434_331808" result="shape"/>
</filter>
<filter id="filter1_dd_4434_331808" x="168.749" y="669.908" width="57.4778" height="70.9251" filterUnits="userSpaceOnUse" color-interpolation-filters="sRGB">
<feFlood flood-opacity="0" result="BackgroundImageFix"/>
<feColorMatrix in="SourceAlpha" type="matrix" values="0 0 0 0 0 0 0 0 0 0 0 0 0 0 0 0 0 0 127 0" result="hardAlpha"/>
<feOffset dy="1.24227"/>
<feGaussianBlur stdDeviation="1.8634"/>
<feComposite in2="hardAlpha" operator="out"/>
<feColorMatrix type="matrix" values="0 0 0 0 0 0 0 0 0 0 0 0 0 0 0 0 0 0 0.3 0"/>
<feBlend mode="normal" in2="BackgroundImageFix" result="effect1_dropShadow_4434_331808"/>
<feColorMatrix in="SourceAlpha" type="matrix" values="0 0 0 0 0 0 0 0 0 0 0 0 0 0 0 0 0 0 127 0" result="hardAlpha"/>
<feOffset dy="3.7268"/>
<feGaussianBlur stdDeviation="4.96906"/>
<feComposite in2="hardAlpha" operator="out"/>
<feColorMatrix type="matrix" values="0 0 0 0 0 0 0 0 0 0 0 0 0 0 0 0 0 0 0.15 0"/>
<feBlend mode="normal" in2="effect1_dropShadow_4434_331808" result="effect2_dropShadow_4434_331808"/>
<feBlend mode="normal" in="SourceGraphic" in2="effect2_dropShadow_4434_331808" result="shape"/>
</filter>
<filter id="filter2_dd_4434_331808" x="180.031" y="665.593" width="49.1106" height="69.9602" filterUnits="userSpaceOnUse" color-interpolation-filters="sRGB">
<feFlood flood-opacity="0" result="BackgroundImageFix"/>
<feColorMatrix in="SourceAlpha" type="matrix" values="0 0 0 0 0 0 0 0 0 0 0 0 0 0 0 0 0 0 127 0" result="hardAlpha"/>
<feOffset dy="1.24227"/>
<feGaussianBlur stdDeviation="1.8634"/>
<feComposite in2="hardAlpha" operator="out"/>
<feColorMatrix type="matrix" values="0 0 0 0 0 0 0 0 0 0 0 0 0 0 0 0 0 0 0.3 0"/>
<feBlend mode="normal" in2="BackgroundImageFix" result="effect1_dropShadow_4434_331808"/>
<feColorMatrix in="SourceAlpha" type="matrix" values="0 0 0 0 0 0 0 0 0 0 0 0 0 0 0 0 0 0 127 0" result="hardAlpha"/>
<feOffset dy="3.7268"/>
<feGaussianBlur stdDeviation="4.96906"/>
<feComposite in2="hardAlpha" operator="out"/>
<feColorMatrix type="matrix" values="0 0 0 0 0 0 0 0 0 0 0 0 0 0 0 0 0 0 0.15 0"/>
<feBlend mode="normal" in2="effect1_dropShadow_4434_331808" result="effect2_dropShadow_4434_331808"/>
<feBlend mode="normal" in="SourceGraphic" in2="effect2_dropShadow_4434_331808" result="shape"/>
</filter>
<filter id="filter3_d_4434_331808" x="65.2328" y="693.723" width="370.558" height="357.964" filterUnits="userSpaceOnUse" color-interpolation-filters="sRGB">
<feFlood flood-opacity="0" result="BackgroundImageFix"/>
<feColorMatrix in="SourceAlpha" type="matrix" values="0 0 0 0 0 0 0 0 0 0 0 0 0 0 0 0 0 0 127 0" result="hardAlpha"/>
<feOffset dx="7.1718" dy="7.1718"/>
<feGaussianBlur stdDeviation="5.02026"/>
<feColorMatrix type="matrix" values="0 0 0 0 0 0 0 0 0 0 0 0 0 0 0 0 0 0 0.15 0"/>
<feBlend mode="normal" in2="BackgroundImageFix" result="effect1_dropShadow_4434_331808"/>
<feBlend mode="normal" in="SourceGraphic" in2="effect1_dropShadow_4434_331808" result="shape"/>
</filter>
<filter id="filter4_d_4434_331808" x="128.866" y="659.551" width="299.55" height="339.165" filterUnits="userSpaceOnUse" color-interpolation-filters="sRGB">
<feFlood flood-opacity="0" result="BackgroundImageFix"/>
<feColorMatrix in="SourceAlpha" type="matrix" values="0 0 0 0 0 0 0 0 0 0 0 0 0 0 0 0 0 0 127 0" result="hardAlpha"/>
<feOffset dx="7.1718" dy="7.1718"/>
<feGaussianBlur stdDeviation="5.02026"/>
<feColorMatrix type="matrix" values="0 0 0 0 0 0 0 0 0 0 0 0 0 0 0 0 0 0 0.15 0"/>
<feBlend mode="normal" in2="BackgroundImageFix" result="effect1_dropShadow_4434_331808"/>
<feBlend mode="normal" in="SourceGraphic" in2="effect1_dropShadow_4434_331808" result="shape"/>
</filter>
<filter id="filter5_d_4434_331808" x="157.538" y="750.729" width="220.894" height="219.542" filterUnits="userSpaceOnUse" color-interpolation-filters="sRGB">
<feFlood flood-opacity="0" result="BackgroundImageFix"/>
<feColorMatrix in="SourceAlpha" type="matrix" values="0 0 0 0 0 0 0 0 0 0 0 0 0 0 0 0 0 0 127 0" result="hardAlpha"/>
<feOffset dx="7.1718" dy="7.1718"/>
<feGaussianBlur stdDeviation="5.02026"/>
<feColorMatrix type="matrix" values="0 0 0 0 0 0 0 0 0 0 0 0 0 0 0 0 0 0 0.15 0"/>
<feBlend mode="normal" in2="BackgroundImageFix" result="effect1_dropShadow_4434_331808"/>
<feBlend mode="normal" in="SourceGraphic" in2="effect1_dropShadow_4434_331808" result="shape"/>
</filter>
<filter id="filter6_f_4434_331808" x="76.0771" y="136.077" width="207.846" height="207.846" filterUnits="userSpaceOnUse" color-interpolation-filters="sRGB">
<feFlood flood-opacity="0" result="BackgroundImageFix"/>
<feBlend mode="normal" in="SourceGraphic" in2="BackgroundImageFix" result="shape"/>
<feGaussianBlur stdDeviation="11.9614" result="effect1_foregroundBlur_4434_331808"/>
</filter>
<filter id="filter7_d_4434_331808" x="159.977" y="237.365" width="37.625" height="37.5391" filterUnits="userSpaceOnUse" color-interpolation-filters="sRGB">
<feFlood flood-opacity="0" result="BackgroundImageFix"/>
<feColorMatrix in="SourceAlpha" type="matrix" values="0 0 0 0 0 0 0 0 0 0 0 0 0 0 0 0 0 0 127 0" result="hardAlpha"/>
<feOffset dy="2"/>
<feGaussianBlur stdDeviation="2"/>
<feComposite in2="hardAlpha" operator="out"/>
<feColorMatrix type="matrix" values="0 0 0 0 0 0 0 0 0 0 0 0 0 0 0 0 0 0 0.12 0"/>
<feBlend mode="normal" in2="BackgroundImageFix" result="effect1_dropShadow_4434_331808"/>
<feBlend mode="normal" in="SourceGraphic" in2="effect1_dropShadow_4434_331808" result="shape"/>
</filter>
<clipPath id="clip0_4434_331808">
<rect width="360" height="800" fill="white"/>
</clipPath>
<clipPath id="clip1_4434_331808">
<rect width="442.147" height="439.177" fill="white" transform="translate(40 633)"/>
</clipPath>
</defs>
</svg>
