<svg width="478" height="389" viewBox="0 0 478 389" fill="none" xmlns="http://www.w3.org/2000/svg">
<path d="M218.31 85.7715C218.042 85.4417 217.423 84.7408 216.166 83.5658C214.908 82.3495 213.403 80.9065 211.795 79.3811C208.58 76.3095 204.972 72.8669 202.107 70.2283C188.852 58.0039 175.679 45.6559 163.558 32.2771C161.661 30.1745 158.198 26.8968 161.455 23.5572C164.856 20.0734 169.124 20.1971 172.566 23.7015C180.936 32.1328 188.872 41.1207 198.066 48.5831C204.786 54.046 211.198 59.8386 217.506 65.7137L227.029 74.681C227.957 75.6293 228.761 76.3714 230.06 78.1236C231.194 79.6903 232.08 81.4219 232.513 83.2772C233.44 86.9466 232.554 90.9664 230.183 93.9555C229.153 95.316 227.792 96.4498 226.349 97.4187C224.741 98.47 223.752 98.8823 222.556 99.3977C221.402 99.8924 220.247 100.263 219.113 100.573C218.557 100.738 217.98 100.882 217.423 101.006L215.959 101.335C212.063 102.222 208.126 102.964 204.189 103.603C196.293 104.881 188.336 105.726 180.358 106.242C176.586 106.489 172.875 106.675 169.062 106.798C167.062 106.839 164.836 106.819 162.362 106.427C159.909 106.036 157.023 105.17 154.302 103.211C152.941 102.263 151.766 100.985 150.756 99.645C149.787 98.2433 148.983 96.6766 148.509 95.1099C147.52 91.9353 147.581 88.9049 147.953 86.3281C148.777 81.1745 150.735 77.1753 152.859 73.5472C159.579 62.3742 168.134 52.4999 176.813 42.9554C178.874 40.729 180.626 37.3895 182.976 34.9982C184.873 32.9986 188.13 29.7416 190.377 28.0924C191.325 27.3709 192.377 26.7112 193.098 25.7836C196.417 21.5576 198.602 21.8875 200.89 26.9998C201.406 28.113 202.766 28.9582 202.395 30.3806C202.375 30.4424 202.354 30.5661 202.354 30.628C201.839 35.493 198.128 37.0391 195.51 39.8426C189.099 46.666 183.121 53.8604 177.575 61.3847C174.792 65.1365 172.154 68.9914 169.618 72.9081C168.361 74.8665 167.103 76.8455 165.928 78.8657C164.65 80.9478 163.681 82.6382 162.919 84.4728C161.97 86.658 161.414 88.8637 161.517 90.2861C161.558 90.987 161.682 91.4405 161.867 91.7497C162.053 92.1002 162.321 92.3682 162.712 92.6155C163.537 93.1515 165.619 93.5844 168.113 93.5638C169.35 93.5638 170.835 93.502 172.257 93.4401C173.679 93.3577 175.102 93.2752 176.524 93.1515C179.637 92.8835 182.688 92.0177 185.862 92.1826H185.801C189.078 91.7497 192.294 91.1107 195.551 90.6984C201.715 89.9357 207.94 88.7194 214.063 87.2764C215.382 86.9672 216.454 86.6167 217.402 86.2251C217.815 86.0601 218.454 85.7097 218.31 85.7715C218.33 85.7922 218.433 85.7922 218.495 85.6891C218.495 85.6685 218.31 85.7715 218.31 85.7715Z" fill="black"/>
<path d="M322.364 184.123C322.096 183.793 321.478 183.092 320.22 181.917C318.963 180.701 317.458 179.258 315.85 177.733C312.634 174.661 309.027 171.218 306.161 168.58C292.906 156.355 279.734 144.007 267.612 130.629C265.716 128.547 262.253 125.248 265.51 121.909C268.911 118.425 273.178 118.549 276.621 122.053C284.99 130.484 292.927 139.472 302.121 146.935C308.841 152.398 315.252 158.19 321.56 164.065L331.084 173.033C332.012 173.981 332.816 174.723 334.114 176.475C335.248 178.042 336.135 179.773 336.568 181.629C337.495 185.298 336.609 189.318 334.238 192.307C333.207 193.668 331.847 194.801 330.404 195.77C328.796 196.822 327.827 197.234 326.611 197.749C325.456 198.244 324.302 198.615 323.168 198.924C322.612 199.089 322.034 199.233 321.478 199.357L320.014 199.687C316.118 200.573 312.181 201.316 308.243 201.955C300.348 203.233 292.391 204.078 284.413 204.593C280.641 204.841 276.93 205.026 273.116 205.15C271.117 205.191 268.89 205.17 266.417 204.779C263.964 204.387 261.078 203.521 258.356 201.563C256.996 200.615 255.821 199.337 254.811 197.997C253.842 196.595 253.038 195.028 252.564 193.461C251.574 190.287 251.636 187.256 252.007 184.68C252.832 179.526 254.79 175.527 256.913 171.899C263.634 160.726 272.189 150.851 280.867 141.307C282.929 139.081 284.681 135.741 287.031 133.35C288.928 131.35 292.185 128.093 294.432 126.444C295.38 125.743 296.431 125.063 297.153 124.135C300.472 119.909 302.657 120.239 304.945 125.351C305.46 126.465 306.821 127.31 306.45 128.732C306.429 128.794 306.409 128.918 306.409 128.98C305.893 133.845 302.183 135.391 299.565 138.194C293.154 145.018 287.175 152.212 281.63 159.736C278.847 163.488 276.209 167.343 273.673 171.26C272.415 173.218 271.158 175.197 269.983 177.217C268.705 179.299 267.736 180.99 266.973 182.824C266.025 185.01 265.468 187.215 265.571 188.638C265.613 189.339 265.736 189.792 265.922 190.101C266.107 190.452 266.375 190.72 266.767 190.967C267.592 191.503 269.674 191.936 272.168 191.915C273.405 191.915 274.889 191.854 276.312 191.792C277.734 191.709 279.156 191.627 280.579 191.503C283.692 191.235 286.742 190.369 289.917 190.534H289.855C293.133 190.101 296.349 189.462 299.606 189.05C305.77 188.287 311.995 187.071 318.118 185.628C319.437 185.319 320.509 184.968 321.457 184.577C321.849 184.412 322.488 184.061 322.364 184.123C322.385 184.144 322.488 184.144 322.55 184.041C322.55 184.02 322.364 184.123 322.364 184.123Z" fill="black"/>
<path d="M358.071 64.7637C357.803 64.4339 357.185 63.733 355.927 62.558C354.67 61.3417 353.165 59.8987 351.557 58.3733C348.341 55.3017 344.734 51.8591 341.868 49.2205C328.613 36.9961 315.441 24.6481 303.319 11.2693C301.423 9.16665 297.96 5.88896 301.217 2.54942C304.618 -0.934416 308.885 -0.810729 312.328 2.69372C320.697 11.125 328.634 20.1129 337.828 27.5753C344.548 33.0381 350.959 38.8308 357.267 44.7059L366.791 53.6732C367.719 54.6214 368.523 55.3636 369.821 57.1158C370.955 58.6825 371.842 60.4141 372.275 62.2694C373.202 65.9388 372.316 69.9586 369.945 72.9477C368.914 74.3082 367.554 75.442 366.111 76.4109C364.503 77.4622 363.534 77.8745 362.318 78.3899C361.163 78.8846 360.009 79.2557 358.875 79.5649C358.319 79.7298 357.741 79.8741 357.185 79.9978L355.721 80.3276C351.825 81.214 347.888 81.9562 343.95 82.5952C336.055 83.8733 328.098 84.7185 320.12 85.2338C316.348 85.4812 312.637 85.6667 308.823 85.7904C306.824 85.8317 304.597 85.8111 302.124 85.4194C299.671 85.0277 296.785 84.1619 294.063 82.2035C292.703 81.2553 291.528 79.9772 290.518 78.6372C289.549 77.2355 288.745 75.6688 288.271 74.1021C287.281 70.9274 287.343 67.8971 287.714 65.3203C288.539 60.1667 290.497 56.1675 292.62 52.5394C299.341 41.3664 307.896 31.4921 316.574 21.9476C318.636 19.7212 320.388 16.3817 322.738 13.9904C324.635 11.9908 327.892 8.73375 330.139 7.08459C331.087 6.36309 332.138 5.70343 332.86 4.77578C336.179 0.549822 338.364 0.879653 340.652 5.99203C341.167 7.10521 342.528 7.9504 342.157 9.37279C342.136 9.43464 342.116 9.55832 342.116 9.62016C341.6 14.4852 337.89 16.0312 335.272 18.8142C328.861 25.6376 322.882 32.832 317.337 40.3563C314.554 44.1081 311.916 47.963 309.38 51.8797C308.122 53.8381 306.865 55.8171 305.69 57.8373C304.412 59.9193 303.443 61.6097 302.68 63.4444C301.732 65.6295 301.175 67.8353 301.279 69.2577C301.32 69.9586 301.443 70.4121 301.629 70.7213C301.814 71.0717 302.082 71.3397 302.474 71.5871C303.299 72.1231 305.381 72.556 307.875 72.5354C309.112 72.5354 310.596 72.4735 312.019 72.4117C313.441 72.3292 314.863 72.2468 316.286 72.1231C319.399 71.8551 322.45 70.9893 325.624 71.1542H325.562C328.84 70.7213 332.056 70.0823 335.313 69.67C341.477 68.9072 347.702 67.691 353.825 66.248C355.144 65.9388 356.216 65.5883 357.164 65.1966C357.556 65.0317 358.195 64.6813 358.071 64.7637C358.092 64.7843 358.195 64.7843 358.257 64.6813C358.257 64.64 358.071 64.7431 358.071 64.7637Z" fill="black"/>
<path d="M205.424 302.531C204.661 305.087 201.795 314.075 200.146 319.888C196.333 333.349 192.395 346.769 187.035 359.757C186.19 361.777 185.139 365.343 180.686 363.941C176.048 362.498 174.028 359.324 175.285 355.716C178.295 346.996 181.985 338.441 183.758 329.412C185.056 322.815 186.809 316.343 188.664 309.911L191.509 300.284L192.21 297.893C192.416 297.171 192.601 296.45 192.766 295.749C193.096 294.326 193.323 292.945 193.426 291.646C193.632 289.317 193.323 287.276 192.808 286.452C192.375 285.648 191.612 285.153 190.602 285.029C189.489 284.864 187.2 285.4 184.685 286.369C182.109 287.317 179.284 288.637 175.883 289.729C172.729 290.781 168.503 291.44 164.586 290.946C160.608 290.492 156.918 288.967 153.764 286.946C147.415 282.865 143.065 276.866 140.674 270.166C139.643 267.26 139.086 264.188 138.921 261.055C138.86 257.798 139.189 254.912 139.828 252.087C141.086 246.439 143.354 241.327 145.889 236.668C147.044 234.462 147.744 231.452 149.208 229.185C150.383 227.288 152.424 224.279 153.949 222.774C154.609 222.114 155.331 221.454 155.702 220.63C157.392 216.837 159.392 216.981 162.958 221.145C163.741 222.073 165.184 222.671 165.287 223.928C165.287 223.99 165.308 224.093 165.308 224.134C166.256 228.381 163.37 229.906 161.824 232.401C158.093 238.482 154.898 244.646 153.393 250.892C153.001 252.458 152.774 254.005 152.589 255.571L152.444 257.901L152.527 260.003C152.795 262.848 153.681 265.734 155.063 268.332C156.732 271.527 159.103 274.392 161.865 276.103C162.525 276.619 163.267 276.825 163.947 277.196C164.669 277.381 165.37 277.711 166.071 277.752C167.493 278.062 168.833 277.835 170.255 277.484C171.904 276.99 173.657 275.629 176.069 275.114L176.007 275.134C178.316 274.062 180.831 272.64 184.211 271.774C185.757 271.362 187.613 271.053 189.612 270.97C190.622 270.95 191.736 271.011 192.828 271.135C193.962 271.341 195.096 271.527 196.188 272.001C198.456 272.784 200.352 274.062 202.105 275.65C203.836 277.319 205.135 279.36 206.001 281.38C207.65 285.503 207.691 289.193 207.444 292.368C207.135 295.543 206.475 298.367 205.65 300.964C205.527 301.356 205.568 302.016 205.424 302.531Z" fill="black"/>
<path d="M463.06 178.506C462.792 178.176 462.173 177.475 460.916 176.3C459.658 175.084 458.153 173.641 456.545 172.115C453.33 169.044 449.722 165.601 446.857 162.963C433.602 150.738 420.429 138.39 408.308 125.012C406.411 122.909 402.948 119.631 406.205 116.292C409.606 112.808 413.874 112.931 417.316 116.436C425.686 124.867 433.622 133.855 442.816 141.318C449.536 146.78 455.948 152.573 462.256 158.448L471.779 167.415C472.707 168.364 473.511 169.106 474.81 170.858C475.944 172.425 476.83 174.156 477.263 176.012C478.19 179.681 477.304 183.701 474.933 186.69C473.903 188.05 472.542 189.184 471.099 190.153C469.491 191.204 468.502 191.617 467.306 192.132C466.152 192.627 464.997 192.998 463.863 193.307C463.307 193.472 462.73 193.616 462.173 193.74L460.709 194.07C456.813 194.956 452.876 195.698 448.939 196.337C441.043 197.615 433.086 198.461 425.108 198.976C421.336 199.223 417.625 199.409 413.812 199.533C411.812 199.574 409.586 199.553 407.112 199.162C404.659 198.77 401.773 197.904 399.052 195.946C397.691 194.997 396.516 193.719 395.506 192.379C394.537 190.978 393.733 189.411 393.259 187.844C392.27 184.67 392.331 181.639 392.703 179.063C393.527 173.909 395.485 169.91 397.609 166.282C404.329 155.109 412.884 145.234 421.563 135.69C423.624 133.463 425.376 130.124 427.726 127.733C429.623 125.733 432.88 122.476 435.127 120.827C436.075 120.105 437.127 119.446 437.848 118.518C441.167 114.292 443.352 114.622 445.64 119.734C446.156 120.847 447.516 121.693 447.145 123.115C447.125 123.177 447.104 123.301 447.104 123.362C446.589 128.227 442.878 129.773 440.26 132.577C433.849 139.4 427.871 146.595 422.325 154.119C419.542 157.871 416.904 161.726 414.368 165.643C413.111 167.601 411.853 169.58 410.678 171.6C409.4 173.682 408.431 175.373 407.669 177.207C406.72 179.392 406.164 181.598 406.267 183.02C406.308 183.721 406.432 184.175 406.617 184.484C406.803 184.835 407.071 185.103 407.462 185.35C408.287 185.886 410.369 186.319 412.863 186.298C414.1 186.298 415.585 186.236 417.007 186.174C418.429 186.092 419.852 186.01 421.274 185.886C424.387 185.618 427.438 184.752 430.612 184.917H430.551C433.828 184.484 437.044 183.845 440.301 183.433C446.465 182.67 452.69 181.454 458.813 180.011C460.132 179.702 461.204 179.351 462.152 178.959C462.565 178.795 463.204 178.444 463.06 178.506C463.08 178.527 463.183 178.527 463.245 178.423C463.245 178.403 463.06 178.506 463.06 178.506Z" fill="black"/>
<path d="M71.3798 221.408C71.1118 221.078 70.4934 220.378 69.2359 219.203C67.9784 217.986 66.4736 216.543 64.8657 215.018C61.6498 211.946 58.0423 208.504 55.1769 205.865C41.9218 193.641 28.7492 181.293 16.6279 167.914C14.7314 165.832 11.2682 162.533 14.5253 159.194C17.9266 155.71 22.1938 155.834 25.6364 159.338C34.0059 167.77 41.9424 176.757 51.1365 184.22C57.8568 189.683 64.2679 195.475 70.5759 201.35L80.0997 210.318C81.0274 211.266 81.8313 212.008 83.13 213.76C84.2638 215.327 85.1503 217.059 85.5832 218.914C86.5108 222.583 85.6244 226.603 83.2537 229.592C82.223 230.953 80.8625 232.087 79.4195 233.055C77.8115 234.107 76.8426 234.519 75.6264 235.034C74.472 235.529 73.3176 235.9 72.1838 236.209C71.6272 236.374 71.05 236.519 70.4934 236.642L69.0298 236.972C65.1337 237.859 61.1963 238.601 57.259 239.24C49.3636 240.518 41.4065 241.363 33.4287 241.878C29.6562 242.126 25.9457 242.311 22.132 242.435C20.1324 242.476 17.906 242.456 15.4323 242.064C12.9792 241.672 10.0932 240.806 7.37206 238.848C6.01151 237.9 4.83649 236.622 3.82638 235.282C2.8575 233.88 2.05354 232.313 1.57941 230.747C0.589918 227.572 0.65176 224.542 1.02282 221.965C1.8474 216.811 3.80577 212.812 5.92905 209.184C12.6494 198.011 21.2043 188.137 29.883 178.592C31.9445 176.366 33.6967 173.026 36.0467 170.635C37.9432 168.635 41.2003 165.378 43.4473 163.729C44.3955 163.028 45.4469 162.348 46.1684 161.42C49.4873 157.194 51.6724 157.524 53.9606 162.637C54.476 163.75 55.8366 164.595 55.4655 166.017C55.4449 166.079 55.4243 166.203 55.4243 166.265C54.9089 171.13 51.1983 172.676 48.5803 175.479C42.1692 182.303 36.191 189.497 30.6457 197.021C27.8628 200.773 25.2241 204.628 22.6886 208.545C21.4311 210.503 20.1736 212.482 18.9986 214.502C17.7205 216.584 16.7516 218.275 15.9889 220.11C15.0406 222.295 14.484 224.5 14.5871 225.923C14.6283 226.624 14.752 227.077 14.9376 227.386C15.1231 227.737 15.3911 228.005 15.7827 228.252C16.6073 228.788 18.6894 229.221 21.1837 229.201C22.4206 229.201 23.9048 229.139 25.3272 229.077C26.7496 228.994 28.172 228.912 29.5944 228.788C32.7072 228.52 35.7581 227.654 38.9327 227.819H38.8709C42.1486 227.386 45.3644 226.747 48.6215 226.335C54.7852 225.572 61.0108 224.356 67.1333 222.913C68.4526 222.604 69.5245 222.253 70.4728 221.862C70.8645 221.697 71.5035 221.346 71.3798 221.408C71.4004 221.429 71.5035 221.429 71.5654 221.326C71.5654 221.305 71.3798 221.408 71.3798 221.408Z" fill="black"/>
<path d="M347.622 367.768C347.354 367.438 346.736 366.737 345.478 365.562C344.221 364.346 342.716 362.903 341.108 361.377C337.892 358.306 334.284 354.863 331.419 352.224C318.164 340 304.991 327.652 292.87 314.273C290.974 312.171 287.51 308.893 290.767 305.553C294.169 302.069 298.436 302.193 301.879 305.698C310.248 314.129 318.185 323.117 327.379 330.579C334.099 336.042 340.51 341.835 346.818 347.71L356.342 356.677C357.27 357.625 358.074 358.367 359.372 360.12C360.506 361.686 361.392 363.418 361.825 365.273C362.753 368.943 361.867 372.962 359.496 375.952C358.465 377.312 357.105 378.446 355.662 379.415C354.054 380.466 353.085 380.878 351.869 381.394C350.714 381.889 349.56 382.26 348.426 382.569C347.869 382.734 347.292 382.878 346.736 383.002L345.272 383.332C341.376 384.218 337.438 384.96 333.501 385.599C325.606 386.877 317.649 387.722 309.671 388.238C305.898 388.485 302.188 388.671 298.374 388.794C296.375 388.836 294.148 388.815 291.674 388.423C289.221 388.032 286.335 387.166 283.614 385.207C282.254 384.259 281.079 382.981 280.069 381.641C279.1 380.239 278.296 378.673 277.822 377.106C276.832 373.931 276.894 370.901 277.265 368.324C278.09 363.171 280.048 359.171 282.171 355.543C288.892 344.37 297.447 334.496 306.125 324.951C308.187 322.725 309.939 319.386 312.289 316.994C314.185 314.995 317.442 311.738 319.689 310.088C320.638 309.367 321.689 308.707 322.411 307.78C325.729 303.554 327.915 303.884 330.203 308.996C330.718 310.109 332.079 310.954 331.708 312.377C331.687 312.439 331.666 312.562 331.666 312.624C331.151 317.489 327.44 319.035 324.822 321.818C318.411 328.641 312.433 335.836 306.888 343.36C304.105 347.112 301.466 350.967 298.931 354.884C297.673 356.842 296.416 358.821 295.241 360.841C293.963 362.923 292.994 364.614 292.231 366.448C291.283 368.633 290.726 370.839 290.829 372.262C290.871 372.962 290.994 373.416 291.18 373.725C291.365 374.076 291.633 374.344 292.025 374.591C292.85 375.127 294.932 375.56 297.426 375.539C298.663 375.539 300.147 375.477 301.569 375.416C302.992 375.333 304.414 375.251 305.837 375.127C308.949 374.859 312 373.993 315.175 374.158H315.113C318.391 373.725 321.607 373.086 324.864 372.674C331.027 371.911 337.253 370.695 343.375 369.252C344.695 368.943 345.767 368.592 346.715 368.201C347.107 368.036 347.746 367.685 347.622 367.768C347.643 367.788 347.746 367.788 347.808 367.685C347.808 367.644 347.622 367.747 347.622 367.768Z" fill="black"/>
</svg>
