<svg width="70" height="244" viewBox="0 0 70 244" fill="none" xmlns="http://www.w3.org/2000/svg">
<path d="M69.0492 49.0408C65.3271 46.048 61.4238 43.2876 57.3618 40.7753C55.6934 39.5806 54.0879 38.3004 52.5515 36.9401C52.3531 36.9401 52.0885 36.9401 51.9562 36.9401C49.3278 34.7745 46.997 32.3446 44.5173 29.9641C43.8441 29.3592 43.1258 28.8065 42.3685 28.311C42.0048 27.468 41.013 27.2365 40.3683 26.6579L39.9054 26.2447C40.5335 25.1867 41.1617 24.1286 41.7734 23.0541C44.6332 18.0949 47.5757 13.0366 50.2868 7.91204C50.8488 6.8706 52.7001 6.47374 50.766 4.07677C50.4189 3.43207 49.2948 2.91972 48.5344 2.32461C45.2283 -0.303793 43.7735 -0.651005 43.5752 1.01861C43.5752 1.38229 43.1288 1.54756 42.8808 1.81206C40.2193 1.38226 42.3189 4.04369 40.3352 4.06023C40.6243 4.51071 40.7431 5.04963 40.6704 5.57992C40.5976 6.11022 40.3381 6.59709 39.9385 6.95312C37.6903 10.0279 34.979 12.7887 32.9458 16.0122L32.2681 17.252C29.8381 13.9458 27.623 10.5073 25.4905 6.98622C24.9615 6.07702 25.7053 4.45697 22.6636 4.88677C21.7322 5.07754 20.8313 5.39467 19.9856 5.82914C15.919 7.25079 14.8777 8.17643 16.134 9.25093C16.3985 9.48236 16.3323 9.91212 16.4315 10.2427C14.6461 12.276 17.9855 11.8958 16.9937 13.5489C18.6467 13.5489 18.9112 14.4746 19.2749 15.202C20.0353 16.8551 20.7626 18.6075 21.49 20.3433C22.2495 22.0448 23.1567 23.6765 24.2011 25.2198C24.9831 26.3125 25.845 27.3457 26.7798 28.311C24.6142 32.2619 22.1677 36.031 20.0022 39.9819C17.506 44.5609 14.3817 48.7431 12.5633 53.7189C11.307 57.1243 8.69507 59.7527 6.54606 62.6456C5.66992 63.8358 7.12461 65.8196 10.4473 67.8529C13.77 69.8861 14.3982 68.5637 14.9933 67.8529C18.6124 63.7575 21.7311 59.2459 24.2836 54.4133C25.4573 52.38 26.7798 50.4294 28.0361 48.4457C28.0361 48.2142 28.0361 47.9332 28.0361 47.7679C30.086 44.4617 32.1854 41.1555 34.2187 37.8494C34.5208 37.322 34.7754 36.7688 34.9792 36.1963C37.5283 38.8346 40.2274 41.3239 43.0628 43.6517C47.0467 46.743 50.8323 50.264 55.6097 52.0989C58.9158 53.3553 61.3953 55.868 64.3543 57.736C65.5942 58.5295 67.4126 56.9095 69.1152 53.4049C70.8179 49.9004 69.6443 49.5532 69.0492 49.0408Z" fill="black"/>
<path d="M53.456 96.3656C53.1761 95.4591 52.7699 94.5965 52.2493 93.8033C50.3978 89.902 49.3564 88.9763 48.3976 90.3484C48.1993 90.6459 47.7693 90.6294 47.4387 90.7451C45.2236 89.1912 45.9675 92.3981 44.1326 91.6542C44.2159 92.1767 44.108 92.712 43.8287 93.1614C43.5493 93.6108 43.1173 93.9444 42.6119 94.1009C40.9588 95.0266 39.3057 95.9193 37.6526 96.7955C35.9914 97.6954 34.4098 98.7351 32.9248 99.9033C30.5186 101.998 28.3056 104.305 26.3125 106.796C25.9984 106.334 25.7007 105.887 25.3701 105.441C22.5764 101.523 19.8488 97.5557 16.9063 93.7205C16.3112 92.9436 16.9063 91.2741 13.9638 92.1667C13.0761 92.4935 12.2365 92.9384 11.4676 93.4893C7.68206 95.5226 6.73984 96.5639 7.99619 97.2913C8.27721 97.44 8.22774 97.8202 8.32692 98.1013C6.67384 100.201 9.97985 99.2585 8.988 100.912C9.21156 100.844 9.44648 100.821 9.67893 100.845C9.91138 100.869 10.1368 100.939 10.3416 101.052C10.5465 101.164 10.7268 101.316 10.8719 101.5C11.0171 101.683 11.1241 101.893 11.1867 102.118C12.6745 104.929 13.6333 108.086 15.3691 110.714C16.4264 112.241 17.5803 113.699 18.824 115.078C17.4354 116.616 16.0798 118.17 14.8234 119.823C11.7322 123.889 8.21116 127.708 6.21093 132.535C4.87193 135.841 2.24354 138.321 0.226776 141.247C-0.616297 142.453 0.921055 144.354 4.34294 146.206C7.76482 148.057 8.27721 146.851 8.82273 146.206C12.074 142.442 15.0412 138.441 17.6998 134.238C18.9396 132.485 20.2786 130.832 21.6838 129.278C21.6838 129.063 21.6838 128.799 21.6838 128.65C22.9732 126.997 24.3288 125.575 25.7008 124.088C26.7754 125.741 27.8499 127.262 29.007 128.783C31.6024 132.271 33.586 136.155 36.8261 139.197C39.0412 141.263 39.9834 144.255 41.3555 146.917C41.9175 148.024 44.2483 147.413 47.4884 145.264C50.7284 143.115 49.9514 142.189 49.7034 141.495C48.0527 137.243 45.798 133.251 43.0086 129.642C41.868 127.989 40.8926 126.336 39.8346 124.683C39.6527 124.683 39.3883 124.584 39.2891 124.452C37.5369 121.74 35.8341 118.98 34.0488 116.285C33.7598 115.875 33.4334 115.494 33.0735 115.145C34.911 113.092 36.8943 111.175 39.008 109.408C42.9589 105.871 47.1743 102.631 51.4393 99.49C52.4476 98.8122 54.1833 99.3577 53.456 96.3656Z" fill="black"/>
<path d="M57.5581 228.692C54.6101 224.086 51.1192 219.852 47.1604 216.079C45.5073 214.426 44.003 212.591 42.4326 210.839C42.2177 210.839 41.9201 210.839 41.7879 210.624L36.5144 204.789C37.7738 201.857 39.2491 199.022 40.9282 196.308C43.6889 191.448 46.7305 186.754 49.7722 182.042C50.4004 181.083 52.2517 180.918 50.5325 178.356C50.235 177.678 49.177 177.033 48.4993 176.389C45.3915 173.397 44.0691 172.901 43.6393 174.554C43.5401 174.917 43.1267 175.066 42.8622 175.298C40.2338 174.636 42.0689 177.496 40.1017 177.364C40.3547 177.843 40.4305 178.396 40.3156 178.925C40.2007 179.454 39.9024 179.926 39.4735 180.257C36.8038 183.072 34.3295 186.065 32.0677 189.217C30.5688 191.768 29.27 194.432 28.183 197.185C25.8522 195.151 23.8023 192.837 21.5707 190.572C17.5041 186.456 13.5036 182.307 9.32128 178.257C8.46168 177.43 8.57734 175.529 5.75057 176.752C5.02321 176.918 4.21317 177.86 3.45276 178.406C-0.0187196 180.951 -0.729505 182.175 0.807862 182.885C1.13848 183.034 1.20456 183.464 1.3864 183.762C0.245773 186.225 3.38666 184.919 2.85767 186.836C3.37076 186.684 3.92125 186.718 4.41147 186.933C4.90169 187.148 5.29995 187.529 5.53566 188.01C7.88304 191.002 9.78407 194.424 12.3464 197.201C15.3384 200.507 18.9588 203.053 22.1327 206.111C22.5459 206.508 22.9427 206.921 23.3394 207.334C22.2318 209.583 21.1408 211.864 20.1985 214.195C18.2479 219.154 15.7518 223.783 14.8756 229.072C14.3136 232.676 12.2802 235.817 10.9082 239.222C10.3461 240.627 12.2307 242.181 15.9667 243.289C19.7027 244.397 19.9836 243.008 20.3969 242.28C22.8454 237.641 24.8971 232.802 26.5299 227.816C27.3399 225.717 28.282 223.65 29.2574 221.617C29.2574 221.402 29.1251 221.154 29.2574 220.972C30.0343 219.319 30.9104 217.55 31.7039 215.864L31.985 216.162C35.7044 219.815 38.8949 223.981 43.1929 227.089C46.1189 229.221 47.9372 232.461 50.1358 235.354C51.045 236.528 53.4421 235.685 56.2193 233.04C58.9964 230.395 58.0045 229.453 57.5581 228.692Z" fill="black"/>
</svg>
