<svg width="241" height="189" viewBox="0 0 241 189" fill="none" xmlns="http://www.w3.org/2000/svg">
<path d="M75.3376 48.9907C75.3376 48.9907 75.3766 48.9907 75.3766 48.9712C75.3766 48.9712 75.3962 48.9516 75.3962 48.9321V48.9125C75.3571 48.893 75.5721 49.0103 74.9075 48.5997C71.1541 46.3321 66.9315 43.8103 63.5887 41.8945C48.1646 32.9998 32.8188 23.9682 18.2354 13.7637C15.9482 12.1607 11.9015 9.75621 14.2083 6.00284C16.6323 2.07352 20.6985 1.36974 24.7842 3.96974C34.6759 10.2645 44.294 17.1456 54.7526 22.3456C62.3962 26.1577 69.8052 30.3607 77.1752 34.6419L83.1767 38.1606C84.8188 39.1381 86.5195 40.0764 88.103 41.093C89.6669 42.1291 90.918 43.2434 91.8172 44.3577C92.736 45.4915 93.3811 46.6449 93.7917 47.9742C94.2022 49.3035 94.2609 50.9065 93.9285 52.4118C93.127 55.4418 91.2112 57.4163 88.5135 58.9997C87.3014 59.6839 85.8744 60.2509 84.2323 60.72C82.5902 61.1501 80.8699 61.4825 79.1887 61.8539L73.109 63.1636L61.8879 65.529C54.4007 67.1125 46.9135 68.6764 39.4654 70.3772C35.9662 71.1787 32.467 72.0193 28.9873 72.8794L23.7677 74.1892L21.1482 74.8539L19.8384 75.1862L18.2745 75.5381C14.9512 76.1832 11.2956 76.32 8.26548 75.2253C5.23541 74.1892 2.63542 71.9802 1.24746 69.0869C-0.179609 66.2133 -0.355541 62.8508 0.582803 59.5471C1.03243 57.8854 1.77524 56.2629 2.67448 54.7185C2.88952 54.3275 3.12412 53.9366 3.35871 53.5651L3.82786 52.8419L4.78579 51.493C12.1557 41.5426 20.4249 32.2374 28.1075 22.4825C29.906 20.1953 31.3331 16.872 33.288 14.3306C34.9105 12.2389 37.5496 8.70054 39.4068 6.82385C40.2083 6.0028 41.0684 5.18176 41.5962 4.20432C44.0007 -0.350564 46.0925 -0.467864 49.1616 3.89153C49.8263 4.84942 51.2534 5.35773 51.1557 6.80435C51.1557 6.86299 51.1556 6.98028 51.1361 7.03892C51.3902 11.8675 47.9692 14.0961 45.7406 17.2434C40.2669 24.9652 34.7346 32.6479 29.1827 40.3306L20.8354 51.8253L16.6715 57.5727C15.9873 58.5306 15.2249 59.5471 14.7557 60.2704C14.4234 60.7787 14.4625 60.7396 14.3843 60.8765C14.3256 60.9937 14.2865 61.0915 14.2279 61.2088C13.9737 61.7366 13.9933 62.4403 14.5211 62.7922C14.7557 62.9486 15.0685 63.0073 15.3617 63.0073C15.4986 63.0073 15.655 62.9877 15.7918 62.9681L16.7692 62.7922C22.3407 61.5802 28.088 60.2704 33.6594 58.7847C36.7286 57.9637 39.7 56.6734 42.9451 56.3802H42.8865C46.1511 55.5396 49.3767 54.5426 52.6609 53.8779C58.8774 52.5291 65.2308 51.1607 71.5255 49.7922C72.7962 49.5381 74.0669 49.2644 75.3376 48.9907C75.3571 49.0103 75.494 49.0689 75.6503 48.9907C75.6699 48.9712 75.318 48.9907 75.3376 48.9907Z" fill="black"/>
<path d="M149.673 172.344C149.184 171.817 148.344 170.956 147.21 169.959C146.115 168.943 144.786 167.731 143.202 166.558C140.192 164.095 136.399 161.651 133.369 159.794C126.292 155.552 118.649 151.701 111.044 147.205C103.459 142.747 95.8354 137.469 89.4038 130.686C88.3677 129.669 87.0188 128.223 86.3542 126.659C85.67 125.114 85.6895 123.511 87.3903 122.084C89.1497 120.599 91.0654 119.954 92.8248 120.032C94.6038 120.11 96.2068 120.951 97.8098 122.417C105.238 129.747 114.583 136.081 124.807 140.773C132.314 144.194 139.84 148.123 146.995 153.05C150.592 155.474 154.013 158.289 157.317 161.28C158.939 162.844 160.444 164.408 162.067 166.128L162.732 166.91C163.025 167.281 163.318 167.633 163.572 168.024C164.119 168.767 164.608 169.549 165.038 170.35C165.898 171.953 166.465 173.674 166.661 175.414C167.013 178.522 165.977 181.767 163.846 184.074C161.735 186.4 158.626 187.788 155.322 188.335C153.446 188.648 152.605 188.648 151.413 188.707L149.771 188.726L148.383 188.707L142.831 188.629C135.422 188.531 128.013 188.453 120.604 188.472C115.013 188.492 109.402 188.648 103.811 188.805L99.6083 188.922L97.5166 188.981L96.9497 189H95.9332C95.2489 189 94.5647 188.941 93.9001 188.902C91.1828 188.687 88.6023 187.964 86.491 186.674C84.3798 185.383 82.7377 183.468 81.7602 181.18C80.861 178.932 80.6655 176.508 81.1737 174.104C81.682 171.699 82.9332 169.295 84.4971 167.066L86.1587 164.759L87.488 162.941L90.2053 159.344L95.7767 152.268C99.5301 147.576 103.303 142.904 106.939 138.114C108.659 135.866 109.95 132.621 111.807 130.119C113.332 128.066 115.834 124.587 117.613 122.749C118.375 121.948 119.216 121.146 119.704 120.169C121.933 115.711 124.005 115.575 127.172 119.836C127.876 120.775 129.303 121.263 129.225 122.69C129.225 122.749 129.225 122.866 129.225 122.925C129.635 127.636 126.332 129.845 124.24 132.934C119.079 140.519 113.859 148.045 108.62 155.571L100.742 166.851L96.8128 172.481L95.9332 173.732L95.7377 174.026C95.6204 174.221 95.5031 174.436 95.4444 174.651C95.3858 174.866 95.3662 175.101 95.4639 175.316C95.6594 175.824 96.2459 175.981 96.7346 176.02C96.8519 176.039 96.9887 176.039 97.106 176.039L98.6113 176.059L102.404 176.078C107.467 176.098 112.53 176.059 117.593 175.844C120.662 175.726 123.751 175.101 126.879 175.531H126.82C130.085 175.414 133.35 175.159 136.595 175.218C139.683 175.238 142.792 175.277 145.92 175.316L150.474 175.335C151.08 175.316 151.667 175.296 152.175 175.238L152.371 175.218C152.371 175.199 152.351 175.199 152.371 175.199C152.39 175.199 152.41 175.199 152.41 175.159L152.429 175.14C152.41 175.12 152.468 175.179 152.39 175.081L152.156 174.768C151.843 174.377 151.295 173.83 150.885 173.361C150.631 173.029 150.083 172.775 149.673 172.344Z" fill="black"/>
<path d="M226.071 52.1006C225.582 51.475 224.018 49.9697 220.538 48.1126C216.961 46.1968 212.66 43.9487 209.396 42.2871C194.128 34.5457 178.938 26.6871 164.414 17.5969C162.146 16.1698 158.119 14.0781 160.23 10.1878C162.42 6.14123 166.349 5.14425 170.415 7.45102C180.229 13.0029 189.788 19.1412 200.11 23.5592C207.656 26.8044 214.986 30.4405 222.278 34.1743C224.116 35.1322 225.875 35.9924 227.869 37.1066C229.844 38.2014 231.955 39.4916 233.988 41.2901C235.982 43.0104 238.015 45.4931 239.168 48.3081C240.341 51.1036 240.967 54.4465 240.107 58.0434C239.872 59.0795 239.462 60.0961 238.993 61.054C237.507 63.8886 235.083 65.9412 232.874 67.1532C230.626 68.3848 228.514 69.0494 226.559 69.5772C224.565 70.1051 222.943 70.4374 221.203 70.8284L216.042 72.0013C209.161 73.5652 202.28 75.1291 195.438 76.8103L189.573 78.296L186.641 79.0584C185.683 79.3126 184.471 79.6254 183.317 79.8404C180.952 80.29 178.332 80.6419 175.205 80.29C171.549 79.86 167.698 77.9246 165.391 74.8163C163.749 72.5878 162.791 69.8705 162.674 67.0554C162.635 66.3517 162.674 65.6479 162.713 64.9442C162.732 64.5923 162.791 64.2404 162.85 63.869C162.889 63.5758 162.928 63.263 163.006 62.9893C163.241 61.875 163.534 60.8389 163.886 59.9006C164.59 58.0044 165.43 56.3622 166.31 54.857C166.76 54.0946 167.209 53.3908 167.678 52.7066L168.91 50.9081C175.674 41.0946 183.356 31.9262 190.433 22.3277C192.095 20.0601 193.326 16.8149 195.125 14.3322C196.611 12.26 199.035 8.78036 200.774 6.92322C201.517 6.12172 202.338 5.30065 202.808 4.34276C204.958 -0.114379 207.011 -0.290302 210.256 3.93225C210.959 4.85104 212.406 5.33977 212.367 6.74729C212.367 6.80593 212.367 6.92322 212.367 6.98186C212.856 11.6736 209.611 13.9022 207.577 17.0104C202.573 24.6149 197.51 32.1803 192.427 39.7262L184.784 51.0449L180.972 56.6946L179.056 59.5292C178.411 60.4675 177.922 61.2103 177.453 62.0509C176.612 63.5171 176.006 64.9637 175.811 65.9803C175.693 66.5081 175.772 66.86 176.026 67.2314C176.241 67.5051 176.553 67.681 176.905 67.7396C177.394 67.8374 178.763 67.8961 180.053 67.7006C182.594 67.3487 186.269 66.2344 189.593 65.3352C192.525 64.4946 195.359 63.1848 198.468 62.872H198.409C201.537 62.0119 204.606 60.9953 207.773 60.2915C212.093 59.2946 216.472 58.278 220.832 57.2615C222.962 56.7728 224.683 56.284 225.817 55.7562C226.383 55.5021 226.755 55.2479 226.95 55.0915C227.146 54.9352 227.165 54.8765 227.185 54.857C227.165 54.8961 227.263 54.8374 227.224 54.3487C227.205 53.8991 226.97 53.2149 226.657 52.6284C226.54 52.3938 226.286 52.3547 226.071 52.1006Z" fill="black"/>
</svg>
