<svg width="49" height="246" viewBox="0 0 49 246" fill="none" xmlns="http://www.w3.org/2000/svg">
<path d="M47.4179 143.845C44.3829 141.136 41.1873 138.613 37.8484 136.29C37.2104 135.769 36.5724 135.215 35.968 134.611L34.2892 132.781C34.1045 132.781 33.8526 132.781 33.7686 132.781C33.0299 131.958 32.3248 131.102 31.6364 130.212C31.6856 130.11 31.7251 130.003 31.7541 129.893C32.4424 129.373 32.3583 128.416 32.6437 127.66C33.8128 125.028 35.1766 122.485 36.7235 120.055C39.0067 115.959 41.3906 111.929 43.5564 107.749C43.9929 106.893 45.739 106.725 43.6572 104.391C42.9597 103.735 42.181 103.171 41.3404 102.712C37.8483 100.127 36.4883 99.7073 36.4044 101.034C36.4044 101.336 36.0182 101.453 35.8 101.655C33.1977 101.034 35.4643 103.535 33.5504 103.334C33.7108 103.499 33.8357 103.695 33.9172 103.91C33.9987 104.125 34.035 104.355 34.024 104.585C34.013 104.815 33.9547 105.04 33.8531 105.246C33.7514 105.453 33.6084 105.636 33.4329 105.785C31.5526 108.236 29.135 110.368 27.5233 112.97C26.1643 115.409 24.9642 117.932 23.9305 120.525C22.7888 118.846 21.8319 117.168 20.8078 115.354C18.4574 111.375 16.258 107.229 13.8068 103.216C13.3031 102.394 14.0586 100.798 11.0702 101.403C10.143 101.644 9.25132 102.005 8.4177 102.477C4.37161 104.156 3.38112 105.046 4.47239 105.835C4.72422 106.02 4.62349 106.389 4.69065 106.675C2.81031 108.572 6.11756 107.951 4.97593 109.495C6.6548 109.495 6.75548 110.217 7.0241 110.889C7.90713 113.913 8.97815 116.879 10.2308 119.77C12.1876 122.919 14.3408 125.941 16.6776 128.819L18.1384 130.901C17.8362 131.438 17.5172 131.975 17.2318 132.58C15.2339 136.307 12.598 139.631 11.2885 143.778C10.3987 146.598 8.11543 148.63 6.25189 150.93C5.51318 151.887 7.07455 153.733 10.4659 155.782C13.8572 157.83 14.3273 156.772 14.8477 156.285C17.9382 153.098 20.5406 149.472 22.5705 145.524C23.5106 143.845 24.6188 142.3 25.6429 140.689C25.6429 140.554 25.6429 140.386 25.6429 140.252C28.1776 143.211 31.299 145.612 34.8095 147.303C37.7475 148.478 39.8462 150.879 42.4317 152.625C43.4726 153.347 45.2522 151.702 47.0822 148.193C48.9121 144.684 47.9551 144.332 47.4179 143.845Z" fill="black"/>
<path d="M37.093 210.162C40.4508 206.805 43.9932 203.447 47.3845 200.089C48.0897 199.384 49.8358 199.686 48.5262 196.916C48.0694 196.074 47.5051 195.295 46.8474 194.599C44.2619 191.09 43.0698 190.301 42.5494 191.661C42.4318 191.963 42.029 191.963 41.7772 192.115C39.4435 190.788 40.8538 193.793 39.0574 193.155C39.1577 193.371 39.2138 193.604 39.2224 193.842C39.2309 194.08 39.1917 194.317 39.1072 194.539C39.0227 194.761 38.8946 194.964 38.7303 195.136C38.566 195.308 38.3689 195.445 38.1507 195.539C35.3697 197.228 32.6901 199.078 30.1257 201.08C28.1264 203.087 26.3011 205.261 24.6693 207.577C24.2496 206.637 23.8467 205.68 23.4102 204.74C21.597 200.66 20.0525 196.345 18.2561 192.148C17.9036 191.275 18.894 189.848 15.8385 189.999C14.8839 190.089 13.9463 190.309 13.0517 190.654C8.80413 191.644 7.61211 192.333 8.61943 193.374C8.83768 193.592 8.61932 193.945 8.72006 194.23C6.5711 195.909 9.9289 195.69 8.56902 197.05C10.1639 197.218 10.2478 198.007 10.3821 198.729C10.8279 201.849 11.4899 204.935 12.3633 207.963C13.7913 211.08 15.476 214.073 17.3999 216.911C16.6444 217.969 15.9056 219.077 15.2341 220.269C12.8837 224.299 10.2983 228.261 9.42526 232.861C8.80407 235.967 6.85664 238.535 5.49675 241.255C4.92594 242.43 6.83985 243.941 10.5334 245.234C14.2269 246.527 14.5291 245.368 14.932 244.781C17.2588 241.095 19.2478 237.206 20.8751 233.163C21.6671 231.528 22.5645 229.947 23.5614 228.429C23.5614 228.244 23.4439 228.009 23.5614 227.875L24.0818 227.085L24.6023 227.74C27.5571 231.098 30.5958 234.909 34.944 236.84C36.3697 237.523 37.7154 238.362 38.9566 239.341C39.5945 239.811 40.2157 240.315 40.8537 240.819C41.4917 241.322 42.1633 241.725 42.8349 242.145C43.9765 242.833 45.6553 241.07 47.1663 237.427C48.6772 233.784 47.7203 233.465 47.1663 233.029C44.1779 230.309 41.1056 228.395 38.2516 225.961C37.6604 225.433 37.0999 224.873 36.5727 224.282C36.0158 223.687 35.4889 223.065 34.9944 222.418C34.8098 222.418 34.5748 222.418 34.4741 222.317C33.1809 220.728 32.0079 219.045 30.9651 217.281C31.0454 217.054 31.1466 216.834 31.2674 216.626C32.9596 214.259 34.9138 212.091 37.093 210.162Z" fill="black"/>
<path d="M44.4912 49.8622C41.9348 46.3146 39.0635 43.005 35.9122 39.9736C34.643 38.5894 33.4493 37.1379 32.3362 35.6254C32.1515 35.6254 31.8827 35.6252 31.782 35.4573C29.8513 33.023 28.1221 30.4207 26.3761 27.8856C26.2845 27.7605 26.1836 27.6427 26.074 27.5331C27.3127 25.1037 28.7383 22.7742 30.3382 20.5657C33.058 16.4693 36.0128 12.5409 38.9508 8.56197C39.5552 7.75612 41.3349 7.84006 39.6896 5.20423C39.4042 4.53268 38.38 3.81077 37.7253 3.10564C34.7537 -0.101004 33.4777 -0.722212 33.058 0.771984C33.058 1.09097 32.5712 1.17487 32.3025 1.35955C29.7674 0.402592 31.5471 3.29014 29.6332 2.92078C29.8858 3.3508 29.9621 3.86189 29.8463 4.34697C29.7305 4.83205 29.4316 5.25356 29.012 5.52312C26.4162 7.78582 23.9919 10.2381 21.7592 12.8598C20.645 14.4563 19.6624 16.1407 18.8211 17.8964C18.6868 17.6446 18.5525 17.3928 18.4014 17.141C16.1182 13.0781 14.154 8.74664 12.2233 4.56625C11.8372 3.67645 12.8275 2.24934 9.7552 2.40044C8.79755 2.50428 7.8562 2.72417 6.95162 3.05523C2.68728 4.06255 1.51211 4.83475 2.58659 5.90923C2.82163 6.14427 2.68725 6.5137 2.72083 6.83269C0.639025 8.51156 4.01356 8.42751 2.72083 9.87134C3.19895 9.84748 3.66781 10.0086 4.0304 10.3212C4.39298 10.6338 4.62153 11.0738 4.66838 11.5502C5.13846 13.2291 5.5414 14.8073 5.94433 16.4694C6.35773 18.1011 6.9197 19.6914 7.62321 21.2205C9.11443 23.8995 10.8511 26.4343 12.8109 28.7923C11.7532 30.6054 10.729 32.4523 9.82242 34.3494C7.80777 38.5634 5.27261 42.5422 4.29887 47.2262C3.6609 50.4161 1.57911 53.0184 0.118493 55.9061C-0.50269 57.0981 1.34418 58.7098 5.05448 60.0865C8.76479 61.4631 9.06703 60.2711 9.50353 59.6667C12.0551 55.8144 14.1987 51.707 15.8999 47.4109C16.7226 45.5977 17.6964 43.8687 18.6701 42.1394C18.6701 41.938 18.5358 41.7027 18.6701 41.5516C19.157 40.6451 19.6775 39.7721 20.1979 38.8823C20.668 39.4867 21.1549 40.1078 21.6586 40.7122C24.6469 44.1539 27.2827 47.9651 31.1944 50.517C33.8806 52.1958 35.4923 55.0499 37.658 57.3667C38.5478 58.3404 40.6633 57.1318 43.2152 54.1098C45.7671 51.0878 44.8773 50.4666 44.4912 49.8622Z" fill="black"/>
</svg>
