<svg width="67" height="134" viewBox="0 0 67 134" fill="none" xmlns="http://www.w3.org/2000/svg">
<path fill-rule="evenodd" clip-rule="evenodd" d="M65.9842 69.5247C66.2375 67.7533 66.4587 66.2061 66.4999 65.5121C66.5139 65.3557 66.4486 65.2008 66.3896 65.061C66.3384 64.9396 66.2919 64.8295 66.3065 64.7397C67.0348 60.9787 66.9858 56.9161 66.9374 52.8963C66.9212 51.5498 66.905 50.2081 66.9181 48.8842C66.9109 47.9256 66.6975 46.972 66.4849 46.0215C66.3875 45.5864 66.2903 45.152 66.2131 44.718C66.5395 43.7641 66.1875 42.8462 65.8388 41.9371C65.6937 41.5589 65.5493 41.1822 65.4544 40.8051C65.01 38.9611 64.7691 37.1107 64.5284 35.2614C64.4605 34.7397 64.3926 34.2181 64.3201 33.6967C64.1737 32.5068 64.0483 31.3221 63.9228 30.1321C63.7979 29.0387 63.6245 27.9541 63.4512 26.8702C63.4359 26.7745 63.4206 26.6788 63.4053 26.5832C62.1455 18.8955 60.5303 11.2548 58.0264 3.88547C57.8946 3.51672 57.8814 3.11057 57.8681 2.70436C57.8284 1.48353 57.7887 0.262237 54.5293 0.0546863C54.5007 0.0518272 54.4595 0.0458349 54.4203 0.0401424C54.388 0.0354438 54.3572 0.0309493 54.3359 0.0285894C53.5851 -0.094574 52.5184 0.202221 51.4544 0.498238C50.9403 0.641252 50.4269 0.784085 49.9501 0.879291C43.3114 2.23625 41.4139 3.36878 42.9037 4.90319C43.1971 5.21027 43.1049 5.64993 43.015 6.07893C43.0056 6.12385 42.9962 6.16865 42.9873 6.21317C42.8177 7.03234 43.0261 8.13384 43.1993 9.04897C43.2556 9.34656 43.3081 9.62445 43.3428 9.86651C43.4421 10.4534 43.8365 10.9999 44.2238 11.5366C44.6114 12.0738 44.992 12.6011 45.0626 13.1493C45.2193 14.2022 45.2466 15.2767 45.2738 16.3493C45.2765 16.4569 45.2793 16.5646 45.2821 16.6722L45.3239 20.2055C45.2978 21.385 45.2874 22.5593 45.3292 23.7179C45.3658 24.8765 45.4808 26.0195 45.6062 27.1625C45.7735 28.4829 46.0296 29.7877 46.3328 31.0924C46.4287 31.5124 46.5219 31.933 46.6152 32.3539C46.8117 33.2405 47.0086 34.1289 47.2319 35.0172L47.7128 36.9847C47.8258 37.443 47.9159 37.9038 48.0061 38.3654C48.0453 38.5662 48.0846 38.7671 48.1258 38.968C48.3819 40.2936 48.6172 41.6297 48.7844 42.9658C49.2188 47.2833 49.1461 51.6127 49.0732 55.945C49.0496 57.3472 49.0261 58.7497 49.0197 60.1521C48.9517 63.3462 48.6119 66.5298 48.2303 69.6978C48.1467 70.4911 48.0735 71.2844 48.016 72.0829C47.9376 72.8762 47.8644 73.6695 47.8174 74.4732C47.7703 75.277 47.7494 76.0807 47.7547 76.8949C47.7547 77.302 47.7703 77.7143 47.786 78.1214C47.7912 78.5285 47.8069 78.9355 47.8278 79.3478C47.9376 81.5973 47.5037 83.784 46.6935 85.8717C46.3655 86.7734 45.995 87.6636 45.6251 88.5522C45.5647 88.6973 45.5043 88.8424 45.4442 88.9874C45.2571 89.433 45.0584 89.8737 44.8601 90.3134C44.5986 90.8933 44.3379 91.4714 44.106 92.0562C43.4212 93.7368 46.5733 95.8505 52.4802 97.578C57.7824 99.1281 58.5929 97.5914 59.1453 96.5441C59.1843 96.4701 59.2221 96.3985 59.26 96.3307C62.9558 89.7233 64.4665 82.3697 65.261 75.0265C65.4282 73.4134 65.7232 71.35 65.9842 69.5247ZM28.3838 102.447C28.5981 101.691 28.7707 101.08 28.8752 100.709C28.922 100.534 28.8838 100.346 28.8492 100.176C28.8219 100.042 28.797 99.9188 28.8177 99.8222C29.0529 99.1646 29.2725 98.4913 29.4763 97.8076C29.6854 97.1239 29.8893 96.435 30.02 95.7252C30.3127 94.3108 30.5689 92.8652 30.8041 91.4143C30.841 91.1685 30.8815 90.9233 30.9219 90.6784C31.0017 90.195 31.0814 89.7124 31.1334 89.2275L31.353 87.025C31.5045 85.5585 31.6561 84.1024 31.8443 82.6619C31.938 81.6076 31.8181 80.5385 31.6985 79.4733C31.6451 78.9973 31.5918 78.5222 31.5577 78.0495C31.8541 77.3391 31.8068 76.6133 31.6666 75.8876C31.6082 75.5476 31.5091 75.2088 31.4103 74.8711C31.2968 74.483 31.1837 74.0963 31.1334 73.7112C30.8751 72.0899 30.7624 70.4745 30.6499 68.8627C30.5803 67.8647 30.5107 66.8681 30.4068 65.8722L30.135 61.9631C30.1195 61.4799 30.0553 60.9996 29.9911 60.5201C29.9687 60.3521 29.9462 60.1843 29.9259 60.0164L29.6593 58.0749C28.4413 49.6514 26.4131 41.2957 23.052 33.4618C22.8718 33.0681 22.8064 32.6301 22.7411 32.1927C22.6757 31.7546 22.6104 31.3171 22.4299 30.9254C22.0692 30.1477 21.2433 29.5475 19.053 29.5841C18.9955 29.5841 18.9014 29.5789 18.8544 29.5736C18.0835 29.5066 17.0495 29.9172 16.021 30.3256C15.5291 30.5209 15.0384 30.7157 14.5784 30.8575C11.3479 31.8648 9.30404 32.7312 8.25858 33.5036C7.21311 34.2812 7.17652 34.9597 8.00244 35.6799C8.33076 35.9697 8.28226 36.4325 8.23543 36.8793C8.23081 36.9234 8.22621 36.9672 8.22199 37.0108C8.14249 37.7901 8.41521 38.7764 8.65506 39.6438C8.76218 40.0312 8.86274 40.3949 8.92245 40.7059C9.06368 41.3013 9.49934 41.8378 9.92761 42.3653C10.3553 42.8921 10.7756 43.4097 10.8879 43.9678C11.1163 44.9499 11.186 45.9763 11.2551 46.9942C11.2683 47.188 11.2814 47.3814 11.2957 47.5742L11.4943 51.191C11.4838 52.407 11.4891 53.6074 11.5466 54.7921C11.5798 55.5479 11.653 56.2932 11.7262 57.0373C11.7682 57.4647 11.8102 57.8918 11.8445 58.3202C11.9909 59.672 12.2313 61.0185 12.5189 62.3598C12.6234 62.7772 12.6912 63.1987 12.7592 63.6217C12.8 63.8757 12.841 64.1302 12.89 64.3848L13.2716 66.4202L13.6793 68.4661C13.7753 68.9345 13.8302 69.403 13.8851 69.8715C13.9109 70.0919 13.9367 70.3124 13.9668 70.5328C14.1341 71.9106 14.2752 73.2989 14.3589 74.6924C14.3693 76.1702 14.307 77.6427 14.2445 79.1204L14.2439 79.1338L14.1916 80.2455C14.1759 80.616 14.1498 80.9866 14.0975 81.3519L13.8257 83.5596L13.5591 85.7672L13.4284 86.8685L13.235 87.9645C12.9789 89.4206 12.7436 90.8871 12.5502 92.3589C11.9386 95.6052 11.0813 98.8045 10.0359 101.931C9.79542 102.719 9.56542 103.512 9.3511 104.311C9.30074 104.468 9.24996 104.625 9.19913 104.782C8.99674 105.408 8.7937 106.037 8.61404 106.675C8.38404 107.473 8.18017 108.282 8.00244 109.102L7.75152 110.344C7.6522 110.751 7.55811 111.163 7.47447 111.581C7.24447 112.724 6.8681 113.809 6.39764 114.858C6.34705 114.965 6.29756 115.072 6.24804 115.179C6.0571 115.592 5.86567 116.006 5.60832 116.387C5.29991 116.873 4.97058 117.348 4.63603 117.817C4.04903 118.64 3.43034 119.434 2.81444 120.225C2.72281 120.343 2.63125 120.461 2.53987 120.578C2.31973 120.879 2.06888 121.158 1.81859 121.437C1.68255 121.588 1.54668 121.739 1.41599 121.894C1.0344 122.327 0.663253 122.765 0.302566 123.204C-0.29335 123.929 0.00461392 125.03 1.07622 126.403C2.14782 127.775 3.98784 129.419 6.52833 131.157C11.0829 134.295 12.4029 132.925 13.303 131.992C13.3657 131.927 13.4263 131.864 13.4859 131.805C14.2177 131.079 14.9339 130.333 15.6239 129.566C15.9794 129.19 16.2982 128.788 16.6014 128.381C16.9098 127.974 17.213 127.561 17.511 127.149C18.1121 126.319 18.6923 125.474 19.2517 124.618L20.0828 123.324C20.2789 122.995 20.4573 122.657 20.6357 122.319C20.6951 122.207 20.7546 122.094 20.8147 121.982C21.7556 120.176 22.6756 118.345 23.4858 116.476C24.2281 114.576 24.9286 112.661 25.6133 110.746C25.6601 110.612 25.7091 110.477 25.7587 110.339C25.7868 110.261 25.8151 110.183 25.8433 110.104C25.8802 109.985 25.9186 109.863 25.9576 109.739C25.9906 109.634 26.0242 109.528 26.0577 109.42C26.1043 109.277 26.1514 109.132 26.199 108.986C26.3062 108.657 26.4159 108.319 26.5281 107.98C26.8627 107.004 27.2077 105.996 27.5318 105.046C27.5578 104.973 27.5837 104.899 27.6094 104.826C27.9152 103.959 28.2006 103.15 28.3838 102.447Z" fill="#4633FF"/>
</svg>
