<svg width="71" height="77" viewBox="0 0 71 77" fill="none" xmlns="http://www.w3.org/2000/svg">
<path d="M37.7665 30.1866C38.5015 28.8747 41.274 24.3531 42.8185 21.3107C46.3818 14.2864 50.1126 7.36433 55.6112 1.40059C56.4671 0.470211 57.4812 -1.35333 63.0263 1.67041C68.7946 4.8244 71.5021 7.86674 70.274 9.63446C67.2968 13.9142 63.4915 17.7846 62.0587 22.8552C59.9561 30.2889 55.6019 36.4852 52.3362 43.2863C50.8662 46.3379 49.2567 49.3152 47.6564 52.2924L45.2747 56.7675L44.121 59.0283L42.4463 62.3591C41.7857 63.6616 41.1624 65.02 40.4646 66.3132C39.7668 67.6064 39.0039 68.8159 38.1944 69.9045C36.5477 72.0816 34.6776 73.7563 32.4168 74.8913C30.1932 76.0636 27.4021 76.5288 24.8063 76.2776C22.2106 75.9985 19.8567 75.0774 17.6982 73.4771C15.8374 72.1188 14.1814 70.165 12.7672 67.8762C12.0601 66.7319 11.4367 65.4945 10.8227 64.2943L9.91092 62.4987L9.46429 61.6055C9.41778 61.5218 9.39921 61.4659 9.3899 61.438L9.3434 61.3171L9.25033 61.0752C8.22691 58.4887 7.25934 55.8651 6.07775 53.3716C5.51953 52.1994 3.70528 51.4923 3.05402 50.2363C2.5144 49.1942 1.52816 47.5102 1.3886 46.2356C1.32347 45.6867 1.31416 45.0819 0.858278 44.7935C-1.23508 43.4352 0.393115 41.7326 6.93369 38.5879C8.37578 37.8994 10.0412 36.6434 11.2507 36.541C11.2972 36.541 11.3995 36.5224 11.4553 36.5131C16.0421 35.6293 15.2048 38.132 16.191 39.5276C18.6007 42.9607 20.908 46.4496 23.1967 49.9664L24.0527 51.2875C24.3225 51.6969 24.704 52.3017 24.6854 52.2459L25.104 52.7948C25.3645 53.1484 25.6343 53.4833 25.9693 53.6973C26.174 53.8275 26.4159 53.9485 26.6671 53.9485C26.9276 53.9578 27.1788 53.8368 27.3555 53.6414C27.7091 53.2414 27.858 52.5529 27.7091 51.9388C27.6719 51.7714 27.4765 51.5109 27.3369 51.362L27.2532 51.2597C27.2532 51.2318 27.216 51.269 27.2439 51.1945C27.2811 51.1108 27.309 51.0271 27.3555 50.9526C27.5137 50.6363 27.7184 50.3386 28.0068 50.0967L27.9882 50.1153C28.4999 48.7011 28.8255 47.1939 29.5512 45.8914C32.2679 40.9603 34.566 35.5269 37.6269 31.0425C37.7293 30.8471 37.6083 30.4657 37.7665 30.1866Z" fill="black"/>
</svg>
