<svg width="71" height="77" viewBox="0 0 71 77" fill="none" xmlns="http://www.w3.org/2000/svg">
<path d="M37.7665 30.2334C38.5015 28.9216 41.274 24.3999 42.8185 21.3576C46.3818 14.3332 50.1126 7.4112 55.6112 1.44747C56.4671 0.517086 57.4812 -1.30645 63.0263 1.71728C68.7946 4.87127 71.5021 7.91361 70.274 9.68134C67.2968 13.9611 63.4915 17.8315 62.0587 22.902C59.9561 30.3358 55.6019 36.5321 52.3362 43.3332C50.8662 46.3848 49.2567 49.362 47.6564 52.3392L45.2747 56.8144L44.121 59.0752L42.4463 62.406C41.7857 63.7085 41.1624 65.0669 40.4646 66.3601C39.7668 67.6533 39.0039 68.8628 38.1944 69.9513C36.5477 72.1284 34.6776 73.8032 32.4168 74.9382C30.1932 76.1105 27.4021 76.5757 24.8063 76.3245C22.2106 76.0454 19.8567 75.1243 17.6982 73.524C15.8374 72.1657 14.1814 70.2119 12.7672 67.9231C12.0601 66.7787 11.4367 65.5414 10.8227 64.3412L9.91092 62.5455L9.46429 61.6524C9.41778 61.5686 9.39921 61.5128 9.3899 61.4849L9.3434 61.3639L9.25033 61.122C8.22691 58.5356 7.25934 55.9119 6.07775 53.4185C5.51953 52.2462 3.70528 51.5392 3.05402 50.2831C2.5144 49.2411 1.52816 47.5571 1.3886 46.2825C1.32347 45.7335 1.31416 45.1288 0.858278 44.8404C-1.23508 43.482 0.393115 41.7794 6.93369 38.6348C8.37578 37.9463 10.0412 36.6903 11.2507 36.5879C11.2972 36.5879 11.3995 36.5693 11.4553 36.56C16.0421 35.6761 15.2048 38.1789 16.191 39.5744C18.6007 43.0075 20.908 46.4965 23.1967 50.0133L24.0527 51.3344C24.3225 51.7438 24.704 52.3486 24.6854 52.2927L25.104 52.8417C25.3645 53.1952 25.6343 53.5301 25.9693 53.7441C26.174 53.8744 26.4159 53.9954 26.6671 53.9954C26.9276 54.0047 27.1788 53.8837 27.3555 53.6883C27.7091 53.2882 27.858 52.5998 27.7091 51.9857C27.6719 51.8182 27.4765 51.5577 27.3369 51.4089L27.2532 51.3065C27.2532 51.2786 27.216 51.3158 27.2439 51.2414C27.2811 51.1577 27.309 51.0739 27.3555 50.9995C27.5137 50.6832 27.7184 50.3855 28.0068 50.1436L27.9882 50.1622C28.4999 48.748 28.8255 47.2408 29.5512 45.9382C32.2679 41.0072 34.566 35.5738 37.6269 31.0894C37.7293 30.894 37.6083 30.5125 37.7665 30.2334Z" fill="#4633FF"/>
</svg>
