<svg width="86" height="650" viewBox="0 0 86 650" fill="none" xmlns="http://www.w3.org/2000/svg">
<path d="M83.5503 22.1889C83.2338 21.197 82.8961 20.1841 82.4951 19.2133C82.0942 18.2425 81.693 17.2084 81.2498 16.2377C80.8067 15.2669 80.258 14.3173 79.7305 13.3043C79.2029 12.2913 77.9789 10.7719 77.0925 9.52674C74.5165 6.56513 71.5068 4.01078 68.1657 1.95055L65.401 0.114551C65.1478 -0.202004 65 0.220079 64.8312 0.388908L64.3036 1.04311L63.2484 2.3304L59.0277 7.64855L56.9173 10.3287C56.2164 11.2787 55.5887 12.2804 55.0393 13.3254C54.3007 14.5916 53.6043 15.8367 52.929 17.0607C51.7207 19.2272 50.6218 21.4529 49.6367 23.7295C45.2471 33.3738 43.3055 44.7065 41.6172 53.8443C38.0718 73.3441 37.7975 92.8438 37.3965 111.879C37.2277 121.397 37.1433 130.872 36.6368 140.137C36.1303 149.401 35.455 158.771 34.5264 168.036C32.6098 185.902 29.6006 203.634 25.5154 221.133C23.5739 229.257 21.4422 237.361 19.0153 245.381C17.8562 245.296 16.6923 245.296 15.5332 245.381C14.2348 245.773 12.9932 246.334 11.84 247.048L12.009 246.942C10.5241 247.819 9.19132 248.931 8.06268 250.235L6.31091 252.704C5.74112 253.548 5.21372 254.476 4.66503 255.363C4.10146 256.303 3.60756 257.283 3.18762 258.296L2.49129 259.794L1.94258 261.462C1.55126 262.536 1.23381 263.636 0.992763 264.754L0.634167 266.379C0.504644 266.872 0.405938 267.372 0.338686 267.877C-0.157941 271.12 -0.108122 274.422 0.486297 277.648C0.67623 278.556 0.992794 279.526 1.28824 280.455C1.69941 281.523 2.21567 282.548 2.82902 283.515C4.38375 285.934 6.73512 287.733 9.47646 288.601C10.6631 288.911 11.8807 289.088 13.1065 289.128H13.5918L15.3856 288.917L16.4619 288.728L17.0106 288.622L17.7492 288.411L18.4877 288.158C18.6256 288.112 18.7598 288.055 18.8888 287.989L19.5007 287.714C19.8925 287.503 20.273 287.27 20.6403 287.018C21.2537 286.578 21.801 286.052 22.2654 285.456L22.3919 285.288L22.6873 286.258L24.7977 293.18C26.085 297.823 27.267 302.508 28.3855 307.193C32.5634 326.165 35.4401 345.4 36.9956 364.764C39.106 390.531 39.3804 416.552 39.4015 442.678C39.4226 468.805 39.5281 495.015 40.1401 521.205C40.5621 539.101 40.4777 557.081 40.1401 575.125L39.6758 602.158L39.4437 615.686C39.4437 617.796 39.4437 620.328 39.4437 622.734C39.5139 625.199 39.7181 627.657 40.0556 630.1C40.5223 634.006 41.7103 637.791 43.5588 641.263C45.0815 644.239 47.3967 646.737 50.2488 648.481C51.343 649.127 52.5322 649.597 53.7729 649.874C54.7222 650.042 55.694 650.042 56.6432 649.874C57.31 649.771 57.938 649.495 58.464 649.072C58.9901 648.65 59.3955 648.097 59.6398 647.468C59.7953 646.912 59.8113 646.327 59.6861 645.763C59.561 645.2 59.2986 644.676 58.9223 644.239C58.3103 643.078 57.403 642.129 56.6432 640.736C54.7498 637.433 53.4968 633.803 52.9501 630.036C52.4971 627.004 52.2712 623.943 52.2746 620.877C52.2746 617.817 52.4012 614.208 52.4645 610.853L52.8445 590.383C53.0696 576.721 53.2313 563.06 53.3298 549.399C53.5197 521.965 53.5199 494.72 53.4777 467.369C53.4777 455.53 53.4777 440.378 53.4777 426.893C53.4777 413.408 53.2242 401.442 53.0132 396.187C53.0132 394.077 52.6546 391.966 52.6335 390.51C52.146 370.842 50.4616 351.221 47.5897 331.758C46.9355 326.777 45.9226 321.797 45.0362 316.816C44.1499 311.836 42.9258 306.877 41.8284 301.917C39.5044 292.067 36.6871 282.34 33.387 272.773L32.2051 269.439L31.593 267.751L31.2978 266.927L30.7702 265.619L28.6598 260.217L30.3902 255.025C32.8804 247.428 35.1807 239.746 37.2277 232.001C45.2056 202.212 49.7653 171.612 50.8186 140.791C51.304 126.019 50.8186 111.394 51.0296 96.98C50.8634 82.7668 51.8798 68.5644 54.0684 54.5196C55.212 47.6804 56.9634 40.9569 59.302 34.429C60.4556 31.2123 61.7728 28.0568 63.2484 24.9746C64.0292 23.4551 64.8946 21.999 65.6965 20.5006L66.3508 19.2766L66.7728 18.6435C67.0049 18.3059 67.237 17.9682 67.4691 17.6728C67.7013 17.3773 67.7437 17.6727 67.9125 17.7783C68.0816 17.9023 68.2371 18.0438 68.3767 18.2004C68.6539 18.4744 68.908 18.7708 69.1364 19.0867L69.453 19.551L69.6006 19.762L69.9806 20.4162C72.2953 24.5112 73.9409 28.9496 74.8554 33.5638C74.8554 33.6904 74.8554 33.9647 74.8554 34.0914C75.0664 35.7375 75.3619 36.3916 75.9528 36.8348C76.5437 37.278 77.198 37.4046 77.6201 38.1221C79.3084 41.4354 80.6801 42.8915 82.6639 40.4435C83.9923 38.5213 84.806 36.2908 85.0275 33.9647C85.4503 29.978 84.9448 25.9476 83.5503 22.1889Z" fill="black"/>
</svg>
