<svg width="61" height="142" viewBox="0 0 61 142" fill="none" xmlns="http://www.w3.org/2000/svg">
<path fill-rule="evenodd" clip-rule="evenodd" d="M17.9179 83.5819C17.9404 83.3201 17.9594 83.0985 17.9754 82.9248C17.9887 82.7586 17.9284 82.5938 17.8723 82.4403C17.8175 82.2902 17.7666 82.1511 17.7925 82.0324C18.0798 80.5461 18.3113 79.0226 18.5461 77.477C18.7599 76.07 18.9764 74.6446 19.2405 73.2122C19.7214 70.2008 20.4166 67.1737 21.2687 64.2667C21.5091 63.4995 21.6764 62.6958 21.8071 61.8816C21.8405 61.6732 21.8719 61.4638 21.9034 61.2541C21.9938 60.6505 22.0847 60.0443 22.2261 59.452C22.8834 58.5974 22.9787 57.5528 23.0746 56.5031C23.1256 55.9448 23.1767 55.385 23.3126 54.8515C24.5681 49.6293 27.0149 44.7796 29.469 39.9153C29.6613 39.5342 29.8536 39.153 30.0454 38.7716C33.3628 32.2032 37.1593 25.7851 41.0018 19.2892C42.1725 17.31 43.3476 15.3236 44.5146 13.3234C44.7703 12.885 45.1308 12.5157 45.4904 12.1475C46.5647 11.0473 47.6309 9.95538 45.8685 7.05014C45.8372 7.00317 45.7953 6.91444 45.7744 6.86747C45.4372 6.13087 44.5356 5.49564 43.6362 4.86195C43.1974 4.55277 42.7591 4.24396 42.3871 3.92392C37.2173 -0.517497 35.0427 -1.09159 34.4102 1.71104C34.2849 2.25294 33.818 2.59754 33.3564 2.93818C33.2979 2.98138 33.2394 3.02452 33.1818 3.068C32.1169 3.86424 30.9467 5.50537 30.1209 6.66354C30.0265 6.79589 29.9367 6.92194 29.852 7.0397C29.3447 7.73603 29.0712 8.63497 28.8032 9.51556C28.5409 10.3774 28.2839 11.2217 27.8185 11.8412C26.5501 13.521 25.2019 15.1667 23.8463 16.8215C20.9226 20.3905 17.9642 24.0018 15.6963 28.0882C13.7622 31.5327 12.2463 35.2487 10.8663 39.0064C10.0111 41.3536 9.2328 43.7331 8.45461 46.1122C7.98175 47.5578 7.50893 49.0033 7.01894 50.4414C6.92125 50.7405 6.82347 51.0395 6.72571 51.3385C5.48952 55.1188 4.25533 58.893 3.21866 62.8106C3.02582 63.5142 2.8612 64.2249 2.69641 64.9363C2.61552 65.2855 2.53458 65.6349 2.45025 65.9838L2.0791 67.5756L1.77592 69.183C1.72866 69.4445 1.68016 69.7059 1.63162 69.9674C1.48152 70.7764 1.33115 71.5868 1.21659 72.4032C1.07546 73.4888 0.944772 74.5691 0.819316 75.6547C0.348855 80.498 -0.0850141 85.3621 0.0143053 90.2785C0.124079 95.1844 0.85068 100.148 2.57047 104.84C2.87366 105.643 3.13503 106.447 3.37026 107.256C3.43299 107.458 3.49669 107.66 3.5604 107.862C3.75153 108.468 3.94265 109.074 4.10731 109.688C4.5358 111.332 4.96429 112.98 5.39278 114.629L5.39324 114.631L5.69642 115.883C5.75738 116.143 5.8341 116.396 5.91086 116.65C5.95916 116.81 6.00747 116.969 6.05188 117.131L6.77325 119.636C6.94607 120.301 7.18365 120.944 7.42228 121.59C7.48682 121.764 7.55143 121.939 7.61486 122.115C7.91804 122.939 8.23168 123.759 8.561 124.573C9.16215 125.893 10.5213 126.52 12.3247 126.373C14.1386 126.233 16.4177 125.314 19.0261 123.686C23.7095 120.727 23.0947 118.913 22.6806 117.692C22.6528 117.61 22.6259 117.531 22.6016 117.454C21.53 113.446 20.5368 109.594 19.6743 105.669C18.8275 101.75 18.08 97.7678 17.7193 93.6604C17.5782 91.886 17.505 89.6052 17.6304 87.5541C17.6513 87.0427 17.6723 86.5521 17.6932 86.0824C17.7173 85.7759 17.746 85.4785 17.7732 85.1962C17.7873 85.0506 17.8009 84.9091 17.8134 84.7724C17.8545 84.3205 17.8891 83.9181 17.9179 83.5819ZM46.5258 111.466C46.5246 111.122 46.5236 110.843 46.5122 110.654C46.5095 110.544 46.4321 110.441 46.3604 110.346C46.2927 110.255 46.2302 110.172 46.2403 110.096C46.4074 108.488 46.4492 106.818 46.4914 105.129C46.5484 102.854 46.6062 100.542 46.9722 98.2957C47.0927 97.6584 47.0447 96.9907 46.9966 96.3191C46.9676 95.9159 46.9386 95.5113 46.9458 95.1111C47.41 94.5367 47.2836 93.8444 47.1562 93.1466C47.0893 92.7801 47.0222 92.4121 47.0401 92.0589C47.1554 88.4569 48.5098 85.1234 49.8374 81.8562C49.8947 81.715 49.9521 81.5739 50.0092 81.4329C52.2988 75.8642 55.4979 70.7495 59.1414 65.9793C59.3304 65.7356 59.6116 65.5787 59.8911 65.4228C60.1683 65.2682 60.4438 65.1145 60.626 64.8781C61.018 64.424 61.0337 63.6307 60.0353 61.7362C60.0091 61.6892 59.9725 61.6057 59.9569 61.564C59.6733 60.8824 58.9302 60.0744 58.1876 59.267C57.8214 58.8688 57.4553 58.4707 57.1446 58.0881C55.017 55.4368 53.522 53.7928 52.44 53.1039C51.3631 52.4149 50.694 52.6759 50.3229 53.7562C50.1921 54.1481 49.792 54.3002 49.3929 54.452C49.3136 54.4822 49.2343 54.5123 49.1572 54.5443C48.0699 54.9775 46.7997 56.2614 46.0731 57.0495C45.6183 57.5192 45.3726 58.2029 45.1426 58.8657L45.1225 58.9293C44.9156 59.5851 44.7169 60.2152 44.3219 60.6297C43.7731 61.2025 43.2169 61.7738 42.6583 62.3474C41.456 63.5822 40.2427 64.8283 39.0684 66.1254C37.3957 68.046 35.8066 70.0867 34.7036 72.3674C33.3863 74.9978 32.5917 77.8474 31.9645 80.697C31.5831 82.4506 31.294 84.21 31.007 85.9573C30.8259 87.0598 30.6455 88.1575 30.4433 89.2458C30.3813 89.6096 30.319 89.9731 30.2568 90.3364C29.8045 92.975 29.3542 95.6024 29.0372 98.254C28.7026 101.271 28.4831 104.313 28.619 107.351C28.6493 108.003 28.6763 108.656 28.7033 109.309C28.8159 112.034 28.9286 114.76 29.2828 117.476C29.7167 120.832 30.5792 124.167 32.1945 127.225C32.4767 127.747 32.7172 128.274 32.9263 128.812C33.1563 129.344 33.3602 129.881 33.5379 130.429C33.8724 131.531 34.1861 132.642 34.4475 133.78C34.5795 134.411 34.7305 135.036 34.8822 135.665C35.0067 136.182 35.1318 136.7 35.2472 137.225C35.5243 138.378 35.8745 139.516 36.2404 140.648C36.575 141.567 37.7093 141.906 39.403 141.619C41.1019 141.337 43.3705 140.424 46.0731 138.952C50.9124 136.283 50.6641 134.968 50.4961 134.079C50.4844 134.018 50.4732 133.958 50.464 133.9C50.0877 131.004 49.5231 128.331 48.8958 125.68C48.7053 124.871 48.5073 124.064 48.3093 123.256C47.8608 121.428 47.4116 119.596 47.0453 117.731C46.9395 117.285 46.8781 116.777 46.8141 116.25C46.7959 116.1 46.7775 115.948 46.7578 115.795C46.6585 115.106 46.6219 114.386 46.5906 113.713C46.5308 112.858 46.528 112.064 46.5258 111.466Z" fill="#4633FF"/>
</svg>
