<svg width="270" height="476" viewBox="0 0 270 476" fill="none" xmlns="http://www.w3.org/2000/svg">
<path d="M269.838 180.351C269.572 164.879 269.156 149.354 268.39 133.744C267.623 118.134 266.484 102.438 264.567 86.6044C263.502 78.6715 262.437 70.7279 260.787 62.6779C259.211 54.4008 257.076 46.2398 254.398 38.251C252.937 33.9222 251.179 29.6991 249.138 25.6116C248.02 23.396 246.791 21.2387 245.454 19.1482C245.134 18.6158 244.751 18.0833 244.336 17.4764L243.739 16.6246C243.526 16.3264 243.377 16.0922 243.09 15.7195C242.049 14.3408 240.941 13.0153 239.768 11.7477C235.235 6.61289 229.321 2.89058 222.73 1.02503C216.176 -0.698883 209.237 -0.239102 202.967 2.33473C199.8 3.61792 196.814 5.31121 194.087 7.37129C192.706 8.40476 191.38 9.51019 190.115 10.6829L189.189 11.5667L188.72 12.0139L188.326 12.4185L187.048 13.8028C185.281 15.6556 183.854 17.4977 182.353 19.3611C180.851 21.2246 179.584 23.0667 178.413 24.9089C173.803 31.9651 169.69 39.3337 166.104 46.9612C159.065 61.5705 153.326 76.052 147.469 90.246L146.862 91.7474C145.011 90.5203 143.059 89.4517 141.027 88.5529C134.192 85.5193 126.552 84.8051 119.273 86.5192C111.899 88.399 105.193 92.2921 99.9038 97.7636C99.2117 98.4451 98.5515 99.1159 97.87 99.8933L96.145 101.863C95.2719 102.928 94.3881 103.993 93.6107 105.058C92.0834 107.114 90.6618 109.246 89.3515 111.446C89.1705 111.745 89.0001 112.043 88.8297 112.341H88.1802C86.7459 112.306 85.3134 112.464 83.9209 112.809C82.703 113.098 81.5183 113.512 80.3857 114.045C79.3362 114.519 78.3251 115.075 77.3616 115.706C73.4243 118.358 70.0364 121.746 67.3843 125.683C66.5537 126.897 65.7551 128.185 64.9671 129.548C61.79 128.648 58.4925 128.246 55.1921 128.356C54.0298 128.402 52.871 128.512 51.7208 128.686L51.5611 126.897C51.4866 126.13 51.3907 124.459 51.3375 123.617C50.1236 103.301 45.875 110.211 43.1491 103.897C36.9625 89.5219 32.5009 87.7543 29.3064 100.223C27.1768 108.742 25.5583 123.958 24.8342 146.266L23.9611 147.437C23.4713 148.119 22.8962 148.864 22.5981 149.407C21.8527 150.568 21.0541 151.75 20.4046 152.91C19.755 154.071 19.0416 155.232 18.4559 156.382C17.8703 157.532 17.2421 158.692 16.7097 159.842C14.5918 164.275 12.7393 168.83 11.162 173.483C8.23924 182.233 5.95456 191.183 4.32587 200.263C3.50596 204.671 2.82448 209.197 2.26012 213.637C1.69577 218.077 1.26979 222.507 0.939696 226.915C0.279509 235.732 -0.0327771 244.506 0.00271682 253.238C0.000221517 270.846 1.38876 288.428 4.15546 305.818C4.93278 310.248 5.74204 314.688 6.81751 319.203C7.05177 320.332 7.36059 321.471 7.64809 322.61C7.9356 323.75 8.21242 324.878 8.55316 326.028C8.8939 327.178 9.18141 328.318 9.55409 329.489L10.3208 331.896C10.6402 332.96 10.9703 333.876 11.3856 334.834L13.6324 340.499C14.0108 341.422 14.4374 342.325 14.9102 343.204L16.2412 345.866C16.6719 346.741 17.1592 347.588 17.7 348.4L19.2227 350.849C19.7174 351.643 20.2727 352.398 20.8838 353.107L22.6088 355.236C23.1944 355.939 23.8546 356.514 24.4722 357.153L24.6745 357.366C24.7384 358.74 24.7916 360.124 24.8449 361.487C24.9194 363.201 24.9833 364.894 25.0472 366.587C25.1111 368.28 25.2175 370.048 25.3027 371.762C25.4944 375.17 25.718 378.51 25.9736 381.782C26.4847 388.313 27.1449 394.503 27.9542 400.353C28.4546 403.877 29.019 407.476 29.8069 411.203C30.5896 415.277 31.657 419.29 33.0014 423.214C33.9363 425.904 35.131 428.497 36.5685 430.956L37.3352 432.18C37.4843 432.382 37.5801 432.553 37.7611 432.798L38.2935 433.522C38.6555 433.99 39.0282 434.459 39.3583 434.917C39.6884 435.374 40.4231 435.981 40.913 436.556L41.7648 437.355L41.9884 437.547L42.2759 437.792L42.8829 438.26C43.7011 438.88 44.5544 439.453 45.4384 439.974C46.5887 440.594 47.7848 441.124 49.0162 441.561C49.325 441.668 49.6125 441.763 49.9533 441.859L51.0181 442.125C51.7421 442.285 52.4875 442.402 53.2222 442.498C54.6758 442.674 56.1451 442.674 57.5986 442.498C59.0065 442.368 60.3957 442.082 61.7408 441.646C62.3903 441.433 63.0185 441.199 63.6468 440.933L64.1153 440.741L64.4986 440.55L65.2547 440.145C66.2051 439.645 67.1131 439.068 67.9699 438.42C68.332 438.132 68.7047 437.845 69.0348 437.547L69.5672 437.089C69.7375 436.94 69.844 436.833 69.9825 436.695C70.5255 436.173 71.0473 435.63 71.5478 435.076C72.3121 434.197 73.0233 433.272 73.6774 432.308C74.4582 431.122 75.1693 429.892 75.807 428.624L76.7228 432.723L77.7237 437.206L78.2241 439.453L78.9056 441.476L81.6209 449.611L81.9616 450.676C82.0894 450.995 82.2492 451.251 82.3876 451.538L83.2607 453.231L84.9857 456.618L85.8588 458.311L86.2955 459.163L86.5084 459.578L86.764 459.908L88.7765 462.527L90.7996 465.147L91.3108 465.807L91.8432 466.339L92.908 467.404C94.3455 468.727 95.8913 469.928 97.5293 470.993C100.96 473.194 104.83 474.619 108.87 475.167C111.125 475.46 113.408 475.46 115.663 475.167C117.74 474.909 119.78 474.412 121.743 473.687C125.443 472.304 128.844 470.225 131.763 467.564C135.131 464.53 137.96 460.947 140.133 456.969C141.489 454.719 142.681 452.374 143.7 449.952L144.552 448.12C144.807 447.45 145.041 446.747 145.286 446.055L146.734 441.923L147.459 439.857L148.044 437.632L148.289 436.716L148.555 436.982C148.96 437.387 149.343 437.802 149.769 438.186L151.058 439.25C152.93 440.873 154.964 442.3 157.127 443.51L157.425 444.404L158.085 446.331L158.82 448.131C159.321 449.313 159.778 450.58 160.311 451.677L161.919 454.978C162.451 456.043 163.058 456.969 163.633 457.97C163.931 458.438 164.208 458.971 164.506 459.407L165.433 460.696C167.603 463.873 170.296 466.66 173.397 468.937C174.105 469.465 174.845 469.949 175.612 470.386L176.762 471.046L177.976 471.621L178.583 471.908L179.233 472.121L180.542 472.547C181.469 472.824 182.395 473.112 183.417 473.388C184.918 473.65 186.442 473.75 187.964 473.687C189.432 473.622 190.888 473.401 192.309 473.026C194.843 472.343 197.254 471.265 199.454 469.832C201.682 468.38 203.727 466.664 205.544 464.721C207.602 462.486 209.428 460.05 210.996 457.448C214.713 451.076 217.6 444.256 219.589 437.153C220.175 435.257 220.654 433.255 221.176 431.286L221.932 428.315L222.581 425.28C223.018 423.257 223.455 421.244 223.838 419.189L224.296 416.612L224.605 414.834C227.714 395.912 229.024 377.406 229.843 359.006C230.411 345.653 230.653 332.293 230.567 318.926L231.27 318.862C232.021 318.776 232.768 318.652 233.506 318.489C234.227 318.356 234.939 318.174 235.636 317.946C238.477 317.094 241.158 315.778 243.569 314.049C244.791 313.182 245.961 312.244 247.072 311.238C247.626 310.716 248.137 310.173 248.691 309.609C249.247 309.066 249.766 308.486 250.245 307.873C254.399 302.691 257.64 296.84 259.829 290.57C260.382 288.962 261 287.28 261.5 285.736L262.448 282.36C263.087 280.231 263.513 278.101 264.013 275.971C265.754 267.835 267.016 259.605 267.793 251.321C268.613 243.239 269.103 235.263 269.423 227.331C270.125 211.529 270.083 195.876 269.838 180.351ZM55.6394 422.064C55.638 422.089 55.638 422.114 55.6394 422.139V422.054V422.064ZM195.301 320.843C195.088 322.972 194.864 325.198 194.641 327.327C193.906 333.589 193.182 339.573 192.341 345.014C190.4 358.624 187.508 372.081 183.684 385.285C183.023 387.5 182.314 389.683 181.554 391.834C180.415 382.027 179.616 372.114 179.158 362.2C178.722 351.733 178.519 340.978 178.434 330.256C178.253 308.757 178.53 286.96 177.997 264.844C177.87 259.527 177.685 254.203 177.444 248.872C178.757 252.705 180.113 256.546 181.511 260.393C183.08 264.652 184.741 268.933 186.495 273.235C188.294 277.494 190.115 281.817 192.266 286.183C192.809 287.248 193.331 288.313 193.917 289.463L194.396 290.389C194.836 300.54 195.137 310.691 195.301 320.843ZM118.517 161.45C118.389 160.577 118.261 159.704 118.123 158.852C118.336 158.458 118.538 158.064 118.751 157.681C119.294 156.723 119.89 155.754 120.391 155.008C120.445 154.951 120.492 154.886 120.529 154.817L120.593 154.689V154.614C120.647 154.508 120.727 154.417 120.826 154.349C120.925 154.282 121.039 154.242 121.158 154.231C121.239 154.232 121.318 154.25 121.392 154.284C120.423 156.669 119.443 159.054 118.474 161.45H118.517ZM131.955 249.415C134.681 239.235 137.396 229.183 140.196 219.217C140.857 224.669 141.442 230.163 141.858 235.732C143.38 254.824 143.732 274.374 143.881 294.19C143.114 292.061 142.305 289.931 141.421 287.738C140.697 285.991 139.898 284.234 139.078 282.467C138.259 280.699 137.353 278.91 136.278 277.068C135.202 275.226 134.063 273.384 132.849 271.531C131.635 269.678 130.219 267.9 128.814 266.207C128.452 265.781 128.097 265.366 127.749 264.961C129.133 259.772 130.521 254.59 131.912 249.415H131.955ZM117.921 406.145L117.708 407.838L117.548 408.967L117.228 411.16L117.101 411.927C116.922 412.957 116.691 413.977 116.408 414.983C116.134 415.997 115.745 416.976 115.248 417.901C114.994 418.36 114.675 418.779 114.3 419.147C113.932 419.534 113.428 419.763 112.895 419.786C112.367 419.748 111.875 419.508 111.521 419.115C111.168 418.732 110.871 418.302 110.637 417.837C110.188 416.89 109.832 415.902 109.572 414.887C109.306 413.823 109.104 412.843 108.933 411.767L108.55 408.988L107.879 402.216C107.091 393.037 106.761 383.667 106.729 374.254C106.697 364.841 106.964 355.375 107.528 345.919C107.752 341.99 108.039 338.061 108.358 334.142C108.422 334.398 108.476 334.653 108.529 334.898C110.85 345.312 113.331 355.747 116.153 366.193L117.218 370.123L118.346 374.041L119.486 377.97L119.784 378.95C119.646 386.936 119.177 394.922 118.346 402.759L117.921 406.145ZM231.909 248.67C231.664 251.395 231.302 253.994 231.057 256.475C230.894 257.71 230.734 258.924 230.578 260.116L230.355 261.884C230.269 262.459 230.174 263.013 230.088 263.566C229.907 264.631 229.737 265.76 229.567 266.825C229.396 267.889 229.162 268.826 228.97 269.774C228.97 269.987 228.885 270.179 228.842 270.381C227.937 257.667 226.713 244.964 224.977 232.239C223.508 221.644 221.783 211.06 219.493 200.455C217.274 189.629 214.357 178.959 210.762 168.51C208.878 163.079 206.717 157.748 204.288 152.538C203.021 149.876 201.679 147.214 200.135 144.53C198.572 141.747 196.852 139.056 194.981 136.47C194.481 135.799 194.012 135.128 193.469 134.457L192.404 133.19C192.011 132.69 191.606 132.221 191.222 131.795L188.816 129.24C188.017 128.366 187.112 127.653 186.26 126.844C182.856 123.787 178.918 121.383 174.643 119.752L173.951 119.518C178.061 109.519 182.321 99.1479 186.729 88.4997C190.083 80.4816 193.512 72.4316 197.186 64.6797C199.028 60.8145 200.934 57.0344 202.914 53.4034C204.797 49.9557 206.851 46.6045 209.069 43.3622L210.645 41.2325L212.21 39.3051C212.721 38.6875 213.222 38.2403 213.711 37.644C214.201 37.0477 213.946 37.4311 213.988 37.3566C214.031 37.282 213.988 37.3566 213.988 37.3566C214.07 37.2906 214.171 37.2531 214.276 37.2501C214.376 37.2676 214.467 37.3205 214.531 37.3991L214.648 37.5696L215.117 38.2403C215.933 39.5285 216.676 40.8617 217.342 42.2334C218.943 45.5782 220.271 49.0466 221.314 52.6048C221.602 53.5631 221.932 54.4575 222.198 55.4585L222.986 58.4293C223.242 59.4196 223.54 60.3779 223.763 61.4108L224.445 64.4774C226.276 72.6659 227.639 81.1951 228.704 89.7136C229.769 98.2321 230.536 106.825 231.174 115.269C231.813 123.713 232.239 132.029 232.591 140.154C233.283 156.371 233.581 171.864 233.783 185.941C234.273 213.882 233.304 235.796 231.877 248.67H231.909Z" fill="#4633FF"/>
</svg>
