<svg width="122" height="392" viewBox="0 0 122 392" fill="none" xmlns="http://www.w3.org/2000/svg">
<path d="M119.201 268.249L119.561 203.989C119.561 201.249 119.561 198.519 119.561 195.789C120.101 181.123 120.605 166.456 121.071 151.789C121.448 141.681 120.976 131.559 119.661 121.529C119.661 106.029 119.685 90.5261 119.731 75.0194C119.731 70.1694 119.651 65.0194 119.501 59.6294C119.501 58.2694 119.401 56.8894 119.351 55.4994C119.301 54.1094 119.211 52.5994 119.141 51.1394C118.981 48.1394 118.771 45.1394 118.431 41.8094C118.251 40.1094 118.061 38.3594 117.741 36.2194C117.571 35.1294 117.401 34.0094 117.101 32.5094L116.851 31.3094L116.511 29.8794L116.291 29.0094L116.031 28.0794L115.671 26.9095L115.471 26.2895L115.191 25.4794L114.901 24.6795L114.521 23.6795L114.011 22.4994L113.751 21.9195L113.441 21.2594C113.131 20.6294 112.801 19.9994 112.441 19.3794L111.921 18.4594C111.691 18.0794 111.671 18.0394 111.251 17.3794C110.565 16.2991 109.824 15.2544 109.031 14.2494C108.631 13.7394 108.241 13.2494 107.811 12.7694C106.988 11.829 106.116 10.9311 105.201 10.0794C104.287 9.21784 103.329 8.40351 102.331 7.63944C101.01 6.62029 99.6159 5.69788 98.1613 4.87943C96.1236 3.71687 93.9808 2.74923 91.7613 1.98941C89.4223 1.18231 87.0061 0.619256 84.5512 0.309358C81.5651 -0.0782395 78.543 -0.101691 75.5512 0.239412C73.0122 0.532333 70.5095 1.08182 68.0813 1.87943C64.6758 3.01552 61.45 4.63186 58.5013 6.67948C57.1478 7.62383 55.8553 8.65249 54.6313 9.75943C54.0713 10.2794 53.5213 10.8194 52.9813 11.3794C51.9123 12.5027 50.9106 13.6882 49.9813 14.9295C49.5213 15.5395 49.0713 16.1694 48.6413 16.8094C48.2113 17.4494 48.2213 17.4694 48.0013 17.8094C47.7813 18.1494 47.4513 18.8094 47.1813 19.2294C46.5413 19.2294 45.8913 19.2294 45.2313 19.2294C41.4885 19.358 37.8009 20.1714 34.3513 21.6294C31.9391 22.6739 29.6679 24.0178 27.5913 25.6294C26.2596 26.6764 25.0154 27.8302 23.8713 29.0794C23.1987 29.8127 22.5645 30.5805 21.9713 31.3794C21.3513 32.1994 20.8313 32.9794 20.6013 33.3794C20.3713 33.7794 19.9813 34.3794 19.6913 34.8894C19.4013 35.3994 19.2113 35.7694 19.0413 36.0994L18.5413 37.0994C18.3613 37.4794 18.2313 37.7694 18.1413 37.9794L17.8313 38.7294L17.5413 39.4494L17.3313 40.0094C16.7613 41.5994 16.5213 42.5194 16.2513 43.4894L15.9413 44.7294L15.6913 45.8194C15.3513 47.3994 15.1112 48.7095 14.9212 49.9095C13.5314 50.1676 12.2107 50.7126 11.0433 51.5098C9.87593 52.307 8.88755 53.3389 8.14127 54.5395C3.14127 61.7995 1.74125 77.4294 3.36125 102.189C4.07125 112.959 2.89125 124.349 1.99125 135.349C0.99125 148.079 0.401294 165.159 0.161294 182.279C-0.0787058 199.399 0.00126731 216.549 0.0712673 229.409C0.141267 244.969 1.4113 261.259 2.7913 277.209C3.4613 285.209 4.1813 293.059 4.7313 300.729C5.0213 304.559 5.27128 308.339 5.46128 312.039C5.55128 313.909 5.63128 315.749 5.71128 317.579C5.79128 319.409 5.84129 321.339 5.91129 323.179C6.03129 327.179 6.17127 331.119 6.45127 335.439C6.60127 337.649 6.76125 339.839 7.11125 342.709L7.27128 343.859L7.46128 345.159L7.58128 345.859L7.74125 346.699C7.83125 347.199 8.02126 348.019 8.19126 348.699C8.29126 349.119 8.44127 349.699 8.57127 350.139L8.83128 350.979L9.20127 352.099L9.40128 352.649L9.65128 353.299C9.91128 353.939 10.1813 354.569 10.4813 355.189C10.8722 356.038 11.3061 356.865 11.7813 357.669C12.4958 358.888 13.2909 360.057 14.1613 361.169C15.1189 362.391 16.1686 363.538 17.3012 364.599C18.5239 365.734 19.8311 366.773 21.2113 367.709C21.3113 367.789 21.4713 367.889 21.6513 368.009C21.8913 368.429 22.1413 368.859 22.3913 369.269C22.7713 369.879 23.0913 370.379 23.5613 371.059C24.2613 372.059 25.0213 373.059 25.8213 373.939C26.9246 375.213 28.1212 376.403 29.4013 377.499C31.2966 379.142 33.3695 380.567 35.5813 381.749C39.1257 383.656 42.9776 384.926 46.9613 385.499C51.7916 386.179 56.7108 385.839 61.4013 384.499C63.0653 384.017 64.69 383.409 66.2613 382.679C66.4313 382.869 66.5813 383.069 66.7513 383.259C67.2013 383.749 67.2813 383.889 68.2513 384.829C69.0565 385.587 69.9046 386.299 70.7913 386.959C71.7443 387.664 72.7469 388.299 73.7913 388.859C75.5499 389.807 77.4123 390.549 79.3413 391.069C81.3195 391.617 83.359 391.913 85.4113 391.949C87.7404 391.989 90.0644 391.716 92.3213 391.139C94.1222 390.674 95.8637 390.003 97.5113 389.139C98.8546 388.455 100.136 387.655 101.341 386.749C102.242 386.07 103.097 385.332 103.901 384.539C104.971 383.479 105.951 382.332 106.831 381.109C107.231 380.539 107.311 380.409 107.561 380.029C107.811 379.649 107.971 379.379 108.161 379.029C108.351 378.679 108.541 378.359 108.721 378.029C108.901 377.699 109.071 377.369 109.131 377.229C109.321 376.839 109.511 376.439 109.681 376.039L109.941 375.439L110.151 374.899L110.441 374.119C110.611 373.629 110.821 372.989 110.911 372.699L111.231 371.579L111.461 370.679L111.661 369.849L111.791 369.219L112.041 367.949L112.161 367.329L112.241 366.819L112.401 365.819C112.521 365.099 112.591 364.509 112.671 363.909C112.841 362.669 112.941 361.609 113.061 360.499C113.181 359.389 113.271 358.269 113.351 357.199L118.121 356.199L119.621 355.889H119.911L119.831 355.279C119.751 354.659 119.661 353.799 119.581 352.879C119.501 351.959 119.411 350.959 119.351 349.879L119.171 346.569C118.961 341.909 118.851 336.959 118.801 331.889C118.711 321.769 118.801 311.099 118.891 300.359L119.201 268.249Z" fill="black"/>
</svg>
