<svg width="452" height="479" viewBox="0 0 452 479" fill="none" xmlns="http://www.w3.org/2000/svg">
<path d="M451.909 318.053C451.104 299.835 447.107 281.901 440.101 265.065C433.291 248.688 423.998 233.458 412.547 219.912C389.836 192.857 359.596 173.162 325.667 163.33C308.541 158.391 292.796 156.763 278.357 155.155L274.213 154.719C274.213 154.246 274.213 153.811 274.326 153.319C274.535 150.007 274.326 146.468 274.194 142.646C274.138 140.67 273.974 138.699 273.702 136.741C273.456 134.717 273.191 132.635 272.907 130.478C272.623 128.32 272.112 126.125 271.658 123.873C271.204 121.621 270.712 119.275 270.106 116.928C267.27 106.414 263.351 96.2223 258.411 86.517C257.238 84.1894 255.875 81.9185 254.626 79.5719L252.734 76.071C252.091 74.8977 251.353 73.7812 250.652 72.6268L246.432 65.7195L241.758 58.9636C235.395 49.8273 228.039 41.4242 219.825 33.9082L216.173 30.5776L212.085 27.4173C209.303 25.2978 206.408 23.0648 203.191 21.021C196.46 16.6876 189.331 13.006 181.901 10.0261C165.942 3.6361 148.942 0.24251 131.753 0.0153422C114.425 -0.240448 97.2 2.70419 80.9417 8.70141C71.5001 12.2452 62.5116 16.8951 54.1642 22.5538L51.1553 24.2002L49.8117 24.9572C48.1653 25.5249 46.5378 26.1494 44.9292 26.8496C42.0887 28.0523 39.3378 29.4562 36.6973 31.0507C33.988 32.7022 31.3725 34.5028 28.8627 36.4441C23.9755 40.3313 19.612 44.8347 15.8809 49.8422C9.03804 59.1578 4.28714 69.8409 1.95283 81.1615C-0.226306 91.568 -0.584859 102.274 0.893085 112.803C1.23372 115.338 1.68784 117.855 2.25556 120.372C2.66306 124.785 3.36478 129.167 4.3561 133.486C5.40121 138.132 6.77355 142.698 8.4627 147.15C10.7983 156.587 14.2277 165.72 18.6816 174.362C26.1478 188.906 36.7243 201.628 49.6602 211.624C53.0518 214.212 56.604 216.582 60.2955 218.72C62.1879 219.723 64.0803 220.821 65.9727 221.71L71.4797 224.227C78.3641 227.089 85.44 229.467 92.6557 231.343C96.9893 232.478 101.153 233.462 105.146 234.37C106.192 235.798 107.033 237.365 107.643 239.026C108.24 240.687 108.516 242.447 108.457 244.211C108.236 246.981 107.631 249.707 106.659 252.31C105.192 256.314 103.473 260.22 101.512 264.006C99.3359 268.32 96.7243 273.089 93.9425 278.312C90.8469 284.07 88.0611 289.989 85.5969 296.044C84.1777 299.621 82.9522 303.273 81.9257 306.982C80.7964 311.219 80.0179 315.542 79.5981 319.907C78.6362 329.797 79.9636 339.775 83.4775 349.069C87.1067 358.453 92.9497 366.822 100.509 373.462L103.348 375.922L106.413 378.098L109.536 380.218C110.533 380.851 111.563 381.432 112.621 381.959C116.491 384.086 120.537 385.877 124.713 387.314C132.25 389.853 140.077 391.43 148.008 392.008C155.367 392.574 162.763 392.428 170.093 391.572C171.171 391.572 172.25 391.326 173.329 391.156C174.105 393.181 174.937 395.187 175.808 397.155C179.126 404.615 183.177 411.728 187.9 418.388C197.136 431.376 208.529 442.686 221.585 451.826C234.418 460.777 248.557 467.69 263.502 472.321C278.679 477.001 294.519 479.168 310.396 478.737C318.544 478.495 326.653 477.501 334.618 475.765C342.58 473.959 350.378 471.497 357.933 468.404C372.668 462.196 386.266 453.575 398.165 442.894C409.785 432.511 419.843 420.503 428.027 407.242C436.194 394.067 442.385 379.766 446.403 364.795C450.59 349.582 452.447 333.822 451.909 318.053ZM95.816 97.2281C95.0401 96.49 94.4346 95.6573 93.7344 94.9003C93.0342 94.1434 92.7125 93.5379 92.1826 92.8566C91.2042 91.4266 90.3192 89.9347 89.5332 88.3905C89.1358 87.5767 88.7574 86.7441 88.4167 85.9304C92.3312 87.9942 96.0112 90.4751 99.3926 93.3297C102.564 95.98 105.519 98.8781 108.23 101.997C109.574 103.568 110.842 105.176 112.015 106.785C113.377 108.677 114.797 110.569 116.178 112.821L117.427 114.714C113.642 111.932 109.574 109.037 105.77 106.141C102.23 103.428 98.9018 100.449 95.816 97.2281ZM120.588 148.626L119.982 148.455C126.019 146.563 130.277 143.649 132.642 139.58L133.532 141.056C136.124 145.2 138.83 149.477 141.764 153.792C134.345 152.051 127.249 150.423 120.588 148.626ZM317.114 344.546C314.351 342.919 311.304 340.97 307.652 338.623C303.999 336.276 300.214 333.703 295.9 331.053C293.61 329.672 291.453 328.309 288.841 326.928C287.573 326.228 286.4 325.546 285.056 324.865L280.912 322.859C279.587 322.178 278.017 321.553 276.522 320.967C275.027 320.38 273.55 319.718 271.904 319.169C269.803 318.488 267.741 317.788 265.621 317.182C266.719 311.789 267.949 305.828 268.99 299.375C268.99 299.072 269.103 298.731 269.141 298.409C276.711 301.816 283.486 304.844 289.503 307.871C292.001 309.083 294.14 310.294 296.354 311.467C297.508 312.054 298.36 312.678 299.401 313.359C300.442 314.041 301.463 314.533 302.258 315.138L304.851 316.917C305.74 317.504 306.365 318.128 307.141 318.715C308.533 319.823 309.866 321.004 311.134 322.254C311.72 322.84 312.174 323.484 312.723 324.146L313.537 325.017C313.802 325.3 313.896 325.509 314.105 325.755C314.818 326.73 315.45 327.762 315.997 328.839C317.236 331.328 318.097 333.988 318.552 336.731C319.058 339.744 319.173 342.81 318.892 345.852L317.114 344.546ZM298.947 222.089C301.199 222.657 303.583 223.111 305.759 223.735L312.174 225.628C316.436 227.093 320.607 228.812 324.664 230.775C330.071 233.403 335.277 236.426 340.239 239.821C334.809 237.05 329.216 234.611 323.491 232.516C317.379 230.264 311.361 228.39 305.494 226.687C294.897 223.622 284.678 221.01 275.216 218.436C283.637 219.458 291.623 220.556 298.947 222.089ZM227.584 146.96L227.035 146.79C226.562 145.144 226.07 143.478 225.597 141.794C226.278 143.497 226.865 145.238 227.584 146.96ZM154.253 329.218C150.511 329.132 146.823 328.296 143.41 326.758L143.107 326.625H142.975C142.975 326.625 142.823 326.625 142.975 326.625C143.126 326.625 142.975 326.625 142.88 326.625C142.785 326.625 142.88 326.625 142.88 326.625C142.88 326.625 142.88 326.625 142.766 326.625C142.653 326.625 142.766 326.625 142.766 326.512C142.741 326.412 142.741 326.308 142.766 326.209C142.903 324.917 143.196 323.646 143.637 322.424C145.805 316.626 148.438 311.013 151.509 305.638C154.594 299.791 158.36 293.13 162.069 284.973C162.561 288.758 162.921 292.657 163.129 296.65C163.659 306.433 163.526 317.466 163.734 329.312C160.578 329.584 157.403 329.553 154.253 329.218Z" fill="black"/>
</svg>
