<svg width="452" height="472" viewBox="0 0 452 472" fill="none" xmlns="http://www.w3.org/2000/svg">
<path d="M451.331 323.474C450.166 310.747 447.291 298.236 442.784 286.277C440.49 280.153 437.759 274.202 434.612 268.47C431.348 262.624 427.644 257.035 423.532 251.751C419.333 246.375 414.701 241.353 409.682 236.734C404.817 232.33 399.661 228.258 394.249 224.546C389.105 221.063 383.921 217.957 378.817 215.147C373.712 212.338 368.706 209.904 363.78 207.629C353.887 203.098 344.607 199.339 335.941 195.757C326.048 191.642 316.769 187.843 309.191 183.668C302.769 180.44 296.877 176.25 291.72 171.243C289.782 169.285 288.087 167.099 286.675 164.733C285.178 162.171 283.939 159.467 282.975 156.661C281.689 152.839 280.645 148.94 279.849 144.987C278.899 140.516 278.048 135.51 277.098 129.97C276.149 124.43 275.12 118.534 273.794 112.163C272.336 105.245 270.466 98.4197 268.195 91.7243C263.142 77.2611 255.595 63.7947 245.896 51.9353C227.014 28.7813 201.316 12.166 172.452 4.44967C157.787 0.511472 142.546 -0.827808 127.42 0.492536C112.42 1.90169 97.7759 5.8841 84.1286 12.265C57.4535 24.7269 35.3682 45.255 20.9926 70.9493C13.6893 83.9994 8.73358 98.2302 6.35113 112.994C4.06992 127.634 4.31091 142.557 7.0635 157.116C7.0635 157.433 7.20195 157.729 7.26131 158.046C6.62817 159.312 6.01477 160.598 5.48055 162.003C3.96454 165.702 2.76001 169.52 1.87954 173.419C1.40469 175.952 0.949669 178.504 0.573741 181.076L0.257224 184.915L0 188.555C0 190.969 -4.82784e-06 193.383 0.118709 195.797C0.237423 198.211 0.553965 200.526 0.830965 202.9C2.15513 211.869 4.82318 220.586 8.74524 228.76C11.4589 234.422 14.7333 239.797 18.5194 244.806C22.6086 250.298 27.2495 255.356 32.3693 259.903C33.6554 261.129 35.0206 262.277 36.4452 263.405C37.8698 264.532 39.235 265.7 40.7585 266.748C42.282 267.797 43.7856 268.925 45.2893 269.914L49.7016 272.704C55.5514 276.195 61.6257 279.295 67.8847 281.983C79.002 286.63 90.4094 290.549 102.035 293.716C112.284 296.605 121.227 299.019 128.033 301.195C135.908 303.602 143.638 306.462 151.182 309.763C157.404 312.435 163.203 316.001 168.396 320.348C170.541 322.275 172.483 324.417 174.193 326.739C176.096 329.454 177.752 332.334 179.14 335.345C180.731 338.922 182.131 342.581 183.334 346.307C184.62 350.264 185.788 354.458 186.935 358.89L188.914 366.053C189.626 368.566 190.259 370.999 191.07 373.631C192.554 378.775 194.394 384.256 196.59 389.835L198.351 394.049C198.985 395.494 199.717 396.978 200.33 398.422C201.675 401.37 203.337 404.14 204.92 406.95C208.212 412.465 211.944 417.705 216.079 422.62C220.148 427.466 224.566 432.009 229.296 436.213C233.983 440.322 238.948 444.104 244.155 447.53C254.419 454.308 265.528 459.709 277.197 463.596C288.825 467.536 300.905 469.989 313.148 470.897C325.657 471.854 338.237 471.102 350.543 468.661C363.325 466.113 375.638 461.608 387.048 455.306C398.698 448.754 409.192 440.331 418.111 430.376C426.766 420.566 433.902 409.515 439.282 397.591C444.513 385.956 448.159 373.672 450.124 361.067C452.119 348.638 452.525 336.005 451.331 323.474ZM166.101 146.372L163.311 146.135L160.699 145.858L155.555 145.284C152.429 144.789 149.125 144.394 146.434 143.761C143.743 143.127 141.191 142.435 138.658 141.782C136.627 141.074 134.644 140.235 132.722 139.269C131.216 138.583 129.778 137.755 128.429 136.796C131.733 136.163 134.562 134.818 137.115 134.303C138.793 133.854 140.498 133.51 142.219 133.274C143.862 133.017 145.504 132.661 147.562 132.226C152.588 131.034 157.755 130.548 162.915 130.781C165.018 130.892 167.105 131.203 169.148 131.711L168.673 136.796C168.317 140.259 168.02 143.484 167.723 146.471L166.101 146.372ZM338.573 326.224C340.986 326.838 343.341 327.352 345.656 327.787C345.28 328.5 344.845 329.172 344.488 329.885L343.559 331.171C343.293 331.611 342.974 332.016 342.609 332.378C341.475 333.835 340.143 335.127 338.652 336.216C338.322 336.436 338.005 336.674 337.702 336.928C337.322 337.106 336.953 337.304 336.594 337.522C336.218 337.764 335.812 337.957 335.387 338.096C334.986 338.312 334.57 338.497 334.141 338.65C332.253 339.314 330.305 339.791 328.324 340.074C326.277 340.262 324.217 340.262 322.17 340.074C318.84 339.732 315.66 338.517 312.95 336.552C312.804 336.472 312.665 336.379 312.535 336.275C312.535 336.157 312.337 336.058 312.238 335.939C312.139 335.82 311.802 335.642 311.525 335.286C310.906 334.605 310.331 333.884 309.804 333.129C309.09 332.198 308.43 331.227 307.826 330.221C307.509 329.667 307.192 328.955 306.856 328.242L306.361 327.293L305.867 326.185L304.838 323.909L303.829 321.317C303.493 320.486 303.136 319.537 302.8 318.547L301.751 315.599C300.465 311.642 299.159 307.804 297.794 303.886C309.529 314.307 323.47 321.937 338.573 326.204V326.224ZM273.438 395.791C264.914 390.065 257.858 382.412 252.841 373.453C252.307 372.345 251.753 371.256 251.179 370.168L249.557 366.389C249.042 365.024 248.508 363.738 248.013 362.313C247.519 360.889 247.064 359.622 246.589 358.158C246.846 358.653 247.064 359.128 247.301 359.622C251.22 367.389 256.179 374.584 262.042 381.011C268.564 387.97 276.242 393.747 284.736 398.086C292.808 402.233 301.491 405.065 310.457 406.475C323.483 408.583 336.807 407.909 349.554 404.496C345.065 406.479 340.365 407.946 335.545 408.869C313.927 412.743 291.65 408.045 273.438 395.771V395.791Z" fill="black"/>
</svg>
