<svg width="196" height="557" viewBox="0 0 196 557" fill="none" xmlns="http://www.w3.org/2000/svg">
<path d="M195.841 359.786C195.716 355.588 195.659 351.39 195.443 347.192C195.135 338.796 194.498 330.366 193.702 321.902C192.905 313.437 191.711 304.916 190.073 296.281C189.606 294.108 189.197 291.946 188.696 289.773L187.001 283.163L184.862 276.417C184.009 274.142 183.144 271.866 182.052 269.591C181.824 269.09 181.586 268.59 181.335 268.089C183.067 262.319 184.304 256.412 185.033 250.432C186.23 241.197 186.925 231.904 187.115 222.593C187.365 213.059 187.228 203.685 186.99 195.687C186.625 182.877 185.761 170.021 184.202 157.006L183.918 154.571L183.838 153.968L183.736 153.251L183.52 151.795L182.644 145.947L182.53 145.219L182.473 144.855L182.393 144.355L181.995 142.25L181.21 138.04C180.596 135.287 180.072 132.466 179.333 129.769C178.061 124.492 176.477 119.295 174.589 114.206C172.946 109.65 170.893 105.252 168.457 101.066C166.447 97.551 164.005 94.3022 161.187 91.3953C158.752 88.923 155.96 86.8292 152.905 85.1835C151.353 84.3979 149.735 83.7508 148.069 83.2495C146.19 82.7025 144.247 82.4004 142.29 82.3507C141.211 82.2991 140.13 82.3448 139.059 82.4872L138.922 79.2107C137.876 61.4628 134.906 44.4772 130.378 31.4279C128.498 25.6408 125.866 20.1254 122.551 15.0226C120.027 11.1452 116.801 7.77302 113.04 5.0792C111.316 3.86727 109.461 2.85223 107.511 2.05299C105.286 1.13096 102.948 0.507399 100.56 0.19856C99.1253 0.0281943 97.6801 -0.0326972 96.2365 0.0164915C94.9025 0.0791839 93.5752 0.24271 92.2659 0.505688C90.1064 0.915351 88.0102 1.60771 86.0314 2.56489C85.1099 3.03134 84.2339 3.5433 83.3693 4.05526C82.4838 4.54997 81.6359 5.10897 80.8322 5.72769C79.0847 7.03904 77.476 8.52574 76.0312 10.1646C74.3498 12.0449 72.8276 14.0618 71.4804 16.1944L70.3996 18.0261C70.0469 18.6404 69.6829 19.2206 69.3416 19.926C68.659 21.3026 67.9536 22.5768 67.3051 24.124C62.0149 35.8991 58.2037 52.5661 55.7918 69.9613C54.084 69.9398 52.38 70.1271 50.7177 70.5188C50.2285 70.6326 49.7393 70.7691 49.2615 70.917C48.7836 71.0649 48.3855 71.2128 47.9531 71.3721C47.1478 71.6819 46.3614 72.039 45.5981 72.4415C43.3255 73.6522 41.2533 75.2064 39.4546 77.0491C38.2286 78.2984 37.1062 79.6453 36.0984 81.0765C35.2338 82.3166 34.5057 83.4884 33.88 84.592C32.744 86.6056 31.7259 88.6834 30.831 90.8151C30.0005 92.7833 29.2951 94.6832 28.658 96.5035C28.3508 97.3795 28.0664 98.2442 27.7934 99.1088C25.518 91.5433 22.0139 94.4898 19.2949 90.8947C12.0251 81.3154 7.18989 80.2574 4.39119 88.7331C1.59249 97.2089 0.807497 115.218 1.77453 143.706C2.19547 156.107 1.54699 169.247 1.05778 181.921C-0.079902 211.25 -0.0798965 260.626 0.0680025 290.24C0.124887 308.136 0.852976 326.919 1.63798 345.292C2.00204 354.485 2.37747 363.575 2.77566 372.403C2.91218 376.818 3.04872 381.175 3.18525 385.441C3.32177 389.708 3.3559 394.008 3.43554 398.149C3.61757 407.08 3.9475 416.034 4.78939 425.34C5.20881 430.247 5.87709 435.131 6.79169 439.97C7.36148 442.975 8.16409 445.93 9.19222 448.81C9.53352 449.72 9.87482 450.585 10.3868 451.677L10.7508 452.44C10.8874 452.713 11.0694 453.031 11.2287 453.327L11.7406 454.226L12.0023 454.658L12.355 455.204L13.0945 456.262C13.3645 456.658 13.657 457.038 13.9705 457.4C14.3459 457.832 14.7214 458.253 15.1082 458.663L15.6998 459.266C15.9273 459.493 16.2459 459.766 16.5189 459.994C17.0878 460.483 17.6566 460.949 18.2937 461.382L18.7488 461.7L19.3973 462.11C19.8523 462.372 20.3074 462.622 20.7738 462.861C21.2403 463.1 21.6726 463.304 22.2415 463.521C22.8103 463.737 23.4474 463.964 24.0618 464.146C24.6761 464.328 25.3018 464.476 25.9275 464.601C26.5533 464.726 27.3269 464.806 28.0323 464.863C28.7376 464.92 29.4544 464.92 30.1483 464.863C30.8377 464.829 31.525 464.761 32.2076 464.658C32.8851 464.564 33.5572 464.435 34.2213 464.271C34.8356 464.112 35.359 463.93 35.9392 463.737C36.5194 463.543 37.0769 463.304 37.5775 463.065C37.8733 462.94 38.0894 462.826 38.2828 462.724L38.9085 462.383C39.3181 462.155 39.7277 461.905 40.1259 461.655L40.7174 461.268L41.1612 460.938C41.7414 460.494 42.2988 460.028 42.8563 459.539C43.4138 459.049 43.6868 458.742 44.085 458.333L44.6425 457.718L45.0748 457.206L45.9053 456.148C46.8766 454.828 47.7402 453.432 48.4879 451.973C49.0567 453.247 49.6255 454.521 50.183 455.75L52.6631 459.607L53.9032 461.53C54.3355 462.11 54.802 462.553 55.2571 463.077C56.1786 464.067 57.066 465.125 57.9989 466.069L61.0024 468.469C61.4966 468.872 62.0259 469.23 62.5837 469.539C63.1185 469.88 63.7214 470.187 64.2675 470.495C65.4885 471.134 66.7639 471.663 68.0788 472.076C69.6011 472.554 71.1743 472.852 72.766 472.963C74.3504 473.079 75.9429 473.007 77.5102 472.747C78.8582 472.521 80.1833 472.175 81.4693 471.712C83.8672 470.856 86.1369 469.677 88.2158 468.208C90.4787 466.593 92.5613 464.739 94.4275 462.679C98.4777 458.287 102.289 451.848 105.657 444.282C109.128 436.1 112.043 427.692 114.383 419.117C117.124 408.969 118.273 404.076 119.343 399.002C120.389 394.148 121.341 389.271 122.198 384.372C122.653 384.451 123.097 384.531 123.541 384.588C126.028 384.929 128.551 384.929 131.038 384.588C131.683 384.505 132.331 384.402 132.984 384.281C133.453 385.774 133.833 387.293 134.121 388.832C134.554 391.107 134.952 393.382 135.179 395.931C136.067 406.487 135.781 417.11 134.326 427.604C133.632 433.031 132.733 438.492 131.618 443.918C130.504 449.345 129.15 455.181 127.864 461.177C126.579 467.172 125.35 473.43 124.451 479.824C123.973 483.009 123.598 486.251 123.313 489.482C123.177 491.098 123.006 492.725 122.904 494.352L122.733 496.786L122.608 499.335C122.354 505.998 122.518 512.67 123.097 519.312C123.382 522.646 123.78 526.013 124.36 529.552C124.656 531.304 124.997 533.101 125.429 534.99C125.92 537.117 126.536 539.214 127.272 541.27C127.466 541.827 127.773 542.567 128.035 543.193C128.16 543.488 128.365 543.921 128.535 544.33C128.706 544.74 128.888 545.058 129.116 545.468C129.66 546.496 130.276 547.484 130.959 548.426C131.423 549.076 131.924 549.699 132.46 550.292L133.484 551.338L134.019 551.85L134.827 552.522C135.384 552.954 135.964 553.375 136.556 553.762L137.478 554.319C137.898 554.547 138.342 554.774 138.786 554.979C139.687 555.382 140.614 555.724 141.562 556.003C142.07 556.156 142.586 556.277 143.109 556.367C143.678 556.469 144.247 556.549 144.838 556.606C145.974 556.707 147.116 556.707 148.251 556.606C149.304 556.492 150.346 556.298 151.369 556.026C153.064 555.575 154.684 554.881 156.181 553.966C157.978 552.873 159.598 551.511 160.982 549.928C161.427 549.427 161.845 548.903 162.234 548.358L162.757 547.63C162.939 547.379 163.03 547.22 163.166 547.015C164.572 544.759 165.735 542.36 166.636 539.859C167.353 537.971 167.888 536.287 168.388 534.694L169.742 530.143L171.005 525.854L173.531 517.208C180.243 494.09 186.227 470.13 190.073 445.829C192.018 433.656 193.486 421.529 194.521 409.185C195.556 396.841 195.966 384.622 196 372.369C195.898 368.16 195.841 363.973 195.841 359.786ZM138.501 371.8V371.96V372.073C138.774 370.685 138.251 372.46 138.445 371.766L138.501 371.8ZM140.686 143.194C141.095 142.265 141.821 141.511 142.734 141.067C142.988 140.98 143.259 140.953 143.526 140.989C143.792 141.024 144.047 141.121 144.27 141.271C144.717 141.599 145.102 142.004 145.407 142.466C146.014 143.387 146.503 144.381 146.863 145.424C147.541 147.362 148.043 149.357 148.365 151.385L148.581 152.807L148.672 153.513L148.979 155.663L149.309 157.938L149.48 159.076L149.662 160.521L150.367 166.312C151.232 174.059 151.846 181.909 152.302 189.794C153.439 210.852 154.497 229.123 156.409 243.572C154.154 242.541 151.965 241.371 149.856 240.068C148.953 239.491 148.121 238.812 147.375 238.043C147 237.69 146.681 237.258 146.317 236.905C145.953 236.553 145.635 236.052 145.316 235.483C143.797 233.026 142.582 230.394 141.698 227.644C141.141 226.131 140.697 224.448 140.231 222.798C139.764 221.148 139.355 219.385 139.025 217.553C137.575 210.229 136.681 202.805 136.351 195.346C135.953 187.712 135.964 179.941 136.351 172.194C136.533 168.314 136.761 164.435 137.113 160.567C137.193 159.599 137.295 158.644 137.387 157.677L137.523 156.232L137.648 155.219L137.864 153.467L138.001 152.591C138.342 150.38 138.848 148.197 139.514 146.061C139.796 145.073 140.169 144.113 140.629 143.194H140.686ZM91.4354 114.16C91.5151 109.052 91.663 103.921 91.9474 98.904C92.0839 96.3783 92.266 93.8527 92.4707 91.3384L92.5845 89.9391L92.6527 89.211C92.8455 87.2958 93.1648 85.3956 93.6084 83.5226C93.8267 82.5832 94.108 81.6596 94.4503 80.758C94.7456 79.8342 95.3029 79.016 96.0544 78.403C96.2702 78.2965 96.5142 78.2611 96.7513 78.302C96.9885 78.3429 97.2065 78.4579 97.3742 78.6305C97.7179 78.9614 98.006 79.3456 98.2274 79.7682C98.655 80.6266 98.9943 81.5262 99.2399 82.4531C99.7354 84.3153 100.055 86.2197 100.196 88.1416L100.275 89.6205V90.3487V92.5444C100.378 97.5502 100.207 102.556 100.036 107.573C99.2513 125.139 96.6233 142.773 93.4947 160.953C91.8859 145.41 91.1793 129.786 91.3785 114.16H91.4354ZM86.5662 372.278C85.9973 376.45 85.345 380.621 84.6093 384.793C84.2225 386.863 83.8698 388.945 83.4716 391.005L82.8459 394.099L82.5387 395.521L82.2316 396.852L81.6969 399.298L81.6286 399.594V399.697V399.913L81.4693 400.789C81.3555 401.38 81.219 401.995 81.0597 402.632C80.7376 403.987 80.2605 405.3 79.6376 406.545C79.2963 407.148 78.864 407.876 78.1473 408.036C77.9835 408.046 77.8194 408.021 77.6662 407.962C77.5131 407.903 77.3744 407.812 77.2599 407.694C77.0296 407.473 76.8374 407.216 76.691 406.932C76.0864 405.723 75.6646 404.431 75.4396 403.098C75.2917 402.404 75.1893 401.699 75.0869 400.971L74.9504 399.833L74.6887 396.704L74.5522 394.952L74.4043 392.063L74.1085 386.249C73.9947 382.347 73.8241 378.456 73.8127 374.542C73.5738 358.888 74.1426 343.142 75.4282 327.579C77.0779 307.794 79.7855 287.851 82.4477 267.589C82.5273 271.434 82.6525 275.268 82.8573 279.113C83.5058 291.525 84.7003 303.903 86.6003 316.327C87.4763 322.015 88.5343 327.704 89.7972 333.495C89.6607 338.045 89.4521 342.596 89.1714 347.147C88.4774 355.554 87.6583 363.928 86.5092 372.278H86.5662ZM127.796 327.408C127.932 318.398 127.682 309.342 126.943 300.229C126.027 288.621 124.166 277.107 121.379 265.802C121.072 264.517 120.731 263.254 120.389 261.991C120.389 261.4 120.389 260.853 120.389 260.205C121.536 261.545 122.755 262.821 124.041 264.028C124.997 264.96 126.044 265.78 127.056 266.633C128.069 267.486 129.138 268.203 130.174 268.908C132.076 270.181 134.043 271.354 136.067 272.424C137.921 273.413 139.48 274.13 140.765 274.813C142.051 275.495 143.109 275.951 143.826 276.417C144.911 276.985 145.901 277.718 146.761 278.59C147.656 279.543 148.422 280.61 149.036 281.764C149.253 282.071 149.446 282.56 149.651 282.902C149.884 283.322 150.093 283.755 150.276 284.199L150.891 285.587L151.471 287.145C151.892 288.124 152.199 289.421 152.609 290.479L153.143 292.197C153.337 292.743 153.462 293.437 153.633 294.051L154.566 297.817L155.362 301.81C155.942 304.427 156.295 307.282 156.761 310.024C158.371 321.559 159.347 333.173 159.685 344.815C159.799 348.114 159.871 351.425 159.901 354.747L159.583 354.371C158.877 353.632 158.149 352.904 157.398 352.21C156.523 351.424 155.608 350.684 154.657 349.991C154.123 349.583 153.569 349.203 152.996 348.853C152.393 348.478 151.778 348.125 151.164 347.795C150.474 347.426 149.763 347.096 149.036 346.806C148.274 346.487 147.501 346.203 146.761 345.941C146.022 345.679 145.384 345.554 144.69 345.372C143.996 345.19 143.325 345.065 142.665 344.962C140.284 344.585 137.868 344.486 135.464 344.667L133.928 344.815H133.564H133.314C133.278 344.818 133.242 344.809 133.212 344.788C133.183 344.767 133.162 344.736 133.154 344.701C133.149 344.671 133.149 344.64 133.154 344.61C133.314 344.985 132.745 343.631 132.426 342.744C132.108 341.857 131.709 340.799 131.368 339.786C129.855 335.895 128.717 331.595 127.739 327.397L127.796 327.408Z" fill="#4633FF"/>
</svg>
