<svg width="900" height="768" viewBox="0 0 900 768" fill="none" xmlns="http://www.w3.org/2000/svg">
<path d="M894.73 455.853C891.93 444.146 887.847 432.784 882.553 421.974C877.133 410.945 870.314 400.66 862.263 391.375C856.666 385.009 850.488 379.178 843.81 373.957C840.552 371.398 837.163 369.01 833.657 366.802C837.553 356.989 840.393 346.789 842.131 336.375C845.108 319.114 845.841 301.54 844.312 284.09C842.824 266.981 839.252 250.118 833.673 233.876C831.821 227.992 829.311 222.312 826.894 216.615C825.654 213.775 824.164 211.029 822.799 208.22L820.68 204.046C819.943 202.681 819.111 201.347 818.326 199.998C816.757 197.314 815.188 194.615 813.509 191.932C811.83 189.249 809.978 186.581 808.048 184.086C804.281 178.94 800.22 174.015 795.887 169.336C778.579 150.623 757.445 135.857 733.92 126.042C722.024 121.041 709.585 117.444 696.856 115.325C690.389 114.272 683.866 113.607 677.32 113.332C670.675 113.123 664.024 113.338 657.407 113.975C650.721 114.657 644.093 115.816 637.572 117.443C636.003 117.804 634.308 118.275 632.676 118.761C631.044 119.248 629.428 119.671 627.828 120.236L623.026 121.931C621.457 122.464 619.778 123.218 618.177 123.877C614.882 125.163 611.791 126.811 608.652 128.349C607.083 129.196 605.608 130.059 604.102 130.938C602.595 131.817 601.104 132.696 599.661 133.668C593.86 137.397 588.376 141.596 583.263 146.222C579.963 149.194 576.82 152.337 573.848 155.637C574.24 153.566 574.601 151.463 574.899 149.36C576.331 139.272 576.61 129.054 575.731 118.902C573.696 97.9245 566.209 77.8439 554.013 60.6543C542.482 44.2531 527.597 30.4906 510.343 20.2793C493.238 10.0007 474.172 3.41548 454.37 0.94695C444.246 -0.272154 434.015 -0.314306 423.881 0.821388C413.964 1.97331 404.202 4.20969 394.773 7.49041C376.394 13.8915 359.405 23.7388 344.716 36.5046C330.392 48.8749 318.226 63.5433 308.719 79.9082C300.542 93.924 294.472 109.067 290.705 124.85C288.712 122.967 286.656 121.131 284.506 119.389C278.661 114.738 272.351 110.705 265.676 107.353C258.984 103.994 251.95 101.363 244.696 99.5073C237.407 97.6153 229.926 96.5624 222.398 96.3689C220.531 96.3689 218.648 96.2434 216.78 96.3689L211.163 96.6513C207.459 97.0592 203.756 97.4515 200.178 98.2204C185.992 101.022 172.429 106.371 160.149 114.007C154.251 117.667 148.61 121.724 143.264 126.152C138.055 130.555 133.118 135.271 128.482 140.275C123.935 145.254 119.681 150.494 115.741 155.966C111.848 161.468 108.275 167.19 105.039 173.102C101.823 179.053 98.9624 185.188 96.4712 191.477C93.9745 197.842 91.8782 204.356 90.1944 210.982L89.0646 216.019C88.6723 217.714 88.484 219.267 88.1702 220.899C87.6523 224.132 87.0404 227.349 86.601 230.581L85.5653 240.263C85.3613 241.832 85.2829 243.496 85.2044 245.112L84.969 249.929C84.4212 262.63 84.8146 275.354 86.1459 287.997C88.6252 312.947 93.9918 336.736 99.7193 359.74C105.447 382.745 111.99 405.058 116.98 426.729C119.413 437.619 121.688 448.493 123.257 459.289C124.876 469.949 125.924 480.687 126.395 491.458C126.8 501.884 126.443 512.326 125.328 522.7C124.082 532.68 121.896 542.521 118.801 552.091L116.18 558.995C115.78 560.153 115.298 561.28 114.736 562.369L113.167 565.696L111.598 569.022L110.029 571.91L108.303 574.718C107.722 575.644 107.063 576.523 106.467 577.433C101.43 584.51 94.9804 590.3 89.3314 592.858C86.9854 594.014 84.4141 594.641 81.7993 594.694C81.232 594.728 80.6627 594.691 80.1046 594.584C79.5013 594.551 78.9024 594.462 78.3157 594.317C77.19 594.039 76.0961 593.645 75.0518 593.141C72.681 591.854 70.611 590.078 68.9791 587.931C67.8563 586.544 66.8536 585.063 65.9819 583.506C64.9512 581.74 64.034 579.911 63.2358 578.029C59.6618 569.104 57.2924 559.743 56.1902 550.192C55.845 547.65 55.5626 545.077 55.3429 542.487L55.029 538.58L54.7466 534.281L53.6325 517.02C50.7138 470.886 48.5588 424.71 47.1674 378.492C46.0219 340.832 46.8849 303.281 46.728 266.076C46.5711 228.871 45.4257 191.948 40.2317 155.292C40.1061 154.382 39.9021 152.389 39.7923 151.384C37.3914 127.219 31.3814 135.489 27.1289 128.004C17.5412 110.962 10.9193 108.907 6.72957 123.767C2.53986 138.627 0.562726 170.387 1.47285 220.648C1.94361 242.522 0.970675 265.699 0.452845 288.123C-0.19052 313.999 -0.143433 348.741 0.562699 383.514C1.26883 418.287 2.61837 453.107 3.84233 479.234C4.17186 487.08 4.64255 495.114 5.14468 503.148C5.64682 511.182 6.22748 519.295 6.87084 527.423C7.18468 531.472 7.51418 535.536 7.82802 539.616C7.98494 541.546 8.18894 543.947 8.42432 546.175C8.65969 548.403 8.91078 550.694 9.22462 552.954C10.4157 562.263 12.3306 571.466 14.9521 580.477C17.7471 590.354 21.8867 599.8 27.2545 608.55C30.3114 613.444 33.912 617.976 37.9878 622.061C42.3988 626.484 47.4377 630.233 52.942 633.186C58.483 636.136 64.4493 638.206 70.6267 639.322C72.1473 639.611 73.682 639.82 75.2244 639.949C76.7936 640.091 78.3628 640.31 79.932 640.295C83.0047 640.376 86.079 640.218 89.1273 639.824C94.9073 639.099 100.564 637.606 105.949 635.383C110.782 633.34 115.398 630.817 119.726 627.851C128.006 622.158 135.335 615.194 141.444 607.216C144.391 603.436 147.106 599.479 149.572 595.369L151.33 592.231C151.942 591.179 152.507 590.143 152.899 589.092L155.786 583.098C163.18 567.208 168.233 550.332 170.788 532.994C173.225 516.3 173.956 499.402 172.969 482.56C172.043 466.326 170.082 450.167 167.1 434.182C164.275 418.491 160.651 402.94 156.9 388.017C153.15 373.094 149.4 358.501 146.026 344.08C139.294 315.317 134.241 287.15 134.665 260.317C134.665 258.654 134.665 256.959 134.743 255.296L135.073 250.353C135.199 248.784 135.23 247.042 135.418 245.41L136.015 240.561C136.234 238.992 136.344 237.297 136.658 235.712L137.537 231.005L137.96 228.62C138.102 227.819 138.227 227.05 138.415 226.313C138.792 224.885 139.074 223.441 139.498 222.013C142.779 210.267 147.957 199.136 154.829 189.06C161.571 179.053 169.928 170.235 179.559 162.965C188.238 156.274 198.318 151.634 209.044 149.392C218.661 147.518 228.615 148.455 237.713 152.091C247.016 155.889 255.117 162.136 261.157 170.168C268.048 179.378 273.161 189.792 276.237 200.876C279.661 212.832 281.409 225.206 281.431 237.642C281.469 244.901 280.944 252.151 279.861 259.328C279.626 261.117 279.297 262.875 278.936 264.617C278.575 266.358 278.198 268.1 277.806 269.842L277.508 271.129L277.115 272.541L276.346 275.334L274.777 280.936C269.903 296.408 263.952 311.519 256.967 326.16C249.906 341.397 241.981 356.869 234.041 372.937C226.101 389.006 218.193 405.89 211.367 423.637C210.519 425.866 209.656 428.078 208.84 430.338L206.502 437.195C204.933 441.636 203.364 446.61 202.093 451.553C199.482 461.348 197.542 471.309 196.287 481.368C193.683 501.668 194.085 522.241 197.479 542.425C199.254 552.873 202.018 563.13 205.733 573.055C209.615 583.405 214.697 593.264 220.876 602.43C227.33 611.967 235.144 620.51 244.068 627.788C253.05 635.139 263.105 641.072 273.883 645.379C284.582 649.641 295.838 652.341 307.306 653.397C318.389 654.305 329.54 653.846 340.51 652.032C350.926 650.269 361.147 647.505 371.031 643.778C380.517 640.222 389.728 635.968 398.586 631.052C415.661 621.535 431.673 610.225 446.352 597.315C460.789 584.594 474.05 570.598 485.974 555.496C497.341 541.259 507.054 525.776 514.925 509.346L516.949 510.523C527.655 516.578 539.03 521.365 550.844 524.787C553.794 525.744 556.838 526.356 559.866 527.078C562.895 527.8 565.955 528.302 569.03 528.804C572.106 529.306 575.197 529.667 578.304 529.95C579.873 530.091 581.443 530.279 583.012 530.358L587.515 530.577C593.494 530.75 599.3 530.687 604.949 530.468C610.598 530.248 616.012 529.871 621.3 529.51C631.845 528.757 641.699 527.941 650.942 527.941C653.264 527.941 655.477 527.941 657.721 528.067C659.964 528.192 662.161 528.318 663.997 528.569C667.979 528.968 671.921 529.697 675.782 530.75C682.944 532.526 689.694 535.67 695.663 540.008C698.046 541.826 700.191 543.935 702.05 546.285C703.593 548.411 704.79 550.767 705.596 553.268C706.45 555.863 706.843 558.587 706.758 561.318C706.758 562.845 706.653 564.371 706.444 565.884C706.287 566.7 706.13 567.453 706.004 568.316C705.879 569.179 705.565 569.995 705.377 570.843C703.128 578.506 699.714 585.777 695.255 592.403C692.823 596.131 690.205 599.735 687.409 603.199C684.475 606.855 681.227 610.716 677.869 614.654C671.153 622.579 663.872 631.052 656.952 640.875C653.384 646.028 650.135 651.394 647.223 656.944C644.122 662.912 641.574 669.152 639.612 675.585L638.231 680.591C637.823 682.458 637.368 684.514 637.102 686.429C636.506 690.264 636.233 694.143 636.286 698.025C636.316 701.782 636.625 705.533 637.211 709.244C637.77 712.913 638.593 716.537 639.675 720.087C640.74 723.659 642.067 727.146 643.645 730.523C645.229 733.991 647.087 737.328 649.2 740.503C653.721 747.421 659.521 753.412 666.288 758.156C673.986 763.496 682.942 766.741 692.274 767.571C696.922 767.944 701.599 767.728 706.193 766.927C710.448 766.136 714.608 764.9 718.605 763.24C725.294 760.37 731.577 756.635 737.294 752.13C742.378 748.223 746.615 744.425 750.459 741.067C781.984 713.45 814.388 684.577 842.178 649.804C856.321 632.168 868.496 613.042 878.489 592.764L882.051 584.918C882.647 583.6 883.243 582.329 883.824 580.979L885.472 576.884C886.617 574.154 887.527 571.376 888.61 568.614C889.693 565.852 890.446 563.044 891.293 560.235C894.611 549.015 897.004 537.543 898.449 525.933C901.396 502.538 900.136 478.804 894.73 455.853ZM609.217 188.056C616.88 179.596 626.25 172.857 636.709 168.284C639.331 167.182 642.008 166.213 644.728 165.382C646.124 165.005 647.49 164.55 648.902 164.22C650.314 163.891 651.726 163.546 653.154 163.247C658.889 162.083 664.721 161.468 670.572 161.411C694.204 161.098 718.542 169.257 738.8 183.066C748.929 189.925 758.037 198.182 765.853 207.593C766.794 208.769 767.767 209.931 768.677 211.123L771.345 214.764L773.856 218.467L776.225 222.437L778.61 226.407C779.411 227.709 780.023 229.153 780.744 230.518C782.125 233.28 783.632 235.979 784.762 238.882C793.094 257.712 797.315 276.433 800.155 293.458C802.995 310.484 803.686 326.003 804.518 339.09C804.847 343.892 805.114 348.364 805.396 352.507C796.452 349.022 787.283 346.144 777.951 343.892C747.886 336.579 718.605 334.241 690.909 330.24C677.485 328.445 664.184 325.825 651.083 322.394C638.608 318.816 626.87 314.281 617.126 307.769C615.933 306.937 614.615 306.2 613.501 305.321L610.08 302.669C609.5 302.247 608.95 301.786 608.432 301.288L606.863 299.829C605.756 298.912 604.708 297.927 603.725 296.879L600.806 293.741C599.802 292.736 599.033 291.512 598.123 290.414C596.391 288.272 594.817 286.006 593.415 283.635C587.822 274.079 584.779 263.244 584.581 252.173C583.828 229.467 593.4 205.254 609.217 188.056ZM339.569 159.513C339.569 155.59 340.165 151.667 340.526 147.854C341.006 144.062 341.724 140.304 342.676 136.603C346.484 121.515 353.276 107.344 362.652 94.9252C371.88 82.5624 383.584 72.2589 397.017 64.6715C403.516 61.0454 410.428 58.216 417.604 56.2448C421.128 55.2954 424.707 54.5671 428.322 54.0638C429.232 53.8912 430.095 53.8597 430.974 53.7656C431.852 53.6714 432.716 53.5458 433.594 53.5145C435.352 53.5145 437.109 53.3105 438.898 53.389C453.623 53.6452 468.043 57.6295 480.811 64.9696C493.682 72.1386 504.544 82.4287 512.399 94.8938C514.242 97.9047 515.853 101.052 517.216 104.309C517.953 105.878 518.456 107.447 519.083 109.126C519.366 109.942 519.57 110.774 519.821 111.574C520.096 112.382 520.327 113.205 520.511 114.038L521.092 116.501L521.531 118.997C521.892 120.566 521.955 122.339 522.19 124.002L522.457 129.353L522.347 134.72C521.578 149.015 516.651 163.702 509.025 178.516C501.399 193.329 491.387 208.204 480.78 223.598C470.172 238.992 459.062 254.982 449.176 272.949C444.062 282.111 439.589 291.617 435.791 301.398C434.991 303.47 434.222 305.604 433.5 307.785C430.362 305.572 427.223 303.391 424.085 301.21C416.6 295.938 409.35 290.712 402.603 285.33C399.213 282.662 395.981 279.932 392.843 277.17C391.273 275.789 389.877 274.361 388.386 272.965C386.895 271.568 385.389 270.203 384.039 268.681L379.834 264.224C378.438 262.655 377.198 261.086 375.864 259.517C373.134 256.473 370.811 253.099 368.316 249.851C363.574 243.205 359.335 236.213 355.637 228.933C348.218 214.587 343.188 199.126 340.746 183.16C339.618 175.332 339.224 167.415 339.569 159.513ZM456.724 510.115C449.482 520.837 441.391 530.959 432.527 540.385C423.638 549.931 414.038 558.791 403.811 566.888C393.814 574.868 383.098 581.902 371.8 587.9C361.124 593.655 349.724 597.951 337.906 600.673C327.162 603.172 316.018 603.423 305.172 601.41C294.911 599.36 285.3 594.854 277.163 588.276C268.861 581.343 262.223 572.634 257.736 562.793C252.821 552.056 249.602 540.622 248.195 528.898C246.625 516.594 246.53 504.146 247.913 491.819C248.583 485.592 249.583 479.406 250.91 473.286L251.993 468.736C252.354 467.167 252.793 465.723 253.201 464.217C254.064 461.204 254.911 458.348 256.041 455.178C260.385 442.503 265.424 430.077 271.137 417.957C282.67 393.07 296.448 367.963 308.672 340.785C313.677 329.801 318.259 318.204 322.355 306.373L325.274 297.381C326.199 294.368 327 291.277 327.863 288.217C328.255 286.742 328.679 285.33 329.055 283.839C332.131 287.888 335.343 291.832 338.69 295.671L340.353 297.742L342.613 300.268L347.179 305.29C348.67 307 350.318 308.538 351.887 310.123L356.767 314.83C363.326 320.887 370.042 326.317 376.758 331.401C390.175 341.554 403.544 350.231 416.082 358.862C419.346 361.09 422.558 363.313 425.717 365.531C426.411 376.811 428.241 387.994 431.178 398.907C437.503 422.179 448.313 443.991 463.001 463.118C466.495 467.711 470.219 472.141 474.173 476.409C474.048 476.723 473.938 477.052 473.828 477.382C469.409 488.916 463.669 499.901 456.724 510.115ZM844.03 537.419C842.963 541.907 841.55 546.301 840.122 550.663C839.322 552.797 838.553 554.978 837.706 557.081C836.858 559.183 836.027 561.302 834.944 563.483L831.931 569.995C830.927 572.161 829.703 574.263 828.604 576.398C826.47 580.713 823.897 584.84 821.418 588.951C820.225 591.069 818.75 593.062 817.448 595.133C816.145 597.205 814.843 599.26 813.352 601.253C810.433 605.27 807.64 609.335 804.486 613.242C798.461 621.182 791.729 628.824 784.919 636.419C771.016 651.467 755.889 665.951 740.024 680.214C733.183 686.439 725.98 692.805 718.417 699.311L712.767 704.254C710.916 705.824 709.237 707.299 707.636 708.601C705.201 710.672 702.574 712.506 699.79 714.078C698.878 714.615 697.872 714.972 696.825 715.129C696.825 715.129 696.683 715.129 696.573 714.988C695.409 714.241 694.414 713.257 693.655 712.1C692.232 710.07 691.121 707.838 690.36 705.478C689.536 702.943 689.097 700.298 689.057 697.633C689.018 696.487 689.097 695.341 689.293 694.212C689.316 693.963 689.358 693.717 689.418 693.474C689.471 693.182 689.544 692.893 689.638 692.611C689.873 691.795 690.093 691.042 690.297 690.179C692.972 682.589 696.85 675.479 701.783 669.12C707.26 661.588 714.211 653.68 721.586 644.971L724.364 641.675L727.188 638.239C728.098 637.156 729.134 635.807 730.123 634.583C731.111 633.359 732.084 632.072 733.026 630.754C736.92 625.581 740.499 620.179 743.743 614.576C745.438 611.767 746.976 608.723 748.451 605.725C749.926 602.728 751.369 599.527 752.625 596.216C755.333 589.443 757.306 582.399 758.509 575.205C759.812 567.458 760.029 559.568 759.153 551.761C758.191 543.753 756.017 535.938 752.703 528.584C749.428 521.547 745.152 515.019 740.008 509.205C738.8 507.777 737.498 506.553 736.227 505.251L734.312 503.352C733.653 502.756 732.994 502.191 732.335 501.626C731.001 500.496 729.683 499.335 728.334 498.284L724.27 495.333C719.102 491.734 713.606 488.629 707.856 486.06C702.624 483.683 697.227 481.685 691.709 480.081C686.551 478.621 681.312 477.468 676.017 476.629L672.22 476.048L668.438 475.64C665.88 475.342 663.731 475.248 661.377 475.091C652.338 474.605 644.288 474.809 637.196 475.091C623.073 475.829 612.512 476.801 604.918 477.084C598.641 477.398 592.882 477.649 587.923 477.617C585.381 477.617 583.216 477.445 581.16 477.335C579.21 477.225 577.27 476.978 575.354 476.597C558.805 473.362 543.245 466.289 529.926 455.947C530.312 451.732 530.485 447.5 530.444 443.268C530.393 437.712 529.973 432.166 529.189 426.666C528.377 421.143 527.177 415.684 525.595 410.331C524.032 405.008 522.124 399.793 519.884 394.718C517.619 389.724 515.046 384.876 512.179 380.203C509.376 375.633 506.322 371.222 503.031 366.99C499.751 362.894 496.377 358.893 492.831 355.221C488.641 350.796 484.31 346.701 479.932 342.809C480.089 341.554 480.277 340.314 480.481 339.074C481.14 336.187 481.627 333.253 482.537 330.444C483.447 327.635 484.357 324.607 485.424 321.625C487.781 315.424 490.522 309.376 493.631 303.517C500.555 290.688 508.215 278.271 516.573 266.327C523.116 256.661 530.052 246.759 536.972 236.262C536.303 242.515 536.098 248.809 536.36 255.092C536.649 262.213 537.584 269.293 539.153 276.244C540.768 283.339 543.054 290.264 545.979 296.926C549.019 303.639 552.698 310.045 556.963 316.054C559.097 318.879 561.279 321.625 563.475 324.371C565.672 327.117 568.261 329.565 570.678 332.123C580.594 341.823 591.973 349.904 604.4 356.069C615.946 361.757 628.038 366.263 640.491 369.516C652.002 372.536 663.661 374.961 675.421 376.782C698.127 380.407 719.766 382.572 740.056 385.977C760.345 389.382 779.285 393.933 794.867 401.543C802.401 405.109 809.417 409.68 815.722 415.133C818.762 417.788 821.604 420.662 824.227 423.732C825.498 425.301 826.863 426.87 828.008 428.549C828.604 429.396 829.248 430.118 829.813 431.06L831.523 433.649C836.042 440.865 839.663 448.606 842.304 456.7C845.076 465.17 846.964 473.905 847.937 482.764C849.851 501.072 848.523 519.573 844.014 537.419H844.03Z" fill="black"/>
</svg>
