<svg width="248" height="453" viewBox="0 0 248 453" fill="none" xmlns="http://www.w3.org/2000/svg">
<path d="M246.569 94.2511C245.633 81.381 243.887 68.5829 241.34 55.9327C239.834 48.7015 237.733 41.6071 235.058 34.7221C233.495 30.7494 231.641 26.8978 229.51 23.1985C228.232 21.0028 226.825 18.8845 225.297 16.8549L223.999 15.2017C223.546 14.6384 222.995 13.977 222.481 13.4504C221.966 12.9238 221.501 12.3238 220.827 11.687C220.154 11.0502 219.603 10.4624 218.905 9.85009C218.207 9.23778 217.435 8.62543 216.651 7.97638C215.828 7.30099 214.965 6.67528 214.067 6.10267C213.076 5.45362 212.059 4.87805 211.03 4.26574C210.002 3.65342 208.581 3.04122 207.357 2.53912L206.414 2.15942L205.311 1.77971C204.564 1.54704 203.805 1.32671 203.046 1.11852C202.287 0.910333 201.564 0.738808 200.744 0.579607C199.923 0.420406 199.041 0.322538 198.184 0.224568C197.327 0.126598 196.47 0.053067 195.612 0.0163283C194.755 -0.0204104 193.824 0.0163283 192.943 0.0163283C191.164 0.0800675 189.394 0.297259 187.652 0.665415C186.795 0.849108 185.938 1.05731 185.105 1.28998C184.274 1.50209 183.456 1.76383 182.656 2.07376C181.156 2.64217 179.688 3.29215 178.26 4.02087C177.035 4.70666 175.81 5.44134 174.671 6.2251L173.802 6.82531C173.532 7.02125 173.324 7.20489 173.079 7.38859L171.695 8.5274C170.045 9.92469 168.509 11.4523 167.103 13.0954C166.748 13.4873 166.503 13.8179 166.221 14.1608L165.425 15.1894C164.923 15.8752 164.336 16.6222 163.919 17.2712L162.695 19.194C162.303 19.8185 161.862 20.5165 161.58 21.0798C160.956 22.2309 160.257 23.529 159.743 24.6067C159.229 25.6844 158.776 26.7009 158.335 27.7296C157.563 26.8601 156.755 26.1131 155.959 25.2803C155.163 24.4476 154.245 23.6883 153.351 23.0025C152.457 22.3167 151.575 21.6432 150.681 20.9819C149.787 20.3206 148.844 19.7572 147.901 19.2306C143.937 16.9041 139.571 15.3423 135.03 14.6262C133.732 14.4792 132.397 14.3199 130.977 14.1974C130.622 14.1789 130.266 14.1789 129.911 14.1974H129.103C129.017 14.3321 128.932 14.1975 128.834 14.271L126.691 14.3444C125.315 14.4118 123.947 14.5921 122.6 14.8833C121.358 15.1221 120.131 15.4371 118.926 15.8263C114.585 17.207 110.525 19.351 106.937 22.1575C100.582 27.056 94.9483 34.4037 90.258 44.3967L89.4008 43.515L88.715 42.8536C88.4945 42.6455 88.2619 42.4251 87.9435 42.1557C86.7532 41.1501 85.5061 40.2137 84.2084 39.3512C83.3879 38.8491 82.5429 38.3715 81.6734 37.9306C80.766 37.4624 79.8292 37.0533 78.869 36.706C76.6509 35.8649 74.3336 35.3134 71.9744 35.065C69.4865 34.7826 66.9711 34.8569 64.5042 35.2855C63.359 35.4647 62.2291 35.7307 61.1242 36.0814C60.0711 36.4121 58.9689 36.7918 58.0015 37.2081C57.034 37.6245 56.2992 38.0286 55.4787 38.4328C54.6973 38.8496 53.9408 39.3117 53.2131 39.8166C52.5763 40.2575 51.9886 40.7106 51.3395 41.1882L50.4333 41.8984L49.723 42.5475C48.0253 44.0747 46.4679 45.7509 45.0694 47.5561C44.151 48.7808 43.2203 50.0054 42.559 51.1321C42.2038 51.6954 41.8119 52.3567 41.5057 52.8343L40.5995 54.4385C39.3749 56.5816 38.5055 58.5533 37.6482 60.5616C36.1135 64.1626 34.7686 67.8415 33.6192 71.5833C33.1293 73.1753 32.6885 74.7429 32.2598 76.2982C31.2041 75.9199 30.2519 75.2992 29.4799 74.4858C20.5279 64.9092 14.3436 63.4641 10.3513 71.3997C6.35903 79.3352 4.49763 96.4065 4.79154 123.618C4.92625 135.46 3.70164 147.951 2.73418 160.013C1.64427 173.986 0.848258 192.748 0.431886 211.558C0.0155135 230.368 -0.0335043 249.203 0.0154807 263.335C0.0154807 280.48 1.05643 298.335 2.25656 315.847C2.85663 324.603 3.48119 333.261 4.02002 341.674C4.28944 345.887 4.5711 350.026 4.77928 354.104C4.98747 358.182 5.15892 362.137 5.31812 366.13C5.64877 374.555 6.10188 383.079 6.8489 391.847C7.26527 396.243 7.68168 400.627 8.34298 405.195C9.00428 409.763 9.72675 414.38 10.9636 419.45C11.2085 420.675 11.6249 422.034 11.9801 423.332C12.176 424.006 12.3352 424.63 12.5679 425.328L13.2904 427.471C13.5476 428.182 13.768 428.867 14.0497 429.614L15.0662 431.99L15.5805 433.215C15.7519 433.607 15.9234 433.986 16.1805 434.439C16.6704 435.358 17.1724 436.252 17.6868 437.158L18.4828 438.493L19.5728 440.097C20.4708 441.335 21.4485 442.513 22.4996 443.624C23.8717 445.065 25.381 446.37 27.0062 447.518C27.4226 447.824 28.0227 448.204 28.537 448.51C29.0514 448.816 29.5779 449.147 30.178 449.453C30.778 449.759 31.4026 450.078 32.0761 450.359L33.0436 450.763L34.1213 451.143C34.8438 451.388 35.5786 451.609 36.3133 451.792C37.0481 451.976 37.8809 452.135 38.6769 452.27C40.2979 452.513 41.9365 452.62 43.5754 452.588C45.1389 452.539 46.6955 452.359 48.2289 452.049C48.9514 451.902 49.7107 451.731 50.3965 451.535C51.0823 451.339 51.6947 451.131 52.3437 450.898C52.9928 450.666 53.5683 450.421 54.1316 450.163C54.6949 449.906 55.2338 449.649 55.7849 449.368C56.7312 448.869 57.6509 448.321 58.5403 447.726C59.9957 446.756 61.3679 445.667 62.6428 444.469C64.5099 442.725 66.1962 440.796 67.6759 438.713C68.8022 437.141 69.8367 435.506 70.7743 433.815C72.2893 431.052 73.611 428.188 74.7298 425.242C75.2564 423.883 75.7095 422.56 76.1381 421.25V421.152L76.7382 421.715L77.7546 422.597L78.2935 423.026L78.9548 423.503C79.8487 424.153 80.7672 424.728 81.7102 425.328L82.4205 425.744C82.6654 425.891 82.9838 426.038 83.2654 426.185C83.8533 426.479 84.49 426.761 85.0534 427.018C86.2969 427.579 87.5826 428.042 88.8987 428.402C90.3333 428.784 91.789 429.083 93.2583 429.296C94.7834 429.457 96.3178 429.515 97.8507 429.467C99.3236 429.433 100.791 429.269 102.235 428.978C103.595 428.736 104.934 428.388 106.239 427.937C107.464 427.52 108.603 427.043 109.754 426.516C110.905 425.989 111.628 425.524 112.546 424.973L113.893 424.128L114.971 423.344C115.669 422.818 116.367 422.279 117.041 421.715C117.714 421.152 118.155 420.699 118.706 420.185C119.257 419.67 119.784 419.131 120.237 418.629C121.057 417.711 121.939 416.707 122.686 415.776C123.433 414.845 124.033 413.988 124.633 413.106L126.25 410.584C128.009 407.631 129.576 404.567 130.94 401.411C131.626 399.782 132.263 398.19 132.85 396.611C133.095 397.174 133.34 397.725 133.61 398.288C135.449 402.266 137.703 406.038 140.333 409.543C142.053 411.818 143.993 413.918 146.125 415.813C149.072 418.47 152.463 420.588 156.143 422.071C157.297 422.561 158.483 422.971 159.694 423.295C160.331 423.467 160.919 423.626 161.592 423.748C162.266 423.871 162.964 423.981 163.65 424.067C164.335 424.152 165.034 424.226 165.719 424.275C166.405 424.324 167.152 424.275 167.862 424.275C168.573 424.275 169.295 424.275 170.005 424.177C170.716 424.079 171.402 424.005 172.1 423.895C176.981 423.074 181.598 421.106 185.57 418.152C188.072 416.269 190.356 414.112 192.379 411.722C193.932 409.88 195.356 407.932 196.641 405.893C198.744 402.544 200.591 399.039 202.164 395.411C203.621 392.08 204.822 388.871 205.838 385.699C207.063 382.258 208.006 378.866 208.9 375.51C209.475 376.123 210.051 376.735 210.688 377.335C212.849 379.428 215.388 381.09 218.17 382.234C220.205 383.064 222.416 383.367 224.599 383.115C226.645 382.869 228.543 381.926 229.975 380.446C230.829 379.554 231.429 378.45 231.714 377.249C231.824 376.821 231.886 376.381 231.898 375.939C231.922 375.554 231.902 375.168 231.837 374.788C231.661 373.54 231.182 372.354 230.441 371.334C229.606 370.22 228.546 369.294 227.33 368.616C227.759 368.175 228.224 367.722 228.751 367.256C230.679 365.62 232.749 364.157 234.935 362.885C235.143 362.787 235.241 362.517 235.327 362.174C235.478 361.247 235.56 360.309 235.572 359.37C235.572 358.047 235.572 356.541 235.572 354.925C235.486 348.483 235.498 340.315 235.633 332.11C235.768 323.905 235.988 315.492 236.331 308.377C238.364 262.821 244.757 216.444 247.12 167.973C248.455 143.411 248.271 118.79 246.569 94.2511ZM53.2377 77.3023C53.2377 77.3023 53.2377 77.2901 53.2377 77.3023V77.3023ZM126.446 120.458V119.454L126.507 118.009C126.598 116.187 126.844 114.376 127.242 112.596C127.578 110.793 128.242 109.066 129.201 107.502C129.461 107.123 129.784 106.792 130.156 106.522C130.343 106.386 130.557 106.294 130.784 106.252C131.011 106.209 131.244 106.218 131.467 106.277C132.324 106.623 133.029 107.266 133.451 108.089C134.336 109.68 134.995 111.387 135.41 113.159C135.87 114.948 136.217 116.764 136.451 118.597L136.537 119.295L136.659 120.446C136.904 122.797 137.124 125.161 137.296 127.536C137.688 132.276 137.957 137.052 138.153 141.852C138.569 151.429 138.655 161.079 138.447 170.729C138.202 181.481 137.565 192.221 136.561 202.888C136.341 205.198 136.096 207.525 135.826 209.868C135.018 204.602 134.198 199.397 133.377 194.217C130.328 174.39 127.67 155.127 126.789 136.268C126.556 131.553 126.458 126.863 126.446 122.209V120.434V120.458ZM202.372 157.662C199.278 141.702 197.046 125.587 195.686 109.388C194.464 95.0545 194.517 80.6411 195.845 66.3175C196.029 64.7744 196.188 63.2192 196.408 61.7129C196.617 62.4599 196.8 63.2314 196.972 64.0152C197.143 64.7989 197.339 65.6072 197.498 66.4644L198.503 71.6691C199.727 78.6984 200.633 85.9237 201.319 93.2224C202.005 100.521 202.385 107.918 202.654 115.425C203.058 129.349 202.911 143.457 202.36 157.601L202.372 157.662Z" fill="black"/>
</svg>
