<svg width="652" height="940" viewBox="0 0 652 940" fill="none" xmlns="http://www.w3.org/2000/svg">
<path fill-rule="evenodd" clip-rule="evenodd" d="M116.561 37.4922C117.954 27.6908 118.696 17.967 106.172 8.19695C105.945 8.01545 105.582 7.65249 105.4 7.47086L105.4 7.47067C102.463 4.4412 97.6579 4.08324 92.8708 3.72658C90.5569 3.55419 88.2471 3.38211 86.1542 2.9088C56.9221 -3.71835 47.5488 0.934256 51.5886 19.2724C52.3947 22.8894 51.3939 26.6946 50.4201 30.3966C50.3246 30.7597 50.2294 31.1219 50.1361 31.4827C48.037 39.6614 47.4066 52.7301 46.9483 62.2306C46.8814 63.6184 46.8181 64.93 46.7545 66.1391C46.4473 71.8849 47.4291 77.933 48.3905 83.8545C49.3467 89.7448 50.2827 95.5098 49.9092 100.727C49.4946 106.52 49.0077 112.311 48.4723 118.1L47.9496 118.087C45.6187 118.028 43.2898 117.97 41.1704 117.68C11.7567 113.685 2.54226 117.339 7.1041 130.594C8.00216 133.186 7.13811 135.943 6.29472 138.635L6.29419 138.636L6.2941 138.637C6.19988 138.937 6.10592 139.237 6.0147 139.536C4.17606 145.546 3.92184 155.07 3.73684 162C3.70946 163.026 3.6836 163.995 3.65435 164.887C3.51771 169.088 4.67775 173.473 5.81337 177.765C6.94135 182.028 8.04524 186.2 7.83036 190.011C7.0807 202.927 5.65888 215.85 4.23721 228.772C2.08652 248.32 -0.063814 267.864 0.113814 287.376C0.31097 309.129 2.54051 330.844 4.77021 352.56C6.39061 368.342 8.01109 384.125 8.85167 399.924C9.95517 420.819 10.277 441.733 10.5989 462.646C10.8926 481.734 11.1864 500.822 12.0745 519.894C12.7552 534.411 12.898 548.931 13.0408 563.45C13.3359 593.465 13.6311 623.477 18.6789 653.458C22.4762 676.056 20.3123 698.93 18.1505 721.782C17.4052 729.661 16.6601 737.537 16.1597 745.398C15.5035 755.57 25.4911 762.74 43.3003 765.086C43.1461 786.642 41.0177 808.235 38.8908 829.811C37.8285 840.588 36.7666 851.361 35.9513 862.124C34.6349 879.44 49.9999 891.038 76.7128 891.878C100.685 892.62 102.646 877.922 103.983 867.898C104.078 867.188 104.169 866.502 104.265 865.846C106.954 847.544 108.965 829.215 110.476 810.867C117.542 815.5 128.229 818.248 141.826 818.525C165.781 819.012 167.598 806.137 168.84 797.332C168.929 796.702 169.015 796.093 169.106 795.511C169.818 790.949 170.475 786.384 171.082 781.819C172.491 781.915 173.935 781.987 175.415 782.035C176.673 782.075 177.871 782.083 179.012 782.06C178.613 789.09 178.108 796.124 177.604 803.156L177.604 803.157L177.604 803.158L177.603 803.159L177.603 803.159L177.603 803.16L177.603 803.161L177.603 803.162L177.603 803.163C176.935 812.468 176.267 821.769 175.847 831.053C175.167 845.964 190.917 855.337 217.653 855.065C223.379 855.004 227.818 854.234 231.273 852.979C238.483 857.937 249.698 860.641 264.065 860.421C276.185 860.239 282.522 856.774 285.944 852.228C285.521 859.072 285.134 865.914 284.875 872.745C284.414 885.061 294.813 893.577 313.091 896.079C312.621 900.968 312.18 905.855 311.794 910.74C310.501 927.24 325.866 938.315 352.579 939.132C376.537 939.874 378.489 925.885 379.824 916.322C379.92 915.639 380.012 914.979 380.109 914.348C381.482 905.397 382.677 896.44 383.717 887.476C390.394 890.251 399.022 891.804 409.294 891.882C433.261 892.052 434.91 878.732 436.036 869.628C436.118 868.972 436.196 868.339 436.28 867.734C436.761 864.237 437.213 860.74 437.636 857.243C443.873 859.25 451.536 860.347 460.427 860.377C478.214 860.44 483.687 853.386 485.771 846.164C492.197 848.469 500.284 849.796 509.793 849.958C514.256 850.033 517.95 849.662 521.013 848.953C525.264 859.195 539.592 865.493 561.153 865.621C585.148 865.769 586.772 853.108 587.88 844.465C587.915 844.196 587.949 843.931 587.983 843.67C588.026 843.339 588.07 843.014 588.115 842.698C588.91 837.189 589.623 831.68 590.26 826.169C596.195 827.78 603.362 828.749 611.606 828.966C635.567 829.602 637.457 818.807 638.747 811.441C638.839 810.917 638.928 810.409 639.022 809.924C648.01 763.262 648.849 716.35 648.872 669.415C648.872 654.979 649.77 634.786 650.377 621.137C650.622 615.624 650.82 611.179 650.892 608.613C650.915 607.657 650.621 606.737 650.354 605.902C650.101 605.111 649.873 604.397 649.961 603.802C651.809 583.038 651.771 561.052 651.733 539.05C651.713 526.998 651.692 514.942 651.981 503.078C652.121 497.003 651.431 490.917 650.742 484.836C650.426 482.048 650.11 479.26 649.874 476.475C651.457 470.745 650.278 465.025 649.104 459.33C648.551 456.643 647.998 453.961 647.737 451.286C645.555 428.803 645.867 406.32 646.178 383.836C646.291 375.68 646.404 367.525 646.398 359.369C646.379 345.499 646.413 331.63 646.446 317.76C646.534 281.699 646.621 245.638 645.785 209.577C645.723 207.023 646.205 204.486 646.685 201.956C648.121 194.392 649.543 186.904 636.344 179.301C636.117 179.165 635.754 178.893 635.573 178.756L635.572 178.756C632.617 176.505 627.812 176.227 623.02 175.95C620.709 175.817 618.4 175.683 616.304 175.329C596.25 171.906 585.549 172.419 582.132 177.429C581.782 165.464 581.378 153.5 580.898 141.536C580.779 138.569 581.2 135.602 581.62 132.644C582.881 123.77 584.131 114.971 570.753 106.426C570.549 106.29 570.163 105.972 569.981 105.813C566.981 103.272 562.174 103.065 557.377 102.857C555.062 102.757 552.75 102.658 550.645 102.296C540.269 100.5 532.404 99.8592 526.766 100.473C523.789 98.1326 519.135 97.885 514.49 97.6379C512.163 97.5141 509.838 97.3905 507.728 97.0041C490.769 93.917 480.508 93.9702 475.701 97.5643C473.936 95.2651 471.43 92.982 467.917 90.7192C467.713 90.583 467.327 90.2653 467.145 90.1064C464.146 87.5351 459.339 87.3378 454.544 87.1408C452.228 87.0457 449.915 86.9507 447.809 86.5886C429.711 83.4557 419.249 83.8737 414.936 88.3684C412.358 87.6093 409.327 87.4687 406.299 87.3282C403.981 87.2207 401.666 87.1133 399.558 86.7287C377.198 82.616 366.494 84.1871 364.612 92.4637C363.493 92.3459 362.401 92.1927 361.362 91.9688C332.13 85.614 322.779 90.0396 326.819 107.515C327.608 110.912 326.649 114.436 325.708 117.892C325.629 118.182 325.55 118.471 325.473 118.76C325.437 118.893 325.402 119.026 325.366 119.158C324.518 122.335 323.911 126.291 323.459 130.477C322.087 129.28 320.466 128.094 318.556 126.918C318.329 126.782 317.943 126.487 317.762 126.328C314.686 123.819 309.876 123.723 305.079 123.629C302.762 123.583 300.448 123.537 298.334 123.219C283.432 120.957 273.722 120.978 268.388 123.592C268.066 117.748 267.731 111.904 267.379 106.061C267.192 102.973 267.545 99.8745 267.898 96.7849C268.955 87.5223 270.004 78.3364 256.44 69.7247C256.213 69.5886 255.827 69.2709 255.645 69.112C252.585 66.5264 247.783 66.416 242.989 66.3058C240.671 66.2526 238.356 66.1994 236.24 65.8665C206.759 61.1912 197.59 65.753 202.401 81.9578C203.339 85.1389 202.518 88.5216 201.716 91.8259L201.716 91.8271L201.716 91.8284C201.676 91.9916 201.637 92.1547 201.597 92.3175L201.35 92.3109C199.019 92.2491 196.69 92.1873 194.571 91.8527C185.162 90.38 177.821 89.8233 172.342 90.256C172.267 86.8014 172.188 83.3468 172.102 79.8923C172.028 76.863 172.495 73.8436 172.96 70.8327C174.356 61.7978 175.74 52.8395 162.479 43.9195C162.252 43.7607 161.889 43.4429 161.707 43.2841C158.738 40.6517 153.932 40.3724 149.141 40.0938C146.826 39.9593 144.515 39.8249 142.416 39.4258C130.781 37.198 122.297 36.5079 116.561 37.4922Z" fill="#4633FF"/>
</svg>
