<svg width="285" height="456" viewBox="0 0 285 456" fill="none" xmlns="http://www.w3.org/2000/svg">
<path fill-rule="evenodd" clip-rule="evenodd" d="M153.085 21.2162C153.35 25.2005 153.596 29.1855 153.826 33.1712C157.241 32.935 161.799 33.1516 167.626 33.785C168.948 33.9289 170.4 33.9407 171.854 33.9525C174.844 33.9768 177.842 34.0012 179.742 35.1755C179.855 35.2464 180.097 35.3882 180.239 35.4592C188.681 39.3614 187.991 43.5983 187.295 47.8773C187.062 49.3079 186.828 50.7432 186.935 52.1722C188.382 71.8438 189.275 91.5365 190.151 111.23C191.337 111.324 192.587 111.435 193.9 111.563C195.223 111.694 196.681 111.726 198.141 111.759C201.126 111.825 204.121 111.892 205.988 112.797C206.102 112.854 206.329 112.968 206.471 113.01C214.389 115.905 214.089 118.901 213.35 121.925C214.502 121.959 215.714 122.005 216.985 122.063C218.311 122.124 219.767 122.089 221.224 122.055C224.211 121.985 227.204 121.915 229.102 122.659C229.215 122.701 229.456 122.801 229.598 122.843C231.123 123.281 232.352 123.735 233.337 124.202C233.617 123.33 233.738 122.462 233.371 121.635C230.548 115.279 236.322 113.491 254.695 115.364C256.019 115.499 257.474 115.523 258.93 115.546C261.921 115.595 264.917 115.644 266.797 116.655C266.911 116.712 267.152 116.84 267.279 116.897C275.659 120.289 274.905 123.888 274.144 127.516C273.89 128.728 273.635 129.943 273.721 131.155C274.889 148.327 275.479 165.513 276.07 182.698C276.298 189.31 276.525 195.922 276.785 202.533C276.937 206.433 277.013 210.335 277.09 214.237C277.3 224.941 277.511 235.645 279.268 246.302C279.477 247.58 279.872 248.855 280.267 250.132C281.098 252.821 281.932 255.519 281.044 258.267C281.241 259.591 281.489 260.915 281.737 262.24C282.278 265.124 282.819 268.01 282.829 270.903C282.864 276.525 283.092 282.232 283.32 287.937C283.74 298.461 284.159 308.979 283.368 318.943C283.334 319.22 283.488 319.55 283.658 319.914C283.844 320.313 284.049 320.753 284.049 321.213C284.049 322.429 284.005 324.53 283.951 327.137C283.814 333.653 283.611 343.326 283.865 350.227C284.688 372.586 285 394.96 280.233 417.363C280.182 417.597 280.136 417.842 280.087 418.095C279.411 421.634 278.422 426.806 263.449 426.925C246.736 427.053 236.96 423.236 237.485 417.15C237.817 413.361 238.304 409.563 238.791 405.764C240.197 394.783 241.606 383.787 239.287 372.941C239.232 372.686 239.179 372.43 239.126 372.175C237.451 372.422 235.497 372.603 233.216 372.702C227.065 372.963 221.842 372.761 217.717 372.154C217.328 374.044 216.895 375.933 216.416 377.823C216.365 378.027 216.316 378.24 216.266 378.461L216.266 378.461L216.266 378.462C215.56 381.572 214.527 386.122 199.533 386.108C199.392 386.108 199.252 386.108 199.112 386.107C198.97 387.039 198.823 387.97 198.668 388.902C198.642 389.063 198.616 389.229 198.591 389.399C198.574 389.511 198.558 389.625 198.541 389.741L198.539 389.753C197.932 393.922 197.042 400.031 182.055 400.323C169.152 400.575 160.332 398.015 157.185 393.526C154.894 394.402 151.799 394.965 147.594 395.032C140.307 395.144 134.322 394.299 129.927 392.671C129.488 401.831 128.69 410.998 127.391 420.174C127.347 420.48 127.307 420.8 127.266 421.131L127.266 421.132C126.69 425.746 125.847 432.5 110.876 432.858C94.1773 433.255 84.2744 428.402 84.6432 420.457C84.8269 416.44 85.112 412.415 85.4159 408.388C84.5981 411.09 82.1527 414.266 69.2357 414.711C63.4705 414.912 58.5222 414.708 54.5313 414.154C53.9309 424.385 52.797 434.615 50.8205 444.844C50.7689 445.108 50.7209 445.385 50.6711 445.672L50.671 445.672L50.671 445.672L50.671 445.672L50.6709 445.673C49.9814 449.644 48.9721 455.458 33.9939 455.484C17.2809 455.513 7.5198 451.143 8.07312 444.29C8.41931 440.027 8.91996 435.756 9.4207 431.485C10.8694 419.128 12.3189 406.765 10.031 394.534C6.99539 378.274 6.93943 362.007 6.88348 345.743C6.85654 337.91 6.8296 330.079 6.4699 322.248C5.99602 311.924 5.89362 301.594 5.79123 291.265C5.67904 279.947 5.56686 268.63 4.96602 257.325C4.51192 248.769 3.56713 240.218 2.62232 231.667C1.32368 219.913 0.0249773 208.158 0.000339399 196.39C-0.0252272 185.856 1.39791 175.307 2.82147 164.755C3.76783 157.741 4.71437 150.725 5.23559 143.711C5.39117 141.653 4.7183 139.39 4.0306 137.078C3.33871 134.752 2.63181 132.375 2.73855 130.105C2.76064 129.619 2.78082 129.091 2.80219 128.532C2.9455 124.782 3.14228 119.633 4.32755 116.385C4.38471 116.228 4.44351 116.07 4.50251 115.911L4.50259 115.911C5.04393 114.454 5.60123 112.955 5.05114 111.547C2.25617 104.368 8.03053 102.411 26.4035 104.624C27.7189 104.781 29.1635 104.818 30.6097 104.854C33.6089 104.931 36.6153 105.007 38.4914 106.156C38.6049 106.227 38.8461 106.369 38.9738 106.426C47.3469 110.298 46.5768 114.347 45.7995 118.433C45.5402 119.796 45.2802 121.163 45.3583 122.529C46.0322 134.31 46.492 146.093 46.867 157.877C47.478 153.161 48.2608 148.446 49.0437 143.731C50.1035 137.348 51.1635 130.963 51.7981 124.572C51.9817 122.701 51.3463 120.629 50.6968 118.511C50.0413 116.374 49.3713 114.189 49.5138 112.115C49.5474 111.64 49.5793 111.121 49.6131 110.57C49.8225 107.159 50.1063 102.537 51.3156 99.6301C51.3782 99.4804 51.4425 99.3302 51.5069 99.1797C52.0713 97.8613 52.6464 96.5181 52.1244 95.232C49.5167 88.8162 54.9461 87.043 72.0924 89.0772C72.5713 83.5277 72.9879 77.979 73.208 72.4344C73.3 70.0425 72.5625 67.4353 71.8089 64.7712L71.8089 64.7711C71.0516 62.0942 70.2782 59.3598 70.3137 56.7287C70.3235 56.1283 70.3295 55.4724 70.3359 54.7765V54.7764C70.3756 50.441 70.4296 44.5511 71.5055 40.8102C71.5549 40.6385 71.6056 40.466 71.6565 40.2931C72.1608 38.5798 72.6799 36.8156 72.0872 35.1919C69.0794 26.9346 74.8112 24.5369 93.2267 26.7218C94.5565 26.8799 96.0127 26.8902 97.4696 26.9005C100.458 26.9216 103.45 26.9427 105.357 28.2399C105.471 28.325 105.712 28.4811 105.854 28.552C107.977 29.6308 109.527 30.734 110.648 31.8563C110.6 31.3281 110.579 30.8029 110.593 30.282C110.608 29.7002 110.621 29.0654 110.634 28.3923C110.716 24.1901 110.828 18.494 111.94 14.8743C111.996 14.6914 112.054 14.5079 112.111 14.3238L112.112 14.3219C112.626 12.6784 113.153 10.995 112.579 9.42622C109.656 1.4102 115.402 -0.874028 133.804 1.38181C135.128 1.54445 136.583 1.56554 138.04 1.58667C141.032 1.63004 144.031 1.67352 145.92 2.94246L145.986 2.98437C146.111 3.06319 146.298 3.18131 146.416 3.24039C154.862 7.47362 154.161 12.0258 153.454 16.616C153.218 18.1486 152.982 19.6855 153.085 21.2162ZM113.038 42.1534L113.017 42.3032C112.796 43.8858 112.575 45.4733 112.692 47.0527C112.792 48.3978 112.89 49.743 112.985 51.0883C113.12 49.2317 113.237 47.3755 113.331 45.5196C113.387 44.4391 113.262 43.3117 113.038 42.1534Z" fill="black"/>
</svg>
