<svg width="260" height="397" viewBox="0 0 260 397" fill="none" xmlns="http://www.w3.org/2000/svg">
<path d="M259.83 103.242C259.659 97.7631 259.339 92.0336 258.668 85.9635C258.337 82.9585 257.917 79.8132 257.356 76.5878C256.795 73.3625 256.124 70.077 255.172 66.451C254.192 62.7081 252.984 59.0285 251.556 55.4326C249.846 51.0653 247.726 46.8696 245.225 42.9017C243.538 40.2513 241.642 37.7393 239.556 35.3892C236.675 32.1248 233.378 29.2522 229.75 26.8449C224.398 23.3029 218.349 20.9495 212.01 19.9434C210.223 19.6596 208.42 19.489 206.611 19.4326C204.82 19.3923 203.028 19.4424 201.242 19.5828C199.561 19.7553 197.889 20.0127 196.234 20.3542C195.833 20.4343 195.402 20.5144 195.022 20.6146C192.629 17.8032 190.005 15.1964 187.179 12.8216C183.184 9.46203 178.749 6.66488 173.997 4.5078C172.685 3.89679 171.132 3.29579 169.599 2.76491C168 2.20416 166.372 1.72932 164.721 1.3425C161.139 0.495779 157.474 0.0456947 153.793 0.000294056C151.88 -0.00596051 149.967 0.087563 148.064 0.280668C146.18 0.491019 144.307 0.811597 142.464 1.20225C140.621 1.5929 138.908 2.13381 137.195 2.71478C135.483 3.29575 133.94 3.94688 132.397 4.64805C127.304 7.05083 122.608 10.2194 118.474 14.0437C115.342 16.9258 112.51 20.1172 110.02 23.5695L108.437 25.8232L107.045 27.9869C106.304 29.1488 105.703 30.2106 105.042 31.3024C104.04 30.6914 103.119 30.1105 102.127 29.5696C101.837 29.3993 101.486 29.219 101.125 29.0487L100.023 28.5278C99.2923 28.1973 98.541 27.8767 97.7998 27.5261C96.1622 26.9108 94.4899 26.3923 92.7914 25.9735C90.9921 25.5604 89.1689 25.2593 87.3324 25.072C85.46 24.917 83.5793 24.8869 81.7029 24.9819C80.7814 25.042 79.8599 25.1321 78.9484 25.2523L77.5761 25.4327L76.2939 25.6831C74.9183 25.9448 73.5574 26.2792 72.2171 26.6848C70.9751 27.0954 69.723 27.5462 68.541 28.047C67.3591 28.5479 66.3774 29.0486 65.3257 29.5895C64.2739 30.1304 63.4425 30.6713 62.511 31.2423C61.5794 31.8132 60.8082 32.3843 60.0369 32.9452C59.2656 33.5061 58.4643 34.1271 57.8432 34.668C57.2222 35.2089 56.531 35.7899 55.9 36.3708C55.2689 36.9518 54.7681 37.4627 54.2172 38.0236L53.4058 38.8549L52.6846 39.6563C52.2138 40.1772 51.6829 40.7281 51.2823 41.259C50.4709 42.2606 49.5794 43.3625 48.8883 44.3342L47.8165 45.8467L46.8148 47.2991C46.1637 48.3007 45.6228 49.2223 45.0619 50.1739C43.0475 53.6379 41.2866 57.2434 39.7931 60.9618C38.4367 64.3078 37.2532 67.7213 36.2472 71.1888C35.2456 74.5344 34.4642 77.87 33.7831 81.2055C24.0469 75.3257 17.0953 74.7548 12.4075 80.274C9.74307 83.4393 7.7197 88.6179 6.55776 95.88C5.90587 100.007 5.48451 104.167 5.29565 108.341C5.10533 113.018 5.02522 118.227 5.18548 123.957C5.28705 129.048 5.05617 134.141 4.49433 139.202C4.02354 144.341 3.31237 149.499 2.72139 154.568C1.36913 166.307 0.467612 182.124 0.167112 197.98C-0.133389 213.836 0.00685932 229.723 0.30736 241.633C0.407527 248.835 0.998508 256.197 1.64959 263.609C2.30068 271.022 3.24225 278.444 4.25394 285.786C5.26562 293.129 6.25727 300.381 7.15877 307.432C7.57947 310.958 8.07029 314.444 8.44091 317.85C8.81152 321.255 9.13206 324.561 9.44257 327.927C10.0144 335.945 11.0849 343.921 12.6479 351.806C13.1287 354.06 13.6496 356.354 14.3708 358.818C15.1298 361.467 16.0259 364.075 17.0553 366.631C18.2577 369.606 19.6772 372.489 21.3023 375.255C23.5569 379.103 26.3309 382.622 29.5461 385.713C30.077 386.214 30.5477 386.654 31.1587 387.185C31.7698 387.716 32.4409 388.187 33.102 388.738L34.1037 389.479L35.2956 390.281C36.107 390.801 36.9284 391.282 37.7698 391.783C38.6112 392.284 39.723 392.785 40.7247 393.245C41.7876 393.735 42.8779 394.163 43.9901 394.528C45.1921 394.928 46.4142 395.269 47.6462 395.529C48.9685 395.823 50.3061 396.044 51.6529 396.19C54.4216 396.511 57.218 396.511 59.9868 396.19C60.708 396.12 61.339 396.01 61.9901 395.89C62.6412 395.77 63.2723 395.629 63.9033 395.479C65.1554 395.189 66.4976 394.818 67.6295 394.427C68.7614 394.037 69.7731 393.606 70.8148 393.135C71.8094 392.706 72.7792 392.221 73.7196 391.683C74.561 391.202 75.3924 390.681 76.2038 390.17L77.4058 389.359L78.4075 388.628C80.7104 386.883 82.8373 384.917 84.7581 382.758C85.5193 381.887 86.3307 380.935 87.0018 380.073C87.6729 379.212 88.2338 378.401 88.8248 377.559C89.6863 376.29 90.4609 375.059 91.1487 373.863C91.6295 374.304 92.1504 374.745 92.6612 375.195C95.5298 377.598 98.6982 379.618 102.087 381.205C106.718 383.395 111.727 384.671 116.842 384.962C119.679 385.114 122.525 384.95 125.326 384.471C126.678 384.251 128.016 383.95 129.332 383.569C130.57 383.232 131.787 382.824 132.978 382.347C136.926 380.81 140.613 378.671 143.907 376.007C144.598 375.446 145.269 374.865 145.91 374.274C146.551 373.683 147.072 373.172 147.643 372.601C148.825 371.429 149.646 370.427 150.648 369.326C151.65 368.224 152.23 367.322 152.912 366.321L153.032 366.431C153.382 366.731 153.803 367.062 154.184 367.372C154.975 367.993 155.776 368.594 156.588 369.185L157.83 370.037C158.321 370.347 158.831 370.648 159.332 370.938C163.82 373.59 168.792 375.316 173.957 376.017C175.423 376.199 176.897 376.306 178.374 376.337C179.849 376.345 181.323 376.278 182.791 376.137C184.21 375.993 185.618 375.762 187.008 375.446C187.7 375.296 188.391 375.135 189.062 374.955C189.733 374.775 190.304 374.574 190.925 374.364C193.24 373.594 195.479 372.615 197.616 371.439C199.358 370.458 201.031 369.361 202.624 368.154C203.99 367.118 205.298 366.008 206.541 364.828C207.142 364.277 207.603 363.826 208.134 363.245C208.664 362.665 209.135 362.164 209.586 361.683C210.447 360.681 211.339 359.68 212.03 358.678L213.122 357.225L214.074 355.843C216.272 352.585 218.205 349.154 219.853 345.586C221.267 342.553 222.528 339.451 223.629 336.291C225.504 330.879 227.01 325.348 228.137 319.733C228.778 319.022 229.389 318.311 229.97 317.67L231.022 316.488L232.023 315.266L232.905 314.154C233.185 313.753 233.456 313.332 233.696 312.952C234.708 311.362 235.468 309.625 235.95 307.803C236.518 305.628 236.907 303.41 237.112 301.172C237.402 298.698 237.563 296.054 237.743 293.259C237.923 290.464 238.124 287.559 238.314 284.715C238.444 283.292 238.524 281.86 238.674 280.478C238.745 279.776 238.805 279.085 238.875 278.394L239.115 276.24C239.446 273.376 239.796 270.601 240.237 268.007C241.599 259.703 243.563 250.978 245.706 241.533C247.85 232.087 250.083 221.71 251.836 211.563C255.382 191.18 257.773 170.613 258.998 149.96C259.619 139.643 259.953 129.292 260 118.908C259.98 113.87 259.98 108.751 259.83 103.242ZM179.346 337.082V337.002V337.082Z" fill="black"/>
</svg>
