<svg width="225" height="534" viewBox="0 0 225 534" fill="none" xmlns="http://www.w3.org/2000/svg">
<path fill-rule="evenodd" clip-rule="evenodd" d="M68.5241 517.571C69.9732 507.395 70.9805 497.222 71.6518 487.052C80.2054 487.004 84.6067 485.03 86.9997 482.472C89.7599 482.801 92.746 483.012 95.9426 483.096C109.77 483.463 114.013 479.488 115.681 475.405L115.56 476.375C114.892 481.741 114.224 487.107 113.745 492.467C112.978 501.09 124.911 506.716 145.431 506.89C163.84 507.053 165.139 499.733 166.026 494.736C166.06 494.548 166.092 494.363 166.126 494.182C166.154 494.026 166.183 493.872 166.213 493.721C167.315 488.181 168.225 482.638 168.973 477.092C174.052 480.772 183.525 482.996 196.385 483.182C214.791 483.458 216.138 476.419 217.057 471.613C217.123 471.27 217.186 470.939 217.253 470.622C223.716 440.208 223.943 409.654 223.542 379.117C223.419 369.811 223.919 356.845 224.262 347.964C224.406 344.243 224.521 341.24 224.552 339.522C224.561 338.879 224.313 338.264 224.087 337.704C223.885 337.203 223.701 336.747 223.734 336.352C224.976 322.777 224.746 308.419 224.517 294.051C224.392 286.258 224.268 278.461 224.378 270.785C224.438 266.802 223.85 262.811 223.262 258.823C223 257.045 222.739 255.268 222.534 253.492C223.687 249.761 222.736 246.054 221.789 242.359C221.339 240.608 220.891 238.859 220.668 237.113C218.804 222.521 218.839 207.911 218.875 193.296C218.887 187.968 218.9 182.64 218.821 177.311C218.689 168.505 218.594 159.697 218.499 150.889C218.243 127.203 217.987 103.512 217.01 79.8312C216.944 78.1737 217.292 76.5227 217.638 74.8774C218.679 69.9347 219.709 65.0436 209.502 60.1818C209.328 60.0947 209.049 59.9205 208.909 59.8334C206.638 58.3936 202.967 58.2439 199.302 58.0944C197.513 58.0214 195.725 57.9485 194.103 57.7257C171.614 54.6598 164.472 56.9244 167.764 65.6864C168.409 67.4009 167.691 69.2148 166.994 70.9742C166.919 71.1633 166.844 71.3518 166.771 71.5394C165.27 75.4143 164.92 81.5681 164.663 86.1047C164.621 86.8298 164.583 87.5137 164.542 88.1403C164.367 90.8961 165.189 93.797 165.994 96.6354C166.792 99.4486 167.572 102.2 167.346 104.689C166.731 111.336 165.798 117.978 164.796 124.618C164.506 112.429 164.125 100.241 163.565 88.0536C163.487 86.3321 163.824 84.615 164.159 82.9037C165.166 77.7746 166.162 72.697 155.935 67.7075C155.797 67.6524 155.594 67.521 155.446 67.4254C155.407 67.4001 155.372 67.3773 155.343 67.3591C153.052 65.879 149.359 65.7455 145.68 65.6126C143.903 65.5484 142.13 65.4843 140.519 65.2687C132.696 64.216 126.731 63.8168 122.416 64.1244C123.394 59.4247 123.712 54.76 114.251 49.9928C114.124 49.9295 113.942 49.811 113.799 49.7175L113.799 49.7174C113.745 49.6823 113.696 49.6508 113.658 49.627C111.395 48.1257 107.718 47.9275 104.047 47.7295C102.265 47.6335 100.485 47.5375 98.8691 47.2928C97.7743 47.1263 96.7157 46.9733 95.6929 46.8338C94.4722 45.7678 92.8799 44.6963 90.8208 43.6174C90.6942 43.5541 90.5122 43.4356 90.3688 43.3421C90.3371 43.3214 90.3072 43.302 90.2803 43.2846C90.2615 43.2725 90.2441 43.2614 90.2285 43.2516C87.9818 41.707 84.3123 41.483 80.6511 41.2594C78.862 41.1502 77.0749 41.0411 75.4567 40.778C66.6625 39.3568 60.2109 38.8361 55.8055 39.2865C55.6074 35.6378 55.3996 31.9896 55.1807 28.3417C55.0541 26.264 55.3454 24.182 55.6356 22.1067C56.5037 15.9001 57.3633 9.75492 47.0109 3.9717C46.8367 3.86718 46.5406 3.65815 46.4013 3.55363C44.0799 1.83018 40.3934 1.74803 36.7173 1.66611C34.9315 1.62632 33.1481 1.58657 31.5249 1.35876C8.94914 -1.81161 1.87679 1.23683 5.46523 12.1067C6.16895 14.2178 5.52491 16.4834 4.8943 18.7017C4.82247 18.9545 4.7508 19.2065 4.68133 19.4577C3.29837 24.3432 3.16073 32.0695 3.05942 37.756C3.04333 38.6592 3.02816 39.5109 3.00906 40.2916C2.92158 43.747 3.84011 47.3517 4.73879 50.8787C5.62965 54.3749 6.50101 57.7946 6.35359 60.9164C5.85453 71.5284 4.8397 82.1487 3.82493 92.7685C2.28943 108.838 0.75405 124.906 1.00577 140.942C1.27799 158.798 3.11411 176.624 4.95037 194.452C6.2867 207.426 7.6231 220.401 8.35684 233.388C9.33095 250.549 9.70082 267.724 10.0707 284.898C10.4085 300.586 10.7463 316.273 11.5447 331.948C12.1514 343.85 12.3484 355.76 12.5453 367.67C12.9534 392.349 13.3616 417.03 17.415 441.656C20.4688 460.199 18.9474 478.981 17.4273 497.747C16.901 504.244 16.3749 510.74 16.0389 517.223C15.4815 527.64 27.5706 534.172 48.0909 533.928C66.4826 533.7 67.5992 524.85 68.3607 518.814C68.4149 518.384 68.4674 517.968 68.5241 517.571Z" fill="black"/>
</svg>
