<svg width="204" height="468" viewBox="0 0 204 468" fill="none" xmlns="http://www.w3.org/2000/svg">
<path d="M49.5437 377.89C48.3694 377.66 47.0661 377.251 45.5691 376.867C44.8336 376.65 44.0593 376.356 43.2592 376.087C42.4462 375.806 41.5946 375.525 40.7558 375.129C37.2844 373.748 33.426 371.676 29.5417 368.787C25.6704 365.885 21.7861 362.088 18.6632 357.217C15.5661 352.346 13.4498 346.311 13.0885 339.906C12.9852 336.722 13.1788 333.449 13.9531 330.304C14.237 328.706 14.8177 327.185 15.2951 325.638C15.9274 324.155 16.4565 322.608 17.2437 321.201C20.1343 315.397 24.3799 310.385 29.2965 306.345C31.8 304.389 34.4067 302.561 37.2328 301.167C38.6007 300.387 40.0718 299.85 41.4913 299.211C42.9366 298.7 44.3561 298.15 45.8014 297.766C51.5697 296.13 57.3252 295.491 62.616 295.644C65.6873 295.682 68.7199 296.028 71.7266 296.462C74.7205 296.999 77.6885 297.6 80.5791 298.495C86.3862 300.17 91.9222 302.573 97.1614 305.54C107.653 311.485 116.583 319.859 123.461 329.524C130.352 339.203 135.281 350.146 138.133 361.576C140.972 373.006 141.747 384.973 140.146 396.71C138.546 408.421 134.481 419.94 127.874 429.925C121.293 439.923 112.311 448.233 102.168 454.37C92.0125 460.52 80.6953 464.598 69.0683 466.592C57.4413 468.574 45.453 468.497 33.8776 466.145C30.2515 465.467 26.0704 464.278 21.8893 462.821C17.7341 461.299 13.6563 459.356 10.1849 457.311C3.2423 453.155 -0.912958 448.578 0.171022 447.684C1.37114 446.61 5.21669 448.412 11.5786 451.135C13.1401 451.864 14.9596 452.491 16.8566 453.296C18.8181 453.974 20.8828 454.792 23.154 455.482C27.6835 456.914 32.884 458.257 38.691 459.164C42.2011 459.765 45.7627 460.021 49.3373 460.187C52.9118 460.238 56.4864 460.238 60.048 459.88C67.1842 459.305 74.243 457.784 81.0437 455.533C87.8573 453.296 94.3224 450.113 100.31 446.264C106.272 442.352 111.679 437.647 116.286 432.265C120.815 426.831 124.596 420.771 127.281 414.225C129.952 407.679 131.771 400.75 132.481 393.692C133.255 386.635 133.113 379.475 132.042 372.456C131.565 368.94 130.752 365.476 129.874 362.036C128.868 358.636 127.81 355.248 126.403 351.987C122.454 342.411 116.841 333.526 109.73 326.06C102.633 318.58 93.9869 312.712 84.4505 308.864C74.9398 305.092 64.5259 303.264 54.6023 304.657C52.1117 304.952 49.6986 305.565 47.3113 306.256C46.1628 306.69 44.9368 307.01 43.8399 307.534L42.1623 308.25L40.5493 309.107C36.2263 311.395 32.4194 314.655 29.2965 318.389C26.1607 322.135 23.9024 326.533 22.5991 331.097C21.4506 335.699 21.2957 340.494 22.5862 345.02C23.8508 349.533 26.2898 353.752 29.5675 357.319C32.884 360.86 36.9618 363.788 41.401 365.987C45.8401 368.212 50.718 369.58 55.6089 370.142C60.5513 370.692 65.6873 370.475 70.6943 369.605C80.7727 367.905 90.4898 363.775 99.652 358.661C132.597 339.791 159.555 310.743 176.369 276.85C180.486 268.335 184.125 259.59 187.041 250.602C187.777 248.365 188.371 246.076 189.042 243.813L190.022 240.413L190.822 236.961C191.919 232.371 192.939 227.756 193.61 223.102C196.475 204.538 196.229 185.348 190.693 167.628C189.403 163.472 187.777 159.432 185.957 155.533C184.022 151.672 181.867 147.926 179.389 144.371C174.408 137.314 168.356 130.998 161.361 125.999C157.864 123.519 154.199 121.269 150.289 119.543L148.844 118.865C148.354 118.661 147.85 118.482 147.36 118.29C146.366 117.919 145.386 117.51 144.379 117.165C142.34 116.564 140.327 115.886 138.237 115.49C136.172 114.94 134.094 114.774 132.017 114.467L128.868 114.301C127.823 114.212 126.764 114.25 125.719 114.288C121.512 114.327 117.305 115.017 113.228 116.053C105.046 118.15 97.3937 122.151 91.1866 127.636C88.0896 130.385 85.4699 133.581 83.2375 136.982L81.7405 139.628L81.3663 140.293L81.0695 140.984L80.463 142.377C79.5855 144.218 79.0177 146.085 78.5273 148.015C74.8882 163.511 82.3471 181.729 95.871 190.155C101.639 193.837 108.505 195.269 115.421 194.578C118.854 194.246 122.235 193.389 125.487 192.085C128.739 190.756 131.862 188.991 134.804 186.907C140.714 182.739 145.863 177.293 150.38 171.348C154.883 165.377 158.742 158.857 161.981 152.03C168.291 138.222 173.311 123.506 175.905 108.573C177.234 101.094 177.866 93.5256 177.763 85.9824C177.75 82.2108 177.428 78.4519 177.028 74.7059C176.498 70.9982 175.892 67.2907 174.937 63.6598C173.195 56.8198 170.382 49.4683 166.356 42.6411L164.846 40.0841L163.194 37.6039C162.136 35.9163 160.858 34.3948 159.684 32.7967C157.167 29.7411 154.587 26.7877 151.748 24.2307C151.167 23.6937 150.586 23.1184 149.941 22.5559C149.283 22.0189 148.599 21.4691 147.902 20.8938C146.547 19.7048 144.921 18.6948 143.334 17.5313C140.004 15.4218 136.417 13.2995 132.507 11.8548C124.79 8.63302 116.299 7.63566 110.066 7.57173C104.672 7.52059 99.0326 8.22382 94.0256 9.8603C88.2831 11.7397 83.9472 14.0667 80.7727 16.1762C79.108 17.1351 77.8563 18.1962 76.7078 18.9888C75.5205 19.7559 74.6818 20.523 73.9333 21.0344C70.9781 23.1056 70.3071 22.249 72.1912 18.0172C73.0816 16.1505 70.6555 16.9304 75.4044 12.4045C75.6109 12.2255 76.0367 11.9059 76.2303 11.7397L79.1596 9.38726C80.1791 8.65852 81.2631 8.0193 82.3212 7.34169C83.3794 6.63851 84.5021 6.07592 85.6506 5.52616C86.7991 5.00197 87.9089 4.34996 89.1219 3.95363L92.7223 2.63673C93.9353 2.26597 95.1871 1.97203 96.4259 1.63962C97.6647 1.28164 98.9294 1.07695 100.194 0.872393C101.459 0.693403 102.723 0.386662 104.001 0.335522C109.111 -0.252589 114.286 -0.00971107 119.396 0.616755C124.519 1.25601 129.526 2.64951 134.404 4.38827C146.444 8.79911 156.677 16.8665 164.588 26.532C172.511 36.2359 178.15 47.5762 181.57 59.479C185.015 71.4203 185.945 83.9239 185.183 96.1464C184.409 108.407 181.918 120.464 178.305 132.085C176.498 137.902 174.408 143.617 172.111 149.23C169.84 154.906 167.117 160.468 164.033 165.799C160.91 171.118 157.413 176.257 153.374 181.026C149.347 185.795 144.792 190.219 139.579 193.926C134.391 197.647 128.455 200.613 122.028 202.134C118.828 202.901 115.512 203.311 112.195 203.323C108.905 203.349 105.575 202.991 102.297 202.173C95.7678 200.549 89.8059 197.148 84.9796 192.737C80.1275 188.314 76.3077 182.931 73.5978 177.076C70.2555 169.89 68.5908 161.938 68.978 153.935C69.1586 149.946 69.9329 145.944 71.2492 142.121C71.546 141.15 71.9718 140.255 72.3718 139.334L73.5849 136.598C74.0494 135.716 74.5656 134.859 75.056 133.99C75.5722 133.133 75.998 132.226 76.6174 131.446C81.0695 124.823 87.0314 119.351 93.7288 115.222C100.452 111.105 107.95 108.369 115.692 106.95C119.551 106.196 123.512 105.953 127.448 105.901C129.423 105.978 131.397 106.055 133.372 106.259L136.314 106.668L137.785 106.886L139.217 107.205C146.908 108.829 154.264 111.808 160.949 115.797C174.227 123.915 184.951 135.678 192.113 149.243C196.075 156.684 199.017 164.585 200.953 172.729C202.953 180.873 203.895 189.247 203.933 197.634V197.353C204.217 206.11 203.572 214.843 202.385 223.473C201.727 227.768 201.043 232.077 199.998 236.296L198.539 242.65L196.746 248.915C195.7 252.891 194.191 256.739 192.874 260.651C192.229 262.62 191.364 264.5 190.616 266.43C189.816 268.348 189.106 270.291 188.242 272.171L185.622 277.822L184.306 280.647L182.86 283.409L179.957 288.932C178.95 290.76 177.853 292.524 176.795 294.327C172.601 301.551 167.762 308.378 162.742 315.064C157.516 321.585 152.135 328.003 146.173 333.858C140.366 339.855 133.991 345.263 127.526 350.479C125.887 351.745 124.196 352.959 122.532 354.187C120.854 355.401 119.228 356.692 117.473 357.792C114.002 360.055 110.621 362.407 107.033 364.478C99.9101 368.672 92.3997 372.328 84.4763 374.988C76.5658 377.634 68.1521 379.156 59.7254 378.964C57.1445 378.836 53.428 378.772 49.5437 377.89Z" fill="black"/>
</svg>
