<svg width="287" height="249" viewBox="0 0 287 249" fill="none" xmlns="http://www.w3.org/2000/svg">
<path d="M286.376 146.957C285.568 141.474 284.109 136.106 282.029 130.967C281.863 130.562 281.684 130.17 281.505 129.778C284.867 120.642 286.557 110.977 286.496 101.244C286.446 89.7202 284.303 78.3005 280.171 67.5394C276.086 56.7347 269.983 46.8023 262.188 38.2691C261.211 37.1991 260.223 36.1409 259.163 35.1541C258.103 34.1673 257.09 33.133 255.971 32.2057C253.827 30.2202 251.445 28.639 249.17 26.8795C246.878 25.1646 244.492 23.577 242.025 22.1239C239.582 20.6216 237.057 19.2563 234.462 18.0342C224.146 13.0509 213.13 9.66344 201.793 7.98819C181.832 5.10613 161.483 6.56185 142.137 12.2561C134.919 7.33003 126.84 3.79754 118.318 1.84145C111.985 0.379001 105.482 -0.216928 98.9884 0.0700149C92.5248 0.388421 86.125 1.49848 79.9327 3.37516C78.3607 3.83882 76.8124 4.35009 75.276 4.90887C72.1278 4.39432 68.9367 4.18725 65.7482 4.29062C58.4738 4.48485 51.3468 6.38248 44.9419 9.83073C41.8201 11.5148 38.9365 13.6057 36.3669 16.0486L34.4494 17.9033C33.7944 18.5097 33.2584 19.2348 32.6749 19.9006L30.9479 21.9457L29.4235 24.1569C25.4439 30.0462 22.675 36.6655 21.2772 43.631C21.1224 44.6297 20.9557 45.6519 20.777 46.6862L20.5269 48.2556C20.5269 48.7431 20.4555 49.2424 20.4078 49.7418C13.4546 60.1244 8.09176 71.4845 4.49637 83.4468C0.818374 95.6679 -0.62194 108.451 0.244579 121.182C1.17122 133.959 4.60694 146.43 10.356 157.883C13.2062 163.613 16.6511 169.028 20.6341 174.04C24.5936 179.104 29.1166 183.703 34.1159 187.748C35.4617 188.83 36.8433 189.852 38.2605 190.851C39.751 199.067 42.7728 206.931 47.169 214.034C51.874 221.525 57.9652 228.054 65.117 233.27C72.1981 238.503 80.1033 242.521 88.5078 245.159C96.8971 247.85 105.673 249.143 114.483 248.987C123.347 248.88 132.112 247.118 140.327 243.792C148.552 240.393 155.996 235.357 162.205 228.99C165.346 225.813 168.192 222.359 170.709 218.671C178.973 216.945 186.999 214.231 194.612 210.586C196.017 211.359 197.434 212.084 198.875 212.762C204.029 214.964 209.444 216.494 214.989 217.315C220.521 218.031 226.118 218.091 231.663 217.494C237.179 216.812 242.597 215.5 247.813 213.582C253.008 211.576 257.939 208.945 262.497 205.747C267.03 202.443 271.093 198.539 274.574 194.144C277.944 189.669 280.696 184.763 282.756 179.556C284.71 174.357 286.022 168.94 286.662 163.423C287.194 157.942 287.098 152.417 286.376 146.957ZM235.998 27.9021L241.953 31.5636C243.882 32.8595 245.693 34.3099 247.574 35.6652C251.22 38.4747 254.586 41.6281 257.626 45.0814C263.707 52.0787 268.599 60.0225 272.109 68.5976C275.569 77.0575 277.698 86.0003 278.421 95.1096C278.711 99.4654 278.675 103.837 278.314 108.187C277.934 112.231 277.233 116.239 276.217 120.171C275.384 118.983 274.526 117.794 273.609 116.605C266.568 107.821 257.058 101.338 246.3 97.9869C240.912 96.2742 235.281 95.447 229.626 95.5377L228.031 95.5972C228.281 94.9433 228.519 94.2893 228.781 93.6473C229.162 92.5892 229.424 91.4954 229.746 90.4254C230.087 89.36 230.37 88.2765 230.591 87.1798C232.531 78.4344 232.676 69.3877 231.02 60.5845L230.377 57.3032L229.519 54.0811C228.995 51.9173 228.15 49.8488 227.447 47.7445C225.829 43.6089 223.835 39.6295 221.492 35.8556C219.158 32.046 216.47 28.4636 213.465 25.1557L211.083 22.7779L209.892 21.589L208.618 20.495L206.069 18.3076C205.283 17.6894 204.461 17.1188 203.687 16.5362C205.795 16.9286 207.903 17.3802 209.987 17.8795C219.068 20.0185 227.818 23.374 235.998 27.8544V27.9021ZM195.017 201.61C191.372 199.228 188.07 196.36 185.203 193.086L183.262 190.851C183.095 190.649 182.94 190.423 182.773 190.209C183.345 187.498 183.81 184.764 184.107 182.017C185.061 173.22 184.518 164.324 182.5 155.707C181.45 151.39 179.991 147.182 178.141 143.141L177.45 141.631L176.89 140.561C176.756 140.275 176.605 139.996 176.437 139.729L176.199 139.325L176.092 139.134C176.092 139.134 176.235 139.134 176.295 139.134L177.224 139.004L177.676 138.92L178.796 138.659C179.867 138.385 180.975 138.171 182.047 137.862L185.227 136.828C185.751 136.649 186.287 136.507 186.811 136.305L188.312 135.686C188.256 137.377 188.32 139.069 188.502 140.751C188.597 141.476 188.657 142.202 188.776 142.927L189.276 145.067C189.602 146.501 190.048 147.905 190.61 149.263C191.143 150.643 191.784 151.979 192.528 153.258C192.706 153.579 192.861 153.912 193.052 154.233L193.659 155.148C194.052 155.764 194.478 156.36 194.933 156.932C198.507 161.607 203.252 165.261 208.689 167.525C213.976 169.708 219.641 170.835 225.363 170.842C226.065 170.842 226.756 170.842 227.447 170.842C227.066 171.52 226.661 172.197 226.256 172.863C219.207 184.002 209.58 193.286 198.185 199.934C197.125 200.457 196.065 200.992 195.017 201.563V201.61ZM166.624 211.597C151.654 214.434 136.225 213.721 121.581 209.516C115.766 207.776 110.144 205.45 104.8 202.573C105.563 202.371 106.313 202.145 107.075 201.919C113.303 200.048 119.23 197.298 124.678 193.752L126.738 192.444C127.393 191.968 128.024 191.457 128.679 190.958C129.954 189.935 131.288 189.032 132.502 187.89C134.956 185.716 137.211 183.328 139.243 180.757C143.315 175.617 146.532 169.857 148.771 163.697C151.047 157.513 152.212 150.977 152.213 144.389C152.23 137.67 150.702 131.036 147.747 124.998C144.709 118.918 140.162 113.716 134.539 109.888C134.194 109.65 133.836 109.448 133.491 109.222L133.932 108.889C134.98 108.092 135.897 107.165 136.873 106.297C137.85 105.429 138.731 104.442 139.553 103.432C141.033 101.716 142.371 99.883 143.555 97.9512C143.879 97.7794 144.193 97.5889 144.496 97.3806L146.365 96.0846C151.28 92.5563 155.415 88.0563 158.513 82.8643C164.646 72.5612 167.09 60.4839 165.445 48.6124C165.445 48.2795 165.35 47.9584 165.302 47.6374C166.421 47.7737 167.553 47.7737 168.672 47.6374C170.534 47.4402 172.304 46.7278 173.782 45.5807C174.734 44.7009 175.08 44.035 174.973 43.7021C174.865 43.3692 174.127 43.5121 172.948 43.8925C171.229 44.3375 169.438 44.4264 167.684 44.154C166.548 43.9675 165.44 43.6399 164.385 43.1791C163.394 39.1646 161.893 35.2932 159.919 31.6588C158.955 29.9047 157.893 28.2058 156.739 26.5704C157.38 24.8271 158.297 23.1975 159.454 21.7434C161.724 18.8839 164.694 16.6565 168.077 15.2759C173.129 14.7497 178.206 14.4959 183.286 14.5152C186.62 15.3067 189.844 16.5045 192.885 18.0818C203.585 23.8864 212.257 32.8121 217.741 43.6667C223.369 54.4653 225.759 66.6544 224.624 78.7743C223.993 84.9957 222.322 91.0677 219.682 96.7385C217.42 97.2799 215.205 98.0037 213.06 98.9024C210.579 99.9491 208.219 101.261 206.021 102.814C204.902 102.814 203.794 102.814 202.687 102.814C201.193 102.943 199.709 103.169 198.244 103.491C197.518 103.658 196.779 103.801 196.065 104.003L193.945 104.692C193.244 104.924 192.556 105.194 191.884 105.5C191.217 105.798 190.515 106.059 189.872 106.392C188.585 107.082 187.263 107.736 186.061 108.544C183.623 110.088 181.338 111.86 179.236 113.835C175.109 117.76 171.65 122.33 168.994 127.364C167.977 129.237 167.105 131.184 166.386 133.19H166.076L164.885 133.356H164.599C164.504 133.356 164.361 133.356 164.468 133.475L164.766 133.975L165.564 135.33L164.968 137.065C164.73 137.731 164.611 138.433 164.432 139.11C164.123 140.478 163.754 141.833 163.492 143.212C162.551 148.708 162.299 154.299 162.741 159.857C163.307 165.389 164.506 170.837 166.314 176.097C168.2 181.327 170.686 186.322 173.722 190.982C174.044 191.469 174.413 191.945 174.758 192.42C174.151 194.655 173.448 196.867 172.626 199.042C171.045 203.399 169.034 207.589 166.624 211.549V211.597ZM44.5608 179.188C44.352 167.01 47.1757 154.971 52.7785 144.151L53.1358 143.486C54.6548 150.131 56.7961 156.619 59.5313 162.864C65.2371 175.998 73.7011 187.755 84.3513 197.342C73.2433 197.363 62.276 194.863 52.2783 190.03C49.7803 188.795 47.3619 187.405 45.0372 185.869C44.757 183.637 44.598 181.39 44.5608 179.14V179.188ZM87.6026 190.173C82.8097 185.636 78.5138 180.602 74.7877 175.157C71.0755 169.685 67.9234 163.854 65.379 157.752C62.2599 150.255 60.0682 142.406 58.8525 134.379C63.4243 128.163 69.0707 122.813 75.5262 118.578C76.4313 118.804 77.3364 119.018 78.2297 119.208C82.4597 120.07 86.7464 120.626 91.0565 120.873C101.053 121.531 111.076 120.08 120.474 116.617C122.361 115.875 124.206 115.03 126 114.084C126.559 114.37 127.119 114.655 127.655 114.964C132.634 117.746 136.781 121.8 139.672 126.71C142.523 131.698 144.087 137.316 144.222 143.058C144.39 148.951 143.462 154.825 141.482 160.38C139.738 165.401 137.244 170.13 134.086 174.409C132.453 176.622 130.641 178.697 128.667 180.615C126.595 182.542 124.399 184.333 122.093 185.976C114.035 191.428 104.86 195.018 95.2368 196.486C92.5737 194.512 90.0249 192.388 87.6026 190.126V190.173ZM57.7568 119.113C57.7568 116.855 57.8878 114.595 58.0783 112.348C60.1665 113.371 62.2587 114.298 64.3548 115.131C64.9265 115.356 65.5458 115.547 66.0817 115.761C64.6763 116.866 63.3067 118.008 62.0086 119.244C60.7104 120.48 59.174 122.014 57.8282 123.465C57.7806 121.99 57.7449 120.516 57.7568 119.066V119.113ZM140.458 21.1966C141.951 22.4038 143.382 23.6854 144.746 25.0366C145.46 25.8094 146.27 26.4989 146.913 27.3311L148.926 29.7089C149.259 30.1963 149.605 30.6721 149.95 31.1596C150.013 33.3224 150.49 35.453 151.356 37.4367C152.331 39.4333 153.649 41.244 155.25 42.7867L155.977 43.4049C156.311 44.4357 156.574 45.4886 156.763 46.5556L157.096 48.0893C157.215 48.6006 157.227 49.1234 157.299 49.6466C157.406 50.6809 157.584 51.7273 157.644 52.7735L157.715 55.9239C157.715 56.982 157.608 58.0284 157.572 59.0865C157.281 63.3016 156.386 67.4531 154.917 71.4152C154.592 72.4139 154.194 73.3874 153.726 74.3279C153.325 75.2954 152.864 76.2366 152.344 77.1457L150.772 79.8564L149.248 81.9488C149.561 79.5357 149.601 77.0948 149.367 74.6727C149.258 73.3957 149.079 72.1256 148.831 70.8683C148.521 69.6081 148.116 68.3718 147.747 67.1353C146.025 62.3862 143.234 58.095 139.589 54.5925C136.172 51.301 132.206 48.6294 127.87 46.6981C119.572 42.922 110.305 41.8089 101.347 43.512C103.331 41.37 105.477 39.3827 107.766 37.5676C111.23 34.824 114.924 32.3819 118.806 30.2679C120.759 29.1979 122.736 28.1754 124.761 27.2362C126.786 26.297 128.906 25.4767 130.978 24.585C134.051 23.3129 137.242 22.1833 140.494 21.149L140.458 21.1966ZM149.772 18.5335C151.391 18.1292 153.011 17.7607 154.655 17.3446C153.751 18.5118 152.954 19.7573 152.273 21.066C151.475 20.1862 150.629 19.33 149.772 18.4859V18.5335ZM91.4971 63.533C91.5636 62.5234 91.715 61.5212 91.9497 60.5369C92.1224 59.54 92.3733 58.5582 92.7 57.6004C93.2085 56.0116 93.8417 54.465 94.5937 52.9755C97.0494 51.8769 99.6115 51.0325 102.24 50.4552C105.287 49.7788 108.414 49.5345 111.529 49.7299C114.674 49.9095 117.785 50.4686 120.795 51.3945C123.78 52.3589 126.642 53.6673 129.322 55.2938C131.928 56.9473 134.296 58.9471 136.361 61.2382C138.318 63.5487 139.883 66.1631 140.994 68.9779C143.023 74.7498 143.023 81.0393 140.994 86.8112C140.529 88.2075 139.968 89.5702 139.315 90.8893C137.744 91.8081 136.103 92.6031 134.408 93.2671C132.519 93.9251 130.568 94.3872 128.584 94.646C124.498 95.1359 120.356 94.8495 116.377 93.802C108.26 91.7667 101.103 86.9799 96.13 80.2604C93.7961 77.0177 92.2507 73.277 91.6162 69.3346C91.2998 67.4002 91.2597 65.431 91.4971 63.4854V63.533ZM83.2794 68.0624C83.4871 71.1846 84.1615 74.2584 85.2803 77.1814C87.5167 82.9181 91.1323 88.0176 95.8085 92.0306C100.366 95.9903 105.665 99.0088 111.398 100.912C117.172 102.877 123.311 103.535 129.37 102.837L130.204 102.707C128.985 103.739 127.705 104.696 126.369 105.572C123.06 104.2 119.609 103.199 116.079 102.588C109.621 101.479 103.026 101.415 96.5469 102.398C90.082 103.353 83.8081 105.319 77.9557 108.223C76.4194 108.948 74.9307 109.78 73.4777 110.601C68.4734 109.168 63.6319 107.22 59.0311 104.787C60.4062 96.5118 63.0367 88.4938 66.832 81.0096C69.783 75.1787 73.5306 69.7852 77.9676 64.9834C79.0395 63.7945 80.2543 62.7006 81.4096 61.5592L83.7915 59.5382C83.5414 60.7865 83.4342 62.0585 83.2913 63.3307C83.1985 64.1197 83.1627 64.9143 83.1841 65.7084V66.8973L83.2794 68.0624ZM115.984 110.589C115.305 110.815 114.638 111.041 113.959 111.243C107.676 113.035 101.162 113.889 94.6294 113.775C91.7948 113.724 88.9646 113.529 86.1496 113.193C88.4798 112.298 90.867 111.559 93.2955 110.981C99.1078 109.632 105.1 109.231 111.041 109.792C112.703 109.939 114.353 110.189 115.984 110.542V110.589ZM176.878 180.817L175.592 178.213C175.211 177.298 174.865 176.37 174.508 175.455C174.151 174.539 173.734 173.624 173.484 172.661C171.02 165.13 170.096 157.181 170.768 149.287C170.923 148.098 171.102 146.909 171.292 145.721C171.364 145.875 171.435 146.018 171.495 146.173C174.003 151.663 175.707 157.484 176.557 163.459C177.358 169.195 177.466 175.007 176.878 180.769V180.817ZM189.479 127.186C186.487 128.631 183.38 129.824 180.189 130.753C179.474 131.002 178.736 131.109 178.01 131.311L175.782 131.834C176.574 130.304 177.444 128.816 178.391 127.376C181.816 122.085 186.454 117.684 191.92 114.536C193.316 113.738 194.778 113.062 196.291 112.515C193.83 115.945 191.88 119.713 190.503 123.702C190.11 124.784 189.776 125.961 189.479 127.138V127.186ZM207.546 111.374L207.891 111.077C208.391 111.077 208.88 111.183 209.368 111.267L210.13 111.433C207.155 114.865 203.821 117.97 200.186 120.694C202.097 117.173 204.585 113.994 207.546 111.29V111.374ZM219.348 162.603C217.484 162.304 215.647 161.851 213.858 161.248C212.965 160.974 212.119 160.582 211.25 160.249C210.38 159.916 209.57 159.476 208.784 158.989C205.59 157.197 202.82 154.74 200.662 151.784C198.519 148.827 197.059 145.432 196.386 141.845C195.802 138.547 195.778 135.176 196.315 131.87L197.363 131.264L200.233 129.552C206.728 125.332 212.516 120.116 217.383 114.096C217.526 114.18 217.669 114.239 217.8 114.322C220.471 115.863 222.903 117.786 225.017 120.029C227.132 122.321 228.967 124.855 230.484 127.578C231.961 130.326 233.093 133.245 233.854 136.269C234.009 137.03 234.236 137.779 234.343 138.54L234.664 140.834C234.809 142.415 234.868 144.003 234.843 145.59C234.79 148.766 234.39 151.928 233.652 155.018C233.05 157.649 232.253 160.232 231.27 162.746C227.307 163.236 223.294 163.172 219.348 162.555V162.603ZM242.179 136.744C240.312 126.831 235.11 117.851 227.435 111.29C225.782 109.867 224 108.602 222.111 107.51L222.338 107.165L223.171 105.715L224.362 103.61C225.643 103.388 226.935 103.237 228.233 103.158C236.056 102.825 243.837 104.461 250.862 107.914C257.938 111.35 264.069 116.455 268.726 122.787C270.327 124.999 271.761 127.328 273.014 129.754C270.819 134.892 267.951 139.718 264.486 144.104L262.414 146.577L260.187 148.954C258.71 150.46 257.117 151.847 255.423 153.104C252.012 155.65 248.285 157.744 244.335 159.333C243.073 159.845 241.786 160.285 240.5 160.701C242.942 152.942 243.517 144.719 242.179 136.697V136.744ZM123.249 11.7093C126.241 12.7406 129.138 14.0294 131.907 15.5613L130.537 16.0367C129.203 16.536 127.917 17.1187 126.595 17.6656L122.677 19.3061C121.367 19.8649 120.081 20.4951 118.794 21.1371C113.618 23.6816 108.694 26.7069 104.086 30.1727C99.3683 33.6825 95.1565 37.823 91.5686 42.4778C90.1202 44.3956 88.8297 46.4271 87.7098 48.5529C82.9071 51.2125 78.4981 54.5255 74.6091 58.3969C62.9613 69.9885 55.6726 85.0993 52.4451 100.9C48.4951 98.2417 44.8452 95.1644 41.5595 91.7214C37.9468 87.8843 34.9065 83.5479 32.5319 78.8457C30.2004 74.1567 28.5942 69.1421 27.768 63.9727C27.2348 60.6636 27.0036 57.3132 27.0773 53.9624C29.2448 50.6929 31.3529 47.8276 33.2346 45.5331C43.9534 32.3126 57.5543 21.0181 73.3229 14.2534C75.2919 13.4053 77.2769 12.6405 79.2777 11.9589C80.6116 12.2918 81.9455 12.6841 83.2556 13.1478C83.732 13.338 84.7681 13.7302 85.2803 13.9561C87.461 14.919 89.5703 16.0354 91.5924 17.297C92.4085 17.8228 93.2601 18.2917 94.1411 18.7001C95.1296 19.1519 95.3321 18.6999 97.0471 20.0315C100.965 23.1345 102.728 25.5121 103.431 25.5716C103.764 25.5716 103.764 25.1674 103.431 24.1569C103.188 23.4983 102.889 22.8621 102.537 22.2548C102.323 21.8744 102.085 21.4583 101.823 21.066L100.882 19.6867C99.0486 17.1979 96.8759 14.9769 94.4269 13.0883C92.6522 11.7152 90.7591 10.502 88.7698 9.4624C91.8432 8.85257 94.955 8.45533 98.0832 8.27351C106.614 7.70472 115.173 8.8569 123.249 11.6617V11.7093ZM31.8293 33.5847C33.9994 28.9794 36.9897 24.8061 40.6544 21.268C44.2429 17.7297 48.5641 15.019 53.3144 13.3263C55.9266 12.3604 58.6271 11.6516 61.3774 11.21C56.0695 14.1604 51.018 17.5487 46.2758 21.3394C40.6445 25.8736 35.4129 30.8811 30.6383 36.3073C31.0075 35.3443 31.4005 34.429 31.8293 33.5374V33.5847ZM24.6834 166.253C21.1965 161.452 18.2302 156.295 15.8344 150.869C13.4836 145.694 11.6448 140.302 10.3441 134.771C9.10535 129.563 8.33609 124.256 8.04549 118.911C7.78898 113.946 7.93234 108.968 8.47422 104.026C9.36295 95.541 11.3032 87.1987 14.2505 79.1905C16.0739 74.211 18.2345 69.361 20.7174 64.6743C20.8604 65.554 21.0033 66.4338 21.1343 67.3254C21.432 68.5143 21.7298 69.7628 22.0156 70.9992C23.3823 76.0643 25.4084 80.9286 28.0419 85.4679C30.8048 90.0936 34.1378 94.3552 37.9628 98.1532C41.7431 101.953 45.9468 105.307 50.4918 108.152C50.7062 108.295 50.9325 108.413 51.1588 108.556C50.2537 116.293 50.2537 124.109 51.1588 131.846C47.0275 137.879 43.723 144.437 41.3332 151.344C39.2585 157.421 37.8918 163.716 37.2601 170.105C36.9801 173.299 36.8847 176.506 36.9743 179.711C32.3942 175.676 28.2761 171.146 24.6953 166.205L24.6834 166.253ZM151.868 228.539C142.376 236.041 130.845 240.523 118.77 241.402C106.599 242.334 94.3849 240.243 83.2199 235.315C72.056 230.53 62.4091 222.799 55.3153 212.952C51.8706 208.051 49.2033 202.65 47.4072 196.938C47.3477 196.76 47.3 196.569 47.2405 196.391C48.2766 196.938 49.3128 197.485 50.3727 197.984C56.236 200.702 62.4178 202.676 68.7733 203.857C77.0128 205.457 85.4539 205.746 93.7838 204.713L94.8199 205.426C110.529 215.853 129.358 220.882 147.997 221.025C152.099 221.047 156.198 220.837 160.276 220.395C157.749 223.361 154.937 226.073 151.88 228.491L151.868 228.539ZM176.164 209.326C177.737 206.125 179.097 202.825 180.237 199.446C181.654 200.956 183.119 202.431 184.667 203.81C185.37 204.416 186.108 204.999 186.835 205.534C183.374 206.987 179.83 208.238 176.223 209.278L176.164 209.326ZM278.063 167.917C276.462 175.632 273.19 182.903 268.476 189.222C263.618 195.432 257.412 200.46 250.326 203.928C243.206 207.47 235.437 209.521 227.495 209.956C225.512 210.084 223.524 210.104 221.54 210.016C220.551 210 219.565 209.925 218.586 209.79L215.632 209.481C211.742 208.873 207.929 207.849 204.259 206.425L203.211 205.985C210.719 201.431 217.554 195.853 223.517 189.412C228.968 183.498 233.501 176.802 236.963 169.546C244.054 168.093 250.821 165.366 256.936 161.497C259.438 159.882 261.805 158.065 264.01 156.064C266.162 154.063 268.179 151.923 270.048 149.656C272.632 146.526 274.924 143.167 276.896 139.622C277.337 141.144 277.73 142.689 278.087 144.246C279.626 152.046 279.622 160.071 278.075 167.87L278.063 167.917Z" fill="black"/>
</svg>
