<svg width="288" height="291" viewBox="0 0 288 291" fill="none" xmlns="http://www.w3.org/2000/svg">
<path d="M281.616 92.1919C278.767 84.7572 274.981 77.7167 270.348 71.2414C265.755 64.75 260.401 58.8322 254.4 53.6142C248.453 48.4999 241.872 44.1726 234.82 40.7389C234.379 39.7146 233.914 38.7022 233.39 37.7136C231.819 34.5979 229.931 31.6523 227.757 28.9236C225.583 26.1777 223.123 23.6707 220.42 21.4441C217.686 19.2246 214.714 17.3152 211.558 15.7508C208.347 14.2331 204.958 13.1247 201.47 12.4516C197.975 11.8455 194.415 11.7012 190.882 12.0227C189.476 12.1656 188.083 12.392 186.701 12.6659C177.363 8.22284 167.509 4.95441 157.366 2.93519C135.383 -1.34573 112.745 -0.939875 90.9295 4.12623C85.4626 5.31727 80.0792 6.91306 74.7433 8.67581C73.4093 9.1284 72.0992 9.62886 70.7771 10.0934C69.455 10.5579 68.133 11.0581 66.8347 11.606L62.9162 13.2138L59.0691 14.9765L57.1516 15.8578L55.2578 16.8346C54.0667 17.4777 52.7328 18.1089 51.4941 18.7878C49.0405 20.2051 46.5393 21.5392 44.1691 23.1352C39.3415 26.1777 34.7545 29.5863 30.4484 33.3307L27.2445 36.2129C26.2082 37.2015 25.2196 38.2496 24.2072 39.262L22.6947 40.7985L21.2773 42.4182C20.3364 43.5139 19.3716 44.5859 18.4545 45.6936C16.7156 48.0042 14.8814 50.2316 13.3568 52.697C11.7057 55.098 10.2137 57.6043 8.89043 60.2004C3.56422 70.6117 0.561139 82.0553 0.0885971 93.7404C-0.490161 105.507 1.77314 117.24 6.68703 127.947C7.03243 128.674 7.3897 129.388 7.75892 130.103C6.86274 132.715 6.11515 135.375 5.51975 138.071C4.2454 144.033 3.71339 150.13 3.93572 156.222C4.30041 168.459 7.72796 180.408 13.9047 190.977C17.0393 196.288 20.9448 201.105 25.4936 205.27C27.9574 207.494 30.6207 209.488 33.4497 211.225C34.1763 212.416 34.9505 213.607 35.7485 214.703C36.4886 215.783 37.2837 216.825 38.1305 217.823C38.9347 218.871 39.8018 219.87 40.727 220.813C41.656 221.754 42.5612 222.707 43.5141 223.636L46.5393 226.208L46.6585 226.304L46.8609 226.661C49.0126 230.041 51.4216 233.251 54.0667 236.261C59.3311 242.264 65.4323 247.479 72.1825 251.744C78.8672 256.023 86.072 259.43 93.6213 261.88C96.2178 262.714 98.8381 263.428 101.482 264.048C105.452 268.969 110.072 273.328 115.215 277.006C123.691 283.155 133.474 287.26 143.8 289C160.608 291.855 177.888 289.197 193.062 281.425C200.638 277.564 207.472 272.395 213.25 266.156C214.667 264.56 216.132 263.011 217.406 261.261C218.696 259.525 219.889 257.72 220.98 255.853C221.396 255.091 221.79 254.329 222.171 253.543H222.647C224.789 253.376 226.921 253.09 229.031 252.685C233.231 251.849 237.332 250.572 241.263 248.874C243.264 248.1 245.122 247.051 247.028 246.087C247.969 245.586 248.862 244.991 249.779 244.443C250.696 243.895 251.601 243.347 252.459 242.704L255.055 240.834C255.901 240.203 256.699 239.488 257.533 238.81C259.212 237.499 260.677 235.939 262.225 234.474C262.964 233.712 263.655 232.89 264.369 232.092C265.084 231.294 265.799 230.496 266.43 229.638L268.371 227.09C268.979 226.208 269.562 225.303 270.134 224.41L271.015 223.064C271.289 222.599 271.528 222.123 271.79 221.658L273.326 218.836L274.636 215.894L275.291 214.417L275.827 212.904L276.875 209.855L277.673 206.723L278.066 205.163L278.328 203.578L278.852 200.398C279.742 192.589 279.181 184.683 277.197 177.078C279.386 172.196 281.26 167.18 282.807 162.058C285.085 154.518 286.632 146.777 287.428 138.94C289.095 123.118 287.107 107.124 281.616 92.1919ZM216.823 245.837C215.846 245.837 214.87 245.73 213.917 245.622C212.964 245.515 211.892 245.324 210.903 245.11C213.285 243.847 215.648 242.526 217.99 241.144C217.743 242.736 217.352 244.303 216.823 245.825V245.837ZM201.923 240.799C200.5 239.495 199.395 237.881 198.695 236.082C197.995 234.283 197.718 232.348 197.885 230.425C197.99 229.596 198.231 228.791 198.6 228.042C198.773 227.678 198.981 227.331 199.219 227.006C199.457 226.685 199.755 226.434 199.993 226.125C201.185 225.004 202.742 224.353 204.376 224.291C206.357 224.235 208.326 224.601 210.154 225.365C211.981 226.129 213.625 227.273 214.977 228.721C215.298 229.079 215.584 229.472 215.894 229.829C216.204 230.186 216.382 230.627 216.644 231.02C216.906 231.413 217.002 231.854 217.204 232.211C217.287 232.414 217.359 232.64 217.43 232.878C214.548 234.676 211.63 236.451 208.652 238.011C206.604 239.131 204.543 240.191 202.459 241.227C202.28 241.072 202.149 240.941 201.923 240.763V240.799ZM224.267 228.388C223.435 226.577 222.339 224.899 221.015 223.409C219.368 221.651 217.46 220.156 215.358 218.979C213.244 217.838 210.966 217.035 208.605 216.596C206.13 216.157 203.593 216.205 201.137 216.74C198.539 217.381 196.161 218.71 194.253 220.587C192.367 222.454 191.028 224.802 190.382 227.375C189.246 232.243 190.026 237.36 192.561 241.668C193.201 242.775 193.939 243.824 194.765 244.8C190.493 246.658 186.15 248.358 181.735 249.898C179.353 250.708 177.09 251.506 174.731 252.197C172.373 252.888 169.967 253.614 167.585 254.257C162.821 255.52 158.033 256.596 153.221 257.485C143.596 259.257 133.811 260.008 124.029 259.724C118.187 259.556 112.37 258.894 106.639 257.747C106.211 257.211 105.794 256.675 105.448 256.092C104.627 254.901 103.757 253.71 102.971 252.519L100.756 248.814C99.0785 245.758 97.5948 242.6 96.3131 239.357C99.5883 239.01 102.841 238.477 106.056 237.761C111.091 236.565 116.016 234.943 120.777 232.914C121.968 232.39 123.159 231.806 124.291 231.258C125.422 230.71 126.601 230.067 127.733 229.46C130.057 228.228 132.29 226.83 134.415 225.279C138.67 222.16 142.495 218.492 145.789 214.369C149.149 210.236 151.864 205.618 153.84 200.672C153.924 200.47 153.983 200.267 154.067 200.065C157.754 199.709 161.42 199.156 165.048 198.409L170.515 197.111L175.815 195.467C177.59 194.967 179.269 194.217 180.961 193.573C182.652 192.93 184.343 192.275 185.939 191.466L190.703 189.167L195.253 186.582C196.755 185.748 198.214 184.837 199.624 183.855C200.089 183.533 200.553 183.223 201.03 182.926C201.613 183.378 202.221 183.819 202.828 184.224C206.823 186.71 211.439 188.019 216.144 187.999C220.628 187.999 225.071 187.159 229.245 185.522C233.311 183.965 237.146 181.861 240.644 179.269C244.156 176.694 247.301 173.653 249.993 170.229C250.66 169.372 251.316 168.478 251.911 167.561C252.507 166.644 253.031 165.727 253.59 164.81C254.15 163.893 254.627 162.94 255.127 161.999L255.865 160.57L256.508 159.105C256.973 158.092 257.402 157.056 257.807 156.02C263.032 162.03 266.91 169.088 269.181 176.72C265.009 185.461 259.811 193.673 253.698 201.184C245.235 211.606 235.324 220.762 224.267 228.376V228.388ZM55.4603 223.231C54.2692 222.445 53.0186 221.599 51.8872 220.694C51.7204 220.396 51.5417 220.122 51.3749 219.824C51.2082 219.526 50.8985 218.883 50.6484 218.419C58.6408 220.379 66.9695 220.533 75.0291 218.872C78.0013 218.248 80.9082 217.347 83.7118 216.18C83.7397 219.079 83.9705 221.972 84.4026 224.838C84.7026 227.293 85.1521 229.728 85.7485 232.128C75.0359 231.93 64.5739 228.853 55.4603 223.219V223.231ZM158.355 51.2676C158.722 52.9667 159.22 54.6354 159.843 56.2583C160.022 56.9133 160.713 58.2354 161.034 58.9143C161.465 59.848 161.958 60.7513 162.511 61.6179L163.202 62.809L163.941 63.7974C164.417 64.4048 164.834 64.9886 165.227 65.4531L166.418 66.6441C166.955 67.2275 167.554 67.7507 168.204 68.2045C168.588 68.4676 168.986 68.71 169.396 68.9308C169.639 69.0584 169.894 69.1621 170.158 69.2405C169.622 69.6574 169.074 70.0505 168.55 70.4912C165.143 73.4026 162.353 76.9663 160.344 80.9724C156.206 88.9233 155.069 98.0976 157.14 106.818C157.847 109.615 158.962 112.291 160.451 114.762L158.843 114.238C157.652 113.833 156.461 113.452 155.27 113.166C140.134 108.901 124.254 107.97 108.724 110.439C103.92 111.225 99.1821 112.372 94.5503 113.869C100.03 103.782 106.792 94.4459 114.667 86.0937C119.493 80.8406 124.598 75.8511 129.96 71.1463C135.28 66.442 140.919 62.1119 146.837 58.1876C150.541 55.659 154.386 53.3445 158.355 51.2556V51.2676ZM180.984 21.4915C181.949 21.0746 182.961 20.7174 183.974 20.3958L186.356 21.5868L187.547 22.1585L188.679 22.8256L193.204 25.4816C193.586 25.7079 193.967 25.9223 194.336 26.1605L195.408 26.9108L197.552 28.4115C198.957 29.4477 200.47 30.353 201.768 31.5202L203.102 32.6398C189.956 32.2145 176.872 34.6063 164.727 39.6549L164.453 39.7741C164.821 38.3267 165.319 36.9154 165.941 35.5578C167.346 32.567 169.302 29.8678 171.706 27.6017C174.424 25.0198 177.572 22.932 181.008 21.4321L180.984 21.4915ZM185.224 41.7392C192.062 40.4967 199.033 40.1485 205.961 40.7031C208.17 40.8741 210.369 41.1644 212.547 41.5726C213.905 43.0971 215.191 44.6692 216.513 46.2175C220.745 51.752 224.341 57.7449 227.233 64.0832L229.281 68.907L229.579 69.7645L229.174 69.4906C221.871 64.9983 213.708 62.0853 205.21 60.939C196.615 59.7216 187.851 60.6965 179.734 63.7735C177.616 64.6179 175.569 65.6296 173.612 66.7988L173.338 66.5845C172.746 66.0917 172.185 65.5625 171.659 65.0003C171.047 64.4045 170.482 63.7636 169.967 63.0829C167.294 59.7411 165.406 55.8417 164.441 51.6726C164.202 50.6562 164.027 49.6258 163.917 48.5877C170.739 45.4763 177.897 43.1587 185.248 41.6799L185.224 41.7392ZM234.605 89.1666L235.248 94.3717C235.542 97.8532 235.657 101.347 235.594 104.841C235.604 106.59 235.524 108.34 235.356 110.081C235.177 111.808 235.082 113.559 234.843 115.286L233.998 120.455C233.712 122.171 233.212 123.85 232.807 125.553C232.592 126.387 232.437 127.256 232.164 128.078L231.354 130.567C231.092 131.353 230.853 132.151 230.591 132.949C226.754 132.443 222.865 132.48 219.038 133.057C214.582 133.745 210.304 135.303 206.449 137.642C205.387 138.307 204.369 139.039 203.4 139.834C202.09 138.643 200.744 137.535 199.35 136.415C195.634 133.473 191.728 130.591 187.654 127.971H187.988C192.342 127.536 196.604 126.436 200.625 124.708C208.53 121.278 215.596 116.174 221.337 109.748C222.777 108.163 224.125 106.497 225.375 104.758C226.018 103.912 226.566 102.983 227.185 102.102L228.829 99.4097C230.941 95.777 232.769 91.986 234.295 88.071C234.295 87.9519 234.391 87.8208 234.427 87.7017C234.51 88.2019 234.581 88.6544 234.629 89.107L234.605 89.1666ZM93.8833 231.901C92.5329 226.683 91.7699 221.329 91.6084 215.941C91.6084 214.595 91.6085 213.25 91.6918 211.904C96.5962 208.564 100.76 204.25 103.924 199.231C105.48 196.767 106.811 194.168 107.902 191.466L110.058 192.657L112.857 193.919C114.703 194.812 116.644 195.432 118.538 196.17C126.127 198.761 134.049 200.249 142.061 200.589C143.181 200.589 144.288 200.589 145.396 200.589C142.924 205.655 139.596 210.257 135.558 214.191C133.557 216.194 131.385 218.019 129.067 219.646C126.694 221.251 124.224 222.707 121.67 224.005C113.007 228.38 103.58 231.041 93.9071 231.842L93.8833 231.901ZM46.6704 209.033C42.3073 194.431 43.1493 178.766 49.0525 164.714C49.6956 163.083 50.4102 161.487 51.1725 159.95C56.1728 160.289 61.1908 159.641 65.9415 158.045C68.8742 157.027 71.6734 155.659 74.2788 153.971C75.6761 153.045 77.0128 152.031 78.2807 150.934C78.2807 151.256 78.3402 151.589 78.376 151.911L78.9834 155.031C79.1591 156.082 79.4018 157.12 79.7099 158.14L80.6627 161.177L81.151 162.702L81.7943 164.167L83.0806 167.109L84.6409 169.908L85.4269 171.301L86.3321 172.611L88.1663 175.232L90.203 177.614C90.5484 178.007 90.87 178.424 91.2273 178.805L92.3469 179.924L92.8114 180.401C90.2413 184.636 88.1937 189.167 86.7133 193.895C85.956 196.398 85.3279 198.939 84.8314 201.506C84.5517 202.783 84.3489 204.076 84.224 205.377L83.9977 207.235L83.2473 207.616L81.2463 208.605L79.162 209.402C78.4709 209.691 77.7629 209.938 77.042 210.141C75.6151 210.586 74.1635 210.948 72.6947 211.225C71.9562 211.356 71.2178 211.523 70.4793 211.642L68.2282 211.88C66.7285 212.033 65.2218 212.109 63.7142 212.106C62.2016 212.106 60.689 211.975 59.1763 211.892C56.1582 211.583 53.173 211.009 50.2554 210.177C49.1 209.796 47.8971 209.403 46.6941 208.974L46.6704 209.033ZM143.371 192.514C142.505 192.529 141.638 192.497 140.775 192.418L138.19 192.24C131.301 191.558 124.539 189.927 118.097 187.392C115.415 186.338 112.811 185.093 110.308 183.664C111.148 179.861 111.516 175.969 111.404 172.075L111.773 171.825C114.011 170.401 116.447 169.313 119.002 168.597C121.56 167.879 124.207 167.526 126.863 167.549C132.092 167.492 137.193 169.167 141.37 172.314C143.338 173.866 144.985 175.788 146.218 177.971C147.441 180.18 148.219 182.608 148.505 185.117C148.76 187.599 148.636 190.105 148.135 192.549L143.371 192.514ZM98.9215 185.749L99.4812 186.165L101.065 187.297C100.171 189.734 99.0502 192.083 97.7185 194.312C96.4406 196.376 94.9647 198.311 93.3116 200.089C93.4069 199.708 93.4784 199.338 93.5737 198.898C94.7916 194.283 96.5968 189.844 98.9452 185.689L98.9215 185.749ZM98.0996 173.219L97.5875 173.862C93.9555 169.999 91.0504 165.512 89.012 160.617C86.999 155.584 85.9408 150.221 85.8914 144.8C88.0485 145.726 90.0876 146.906 91.9657 148.314C96.2908 151.623 99.5936 156.086 101.494 161.189C102.341 163.465 102.944 165.825 103.293 168.228C101.451 169.743 99.7236 171.391 98.1234 173.159L98.0996 173.219ZM75.6961 142.144C73.9758 144.061 72.014 145.747 69.86 147.159C67.4314 148.733 64.7821 149.937 61.9991 150.732C59.9377 151.304 57.822 151.66 55.6866 151.792C57.7262 148.65 59.9911 145.661 62.4636 142.847C66.8121 141.879 71.2889 141.621 75.7199 142.085L75.6961 142.144ZM78.7452 134.808C76.9144 134.524 75.0695 134.341 73.2187 134.26H71.4679L72.3969 133.521L73.8023 132.414C74.2668 132.044 74.779 131.735 75.2792 131.401L78.2449 129.388C78.8761 128.995 79.5194 128.626 80.1625 128.257C79.6146 130.341 79.1382 132.521 78.769 134.76L78.7452 134.808ZM47.4445 151.339C46.7299 151.22 46.0153 151.065 45.3006 150.899C46.6285 149.848 48.0207 148.881 49.4693 148.004C48.7904 149.053 48.1234 150.16 47.4684 151.28L47.4445 151.339ZM156.33 184.522C155.754 178.785 153.348 173.387 149.469 169.122C147.54 167.012 145.294 165.215 142.811 163.797C140.361 162.427 137.743 161.382 135.022 160.689C132.338 160.036 129.589 159.688 126.828 159.653C124.073 159.644 121.325 159.935 118.633 160.522C115.935 161.14 113.317 162.067 110.832 163.285C110.653 163.369 110.475 163.476 110.296 163.571C109.066 158.165 106.672 153.092 103.281 148.707C99.5081 143.919 94.5937 140.156 88.9881 137.761C88.6665 137.618 88.333 137.499 88.0115 137.368C88.7992 135.361 89.374 133.278 89.7266 131.151C90.1374 128.711 90.2095 126.226 89.9409 123.767C89.9409 123.6 90.072 123.421 90.1316 123.243C98.2341 119.935 106.762 117.785 115.465 116.858C125.081 115.914 134.783 116.315 144.288 118.049C151.783 119.438 159.109 121.618 166.144 124.553C172.52 127.204 178.66 130.391 184.498 134.081C189.54 137.203 194.399 140.611 199.052 144.288C198.295 145.226 197.595 146.208 196.956 147.23C194.531 151.06 192.951 155.365 192.323 159.855C191.647 164.474 192.197 169.189 193.919 173.528C194.385 174.703 194.959 175.831 195.634 176.899L193.097 178.578C191.609 179.484 190.072 180.317 188.559 181.187C187.047 182.056 185.451 182.795 183.879 183.569C182.328 184.361 180.738 185.073 179.114 185.701C172.671 188.401 165.924 190.308 159.021 191.382C158.092 191.561 157.152 191.704 156.211 191.823C156.553 189.384 156.6 186.913 156.354 184.462L156.33 184.522ZM171.385 77.4467L172.052 76.8276L173.397 75.6366L174.898 74.4455C176.033 73.603 177.227 72.8426 178.471 72.1704C179.65 72.4494 180.882 72.4167 182.044 72.0753C182.295 71.8729 181.925 71.5393 180.984 71.0867L180.806 71.0152C183.344 69.8688 185.994 68.9907 188.714 68.3949C193.681 67.3687 198.782 67.1595 203.817 67.7756C213.387 68.9067 222.471 72.6112 230.103 78.4949C229.238 81.6903 228.144 84.8191 226.828 87.8567C224.613 93.0462 221.761 97.9394 218.335 102.423C214.966 106.652 210.979 110.35 206.508 113.393C202.404 116.239 197.862 118.395 193.062 119.776C188.955 120.975 184.627 121.216 180.413 120.479C178.136 120.048 175.947 119.243 173.933 118.097C172.918 117.521 171.954 116.86 171.051 116.12C170.594 115.755 170.164 115.356 169.765 114.929C169.372 114.512 168.907 114.155 168.574 113.738C165.497 110.033 163.682 105.444 163.393 100.637L163.274 98.7904L163.333 96.9204V95.9913L163.452 95.0623L163.69 93.1925C164.133 90.7343 164.861 88.3361 165.858 86.0463C166.846 83.7546 168.114 81.5941 169.634 79.6145L170.825 78.2091C171.003 77.8518 171.182 77.5898 171.408 77.3874L171.385 77.4467ZM199.851 168.264L199.66 167.478L199.565 166.668C199.505 166.12 199.398 165.584 199.386 165.024C199.343 163.911 199.382 162.797 199.505 161.689C199.623 160.566 199.818 159.452 200.089 158.355C200.382 157.252 200.748 156.169 201.184 155.115C202.043 152.984 203.189 150.98 204.591 149.16L204.65 149.076C206.925 151.077 209.057 153.03 210.999 154.936C212.559 156.449 214.012 157.902 215.382 159.307C214.655 160.189 213.941 161.07 213.19 161.916C209.602 165.788 205.715 169.372 201.566 172.635C200.759 171.263 200.187 169.765 199.874 168.204L199.851 168.264ZM208.938 144.896C214.095 141.144 220.968 139.655 227.697 140.131C227.692 140.171 227.692 140.211 227.697 140.251L225.315 144.896C223.327 148.47 221.103 151.908 218.657 155.186C216.549 152.697 214.238 150.112 211.689 147.516C210.784 146.67 209.891 145.729 208.962 144.836L208.938 144.896ZM207.747 178.042C208.405 177.555 209.037 177.034 209.641 176.482L211.451 174.874C213.816 172.802 216.074 170.612 218.216 168.311C219.157 167.311 220.063 166.299 220.944 165.286C222.957 167.502 224.708 169.479 226.184 171.134C227.971 173.064 229.329 174.612 230.389 175.625C230.762 175.978 231.16 176.304 231.58 176.601C230.012 177.456 228.389 178.204 226.72 178.84C222.416 180.58 217.733 181.171 213.131 180.555C211.061 180.226 209.072 179.507 207.271 178.435L207.747 178.042ZM232.58 176.017C232.4 175.526 232.193 175.045 231.961 174.576C231.592 173.79 231.08 172.826 230.46 171.718C229.841 170.61 229.031 169.336 228.162 168.002C226.971 166.132 225.482 164.036 223.802 161.796C228.593 155.616 232.594 148.862 235.713 141.692C235.927 141.751 236.13 141.799 236.332 141.87C238.647 142.581 240.898 143.486 243.062 144.574C245.231 145.659 247.314 146.909 249.291 148.314L252.125 150.541C251.061 153.839 249.689 157.029 248.028 160.07C247.433 161.153 246.766 162.19 246.134 163.25L245.134 164.726L244.038 166.156C242.524 168.036 240.841 169.774 239.012 171.349C237.03 173.078 234.893 174.621 232.628 175.958L232.58 176.017ZM65.7152 129.472C63.3447 131.457 61.09 133.576 58.962 135.82L57.3302 136.249C54.7685 137.018 52.265 137.97 49.8385 139.095C47.4154 140.259 45.086 141.61 42.8709 143.133C40.8041 144.609 38.8566 146.246 37.0467 148.028C36.749 147.885 36.4512 147.754 36.1534 147.599C28.0547 143.504 21.2821 137.198 16.6203 129.412C18.142 125.737 20.0378 122.229 22.2778 118.943C25.6469 113.934 29.984 109.649 35.0339 106.341C37.5382 104.762 40.226 103.494 43.0376 102.566C44.4197 102.036 45.8525 101.649 47.3135 101.411C48.7301 101.166 50.1638 101.034 51.6012 101.017C57.4927 101.015 63.2779 102.586 68.3592 105.567C73.4342 108.391 77.5364 112.685 80.1268 117.883C80.3825 118.418 80.6092 118.967 80.8057 119.526C75.4472 122.265 70.4031 125.58 65.7628 129.412L65.7152 129.472ZM35.4031 163.797C36.3376 161.554 37.5372 159.431 38.9762 157.473C40.5016 157.988 42.052 158.425 43.6213 158.783C42.1717 162.013 40.9266 165.331 39.8933 168.717C37.5538 176.378 36.4482 184.362 36.618 192.371C36.7119 196.042 37.1103 199.699 37.809 203.304C36.7347 201.188 35.7997 199.004 35.01 196.766C31.1868 186.07 30.9367 174.064 35.4031 163.797ZM254.21 142.502C251.217 140.298 247.999 138.418 244.61 136.892C242.635 136.007 240.606 135.247 238.536 134.617C238.536 134.533 238.595 134.45 238.619 134.367C238.952 133.319 239.286 132.306 239.608 131.318L240.072 129.841L240.429 128.388C240.894 126.47 241.335 124.66 241.74 122.957C242.144 121.254 242.299 119.622 242.549 118.133C243.801 109.556 243.953 100.855 243.002 92.2396C245.173 95.3928 247.073 98.7235 248.683 102.197C252.904 111.357 255.113 121.315 255.163 131.401C255.186 135.121 254.879 138.836 254.245 142.502H254.21ZM229.972 47.9683C230.629 50.1274 231.143 52.3278 231.508 54.5548C229.842 51.4085 227.992 48.3623 225.97 45.4316L226.149 45.5031C227.34 45.9795 228.531 46.4917 229.722 47.0277L229.972 47.9683ZM201.506 19.5025C208.447 21.2421 214.73 24.9672 219.586 30.2219C221.422 32.159 223.076 34.26 224.529 36.4987C222.004 35.6491 219.435 34.9265 216.823 34.3309C216.466 33.9498 216.12 33.5687 215.751 33.1995C210.382 27.7698 204.407 22.9743 197.945 18.907C199.155 19.0314 200.356 19.2303 201.542 19.5025H201.506ZM9.23588 84.4978C10.2954 78.3838 12.1368 72.4312 14.7147 66.7869C15.9934 63.9651 17.4866 61.2457 19.1811 58.6523C20.0505 57.3659 20.8723 56.032 21.7775 54.7694L24.6122 51.0413C32.6442 41.3207 42.4243 33.189 53.4474 27.0657C64.5483 20.8452 76.4281 16.1309 88.7738 13.0471C101.135 9.91315 113.826 8.26171 126.577 8.12797C139.292 8.02495 151.962 9.62729 164.25 12.8921C165.977 13.2733 167.621 13.9165 169.3 14.4286L171.813 15.2385C172.655 15.4915 173.482 15.7897 174.291 16.1318L175.482 16.6203C174.033 17.3838 172.636 18.2432 171.301 19.1928C169.872 20.2148 168.512 21.3288 167.228 22.5278C165.964 23.7572 164.794 25.079 163.726 26.4821C161.551 29.2788 159.9 32.4464 158.855 35.8317C158.167 38.0787 157.767 40.404 157.664 42.7517C145.939 48.5692 135.034 55.9101 125.232 64.5836C122.647 66.7394 120.205 69.1215 117.668 71.4679C115.132 73.8143 112.69 76.3509 110.284 78.9712C105.219 84.2817 100.523 89.9328 96.2297 95.8843C92.4836 101.074 89.1579 106.554 86.2844 112.273C83.1661 106.948 78.7801 102.476 73.5165 99.2548C68.3364 96.0155 62.5115 93.9467 56.4488 93.1925C53.3834 92.8174 50.2836 92.8174 47.2182 93.1925C45.6756 93.3944 44.1478 93.6968 42.6446 94.0977C41.1797 94.5503 39.7623 95.0386 38.3331 95.5269C32.4554 97.9117 27.111 101.442 22.6113 105.913C18.4321 110.048 14.906 114.795 12.1539 119.991C8.08078 108.621 7.08642 96.3761 9.27157 84.4978H9.23588ZM21.8133 188.809C18.526 183.599 16.0143 177.938 14.3574 172.004C12.7155 166.036 11.8862 159.875 11.8919 153.685C11.8919 152.137 11.9872 150.601 12.0467 149.052C12.1063 147.504 12.3445 145.979 12.5112 144.455C12.7971 142.668 13.1186 140.882 13.5117 139.119C18.1615 145.132 23.9895 150.133 30.6389 153.817C31.0319 154.031 31.4369 154.233 31.8299 154.436L31.6513 154.71L30.5794 156.461C30.234 157.056 29.96 157.652 29.6622 158.271C29.0905 159.462 28.4712 160.653 27.9352 161.928L26.5893 165.727C26.1486 167.001 25.9343 168.324 25.6008 169.622C24.4559 174.84 24.1543 180.208 24.7075 185.522C25.009 188.68 25.5707 191.807 26.3869 194.872C24.7321 192.961 23.2157 190.935 21.849 188.809H21.8133ZM82.1635 249.148C77.9037 246.894 73.847 244.276 70.0387 241.323C67.7755 239.58 65.6197 237.703 63.5831 235.701C67.3282 237.069 71.1862 238.105 75.1125 238.798C79.346 239.485 83.6273 239.835 87.9162 239.846V239.941C88.3569 241.132 88.8572 242.323 89.3336 243.514C89.7803 244.73 90.2891 245.923 90.8581 247.087C91.9236 249.445 93.1164 251.743 94.4312 253.972L94.8004 254.567C90.468 253.066 86.2555 251.238 82.1992 249.1L82.1635 249.148ZM209.224 258.676C207.636 260.554 205.933 262.332 204.126 264C187.452 279.603 162.118 285.748 139.989 279.936C130.616 277.5 121.967 272.843 114.774 266.358C115.453 266.442 116.12 266.513 116.799 266.573C124.605 267.251 132.456 267.251 140.263 266.573C148.014 265.865 155.707 264.619 163.285 262.845C176.315 259.822 189.004 255.488 201.161 249.91C201.816 250.267 202.483 250.613 203.162 250.91C206.306 252.271 209.64 253.142 213.047 253.495C211.928 255.298 210.673 257.014 209.295 258.628L209.224 258.676ZM269.622 207.14C266.76 216.54 261.376 224.977 254.055 231.532C246.743 238.13 237.84 242.711 228.221 244.824L225.315 245.313C225.458 244.717 225.601 244.122 225.708 243.502C226.124 241.241 226.284 238.939 226.184 236.642C226.184 236.416 226.184 236.201 226.184 235.975C232.975 231.433 239.409 226.38 245.432 220.86C255.731 211.488 264.514 200.576 271.468 188.512C272.011 194.779 271.397 201.094 269.658 207.14H269.622ZM278.293 149.112C277.163 155.017 275.57 160.823 273.528 166.477C273.016 165.381 272.504 164.286 271.956 163.202C270.896 161.356 269.92 159.45 268.681 157.711C268.073 156.83 267.49 155.913 266.871 155.067L264.882 152.542C263.476 150.863 261.987 149.231 260.415 147.683C261.435 143.323 262.037 138.876 262.214 134.402C262.515 125.94 261.404 117.487 258.926 109.391C256.47 101.283 252.691 93.6366 247.742 86.7607C245.6 83.8498 243.239 81.1065 240.679 78.5546C240.096 76.1725 239.488 73.7904 238.69 71.4083C238.833 70.3006 238.976 69.181 239.072 68.0733C239.556 62.5017 239.263 56.8897 238.202 51.3987C240.31 52.6731 242.359 54.0308 244.348 55.4958C249.944 59.7028 255.05 64.5251 259.569 69.8718C264.101 75.2123 267.961 81.0882 271.063 87.3682C274.213 93.6235 276.577 100.244 278.102 107.08C281.11 120.92 281.204 135.234 278.376 149.112H278.293Z" fill="black"/>
</svg>
