<svg width="376" height="243" viewBox="0 0 376 243" fill="none" xmlns="http://www.w3.org/2000/svg">
<path d="M258.421 202.823C259.197 204.405 260.254 206.484 261.756 208.831C263.22 211.203 265.116 213.843 267.471 216.522C272.143 221.905 278.865 227.504 287.19 230.884C291.315 232.58 295.821 233.716 300.48 234.175C305.139 234.621 309.9 234.43 314.508 233.665C323.776 232.172 332.318 228.231 339.001 223.741C346.753 218.512 353.487 211.713 358.49 203.856C363.442 195.974 366.79 187.097 367.465 177.875C368.343 168.653 367.058 159.214 363.977 150.362C360.858 141.51 355.957 133.271 349.821 126.115C343.685 118.96 336.264 112.901 327.989 108.475C326.997 107.85 325.902 107.429 324.832 106.932L321.637 105.465C319.46 104.623 317.233 103.896 315.03 103.144L309.9 101.881L309.047 101.664L308.182 101.524L304.694 100.975L302.95 100.695C302.364 100.618 301.779 100.606 301.193 100.555C282.391 98.871 262.978 104.037 246.849 114.304C241.757 117.468 235.494 122.595 230.707 127.072C229.524 128.207 228.391 129.266 227.347 130.197C226.341 131.166 225.463 132.059 224.661 132.735C223.057 134.1 221.86 134.738 221.351 134.24C220.816 133.717 220.867 132.557 221.491 130.822C221.809 129.955 222.255 128.934 222.853 127.786C223.426 126.613 224.304 125.465 225.246 124.113C229.04 118.794 235.698 111.97 245.436 106.179C257.147 99.1132 270.361 94.5725 283.969 92.9781L289.087 92.519C290.793 92.4169 292.511 92.4552 294.23 92.417C295.083 92.417 295.948 92.3914 296.801 92.4042L299.373 92.5828C301.078 92.7359 302.797 92.7613 304.503 93.0292C311.326 93.8583 317.996 95.6822 324.425 98.1567C330.777 100.822 336.748 104.266 342.272 108.31C347.67 112.519 352.698 117.187 357.039 122.467C358.172 123.743 359.101 125.184 360.145 126.536L361.673 128.59C362.157 129.291 362.589 130.031 363.048 130.745C363.939 132.199 364.881 133.628 365.734 135.108L368.076 139.661C368.916 141.153 369.464 142.786 370.151 144.342C370.787 145.924 371.513 147.48 371.971 149.138L373.512 154.036L374.619 159.061C376.58 168.908 376.516 179.227 374.021 189.112C371.488 198.959 366.612 208.078 360.234 215.846C353.844 223.627 345.939 230.131 337.053 234.876C328.168 239.596 318.213 242.529 308.029 242.95C302.937 243.154 297.807 242.733 292.804 241.636C287.776 240.54 282.913 238.716 278.419 236.267C269.406 231.382 261.819 224.226 256.078 215.923C250.337 207.594 246.327 198.053 244.659 188.015C242.966 178.002 243.667 167.39 247.396 157.709C247.855 156.51 248.402 155.35 248.899 154.176C249.471 153.028 250.07 151.906 250.668 150.771L257.249 154.903C252.374 161.982 246.709 168.513 240.433 174.354C234.106 180.145 227.207 185.285 219.874 189.686C212.504 194.035 204.738 197.683 196.693 200.553C188.635 203.372 180.31 205.451 171.857 206.714C163.392 207.913 154.812 208.333 146.27 207.862C137.728 207.326 129.212 205.961 120.95 203.64C112.688 201.267 104.694 198.015 97.158 193.818C89.66 189.584 82.5822 184.444 76.4718 178.194C74.957 176.701 73.5822 175.081 72.1691 173.474C70.8452 171.803 69.4958 170.145 68.312 168.359C65.8933 164.826 63.691 161.153 61.9852 157.135C60.2794 153.156 58.9428 149.01 58.0899 144.776C57.2624 140.528 56.8423 136.204 56.855 131.855C57.0078 123.194 58.9173 114.394 63.2073 106.588C64.2129 104.611 65.5114 102.787 66.7717 100.95C68.1847 99.2153 69.5468 97.4551 71.2271 95.899C74.486 92.7613 78.1904 90.0828 82.2512 88.195C86.2866 86.2818 90.5639 84.8661 94.9684 84.1518C99.3857 83.4758 103.892 83.3737 108.373 83.9605C112.854 84.5855 117.271 85.9885 121.358 88.1313C122.35 88.7181 123.407 89.2155 124.349 89.8915L127.162 91.9578C128.894 93.5139 130.663 95.0827 132.051 96.9576C134.966 100.58 137.206 104.764 138.517 109.177C139.829 113.577 140.376 118.144 140.287 122.646C140.223 127.161 139.396 131.613 138.046 135.873C136.672 140.12 134.826 144.253 132.267 147.977C130.09 151.166 127.506 154.253 124.578 156.714L123.509 157.671L122.376 158.551C121.612 159.125 120.861 159.725 120.085 160.286C118.481 161.319 116.902 162.416 115.209 163.283C113.567 164.252 111.823 164.992 110.104 165.783C109.239 166.153 108.348 166.472 107.469 166.803L106.145 167.301L104.796 167.722C101.219 168.908 97.5399 169.635 93.8482 170.184C79.0815 172.25 63.9202 169.482 50.7192 163.092C44.0233 160.043 37.9639 155.834 32.3372 151.191L28.2255 147.582L24.4065 143.666C23.0953 142.403 21.9878 140.949 20.8167 139.559C19.671 138.143 18.4362 136.804 17.4433 135.273L14.3117 130.809C13.3569 129.266 12.4531 127.684 11.5238 126.115C11.0783 125.325 10.5691 124.572 10.1745 123.743L7.78124 118.82L7.18293 117.595L6.68647 116.32L4.71334 111.218C4.1023 109.509 3.65675 107.723 3.1221 105.988C2.8675 105.108 2.60017 104.241 2.37103 103.361L1.30172 97.9781C1.1235 97.0852 0.919814 96.1924 0.856165 95.2741C-0.136768 88.4629 -0.302254 80.81 0.55065 73.0677C1.45447 65.3255 3.75859 57.6471 6.77558 50.7339C7.43753 49.3181 8.16314 47.7876 8.92694 46.1805C9.74165 44.5861 10.7346 42.9917 11.6893 41.2953C12.1985 40.4662 12.6313 39.5734 13.2169 38.757C13.7898 37.928 14.3626 37.099 14.9482 36.2571C16.1066 34.5735 17.265 32.8516 18.6271 31.2955C19.2891 30.4919 19.9383 29.7011 20.6003 28.8975C21.2622 28.1067 21.886 27.2905 22.6243 26.589C24.0373 25.1349 25.4376 23.6936 26.787 22.3034C28.2128 20.9896 29.6385 19.7906 30.9751 18.6172C31.6498 18.0432 32.2736 17.4564 32.9483 16.959C33.623 16.4743 34.2722 16.0024 34.896 15.5432C35.978 14.7652 37.06 13.9872 38.1421 13.1963C39.2369 12.4183 40.4335 11.7677 41.5664 11.0535C42.7121 10.3519 43.8451 9.63762 44.978 8.9361C46.1492 8.31111 47.3204 7.68617 48.466 7.07394C49.128 6.7168 49.7645 6.37249 50.3883 6.0281C51.012 5.68372 51.6358 5.36473 52.2723 5.10963C53.5198 4.57393 54.7164 4.07656 55.8494 3.59188C58.0899 2.57149 60.203 2.01023 62.0489 1.47452C65.7151 0.301071 68.5539 0.122471 70.336 0.00767692C73.9513 -0.107117 73.5949 1.06644 70.1578 3.46436C69.4068 3.98731 69.5595 4.38267 69.2413 4.8546C69.0885 5.08419 68.8085 5.33925 68.2483 5.61986C67.701 5.91322 66.848 6.19384 65.6132 6.7423C65.4096 6.83158 65.0022 6.99742 64.8112 7.0867C57.3133 10.3009 50.0573 13.9615 43.3232 18.6553C36.589 23.3109 30.3005 28.8466 25.1067 35.3644C18.7417 43.3362 13.7134 52.4304 10.7091 62.1624C7.7176 71.8944 6.73739 82.162 7.95946 92.2256C9.18153 102.289 12.4022 112.149 17.3923 121.039C22.3824 129.929 28.9638 137.926 36.7291 144.508C44.4943 151.051 53.4307 156.281 63.0927 159.253C72.7038 162.301 83.0023 163.207 92.9189 161.778C102.823 160.375 112.319 156.344 119.512 149.737C126.615 143.283 130.994 133.781 131.643 124.126L131.745 121.906C131.771 121.166 131.694 120.427 131.681 119.7C131.694 118.22 131.389 116.779 131.223 115.325C131.109 114.598 130.892 113.909 130.739 113.195C130.574 112.48 130.421 111.779 130.141 111.103L129.428 109.049C129.136 108.399 128.805 107.761 128.499 107.111L128.041 106.141L126.322 103.424L124.973 101.766C124.744 101.486 124.527 101.205 124.298 100.937L123.522 100.21L121.994 98.7306L120.275 97.4551L119.423 96.8174C119.13 96.6133 118.799 96.4603 118.493 96.2817L116.635 95.223C111.466 92.7358 105.496 91.6644 99.6021 92.0981C98.1382 92.2639 96.6488 92.3404 95.2103 92.6848C94.4847 92.8378 93.7463 92.9398 93.0335 93.1312L90.9076 93.7561C90.5511 93.8582 90.1947 93.9602 89.8383 94.075L86.7449 95.2996L84.7718 96.3071C84.1098 96.6387 83.4478 96.9577 82.8495 97.3786L80.991 98.5648C80.3672 98.9602 79.8453 99.4577 79.2597 99.9041C78.0631 100.759 77.0829 101.83 76.039 102.838C75.4917 103.31 75.0716 103.935 74.5878 104.496C74.1296 105.07 73.6204 105.618 73.2003 106.218C72.3983 107.455 71.469 108.616 70.7943 109.955C70.4379 110.605 70.056 111.243 69.7123 111.906L68.3374 114.968L67.9683 116.026L67.2172 118.143C66.4025 121.026 65.6769 123.96 65.4096 126.983C64.6967 132.99 65.1677 139.151 66.5807 145.044C67.9428 150.987 70.4506 156.51 73.7604 161.663C75.5807 164.469 77.6048 167.148 79.8835 169.622C82.1112 172.135 84.5808 174.444 87.1777 176.625C92.3588 181 98.1254 184.724 104.198 188.04L103.994 187.926C116.877 194.533 131.185 198.13 145.621 199.124C165.645 200.54 186.382 196.484 204.751 187.862C223.146 179.29 239.186 166.038 250.146 150.005L258.268 155.12C254.652 161.498 252.845 168.513 252.488 175.477C252.17 182.454 253.303 189.354 255.442 195.834C255.747 196.79 256.231 197.874 256.702 199.073C257.211 200.196 257.733 201.509 258.421 202.823Z" fill="black"/>
</svg>
