<svg width="300" height="361" viewBox="0 0 300 361" fill="none" xmlns="http://www.w3.org/2000/svg">
<path d="M133.431 293.832C134.395 298.253 136.297 305.51 140.501 313.721C144.678 321.88 151.349 330.929 160.668 337.851C161.876 338.663 163.084 339.488 164.305 340.313L166.144 341.563L168.11 342.62C169.421 343.329 170.745 344.051 172.069 344.773C173.444 345.391 174.845 345.958 176.247 346.551L178.342 347.441C179.049 347.737 179.781 347.918 180.514 348.163L184.871 349.542C186.337 349.954 187.84 350.225 189.319 350.573C190.81 350.895 192.275 351.282 193.792 351.424C205.771 353.228 217.777 352.429 227.802 349.89C239.371 346.899 250.45 341.756 259.744 334.332L263.124 331.432C263.677 330.942 264.281 330.491 264.795 329.949L266.35 328.338L269.461 325.129L272.276 321.648L273.69 319.908C274.153 319.328 274.538 318.684 274.975 318.065L277.507 314.353C278.343 313.115 279.011 311.762 279.77 310.473C280.477 309.158 281.325 307.908 281.903 306.516C292.585 285.002 294.873 259.236 288.202 236.124L286.878 231.819C286.428 230.388 285.798 229.022 285.271 227.617C284.217 224.807 282.97 222.061 281.582 219.419C278.806 214.134 275.489 209.172 271.518 204.931C267.571 200.703 262.906 197.145 257.828 194.89C252.738 192.634 247.044 191.525 241.543 191.938C236.054 192.325 230.772 194.219 226.736 197.661C224.666 199.324 222.957 201.425 221.556 203.745C220.81 204.879 220.283 206.155 219.679 207.38C219.203 208.682 218.689 209.971 218.368 211.337C217.648 214.031 217.211 216.867 217.16 219.728C217.07 222.59 217.25 225.477 217.777 228.313C218.265 231.149 219.023 233.959 220.103 236.614C221.144 239.295 222.481 241.976 224.011 244.502C225.9 247.699 228.484 251.27 231.401 254.75C234.306 258.243 237.558 261.62 240.502 264.649C246.414 270.695 251.016 275.464 249.833 276.418C248.638 277.359 244.332 275.335 237.828 270.488C234.589 268.052 230.81 264.856 226.838 260.705C224.859 258.63 222.828 256.31 220.874 253.667C218.908 251.051 216.992 248.137 215.322 244.889C213.278 241.009 211.594 236.717 210.604 232.335C209.589 227.952 209.139 223.441 209.319 218.929C209.499 214.418 210.321 209.88 211.941 205.562C213.548 201.257 216.003 197.158 219.28 193.781C220.9 192.092 222.738 190.597 224.692 189.295C226.671 188.045 228.766 186.949 230.952 186.176C235.309 184.552 239.923 183.843 244.461 183.946C248.998 184.036 253.497 184.823 257.751 186.344C262.019 187.839 266.042 190.017 269.59 192.673C276.788 197.957 282.366 204.944 286.723 212.407C287.803 214.276 288.831 216.184 289.77 218.117C290.258 219.084 290.682 220.063 291.145 221.043C291.569 222.036 291.942 223.041 292.353 224.033L293.549 227.037L294.14 228.532L294.616 230.066C295.245 232.115 295.914 234.165 296.505 236.227C298.69 244.541 299.783 253.1 299.963 261.646L299.988 264.856C300.014 265.925 300.001 266.995 299.911 268.065L299.5 274.471L298.639 280.826C298.523 281.896 298.305 282.94 298.073 283.984L297.418 287.129L296.942 289.424C296.775 290.184 296.531 290.932 296.325 291.692L295.027 296.204C294.628 297.725 293.986 299.155 293.471 300.638C292.906 302.094 292.43 303.603 291.788 305.033L289.821 309.313L288.831 311.452L287.687 313.515L285.374 317.627C284.59 318.993 283.651 320.256 282.79 321.571C279.371 326.869 275.129 331.586 270.695 336.072C269.564 337.168 268.317 338.16 267.134 339.204L264.435 341.524L263.471 342.22L259.615 344.979C258.96 345.417 258.355 345.933 257.661 346.319L255.63 347.518C234.024 360.627 207.275 364.352 182.828 357.92C170.655 354.543 159.151 348.485 149.665 339.926C140.282 331.277 133.187 320.346 128.74 308.513C124.241 296.681 122.326 283.894 123.174 271.236C123.637 264.907 124.781 258.604 126.709 252.52C128.662 246.449 131.387 240.597 134.845 235.209C135.655 234.023 136.465 232.837 137.3 231.651C138.187 230.491 139.087 229.331 140.064 228.248C141.992 226.057 144.061 223.982 146.349 222.126C150.873 218.401 156.169 215.333 162.197 213.825C165.218 213.116 168.406 212.832 171.581 213.129C174.768 213.412 177.879 214.418 180.771 215.887C186.555 218.929 190.745 224.201 193.072 229.885C195.463 235.583 196.234 241.809 195.501 247.893C195.167 250.947 194.267 253.964 193.098 256.825C191.915 259.609 190.36 262.213 188.637 264.649C186.889 267.086 184.871 269.264 182.738 271.301C180.591 273.324 178.277 275.103 175.887 276.753C173.483 278.377 170.977 279.808 168.419 281.123C165.848 282.386 163.226 283.533 160.552 284.526C157.892 285.544 155.141 286.24 152.403 287C149.691 287.864 146.876 288.251 144.1 288.779C141.323 289.398 138.495 289.488 135.68 289.785L133.572 289.978C132.866 290.029 132.159 290.004 131.452 290.017L127.21 290.042C115.924 289.901 104.69 287.825 94.0733 284.061C83.4562 280.298 73.4175 274.858 64.5228 267.885C55.6153 260.924 47.8903 252.365 42.0033 242.621C36.4377 233.482 32.5687 223.363 30.4093 212.948C28.237 202.52 27.7229 191.783 28.764 181.201C30.8463 160.087 39.2526 139.36 53.7001 123.428L56.3993 120.451L59.3685 117.628L62.5048 114.998L65.7825 112.562C70.2427 109.443 75.0757 106.813 80.23 104.841C85.3843 102.882 90.8985 101.593 96.6312 101.438C102.338 101.271 108.302 102.353 113.636 104.983C116.259 106.336 118.804 107.909 121.027 109.907C123.264 111.892 125.23 114.199 126.837 116.725C130.063 121.778 131.773 127.553 132.313 133.25C133.341 144.709 130.205 156.014 124.086 165.488C122.737 167.524 121.246 169.471 119.613 171.301C117.955 173.119 116.13 174.846 114.228 176.277L111.387 178.507L108.354 180.44C106.374 181.819 104.163 182.747 102.03 183.843C100.976 184.423 99.8317 184.758 98.7263 185.209C97.608 185.622 96.5026 186.086 95.3715 186.447L91.9396 187.401L90.2172 187.865C89.6388 188.006 89.0604 188.084 88.482 188.2L84.9858 188.831C83.829 189.063 82.6464 189.089 81.4768 189.218C80.3071 189.308 79.1246 189.463 77.9549 189.502L74.433 189.527C65.0241 189.527 55.6924 187.568 47.0419 183.959C45.9622 183.495 44.8697 183.07 43.8028 182.58L40.6794 180.956C38.5585 179.95 36.6305 178.558 34.6382 177.321C33.6227 176.728 32.7358 175.929 31.7847 175.232C30.8592 174.511 29.908 173.802 28.9954 173.067L26.399 170.695C25.5378 169.909 24.6638 169.136 23.8926 168.246C17.4015 161.518 12.1572 153.681 8.3268 145.264C4.54784 136.821 2.07995 127.85 0.846003 118.749C-1.59618 100.523 1.32157 81.6909 8.66099 64.9986C12.0929 57.1229 16.7202 48.809 22.5429 41.0493C28.3399 33.2896 35.4351 26.2388 42.993 20.5544C46.1036 18.1827 49.934 15.695 54.1757 13.246C58.4688 10.9129 63.1475 8.57985 68.0447 6.80105C72.8905 4.89336 77.9034 3.5399 82.6207 2.43138C87.3765 1.43886 91.8368 0.755647 95.68 0.446291C102.312 -0.185311 109.228 -0.0821233 115.706 0.356131C117.583 0.420581 119.344 0.639714 121.04 0.845952C121.889 0.94907 122.711 1.03927 123.508 1.14239C124.305 1.24551 125.076 1.413 125.835 1.5419C127.338 1.82547 128.765 2.0575 130.102 2.35396C131.426 2.6891 132.673 3.01133 133.83 3.3078C138.457 4.60967 141.709 5.89864 143.675 6.99427C147.647 9.13399 146.645 9.92034 141.542 9.80433C139.318 9.79144 141.298 11.377 134.626 9.88174C134.357 9.83018 133.804 9.68834 133.547 9.66256C128.418 8.86339 123.29 8.15437 118.122 7.80634C112.955 7.49698 107.75 7.27797 102.544 7.60022L100.59 7.67747L98.6363 7.84505C97.3381 7.96106 96.027 8.05131 94.7288 8.1931C92.1324 8.57979 89.5231 8.83751 86.9524 9.40467C84.356 9.84292 81.8109 10.5262 79.2531 11.1707C77.9806 11.5059 76.7338 11.944 75.4741 12.3307L73.5846 12.9366C72.9548 13.1558 72.3507 13.4006 71.7337 13.6326C47.3761 22.591 27.3244 42.0418 16.5531 65.656C11.0903 77.4244 8.00547 90.3013 7.73554 103.217C7.45276 116.133 9.85639 129.177 15.1264 140.907C20.3321 152.611 28.4813 163.09 38.8798 170.244C49.3298 177.359 62.1064 181.033 74.7415 181.033C81.0655 181.02 87.3766 180.053 93.3278 178.068C99.279 176.109 104.806 172.977 109.523 168.942C114.253 165.088 117.814 159.907 120.282 154.235C122.737 148.564 123.984 142.325 123.791 136.241C123.572 128.79 120.873 121.533 115.642 116.738C110.359 111.982 103.135 109.494 95.7185 110.1C92.0296 110.332 88.2892 111.054 84.6902 112.33C81.0911 113.606 77.5821 115.23 74.2402 117.202C70.9368 119.226 67.7876 121.521 64.8699 124.073C63.4688 125.4 62.0292 126.689 60.7439 128.21C59.4456 129.693 58.0575 131.085 56.8235 132.619C36.8876 157.187 31.2063 192.634 41.6434 222.306C44.5098 230.427 48.5972 238.045 53.7644 244.902C59.0343 251.695 65.294 257.74 72.235 263L71.9908 262.819C79.3302 268.194 87.4666 272.473 96.0271 275.593C104.6 278.648 113.598 280.491 122.634 281.071C131.182 281.612 139.832 280.981 148.226 279.06C156.593 277.088 164.704 273.84 171.581 269.019C174.987 266.596 178.123 263.85 180.591 260.654C181.208 259.854 181.825 259.055 182.352 258.204C182.93 257.379 183.393 256.503 183.882 255.639C184.37 254.776 184.73 253.848 185.154 252.958C185.437 252.056 185.848 251.205 186.041 250.264C188.059 242.93 186.568 234.203 182.069 228.377C179.807 225.503 176.915 223.35 173.522 222.474C171.838 221.92 170.038 221.842 168.252 221.829C166.452 221.932 164.627 222.216 162.814 222.783C159.19 223.879 155.706 225.915 152.519 228.365C149.357 230.878 146.503 233.856 144.087 237.117C139.164 243.819 135.706 251.502 133.688 259.519C131.644 267.537 131.143 275.889 131.812 284.036C132.043 286.691 132.673 290.12 133.431 293.832Z" fill="black"/>
</svg>
