<svg width="291" height="301" viewBox="0 0 291 301" fill="none" xmlns="http://www.w3.org/2000/svg">
<path d="M290.319 143.218C289.654 137.277 288.517 131.399 286.918 125.638C283.713 114.174 279.065 103.162 273.084 92.869C267.23 82.4344 259.849 72.933 251.187 64.6793C250.735 64.2629 250.259 63.8704 249.807 63.4898C249.545 61.9554 249.248 60.409 248.974 58.8746C248.701 57.3402 248.047 55.5442 247.583 53.8909C247.119 52.2376 246.393 50.6913 245.775 49.1331C240.446 36.5012 231.133 25.9627 220.226 18.2076C209.251 10.3907 196.738 4.99803 183.519 2.38789C170.49 -0.0761493 157.172 -0.636948 143.982 0.722786C130.954 2.06475 118.054 4.45132 105.408 7.85946C92.6393 11.0204 80.2399 15.5214 68.4167 21.288C56.6055 27.2353 45.4842 35.0501 36.6466 45.3151C28.6072 54.7176 22.9776 65.9358 20.2442 78.001C18.3698 79.8378 16.651 81.827 15.1058 83.9482C12.3217 87.676 9.95261 91.6961 8.04045 95.9376C6.17624 100.176 4.71473 104.581 3.67519 109.093C2.67005 113.59 2.06503 118.168 1.86724 122.772C1.65269 127.37 1.83176 131.978 2.40249 136.545C2.65227 138.829 3.09236 141.089 3.50867 143.349C3.92497 145.609 4.5197 147.845 5.19768 150.022C5.87566 152.199 6.38713 154.03 7.14837 155.969C5.36435 159.808 3.89646 163.786 2.75932 167.864L1.7245 172.062C1.40335 173.466 1.22494 174.893 0.975152 176.308L0.630213 178.438C0.535057 179.151 0.499374 179.877 0.428007 180.591L0.0711746 184.884C-0.399267 196.364 1.4662 207.82 5.55451 218.558C6.48228 221.27 7.79067 223.815 8.98012 226.42C9.62242 227.705 10.3718 228.941 11.0616 230.19L12.1084 232.07C12.489 232.676 12.9053 233.259 13.2978 233.866L15.6767 237.434L18.3529 240.812C18.8049 241.371 19.2331 242.002 19.7089 242.489L21.1719 244.059C22.1711 245.094 23.1107 246.188 24.1336 247.176C26.1905 249.166 28.3461 251.052 30.5923 252.826L32.2813 254.158C32.8311 254.615 33.4069 255.04 34.006 255.43L37.5744 257.809C42.3723 260.882 47.45 263.495 52.7398 265.612L54.7143 266.433L56.7244 267.123C58.0804 267.575 59.4126 268.05 60.7685 268.479C63.5162 269.18 66.2281 270.049 69.0352 270.524C74.612 271.715 80.2849 272.4 85.9848 272.57C93.0177 272.74 100.048 272.15 106.955 270.81C108.551 273.032 110.287 275.149 112.153 277.15C116.087 281.349 120.539 285.03 125.403 288.104C135.714 294.666 147.433 298.694 159.6 299.856C171.811 301.127 184.145 299.234 195.414 294.361C206.644 289.271 216.251 281.179 223.175 270.977C230.078 260.902 234.504 249.34 236.093 237.232C236.511 234.18 236.734 231.105 236.759 228.026L237.211 227.931C243.201 226.506 248.951 224.213 254.279 221.127C264.877 214.979 273.777 206.288 280.174 195.839C281.754 193.223 283.176 190.514 284.432 187.727C285.668 184.935 286.701 182.057 287.524 179.116C288.381 176.211 289.091 173.265 289.653 170.29C290.094 167.292 290.593 164.343 290.748 161.298C291.192 155.272 291.049 149.216 290.319 143.218ZM242.206 68.3783C242.478 72.9305 242.17 77.4988 241.291 81.9735C240.509 85.9139 239.272 89.75 237.603 93.4042C235.168 98.9647 231.599 103.956 227.124 108.058C226.449 108.726 225.721 109.338 224.948 109.89C224.198 110.449 223.508 111.079 222.747 111.555L220.475 112.959L219.369 113.637L218.18 114.16C216.835 114.857 215.44 115.449 214.005 115.932C214.097 113.152 213.978 110.368 213.648 107.606C213.458 106.417 213.374 105.227 213.101 104.038C212.827 102.848 212.601 101.659 212.351 100.577C211.778 98.422 211.095 96.2979 210.306 94.213C206.57 84.2752 200.231 75.5247 191.952 68.8777C188.706 66.3114 185.193 64.1024 181.473 62.2885C185.232 59.5123 189.413 57.3594 193.856 55.9129C198.004 54.5482 202.325 53.7833 206.69 53.6412C208.856 53.585 211.023 53.6964 213.172 53.9743C214.243 54.0932 215.289 54.3072 216.36 54.5094L219.571 55.342C227.853 57.8275 235.526 62.0123 242.099 67.6291L242.206 68.3783ZM220.606 196.957C221.225 197.921 221.796 198.908 222.307 199.919C222.818 200.93 223.366 202.024 223.806 203.131C224.246 204.237 224.734 205.295 225.102 206.425L225.697 208.09L226.197 209.792C227.282 213.471 228.007 217.248 228.361 221.067C227.636 221.127 226.91 221.198 226.185 221.222C219.48 221.507 212.807 220.147 206.749 217.261C211.596 211.812 215.641 205.7 218.762 199.11C219.226 198.123 219.655 197.124 220.059 196.125C220.249 196.41 220.392 196.672 220.606 196.957ZM194.224 204.594C192.935 200.998 192.981 197.06 194.355 193.496C194.909 191.807 195.823 190.259 197.035 188.959C198.247 187.659 199.727 186.638 201.373 185.967C203.072 185.451 204.865 185.322 206.621 185.589C208.377 185.857 210.05 186.514 211.519 187.513C212.646 188.216 213.712 189.011 214.706 189.892C213.84 192.479 212.794 195.003 211.578 197.445L209.271 201.632C208.498 203.023 207.522 204.296 206.666 205.64C204.792 208.298 202.755 210.837 200.564 213.241C197.746 210.948 195.563 207.971 194.224 204.594ZM216.824 181.352C215.842 180.682 214.817 180.078 213.755 179.544C210.584 177.952 207.058 177.203 203.514 177.367C201.695 177.489 199.906 177.89 198.209 178.557C196.496 179.212 194.892 180.122 193.451 181.256C190.711 183.455 188.554 186.294 187.171 189.523C185.815 192.655 185.114 196.031 185.113 199.443C185.11 201.163 185.298 202.879 185.672 204.558C185.862 205.402 186.148 206.235 186.386 207.08C186.624 207.924 187.004 208.65 187.361 209.399C189.133 213.029 191.616 216.265 194.664 218.914C194.343 219.2 194.034 219.509 193.701 219.795C188.746 223.898 183.358 227.448 177.632 230.381L173.278 232.486L168.794 234.294L167.676 234.746L166.486 235.126L164.191 235.888L161.895 236.637L159.516 237.256C156.412 238.148 153.224 238.695 150.001 239.301L145.243 239.908H145.029C145.99 234.64 145.45 229.207 143.471 224.231C142.244 221.166 140.35 218.411 137.928 216.167C135.439 213.901 132.44 212.269 129.185 211.409C125.996 210.607 122.668 210.525 119.444 211.171C116.333 211.769 113.345 212.887 110.606 214.478C105.158 217.658 100.911 222.545 98.5215 228.382C97.9372 229.863 97.4679 231.386 97.118 232.938C92.7527 231.273 88.4826 229.37 84.2958 227.264C78.4465 224.32 72.8106 220.969 67.4294 217.237C62.0061 213.539 56.818 209.507 51.8953 205.164C41.9647 196.603 33.1707 186.805 25.7275 176.011C22.0784 170.66 18.9252 164.986 16.3071 159.062C16.0216 158.431 15.7481 157.777 15.4864 157.135C19.7881 149.052 25.8386 142.03 33.1972 136.581C32.8148 144.943 33.836 153.309 36.2184 161.333C39.0709 170.971 43.9951 179.87 50.6464 187.406C57.3722 195.173 66.1603 200.877 75.9934 203.856C86.0749 206.68 96.8099 206.065 106.503 202.107C111.395 200.141 115.865 197.254 119.67 193.603C123.518 189.858 126.505 185.32 128.424 180.305C130.557 174.499 131.243 168.261 130.422 162.13C129.628 156.178 127.741 150.424 124.856 145.157C124.285 144.11 123.666 143.087 123.036 142.076C124.453 141.997 125.863 141.826 127.259 141.565C128.258 143.254 129.352 144.872 130.482 146.442L132.266 148.618C132.575 148.975 132.861 149.344 133.17 149.689L134.157 150.688L136.132 152.674L138.261 154.47C141.855 157.452 145.908 159.834 150.262 161.524C155.196 163.408 160.444 164.333 165.725 164.248C171.33 164.132 176.866 162.987 182.056 160.87C192.754 156.499 201.716 148.729 207.558 138.758C208.105 137.818 208.617 136.855 209.092 135.891C211.307 139.758 213.124 143.838 214.516 148.071C215.991 152.624 217.003 157.315 217.537 162.071C218.22 168.511 217.979 175.015 216.824 181.387V181.352ZM110.321 262.056C108.69 259.347 107.316 256.492 106.217 253.527C104.968 250.125 104.195 246.567 103.922 242.953C111.259 245.153 118.798 246.611 126.426 247.306C128.9 247.544 131.398 247.663 133.896 247.711C132.939 249.028 131.877 250.265 130.72 251.41C125.355 256.656 118.017 260.01 110.356 262.091L110.321 262.056ZM137.904 236.328C137.823 237.687 137.603 239.034 137.25 240.348C131.885 240.462 126.521 240.112 121.216 239.301C115.531 238.441 109.915 237.177 104.409 235.519C104.732 233.886 105.226 232.291 105.884 230.761C107.413 227.384 109.811 224.473 112.833 222.325C115.854 220.177 119.391 218.869 123.084 218.534C123.958 218.456 124.838 218.456 125.712 218.534C126.152 218.534 126.557 218.7 126.985 218.772L127.615 218.891L128.21 219.105C129.835 219.619 131.337 220.461 132.623 221.579C133.949 222.712 135.04 224.094 135.834 225.647C136.705 227.247 137.307 228.979 137.619 230.773C137.98 232.613 138.088 234.494 137.94 236.364L137.904 236.328ZM27.702 81.0934C30.3071 78.8231 33.1413 76.8299 36.1589 75.1461C46.7569 69.1989 59.7337 67.2008 71.1048 70.5908L70.9264 70.6857L69.3206 71.6254L67.8101 72.7196L64.777 74.944C63.7655 75.6767 62.8002 76.4712 61.8866 77.3229L59.0795 79.7018C51.8398 86.4849 45.9195 94.5506 41.6185 103.491C39.1257 108.625 37.1533 113.997 35.7307 119.524C33.9916 117.508 32.5167 115.277 31.3417 112.887C29.9756 110.151 28.8954 107.281 28.1183 104.323C26.2327 96.71 26.0904 88.7693 27.702 81.0934ZM128.46 125.329C128.341 124.033 128.162 122.736 128.079 121.44C127.996 120.143 128.079 118.847 128.174 117.562L128.424 115.647C128.475 115.006 128.574 114.37 128.722 113.744C128.864 113.113 129.007 112.554 129.197 111.876C129.364 111.258 129.566 110.651 129.804 110.056C131.657 105.151 134.654 100.759 138.546 97.2461C140.998 95.0301 143.72 93.1319 146.646 91.5963C147.394 93.1945 148.026 94.844 148.538 96.5323C149.522 99.6326 150.019 102.867 150.013 106.119C150.045 109.32 149.543 112.504 148.526 115.54C145.766 123.556 138.832 130.158 130.815 133.215C129.732 130.684 128.942 128.039 128.46 125.329ZM137.321 138.116C141.948 135.711 146.042 132.397 149.358 128.374C152.756 124.304 155.148 119.492 156.34 114.327C157.465 109.22 157.534 103.938 156.543 98.8044C155.872 95.3522 154.798 91.9906 153.343 88.789L154.33 88.5155C156.394 87.9574 158.498 87.5597 160.622 87.326C161.006 93.7229 163.133 99.8928 166.772 105.168C170.75 110.96 176.019 115.748 182.163 119.156C188.009 122.476 194.498 124.504 201.194 125.103C201.397 125.329 201.599 125.519 201.789 125.757C202.646 126.697 203.49 127.744 204.323 128.814C204.132 129.266 203.942 129.718 203.775 130.17C203.485 130.947 203.147 131.706 202.764 132.442C199.812 138.466 195.544 143.751 190.275 147.905C181.783 154.673 170.685 158.431 160.135 156.873C149.584 155.315 140.164 148.678 134.3 139.852L134.11 139.543C135.22 139.13 136.29 138.655 137.321 138.116ZM206.785 117.288C203.686 117.465 200.578 117.225 197.543 116.575C196.936 116.218 196.353 115.885 195.782 115.599C191.607 113.446 188.943 112.994 188.325 113.399C187.516 113.006 186.719 112.59 185.946 112.138C178.654 107.987 172.529 101.433 169.96 93.7492C169.312 91.85 168.912 89.8751 168.77 87.8734C168.709 87.3682 168.677 86.8598 168.675 86.3509C173.433 86.7315 176.145 87.7305 176.751 87.4213C177.072 87.2905 176.751 86.8979 175.883 86.2318C174.362 85.2106 172.704 84.4097 170.959 83.853C170.257 83.6008 169.542 83.3863 168.818 83.2106C168.846 82.7799 168.897 82.3513 168.972 81.9262C169.604 77.87 171.141 74.008 173.468 70.6265C174.193 69.5336 174.988 68.4885 175.847 67.4981C176.71 67.846 177.552 68.2431 178.369 68.6875C179.118 69.08 179.88 69.4488 180.629 69.877L182.782 71.1855C183.139 71.3996 183.507 71.6016 183.864 71.8394L184.875 72.577L186.921 74.04L188.848 75.6578L189.811 76.4665L190.715 77.3586L192.523 79.119L194.224 80.8913L195.069 81.8429L195.83 82.8418L197.364 84.8641C199.299 87.6308 200.975 90.569 202.372 93.6421C205.191 99.7674 206.748 106.397 206.951 113.137C206.916 114.541 206.868 115.921 206.785 117.288ZM167.533 64.9528C163.814 70.028 161.482 75.9842 160.765 82.2352C157.336 82.2472 153.926 82.7358 150.631 83.6866C148.125 79.614 145.04 75.9275 141.472 72.7434C138.491 70.0901 135.181 67.8316 131.624 66.0232C132.326 65.7853 133.015 65.5711 133.717 65.357C140.271 63.393 147.098 62.4935 153.938 62.6927C154.794 62.6927 155.639 62.7642 156.483 62.8237C157.328 62.8831 158.184 62.9306 159.029 63.0377C160.706 63.2875 162.407 63.4301 164.06 63.8226C165.321 64.0367 166.558 64.3462 167.795 64.6793L167.533 64.9528ZM130.47 73.7546C135.725 76.8934 140.198 81.1842 143.554 86.3033C139.332 88.3565 135.481 91.0981 132.159 94.4154C129.56 97.0028 127.341 99.9462 125.569 103.158C123.571 106.733 122.256 110.65 121.692 114.707C121.573 115.635 121.442 116.551 121.323 117.479C121.204 118.406 121.323 119.346 121.264 120.286C121.256 122.163 121.379 124.039 121.632 125.9C122.128 128.953 122.924 131.949 124.011 134.845C122.162 135.059 120.294 135.059 118.445 134.845L117.505 134.678C112.693 129.135 106.832 124.599 100.258 121.332C102.684 115.946 103.84 110.073 103.636 104.169C103.457 99.4743 102.567 94.8342 100.996 90.4068C101.281 89.8835 101.555 89.36 101.864 88.8486C105.36 83.1021 109.995 78.1314 115.483 74.2421C117.576 72.73 119.769 71.363 122.049 70.1505C124.976 71.0479 127.8 72.2562 130.47 73.7546ZM40.9167 139.543C40.8831 137.756 40.9506 135.969 41.1189 134.19C41.5947 134.476 42.0705 134.773 42.5581 135.047C48.6116 138.439 55.294 140.56 62.1959 141.279C69.1977 142.058 76.2829 141.06 82.7971 138.377C87.9798 136.157 92.5291 132.682 96.0356 128.267L96.2616 128.386C98.9803 132.473 102.592 135.89 106.824 138.377C107.968 139.042 109.16 139.619 110.392 140.102L112.01 140.708C112.985 141.851 113.902 143.042 114.757 144.277C118.631 149.671 121.208 155.887 122.287 162.44C122.763 165.634 122.763 168.88 122.287 172.074C121.768 175.223 120.735 178.265 119.23 181.078C116.04 186.699 111.169 191.179 105.301 193.889C96.318 198.2 86.013 198.861 76.5525 195.732C73.4108 194.673 70.4046 193.248 67.596 191.486C56.2486 184.432 47.9225 172.597 43.9022 159.668L42.5344 154.768L41.6304 149.748L41.4044 148.487L41.3092 147.215L41.0951 144.669C41.0357 143.825 40.9405 142.98 40.8929 142.124L40.9167 139.543ZM47.0661 128.612C48.8146 127.863 50.575 127.184 52.383 126.59C60.313 123.974 68.6719 122.908 77.0045 123.45C80.8205 123.715 84.5991 124.372 88.2804 125.412C87.3798 126.333 86.4138 127.188 85.3901 127.97C80.6158 131.457 74.9078 133.437 68.9995 133.655C62.8953 133.943 56.803 132.879 51.1578 130.539C49.7617 129.976 48.3959 129.341 47.0661 128.635V128.612ZM106.788 72.3035C103.275 75.4031 100.152 78.9179 97.4867 82.7707C95.431 79.1222 92.85 75.7958 89.8267 72.8982C89.1844 72.2678 88.4945 71.7087 87.7927 71.0902C92.2163 69.5824 96.7976 68.5847 101.448 68.1166C104.802 67.7518 108.185 67.7199 111.546 68.0214L112.2 68.0928C110.314 69.3954 108.506 70.8095 106.788 72.3273V72.3035ZM79.8234 74.5157C82.3083 76.1384 84.5679 78.0822 86.5438 80.2965C89.2826 83.4239 91.4887 86.9802 93.0739 90.8232C92.1379 92.9908 91.3782 95.2301 90.802 97.5197C89.6314 102.567 89.4417 107.792 90.243 112.911C90.5378 114.603 90.9351 116.275 91.4324 117.919L87.198 116.824L86.1394 116.551L85.057 116.384L82.8922 116.039C80.0138 115.59 77.1096 115.323 74.1974 115.242C72.7462 115.242 71.2951 115.242 69.844 115.326L67.6792 115.397C66.9537 115.397 66.24 115.564 65.5144 115.635C64.0752 115.813 62.636 115.968 61.2086 116.17L56.9623 117.038C55.5438 117.326 54.1421 117.692 52.7636 118.133C51.3957 118.561 49.9803 118.894 48.6362 119.405C46.8283 120.119 45.0679 120.785 43.2361 121.558C43.4383 120.809 43.6524 120.048 43.8427 119.298C45.7633 112.709 48.5131 106.39 52.0261 100.493C55.6291 94.6772 59.9933 89.3689 65.003 84.7093C66.2995 83.6031 67.5484 82.4255 68.8806 81.3669L73.0198 78.3814C74.4234 77.4179 75.934 76.6449 77.3851 75.7647C78.1555 75.2887 78.9495 74.8522 79.764 74.4565L79.8234 74.5157ZM41.7612 51.5715C45.8591 46.681 50.5181 42.2896 55.642 38.4877C65.303 31.438 75.9366 25.8287 87.2099 21.8354C99.5977 17.4195 112.312 13.9793 125.236 11.5466C138.406 8.84653 151.852 7.74031 165.285 8.25177C171.878 8.56167 178.429 9.45728 184.863 10.928C191.111 12.3576 197.182 14.4718 202.967 17.2321C213.96 22.3234 223.577 29.9701 231.014 39.5342C234.328 43.8997 237.022 48.7031 239.019 53.8076C239.257 54.4618 239.506 55.0923 239.744 55.7346C238.745 55.0804 237.734 54.438 236.699 53.8314C231.397 50.7315 225.677 48.4081 219.714 46.9325C213.647 45.4082 207.343 45.0692 201.147 45.9336C194.976 46.7511 188.994 48.6388 183.472 51.512C179.68 53.4806 176.165 55.9401 173.016 58.827C169.729 57.7726 166.365 56.9772 162.954 56.4481C149.077 54.3907 134.902 56.4589 122.191 62.3953C119.461 61.6434 116.678 61.0988 113.865 60.7659C103.885 59.7082 93.7955 60.9282 84.3552 64.3343C82.8446 64.8695 81.3578 65.5237 79.8948 66.1065C79.2168 65.7735 78.5388 65.4642 77.8609 65.1668C73.4744 63.3761 68.8504 62.234 64.1347 61.7768C59.4499 61.3784 54.7327 61.6146 50.1111 62.4787C45.5202 63.2863 41.0514 64.6773 36.8131 66.6179C34.8747 67.4909 32.9847 68.4676 31.1514 69.5439C31.4011 68.9492 31.639 68.3545 31.9007 67.7597C34.4382 61.9487 37.7555 56.5107 41.7612 51.5954V51.5715ZM9.2299 121.749C9.6309 115.429 10.8955 109.194 12.9885 103.217C14.4277 99.142 16.3399 95.2497 18.686 91.6201C18.6583 95.0798 18.9409 98.5351 19.5305 101.944C19.6551 102.795 19.8339 103.638 20.0657 104.466L20.6724 106.988C20.8872 107.823 21.1493 108.645 21.4574 109.45L22.3138 111.9C22.9085 113.518 23.7292 115.052 24.4429 116.658C25.2236 118.234 26.1222 119.749 27.131 121.189C28.6682 123.422 30.4169 125.501 32.3527 127.399C31.3893 128.041 30.4615 128.731 29.498 129.385C28.2975 130.188 27.1457 131.062 26.0486 132.002L22.742 134.809C21.6953 135.808 20.6843 136.855 19.6613 137.877L18.1864 139.46L16.7948 141.137C15.8789 142.266 14.9273 143.361 14.0472 144.515C13.4049 145.478 12.7507 146.43 12.0965 147.393C11.4779 145.216 10.907 143.028 10.5383 140.815C9.31934 134.558 8.87986 128.174 9.2299 121.808V121.749ZM84.1649 264.732C67.1998 263.941 50.8482 258.147 37.17 248.08C23.6164 237.922 14.0535 223.334 10.1458 206.853C8.16356 198.685 7.54464 190.245 8.31403 181.875C8.80875 176.549 9.91017 171.298 11.5969 166.222C13.0599 169.208 14.6657 172.169 16.3547 174.953C18.7336 178.842 21.3028 182.589 24.0266 186.217C26.7504 189.844 29.6883 193.294 32.7333 196.648C44.9167 210.063 59.124 221.489 74.8397 230.512C81.692 234.41 88.8527 237.74 96.2497 240.467C96.2191 242.455 96.3344 244.443 96.5946 246.414C97.4671 252.234 99.317 257.864 102.066 263.066C102.197 263.316 102.352 263.566 102.494 263.816C96.4315 264.819 90.2761 265.147 84.1411 264.791L84.1649 264.732ZM227.85 238.064C226.335 247.569 222.877 256.659 217.692 264.768C212.825 272.635 206.134 279.215 198.186 283.95C190.237 288.685 181.266 291.436 172.029 291.97C162.904 292.626 153.738 291.503 145.041 288.663C136.369 285.877 128.359 281.348 121.502 275.354C119.181 273.297 117.029 271.058 115.067 268.657C116.565 268.193 118.04 267.682 119.515 267.111C125.067 265.042 130.207 262.001 134.693 258.13C136.95 256.097 138.948 253.791 140.64 251.267C141.465 250.036 142.189 248.739 142.805 247.39C155.698 246.453 168.289 243.04 179.891 237.339C187.468 233.616 194.49 228.856 200.754 223.196C206.252 226.293 212.322 228.239 218.596 228.918C221.691 229.282 224.812 229.361 227.921 229.155H228.564C228.509 232.158 228.263 235.153 227.826 238.124L227.85 238.064ZM281.577 169.077L280.84 172.467L280.471 174.156L279.971 175.809L279.008 179.128C278.615 180.198 278.27 181.269 277.818 182.315C276.125 186.558 273.958 190.595 271.36 194.352C268.777 198.135 265.803 201.636 262.486 204.796C259.185 207.953 255.552 210.744 251.651 213.122C246.906 216.063 241.745 218.272 236.342 219.676C236.342 219.414 236.342 219.164 236.271 218.903C235.575 212.811 234.059 206.841 231.763 201.156L230.871 199.027L229.884 196.957C229.206 195.539 228.447 194.161 227.612 192.83C226.271 190.667 224.738 188.629 223.033 186.74C223.734 183.794 224.247 180.806 224.567 177.795C225.226 171.22 224.986 164.585 223.853 158.074C222.111 147.713 217.95 137.909 211.709 129.456C212.253 127.79 212.701 126.094 213.053 124.377C214.669 124.049 216.259 123.603 217.811 123.045C219.488 122.438 221.034 121.63 222.64 120.928C228.863 117.716 234.295 113.162 238.543 107.594C242.682 102.11 245.8 95.9253 247.749 89.3364C249.116 84.7613 249.95 80.0436 250.235 75.2771C254.266 79.649 257.949 84.3299 261.249 89.2769C266.475 97.1363 270.891 105.505 274.428 114.255C277.991 122.957 280.483 132.06 281.851 141.363C283.202 150.563 283.101 159.919 281.553 169.088L281.577 169.077Z" fill="black"/>
</svg>
