<svg width="382" height="234" viewBox="0 0 382 234" fill="none" xmlns="http://www.w3.org/2000/svg">
<path d="M223.628 133.186C222.32 133.921 220.644 135.112 218.98 136.962C218.154 137.887 217.329 138.964 216.605 140.218C215.856 141.447 215.208 142.84 214.751 144.361C213.773 147.452 213.379 151.202 213.824 155.231C214.243 159.26 215.449 163.568 217.278 167.837C219.158 172.094 221.571 176.313 224.504 180.202C227.425 184.105 230.88 187.652 234.614 190.794C242.068 197.091 250.679 201.55 258.591 204.262C276.917 210.609 297.593 210.432 315.297 202.627C333.153 194.95 348.063 180.95 358.274 164.239C363.405 155.877 367.393 146.793 370.034 137.355C372.701 127.928 374.009 118.11 374.162 108.24C374.454 88.4887 370.06 68.6738 362.236 50.3412C359.874 44.564 355.988 37.0764 352.8 31.0204C351.987 29.5127 351.251 28.0811 350.616 26.7635C349.943 25.4712 349.359 24.3055 348.939 23.3046C348.089 21.2902 347.835 19.9347 348.482 19.6179C349.155 19.2885 350.26 19.732 351.733 20.8976C353.207 22.0631 355.086 23.9255 357.106 26.5354C361.22 31.7171 366.237 39.7496 370.53 50.3158C373.197 56.6759 375.292 63.2639 377.134 69.9154C378.899 76.5921 380.169 83.3957 381.058 90.2625C381.794 97.142 382.175 104.072 381.921 111.002C381.909 112.738 381.706 114.461 381.604 116.184L381.413 118.781C381.35 119.643 381.198 120.504 381.109 121.366L380.436 126.522L379.445 131.641C377.972 138.419 376.054 145.121 373.362 151.506L372.396 153.913C372.066 154.712 371.672 155.484 371.304 156.27L369.082 160.958C367.38 163.973 365.843 167.077 363.9 169.953C362.948 171.397 362.097 172.918 361.055 174.299L357.995 178.505C356.991 179.911 355.81 181.191 354.731 182.546L353.067 184.548C352.521 185.219 351.886 185.815 351.302 186.448L347.72 190.211L343.897 193.733C342.653 194.95 341.281 196.001 339.922 197.091L337.89 198.712C337.217 199.27 336.531 199.789 335.808 200.271C327.578 206.251 318.332 210.85 308.515 213.865C298.635 216.766 288.259 217.729 278.048 216.918C267.837 216.095 257.779 213.536 248.419 209.329C239.071 205.123 230.397 199.245 223.222 191.795C216.046 184.345 210.42 175.363 207.245 165.354C205.683 160.337 204.794 154.978 205.149 149.492C205.34 146.755 205.81 144.044 206.699 141.345C207.601 138.647 208.896 136.126 210.522 133.82C213.76 129.246 218.383 125.445 224.073 123.684C226.892 122.81 229.991 122.493 232.924 122.937L234.029 123.051L235.122 123.317L237.293 123.874L239.351 124.736C239.694 124.888 240.037 125.027 240.367 125.192L241.319 125.762C243.935 127.194 245.993 129.259 247.872 131.349C248.698 132.464 249.65 133.541 250.311 134.732L251.39 136.493L252.305 138.317C254.705 143.208 256.039 148.428 256.534 153.723L256.699 155.51L256.737 157.309C256.788 158.512 256.737 159.716 256.661 160.92C256.623 162.149 256.445 163.276 256.318 164.442C256.204 165.607 255.975 166.747 255.785 167.9C254.946 172.487 253.638 176.984 251.924 181.292C248.482 189.933 243.402 197.838 237.23 204.692C224.873 218.401 208.274 228.118 190.202 232.096C172.015 235.986 153.041 233.718 136.023 227.092C118.942 220.479 103.74 209.634 91.484 196.229C89.9854 194.709 88.6773 192.999 87.293 191.377C86.6199 190.541 85.896 189.755 85.261 188.894L81.451 183.725L79.673 181.039C78.4538 179.265 77.4124 177.39 76.3075 175.553C72.0149 168.116 68.6748 160.121 66.3761 151.772C64.052 143.436 63.0613 134.643 63.6582 125.838C63.6963 125.293 63.709 124.736 63.7598 124.191L63.9757 122.544L64.4329 119.25C64.6488 118.16 64.9029 117.083 65.1442 115.994C65.3855 114.904 65.614 113.815 65.9823 112.763L66.9984 109.571C67.3159 108.506 67.8238 107.493 68.2429 106.467C69.0684 104.414 70.0464 102.311 71.2529 100.36C73.6024 96.4198 76.5234 92.8724 79.8508 89.7937C83.1655 86.715 86.8485 84.0544 90.8237 81.9132C98.7231 77.6183 107.715 75.1099 116.973 75.3506C119.284 75.3759 121.596 75.6926 123.907 76.0854C126.193 76.5795 128.492 77.1497 130.689 78.0618C135.121 79.7469 139.211 82.42 142.64 85.7141C145.967 89.0968 148.825 92.999 150.692 97.3446C152.52 101.678 153.663 106.251 154.032 110.85C154.616 118.794 153.155 126.687 150.209 133.947C147.123 141.13 142.475 147.769 136.29 152.824C130.194 157.689 123.158 161.338 115.767 163.403C108.388 165.493 100.742 166.393 93.1986 166.089C85.6547 165.823 78.1871 164.606 71.0243 162.364C63.8741 160.109 57.0161 157.093 50.6026 153.331C37.7501 145.818 26.7392 135.403 18.2429 123.292C14.2424 117.59 10.2799 110.952 7.21922 103.679C4.12041 96.4324 1.9106 88.5773 0.894599 80.963C0.0182959 74.6663 -0.388115 66.1653 0.488188 57.7655C1.28829 49.353 3.3457 41.1432 5.42851 35.2392C6.36831 32.7054 7.30811 30.1081 8.46382 27.6249C9.49252 25.091 10.7498 22.6713 11.8801 20.2641C12.4897 18.8704 13.2771 17.6415 13.9121 16.4125C14.6107 15.2216 15.1822 14.0308 15.8934 13.0045C16.5792 11.9657 17.2269 10.9773 17.8492 10.0525C18.4588 9.11494 19.0557 8.26609 19.678 7.5186C20.8972 5.9856 21.9513 4.66804 22.9038 3.61648C23.9071 2.60293 24.758 1.80473 25.4692 1.20927C28.314 -1.13457 28.7585 -0.00702082 27.425 4.03452C27.1329 4.92137 27.5012 5.13684 27.5266 5.70696C27.552 6.27708 27.1964 7.15114 25.7613 9.53299C25.647 9.72303 25.4057 10.1159 25.2914 10.2933C21.0877 17.5782 17.2777 25.0404 14.217 32.9335C11.1816 40.8138 8.97183 49.125 8.12093 57.6515C7.51133 62.8713 7.56211 68.1416 7.82881 73.3741C8.07012 75.984 8.24792 78.5939 8.73053 81.1785C9.06073 83.7757 9.69574 86.3222 10.2672 88.8687C11.6261 93.9111 13.2136 98.9156 15.4488 103.667C16.4394 106.099 17.773 108.354 18.9541 110.698L20.9734 114.068L21.9894 115.753L23.107 117.375C34.7656 134.833 52.4568 148.301 72.4086 154.56C82.3527 157.626 92.9572 158.791 103.219 157.6C113.455 156.422 123.387 152.697 131.134 146.21C138.716 139.863 143.681 130.348 145.129 120.479C145.853 115.538 145.701 110.483 144.507 105.757C143.313 101.019 141.052 96.6352 137.814 93.1004C133.915 88.6788 128.53 85.7648 122.688 84.5486C116.833 83.307 110.547 83.7251 104.616 85.3721C92.7541 88.6535 81.9082 96.8251 76.7139 107.772C74.0469 113.371 72.4594 119.478 71.926 125.724C71.3799 131.97 71.8371 138.33 73.0817 144.551C75.5963 157.017 81.0954 168.952 88.4868 179.404C96.7164 190.857 107.13 200.664 118.891 208.709L118.688 208.569C131.083 216.842 145.256 222.303 159.81 224.457C166.681 225.584 173.742 225.521 180.664 224.925C187.56 224.14 194.405 222.392 200.908 219.744C213.913 214.473 225.673 205.807 234.207 194.798C238.513 189.324 241.929 183.23 244.367 176.845C245.561 173.64 246.488 170.358 247.161 167.039L247.606 164.543L247.923 162.034C248.05 161.186 248.05 160.413 248.114 159.602C248.19 158.804 248.152 158.006 248.139 157.195C247.987 150.784 246.285 144.196 242.996 139.116C241.37 136.582 239.351 134.479 237.065 133.11C234.804 131.729 232.213 131.159 229.622 131.223C227.959 131.324 225.8 131.919 223.628 133.186Z" fill="black"/>
</svg>
