<svg width="578" height="564" viewBox="0 0 578 564" fill="none" xmlns="http://www.w3.org/2000/svg">
<path d="M574.482 185.503C568.626 159.333 556.138 135.11 538.217 115.161C530.917 107.048 522.739 99.7686 513.834 93.4579C511.561 91.9567 509.373 90.2842 507.014 88.8902L499.937 84.7514C495.114 82.1543 490.137 79.8554 485.032 77.8675C475.122 73.9013 464.731 71.2617 454.129 70.018L453.379 68.9672C446.674 60.0526 438.535 52.3129 429.295 46.0635C419.881 39.9515 409.407 35.6531 398.414 33.3894L397.449 33.2176C396.619 32.2168 395.762 31.2301 394.875 30.2579C382.619 16.8735 366.745 7.33122 349.175 2.78651C331.607 -1.96439 312.946 -0.611408 296.247 6.62482C280.032 14.0439 266.917 26.8938 259.168 42.954C258.717 43.7046 258.01 45.4628 257.645 46.3206C257.088 47.6502 256.551 48.8301 256.144 49.9668C255.736 51.1034 255.479 52.1112 255.179 53.0977C254.879 54.0842 254.664 54.899 254.45 55.6711C254.235 56.4431 254.192 57.1723 254.085 57.8156C253.726 59.3905 253.639 61.0152 253.828 62.6194C254.52 64.2035 254.892 65.9093 254.921 67.6379C255.05 70.5857 255.525 73.5077 256.337 76.3444C256.959 78.3174 257.495 79.4112 257.967 79.6685C258.439 79.9259 258.825 79.3253 259.168 77.9313C259.511 76.5374 259.64 74.3074 260.24 71.305C261.712 61.8225 265.098 52.7386 270.191 44.6054C274.184 38.2717 279.124 32.5868 284.838 27.7489C291.968 21.7741 300.254 17.335 309.179 14.7098C318.049 12.3098 327.311 11.7194 336.415 12.9732C345.69 14.265 354.667 17.1681 362.943 21.5514C368.054 24.2275 372.87 27.4332 377.311 31.116L377.59 31.3302C373.451 31.3654 369.318 31.6594 365.216 32.2098C354.059 33.6628 343.289 37.2601 333.498 42.8037C323.508 48.4241 315.019 56.3688 308.75 65.9651C302.581 75.6761 298.953 86.7823 298.199 98.2622C297.342 109.903 299.89 121.542 305.533 131.76C307 134.331 308.686 136.771 310.573 139.051L313.618 142.311C314.107 142.871 314.63 143.401 315.184 143.898L316.899 145.314C317.521 145.785 318.122 146.279 318.722 146.772C312.266 167.468 312.266 189.64 318.722 210.336C320.445 215.682 322.656 220.858 325.327 225.799C326.442 227.815 327.665 229.766 328.952 231.696C326.219 235.739 323.72 239.935 321.467 244.263C318.387 250.312 315.825 256.611 313.811 263.093C309.655 276.204 308.232 290.027 309.629 303.71C311.19 317.518 316.028 330.753 323.74 342.312C327.523 348.041 331.893 353.36 336.779 358.182C341.667 362.944 346.979 367.251 352.649 371.05C364.001 378.521 376.56 383.97 389.771 387.155C402.95 390.353 416.576 391.288 430.067 389.922C443.439 388.507 456.544 385.208 468.991 380.121C493.764 369.952 515.812 354.124 533.371 333.906C537.966 328.662 542.261 323.163 546.238 317.436C549.369 349.454 542.528 382.223 528.974 411.667C522.133 426.534 513.652 440.589 503.69 453.572C501.202 456.832 498.522 460.006 495.97 463.094C493.418 466.182 490.415 469.12 487.649 472.144C484.882 475.168 481.88 477.956 478.899 480.722C475.918 483.489 473.001 486.405 469.763 488.936C418.922 531.744 353.41 553.073 287.111 548.404C283.015 548.276 278.962 547.611 274.909 547.096C270.856 546.581 266.759 546.153 262.771 545.231C258.782 544.308 254.729 543.665 250.74 542.742L238.88 539.526C223.165 534.785 207.93 528.581 193.373 520.997C178.889 513.211 165.111 504.177 152.197 493.997C139.448 483.645 127.662 472.161 116.984 459.684C105.111 445.767 94.8852 430.525 86.5095 414.262C85.4586 412.118 84.3649 410.252 83.357 408.193L80.5691 401.931L77.7811 395.691C76.8375 393.546 76.1084 391.402 75.2505 389.257C72.3978 381.612 70.0481 373.789 68.2164 365.838C70.361 367.018 72.7414 368.154 75.079 369.205C84.8269 373.566 95.1825 376.415 105.789 377.655C116.744 378.932 127.841 378.161 138.515 375.382L146.45 372.872L150.417 371.199C151.725 370.62 152.969 369.913 154.256 369.27C159.23 366.536 163.86 363.217 168.046 359.383C176.169 351.822 182.658 342.677 187.111 332.512C191.539 322.625 194.036 311.983 194.466 301.158C194.949 290.347 192.846 279.577 188.333 269.741C186.695 266.324 184.711 263.083 182.414 260.069C183.937 258.825 185.459 257.56 187.003 256.209C198.229 246.55 208.155 235.478 216.534 223.268C224.678 211.386 231.05 198.383 235.449 184.666C237.006 179.736 238.295 174.724 239.309 169.654C240.223 164.558 240.875 159.419 241.261 154.256C241.793 143.841 240.862 133.403 238.494 123.246C233.83 102.848 223.78 84.0742 209.393 68.8814C205.764 65.0745 201.834 61.5676 197.64 58.3947C193.444 55.1316 188.958 52.2601 184.237 49.8165C174.724 44.8477 164.339 41.7673 153.656 40.7451C143.006 39.7496 132.264 40.7091 121.959 43.576C119.386 44.1979 116.898 45.1413 114.367 45.9776C111.837 46.814 109.435 47.8862 107.054 49.0442C102.282 51.2467 97.6861 53.8136 93.3077 56.7219C75.7867 68.2167 61.8685 83.9151 50.7383 100.943C39.6529 118.116 31.2025 136.853 25.6684 156.53C22.2019 168.376 19.7836 180.503 18.4413 192.772C13.1492 200.23 8.93312 208.395 5.91706 217.027C2.42172 227.042 0.448191 237.524 0.0623989 248.124C-0.590273 269.113 3.88535 289.945 13.1013 308.815L16.2324 314.862C17.3904 316.835 18.3769 318.872 19.728 320.845L23.6311 326.764C24.9392 328.759 26.5048 330.561 27.9202 332.491C34.0211 340.232 41.0265 347.216 48.7867 353.293C49.6446 353.979 50.5667 354.601 51.4674 355.266C51.4674 355.523 51.4674 355.802 51.4674 356.059C52.1108 359.555 52.5826 363.093 53.419 366.546C56.3923 380.441 60.8798 393.968 66.801 406.885C68.2807 410.102 69.6103 413.319 71.2188 416.579L76.1942 425.993C77.0305 427.559 77.824 429.145 78.7247 430.689L81.5127 435.236L87.1314 444.35C95.0967 456.25 103.981 467.507 113.702 478.02C153.323 521.197 206.027 550.167 263.714 560.478C278.195 562.854 292.854 563.98 307.527 563.845C314.862 564.017 322.175 563.266 329.488 562.816C333.155 562.58 336.758 561.936 340.404 561.507C344.049 561.078 347.695 560.672 351.276 559.878C394.743 552.149 435.701 534.036 470.664 507.079L479.135 500.109C480.529 498.908 481.987 497.815 483.424 496.571L487.413 492.818C490.072 490.287 492.753 487.821 495.369 485.269L502.832 477.227C522.554 455.644 537.991 430.506 548.318 403.154C559.584 374.216 563.661 342.977 560.199 312.117L558.376 300.622L557.819 298.285C563.455 287.542 568.003 276.263 571.394 264.615C578.993 238.913 580.055 211.719 574.482 185.503ZM30.7725 205.49C30.7725 203.517 30.9226 201.544 31.0513 199.571C35.5363 193.408 40.8145 187.862 46.7494 183.079C53.5447 177.651 61.1989 173.397 69.3959 170.491C71.4118 169.762 73.5135 169.268 75.5937 168.646C77.6739 168.024 79.8828 167.702 82.0274 167.488C84.1719 167.274 86.3165 167.016 88.461 166.909H94.8947C112.325 168.528 128.602 176.324 140.788 188.891C146.872 195.06 151.713 202.34 155.049 210.336C158.391 218.213 159.859 226.759 159.339 235.299C159.164 237.416 158.871 239.521 158.459 241.604C152.518 239.231 146.247 237.784 139.866 237.315C130.958 236.738 122.018 237.755 113.467 240.318C99.1133 244.634 86.0898 252.522 75.6151 263.243C71.4422 267.527 67.7463 272.251 64.5921 277.333C63.9273 278.426 63.2839 279.477 62.7049 280.592C59.699 278.273 56.894 275.705 54.3197 272.915C46.0877 263.954 39.8524 253.348 36.0266 241.797C32.2673 230.071 30.4916 217.801 30.7725 205.49ZM146.193 267.682C138.92 277.131 129.312 284.523 118.313 289.128C107.476 293.779 95.3843 294.633 84.0004 291.551C80.8912 290.682 77.8574 289.564 74.9289 288.205C75.3578 287.39 75.7867 286.597 76.2156 285.825C80.6547 278.459 86.4295 271.986 93.2434 266.738C106.797 256.187 124.382 250.032 140.981 252.005C145.368 252.52 149.657 253.661 153.72 255.393C151.655 259.746 149.132 263.866 146.193 267.682ZM171.756 269.976C174.065 273.347 175.898 277.021 177.203 280.892C187.69 312.568 167.552 354.193 134.162 361.699C117.119 365.7 99.2373 364.06 83.2068 357.024C76.8777 354.376 70.8046 351.153 65.0639 347.395C63.6162 334.981 64.2029 322.413 66.801 310.187C67.5296 306.89 68.4534 303.638 69.5675 300.451C77.4554 304.183 86.006 306.312 94.7232 306.713C105.831 307.081 116.864 304.772 126.892 299.979C136.734 295.327 145.555 288.767 152.841 280.678C153.634 279.777 154.428 278.855 155.2 277.933C156.401 277.354 157.644 276.732 159.017 275.938C163.085 273.759 167.023 271.347 170.812 268.712C171.112 269.162 171.498 269.569 171.756 269.976ZM48.3364 132.725C53.4934 121.286 59.8329 110.419 67.2514 100.299C74.5145 90.2182 83.1142 81.1711 92.8145 73.4066C102.33 65.7352 113.26 60.0078 124.983 56.5502C136.541 53.249 148.727 52.8004 160.497 55.2423C172.217 57.893 183.136 63.3041 192.343 71.0259C201.681 78.8407 209.465 88.3419 215.29 99.034C221.194 109.702 225.206 121.311 227.15 133.347C228.115 139.329 228.518 145.389 228.35 151.447C228.09 157.518 227.33 163.558 226.077 169.504C224.097 178.994 221.016 188.221 216.899 196.997C215.891 199.142 215.076 201.287 213.939 203.152L210.744 209.028C209.671 210.958 208.449 212.76 207.355 214.583C206.262 216.406 205.211 218.186 203.881 219.858C195.678 231.746 186.263 242.748 175.787 252.691C174.175 251.15 172.463 249.717 170.662 248.402C173.153 239.063 173.577 229.293 171.906 219.773C169.944 208.961 165.632 198.711 159.274 189.749C153.04 180.905 145.215 173.299 136.199 167.317C127.206 161.287 117.159 157.001 106.583 154.685C103.933 154.077 101.246 153.641 98.5405 153.377C95.8243 153.026 93.0867 152.869 90.3482 152.905C87.6034 152.834 84.8571 152.978 82.1346 153.334C80.762 153.506 79.3681 153.527 78.0385 153.827L74.0496 154.621C63.4801 156.952 53.4462 161.26 44.4761 167.317C41.0801 169.569 37.8349 172.04 34.7613 174.715C35.2117 172.571 35.6835 170.426 36.1982 168.432C39.1361 156.195 43.1995 144.256 48.3364 132.768V132.725ZM40.8518 325.735C29.5401 311.924 21.5108 295.727 17.369 278.362C13.0066 261.143 13.2136 243.084 17.9695 225.97C18.141 225.391 18.3341 224.834 18.5271 224.255C19.4101 232.343 21.2235 240.301 23.9313 247.973C27.4608 258.027 32.5956 267.442 39.1362 275.853C42.4333 280.094 46.1084 284.027 50.1163 287.605C52.0679 289.449 54.2768 291.058 56.3999 292.73L56.7859 292.988C53.1924 302.963 51.0265 313.396 50.3523 323.977C50.0735 327.73 49.9448 331.483 49.9877 335.236C46.7691 332.24 43.7192 329.068 40.8518 325.735ZM419.366 54.7705C422.054 56.3626 424.634 58.1321 427.086 60.0675L430.689 63.177L432.491 64.721L434.164 66.4153L436.587 68.9028C431.165 68.899 425.75 69.25 420.374 69.9536C418.851 70.1681 417.329 70.4471 415.828 70.683C414.148 63.2377 411.54 56.0328 408.064 49.2374C411.978 50.7664 415.758 52.6172 419.366 54.7705ZM395.948 122.624C392.584 127.698 388.264 132.068 383.23 135.491C378.562 138.468 373.512 140.798 368.218 142.418C357.668 145.488 346.422 145.188 336.05 141.561C337.344 138.728 338.813 135.977 340.446 133.325C341.218 131.996 342.141 130.752 342.977 129.465C343.813 128.178 344.929 126.999 345.872 125.755L348.832 122.045C349.882 120.865 350.976 119.751 352.091 118.593C360.929 109.41 371.29 101.827 382.716 96.1815C389.957 92.5853 397.535 89.712 405.341 87.6033C405.916 99.9683 402.633 112.207 395.948 122.624ZM311.409 109.907C309.601 97.2078 312.262 84.2749 318.937 73.3207C322.196 68.0756 326.281 63.3905 331.032 59.4455C335.678 55.6348 340.832 52.4878 346.344 50.095C360.21 44.2659 375.419 42.3879 390.286 44.6692L390.457 44.8839C396.593 53.3904 400.967 63.0365 403.325 73.2563C398.332 74.5177 393.407 76.0355 388.57 77.8031C378.338 81.7626 368.612 86.9241 359.597 93.1794L352.992 98.0905L346.794 103.559L345.25 104.931L343.813 106.433L340.961 109.435L338.13 112.437L335.535 115.676C331.955 119.964 328.788 124.581 326.078 129.465C325.241 131.009 324.469 132.575 323.719 134.162C322.711 133.154 321.767 132.017 320.781 131.074C320.244 130.524 319.756 129.929 319.323 129.294C318.872 128.672 318.379 128.071 317.95 127.428C314.54 122.123 312.31 116.148 311.409 109.907ZM331.547 153.785L332.254 154.085C343.211 157.735 354.93 158.469 366.257 156.212C377.583 153.956 388.127 148.788 396.848 141.217C399.034 139.3 401.05 137.197 402.874 134.934C403.775 133.797 404.783 132.79 405.577 131.503L407.914 127.9C408.712 126.698 409.429 125.444 410.059 124.147L411.967 120.329L413.533 116.341L414.305 114.346C414.519 113.66 414.691 112.973 414.905 112.309C417.534 103.44 418.565 94.174 417.951 84.9441C427.873 83.3249 437.957 82.9364 447.975 83.7864L448.789 85.2231L451.191 89.3834L453.336 93.6726C454.069 95.0997 454.721 96.5676 455.287 98.069L457.067 102.572C457.689 104.052 458.075 105.618 458.59 107.14C459.105 108.663 459.619 110.207 459.984 111.772L461.142 116.491C464.023 129.143 464.935 142.163 463.844 155.093C463.317 161.545 462.336 167.952 460.906 174.265C459.927 178.24 458.724 182.157 457.303 185.996C454.086 185.009 450.87 184.109 447.588 183.38C432.948 180.045 417.802 179.571 402.982 181.985C388.129 184.575 374.015 190.355 361.613 198.928C355.98 202.73 350.704 207.037 345.851 211.795C343.234 214.368 340.704 217.028 338.28 219.816C332.863 209.803 329.577 198.777 328.63 187.433C327.544 176.125 328.533 164.715 331.547 153.763V153.785ZM451.32 199.163C446.526 208.307 440.461 216.726 433.306 224.169C428.934 228.739 424.08 232.823 418.83 236.35C413.729 239.86 408.173 242.659 402.317 244.671C390.903 248.739 378.451 248.837 366.975 244.95C359.145 242.171 352.119 237.509 346.515 231.374C355.029 220.829 365.51 212.038 377.376 205.49C383.832 201.963 390.695 199.241 397.813 197.384C404.969 195.59 412.312 194.655 419.688 194.596C430.4 194.54 441.061 196.079 451.32 199.163ZM513.298 334.442C502.498 345.038 490.218 354.01 476.84 361.077C463.608 368.168 449.274 372.976 434.442 375.296C419.766 377.589 404.773 376.807 390.415 373.001C376.114 369.163 362.818 362.263 351.448 352.778C345.882 348.041 340.926 342.631 336.693 336.672C332.467 330.76 329.135 324.256 326.807 317.371C322.324 303.447 321.753 288.557 325.156 274.33C327.736 263.175 332.157 252.528 338.238 242.827C345.462 249.976 354.283 255.305 363.972 258.375C375.014 261.828 386.762 262.359 398.071 259.919C409.125 257.417 419.548 252.673 428.695 245.979C443.66 234.858 455.761 220.331 463.994 203.603L465.924 204.418C480.577 211.057 493.931 220.25 505.363 231.568C516.868 242.853 526.355 256.025 533.414 270.513C536.93 277.717 539.745 285.244 541.82 292.988C542.056 294.103 542.313 295.132 542.592 296.312C542.12 297.127 541.692 297.942 541.22 298.757C533.592 311.876 524.197 323.883 513.298 334.442ZM558.569 257.238C556.732 264.097 554.454 270.831 551.75 277.397C550.491 273.98 549.097 270.62 547.568 267.317C541.112 253.456 532.658 240.617 522.476 229.208C512.646 218.02 501.23 208.331 488.592 200.45C482.536 196.737 476.214 193.476 469.677 190.692C471.129 186.734 472.353 182.695 473.345 178.597C474.598 173.278 475.558 167.895 476.218 162.47C477.508 151.639 477.566 140.696 476.39 129.851C474.827 114.775 470.646 100.086 464.037 86.4457C476.214 89.3993 487.855 94.2323 498.543 100.771C511.257 108.603 522.542 118.546 531.912 130.173C536.662 135.971 540.964 142.122 544.78 148.573C546.495 151.897 548.425 155.007 549.991 158.524C551.557 162.041 553.208 165.301 554.409 168.839C559.868 182.79 562.956 197.555 563.545 212.524C564.053 227.562 562.377 242.595 558.569 257.152V257.238Z" fill="black"/>
</svg>
