<svg width="234" height="229" viewBox="0 0 234 229" fill="none" xmlns="http://www.w3.org/2000/svg">
<path d="M232.692 109.654C231.355 93.9458 226.938 78.6548 219.692 64.6538C212.384 50.5521 202.255 38.1041 189.932 28.0838C189.172 27.4438 188.382 26.8338 187.582 26.2438L185.192 24.4538C183.592 23.2738 181.902 22.2038 180.252 21.0838C176.882 19.0838 173.552 16.9538 170.042 15.2338C168.302 14.3238 166.572 13.4038 164.782 12.6438C162.992 11.8838 161.232 11.0138 159.432 10.2738L154.002 8.17385C152.192 7.47385 150.342 6.92386 148.512 6.30386C137.602 2.76905 126.268 0.707481 114.812 0.173852C106.155 -0.305673 97.4721 0.207578 88.9321 1.70376C74.7521 4.35376 67.2021 9.12382 67.1821 13.7638C67.1821 16.0338 69.9819 17.5039 74.5119 18.4339C77.1809 18.9924 79.8783 19.4064 82.592 19.6739C62.6831 24.3931 44.4341 34.4422 29.8019 48.7438C27.6619 50.7438 25.8019 52.9939 23.8019 55.1839C22.8019 56.2539 21.9419 57.4538 21.0319 58.6238L18.352 62.1438C14.9924 66.9828 12.0548 72.1016 9.57196 77.4437C8.96196 78.7837 8.31191 80.1038 7.76191 81.4437L6.20185 85.5539L5.43207 87.6138L4.79193 89.7138L3.53192 93.9239C3.14192 95.3339 2.86192 96.7639 2.53192 98.1839L2.05194 100.324L1.82196 101.394L1.64203 102.474C1.21203 105.364 0.641876 108.234 0.481876 111.144C-0.644641 122.77 0.207444 134.503 3.0019 145.844L4.09198 150.084C4.51198 151.474 4.99184 152.854 5.44184 154.244C6.28184 157.044 7.44196 159.714 8.57196 162.424C9.09196 163.784 9.80207 165.074 10.4321 166.424C11.0621 167.774 11.7221 169.044 12.4321 170.334L14.592 174.124L16.9121 177.794C23.2712 187.411 31.0802 195.985 40.062 203.214C48.9657 210.439 58.916 216.269 69.572 220.504C84.1383 226.199 99.6975 228.919 115.332 228.504C130.769 228.132 146.025 225.086 160.422 219.504C174.961 213.97 188.327 205.746 199.822 195.264C205.633 189.917 210.832 183.94 215.322 177.444C219.828 170.873 223.538 163.79 226.372 156.344C231.867 141.43 234.025 125.492 232.692 109.654ZM142.812 135.214C142.489 139.493 141.306 143.663 139.332 147.474L138.572 148.864L138.192 149.554L137.742 150.194C137.183 151.075 136.565 151.917 135.892 152.714C134.576 154.358 133.083 155.854 131.442 157.174C124.662 162.669 116.047 165.382 107.342 164.764C106.825 164.736 106.31 164.672 105.802 164.574C105.298 164.517 104.797 164.434 104.302 164.324L102.842 163.994L101.402 163.544C99.4701 162.897 97.6155 162.038 95.872 160.984C94.5099 160.125 93.216 159.162 92.0019 158.104C92.8502 158.721 93.7317 159.292 94.642 159.814C98.5437 162.006 102.886 163.298 107.352 163.594C108.492 163.684 109.672 163.654 110.852 163.594C112.069 163.521 113.281 163.381 114.482 163.174C115.746 162.957 116.992 162.65 118.212 162.254C119.518 161.844 120.789 161.329 122.012 160.714C123.112 160.184 124.142 159.514 125.252 158.834C126.142 158.164 127.062 157.494 127.902 156.744C128.749 155.995 129.55 155.197 130.302 154.354C131.044 153.529 131.732 152.657 132.362 151.744L133.282 150.364C133.572 149.894 133.822 149.364 134.092 148.934C136.152 145.142 137.366 140.949 137.652 136.644C137.956 132.328 137.346 127.997 135.862 123.934C135.502 122.934 135.012 121.934 134.552 120.934C134.092 119.934 133.462 118.934 132.872 118.044C131.699 116.295 130.359 114.664 128.872 113.174C125.153 109.474 120.662 106.639 115.722 104.874C110.447 102.962 104.829 102.175 99.2319 102.564C93.5627 102.993 88.0503 104.626 83.062 107.354C84.2815 106.337 85.5715 105.408 86.9221 104.574C94.0621 100.114 103.432 98.4738 112.462 99.7738C121.492 101.074 130.092 105.224 135.462 111.514C140.949 118.131 143.592 126.653 142.812 135.214ZM102.992 129.214C102.918 128.412 103.142 127.611 103.622 126.964L104.082 126.404H104.422C105.367 126.545 106.3 126.759 107.212 127.044C108.072 127.326 108.905 127.684 109.702 128.114C110.102 128.294 110.432 128.554 110.802 128.754C111.172 128.954 111.472 129.214 111.732 129.474C112.281 129.909 112.771 130.413 113.192 130.974C113.282 131.104 113.372 131.234 113.472 131.354C113.542 131.463 113.606 131.577 113.662 131.694C113.822 131.884 113.872 132.164 114.022 132.374C114.223 132.911 114.367 133.467 114.452 134.034C114.532 134.638 114.532 135.25 114.452 135.854C114.431 136.155 114.394 136.456 114.342 136.754C114.232 137.014 114.222 137.324 114.102 137.564C113.95 138.055 113.731 138.523 113.452 138.954C113.213 139.311 112.942 139.646 112.642 139.954C112.332 140.215 111.997 140.446 111.642 140.644C111.14 140.901 110.605 141.09 110.052 141.204C108.73 141.45 107.374 141.45 106.052 141.204C105.03 140.993 104.048 140.621 103.142 140.104C103.073 140.039 102.999 139.979 102.922 139.924C102.842 139.88 102.765 139.829 102.692 139.774C102.627 139.725 102.556 139.685 102.482 139.654C102.392 139.654 102.382 139.534 102.312 139.474C102.242 139.414 102.102 139.144 101.952 138.934C101.802 138.724 101.902 138.684 101.842 138.554C101.791 138.412 101.761 138.264 101.752 138.114C101.733 137.812 101.753 137.51 101.812 137.214C102.083 135.981 102.417 134.763 102.812 133.564C102.959 133.146 103.06 132.714 103.112 132.274C103.169 131.917 103.192 131.555 103.182 131.194C103.252 130.474 103.062 129.824 103.012 129.164L102.992 129.214ZM165.792 126.214L165.602 124.464C165.473 123.281 165.279 122.106 165.022 120.944C164.752 119.774 164.602 118.594 164.232 117.444C162.999 112.753 161.178 108.237 158.812 104.004C157.573 101.917 156.2 99.9126 154.702 98.0038C153.932 97.0038 153.222 96.0038 152.372 95.1638L149.842 92.5338C146.403 89.1941 142.552 86.3073 138.382 83.9437C136.348 82.7677 134.251 81.7029 132.102 80.7538C131.022 80.3038 129.932 79.9038 128.842 79.4838L127.212 78.8738L125.552 78.3638L122.212 77.3638L118.822 76.6338L117.122 76.2838L115.412 76.0438L111.972 75.6038L108.502 75.3938C107.922 75.3938 107.352 75.3239 106.772 75.3139H105.022C103.862 75.3139 102.702 75.3138 101.542 75.4138L98.0519 75.7538C96.8799 75.8627 95.7148 76.0363 94.562 76.2738C93.4119 76.4938 92.242 76.6738 91.092 76.9538C88.7698 77.508 86.4824 78.1992 84.2419 79.0238C79.6782 80.6664 75.3458 82.8915 71.352 85.6438L68.412 87.7738C67.472 88.5338 66.572 89.3338 65.652 90.1138C65.202 90.5138 64.7319 90.9039 64.3019 91.3139L63.0319 92.6038C62.2019 93.4738 61.3119 94.2938 60.5519 95.2138C57.3982 98.8229 54.6641 102.778 52.402 107.004C50.1729 111.247 48.4222 115.724 47.1821 120.354C45.9877 125.05 45.3366 129.869 45.2419 134.714C45.2175 137.5 45.398 140.284 45.7819 143.044C44.1368 134.825 44.1777 126.357 45.902 118.154C47.1564 112.361 49.2021 106.769 51.9819 101.534L53.062 99.6038C53.3977 98.9502 53.7751 98.3189 54.1918 97.7138L56.6621 94.0738L59.4418 90.6739C59.8955 90.1051 60.3904 89.5703 60.9221 89.0738L62.4518 87.5038C63.4584 86.4556 64.5379 85.4798 65.6821 84.5838L67.332 83.1638C67.892 82.7038 68.492 82.3038 69.072 81.8638C71.4516 80.1788 73.9478 78.665 76.5419 77.3338C81.8907 74.6716 87.5758 72.7475 93.4418 71.6138C105.336 69.2391 117.64 69.9483 129.182 73.6739C133.741 75.1424 138.107 77.157 142.182 79.6739C144.16 80.9215 146.05 82.3013 147.842 83.8039C148.772 84.5239 149.562 85.3438 150.422 86.1038L151.632 87.3438C152.042 87.7438 152.442 88.1638 152.812 88.6038C159.053 95.6783 163.243 104.322 164.932 113.604C165.712 117.742 166.007 121.957 165.812 126.164L165.792 126.214Z" fill="black"/>
</svg>
