<svg width="234" height="207" viewBox="0 0 234 207" fill="none" xmlns="http://www.w3.org/2000/svg">
<path d="M233.59 92.2881C233.59 91.5581 233.59 90.8281 233.51 90.1081L233.31 87.948L232.89 83.6181L232.19 79.338L231.83 77.198L231.35 75.088L230.35 70.8781C229.96 69.4981 229.52 68.1181 229.1 66.7381C228.68 65.3581 228.26 63.9881 227.72 62.6481C223.783 51.7564 217.95 41.6473 210.49 32.7881C206.729 28.3154 202.561 24.2011 198.041 20.4981L194.521 17.838C193.931 17.398 193.34 16.9481 192.74 16.5281L190.89 15.328L187.16 12.958L183.291 10.8681L181.34 9.86807C180.69 9.53807 180.01 9.25802 179.34 8.94802L175.34 7.16812C173.98 6.61811 172.6 6.1681 171.23 5.6481C169.86 5.1281 168.48 4.64809 167.07 4.26809L162.86 3.06802C161.45 2.67802 160.01 2.43802 158.59 2.06802C155.75 1.38802 152.86 1.0681 149.97 0.648096C149.25 0.538096 148.52 0.468125 147.8 0.428125L145.62 0.268091C144.16 0.188091 142.71 -0.00190935 141.25 0.0180906C138.34 0.0180906 135.41 -0.0818654 132.5 0.188135C126.642 0.530372 120.826 1.39374 115.12 2.76809L112.24 3.57803C110.73 3.46803 109.24 3.3481 107.7 3.2781H101.98H100.56C100.08 3.2781 99.5604 3.27806 99.1304 3.35806L96.2705 3.53811L93.4104 3.73806C92.4604 3.79806 91.5103 3.95802 90.5603 4.06802C86.7754 4.54296 83.0172 5.2105 79.3003 6.06802C64.3927 9.4924 50.3616 15.9836 38.1003 25.1281C24.0538 35.4759 13.1083 49.4718 6.45043 65.598C4.81427 69.6672 3.49376 73.8563 2.50048 78.1281C1.96048 80.2481 1.61044 82.3981 1.21044 84.5381C1.04044 85.6081 0.910492 86.6881 0.760492 87.7581C0.610492 88.8281 0.490394 89.9081 0.410394 90.9881C0.015966 95.2794 -0.0943526 99.5922 0.0803161 103.898C0.275862 108.164 0.723396 112.415 1.4204 116.628C4.26378 133.411 10.944 149.311 20.9404 163.088C23.4495 166.529 26.1609 169.819 29.0603 172.938C29.7803 173.725 30.5205 174.495 31.2805 175.248L33.5603 177.498C35.1603 178.938 36.7004 180.418 38.3904 181.768C41.6969 184.534 45.1847 187.077 48.8303 189.378C52.4344 191.635 56.1639 193.685 60.0005 195.518C75.2753 202.633 91.9003 206.384 108.75 206.518C125.319 206.666 141.768 203.698 157.24 197.768C172.722 191.847 186.892 182.95 198.95 171.578C204.982 165.894 210.417 159.608 215.17 152.818C219.993 145.959 223.969 138.542 227.01 130.728C229.134 125.345 230.771 119.783 231.9 114.108C232.16 112.668 232.51 111.268 232.67 109.808L233.22 105.448C233.44 103.998 233.46 102.538 233.55 101.078C233.64 99.618 233.73 98.168 233.72 96.708L233.59 92.2881ZM130.021 120.288H130.08H130.021ZM129.92 120.288C129.92 120.288 129.85 120.238 129.92 120.288V120.288ZM124.92 115.028C124.99 115.042 125.061 115.042 125.13 115.028C125.199 115.063 125.274 115.084 125.35 115.088C125.41 115.088 125.44 115.148 125.49 115.158H125.57H125.66C125.994 115.305 126.309 115.49 126.6 115.708C126.991 116.032 127.355 116.387 127.69 116.768C128.265 117.484 128.758 118.262 129.16 119.088C129.28 119.258 129.3 119.348 129.41 119.498C129.52 119.648 129.46 119.598 129.51 119.668C129.558 119.725 129.595 119.789 129.62 119.858C129.65 119.94 129.691 120.017 129.74 120.088L129.93 120.188V120.258C129.93 120.258 130.031 120.398 130.041 120.478C130.043 120.984 129.869 121.475 129.55 121.868C129.067 122.491 128.474 123.02 127.8 123.428C127.72 123.428 127.6 123.558 127.48 123.618L127.14 123.738C125.553 124.208 124.104 125.06 122.92 126.218C122.42 126.708 121.92 127.218 121.45 127.768C120.921 128.336 120.217 128.713 119.45 128.838H119.281C118.951 128.545 118.64 128.231 118.35 127.898C118.22 127.728 118.11 127.538 117.97 127.368C117.83 127.198 117.66 127.048 117.6 126.848C117.517 126.664 117.42 126.487 117.31 126.318C117.31 126.228 117.19 126.148 117.15 126.058L117.06 125.778C116.991 125.59 116.91 125.407 116.82 125.228C116.74 125.058 116.75 124.938 116.68 124.798C116.615 124.498 116.571 124.194 116.55 123.888C116.518 122.527 116.864 121.184 117.55 120.008C118.305 118.583 119.359 117.337 120.64 116.358C121.58 115.596 122.699 115.086 123.89 114.878C124.238 114.871 124.585 114.914 124.92 115.008V115.028ZM122.73 88.4781C120.558 88.5867 118.403 88.9219 116.3 89.4781C114.153 90.0463 112.069 90.8303 110.08 91.818C108.077 92.8172 106.172 94.0024 104.39 95.3581C102.594 96.7405 100.921 98.2762 99.3904 99.948C96.1935 103.47 93.6929 107.565 92.0205 112.018C90.1555 116.955 89.4706 122.259 90.0205 127.508C89.8005 126.908 89.5804 126.298 89.4004 125.688C89.2204 125.078 89.0503 124.318 88.8503 123.688L88.5205 121.618C88.4031 120.941 88.3394 120.255 88.3303 119.568L88.2505 118.568C88.2505 118.228 88.2505 117.868 88.2505 117.568C88.2987 114.704 88.7877 111.864 89.7004 109.148C90.1561 107.744 90.6936 106.369 91.3103 105.028L92.3103 103.028C92.6303 102.358 93.1105 101.768 93.4805 101.128C95.0875 98.6378 97.029 96.3801 99.2505 94.4181C101.406 92.4957 103.819 90.8835 106.42 89.6281C108.889 88.5479 111.504 87.8402 114.18 87.5281C117.421 87.3009 120.676 87.6393 123.8 88.5281L122.73 88.4781ZM111.9 34.4781C121.232 35.473 130.346 37.9474 138.9 41.8081L142.041 43.3681L143.62 44.1481L145.13 45.0281L148.13 46.7881C149.13 47.4081 150.061 48.0881 151.021 48.7281C151.381 48.9481 151.721 49.1881 152.021 49.4181C149.301 47.9824 146.499 46.7069 143.63 45.598C139.86 44.1947 135.989 43.0782 132.05 42.2581C119.683 39.7932 106.914 40.2037 94.7305 43.458C98.4665 40.2097 102.575 37.4169 106.97 35.1381C107.55 34.8381 108.13 34.5481 108.72 34.2681L111.9 34.4781ZM33.6103 121.008C32.3815 116.799 31.5085 112.494 31.0005 108.138C30.6575 105.067 30.5006 101.978 30.5305 98.8881C30.4579 95.4933 30.6315 92.0977 31.0503 88.7281C31.8079 84.6154 32.9944 80.5934 34.5903 76.7281C35.0203 75.7781 35.3703 74.7981 35.8603 73.8881C36.3503 72.9781 36.7303 72.0181 37.3003 71.1181L38.8804 68.3681C39.4504 67.4681 40.0704 66.608 40.6604 65.718C43.1151 62.1462 45.9334 58.8385 49.0703 55.848L50.2405 54.6881L51.5005 53.598C52.3505 52.888 53.1505 52.1281 54.0305 51.4381L55.0305 50.6881C52.2919 56.21 50.2754 62.0613 49.0305 68.098C48.8605 69.098 48.6905 70.0081 48.5205 70.9381C48.3413 71.8535 48.2143 72.7782 48.1404 73.708C47.9737 75.5414 47.8538 77.3014 47.7805 78.9881C47.7805 79.1681 47.7805 79.3481 47.7805 79.5281C44.6011 85.471 42.2461 91.8194 40.7805 98.3981C39.9263 102.193 39.3645 106.047 39.1003 109.928C38.9203 111.858 38.9103 113.778 38.8603 115.698C38.8103 117.618 38.8603 119.538 39.0603 121.438C39.4888 128.001 40.653 134.495 42.5305 140.798C38.6702 134.631 35.669 127.966 33.6103 120.988V121.008Z" fill="black"/>
</svg>
