<svg width="222" height="200" viewBox="0 0 222 200" fill="none" xmlns="http://www.w3.org/2000/svg">
<path d="M219.99 88.5898C218.404 79.6015 215.531 70.8888 211.46 62.72C207.407 54.6744 202.331 47.1858 196.36 40.4399C188.253 31.3915 178.81 23.6353 168.36 17.4399C165.78 15.8499 163.11 14.4398 160.44 13.0598L156.36 11.1199C155 10.4599 153.59 9.92982 152.21 9.31982C151.51 9.03982 150.82 8.72996 150.12 8.45996L148 7.66992C146.58 7.15992 145.18 6.59992 143.73 6.16992L139.41 4.80981L135.03 3.65991C129.18 2.18436 123.226 1.15466 117.22 0.579834L114.97 0.339844L112.71 0.209961C111.2 0.139961 109.71 0.02 108.18 0H103.65C102.13 0 100.65 0.109912 99.1099 0.159912C97.5699 0.209912 96.1101 0.289971 94.5701 0.469971C93.0301 0.649971 91.57 0.749932 90.05 0.929932C87.05 1.38993 84.05 1.77997 81.05 2.46997C78.05 3.15997 75.1099 3.88991 72.1599 4.65991C69.2499 5.65991 66.31 6.48991 63.46 7.65991C60.61 8.82991 57.8 10.0699 55 11.3599C53.63 12.0699 52.2699 12.8198 50.9099 13.5498C49.5499 14.2798 48.2099 15.0799 46.9099 15.9099L44.9099 17.1499C44.2499 17.5499 43.6 17.9799 42.97 18.4399L39.1799 21.1599C37.9399 22.0899 36.76 23.1098 35.55 24.0898L33.76 25.5698L32.05 27.1499C22.8463 35.5795 15.2763 45.6342 9.71997 56.8098C4.03814 68.1674 0.766198 80.5774 0.109863 93.26L0 98.0698C0 99.6798 0.14998 101.3 0.22998 102.91C0.22998 103.72 0.299893 104.53 0.389893 105.33L0.709961 107.73L1.04004 110.13C1.1361 110.93 1.27286 111.724 1.44995 112.51L2.44995 117.22C2.79995 118.79 3.32001 120.31 3.76001 121.85L4.45996 124.15L5.30005 126.4C5.89005 127.89 6.41006 129.4 7.06006 130.87C13.258 139.302 18.7975 148.198 23.6299 157.48C24.2599 158.48 24.9799 159.48 25.6299 160.48C26.2799 161.48 26.97 162.48 27.76 163.42C33.6149 170.913 40.7643 177.297 48.8699 182.27C56.6264 187.048 64.9737 190.793 73.7 193.41C82.1743 195.987 90.8838 197.715 99.7 198.57C108.47 199.443 117.302 199.487 126.08 198.7C134.914 197.899 143.647 196.225 152.15 193.7C160.796 191.131 169.11 187.553 176.92 183.04C184.898 178.392 192.16 172.612 198.48 165.88C201.651 162.451 204.54 158.773 207.12 154.88C208.46 152.96 209.56 150.88 210.75 148.88C211.36 147.88 211.82 146.8 212.35 145.75L213.87 142.59C221.2 125.59 223.33 106.799 219.99 88.5898ZM118.81 92.1599C119.137 92.1599 119.47 92.1399 119.81 92.0999C122.613 92.1268 125.374 92.7831 127.89 94.02C129.148 94.616 130.33 95.3614 131.41 96.24C132.42 97.0672 133.33 98.0102 134.12 99.0498C134.31 99.2998 134.45 99.5698 134.62 99.8198C134.809 100.057 134.964 100.32 135.08 100.6C135.21 100.87 135.35 101.13 135.5 101.39C135.65 101.65 135.69 101.93 135.8 102.2L135.97 102.6L136.05 102.98C136.11 103.24 136.19 103.48 136.26 103.74C136.342 104.287 136.392 104.837 136.41 105.39C136.449 107.051 136.157 108.703 135.55 110.25C134.934 111.851 134.013 113.318 132.84 114.57C131.85 115.664 130.641 116.536 129.29 117.13C129.143 117.192 128.999 117.262 128.86 117.34L128.42 117.45C128.273 117.486 128.13 117.533 127.99 117.59C127.848 117.62 127.705 117.64 127.56 117.65C127.065 117.764 126.555 117.798 126.05 117.75L125.61 117.69C125.942 116.617 126.177 115.516 126.31 114.4C126.677 111.251 126.289 108.06 125.18 105.09C124.005 101.869 122.05 98.9904 119.49 96.71C118.755 96.0447 117.966 95.4426 117.13 94.9099C116.7 94.6299 116.25 94.3599 115.8 94.0999C115.35 93.8399 114.8 93.6099 114.31 93.3899L113.96 93.25L114.96 92.9199C115.282 92.7911 115.618 92.6972 115.96 92.6399L116.96 92.3999L117.91 92.26L118.39 92.1899L118.81 92.1599ZM74.4099 114.16C75.0178 108.699 76.8168 103.439 79.6799 98.75C77.5614 105.8 77.3921 113.292 79.1899 120.43C80.1735 124.374 81.7051 128.161 83.74 131.68C85.6598 135.024 87.9728 138.126 90.6299 140.92C90.9599 141.26 91.3099 141.58 91.6299 141.92C89.1845 141.008 86.8605 139.799 84.71 138.32C82.1921 136.631 80.031 134.463 78.3499 131.94C75.0399 127.16 73.6899 120.83 74.3899 114.16H74.4099ZM46.27 47.53C51.2583 42.4877 56.9548 38.1991 63.1799 34.7998C69.4662 31.368 76.1725 28.7695 83.1299 27.0698C91.5956 25.0011 100.315 24.1591 109.02 24.5698C106.02 24.7998 103.1 25.1599 100.17 25.6299C92.15 26.9427 84.2948 29.1152 76.74 32.1099C61.7609 37.9409 48.2431 46.9869 37.1399 58.6099C39.8346 54.6544 42.884 50.9523 46.25 47.5498L46.27 47.53ZM185.73 139.16C182.615 144.008 178.824 148.385 174.47 152.16C178.608 147.73 182.213 142.83 185.21 137.56C189.383 130.117 192.375 122.071 194.08 113.71C194.55 111.49 194.91 109.25 195.18 107.01C195.067 111.545 194.501 116.058 193.49 120.48C191.943 127.089 189.322 133.4 185.73 139.16Z" fill="black"/>
</svg>
