<svg width="227" height="227" viewBox="0 0 227 227" fill="none" xmlns="http://www.w3.org/2000/svg">
<path d="M220.909 77.8799L218.909 72.0498C218.189 70.1298 217.329 68.2599 216.539 66.3599C216.129 65.4199 215.749 64.4598 215.309 63.5298L213.889 60.7798L212.469 58.0398C211.989 57.1198 211.539 56.1998 210.969 55.3298L207.709 50.0598C207.163 49.1796 206.573 48.3284 205.939 47.5098L204.098 45L202.249 42.5C201.609 41.69 200.909 40.9199 200.249 40.1399C198.879 38.5799 197.558 36.98 196.128 35.48C190.376 29.5548 184.029 24.2368 177.189 19.6099C170.287 15.142 162.973 11.3446 155.348 8.26978C153.438 7.52978 151.489 6.88995 149.559 6.19995C148.559 5.87995 147.629 5.49995 146.639 5.19995L143.639 4.38989L140.639 3.57983C139.652 3.28541 138.651 3.04508 137.639 2.85986L131.588 1.65991C130.588 1.42991 129.588 1.34995 128.588 1.19995L125.529 0.819824L122.469 0.439941L119.378 0.269775C117.318 0.179775 115.259 0 113.189 0L106.989 0.129883C106.469 0.129883 105.989 0.129932 105.439 0.179932L103.889 0.329834L100.789 0.629883L97.6886 0.929932C96.6886 1.02993 95.6385 1.26993 94.6185 1.42993C92.6185 1.79993 90.5086 2.1298 88.4686 2.5498L82.4085 4.11987C74.2552 6.35527 66.4387 9.67503 59.1685 13.99C51.569 18.4331 44.8178 24.1889 39.2286 30.99C38.2286 32.25 37.2287 33.5599 36.3087 34.8999C28.8385 40.8892 22.312 47.9684 16.9486 55.8999C10.0341 66.2685 5.13531 77.8471 2.50862 90.0298C-0.114084 102.047 -0.685415 114.422 0.818679 126.63L1.47859 131.17C1.72859 132.69 2.04869 134.17 2.32869 135.69C3.00869 138.69 3.83847 141.69 4.60847 144.64C5.60847 147.55 6.60847 150.45 7.60847 153.33L9.44856 157.53L10.3685 159.63C10.6652 160.337 10.999 161.028 11.3685 161.7C22.3658 183.568 39.8212 201.526 61.3685 213.14C72.1621 218.965 83.8475 222.96 95.9486 224.96C108.062 226.859 120.41 226.693 132.469 224.47C156.466 220.117 178.536 208.467 195.669 191.11C204.248 182.414 211.252 172.293 216.368 161.2C221.37 150.169 224.545 138.399 225.769 126.35C227.479 110.031 225.825 93.5344 220.909 77.8799ZM37.5086 137.24C35.8827 134.387 34.4818 131.411 33.3187 128.34C32.183 125.295 31.3163 122.156 30.7286 118.96L30.3187 116.53C30.1787 115.76 30.1387 114.97 30.0487 114.19C31.717 119.078 33.6565 123.868 35.8585 128.54C39.3437 136.039 43.5431 143.186 48.3985 149.88C49.5718 151.46 50.7786 152.993 52.0186 154.48C46.2486 149.596 41.3432 143.774 37.5086 137.26V137.24ZM148.749 69.9199C150.775 72.6903 152.574 75.6198 154.128 78.6799C154.758 79.9399 155.328 81.21 155.868 82.5C152.496 80.0527 148.831 78.037 144.959 76.5C135.127 72.7537 124.415 71.9613 114.139 74.22L112.209 74.6699C111.562 74.808 110.924 74.985 110.299 75.2L106.519 76.47C104.008 77.4803 101.577 78.6803 99.2486 80.0598L97.4886 81.0598L95.8187 82.2698L94.1485 83.5L93.3287 84.1199L92.5687 84.7998C91.5687 85.6998 90.5687 86.6298 89.5687 87.5598C88.5687 88.4898 87.7685 89.5598 86.8785 90.5598C83.5072 94.6381 80.742 99.1816 78.6685 104.05C79.1644 101.762 79.833 99.5161 80.6685 97.3298C82.8021 91.8429 85.9772 86.8206 90.0186 82.5398C98.5405 73.6725 109.77 67.8924 121.939 66.1099C131.057 64.6497 140.404 65.985 148.749 69.9399V69.9199ZM132.319 127.34C132.294 127.134 132.294 126.926 132.319 126.72C132.314 126.515 132.352 126.31 132.429 126.12C132.549 125.728 132.746 125.364 133.009 125.05C133.514 124.423 134.181 123.945 134.939 123.67C135.681 123.371 136.496 123.301 137.279 123.47C137.679 123.566 138.051 123.753 138.367 124.017C138.682 124.281 138.933 124.614 139.098 124.99C139.387 125.814 139.344 126.717 138.979 127.51C138.569 128.512 137.873 129.371 136.979 129.98C136.243 130.501 135.37 130.794 134.469 130.82C133.863 130.453 133.353 129.948 132.98 129.347C132.606 128.746 132.38 128.065 132.319 127.36V127.34ZM48.6685 70.8799C48.8742 69.0952 49.1748 67.3226 49.5687 65.5698C55.2051 61.5161 61.4871 58.4462 68.1485 56.49C72.9128 55.0573 77.7956 54.0533 82.7386 53.49L82.1785 53.8699C72.7604 60.4866 64.9902 69.1806 59.4686 79.2798C55.6609 86.3379 53.0745 93.9892 51.8187 101.91C50.2622 96.4653 49.1912 90.8934 48.6185 85.2598C48.1771 80.4758 48.1939 75.6607 48.6685 70.8799ZM151.669 33.4099C154.622 34.7741 157.494 36.3099 160.269 38.0098C159.269 37.5698 158.168 37.1898 157.128 36.7698C155.568 36.1698 153.999 35.6098 152.439 35.0698C151.309 34.1898 150.179 33.32 149.019 32.49C148.699 32.26 148.359 32.0498 148.019 31.8198C149.245 32.3132 150.459 32.8399 151.659 33.3999L151.669 33.4099ZM115.819 199.65C111.053 199.81 106.282 199.562 101.559 198.91C107.585 198.605 113.56 197.646 119.378 196.05C120.088 195.86 120.789 195.63 121.499 195.41C126.201 195.911 130.938 196.018 135.659 195.73C137.199 195.64 138.729 195.5 140.259 195.32C132.348 197.884 124.119 199.338 115.809 199.64L115.819 199.65Z" fill="black"/>
</svg>
