<svg width="300" height="253" viewBox="0 0 300 253" fill="none" xmlns="http://www.w3.org/2000/svg">
<path d="M295.612 86.9653C292.589 75.5455 287.689 64.7076 281.112 54.8953C274.505 45.1586 266.518 36.4342 257.402 28.9954C251.147 23.9773 244.453 19.5327 237.402 15.7153L234.752 14.3152C233.862 13.8452 232.982 13.3153 232.062 12.9653L226.592 10.4553L221.002 8.25538C220.072 7.86538 219.122 7.54538 218.172 7.25538L215.312 6.31519C207.666 3.86222 199.814 2.10508 191.852 1.06519C183.89 0.101065 175.864 -0.209904 167.852 0.13526C165.852 0.26526 163.852 0.285377 161.852 0.505377L155.852 1.10523L149.912 1.98536C147.912 2.26536 145.972 2.72521 144.002 3.08521C136.15 4.7024 128.424 6.87794 120.882 9.59522C113.358 12.362 106.035 15.6431 98.9617 19.4153L98.8516 19.4753C94.1906 20.0281 89.5685 20.8698 85.0117 21.9954C64.3536 27.163 45.5221 37.9315 30.5916 53.1152C23.1475 60.6945 16.8875 69.3515 12.0218 78.7952C7.20343 88.2509 3.78425 98.3564 1.87161 108.795C-0.224696 120.402 -0.561806 132.258 0.871611 143.965C2.2441 155.696 5.49581 167.128 10.5017 177.825C15.5774 188.48 22.3035 198.268 30.4317 206.825C38.5868 215.284 47.8074 222.646 57.8616 228.725C67.8975 234.738 78.5481 239.66 89.6316 243.405C92.4116 244.265 95.1617 245.255 97.9917 245.985L102.202 247.155L106.462 248.155C109.282 248.885 112.172 249.325 115.032 249.885C116.462 250.145 117.892 250.445 119.332 250.665L123.672 251.235C135.239 252.755 146.924 253.186 158.572 252.525C170.224 251.804 181.777 249.935 193.062 246.945C204.373 243.958 215.33 239.761 225.742 234.425C236.183 229.081 245.907 222.438 254.682 214.655C263.548 206.926 271.272 197.977 277.622 188.075C284.023 178.23 289.11 167.59 292.752 156.425C296.439 145.268 298.598 133.662 299.172 121.925C299.753 110.159 298.553 98.3728 295.612 86.9653ZM123.872 26.3452C140.581 28.6511 156.498 34.9111 170.302 44.6052C177.175 49.4336 183.482 55.0225 189.102 61.2654L191.162 63.6353C191.842 64.4353 192.552 65.2052 193.162 66.0552L196.932 71.0552L200.342 76.3052C201.442 78.0852 202.342 79.9454 203.422 81.7554C211.185 96.5436 215.248 112.993 215.262 129.695C215.24 147.262 210.524 164.503 201.602 179.635C194.51 191.869 185.089 202.595 173.872 211.205C176.112 209.105 178.242 206.905 180.262 204.605C193.494 189.225 201.576 170.085 203.372 149.875C204.303 139.812 203.495 129.664 200.982 119.875C198.405 110.063 194.065 100.802 188.172 92.5452C176.312 76.0957 159.553 63.8202 140.292 57.4753C130.724 54.2731 120.691 52.6815 110.602 52.7654C100.469 52.8611 90.4425 54.8378 81.0318 58.5952C62.2618 66.0752 46.4617 79.9554 35.9217 96.9753C35.4517 97.7253 35.0118 98.4954 34.5718 99.2554C34.6918 98.8954 34.8217 98.5453 34.9417 98.1853C35.1817 97.4953 35.4017 96.8053 35.6617 96.1353L36.4817 94.1353C37.0517 92.7953 37.5317 91.4253 38.1717 90.1353C40.5596 84.831 43.3303 79.7074 46.4617 74.8052C49.6191 69.9031 53.0895 65.2103 56.8516 60.7554C60.6491 56.3129 64.6993 52.0924 68.9817 48.1152C73.3002 44.1632 77.8267 40.4446 82.5418 36.9753C87.2842 33.5365 92.1971 30.339 97.2617 27.3953C97.8717 27.0453 98.4816 26.7153 99.0916 26.3953C107.313 25.2887 115.645 25.2718 123.872 26.3452ZM158.462 214.735C157.142 215.525 155.882 216.385 154.462 217.095L150.402 219.255L146.192 221.135C144.792 221.755 143.322 222.215 141.882 222.765C136.065 224.777 130.046 226.145 123.932 226.845C111.67 228.228 99.254 226.732 87.6717 222.475C80.9903 219.91 74.7541 216.309 69.1917 211.805C73.822 214.033 78.6625 215.795 83.6416 217.065C92.7717 219.475 102.291 220.039 111.642 218.725C117.666 217.904 123.504 216.053 128.902 213.255C132.632 211.255 134.382 209.575 134.352 208.965C134.322 208.355 131.552 209.475 126.852 210.965C120.583 212.966 114.068 214.089 107.492 214.305C99.0566 214.558 90.6398 213.375 82.6016 210.805C74.8812 208.37 67.5996 204.718 61.0318 199.985C58.7105 198.32 56.4991 196.506 54.4117 194.555C49.3592 186.264 46.1437 176.985 44.9817 167.345C44.2636 161.287 44.4253 155.157 45.4617 149.145L46.4617 144.705C46.8717 143.245 47.3818 141.825 47.8218 140.375C48.8104 137.522 50.0555 134.764 51.5418 132.135C57.7013 121.549 66.9617 113.109 78.0718 107.955C83.5706 105.348 89.446 103.623 95.4817 102.845C98.4656 102.465 101.477 102.341 104.482 102.475C107.488 102.617 110.475 103.042 113.402 103.745C125.132 106.415 135.312 114.275 142.002 124.345C145.374 129.398 147.897 134.968 149.472 140.835C151.033 146.669 151.524 152.737 150.922 158.745C150.276 164.693 148.359 170.433 145.302 175.575C142.134 180.645 137.89 184.957 132.872 188.205C122.628 194.803 110.326 197.428 98.2818 195.585C92.3626 194.708 86.7166 192.51 81.7617 189.155C79.3352 187.469 77.1222 185.495 75.1717 183.275C73.2315 181.04 71.5788 178.571 70.2517 175.925C64.9017 165.285 64.6718 152.205 68.8118 140.925C70.8526 135.298 74.0904 130.18 78.3018 125.925C80.3963 123.83 82.7484 122.008 85.3018 120.505C87.8767 119.03 90.6064 117.842 93.4417 116.965C102.732 114.275 113.192 114.965 121.582 119.495C123.67 120.605 125.625 121.947 127.412 123.495C127.852 123.885 128.252 124.325 128.672 124.725C129.101 125.126 129.508 125.55 129.892 125.995L130.972 127.345C131.152 127.575 131.342 127.795 131.512 128.025L131.972 128.765C134.515 132.718 136.085 137.218 136.552 141.895C137.007 146.577 136.416 151.3 134.822 155.725C133.292 160.065 130.533 163.866 126.882 166.665C123.251 169.441 118.791 170.913 114.222 170.845C109.52 170.843 104.894 169.656 100.772 167.395C100.362 167.165 99.4818 166.645 99.0618 166.345C97.2465 165.129 95.5698 163.717 94.0618 162.135C93.0618 161.135 92.5517 160.575 92.1817 160.245C91.4217 159.585 91.1818 159.905 90.0618 158.245C89.0897 156.691 88.2915 155.034 87.6817 153.305C87.4693 152.52 87.1316 151.773 86.6817 151.095C86.4517 150.915 86.2917 151.305 86.2117 152.335C86.1367 154.002 86.3465 155.669 86.8318 157.265C87.6441 160.118 89.0287 162.775 90.9016 165.075C93.5486 168.369 96.892 171.036 100.692 172.885C105.661 175.388 111.209 176.52 116.762 176.165C121.026 175.9 125.153 174.562 128.762 172.275C129.512 171.765 130.222 171.205 130.952 170.655C131.702 170.11 132.399 169.494 133.032 168.815C133.731 168.176 134.376 167.48 134.962 166.735L136.512 164.735C136.962 164.035 137.392 163.315 137.832 162.605C138.042 162.245 138.292 161.905 138.472 161.525L139.012 160.395C139.352 159.635 139.762 158.895 140.012 158.105C141.206 154.967 141.982 151.686 142.322 148.345C142.382 147.505 142.402 146.665 142.442 145.835C142.442 145.415 142.492 144.995 142.442 144.575L142.382 143.315C142.332 142.475 142.332 141.635 142.222 140.805L141.852 138.305C141.28 134.989 140.225 131.776 138.722 128.765C136.84 124.994 134.238 121.627 131.062 118.855C127.538 115.788 123.467 113.413 119.062 111.855C109.525 108.54 99.1483 108.54 89.6116 111.855C82.3684 114.373 75.9601 118.841 71.0916 124.765C70.2716 125.695 69.5816 126.705 68.8516 127.685C68.1216 128.665 67.4816 129.685 66.9016 130.685C62.5069 138.208 60.0758 146.716 59.8318 155.425C59.6761 160.088 60.1709 164.749 61.3018 169.275C62.4766 173.915 64.391 178.335 66.9717 182.365C69.5961 186.435 72.9249 190.004 76.8018 192.905C80.6461 195.776 84.9415 197.986 89.5117 199.445C93.9662 200.906 98.6063 201.725 103.292 201.875C107.85 202.048 112.413 201.672 116.882 200.755C125.442 199.001 133.461 195.23 140.272 189.755C147.266 184.067 152.379 176.399 154.942 167.755C157.398 159.194 157.653 150.151 155.682 141.465C153.752 132.854 150.001 124.756 144.682 117.715C139.351 110.6 132.389 104.87 124.382 101.005C116.271 97.2887 107.366 95.6395 98.4617 96.2053C89.6517 96.7871 81.0546 99.1695 73.2017 103.205C65.353 107.206 58.3592 112.699 52.6116 119.375C49.7427 122.739 47.2419 126.4 45.1516 130.295C44.1019 132.237 43.1701 134.241 42.3616 136.295C41.5716 138.365 40.9618 140.485 40.2617 142.585C38.022 151.123 37.4749 160.017 38.6516 168.765C38.9516 171.065 39.3716 173.355 39.8816 175.615C39.5416 175.005 39.2016 174.395 38.8816 173.755C33.6213 163.438 30.3991 152.203 29.3916 140.665C29.2016 138.585 29.1018 136.505 29.0418 134.415C30.6689 121.637 35.1791 109.395 42.2317 98.6152C50.4703 85.83 61.8265 75.3513 75.2317 68.1653C81.8958 64.6226 89.0359 62.0594 96.4317 60.5552C100.124 59.8338 103.864 59.3761 107.622 59.1853C111.39 59.0269 115.165 59.1138 118.922 59.4453C134.061 60.9796 148.559 66.3523 161.042 75.0552C173.615 83.6068 183.636 95.4048 190.042 109.195C196.177 123.087 198.257 138.431 196.042 153.455C194.326 165.723 190.131 177.512 183.712 188.105C180.501 193.37 176.747 198.284 172.512 202.765C168.299 207.277 163.585 211.293 158.462 214.735ZM291.212 134.665C287.478 157.801 277.515 179.483 262.392 197.385C259.025 201.337 255.404 205.065 251.552 208.545L245.362 213.825C243.182 215.495 240.922 217.115 238.672 218.825C229.131 225.45 218.831 230.909 207.992 235.085C196.798 239.401 185.16 242.463 173.292 244.215C150.523 247.625 127.306 246.504 104.972 240.915C95.3928 238.537 86.0509 235.29 77.0618 231.215C69.6966 227.909 62.6246 223.985 55.9217 219.485C54.4517 218.545 53.1318 217.485 51.8218 216.585L49.9217 215.215C49.3217 214.755 48.7517 214.275 48.1817 213.835L45.0017 211.275C44.0017 210.465 43.1518 209.635 42.3218 208.905C39.5118 206.505 37.0718 203.905 34.7718 201.655C32.4718 199.405 30.5618 197.115 29.0818 195.095C26.6001 191.983 24.2995 188.731 22.1917 185.355L19.1917 180.205C18.3017 178.415 17.4218 176.615 16.5318 174.825C13.1783 167.493 10.656 159.809 9.01175 151.915C7.34974 143.937 6.61826 135.792 6.83182 127.645C6.9967 119.441 8.07328 111.281 10.0418 103.315C14.1057 87.2319 22.0979 72.4089 33.3018 60.1753C38.9789 54.0692 45.337 48.6338 52.2517 43.9753C59.1852 39.2698 66.6503 35.3996 74.4917 32.4453C76.8517 31.5553 79.2516 30.7652 81.6617 30.0352C80.6617 30.7552 79.6617 31.4653 78.6617 32.2053C65.6314 41.6894 54.2036 53.1982 44.8118 66.2952C35.3244 79.458 28.6553 94.437 25.2217 110.295C23.7452 117.534 23.0214 124.907 23.0618 132.295C22.7285 134.695 22.5016 137.108 22.3816 139.535L22.2818 141.425V145.205L22.3716 147.095C22.4516 148.355 22.4616 149.615 22.6116 150.865L23.0318 154.625C23.7543 159.609 24.8949 164.523 26.4417 169.315C28.0291 174.08 29.999 178.708 32.3318 183.155C34.6593 187.583 37.3343 191.82 40.3318 195.825C41.8018 197.825 43.4118 199.765 45.0117 201.685C46.6117 203.605 48.3316 205.405 50.1316 207.145C64.3154 221.398 82.3607 231.187 102.042 235.305C112.538 237.415 123.331 237.595 133.892 235.835C139.15 234.967 144.325 233.656 149.362 231.915C154.375 230.148 159.246 227.998 163.932 225.485C168.614 222.986 173.091 220.12 177.322 216.915C181.56 213.741 185.57 210.272 189.322 206.535C196.819 199.037 203.247 190.54 208.422 181.285C213.629 172.03 217.45 162.06 219.762 151.695C220.915 146.503 221.64 141.226 221.932 135.915C222.242 130.623 222.152 125.314 221.662 120.035C220.713 109.467 218.269 99.0866 214.402 89.2053C210.463 79.342 205.114 70.1022 198.522 61.7752C185.274 45.0923 167.662 32.4065 147.642 25.1252C137.66 21.4857 127.192 19.3523 116.582 18.7952C115.882 18.7952 115.182 18.7954 114.472 18.7354C119.362 16.6454 124.342 14.7353 129.402 13.1353C140.569 9.6286 152.094 7.38794 163.762 6.45533C175.405 5.60976 187.109 6.24811 198.592 8.35523C201.432 8.99523 204.302 9.47523 207.092 10.3552L211.292 11.5154L215.432 12.8953L217.502 13.5852C218.182 13.8252 218.852 14.1152 219.502 14.3752L223.562 15.9854C224.902 16.5354 226.212 17.1952 227.562 17.7852C228.912 18.3752 230.222 18.9653 231.492 19.6853C234.052 21.0553 236.662 22.3553 239.112 23.9253C240.352 24.6853 241.622 25.4053 242.832 26.2053L246.432 28.6753C247.022 29.0853 247.632 29.4853 248.222 29.9153L249.942 31.2454L253.392 33.9053L256.682 36.7554C257.792 37.7554 258.892 38.6553 259.902 39.6953C268.356 47.6461 275.451 56.9292 280.902 67.1753C286.364 77.3956 289.983 88.4989 291.592 99.9753C293.214 111.491 293.097 123.185 291.242 134.665H291.212Z" fill="black"/>
</svg>
