<svg width="221" height="218" viewBox="0 0 221 218" fill="none" xmlns="http://www.w3.org/2000/svg">
<path d="M220.231 101.434C219.706 95.54 218.74 89.6937 217.341 83.9439C216.961 82.5139 216.541 81.1039 216.141 79.6839C215.741 78.2639 215.381 76.8239 214.851 75.4539C213.851 72.6839 212.951 69.8539 211.711 67.1739L209.961 63.1038C209.331 61.7738 208.631 60.4638 207.961 59.1038C206.681 56.4438 205.131 53.9239 203.621 51.3839C203.231 50.7539 202.881 50.1037 202.461 49.4937L201.211 47.6539L198.691 43.9937C197.811 42.8037 196.861 41.654 195.951 40.484L194.571 38.7437L193.881 37.8738L193.131 37.0438L190.131 33.7437C189.621 33.1937 189.131 32.6238 188.611 32.1038L187.001 30.5638L183.771 27.4739C182.661 26.4739 181.491 25.4738 180.351 24.5538C175.719 20.7709 170.771 17.392 165.561 14.4539C155.2 8.66725 143.988 4.55626 132.341 2.27375C120.776 0.00043273 108.942 -0.572225 97.2114 0.573801C85.4359 1.74002 73.9052 4.68339 63.0114 9.30378C52.005 14.0311 41.894 20.6172 33.1213 28.7738C24.431 37.0336 17.2529 46.7502 11.9113 57.484C6.6626 68.0847 3.09326 79.4368 1.33126 91.1339C-0.443754 102.78 -0.443754 114.628 1.33126 126.274C3.06601 138.004 6.736 149.365 12.1914 159.894C14.9594 165.171 18.1921 170.191 21.8513 174.894C25.5244 179.618 29.6508 183.972 34.1714 187.894C38.649 191.791 43.4572 195.29 48.5415 198.354C53.6028 201.366 58.904 203.954 64.3913 206.094C68.3999 207.665 72.4969 209.001 76.6613 210.094C90.2882 215.466 104.872 217.988 119.511 217.504C130.329 217.123 141.01 214.971 151.131 211.134C161.16 207.321 170.543 201.988 178.951 195.324C188.268 187.954 196.385 179.183 203.011 169.324C209.589 159.374 214.478 148.407 217.481 136.864C220.409 125.297 221.339 113.314 220.231 101.434ZM158.801 62.7738C163.61 66.6766 167.916 71.1609 171.621 76.1238C170.081 74.5138 168.501 72.9738 166.841 71.5438C159.112 64.7435 150.456 59.077 141.131 54.7139C140.001 54.1339 138.831 53.6439 137.671 53.1439C136.511 52.6439 135.361 52.1439 134.191 51.6539C131.821 50.7739 129.481 49.8038 127.081 49.0538C125.081 48.3738 123.081 47.7639 121.001 47.1939C127.456 48.0983 133.778 49.777 139.831 52.1939L142.401 53.1939L144.901 54.3638C146.601 55.0938 148.181 56.0338 149.821 56.8738C150.631 57.3038 151.391 57.8238 152.191 58.2838C152.991 58.7438 153.791 59.2037 154.531 59.7437C155.961 60.7537 157.461 61.7038 158.801 62.7738ZM164.271 126.194C165.578 121.184 166.2 116.021 166.121 110.844C166.77 112.801 167.258 114.807 167.581 116.844C167.995 119.106 168.153 121.407 168.051 123.704C167.959 126.018 167.647 128.318 167.121 130.574C166.468 133.295 165.536 135.943 164.341 138.474C162.593 140.003 160.767 141.442 158.871 142.784C157.401 143.864 155.871 144.864 154.301 145.784C155.9 143.862 157.348 141.819 158.631 139.674C161.143 135.472 163.042 130.933 164.271 126.194ZM115.271 123.864C114.895 123.797 114.529 123.683 114.181 123.524C113.959 123.435 113.745 123.328 113.541 123.204C113.331 123.054 113.101 122.904 112.881 122.724C112.659 122.54 112.449 122.343 112.251 122.134C112.134 122.03 112.03 121.913 111.941 121.784C111.728 121.5 111.55 121.191 111.411 120.864C111.101 120.182 111.031 119.416 111.212 118.689C111.394 117.963 111.817 117.319 112.411 116.864C113.093 116.354 113.896 116.03 114.741 115.924C114.971 115.924 115.191 115.924 115.431 115.864H115.891L116.351 115.924C116.881 116.002 117.4 116.136 117.901 116.324C118.255 116.459 118.591 116.637 118.901 116.854C119.227 117.097 119.496 117.407 119.691 117.764C119.957 118.333 120.101 118.953 120.113 119.581C120.125 120.21 120.005 120.834 119.761 121.414C119.711 121.544 119.631 121.754 119.541 121.964C119.451 122.174 119.331 122.384 119.251 122.524L119.031 122.874C117.902 123.582 116.583 123.927 115.251 123.864H115.271ZM90.5114 121.134C90.6513 122.381 90.8751 123.617 91.1814 124.834C91.4998 126.06 91.911 127.26 92.4113 128.424C92.9049 129.603 93.4866 130.742 94.1513 131.834C94.8283 132.931 95.5661 133.989 96.3613 135.004C96.7713 135.494 97.2914 136.054 97.6713 136.454C98.0576 136.897 98.4754 137.311 98.9213 137.694L100.231 138.874C100.701 139.244 101.231 139.594 101.671 139.944C102.658 140.645 103.691 141.279 104.761 141.844C105.878 142.406 107.031 142.893 108.211 143.304C109.426 143.718 110.674 144.026 111.941 144.224C112.401 144.304 112.871 144.374 113.651 144.474C114.883 144.559 116.119 144.559 117.351 144.474C116.187 144.612 115.014 144.665 113.841 144.634C113.3 144.634 112.759 144.604 112.221 144.544C111.684 144.524 111.149 144.464 110.621 144.364L109.041 144.104L107.521 143.694C105.535 143.142 103.644 142.292 101.911 141.174L101.231 140.774L100.591 140.294C100.171 139.964 99.7313 139.684 99.3213 139.294C98.4955 138.596 97.7141 137.848 96.9814 137.054C96.2331 136.263 95.5286 135.432 94.8713 134.564C94.2454 133.681 93.6712 132.763 93.1513 131.814C92.1024 129.965 91.3148 127.979 90.8112 125.914C90.3012 123.957 90.1022 121.932 90.2214 119.914C90.2214 119.434 90.2913 118.914 90.3213 118.464C90.3213 118.334 90.3713 118.214 90.4013 118.084C90.3513 119.154 90.4314 120.144 90.4914 121.134H90.5114ZM82.6513 154.744C75.0069 148.511 69.5837 139.973 67.1914 130.404C64.6847 120.779 65.1095 110.625 68.4113 101.244C70.0238 96.7325 72.4095 92.5366 75.4614 88.8438C78.5178 85.1987 82.2195 82.1477 86.3813 79.8438C94.9238 75.0724 104.789 73.2152 114.481 74.5538C119.126 75.2066 123.603 76.7408 127.671 79.0738C129.67 80.1725 131.525 81.5162 133.191 83.0738C134.899 84.6393 136.449 86.3677 137.821 88.234C143.457 96.0579 146.155 105.618 145.441 115.234C145.104 119.828 143.817 124.303 141.661 128.374C140.137 131.171 138.176 133.706 135.851 135.884C136.361 135.354 136.851 134.804 137.341 134.234C139.391 131.794 141.045 129.047 142.241 126.094C142.874 124.526 143.369 122.907 143.721 121.254C143.881 120.404 144.031 119.534 144.141 118.674C144.251 117.814 144.271 117.004 144.321 116.154C144.398 112.82 143.946 109.496 142.981 106.304C141.069 100.12 137.488 94.5834 132.631 90.3038C127.739 85.9653 121.709 83.1136 115.251 82.0838C109.28 81.1614 103.175 81.658 97.4314 83.5338C87.4394 86.6967 78.9856 93.4712 73.7214 102.534C72.9914 103.774 72.4215 105.144 71.8015 106.464C71.2403 107.844 70.7528 109.252 70.3413 110.684C70.1242 111.382 69.9538 112.093 69.8313 112.814L69.4113 114.964C69.1513 116.394 69.1114 117.844 68.9914 119.284C68.7748 124.972 69.7208 130.644 71.7714 135.954C75.0342 144.444 80.7195 151.788 88.1213 157.074L87.5515 156.924L85.3313 156.204L83.6713 155.624C83.3113 155.294 82.9614 155.024 82.6814 154.744H82.6513ZM80.6513 185.744C69.5777 180.682 59.8545 173.08 52.2715 163.554C53.8515 164.794 55.4513 165.984 57.1113 167.104C61.6111 170.171 66.4007 172.791 71.4113 174.924C71.7213 175.174 72.0413 175.424 72.4113 175.654L73.8713 176.654L76.7915 178.654L79.7915 180.404C87.9181 184.95 96.7845 188.025 105.981 189.484C113.065 190.662 120.279 190.837 127.411 190.004C126.071 190.314 124.721 190.594 123.411 190.834C115.27 192.267 106.973 192.603 98.7414 191.834C92.4903 190.503 86.4086 188.474 80.6113 185.784L80.6513 185.744Z" fill="black"/>
</svg>
