<svg width="240" height="231" viewBox="0 0 240 231" fill="none" xmlns="http://www.w3.org/2000/svg">
<path d="M235.453 71.986C232.303 61.3279 227.241 51.3318 220.513 42.486C213.734 33.69 205.51 26.109 196.193 20.0661C186.912 14.0077 176.809 9.31301 166.193 6.12587C155.601 2.89133 144.606 1.16779 133.533 1.006C111.363 0.765997 89.5329 6.52584 69.7729 16.0958C62.3895 19.7177 55.2983 23.907 48.563 28.6259C47.093 29.7059 45.6529 30.746 44.2729 31.746C42.8929 32.746 41.6529 33.826 40.4129 34.806C37.9329 36.756 35.8029 38.736 33.8529 40.496L32.453 41.786L31.173 43.0661L28.8829 45.4359C27.6579 46.6998 26.5093 48.0355 25.443 49.4359C23.673 51.7259 22.8829 53.196 23.1629 53.736C23.4429 54.276 24.4829 53.5758 26.2329 52.3258L24.8629 53.766C23.6629 55.136 22.5629 56.576 21.4129 57.986C16.8485 63.6507 12.9559 69.8251 9.81297 76.3859C2.92786 91.0737 -0.418338 107.171 0.0429516 123.386C0.404428 139.561 4.28434 155.462 11.4129 169.986C14.9753 177.247 19.3933 184.055 24.573 190.266C29.7952 196.421 35.6545 202.005 42.053 206.926C48.5135 211.738 55.4259 215.91 62.693 219.386C70.0031 222.731 77.6007 225.409 85.3929 227.386C93.2228 229.229 101.201 230.373 109.233 230.806C117.279 231.085 125.334 230.617 133.293 229.406C141.229 228.034 149.015 225.901 156.543 223.036C175.276 215.63 192.065 204.034 205.624 189.138C219.184 174.242 229.155 156.44 234.773 137.096C236.277 131.838 237.466 126.495 238.333 121.096C239.144 115.664 239.612 110.187 239.733 104.696C239.991 93.6377 238.548 82.6055 235.453 71.986ZM78.823 18.6259L84.4029 16.3759C86.2529 15.6159 88.173 15.0259 90.053 14.3759C97.6209 11.8072 105.392 9.88035 113.283 8.61586C121.151 7.39842 129.12 6.96625 137.073 7.32582L140.073 7.48598L141.553 7.57582L143.033 7.74599C145.033 7.99599 147.033 8.20597 148.943 8.47597L154.803 9.55605C155.803 9.70605 156.743 9.98597 157.703 10.226L160.593 10.9459C168.27 12.9769 175.719 15.7881 182.823 19.3358C185.043 20.4825 187.213 21.706 189.333 23.006C186.187 21.4086 182.956 19.9865 179.653 18.746C172.871 16.245 165.885 14.3379 158.773 13.046C151.695 11.7371 144.528 10.9681 137.333 10.746C133.753 10.646 130.153 10.586 126.573 10.746C124.783 10.816 122.993 10.846 121.203 10.966L115.843 11.4159L113.163 11.6559L110.493 12.016L105.163 12.736L99.8729 13.736C98.1129 14.066 96.3429 14.3758 94.6129 14.8358L89.3729 16.0958C87.6229 16.5058 85.923 17.0958 84.193 17.5758L81.6129 18.3458L80.323 18.736L79.053 19.1859L73.9829 21.006L72.823 21.4159L73.3729 21.1659L78.823 18.6259ZM232.473 117.806C231.384 125.683 229.521 133.434 226.913 140.946C224.213 148.429 220.867 155.663 216.913 162.566C212.869 169.43 208.224 175.922 203.033 181.966L199.033 186.416C197.643 187.836 196.203 189.226 194.803 190.636C193.403 192.046 191.883 193.336 190.393 194.636C188.903 195.936 187.393 197.296 185.823 198.476C179.611 203.471 172.91 207.826 165.823 211.476L163.173 212.826L161.843 213.506C161.393 213.716 160.933 213.906 160.483 214.106L155.013 216.466C151.273 217.796 147.573 219.246 143.723 220.206L141.223 220.896C140.803 221.016 140.393 221.146 139.963 221.246L138.663 221.506L133.393 222.576C131.603 222.926 129.763 223.076 127.913 223.346L125.123 223.706L122.283 223.886C114.415 224.456 106.509 224.171 98.703 223.036L95.703 222.606C95.213 222.526 94.703 222.466 94.203 222.376L92.723 222.056L86.723 220.776L80.843 219.116L79.3729 218.696L77.943 218.186L75.063 217.186L72.203 216.186L69.423 214.976L66.6429 213.776L65.2629 213.176L63.923 212.496C62.153 211.566 60.3829 210.656 58.6229 209.746C56.8629 208.836 55.2529 207.696 53.6229 206.686C51.9929 205.676 50.393 204.546 48.823 203.446C47.253 202.346 45.6729 201.276 44.2729 200.036L39.9829 196.486L36.073 192.726C35.443 192.106 34.783 191.516 34.183 190.876L32.453 188.876C31.313 187.586 30.163 186.336 29.093 185.066C28.023 183.796 27.023 182.506 26.093 181.186L24.703 179.276L23.423 177.336C18.3035 169.492 14.3017 160.974 11.5329 152.026C6.84554 137.372 5.55291 121.843 7.75291 106.616C9.29198 95.5874 12.7904 84.923 18.083 75.1259C18.723 73.8859 19.483 72.706 20.173 71.496C20.863 70.286 21.7329 69.176 22.5129 68.006L24.8829 64.526L27.543 61.236L28.8629 59.5958C29.2875 59.033 29.7485 58.4986 30.2429 57.996L33.1629 54.9159C35.0329 52.7959 37.243 50.9961 39.323 49.0661C47.9964 41.5573 57.7358 35.3766 68.223 30.726C89.273 21.256 112.793 17.026 135.963 17.476C141.747 17.6579 147.515 18.162 153.243 18.986C154.673 19.176 156.083 19.476 157.503 19.716L159.623 20.0958C160.333 20.2358 161.023 20.4061 161.733 20.5661C163.123 20.8861 164.533 21.1861 165.923 21.5661L170.053 22.726C180.993 26.006 191.403 30.9359 200.053 37.9459C209.312 45.2511 216.383 54.9619 220.493 66.016C224.564 77.1145 225.935 89.0227 224.493 100.756C222.967 111.934 219.304 122.713 213.703 132.506C208.065 142.382 200.854 151.272 192.353 158.826C176.811 172.81 157.635 182.121 137.033 185.686C131.923 186.56 126.748 187.002 121.563 187.006C116.389 187.05 111.222 186.632 106.123 185.756L102.323 185.046C101.073 184.746 99.823 184.406 98.573 184.046C97.953 183.876 97.323 183.746 96.703 183.556L94.8629 182.956C93.6429 182.536 92.393 182.196 91.193 181.716C86.353 179.9 81.6705 177.689 77.193 175.106C72.757 172.46 68.549 169.45 64.6129 166.106C63.6129 165.276 62.7229 164.356 61.7629 163.496L60.3529 162.176L59.0329 160.766C58.1529 159.766 57.2329 158.906 56.4029 157.926L53.953 154.926C47.5515 146.858 43.0131 137.474 40.6629 127.446L40.213 125.576L39.9129 123.686C39.7329 122.416 39.473 121.156 39.343 119.886L39.0429 116.046L38.963 115.046V112.166C38.863 109.596 39.163 107.036 39.313 104.476L39.8629 100.666C39.9729 100.036 40.0229 99.386 40.1629 98.766L40.583 96.8859L41.0029 95.006C41.1275 94.3774 41.2878 93.7563 41.4829 93.1459L42.593 89.466C42.963 88.236 43.503 87.0659 43.943 85.8659L44.6329 84.0758C44.8829 83.4858 45.183 82.9158 45.453 82.3358C47.5718 77.6884 50.259 73.3217 53.453 69.3358L53.9029 68.806C53.7529 69.176 53.593 69.5659 53.453 69.9359C52.973 71.3559 52.5629 72.7759 52.1329 74.1759C51.699 75.5652 51.3418 76.9773 51.063 78.4059C50.7167 79.7839 50.4429 81.1791 50.2429 82.5858L49.6329 87.016L49.4129 91.496L49.3529 92.6159C49.3529 92.9959 49.3529 93.366 49.3529 93.746L49.443 95.986L49.5329 98.236C49.5929 98.986 49.723 99.726 49.813 100.476L50.1229 102.706C50.1951 103.454 50.3222 104.196 50.5029 104.926L51.5029 109.316C51.9129 110.766 52.503 112.176 52.943 113.606C53.213 114.316 53.4029 115.036 53.7329 115.726L54.6529 117.816C60.0189 128.734 68.7088 137.668 79.473 143.336C90.1353 149.225 102.379 151.614 114.473 150.166C117.506 149.745 120.494 149.053 123.403 148.096C126.312 147.089 129.121 145.814 131.793 144.286C137.119 141.165 141.772 137.018 145.483 132.086C152.755 122.236 156.708 110.329 156.773 98.0858C156.793 95.053 156.603 92.0225 156.203 89.016C155.757 86.0008 155.088 83.0225 154.203 80.1059C152.414 74.2198 149.59 68.7003 145.863 63.806C144.635 62.1719 143.298 60.6216 141.863 59.1659C142.296 56.3364 142.367 53.4632 142.073 50.6159C141.224 43.4021 137.562 36.8151 131.883 32.286C130.466 31.1326 128.935 30.1273 127.313 29.286C125.733 28.4491 124.083 27.7498 122.383 27.1959C119.144 26.1498 115.782 25.5344 112.383 25.3659C106.448 25.0879 100.51 25.8424 94.833 27.5958C91.7989 28.5048 88.8508 29.6793 86.0229 31.1059C84.6029 31.8458 83.183 32.606 81.823 33.486C80.463 34.366 79.2129 35.326 77.9029 36.256C72.8106 40.097 68.2566 44.6038 64.3629 49.6559C63.8729 50.3059 63.363 50.9559 62.933 51.6559C62.283 52.0759 61.6329 52.5059 61.0029 52.9559C55.297 57.0706 50.2783 62.0624 46.1329 67.746C42.026 73.3985 38.7743 79.6254 36.4829 86.226C34.2106 92.7934 32.8186 99.633 32.343 106.566C31.8549 113.504 32.3022 120.477 33.673 127.296C35.0841 134.115 37.4756 140.693 40.7729 146.826C47.3494 159.033 56.7937 169.458 68.293 177.206C79.6973 184.97 92.6709 190.129 106.293 192.316C119.869 194.274 133.699 193.522 146.983 190.106C160.191 186.721 172.71 181.067 183.983 173.396C189.622 169.602 194.919 165.323 199.813 160.606C204.748 155.918 209.237 150.783 213.223 145.266C215.36 142.332 217.345 139.292 219.173 136.156C220.983 133.002 222.626 129.754 224.093 126.426C227.059 119.75 229.188 112.734 230.433 105.536C231.659 98.32 231.948 90.9759 231.293 83.6859C231.08 81.3659 230.746 79.056 230.293 76.756C231.768 82.4204 232.722 88.2079 233.143 94.046C233.762 101.967 233.538 109.932 232.473 117.806ZM72.6629 54.036C80.2195 50.5378 88.4172 48.6379 96.7423 48.4555C105.067 48.2731 113.34 49.812 121.043 52.976C126.272 55.1837 131.098 58.2455 135.323 62.036C134.197 65.811 132.398 69.3513 130.013 72.486C128.083 75.0294 125.764 77.2531 123.143 79.0758C120.45 80.8816 117.532 82.3273 114.463 83.3759C108.194 85.4652 101.574 86.2977 94.9829 85.8258C94.6429 85.8258 93.923 85.7459 93.563 85.7059C89.193 85.2459 87.7429 85.0359 87.0129 85.1959C86.2829 85.3559 86.2929 85.6961 84.9029 85.5661C84.1029 85.4961 83.3929 85.4359 82.7629 85.3959C82.1329 85.3559 81.5929 85.296 81.1429 85.276C80.5809 85.1887 80.0059 85.2472 79.473 85.4459C79.083 85.7459 80.133 86.5459 82.833 87.6759C87.1218 89.362 91.6317 90.4198 96.223 90.8161C99.8265 91.1588 103.456 91.1286 107.053 90.726C111.591 90.2167 116.025 89.0196 120.203 87.1759C121.203 86.7659 122.203 86.1759 123.203 85.7059C124.203 85.2359 125.123 84.556 126.093 83.986C127.063 83.416 127.953 82.636 128.883 81.986C129.813 81.336 130.623 80.4759 131.463 79.6759C134.722 76.4386 137.362 72.6327 139.253 68.4459C139.483 67.9359 139.713 67.4459 139.943 66.8759C140.153 67.1359 140.373 67.3759 140.583 67.6359C145.61 74.1743 148.827 81.9202 149.913 90.0958C151.059 98.3168 150.307 106.691 147.713 114.576C145.224 122.43 140.643 129.458 134.463 134.906C131.366 137.538 127.891 139.689 124.153 141.286C120.381 142.85 116.404 143.86 112.343 144.286C108.251 144.721 104.119 144.62 100.053 143.986C95.9576 143.372 91.9495 142.275 88.1129 140.716C84.2429 139.179 80.554 137.221 77.1129 134.876C73.7061 132.527 70.5762 129.799 67.7829 126.746C65.0171 123.704 62.6636 120.312 60.7829 116.656C59.815 114.844 59.0086 112.95 58.3729 110.996C58.0329 109.996 57.6729 109.056 57.3729 108.076L56.6429 105.076C56.1796 103.063 55.8456 101.022 55.6429 98.966C55.501 97.9385 55.4242 96.903 55.4129 95.8659L55.2829 92.766L55.433 89.6459C55.4429 88.605 55.5231 87.5661 55.673 86.536C55.8908 84.4656 56.2247 82.4089 56.673 80.3759C58.3928 72.3782 61.5616 64.7628 66.0229 57.9059C68.1433 56.4626 70.3621 55.1696 72.6629 54.036ZM76.843 45.0958C79.0083 43.1159 81.3106 41.2914 83.7329 39.6359C87.1296 37.2985 90.8307 35.4378 94.7329 34.1059C98.6248 32.7312 102.679 31.8675 106.793 31.536C110.84 31.1698 114.92 31.484 118.863 32.466C122.696 33.3954 126.254 35.2223 129.243 37.796C131.556 39.8696 133.397 42.4157 134.641 45.2623C135.885 48.109 136.503 51.1898 136.453 54.296C135.186 53.3094 133.876 52.386 132.523 51.526C127.393 48.2452 121.801 45.7507 115.933 44.1259C104.211 40.901 91.8351 40.901 80.1129 44.1259C79.0329 44.4459 77.9329 44.7358 76.8529 45.0958H76.843Z" fill="black"/>
</svg>
