<svg width="309" height="119" viewBox="0 0 309 119" fill="none" xmlns="http://www.w3.org/2000/svg">
<path d="M200.205 26.8598C204.465 25.4696 219.718 21.0704 229.446 18.1021C251.973 11.2743 274.735 5.13898 297.887 0.993718C301.502 0.346159 307.563 -1.13778 308.601 3.69544C309.684 8.72927 306.375 12.6419 300.177 13.9861C296.416 14.7812 292.654 15.572 288.89 16.3682C285.13 17.1855 281.367 18.004 277.615 18.8646C270.102 20.5384 262.693 22.5824 255.443 25.0318C234.279 32.3355 212.729 38.1143 191.565 45.2506C172.584 51.6936 153.554 58.023 134.814 65.1477C130.428 66.8568 126.061 68.6196 121.706 70.397C119.528 71.2926 117.345 72.1671 115.18 73.0911L108.687 75.8621L95.6911 81.3618C91.3654 83.2129 87.0295 85.026 82.6618 86.7708C78.8878 88.257 75.1183 89.7601 71.3224 91.1979C67.5275 92.6399 63.7118 94.0378 59.8927 95.4229L48.4823 99.7197C44.6844 101.167 40.8766 102.594 37.1275 104.174C33.5909 105.637 29.758 108.351 25.899 109.991C22.6951 111.316 17.4481 113.735 14.1431 114.783C12.7178 115.237 11.2233 115.669 9.97904 116.446C4.27638 120.01 1.91234 119.132 1.54854 113.078C1.47134 111.746 0.261711 110.514 1.37894 109.062C1.42542 108.999 1.5153 108.88 1.55223 108.816C4.57788 103.645 9.84672 102.957 14.4336 100.751C37.0278 90.0151 60.018 80.1006 83.1697 70.6041C86.7234 69.1544 90.2726 67.6877 93.8483 66.2863L104.578 62.0906C111.705 59.231 118.875 56.4999 125.936 53.4909C129.793 51.8286 133.502 49.731 137.659 48.6943L137.588 48.7176C141.716 47.0551 145.787 45.2272 149.983 43.7501C165.889 38.2712 182.398 32.1966 197.944 27.7959C198.562 27.6122 199.309 27.136 200.205 26.8598Z" fill="black"/>
</svg>
