<svg width="147" height="281" viewBox="0 0 147 281" fill="none" xmlns="http://www.w3.org/2000/svg">
<path d="M127.132 158.4C125.436 164.475 119.947 186.125 117.479 200.219C115.999 208.36 114.642 216.533 113.409 224.705L111.62 236.98C111.003 241.236 110.54 244.813 110.417 248.205C110.325 251.505 110.633 254.404 111.311 256.255C111.651 257.18 112.021 257.858 112.483 258.475C112.977 259.123 113.624 259.616 114.18 260.079C115.413 260.85 117.479 261.374 120.348 261.22C123.185 261.065 126.546 260.202 129.908 258.999C134.195 257.612 141.041 253.232 144.834 259.03C146.777 262.083 147.086 265.383 145.667 268.498C144.248 271.613 141.072 274.604 136.137 276.547C130.216 278.829 123.524 280.68 115.783 280.001C111.959 279.693 107.827 278.367 104.311 276.177C100.795 273.987 97.8653 271.027 95.7991 267.542C93.7636 264.088 92.6226 260.418 92.0366 256.964C91.4507 253.51 91.3581 250.21 91.4507 247.095C91.5432 243.95 91.7899 240.958 92.0675 238.059L92.8385 229.702C94.1646 213.387 96.7859 197.227 100.178 181.221C101.874 173.234 103.756 165.277 105.76 157.351L108.875 145.478L110.479 139.557C111.003 137.583 111.62 135.517 111.959 134.006C112.298 132.556 112.576 131.107 112.699 129.781C112.792 129.102 112.823 128.454 112.853 127.868C112.884 127.344 112.853 126.542 112.823 126.388C112.761 125.741 112.514 125.031 111.897 124.723C111.342 124.322 110.695 124.384 109.955 124.599C107.827 125.247 105.051 126.758 101.72 128.516C88.9217 135.27 76.0924 142.024 63.3864 148.932L54.4429 153.866C51.5748 155.47 48.3058 157.351 44.6359 159.017C40.9351 160.651 36.71 162.224 31.529 162.687C26.3787 163.242 20.2724 162.039 15.3381 158.986C10.2495 155.933 6.54869 151.122 4.51326 146.588C2.41616 141.993 1.49092 137.521 0.997479 133.265C0.534882 129.01 0.565756 124.908 0.935834 120.868C1.30591 116.674 2.07693 113.312 2.69372 109.735C7.53557 85.217 18.607 62.5189 32.0532 42.0721C33.626 39.6358 35.1064 36.7985 36.7409 33.9612C38.2829 31.0623 40.0716 28.225 42.0145 25.6962C45.191 21.502 50.9271 14.8097 54.8746 11.3865C56.6016 9.90616 58.452 8.48769 59.809 6.72982C66.1928 -1.28853 69.8628 -1.10359 72.8543 7.00727C73.5327 8.76514 75.6915 9.90615 74.8588 12.3425C74.828 12.435 74.7663 12.6509 74.7354 12.7434C73.1318 20.8543 66.9639 24.3084 62.4613 29.7671C51.729 43.1207 42.6313 57.8312 35.754 73.4979C32.2999 81.3312 29.3701 89.3803 26.9646 97.5837C25.8544 101.716 24.7442 105.818 23.8806 110.012C23.3872 112.079 23.048 114.206 22.6779 116.304C22.3079 118.431 21.9069 120.529 21.7218 122.348C21.2284 126.974 21.3518 131.693 22.2461 135.486C22.7087 137.367 23.3872 138.94 24.1582 140.05C24.9292 141.16 25.6694 141.808 26.6254 142.271C27.6123 142.764 28.5991 142.98 30.0486 142.857C31.4672 142.795 33.2868 142.301 35.2297 141.53C37.2034 140.759 39.3314 139.68 41.5519 138.446L48.6141 134.406C53.8261 131.384 58.6371 127.653 64.3424 125.34L64.2499 125.37C69.7703 122.194 75.198 118.801 80.8109 115.872C86.2387 113.004 91.7282 110.105 97.2486 107.206C98.9139 106.404 100.703 105.571 102.8 104.862C103.694 104.553 105.39 104.029 106.84 103.752C108.32 103.443 109.831 103.258 111.342 103.227C117.356 102.981 123.246 105.294 127.41 109.519C131.573 113.682 133.701 119.819 133.917 125.679C134.102 130.305 133.485 134.098 132.683 137.706L132.036 140.328L131.357 142.702C130.956 144.09 130.525 145.509 130.124 146.897C129.291 149.672 128.489 152.417 127.687 155.162C127.472 155.871 127.472 157.135 127.132 158.4Z" fill="#4633FF"/>
</svg>
