<svg width="133" height="156" viewBox="0 0 133 156" fill="none" xmlns="http://www.w3.org/2000/svg">
<path d="M1.85715 137.959C2.64307 132.266 3.48645 126.573 4.32988 120.879C4.84744 117.391 5.65257 113.94 5.69091 110.375C5.69091 109.397 5.23081 108.343 5.76754 107.442V107.461C5.78671 106.426 5.69086 105.372 5.88255 104.375C6.5918 100.58 6.9177 96.5351 7.95281 92.9505C7.99115 92.8163 7.83784 92.5863 7.87618 92.3755C8.06787 91.3595 8.91124 87.8133 9.25628 85.5131C10.0614 80.165 11.0198 74.8552 13.3201 69.7754C13.6843 68.9895 16.9813 57.5457 21.2368 58.3316C25.6839 59.1559 25.0706 70.5805 24.6489 71.999C23.6329 75.4302 21.9844 78.7656 22.1378 82.3885C22.3678 87.6791 20.8534 92.663 20.1825 97.8002C19.5883 102.401 18.534 106.944 17.9781 111.563C17.4413 115.896 17.6523 120.362 16.8664 124.656C16.1763 128.355 14.4127 131.863 13.3584 135.505C13.1092 136.368 13.7226 137.556 13.4734 138.496C13.2818 139.282 13.0134 140.585 12.4958 141.313C12.285 141.62 12.0166 141.946 12.1124 142.291C12.5725 143.94 9.29465 156.073 4.13824 155.057C-0.903157 154.042 1.16707 142.904 1.85715 137.959Z" fill="black"/>
<path d="M38.5856 104.987C39.9849 99.8885 41.4417 94.8088 42.8985 89.729C43.7995 86.6045 44.9687 83.5758 45.3905 80.3171C45.5055 79.4162 45.1605 78.3811 45.7931 77.6335V77.6527C45.9272 76.7134 45.9464 75.7358 46.2339 74.8349C47.3457 71.4612 48.1125 67.8191 49.531 64.6946C49.5885 64.5795 49.4543 64.3304 49.5118 64.1578C49.8185 63.2569 51.0261 60.1324 51.6203 58.0813C53.0005 53.3083 54.5149 48.5928 57.3519 44.2798C57.7928 43.6089 62.2974 33.6219 66.4187 34.9637C70.7125 36.363 68.8723 46.7334 68.2972 47.9794C66.9171 50.9697 64.9235 53.7875 64.6743 57.1229C64.3292 62.0109 62.2975 66.3431 61.0707 70.9244C59.978 75.0457 58.4636 79.052 57.3902 83.1924C56.3934 87.0837 56.1058 91.1858 54.8599 95.0004C53.7672 98.2783 51.6587 101.23 50.221 104.412C49.876 105.16 50.3553 106.329 50.0102 107.173C49.7227 107.863 49.3201 109.013 48.745 109.607C48.4958 109.856 48.1892 110.105 48.2467 110.451C48.5151 112.022 43.972 122.642 38.969 120.955C34.1001 119.307 37.3779 109.415 38.5856 104.987Z" fill="black"/>
<path d="M74.4163 78.3789C76.9466 72.034 79.7261 65.7658 82.7931 59.6509C84.6333 55.8747 86.8761 52.3093 88.4671 48.3797C88.908 47.3062 88.9463 45.9836 89.8664 45.1785L89.8472 45.1977C90.3456 44.0667 90.7099 42.8591 91.3808 41.8431C93.8344 37.9327 96.173 33.6964 98.9908 30.246C99.1058 30.1118 99.0674 29.8051 99.2208 29.5942C99.9492 28.6166 102.556 25.1087 104.224 22.866C107.923 17.5562 112.006 12.5148 117.182 8.47023C117.585 8.14436 120.345 5.53737 123.393 3.40964C126.517 1.32024 129.891 -0.270784 131.444 1.24355C133.073 2.81539 131.923 6.24661 130.236 9.3903C128.607 12.5915 126.421 15.5435 125.827 16.1378C124.37 17.5754 122.798 18.8981 121.322 20.3357C119.885 21.7926 118.581 23.3644 117.642 25.2046C114.958 30.591 110.99 34.9999 107.904 40.0413L103.649 46.7695C102.211 48.9931 100.85 51.2742 99.6234 53.6128C97.2848 58.0216 95.7704 62.8329 93.451 67.2034C91.4766 70.9797 88.563 74.3151 86.4352 78.0722C85.9368 78.9539 86.1286 80.3724 85.6302 81.3692C85.2085 82.1935 84.5758 83.5736 83.8857 84.2637C83.579 84.5512 83.2341 84.8579 83.2341 85.2605C83.1957 86.1997 81.6238 89.8801 79.4386 93.1005C77.33 96.34 74.608 99.1579 72.1353 98.2569C69.72 97.356 69.7009 93.7714 70.5251 89.6885C70.9852 87.6566 71.656 85.5288 72.3461 83.5353C73.1128 81.5609 73.8796 79.759 74.4163 78.3789Z" fill="black"/>
</svg>
