<svg width="279" height="371" viewBox="0 0 279 371" fill="none" xmlns="http://www.w3.org/2000/svg">
<path d="M270.919 118.009C272.663 120.7 275.016 125.05 276.741 130.966C277.594 133.947 278.325 137.304 278.681 141.241C278.785 143.323 278.888 145.46 279 147.645C278.906 150.073 278.738 152.623 278.597 155.173C278.597 155.782 278.41 156.551 278.316 157.245C278.203 157.958 278.081 158.67 277.969 159.392C277.735 160.826 277.51 162.261 277.275 163.714C277.2 164.417 276.947 165.223 276.76 165.992L276.16 168.327C275.756 169.883 275.353 171.439 274.95 173.005C273 179.389 270.834 185.887 268.744 192.262C266.606 198.646 264.487 204.928 262.462 210.975C261 215.278 259.593 219.422 258.281 223.285C256.096 229.791 253.856 236.279 251.559 242.757L248.062 252.442L244.621 261.77C242.418 267.733 240.533 273.152 239.08 278.093C237.655 283.005 236.68 287.402 236.221 291.274C236.174 291.743 236.08 292.278 236.061 292.681C236.033 293.093 235.996 293.496 235.949 293.909C235.93 294.734 235.846 295.559 235.864 296.375C235.855 298.006 235.93 299.637 236.136 301.1C236.333 302.562 236.558 303.987 236.886 305.14C237.196 306.312 237.524 307.306 237.814 308.159C238.124 308.966 238.405 309.594 238.668 310.203C238.705 310.269 238.743 310.344 238.771 310.419L238.818 310.541L238.836 310.606L238.846 310.625V310.634C239.099 310.297 236.652 313.616 237.693 312.2L237.749 312.134C238.04 311.759 238.283 311.403 238.48 311.047C238.527 310.972 238.583 310.841 238.611 310.822V310.859L238.593 310.972C238.593 311.009 238.565 311.084 238.574 311.122C238.593 311.159 238.611 311.197 238.63 311.244C238.658 311.488 238.846 311.628 238.996 311.928C239.221 312.088 239.427 312.397 239.718 312.566C240.243 312.978 240.936 313.428 241.452 313.7L241.593 313.794L241.696 313.841C241.771 313.878 241.846 313.925 241.94 313.991C242.061 314.085 242.071 314.085 242.146 314.16C242.212 314.225 242.305 314.328 242.399 314.441C242.446 314.516 242.512 314.628 242.605 314.778L242.774 315.022C242.84 315.106 242.849 315.172 242.905 315.266C242.943 315.331 243.037 315.491 243.13 315.622C243.224 315.763 243.318 315.894 243.421 316.035L243.58 316.231L243.665 316.353C243.73 316.447 243.777 316.503 243.871 316.625C244.087 316.897 244.368 317.197 244.705 317.516C244.996 317.816 245.333 318.116 245.746 318.453C246.159 318.791 246.637 319.147 247.18 319.522C247.734 319.897 248.268 320.235 248.924 320.619C251.484 322.175 255.224 323.863 259.743 326.619C264.431 329.507 268.331 332.563 270.9 336.407C272.184 338.32 273.15 340.429 273.6 342.595C273.834 343.692 273.975 344.826 274.003 345.998C274.031 347.179 273.956 348.379 273.722 349.523C273.263 351.83 272.391 354.38 270.966 356.573C270.262 357.698 269.447 358.833 268.528 359.92C267.6 360.933 266.569 361.927 265.434 362.883C260.925 366.596 254.803 369.23 248.165 369.811C240.121 370.561 232.302 369.718 224.773 367.458C222.889 366.83 221.023 366.239 219.186 365.48C217.348 364.664 215.529 363.905 213.748 362.921C212.857 362.424 211.976 361.917 211.095 361.402C210.214 360.895 209.351 360.37 208.498 359.752C207.645 359.152 206.801 358.552 205.967 357.933L204.72 357.005L203.651 356.086C197.923 351.229 193.254 345.492 189.71 339.529C186.147 333.557 183.653 327.388 181.91 321.285C180.166 315.172 179.172 309.106 178.703 303.097C178.581 301.597 178.534 300.097 178.459 298.597C178.413 297.096 178.422 295.606 178.413 294.115L178.553 289.643L178.853 285.387C179.847 274.118 182.125 263.767 184.206 254.101C185.566 247.82 187.188 241.932 188.791 236.373L191.191 228.225L193.638 220.172C195.288 214.809 196.985 209.475 198.701 204.14L199.985 200.146C200.388 198.937 200.998 197.006 200.913 197.212L201.363 195.562C201.982 193.406 202.713 191.287 203.463 189.065C203.829 187.958 204.12 186.796 204.12 185.633C204.12 185.052 204.026 184.471 203.792 183.955C203.566 183.43 203.154 182.999 202.648 182.727C201.588 182.146 200.21 182.436 199.076 183.055C197.923 183.655 196.976 184.424 196.057 185.108C195.147 185.802 194.285 186.477 193.469 187.162C192.644 187.837 191.857 188.521 191.079 189.205C190.685 189.552 190.3 189.89 189.916 190.255L187.853 192.159C186.85 193.077 185.847 194.006 184.844 194.981C168.756 210.122 152.415 227.335 133.327 244.023L129.97 246.967C128.845 247.951 127.645 248.907 126.492 249.873L122.986 252.789L121.233 254.251L119.404 255.667L115.739 258.508L113.901 259.933C113.292 260.411 112.71 260.87 111.932 261.414C110.479 262.455 109.026 263.495 107.498 264.489C106.738 264.986 105.998 265.502 105.21 265.98L102.763 267.48C101.854 268.042 100.635 268.689 99.538 269.289C98.413 269.889 97.2786 270.48 96.1442 271.052L92.6659 272.646C91.5034 273.171 90.3502 273.733 89.1502 274.155L85.5782 275.524L84.6876 275.861L83.7781 276.133L81.9406 276.686C80.7218 277.033 79.5124 277.446 78.2936 277.736C77.0654 278.027 75.8373 278.299 74.6091 278.552C64.7556 280.596 54.6772 280.343 45.1706 277.783C40.4548 276.386 35.8609 274.549 31.5858 272.055C27.3294 269.571 23.3824 266.505 19.8573 263.027C12.7039 256.117 7.60375 247.182 4.37865 237.357C3.97551 236.129 3.638 234.863 3.30049 233.607C2.96298 232.341 2.61609 231.085 2.40046 229.782L1.64106 225.891C1.37855 224.597 1.29417 223.257 1.11604 221.935L0.881657 219.947L0.769153 218.953L0.712902 217.95L0.487894 213.928C0.394141 212.578 0.394141 211.247 0.384766 209.906L0.394141 207.9L0.431642 206.025C0.553521 202.35 0.778529 198.74 1.17229 195.327L1.31292 194.034L1.46293 192.909L1.77231 190.677L2.41921 186.224C5.49431 165.739 11.5789 145.845 19.3604 126.86C27.1607 107.856 36.7141 89.7896 46.7832 72.2484C47.9832 70.1859 48.9864 67.8983 49.9145 65.4701C50.8239 63.0325 51.8177 60.548 52.7365 57.9792C53.6834 55.4291 54.6209 52.8134 55.7272 50.3196C56.8804 47.8539 58.1367 45.4538 59.5898 43.26C60.818 41.4599 62.1306 39.2848 63.7431 37.091C65.3275 34.8785 67.0245 32.5252 68.7589 30.2002C70.4652 27.8563 72.3496 25.6438 74.1591 23.6187C75.9685 21.5936 77.7404 19.7655 79.3717 18.3029C82.2218 15.7997 85.4282 13.4559 87.0314 10.1089C88.8502 6.23688 90.969 3.55554 93.1347 1.88674C95.3098 0.227307 97.6067 -0.344587 100.101 0.199181C105.088 1.26797 110.807 6.86503 118.279 16.7841C121.589 21.1249 127.655 24.7437 128.142 29.8252C128.161 30.0314 128.208 30.4533 128.264 30.6783C128.798 32.8815 129.089 34.8597 129.173 36.6504C129.211 37.541 129.202 38.3942 129.145 39.1911C129.098 40.0067 129.023 40.7943 128.892 41.5349C128.377 44.5163 127.176 46.9163 125.611 49.0539C125.217 49.5883 124.805 50.104 124.373 50.6102C123.961 51.1352 123.539 51.6415 123.098 52.1478C122.217 53.1509 121.289 54.126 120.361 55.101C118.523 57.0698 116.564 58.9824 115.176 61.2981C107.976 72.3891 101.563 83.9863 95.7317 95.818C89.9377 107.678 84.7157 119.809 80.3562 132.241C76.006 144.673 72.3871 157.348 69.537 170.164C68.8808 173.38 68.1401 176.577 67.5495 179.811L65.8901 189.505C65.4119 192.749 65.0275 196.003 64.5869 199.246L64.2681 201.684L64.0619 203.775C63.9587 205.134 63.8462 206.484 63.8181 207.75L63.7712 208.856L63.7806 209.212C63.7806 209.456 63.7994 209.681 63.8087 209.897C63.8369 210.337 63.8744 210.778 63.94 211.209C64.0712 212.072 64.2775 212.934 64.6431 213.731C65.3557 215.334 66.9307 216.525 68.6839 216.638C70.4371 216.778 72.1528 216.019 73.4372 215.044L73.9434 214.631C74.0466 214.556 74.0653 214.528 74.2341 214.425L74.6935 214.134C74.9935 213.937 75.3029 213.759 75.6029 213.534C76.2123 213.094 76.8217 212.691 77.4217 212.222L78.3217 211.519C78.6217 211.284 78.903 211.078 79.2967 210.75C82.2218 208.312 85.1469 206.006 87.9408 203.278C91.044 200.465 93.7066 196.874 96.5848 193.64C99.4537 190.227 102.529 187.162 106.504 184.696L106.382 184.79C112.879 177.814 118.889 169.958 126.248 162.861C129.502 159.711 132.764 156.542 136.036 153.364C139.411 150.12 142.739 146.857 146.293 143.548C149.48 140.548 152.827 137.491 156.212 134.66L166.347 125.978C167.181 125.219 168.053 124.61 168.915 123.953L171.503 121.994L176.678 118.075C178.403 116.781 180.138 115.44 181.863 114.184L187.038 110.856L192.213 107.528L194.801 105.868L196.094 105.043C196.516 104.828 196.919 104.668 197.341 104.471C200.651 102.99 203.96 101.509 207.26 100.037L209.735 98.9399C210.167 98.7149 210.514 98.6962 210.889 98.5931L212.004 98.3399C213.486 98.0118 214.976 97.6743 216.458 97.3461C217.939 97.018 219.42 96.6899 220.901 96.3617C221.633 96.2211 222.401 95.9867 223.086 95.9305C223.77 95.8742 224.455 95.7898 225.139 95.743C230.577 95.4054 235.752 95.8648 241.04 97.1774C243.665 97.8805 246.365 98.7431 249.046 100.009L251.081 100.974C251.746 101.34 252.402 101.743 253.059 102.118C254.381 102.943 255.703 103.759 257.025 104.584C258.75 106.028 260.39 107.396 261.984 108.718C262.706 109.431 263.418 110.134 264.093 110.837C264.722 111.559 265.369 112.281 265.959 113.003C267.197 114.484 269.475 115.797 270.919 118.009Z" fill="black"/>
</svg>
