<svg width="165" height="293" viewBox="0 0 165 293" fill="none" xmlns="http://www.w3.org/2000/svg">
<path d="M161.859 151.985C161.126 154.957 159.675 159.886 157.975 165.945C157.141 168.979 156.298 172.294 155.37 175.811C154.793 178.034 154.185 180.389 153.553 182.822C151.666 190.176 149.786 198.506 148.663 205.072C147.353 212.668 146.16 220.288 144.998 227.907L143.274 239.34L142.502 244.48C142.307 245.884 142.167 247.069 142.065 247.997C141.98 248.886 141.949 249.487 141.863 249.682C141.855 249.705 141.839 249.721 141.824 249.744C141.816 249.752 141.808 249.775 141.8 249.768C141.8 249.768 141.8 249.768 141.793 249.768L141.699 249.783L141.512 249.814L141.13 249.877C140.623 249.97 140.116 250.072 139.609 250.196C139.11 250.313 138.548 250.485 138.182 250.547C137.378 250.727 136.528 250.992 135.756 251.265C135.132 251.444 134.501 251.67 133.869 251.951C133.69 252.037 133.604 252.06 133.487 252.107L133.151 252.247C132.925 252.349 132.699 252.458 132.473 252.575C132.372 252.63 132.216 252.723 132.161 252.747L131.95 252.848C131.81 252.918 131.67 253.004 131.529 253.098C131.17 253.347 131.17 253.324 131.007 253.449L130.835 253.589L130.859 253.566C130.859 253.558 130.859 253.558 130.859 253.566C131.241 253.176 130.001 254.431 131.716 252.7L131.709 252.708L131.685 252.731L131.592 252.817L131.412 253.004C131.295 253.129 131.163 253.293 131.069 253.402C130.999 253.48 130.921 253.573 130.851 253.667C130.671 253.924 130.664 253.917 130.578 254.049C130.523 254.135 130.562 254.072 130.554 254.088C130.554 254.08 130.539 254.111 130.554 254.088C130.687 253.846 131.225 252.583 131.467 250.282C131.514 249.963 131.545 249.635 131.568 249.323L131.623 248.317C131.67 247.56 131.638 246.897 131.638 246.001C131.506 243.552 131.576 244.706 131.732 244.605C132.044 244.839 132.769 244.987 133.713 245.01C134.657 245.034 135.819 244.948 137.098 244.761C138.696 244.534 140.864 243.684 143.867 244.605C146.846 245.556 150.8 248.223 155.667 255.585C160.713 263.252 163.497 270.162 163.442 275.917C163.395 281.634 160.525 286.227 154.692 288.341C151.182 289.604 147.361 290.68 143.087 291.39C140.95 291.741 138.665 291.991 136.263 292.092C133.861 292.193 131.272 292.108 128.589 291.78C123.239 291.156 117.156 289.253 111.954 285.853C109.373 284.168 107.017 282.195 105.044 280.09C104.046 279.005 103.071 277.836 102.174 276.666C101.34 275.457 100.451 274.233 99.7723 272.977C96.8867 267.931 95.4751 262.831 94.781 258.385C94.0947 253.916 94.0479 250.001 94.1181 246.406C94.1961 242.819 94.4378 239.567 94.6172 236.548C94.7966 233.749 94.8434 231.05 94.8356 228.274C94.703 212.122 96.9569 196.174 100.24 180.49C101.067 176.567 101.94 172.66 102.876 168.761L103.219 167.295L103.305 166.928L103.313 166.881L103.297 166.936C103.282 167.006 103.297 166.944 103.29 166.959L103.297 166.928L103.336 166.788L103.492 166.226L103.804 165.095C104.21 163.59 104.631 162.03 104.732 160.783C104.764 160.221 104.756 159.652 104.639 159.082C104.522 158.521 104.241 157.912 103.664 157.608C103.102 157.281 102.4 157.343 101.816 157.538C101.215 157.733 100.669 158.045 100.115 158.326C99.0158 158.903 97.8927 159.496 96.8087 160.143C96.2706 160.463 95.7403 160.798 95.2411 161.141L85.7421 166.476L77.8575 170.866C75.2214 172.348 72.5698 173.838 69.887 175.148C67.212 176.474 64.537 177.62 61.8854 178.572C59.2338 179.531 56.5978 180.295 54.0008 180.81C48.7989 181.886 43.714 182.136 38.6214 181.45C37.3424 181.301 36.0868 181.013 34.8233 180.724L32.9126 180.256C32.2809 180.085 31.657 179.866 31.0253 179.671C30.3936 179.492 29.7775 179.219 29.1614 178.985C28.5374 178.751 27.9213 178.502 27.313 178.221C26.0886 177.683 24.9032 177.043 23.7334 176.396C19.0697 173.705 14.9909 170.11 11.7387 165.992C8.4788 161.859 5.93636 157.179 4.11922 151.993C2.30989 146.807 1.23366 141.106 0.921708 135.093L0.835884 132.824L0.828125 130.531C0.85932 129.759 0.828114 129.002 0.913901 128.207L1.20246 125.836L2.42688 116.345C2.75443 113.607 3.25356 110.885 3.93206 108.109L4.439 106.027L4.87574 104.272L5.5152 101.909C6.42767 98.7816 7.52732 95.7088 8.60357 92.636C9.79679 89.6023 11.0368 86.5997 12.3392 83.6361C13.743 80.7038 15.1 77.7713 16.613 74.917C22.6181 63.4682 29.7385 52.8072 37.0694 42.5127C37.9351 41.3039 38.6448 39.9079 39.2921 38.4105C39.9784 36.9366 40.6179 35.369 41.2574 33.7624C41.9203 32.1715 42.5286 30.5181 43.3475 29.0129C44.1508 27.4921 45.032 26.0493 46.0771 24.7625C47.7538 22.61 50.1715 19.8726 52.6438 17.2132C53.8604 15.864 55.2252 14.6474 56.512 13.5165C57.8066 12.4013 59.07 11.4108 60.2477 10.6699C62.3144 9.40651 64.5916 8.29129 65.6912 6.2012C66.9313 3.77575 68.4131 2.22377 69.9494 1.41268C71.5014 0.609401 73.1625 0.617245 74.9797 1.45952C78.6373 3.14408 82.8955 8.24457 88.6277 16.7063C91.1701 20.4108 95.6389 24.1542 96.2394 27.7963C96.2628 27.9445 96.3174 28.2486 96.3642 28.4123C97.3624 31.7113 97.573 34.0899 97.3858 36.0397C97.1831 37.9738 96.4577 39.3698 95.4595 40.5162C94.4378 41.6392 93.2446 42.6141 91.9968 43.5578C90.7724 44.5248 89.47 45.4451 88.5575 46.7085C83.9094 52.7449 79.737 59.1243 75.8766 65.6519C72.0395 72.1952 68.5534 78.9568 65.6288 85.9368C62.6731 92.9011 60.154 100.037 58.1185 107.282L56.7226 112.749C56.4652 113.654 56.3092 114.582 56.1065 115.494L55.966 116.181L55.9037 116.493L55.8959 116.571L55.8491 116.867C55.7789 117.288 55.7321 117.756 55.6931 118.185C55.6541 118.622 55.5995 119.051 55.5917 119.48C55.5761 120.517 55.6073 121.57 55.8647 122.584C56.1142 123.582 56.7069 124.58 57.7208 124.939C58.719 125.321 59.9045 124.978 60.8403 124.315C61.784 123.66 62.5717 122.732 63.063 121.812C63.1956 121.554 63.2736 121.195 63.2892 120.829C63.297 120.649 63.297 120.462 63.2814 120.291C63.1488 120.275 63.5934 119.948 63.8429 119.729L64.7008 119.035C65.855 118.123 67.0404 117.265 68.3117 116.547C68.9434 116.189 69.5985 115.869 70.277 115.596L70.7917 115.401L71.0569 115.307L71.5482 115.105C72.2033 114.832 72.8584 114.574 73.5213 114.34L73.3497 114.418C78.4034 111.408 83.5117 108.21 88.7525 105.028C91.3729 103.437 94.0245 101.862 96.6917 100.326C99.3589 98.8049 102.05 97.2529 104.709 96.0207C107.22 94.8509 109.7 93.8683 112.087 93.1118L112.984 92.8154L113.857 92.5736L115.604 92.0979L117.288 91.7314C117.858 91.6066 118.419 91.4818 118.942 91.4194C123.286 90.7019 127.115 90.6005 130.476 90.9359C133.9 91.279 137.144 91.9575 140.685 93.3535L143.399 94.5389C143.875 94.7261 144.335 94.9757 144.795 95.233C145.255 95.4748 145.723 95.7556 146.191 96.0285C146.659 96.2937 147.119 96.6056 147.587 96.8942L147.759 97.0034L147.844 97.0579C147.766 97.1749 147.837 97.097 147.821 97.1282L147.844 97.1437L147.891 97.1749L148.242 97.4011L148.944 97.8534L149.646 98.3135L150.301 98.8361C150.73 99.1871 151.175 99.5302 151.588 99.8967C153.296 101.324 154.746 102.884 156.033 104.428C156.696 105.2 157.258 105.972 157.827 106.752C158.35 107.532 158.888 108.32 159.34 109.107C161.235 112.25 162.561 115.494 163.505 119.004C163.731 119.885 163.941 120.774 164.113 121.695L164.362 123.075C164.425 123.558 164.44 124.112 164.479 124.627C164.596 126.733 164.706 128.823 164.823 130.913L164.862 131.693L164.877 132.083C164.893 132.207 164.885 132.348 164.862 132.512L164.62 134.391C164.456 135.639 164.292 136.887 164.128 138.127C163.957 139.367 163.785 140.607 163.614 141.839L163.481 142.767C163.458 142.923 163.442 143.071 163.411 143.235L163.263 143.742L162.678 145.762C162.179 147.454 162.506 149.482 161.859 151.985Z" fill="black"/>
</svg>
