<svg width="292" height="113" viewBox="0 0 292 113" fill="none" xmlns="http://www.w3.org/2000/svg">
<path d="M189.468 27.3574C193.484 26.0365 207.834 21.7714 216.98 18.8686C238.152 12.1877 259.514 6.02472 281.281 1.70582C284.685 1.03116 290.365 -0.499787 291.53 4.30906C292.743 9.3131 289.746 13.2347 283.916 14.6319C280.389 15.4846 276.834 16.2632 273.29 17.0933C269.748 17.9276 266.205 18.7619 262.678 19.6327C255.613 21.3503 248.637 23.3737 241.828 25.8217C221.952 33.0896 201.624 38.7095 181.658 45.5527C163.746 51.7199 145.747 57.6711 128.012 64.3281C123.857 65.9178 119.721 67.5565 115.591 69.2162C113.53 70.0496 111.46 70.8716 109.409 71.7247L103.249 74.2907L90.9129 79.3725C86.804 81.0715 82.6827 82.7287 78.5319 84.3172C74.9445 85.6751 71.3546 87.0246 67.7378 88.3138C64.1264 89.6059 60.493 90.8544 56.8571 92.0945L45.9796 95.9017C42.3573 97.1879 38.7314 98.4615 35.1497 99.8542C31.7712 101.15 28.1119 103.678 24.4261 105.133C21.3697 106.32 16.3417 108.46 13.1876 109.348C11.8249 109.733 10.3943 110.088 9.20551 110.8C3.74589 114.061 1.49769 113.081 1.1939 107.065C1.12891 105.74 -0.0118867 104.465 1.05447 103.078C1.09638 103.021 1.18562 102.908 1.22087 102.842C4.13265 97.8661 9.15363 97.4372 13.5363 95.4657C35.1017 85.8753 56.9661 76.9574 78.927 68.2889C82.2968 66.9635 85.6654 65.6338 89.0573 64.352L99.2178 60.5019C105.973 57.8876 112.751 55.3348 119.422 52.5309C123.072 50.9859 126.563 48.9777 130.498 48.041L130.431 48.0608C134.325 46.498 138.168 44.773 142.13 43.3909C157.141 38.2463 172.697 32.4849 187.339 28.2562C187.927 28.0914 188.629 27.6239 189.468 27.3574Z" fill="black"/>
</svg>
