<svg width="803" height="835" viewBox="0 0 803 835" fill="none" xmlns="http://www.w3.org/2000/svg">
<path d="M609.26 487.109C604.775 486.03 598.839 484.572 591.702 482.711C584.46 480.83 575.87 478.314 566.628 475.038C548.144 468.378 526.333 458.781 505.386 443.412C494.965 435.696 484.754 426.563 476.06 415.507C467.407 404.472 460.165 391.555 456.249 377.56C454.27 370.605 453.028 363.481 452.502 356.441C452.018 349.402 452.291 342.425 453.091 335.724C454.754 322.3 458.712 310.187 463.112 299.701C468.228 287.525 474.418 276.384 480.691 265.729C486.965 255.074 493.386 244.906 499.281 234.801C511.091 214.654 520.797 194.508 522.86 173.981C525.323 153.369 520.291 132.208 510.333 113.203C500.291 94.1767 485.323 77.3703 467.912 63.7349C450.46 50.0995 430.418 39.5505 409.302 33.2085C404.018 31.6441 398.691 30.2489 393.302 29.2553C390.607 28.7268 387.912 28.2194 385.218 27.9023L381.154 27.3315L376.944 27.0144C371.323 26.6128 365.723 25.9574 360.06 26.0843L351.575 25.9786C348.754 25.9786 345.912 26.2323 343.07 26.338C320.375 27.4372 297.66 31.5384 275.281 37.6268C252.881 43.694 230.839 51.8541 209.028 60.9021C195.365 66.4831 177.218 74.9603 162.039 80.9641C146.86 86.9679 134.649 90.4983 132.965 85.9532C131.239 81.2812 137.323 73.7765 149.87 64.665C162.418 55.5959 181.428 44.7087 206.018 34.5192C220.839 28.2828 236.081 22.7441 251.512 17.6916C267.007 12.766 282.839 8.68593 298.923 5.49377C315.07 2.61871 331.449 0.568114 347.975 0.124171C352.102 -0.0449498 356.249 0.166452 360.375 0.166452L366.586 0.251012L372.775 0.716096C376.923 1.07548 381.007 1.28688 385.175 1.7731L391.449 2.63985C393.533 2.91467 395.596 3.37975 397.681 3.76028C401.849 4.4579 405.891 5.57833 409.996 6.5085C414.018 7.69234 418.102 8.72821 422.039 10.1446C430.018 12.7237 437.723 15.9581 445.281 19.5097C452.839 23.0401 460.081 27.2047 467.196 31.5596C474.207 36.0624 481.028 40.8824 487.512 46.1463C500.439 56.7163 512.249 68.7662 522.102 82.4862C527.049 89.3145 531.575 96.5021 535.386 104.134C537.407 107.876 539.028 111.85 540.754 115.761C542.27 119.777 543.849 123.752 545.028 127.916C548.712 139.945 550.712 152.65 550.691 165.419C550.649 178.167 548.46 191.02 544.691 202.985C540.923 214.971 535.765 226.176 530.165 236.788C524.544 247.4 518.439 257.463 512.502 267.336C500.67 286.996 489.133 306.234 483.681 326.148C482.354 331.115 481.407 336.083 480.881 341.051C480.354 346.019 480.418 350.987 480.818 355.892C481.196 360.817 482.249 365.637 483.618 370.352C485.007 375.066 486.86 379.653 489.218 384.05C498.46 401.787 514.586 416.331 532.775 427.62C551.07 438.951 571.596 447.365 592.733 453.348C603.386 456.265 614.544 458.95 625.702 461.571C636.881 464.235 648.165 466.856 659.512 469.858C682.144 475.82 705.218 483.113 726.965 494.952C736.607 500.427 746.165 506.452 754.67 514.02L757.912 516.768L760.944 519.77C762.944 521.8 765.007 523.766 766.965 525.837C768.839 528.015 770.754 530.171 772.565 532.412C774.27 534.716 776.102 536.978 777.702 539.346C790.86 558.33 798.481 580.696 800.986 603.126C803.533 625.619 801.302 648.239 795.512 669.675C789.681 691.132 780.291 711.511 767.681 729.84C761.365 738.993 754.249 747.619 746.333 755.546C744.312 757.47 742.333 759.521 740.27 761.296L734.018 766.666C731.891 768.399 729.933 770.344 727.681 771.93L721.091 776.834C703.407 789.772 684.018 800.067 663.912 808.058C623.618 824.019 580.965 830.974 538.754 833.257L523.87 833.828L508.986 834.04C498.986 834.082 488.944 833.744 478.923 833.046C458.902 831.672 438.923 828.733 419.196 824.061C399.491 819.389 380.018 812.751 361.428 803.534C342.881 794.338 325.154 782.267 310.333 766.56C295.512 750.959 283.975 731.573 277.723 710.666C271.428 689.652 270.228 668.195 270.775 647.901C271.428 627.585 273.554 608.094 274.607 589.237C275.765 570.38 275.533 552.22 271.912 535.414C271.491 533.617 271.281 531.736 270.691 530.002L269.07 524.759C268.165 521.208 266.649 517.868 265.323 514.464C262.291 507.826 258.818 501.378 254.565 495.353C250.249 489.371 245.491 483.599 240.123 478.251C234.712 472.924 228.944 467.829 222.733 463.093C210.312 453.58 196.628 445.082 182.354 437.007C168.123 428.91 153.302 421.194 138.46 413.118C123.618 404.979 108.649 396.587 94.1439 386.841C79.6176 377.201 65.5965 366.145 53.007 353.228C27.6807 326.993 11.2386 293.338 4.35442 258.161C1.11232 241.587 -0.782421 222.92 0.333369 203.767C1.42811 184.657 5.72284 165.102 13.1334 147.746C14.7755 144.215 16.3965 140.305 18.4176 136.351C20.607 132.483 22.7334 128.276 25.2807 124.153C26.6071 122.124 27.9544 120.073 29.3228 117.98C30.6913 115.909 32.0386 113.752 33.6386 111.786C35.1755 109.778 36.7334 107.749 38.2913 105.719C39.0913 104.726 39.8281 103.669 40.6702 102.696L43.2176 99.8211C44.9228 97.8974 46.6281 95.9947 48.3334 94.0921C50.0176 92.1684 51.9334 90.4983 53.7228 88.7225C55.5334 86.9679 57.3228 85.2344 59.1123 83.5221C61.007 81.9365 62.8597 80.3722 64.6913 78.8289C66.5439 77.3069 68.3123 75.7636 70.1228 74.3684C71.9965 73.0365 73.807 71.7259 75.5755 70.4363C77.3649 69.1679 79.0913 67.9418 80.7544 66.7579C82.5018 65.7009 84.186 64.665 85.807 63.6715C87.2176 62.8259 88.607 61.9802 90.0386 61.1346L92.1649 59.8662L94.3755 58.7247C97.3228 57.2026 100.27 55.6593 103.197 54.1373C106.144 52.6574 109.218 51.4102 112.186 49.9938C113.66 49.2962 115.154 48.6197 116.607 47.922C118.123 47.309 119.618 46.7171 121.091 46.1251C124.523 44.7722 127.723 43.2924 130.923 42.2988C134.123 41.3052 137.175 40.3539 140.06 39.466C140.775 39.2546 141.491 39.0432 142.207 38.8318C142.923 38.6627 143.639 38.5147 144.333 38.3667C145.723 38.0707 147.091 37.7748 148.418 37.5C151.049 36.9714 153.533 36.4218 155.87 36.0624C160.586 35.5339 164.67 35.1957 168.123 35.0266C171.597 34.9843 174.439 35.3225 176.649 35.6608C185.554 37.1617 184.165 40.8401 175.302 46.8439C173.365 48.1546 173.639 49.5287 172.775 50.8817C172.354 51.5793 171.639 52.1712 170.249 52.9111C168.881 53.6722 166.839 54.4755 163.765 55.3211C163.26 55.4691 162.249 55.765 161.786 55.8919C159.47 56.5472 157.197 57.4774 154.923 58.323C152.649 59.1686 150.375 59.9719 148.123 60.7541L141.428 63.4812C139.218 64.4114 136.944 65.109 134.775 66.1871C130.439 68.2377 125.954 69.9078 121.723 72.1909L115.26 75.3408L108.965 78.8712C104.67 81.0698 100.712 83.8392 96.586 86.3548C94.4807 87.5598 92.607 89.1242 90.6281 90.4983C88.6702 91.9358 86.6491 93.2888 84.7334 94.7898C77.2176 100.92 69.786 107.347 63.5123 114.831C59.4281 119.228 56.0176 124.175 52.3965 128.931C49.1965 133.962 45.786 138.888 43.1334 144.237L41.007 148.169C40.2702 149.479 39.7649 150.875 39.1334 152.228C37.9544 154.955 36.6492 157.639 35.5544 160.388L32.586 168.801L31.8492 170.915L31.2807 173.072L30.1228 177.384L28.9439 181.697C28.586 183.156 28.3755 184.635 28.0807 186.094C27.5755 189.033 26.8807 191.95 26.4807 194.91L25.4492 203.831C25.2386 205.31 25.1965 206.811 25.1334 208.312L24.9439 212.794C24.5649 224.759 25.2386 236.809 27.4913 248.605C29.6386 260.402 32.7334 272.071 37.386 283.106C41.9544 294.141 47.3649 304.902 54.2913 314.605C61.1544 324.372 68.7123 333.377 77.6807 341.432C86.5649 349.529 96.3334 356.843 106.628 363.629C127.218 377.201 149.744 388.659 172.502 400.561C195.218 412.526 218.481 424.745 240.06 441.108C250.797 449.268 261.07 458.527 270.081 469.182C279.133 479.773 286.712 491.95 292.186 504.993C293.512 508.27 294.923 511.526 295.87 514.929C296.881 518.312 298.06 521.673 298.881 525.097L301.049 535.393C301.702 538.817 301.996 542.263 302.46 545.688C303.933 559.408 304.018 572.98 303.365 586.171C302.586 602.386 300.965 618.135 299.954 633.546C298.944 648.958 298.502 664.073 299.996 678.575C300.207 680.372 300.249 682.232 300.586 684.008L301.512 689.335C301.849 691.09 302.039 692.908 302.502 694.62L303.87 699.757C305.47 706.691 308.207 713.245 311.218 719.608C314.228 725.992 318.039 731.975 322.249 737.662C326.439 743.37 331.281 748.633 336.523 753.538C339.091 756.032 341.891 758.294 344.649 760.62C347.533 762.797 350.354 765.059 353.407 767.046C356.354 769.16 359.512 771.021 362.607 772.966C365.807 774.763 368.944 776.644 372.249 778.272C385.323 785.058 399.323 790.301 413.702 794.465C442.502 802.752 472.881 806.431 503.07 806.684C519.723 806.684 536.523 805.775 553.133 804.147C569.765 802.52 586.27 800.046 602.733 797.087L602.165 797.192C619.239 793.535 635.933 788.588 651.912 782.225C667.912 775.862 683.07 767.913 697.154 758.527C700.607 756.476 703.702 753.918 706.944 751.572C708.544 750.367 710.186 749.204 711.744 747.978L716.291 744.067C722.565 738.93 728.018 733.497 733.218 727.536C743.618 715.676 752.123 701.956 758.733 687.412C765.323 672.825 769.765 657.245 771.933 641.516C774.039 625.767 773.639 609.827 770.502 594.754C767.386 579.66 761.154 565.56 752.375 553.51C751.218 552.051 750.207 550.487 748.965 549.091L745.323 544.863L741.302 540.868C739.954 539.557 738.712 538.12 737.197 536.978C734.249 534.589 731.533 531.968 728.312 529.854L723.66 526.514C722.06 525.457 720.375 524.484 718.754 523.47C705.596 515.436 691.007 509.242 675.744 504.296C660.481 499.285 644.691 495.29 628.776 491.379C623.702 490.089 616.754 488.927 609.26 487.109Z" fill="black"/>
</svg>
