<svg width="111" height="145" viewBox="0 0 111 145" fill="none" xmlns="http://www.w3.org/2000/svg">
<path d="M19.8943 128.077C18.1308 121.982 16.4439 115.867 14.7379 109.752C13.7028 105.995 12.9361 102.18 11.4217 98.5575C11 97.5607 10.1183 96.6981 10.2333 95.548V95.5672C9.81157 94.5129 9.25563 93.4969 8.98727 92.3851C7.99049 88.2447 6.53371 84.0275 5.92031 79.9637C5.90114 79.8104 5.65192 79.6378 5.59441 79.4078C5.32605 78.296 4.55931 74.3473 3.86923 71.8745C2.29739 66.1238 0.840549 60.3348 0.744705 54.2392C0.725536 53.2807 -1.22968 40.3035 2.96829 39.2875C7.35795 38.2141 11.7668 50.0412 11.9968 51.6514C12.5527 55.5618 12.4952 59.6448 14.2204 63.2293C16.7315 68.4816 17.5174 74.1747 19.1276 79.6378C20.5844 84.5642 21.6004 89.5864 23.0955 94.4937C24.4949 99.0942 26.6226 103.522 27.7535 108.199C28.7312 112.244 28.6545 116.538 29.2679 120.659C29.4213 121.637 30.4755 122.576 30.6672 123.63C30.8205 124.512 31.1465 125.95 31.0123 126.889C30.9548 127.292 30.8397 127.732 31.0889 128.058C32.2199 129.534 34.501 143.182 29.3829 144.371C24.3607 145.521 21.4087 133.368 19.8943 128.077Z" fill="black"/>
<path d="M52.3687 57.4934C53.5763 53.3338 54.8414 49.1741 56.1258 45.0337C56.9117 42.4842 57.966 40.0306 58.2727 37.3278C58.3494 36.5802 57.9852 35.6985 58.5794 35.1234V35.1426C58.6944 34.3567 58.6561 33.5516 58.9244 32.8232C59.9212 30.082 60.5538 27.0917 61.8381 24.5806C61.8956 24.4847 61.7423 24.2739 61.7998 24.1205C62.0681 23.3921 63.1607 20.8618 63.6783 19.175C64.8859 15.2837 66.2278 11.4308 68.8731 8.03789C69.2948 7.50116 73.3969 -0.511387 77.4798 0.926274C81.7353 2.42144 80.2593 10.9707 79.7226 11.9675C78.4575 14.3636 76.5981 16.568 76.4639 19.3475C76.2722 23.4113 74.4128 26.9 73.3586 30.6571C72.4193 34.0308 71.0391 37.2703 70.1382 40.6632C69.2756 43.8452 69.1414 47.2764 68.0296 50.3626C67.0712 53.0271 65.0776 55.3465 63.7741 57.8959C63.4674 58.4902 63.9658 59.5253 63.6591 60.1962C63.4099 60.7521 63.0457 61.6914 62.4898 62.1323C62.2598 62.324 61.9723 62.5156 62.0298 62.8032C62.3365 64.145 58.2152 72.6943 53.2696 70.9116C48.4199 69.148 51.3144 61.0971 52.3687 57.4934Z" fill="black"/>
<path d="M68.2445 92.1321C70.5639 86.2281 72.9601 80.3241 75.337 74.4393C76.7938 70.8356 78.5382 67.3277 79.535 63.5131C79.8033 62.478 79.65 61.232 80.4167 60.3886L80.3975 60.4077C80.7042 59.3151 80.8959 58.165 81.356 57.1299C83.1003 53.2386 84.5188 48.9831 86.5124 45.3986C86.5891 45.2644 86.4932 44.9769 86.5891 44.766C87.0491 43.7309 88.851 40.1271 89.8286 37.731C92.0905 32.2104 94.4675 26.7281 98.1096 21.8209C98.6846 21.0542 105.029 9.5529 108.997 11.3164C113.119 13.1375 109.419 25.2138 108.614 26.6323C106.678 30.0635 104.148 33.2839 103.304 37.1752C102.077 42.8683 99.2405 47.8714 97.1894 53.2003C95.3492 57.9925 93.0873 62.6122 91.2663 67.4044C89.5603 71.9091 88.5443 76.7204 86.5891 81.1293C84.9022 84.9247 82.2186 88.2984 80.1867 91.9404C79.7075 92.803 79.9759 94.2023 79.4775 95.1608C79.0749 95.9467 78.4615 97.2886 77.7523 97.9595C77.4456 98.247 77.1005 98.5154 77.1005 98.9179C77.1005 100.777 70.5831 113.007 65.7909 110.822C61.1521 108.713 66.2318 97.2694 68.2445 92.1321Z" fill="black"/>
</svg>
