<svg width="315" height="76" viewBox="0 0 315 76" fill="none" xmlns="http://www.w3.org/2000/svg">
<path d="M206.284 23.5798C207.44 24.152 209.325 25.1045 211.659 26.3043C213.963 27.5041 216.717 28.9402 219.647 30.4723C222.511 31.9489 225.523 33.4404 228.442 34.6956C231.361 35.9582 234.192 36.9845 236.651 37.6601C239.497 38.4575 242.302 38.9485 244.971 39.0592C247.643 39.1737 250.147 38.8414 252.458 38.0846C253.611 37.7007 254.741 37.2207 255.794 36.6079C256.861 35.9951 257.921 35.253 258.985 34.3966C261.113 32.6762 263.226 30.4686 265.472 28.0542C266.598 26.8433 267.765 25.5844 268.998 24.3071L269.941 23.3472L270.92 22.3837C271.583 21.745 272.289 21.1211 272.974 20.4935C275.765 18.0274 278.765 15.8161 281.916 13.8853C288.222 10.0311 295.143 7.26972 302.303 5.81519C302.859 5.68967 303.474 5.59369 304.11 5.47555C304.751 5.36849 305.41 5.2319 306.095 5.17283C306.776 5.09899 307.464 5.04362 308.138 5.01039C308.811 4.97717 309.481 5.01778 310.107 5.06946C311.363 5.16545 312.485 5.48663 313.281 6.01454C314.079 6.54246 314.558 7.29189 314.58 8.33664C314.606 9.4257 314.341 10.4225 313.844 11.3159C313.593 11.7626 313.288 12.1797 312.931 12.5674C312.75 12.763 312.559 12.9476 312.353 13.1285C312.147 13.3131 311.933 13.5014 311.705 13.6749C311.248 14.0256 310.744 14.3468 310.192 14.6384C309.643 14.9338 309.051 15.2402 308.414 15.4875C307.773 15.7312 307.1 15.9896 306.378 16.2185C306.017 16.3292 305.646 16.4363 305.263 16.5323C304.884 16.6467 304.493 16.7538 304.092 16.8535C302.137 17.3075 300.219 17.9241 298.309 18.5701C297.834 18.7362 297.366 18.9282 296.891 19.1054C296.424 19.2937 295.942 19.4487 295.482 19.6629C294.558 20.0726 293.611 20.4418 292.713 20.907C289.065 22.6642 285.56 24.7833 282.395 27.338L281.213 28.3015C280.812 28.6153 280.455 28.9771 280.072 29.313C279.696 29.6564 279.313 29.9886 278.945 30.343C278.577 30.7085 278.209 31.0555 277.841 31.4321C276.372 32.9199 274.914 34.5295 273.401 36.1871C271.888 37.8446 270.324 39.5539 268.605 41.2336C266.889 42.9134 264.993 44.5562 262.865 46.0255C259.747 48.211 256.088 49.7578 252.333 50.5774C248.567 51.3711 244.75 51.4487 241.12 51.05C237.487 50.6439 234.015 49.8132 230.709 48.75C227.396 47.6942 224.245 46.4058 221.19 45.0287C218.138 43.648 215.189 42.1677 212.303 40.6762L208.047 38.4796L203.796 36.3273C198.115 33.4773 192.387 30.7344 186.589 28.1354C181.388 25.7948 176.16 23.5133 170.903 21.2946L166.957 19.6407L163.022 18.0274C160.456 16.9938 157.883 16.045 155.309 15.2328C150.178 13.6121 144.976 12.5009 140.102 12.5305C138.891 12.5452 137.702 12.6264 136.553 12.7852C135.405 12.9476 134.304 13.206 133.248 13.5346C132.191 13.8632 131.19 14.2803 130.251 14.7935C129.312 15.3066 128.418 15.8862 127.593 16.5766C126.054 17.8576 124.744 19.4229 123.643 21.2688C122.542 23.1109 121.648 25.2152 120.908 27.4856C119.417 32.0412 118.541 37.1691 117.473 42.5885C117.216 43.9102 116.903 45.4127 116.546 46.8488C116.185 48.2959 115.78 49.7431 115.316 51.1865C114.388 54.0698 113.232 56.9493 111.708 59.7772C110.184 62.594 108.289 65.3812 105.789 67.8916C104.541 69.1431 103.135 70.3134 101.578 71.336C100.024 72.3586 98.3159 73.2262 96.5195 73.8685C94.9697 74.4186 93.372 74.8173 91.7486 75.0351C90.1362 75.2529 88.5569 75.2972 87.0512 75.2271C84.0326 75.0831 81.3195 74.5109 78.8457 73.8759C77.6088 73.5547 76.4271 73.2225 75.2932 72.8755L71.8623 71.8381C70.7174 71.4948 69.5872 71.1071 68.4497 70.7416C67.3159 70.3688 66.1784 70.007 65.0519 69.6083L61.6725 68.4269C60.5497 68.0282 59.4343 67.6037 58.3152 67.1902C56.0733 66.3817 53.8608 65.4809 51.6373 64.6244L48.3279 63.2733L46.675 62.5977L45.0331 61.8963L41.7457 60.5008L38.4805 59.0573C37.4497 58.6143 36.36 58.175 35.2262 57.7394C34.0924 57.3037 32.9107 56.894 31.7216 56.4547C29.3546 55.5613 26.9286 54.6568 24.7309 53.5419C22.8976 52.6522 20.49 51.4007 18.0972 50.1307C15.7265 48.8165 13.3668 47.4874 11.6992 46.3393C10.2487 45.3647 8.76517 44.3273 7.21904 43.6C5.43362 42.7842 4.02737 42.02 3.0187 41.2669C2.00267 40.5212 1.36212 39.8234 1.08971 39.1441C0.54856 37.7893 1.49465 36.5267 3.8249 35.1423C4.84829 34.5332 5.00291 33.0269 6.94662 33.3518C7.02761 33.3666 7.18591 33.3924 7.26321 33.3961C8.04364 33.4404 8.78726 33.5475 9.50879 33.6915C10.234 33.8317 10.9298 34.0163 11.6071 34.2415C12.9618 34.6919 14.2208 35.3084 15.4688 35.9619C16.7131 36.6227 17.9132 37.3795 19.1317 38.1068C20.3538 38.8303 21.5834 39.5576 22.8534 40.2074C35.3771 46.4759 48.3463 51.84 61.632 56.2147C63.296 56.7574 64.9525 57.3074 66.6275 57.8058L69.1345 58.5737C69.9701 58.8284 70.8131 59.0573 71.6525 59.3047L74.1741 60.0282L76.7068 60.7075L79.2396 61.3831C80.0789 61.5972 80.8961 61.8003 81.6987 61.9849C84.894 62.7269 87.8169 63.085 90.2098 62.6752C92.6136 62.2765 94.7746 61.1542 96.7146 59.3194C99.0964 57.0785 101.059 53.8483 102.564 50.2968C103.322 48.5174 103.97 46.6457 104.526 44.726C104.806 43.7662 105.056 42.7916 105.288 41.8133C105.402 41.337 105.517 40.8054 105.634 40.2812L105.977 38.7011C106.897 34.4483 107.769 29.9849 109.168 25.3961C109.853 23.1073 110.7 20.7778 111.778 18.4668C112.853 16.1594 114.153 13.8447 115.839 11.6961C116.266 11.0907 116.778 10.5332 117.263 9.95732L118.007 9.10084L118.817 8.29235C119.362 7.75705 119.899 7.20697 120.496 6.72705C120.79 6.4834 121.077 6.22499 121.387 5.9961L122.318 5.30574C123.581 4.41973 124.924 3.61493 126.342 2.99842C127.751 2.35236 129.224 1.88351 130.715 1.5734L130.615 1.59555C132.136 1.13039 133.667 0.812906 135.195 0.550798C136.719 0.310831 138.236 0.166856 139.738 0.100404C142.734 -0.0103517 145.665 0.185304 148.473 0.657846C151.135 1.09716 153.727 1.69523 156.256 2.40404C158.788 3.10916 161.258 3.91396 163.677 4.79259C166.092 5.65645 168.496 6.62737 170.738 7.54662C173.016 8.47324 175.284 9.41832 177.544 10.3745C186.578 14.1991 195.41 18.26 203.689 22.5018C204.344 22.8378 205.32 23.0962 206.284 23.5798Z" fill="black"/>
</svg>
