<svg width="323" height="143" viewBox="0 0 323 143" fill="none" xmlns="http://www.w3.org/2000/svg">
<path d="M24.5117 6.09491C23.4158 14.6283 18.9245 22.4253 14.6847 29.7371C10.0138 37.8034 5.10933 45.9416 2.57625 54.996C0.384502 62.8648 0.186891 71.3623 3.27689 79.0334C6.29503 86.5249 11.7924 92.7947 19.6431 95.2918C29.2006 98.3279 39.0634 94.5552 47.8304 90.8724C57.2082 86.92 66.568 82.9677 75.9458 79.0154C94.8272 71.0569 113.709 63.0984 132.59 55.1398C139.291 52.3193 146.872 48.9238 153.591 48.6723C156.735 48.5465 158.765 48.7981 161.118 50.2532C162.933 51.385 164.442 54.0439 164.586 56.6848C164.999 64.6433 159.933 72.0988 156.124 78.8537C151.848 86.435 147.932 94.2678 147.214 103.071C146.585 110.67 148.651 118.844 154.022 124.431C160.292 130.971 169.418 131.995 177.934 130.575C186.863 129.084 195.36 125.006 203.75 121.736C213.146 118.072 222.523 114.407 231.919 110.742C240.758 107.292 249.561 103.538 258.669 100.825C266.304 98.5435 274.676 96.747 282.617 98.3997C297.384 101.454 304.193 114.82 308.468 128.024C309.6 131.527 310.606 135.085 311.559 138.642C313.355 145.343 323.757 142.486 321.96 135.767C318.188 121.701 313.499 105.927 301.911 96.1721C295.174 90.4951 287.018 87.477 278.233 87.0638C269.233 86.6326 260.16 88.8603 251.699 91.7168C242.644 94.7529 233.805 98.4717 224.913 101.939C215.517 105.604 206.139 109.269 196.743 112.934C189.108 115.916 180.862 119.958 172.67 120.389C169.167 120.569 166.059 120.138 163.131 118.108C161.172 116.742 159.556 114.173 158.801 111.73C156.825 105.334 158.208 98.6513 161.262 92.1839C165.107 84.0277 170.532 76.6261 173.514 68.0567C176.353 59.9006 176.335 50.2353 170.011 43.678C164.478 37.9292 156.286 37.2465 148.83 38.3603C140.8 39.564 133.416 43.157 125.997 46.2829C116.619 50.2352 107.259 54.1876 97.8812 58.1399C79.2155 66.0087 60.6036 74.093 41.848 81.7461C37.7879 83.3989 33.4224 85.1595 29.0209 85.5008C25.1045 85.8062 21.8888 85.0876 18.9964 83.0216C18.2957 82.5186 17.0561 81.3329 16.1759 80.255C16.5352 80.6862 15.9243 79.9316 15.9243 79.9137C15.6908 79.5903 15.4572 79.249 15.2417 78.9076C14.7027 78.0453 14.1997 77.165 13.7685 76.2488C12.6547 73.9313 11.8103 70.1766 11.7025 67.6076C11.3612 59.2718 14.9542 51.3131 18.8527 44.163C23.2721 36.0248 28.3382 28.2819 31.8235 19.6587C33.602 15.2572 34.6979 10.7839 35.2907 6.07704C35.668 3.18465 32.5421 0.6875 29.9012 0.6875C26.6855 0.705465 24.8889 3.18456 24.5117 6.09491Z" fill="#4633FF"/>
</svg>
