<svg width="360" height="800" viewBox="0 0 360 800" fill="none" xmlns="http://www.w3.org/2000/svg">
<g clip-path="url(#clip0_4435_339890)">
<rect width="360" height="800" fill="#F0F2F2"/>
<rect x="120" y="100" width="120" height="120" rx="60" fill="white"/>
<g filter="url(#filter0_d_4435_339890)">
<path d="M150 144.318C150 140.276 153.276 137 157.318 137H202.682C206.724 137 210 140.276 210 144.318V182.182C210 186.224 206.724 189.5 202.682 189.5H157.318C153.276 189.5 150 186.224 150 182.182V144.318Z" fill="#F2F6F7" stroke="#F2F6F7" stroke-width="4"/>
<path d="M210 149.5H150V144.318C150 140.276 153.276 137 157.318 137H202.682C206.724 137 210 140.276 210 144.318V149.5Z" fill="#3D3C3C" stroke="#3D3C3C" stroke-width="4" stroke-linecap="round"/>
<path d="M160 129.5V137" stroke="#3D3C3C" stroke-width="4" stroke-linecap="round"/>
<path d="M200 129.5V137" stroke="#3D3C3C" stroke-width="4" stroke-linecap="round"/>
<path d="M192 159L178.304 177.261C177.602 178.197 176.25 178.333 175.375 177.556L168 171" stroke="#3D3C3C" stroke-width="1.8" stroke-linecap="round"/>
</g>
<path d="M263.189 76.534L263.62 76.094L264.051 76.534C266.641 81.3734 267.075 93.692 269.232 95.4518C270.958 97.2116 282.174 95.8918 286.92 98.0916L287.351 98.5315L286.92 98.9715C282.175 101.611 270.959 102.051 269.234 103.811C267.508 105.57 267.942 117.009 265.354 121.848L264.923 122.288L264.492 121.848C261.902 117.449 261.469 105.13 259.743 103.811C257.585 102.051 246.801 102.491 241.623 99.8509L241.192 99.4109L241.623 98.9709C245.937 96.3313 257.584 96.7714 259.31 95.0117C261.035 93.6919 260.17 81.3734 263.189 76.534Z" fill="white"/>
<path d="M119.674 196.081L119.845 195.906L120.016 196.081C121.041 197.997 121.213 202.876 122.067 203.572C122.751 204.269 127.192 203.747 129.072 204.618L129.243 204.792L129.072 204.966C127.193 206.012 122.751 206.186 122.068 206.883C121.385 207.58 121.556 212.11 120.532 214.026L120.361 214.2L120.19 214.026C119.165 212.284 118.993 207.405 118.309 206.883C117.455 206.186 113.184 206.36 111.134 205.315L110.963 205.14L111.133 204.966C112.842 203.921 117.454 204.095 118.138 203.398C118.821 202.875 118.478 197.997 119.674 196.081Z" fill="white"/>
<path d="M126.852 236.586L127.108 236.324L127.365 236.586C128.902 239.459 129.16 246.773 130.44 247.818C131.465 248.863 138.125 248.079 140.942 249.385L141.199 249.647L140.943 249.908C138.125 251.475 131.466 251.736 130.441 252.781C129.417 253.826 129.674 260.618 128.138 263.491L127.882 263.752L127.626 263.491C126.089 260.879 125.831 253.565 124.806 252.781C123.525 251.736 117.122 251.997 114.048 250.43L113.792 250.169L114.048 249.908C116.609 248.34 123.525 248.602 124.549 247.557C125.574 246.773 125.06 239.459 126.852 236.586Z" fill="white"/>
<path d="M245.65 56.0503L245.821 55.8761L245.992 56.0503C247.018 57.9668 247.189 62.8453 248.044 63.5422C248.727 64.2391 253.169 63.7164 255.048 64.5876L255.219 64.7618L255.048 64.9361C253.169 65.9814 248.728 66.1556 248.044 66.8525C247.361 67.5494 247.533 72.0794 246.508 73.9959L246.337 74.17L246.166 73.9958C245.141 72.2536 244.969 67.3752 244.286 66.8525C243.431 66.1555 239.16 66.3297 237.11 65.2843L236.939 65.1101L237.11 64.9359C238.818 63.8905 243.431 64.0648 244.114 63.3679C244.798 62.8452 244.455 57.9668 245.65 56.0503Z" fill="white"/>
<path d="M157.608 278.083C159.406 277.025 160.022 274.681 158.984 272.848C157.946 271.015 155.647 270.387 153.849 271.445C152.051 272.503 151.435 274.847 152.473 276.68C153.511 278.514 155.81 279.142 157.608 278.083Z" fill="#818181"/>
<path d="M107.402 232.419C108.304 231.888 108.613 230.712 108.093 229.792C107.572 228.872 106.418 228.557 105.516 229.088C104.614 229.619 104.305 230.795 104.826 231.715C105.347 232.635 106.5 232.95 107.402 232.419Z" fill="#818181"/>
<path d="M227.723 65.9386C228.625 65.4076 228.934 64.2315 228.413 63.3117C227.892 62.3919 226.739 62.0768 225.836 62.6078C224.934 63.1388 224.625 64.315 225.146 65.2347C225.667 66.1545 226.82 66.4696 227.723 65.9386Z" fill="#818181"/>
<path d="M241.879 266.6C242.781 266.069 243.09 264.893 242.569 263.973C242.048 263.053 240.895 262.738 239.993 263.269C239.091 263.8 238.782 264.976 239.302 265.896C239.823 266.816 240.977 267.131 241.879 266.6Z" fill="#818181"/>
<path d="M120.137 113.582C121.039 113.051 121.348 111.875 120.827 110.955C120.306 110.036 119.153 109.72 118.251 110.251C117.348 110.782 117.039 111.959 117.56 112.878C118.081 113.798 119.235 114.113 120.137 113.582Z" fill="#818181"/>
<path d="M86.1679 129.463C87.0699 128.932 87.379 127.756 86.8582 126.836C86.3374 125.916 85.1839 125.601 84.2818 126.132C83.3797 126.663 83.0706 127.839 83.5915 128.759C84.1123 129.679 85.2658 129.994 86.1679 129.463Z" fill="#818181"/>
<path d="M263.772 244.877C265.57 243.819 266.186 241.475 265.148 239.642C264.11 237.809 261.811 237.181 260.013 238.239C258.215 239.297 257.599 241.641 258.637 243.474C259.675 245.308 261.974 245.936 263.772 244.877Z" fill="#818181"/>
<path d="M258.108 130.831C259.906 129.773 260.522 127.429 259.484 125.596C258.446 123.763 256.147 123.135 254.349 124.193C252.551 125.251 251.935 127.595 252.973 129.429C254.011 131.262 256.31 131.89 258.108 130.831Z" fill="#818181"/>
<path d="M236.881 125.066C238.679 124.007 239.295 121.663 238.257 119.83C237.219 117.997 234.92 117.369 233.123 118.427C231.325 119.486 230.709 121.83 231.747 123.663C232.785 125.496 235.084 126.124 236.881 125.066Z" fill="#818181"/>
<path d="M164.208 73.9248C167.697 71.8706 168.893 67.3211 166.878 63.7632C164.864 60.2053 160.402 58.9862 156.912 61.0403C153.423 63.0945 152.227 67.6441 154.242 71.202C156.256 74.7599 160.718 75.979 164.208 73.9248Z" fill="#818181"/>
<path d="M292.223 171.148C293.693 170.282 294.197 168.364 293.348 166.864C292.499 165.365 290.618 164.851 289.147 165.717C287.677 166.582 287.173 168.5 288.022 170C288.871 171.499 290.752 172.013 292.223 171.148Z" fill="#A0A0A0"/>
<path d="M176.145 234.663C177.615 233.797 178.119 231.88 177.27 230.38C176.421 228.88 174.54 228.366 173.069 229.232C171.599 230.098 171.095 232.016 171.944 233.515C172.793 235.015 174.674 235.529 176.145 234.663Z" fill="#A0A0A0"/>
<path d="M204.457 88.8634C205.928 87.9976 206.432 86.08 205.582 84.5802C204.733 83.0805 202.853 82.5666 201.382 83.4324C199.911 84.2981 199.407 86.2158 200.256 87.7155C201.106 89.2152 202.986 89.7292 204.457 88.8634Z" fill="#A0A0A0"/>
<path d="M284.46 203.231C285.392 202.682 285.712 201.466 285.173 200.515C284.635 199.564 283.442 199.238 282.509 199.787C281.576 200.336 281.257 201.552 281.796 202.503C282.334 203.455 283.527 203.781 284.46 203.231Z" fill="#A0A0A0"/>
<path d="M217.928 86.2969C218.861 85.7478 219.181 84.5316 218.642 83.5805C218.103 82.6293 216.911 82.3034 215.978 82.8525C215.045 83.4015 214.726 84.6177 215.264 85.5689C215.803 86.52 216.996 86.846 217.928 86.2969Z" fill="#A0A0A0"/>
<path d="M100.444 135.385C101.377 134.836 101.696 133.619 101.158 132.668C100.619 131.717 99.4264 131.391 98.4936 131.94C97.5609 132.489 97.2413 133.706 97.7799 134.657C98.3185 135.608 99.5112 135.934 100.444 135.385Z" fill="#A0A0A0"/>
<path d="M101.121 77.3136C102.592 76.4478 103.096 74.5302 102.246 73.0304C101.397 71.5307 99.5166 71.0168 98.0459 71.8825C96.5751 72.7483 96.0712 74.666 96.9205 76.1657C97.7697 77.6654 99.6504 78.1794 101.121 77.3136Z" fill="#A0A0A0"/>
<path d="M65.7384 168.26C67.2091 167.394 67.7129 165.476 66.8637 163.977C66.0145 162.477 64.1338 161.963 62.663 162.829C61.1923 163.695 60.6884 165.612 61.5376 167.112C62.3869 168.612 64.2676 169.126 65.7384 168.26Z" fill="#A0A0A0"/>
<path d="M255.347 143.278C273.082 151.116 274.532 135.054 285.691 135.501C295.707 135.846 297.922 145.821 297.922 145.821" stroke="#A0A0A0" stroke-width="2.91191" stroke-miterlimit="10"/>
<path d="M117.269 177.012C117.269 177.012 109.353 174.966 109.227 166.393C109.253 159.699 104.517 156.414 98.7847 155.492C91.5062 154.265 86.2904 150.923 86.0721 145.316" stroke="#626262" stroke-width="2.91191" stroke-miterlimit="10"/>
<path d="M216.822 276.887C216.822 276.887 211.614 270.473 216.47 263.475C220.364 258.085 218.44 252.583 214.345 248.391C209.178 243.021 206.899 237.185 209.966 232.526" stroke="#626262" stroke-width="2.91191" stroke-miterlimit="10"/>
<path d="M141.065 86.3798C138.889 88.2463 133.774 85.9316 131.823 80.0396C129.873 74.1477 121.373 73.6822 117.972 76.7634" stroke="#A0A0A0" stroke-width="2.91191" stroke-miterlimit="10"/>
<path d="M248.519 196.75C248.519 196.75 252.336 186.03 252.498 176.342L259.008 175.855C259.008 175.855 255.082 195.636 252.787 200.235L248.519 196.75V196.75Z" fill="#B3B3B3"/>
<path d="M85.4844 193.337C85.4844 193.337 98.3168 200.669 94.7108 209.631L100.607 205.758C100.607 205.758 98.2571 191.853 91.5511 189.766L85.4844 193.337Z" fill="#B3B3B3"/>
<path d="M179.675 46.7582C179.675 46.7582 185.454 49.9948 185.643 54.5101L195.171 52.5221C195.171 52.5221 190.131 43.6208 184.381 42.1775L179.675 46.7582Z" fill="#B3B3B3"/>
<path d="M229.867 214.993C229.867 214.993 242.7 222.325 239.094 231.287L244.99 227.414C244.99 227.414 242.64 213.509 235.934 211.422L229.867 214.993Z" fill="#B3B3B3"/>
<path d="M136.47 324.198C135.333 324.198 134.336 324.062 133.478 323.791C132.62 323.52 131.853 323.146 131.179 322.669C130.856 322.456 130.695 322.174 130.695 321.822C130.695 321.573 130.779 321.364 130.948 321.195C131.124 321.026 131.34 320.942 131.597 320.942C131.802 320.942 132.026 321.023 132.268 321.184C132.876 321.587 133.511 321.899 134.171 322.119C134.838 322.332 135.604 322.438 136.47 322.438C137.724 322.438 138.67 322.211 139.308 321.756C139.946 321.294 140.265 320.63 140.265 319.765C140.265 319.281 140.133 318.87 139.869 318.533C139.612 318.196 139.198 317.91 138.626 317.675C138.054 317.433 137.28 317.217 136.305 317.026C134.992 316.769 133.947 316.447 133.17 316.058C132.392 315.669 131.828 315.193 131.476 314.628C131.131 314.056 130.959 313.356 130.959 312.527C130.959 311.64 131.179 310.87 131.619 310.217C132.066 309.564 132.693 309.066 133.5 308.721C134.306 308.376 135.245 308.204 136.316 308.204C137.284 308.204 138.138 308.325 138.879 308.567C139.627 308.809 140.272 309.124 140.815 309.513C140.983 309.63 141.108 309.755 141.189 309.887C141.269 310.019 141.31 310.173 141.31 310.349C141.31 310.584 141.225 310.789 141.057 310.965C140.888 311.141 140.679 311.229 140.43 311.229C140.32 311.229 140.213 311.211 140.111 311.174C140.008 311.13 139.883 311.068 139.737 310.987C139.267 310.664 138.754 310.415 138.197 310.239C137.647 310.063 137.02 309.975 136.316 309.975C135.157 309.975 134.281 310.199 133.687 310.646C133.093 311.086 132.796 311.706 132.796 312.505C132.796 312.989 132.913 313.396 133.148 313.726C133.39 314.049 133.793 314.331 134.358 314.573C134.922 314.808 135.703 315.02 136.701 315.211C138.006 315.46 139.051 315.779 139.836 316.168C140.62 316.549 141.192 317.03 141.552 317.609C141.918 318.181 142.102 318.885 142.102 319.721C142.102 320.638 141.874 321.433 141.42 322.108C140.965 322.783 140.312 323.3 139.462 323.659C138.618 324.018 137.621 324.198 136.47 324.198ZM150.748 325.188C150.748 325.474 150.671 325.698 150.517 325.859C150.363 326.02 150.154 326.101 149.89 326.101C149.626 326.101 149.417 326.02 149.263 325.859C149.109 325.698 149.032 325.474 149.032 325.188V323.538C147.529 323.406 146.216 322.944 145.094 322.152C144.771 321.932 144.61 321.65 144.61 321.305C144.61 321.063 144.694 320.858 144.863 320.689C145.039 320.52 145.252 320.436 145.501 320.436C145.692 320.436 145.919 320.517 146.183 320.678C146.748 321.045 147.331 321.327 147.932 321.525C148.541 321.723 149.245 321.822 150.044 321.822C151.181 321.822 152.039 321.617 152.618 321.206C153.197 320.795 153.487 320.198 153.487 319.413C153.487 318.973 153.362 318.603 153.113 318.302C152.871 318.001 152.486 317.745 151.958 317.532C151.437 317.312 150.733 317.114 149.846 316.938C148.629 316.696 147.657 316.395 146.931 316.036C146.212 315.669 145.688 315.218 145.358 314.683C145.035 314.148 144.874 313.491 144.874 312.714C144.874 311.966 145.043 311.31 145.38 310.745C145.725 310.173 146.209 309.715 146.832 309.37C147.455 309.018 148.189 308.798 149.032 308.71V307.258C149.032 306.972 149.109 306.748 149.263 306.587C149.417 306.426 149.626 306.345 149.89 306.345C150.154 306.345 150.363 306.426 150.517 306.587C150.671 306.748 150.748 306.972 150.748 307.258V308.699C152.075 308.824 153.194 309.216 154.103 309.876C154.272 309.986 154.396 310.107 154.477 310.239C154.558 310.364 154.598 310.518 154.598 310.701C154.598 310.936 154.514 311.141 154.345 311.317C154.176 311.486 153.967 311.57 153.718 311.57C153.608 311.57 153.502 311.552 153.399 311.515C153.296 311.471 153.175 311.412 153.036 311.339C152.581 311.046 152.101 310.822 151.595 310.668C151.096 310.507 150.528 310.426 149.89 310.426C148.834 310.426 148.038 310.624 147.503 311.02C146.968 311.416 146.7 311.973 146.7 312.692C146.7 313.125 146.81 313.491 147.03 313.792C147.25 314.093 147.617 314.349 148.13 314.562C148.651 314.775 149.362 314.969 150.264 315.145C151.481 315.372 152.457 315.669 153.19 316.036C153.931 316.395 154.47 316.846 154.807 317.389C155.152 317.932 155.324 318.595 155.324 319.38C155.324 320.172 155.141 320.872 154.774 321.481C154.407 322.082 153.879 322.563 153.19 322.922C152.508 323.274 151.694 323.487 150.748 323.56V325.188ZM166.147 324C165.625 324 165.228 323.855 164.957 323.566C164.696 323.267 164.565 322.875 164.565 322.39C164.565 321.429 164.724 320.589 165.041 319.87C165.368 319.142 165.858 318.447 166.511 317.784C167.165 317.121 168.089 316.342 169.283 315.446C169.713 315.119 170.249 314.737 170.893 314.298C171.808 313.654 172.508 313.127 172.993 312.716C173.479 312.305 173.875 311.839 174.183 311.316C174.501 310.793 174.659 310.196 174.659 309.524C174.659 308.88 174.515 308.301 174.225 307.788C173.945 307.275 173.516 306.869 172.937 306.57C172.368 306.271 171.659 306.122 170.809 306.122C169.969 306.122 169.223 306.271 168.569 306.57C167.916 306.869 167.3 307.368 166.721 308.068C166.581 308.227 166.437 308.348 166.287 308.432C166.138 308.516 165.965 308.558 165.769 308.558C165.461 308.558 165.2 308.46 164.985 308.264C164.771 308.068 164.663 307.802 164.663 307.466C164.663 307.326 164.696 307.177 164.761 307.018C164.836 306.85 164.934 306.696 165.055 306.556C166.549 304.783 168.467 303.896 170.809 303.896C172.097 303.896 173.208 304.134 174.141 304.61C175.075 305.086 175.784 305.749 176.269 306.598C176.764 307.447 177.011 308.423 177.011 309.524C177.011 310.495 176.792 311.358 176.353 312.114C175.915 312.87 175.355 313.542 174.673 314.13C173.992 314.709 173.017 315.455 171.747 316.37L171.257 316.72C170.016 317.644 169.139 318.321 168.625 318.75C168.121 319.17 167.734 319.613 167.463 320.08C167.193 320.547 167.048 321.107 167.029 321.76H176.311C176.685 321.76 176.979 321.863 177.193 322.068C177.408 322.264 177.515 322.535 177.515 322.88C177.515 323.225 177.408 323.501 177.193 323.706C176.979 323.902 176.685 324 176.311 324H166.147ZM194.423 317.126C194.787 317.126 195.072 317.224 195.277 317.42C195.482 317.607 195.585 317.873 195.585 318.218C195.585 318.554 195.482 318.82 195.277 319.016C195.072 319.203 194.787 319.296 194.423 319.296H192.645V322.894C192.645 323.286 192.542 323.589 192.337 323.804C192.132 324.019 191.852 324.126 191.497 324.126C191.142 324.126 190.862 324.019 190.657 323.804C190.461 323.589 190.363 323.286 190.363 322.894V319.296H182.089C181.51 319.296 181.062 319.165 180.745 318.904C180.428 318.633 180.269 318.26 180.269 317.784C180.269 317.317 180.488 316.781 180.927 316.174L188.893 305.142C189.201 304.713 189.5 304.414 189.789 304.246C190.088 304.069 190.456 303.98 190.895 303.98C191.408 303.98 191.828 304.153 192.155 304.498C192.482 304.843 192.645 305.338 192.645 305.982V317.126H194.423ZM190.433 317.154V306.542L182.803 317.154H190.433ZM200.117 319.184C200.462 319.184 200.728 319.287 200.915 319.492C201.111 319.697 201.209 319.982 201.209 320.346V322.964C201.209 323.337 201.111 323.627 200.915 323.832C200.728 324.028 200.462 324.126 200.117 324.126C199.781 324.126 199.515 324.023 199.319 323.818C199.123 323.613 199.025 323.328 199.025 322.964V320.346C199.025 319.982 199.123 319.697 199.319 319.492C199.515 319.287 199.781 319.184 200.117 319.184ZM210.381 324.187C209.362 324.187 208.456 323.963 207.664 323.516C206.872 323.069 206.241 322.427 205.772 321.591C205.31 320.755 205.042 319.772 204.969 318.643C204.925 317.968 204.903 317.088 204.903 316.003C204.903 315.152 204.921 314.39 204.958 313.715C205.031 312.593 205.299 311.618 205.761 310.789C206.23 309.96 206.861 309.322 207.653 308.875C208.452 308.428 209.362 308.204 210.381 308.204C211.4 308.204 212.306 308.428 213.098 308.875C213.89 309.322 214.517 309.96 214.979 310.789C215.448 311.618 215.72 312.593 215.793 313.715C215.837 314.382 215.859 315.262 215.859 316.355C215.859 317.22 215.841 317.983 215.804 318.643C215.731 319.765 215.459 320.744 214.99 321.58C214.528 322.416 213.897 323.061 213.098 323.516C212.306 323.963 211.4 324.187 210.381 324.187ZM206.817 318.544C206.927 319.813 207.283 320.773 207.884 321.426C208.493 322.079 209.325 322.405 210.381 322.405C211.437 322.405 212.273 322.075 212.889 321.415C213.505 320.755 213.861 319.798 213.956 318.544C214 317.928 214.022 317.147 214.022 316.201C214.022 315.248 214 314.459 213.956 313.836C213.861 312.589 213.505 311.636 212.889 310.976C212.273 310.316 211.437 309.986 210.381 309.986C209.318 309.986 208.485 310.316 207.884 310.976C207.283 311.629 206.927 312.582 206.817 313.836C206.766 314.467 206.74 315.244 206.74 316.168C206.74 317.07 206.766 317.862 206.817 318.544ZM223.809 324.187C222.789 324.187 221.884 323.963 221.092 323.516C220.3 323.069 219.669 322.427 219.2 321.591C218.738 320.755 218.47 319.772 218.397 318.643C218.353 317.968 218.331 317.088 218.331 316.003C218.331 315.152 218.349 314.39 218.386 313.715C218.459 312.593 218.727 311.618 219.189 310.789C219.658 309.96 220.289 309.322 221.081 308.875C221.88 308.428 222.789 308.204 223.809 308.204C224.828 308.204 225.734 308.428 226.526 308.875C227.318 309.322 227.945 309.96 228.407 310.789C228.876 311.618 229.147 312.593 229.221 313.715C229.265 314.382 229.287 315.262 229.287 316.355C229.287 317.22 229.268 317.983 229.232 318.643C229.158 319.765 228.887 320.744 228.418 321.58C227.956 322.416 227.325 323.061 226.526 323.516C225.734 323.963 224.828 324.187 223.809 324.187ZM220.245 318.544C220.355 319.813 220.71 320.773 221.312 321.426C221.92 322.079 222.753 322.405 223.809 322.405C224.865 322.405 225.701 322.075 226.317 321.415C226.933 320.755 227.288 319.798 227.384 318.544C227.428 317.928 227.45 317.147 227.45 316.201C227.45 315.248 227.428 314.459 227.384 313.836C227.288 312.589 226.933 311.636 226.317 310.976C225.701 310.316 224.865 309.986 223.809 309.986C222.745 309.986 221.913 310.316 221.312 310.976C220.71 311.629 220.355 312.582 220.245 313.836C220.193 314.467 220.168 315.244 220.168 316.168C220.168 317.07 220.193 317.862 220.245 318.544Z" fill="#0B3C58"/>
<path d="M163.874 352C163.517 352 163.242 351.907 163.05 351.72C162.863 351.528 162.77 351.253 162.77 350.896V341.76C162.77 341.403 162.863 341.131 163.05 340.944C163.242 340.752 163.517 340.656 163.874 340.656H166.65C167.626 340.656 168.479 340.845 169.21 341.224C169.941 341.603 170.514 342.123 170.93 342.784C171.346 343.445 171.586 344.192 171.65 345.024C171.682 345.445 171.698 345.88 171.698 346.328C171.698 346.776 171.682 347.213 171.65 347.64C171.586 348.467 171.346 349.211 170.93 349.872C170.514 350.528 169.938 351.048 169.202 351.432C168.471 351.811 167.621 352 166.65 352H163.874ZM166.634 350.712C167.375 350.712 168.01 350.579 168.538 350.312C169.071 350.045 169.485 349.677 169.778 349.208C170.071 348.733 170.242 348.189 170.29 347.576C170.327 347.187 170.346 346.771 170.346 346.328C170.346 345.88 170.327 345.467 170.29 345.088C170.237 344.469 170.063 343.925 169.77 343.456C169.482 342.981 169.071 342.611 168.538 342.344C168.01 342.077 167.375 341.944 166.634 341.944H164.114V350.712H166.634ZM176.781 352.144C176.136 352.144 175.573 352.032 175.093 351.808C174.619 351.584 174.253 351.269 173.997 350.864C173.741 350.459 173.613 349.992 173.613 349.464C173.613 349 173.733 348.573 173.973 348.184C174.219 347.789 174.581 347.475 175.061 347.24C175.541 347.005 176.12 346.888 176.797 346.888C177.181 346.888 177.547 346.915 177.893 346.968C178.24 347.016 178.624 347.101 179.045 347.224V346.472C179.045 345.864 178.883 345.419 178.557 345.136C178.232 344.848 177.72 344.704 177.021 344.704C176.712 344.704 176.397 344.741 176.077 344.816C175.763 344.885 175.491 344.968 175.261 345.064C175.064 345.155 174.896 345.2 174.757 345.2C174.597 345.2 174.461 345.144 174.349 345.032C174.243 344.915 174.189 344.771 174.189 344.6C174.189 344.456 174.232 344.336 174.317 344.24C174.403 344.139 174.541 344.048 174.733 343.968C175.032 343.835 175.395 343.72 175.821 343.624C176.253 343.528 176.693 343.48 177.141 343.48C178.16 343.48 178.941 343.728 179.485 344.224C180.035 344.715 180.309 345.461 180.309 346.464V350.736C180.309 350.875 180.291 350.981 180.253 351.056C180.221 351.125 180.155 351.195 180.053 351.264C179.749 351.477 179.304 351.677 178.717 351.864C178.136 352.051 177.491 352.144 176.781 352.144ZM174.877 349.472C174.877 349.952 175.056 350.325 175.413 350.592C175.771 350.853 176.275 350.984 176.925 350.984C177.288 350.984 177.656 350.936 178.029 350.84C178.403 350.739 178.741 350.608 179.045 350.448V348.304C178.629 348.181 178.259 348.093 177.933 348.04C177.608 347.987 177.272 347.96 176.925 347.96C176.253 347.96 175.744 348.099 175.397 348.376C175.051 348.653 174.877 349.019 174.877 349.472ZM183.719 340.544C183.964 340.544 184.167 340.624 184.327 340.784C184.487 340.944 184.567 341.144 184.567 341.384C184.567 341.629 184.487 341.835 184.327 342C184.167 342.16 183.964 342.24 183.719 342.24C183.484 342.24 183.287 342.16 183.127 342C182.967 341.835 182.887 341.629 182.887 341.384C182.887 341.144 182.967 340.944 183.127 340.784C183.287 340.624 183.484 340.544 183.719 340.544ZM183.079 344.24C183.079 344.021 183.135 343.853 183.247 343.736C183.364 343.613 183.524 343.552 183.727 343.552C183.93 343.552 184.087 343.613 184.199 343.736C184.316 343.853 184.375 344.021 184.375 344.24V351.384C184.375 351.603 184.316 351.773 184.199 351.896C184.087 352.013 183.93 352.072 183.727 352.072C183.524 352.072 183.364 352.013 183.247 351.896C183.135 351.773 183.079 351.603 183.079 351.384V344.24ZM187.99 352.072C187.787 352.072 187.627 352.013 187.51 351.896C187.398 351.773 187.342 351.603 187.342 351.384V341.176C187.342 340.957 187.398 340.789 187.51 340.672C187.627 340.549 187.787 340.488 187.99 340.488C188.192 340.488 188.35 340.549 188.462 340.672C188.579 340.789 188.638 340.957 188.638 341.176V351.384C188.638 351.603 188.579 351.773 188.462 351.896C188.35 352.013 188.192 352.072 187.99 352.072ZM192.436 354.92C192.255 354.92 192.1 354.859 191.972 354.736C191.85 354.619 191.788 354.469 191.788 354.288C191.788 354.048 191.927 353.848 192.204 353.688C192.908 353.299 193.482 352.555 193.924 351.456L190.916 344.672C190.82 344.464 190.772 344.296 190.772 344.168C190.772 343.987 190.836 343.84 190.964 343.728C191.092 343.611 191.247 343.552 191.428 343.552C191.588 343.552 191.722 343.595 191.828 343.68C191.935 343.76 192.023 343.891 192.092 344.072L194.564 349.88C194.575 349.912 194.586 349.933 194.596 349.944C194.607 349.955 194.62 349.96 194.636 349.96C194.658 349.96 194.674 349.955 194.684 349.944C194.695 349.933 194.706 349.912 194.716 349.88L197.004 344.04C197.127 343.715 197.338 343.552 197.636 343.552C197.818 343.552 197.972 343.611 198.1 343.728C198.228 343.84 198.292 343.984 198.292 344.16C198.292 344.277 198.255 344.429 198.18 344.616L195.268 351.672C194.975 352.381 194.634 352.997 194.244 353.52C193.86 354.048 193.466 354.443 193.06 354.704C192.959 354.779 192.86 354.832 192.764 354.864C192.668 354.901 192.559 354.92 192.436 354.92Z" fill="#0B3C58"/>
<path d="M103.259 428.324C101.399 428.324 99.7665 428.102 98.3625 427.658C96.9585 427.214 95.7045 426.602 94.6005 425.822C94.0725 425.474 93.8085 425.012 93.8085 424.436C93.8085 424.028 93.9465 423.686 94.2225 423.41C94.5105 423.134 94.8645 422.996 95.2845 422.996C95.6205 422.996 95.9865 423.128 96.3825 423.392C97.3785 424.052 98.4165 424.562 99.4965 424.922C100.589 425.27 101.843 425.444 103.259 425.444C105.311 425.444 106.859 425.072 107.903 424.328C108.947 423.572 109.469 422.486 109.469 421.07C109.469 420.278 109.253 419.606 108.821 419.054C108.401 418.502 107.723 418.034 106.787 417.65C105.851 417.254 104.585 416.9 102.989 416.588C100.841 416.168 99.1305 415.64 97.8585 415.004C96.5865 414.368 95.6625 413.588 95.0865 412.664C94.5225 411.728 94.2405 410.582 94.2405 409.226C94.2405 407.774 94.6005 406.514 95.3205 405.446C96.0525 404.378 97.0785 403.562 98.3985 402.998C99.7185 402.434 101.255 402.152 103.007 402.152C104.591 402.152 105.989 402.35 107.201 402.746C108.425 403.142 109.481 403.658 110.369 404.294C110.645 404.486 110.849 404.69 110.981 404.906C111.113 405.122 111.179 405.374 111.179 405.662C111.179 406.046 111.041 406.382 110.765 406.67C110.489 406.958 110.147 407.102 109.739 407.102C109.559 407.102 109.385 407.072 109.217 407.012C109.049 406.94 108.845 406.838 108.605 406.706C107.837 406.178 106.997 405.77 106.085 405.482C105.185 405.194 104.159 405.05 103.007 405.05C101.111 405.05 99.6765 405.416 98.7045 406.148C97.7325 406.868 97.2465 407.882 97.2465 409.19C97.2465 409.982 97.4385 410.648 97.8225 411.188C98.2185 411.716 98.8785 412.178 99.8025 412.574C100.727 412.958 102.005 413.306 103.637 413.618C105.773 414.026 107.483 414.548 108.767 415.184C110.051 415.808 110.987 416.594 111.575 417.542C112.175 418.478 112.475 419.63 112.475 420.998C112.475 422.498 112.103 423.8 111.359 424.904C110.615 426.008 109.547 426.854 108.155 427.442C106.775 428.03 105.143 428.324 103.259 428.324ZM119.425 416.3C119.365 417.08 119.335 417.836 119.335 418.568C119.335 419.312 119.365 420.074 119.425 420.854C119.557 422.27 120.073 423.398 120.973 424.238C121.873 425.066 123.091 425.48 124.627 425.48C125.683 425.48 126.607 425.21 127.399 424.67C128.191 424.13 128.791 423.404 129.199 422.492C129.223 422.456 129.289 422.348 129.397 422.168C129.505 421.976 129.661 421.82 129.865 421.7C130.069 421.58 130.309 421.52 130.585 421.52C130.981 421.52 131.305 421.652 131.557 421.916C131.821 422.168 131.953 422.492 131.953 422.888C131.953 423.092 131.917 423.314 131.845 423.554C131.773 423.782 131.659 424.064 131.503 424.4C130.927 425.576 130.033 426.524 128.821 427.244C127.621 427.964 126.211 428.324 124.591 428.324C123.079 428.324 121.735 428.024 120.559 427.424C119.395 426.824 118.465 425.984 117.769 424.904C117.085 423.824 116.671 422.576 116.527 421.16C116.455 420.452 116.419 419.594 116.419 418.586C116.419 417.566 116.455 416.708 116.527 416.012C116.659 414.596 117.073 413.348 117.769 412.268C118.465 411.176 119.395 410.33 120.559 409.73C121.735 409.13 123.079 408.83 124.591 408.83C126.211 408.83 127.627 409.196 128.839 409.928C130.051 410.648 130.939 411.596 131.503 412.772C131.803 413.384 131.953 413.882 131.953 414.266C131.953 414.662 131.821 414.992 131.557 415.256C131.305 415.508 130.981 415.634 130.585 415.634C130.321 415.634 130.099 415.586 129.919 415.49C129.751 415.382 129.625 415.274 129.541 415.166C129.457 415.058 129.343 414.89 129.199 414.662C128.251 412.682 126.727 411.692 124.627 411.692C123.103 411.692 121.885 412.112 120.973 412.952C120.073 413.78 119.557 414.896 119.425 416.3ZM145.524 408.83C146.904 408.83 148.116 409.106 149.16 409.658C150.204 410.21 151.014 411.026 151.59 412.106C152.178 413.174 152.472 414.47 152.472 415.994V426.488C152.472 426.98 152.34 427.364 152.076 427.64C151.824 427.904 151.47 428.036 151.014 428.036C150.558 428.036 150.198 427.904 149.934 427.64C149.682 427.364 149.556 426.98 149.556 426.488V416.372C149.556 414.884 149.178 413.732 148.422 412.916C147.666 412.1 146.568 411.692 145.128 411.692C144.096 411.692 143.094 411.962 142.122 412.502C141.15 413.042 140.352 413.714 139.728 414.518V426.488C139.728 426.98 139.596 427.364 139.332 427.64C139.08 427.904 138.726 428.036 138.27 428.036C137.814 428.036 137.454 427.904 137.19 427.64C136.938 427.364 136.812 426.98 136.812 426.488V403.646C136.812 403.154 136.938 402.776 137.19 402.512C137.454 402.236 137.814 402.098 138.27 402.098C138.726 402.098 139.08 402.236 139.332 402.512C139.596 402.776 139.728 403.154 139.728 403.646V411.26C140.436 410.54 141.3 409.958 142.32 409.514C143.352 409.058 144.42 408.83 145.524 408.83ZM165.922 428.324C164.386 428.324 163.018 428.024 161.818 427.424C160.618 426.812 159.658 425.96 158.938 424.868C158.218 423.764 157.786 422.498 157.642 421.07C157.57 420.35 157.534 419.486 157.534 418.478C157.534 417.698 157.564 416.966 157.624 416.282C157.756 414.83 158.176 413.546 158.884 412.43C159.604 411.314 160.552 410.444 161.728 409.82C162.904 409.196 164.242 408.884 165.742 408.884C167.326 408.884 168.694 409.208 169.846 409.856C171.01 410.504 171.898 411.41 172.51 412.574C173.134 413.738 173.446 415.076 173.446 416.588V417.812C173.446 418.4 173.398 418.826 173.302 419.09C173.206 419.354 173.032 419.534 172.78 419.63C172.528 419.726 172.126 419.774 171.574 419.774H160.396C160.396 420.146 160.414 420.512 160.45 420.872C160.522 421.808 160.792 422.636 161.26 423.356C161.728 424.064 162.364 424.616 163.168 425.012C163.972 425.396 164.902 425.588 165.958 425.588C167.434 425.588 168.856 425.3 170.224 424.724C170.332 424.676 170.47 424.622 170.638 424.562C170.806 424.49 170.95 424.442 171.07 424.418C171.19 424.382 171.316 424.364 171.448 424.364C171.808 424.364 172.102 424.484 172.33 424.724C172.558 424.952 172.672 425.258 172.672 425.642C172.672 426.242 172.264 426.74 171.448 427.136C169.804 427.928 167.962 428.324 165.922 428.324ZM170.656 417.434C170.68 417.098 170.692 416.858 170.692 416.714C170.692 415.622 170.482 414.692 170.062 413.924C169.654 413.144 169.072 412.556 168.316 412.16C167.56 411.752 166.684 411.548 165.688 411.548C164.704 411.548 163.828 411.758 163.06 412.178C162.304 412.586 161.698 413.162 161.242 413.906C160.786 414.65 160.522 415.508 160.45 416.48L160.396 417.434H170.656ZM192.115 402.098C192.571 402.098 192.925 402.236 193.177 402.512C193.441 402.776 193.573 403.154 193.573 403.646V425.102C193.573 425.426 193.525 425.684 193.429 425.876C193.333 426.068 193.177 426.236 192.961 426.38C192.205 426.86 191.167 427.304 189.847 427.712C188.539 428.12 187.195 428.324 185.815 428.324C184.291 428.324 182.947 428.024 181.783 427.424C180.619 426.824 179.695 425.99 179.011 424.922C178.327 423.842 177.913 422.594 177.769 421.178C177.709 420.362 177.679 419.498 177.679 418.586C177.679 417.662 177.709 416.798 177.769 415.994C177.913 414.578 178.321 413.33 178.993 412.25C179.677 411.17 180.589 410.33 181.729 409.73C182.869 409.13 184.177 408.83 185.653 408.83C186.553 408.83 187.447 408.932 188.335 409.136C189.223 409.34 189.997 409.61 190.657 409.946V403.646C190.657 403.154 190.783 402.776 191.035 402.512C191.299 402.236 191.659 402.098 192.115 402.098ZM180.685 420.836C180.817 422.264 181.327 423.398 182.215 424.238C183.115 425.066 184.333 425.48 185.869 425.48C186.709 425.48 187.591 425.36 188.515 425.12C189.439 424.88 190.153 424.58 190.657 424.22V412.934C190.153 412.574 189.433 412.28 188.497 412.052C187.573 411.812 186.697 411.692 185.869 411.692C184.333 411.692 183.121 412.106 182.233 412.934C181.345 413.762 180.829 414.89 180.685 416.318C180.613 417.002 180.577 417.734 180.577 418.514C180.577 419.354 180.613 420.128 180.685 420.836ZM207.179 428.324C205.523 428.324 204.113 428.03 202.949 427.442C201.785 426.842 200.903 425.978 200.303 424.85C199.703 423.722 199.403 422.372 199.403 420.8V410.54C199.403 410.048 199.529 409.67 199.781 409.406C200.045 409.13 200.405 408.992 200.861 408.992C201.317 408.992 201.671 409.13 201.923 409.406C202.187 409.67 202.319 410.048 202.319 410.54V420.566C202.319 423.842 203.939 425.48 207.179 425.48C208.079 425.48 208.961 425.366 209.825 425.138C210.701 424.898 211.427 424.598 212.003 424.238V410.54C212.003 410.048 212.129 409.67 212.381 409.406C212.645 409.13 213.005 408.992 213.461 408.992C213.917 408.992 214.271 409.13 214.523 409.406C214.787 409.67 214.919 410.048 214.919 410.54V424.868C214.919 425.3 214.853 425.636 214.721 425.876C214.601 426.104 214.373 426.314 214.037 426.506C213.305 426.962 212.321 427.382 211.085 427.766C209.861 428.138 208.559 428.324 207.179 428.324ZM222.418 428.162C221.962 428.162 221.602 428.03 221.338 427.766C221.086 427.49 220.96 427.106 220.96 426.614V403.646C220.96 403.154 221.086 402.776 221.338 402.512C221.602 402.236 221.962 402.098 222.418 402.098C222.874 402.098 223.228 402.236 223.48 402.512C223.744 402.776 223.876 403.154 223.876 403.646V426.614C223.876 427.106 223.744 427.49 223.48 427.766C223.228 428.03 222.874 428.162 222.418 428.162ZM237.57 428.324C236.034 428.324 234.666 428.024 233.466 427.424C232.266 426.812 231.306 425.96 230.586 424.868C229.866 423.764 229.434 422.498 229.29 421.07C229.218 420.35 229.182 419.486 229.182 418.478C229.182 417.698 229.212 416.966 229.272 416.282C229.404 414.83 229.824 413.546 230.532 412.43C231.252 411.314 232.2 410.444 233.376 409.82C234.552 409.196 235.89 408.884 237.39 408.884C238.974 408.884 240.342 409.208 241.494 409.856C242.658 410.504 243.546 411.41 244.158 412.574C244.782 413.738 245.094 415.076 245.094 416.588V417.812C245.094 418.4 245.046 418.826 244.95 419.09C244.854 419.354 244.68 419.534 244.428 419.63C244.176 419.726 243.774 419.774 243.222 419.774H232.044C232.044 420.146 232.062 420.512 232.098 420.872C232.17 421.808 232.44 422.636 232.908 423.356C233.376 424.064 234.012 424.616 234.816 425.012C235.62 425.396 236.55 425.588 237.606 425.588C239.082 425.588 240.504 425.3 241.872 424.724C241.98 424.676 242.118 424.622 242.286 424.562C242.454 424.49 242.598 424.442 242.718 424.418C242.838 424.382 242.964 424.364 243.096 424.364C243.456 424.364 243.75 424.484 243.978 424.724C244.206 424.952 244.32 425.258 244.32 425.642C244.32 426.242 243.912 426.74 243.096 427.136C241.452 427.928 239.61 428.324 237.57 428.324ZM242.304 417.434C242.328 417.098 242.34 416.858 242.34 416.714C242.34 415.622 242.13 414.692 241.71 413.924C241.302 413.144 240.72 412.556 239.964 412.16C239.208 411.752 238.332 411.548 237.336 411.548C236.352 411.548 235.476 411.758 234.708 412.178C233.952 412.586 233.346 413.162 232.89 413.906C232.434 414.65 232.17 415.508 232.098 416.48L232.044 417.434H242.304ZM263.764 402.098C264.22 402.098 264.574 402.236 264.826 402.512C265.09 402.776 265.222 403.154 265.222 403.646V425.102C265.222 425.426 265.174 425.684 265.078 425.876C264.982 426.068 264.826 426.236 264.61 426.38C263.854 426.86 262.816 427.304 261.496 427.712C260.188 428.12 258.844 428.324 257.464 428.324C255.94 428.324 254.596 428.024 253.432 427.424C252.268 426.824 251.344 425.99 250.66 424.922C249.976 423.842 249.562 422.594 249.418 421.178C249.358 420.362 249.328 419.498 249.328 418.586C249.328 417.662 249.358 416.798 249.418 415.994C249.562 414.578 249.97 413.33 250.642 412.25C251.326 411.17 252.238 410.33 253.378 409.73C254.518 409.13 255.826 408.83 257.302 408.83C258.202 408.83 259.096 408.932 259.984 409.136C260.872 409.34 261.646 409.61 262.306 409.946V403.646C262.306 403.154 262.432 402.776 262.684 402.512C262.948 402.236 263.308 402.098 263.764 402.098ZM252.334 420.836C252.466 422.264 252.976 423.398 253.864 424.238C254.764 425.066 255.982 425.48 257.518 425.48C258.358 425.48 259.24 425.36 260.164 425.12C261.088 424.88 261.802 424.58 262.306 424.22V412.934C261.802 412.574 261.082 412.28 260.146 412.052C259.222 411.812 258.346 411.692 257.518 411.692C255.982 411.692 254.77 412.106 253.882 412.934C252.994 413.762 252.478 414.89 252.334 416.318C252.262 417.002 252.226 417.734 252.226 418.514C252.226 419.354 252.262 420.128 252.334 420.836ZM81.2507 474.324C79.3907 474.324 77.7587 474.102 76.3547 473.658C74.9507 473.214 73.6967 472.602 72.5927 471.822C72.0647 471.474 71.8007 471.012 71.8007 470.436C71.8007 470.028 71.9387 469.686 72.2147 469.41C72.5027 469.134 72.8567 468.996 73.2767 468.996C73.6127 468.996 73.9787 469.128 74.3747 469.392C75.3707 470.052 76.4087 470.562 77.4887 470.922C78.5807 471.27 79.8347 471.444 81.2507 471.444C83.3027 471.444 84.8507 471.072 85.8947 470.328C86.9387 469.572 87.4607 468.486 87.4607 467.07C87.4607 466.278 87.2447 465.606 86.8127 465.054C86.3927 464.502 85.7147 464.034 84.7787 463.65C83.8427 463.254 82.5767 462.9 80.9807 462.588C78.8327 462.168 77.1227 461.64 75.8507 461.004C74.5787 460.368 73.6547 459.588 73.0787 458.664C72.5147 457.728 72.2327 456.582 72.2327 455.226C72.2327 453.774 72.5927 452.514 73.3127 451.446C74.0447 450.378 75.0707 449.562 76.3907 448.998C77.7107 448.434 79.2467 448.152 80.9987 448.152C82.5827 448.152 83.9807 448.35 85.1927 448.746C86.4167 449.142 87.4727 449.658 88.3607 450.294C88.6367 450.486 88.8407 450.69 88.9727 450.906C89.1047 451.122 89.1707 451.374 89.1707 451.662C89.1707 452.046 89.0327 452.382 88.7567 452.67C88.4807 452.958 88.1387 453.102 87.7307 453.102C87.5507 453.102 87.3767 453.072 87.2087 453.012C87.0407 452.94 86.8367 452.838 86.5967 452.706C85.8287 452.178 84.9887 451.77 84.0767 451.482C83.1767 451.194 82.1507 451.05 80.9987 451.05C79.1027 451.05 77.6687 451.416 76.6967 452.148C75.7247 452.868 75.2387 453.882 75.2387 455.19C75.2387 455.982 75.4307 456.648 75.8147 457.188C76.2107 457.716 76.8707 458.178 77.7947 458.574C78.7187 458.958 79.9967 459.306 81.6287 459.618C83.7647 460.026 85.4747 460.548 86.7587 461.184C88.0427 461.808 88.9787 462.594 89.5667 463.542C90.1667 464.478 90.4667 465.63 90.4667 466.998C90.4667 468.498 90.0947 469.8 89.3507 470.904C88.6067 472.008 87.5387 472.854 86.1467 473.442C84.7667 474.03 83.1347 474.324 81.2507 474.324ZM102.835 474.324C101.179 474.324 99.7693 474.03 98.6053 473.442C97.4413 472.842 96.5593 471.978 95.9593 470.85C95.3593 469.722 95.0593 468.372 95.0593 466.8V456.54C95.0593 456.048 95.1853 455.67 95.4373 455.406C95.7013 455.13 96.0613 454.992 96.5173 454.992C96.9733 454.992 97.3273 455.13 97.5793 455.406C97.8433 455.67 97.9753 456.048 97.9753 456.54V466.566C97.9753 469.842 99.5953 471.48 102.835 471.48C103.735 471.48 104.617 471.366 105.481 471.138C106.357 470.898 107.083 470.598 107.659 470.238V456.54C107.659 456.048 107.785 455.67 108.037 455.406C108.301 455.13 108.661 454.992 109.117 454.992C109.573 454.992 109.927 455.13 110.179 455.406C110.443 455.67 110.575 456.048 110.575 456.54V470.868C110.575 471.3 110.509 471.636 110.377 471.876C110.257 472.104 110.029 472.314 109.693 472.506C108.961 472.962 107.977 473.382 106.741 473.766C105.517 474.138 104.215 474.324 102.835 474.324ZM118.722 462.3C118.662 463.08 118.632 463.836 118.632 464.568C118.632 465.312 118.662 466.074 118.722 466.854C118.854 468.27 119.37 469.398 120.27 470.238C121.17 471.066 122.388 471.48 123.924 471.48C124.98 471.48 125.904 471.21 126.696 470.67C127.488 470.13 128.088 469.404 128.496 468.492C128.52 468.456 128.586 468.348 128.694 468.168C128.802 467.976 128.958 467.82 129.162 467.7C129.366 467.58 129.606 467.52 129.882 467.52C130.278 467.52 130.602 467.652 130.854 467.916C131.118 468.168 131.25 468.492 131.25 468.888C131.25 469.092 131.214 469.314 131.142 469.554C131.07 469.782 130.956 470.064 130.8 470.4C130.224 471.576 129.33 472.524 128.118 473.244C126.918 473.964 125.508 474.324 123.888 474.324C122.376 474.324 121.032 474.024 119.856 473.424C118.692 472.824 117.762 471.984 117.066 470.904C116.382 469.824 115.968 468.576 115.824 467.16C115.752 466.452 115.716 465.594 115.716 464.586C115.716 463.566 115.752 462.708 115.824 462.012C115.956 460.596 116.37 459.348 117.066 458.268C117.762 457.176 118.692 456.33 119.856 455.73C121.032 455.13 122.376 454.83 123.888 454.83C125.508 454.83 126.924 455.196 128.136 455.928C129.348 456.648 130.236 457.596 130.8 458.772C131.1 459.384 131.25 459.882 131.25 460.266C131.25 460.662 131.118 460.992 130.854 461.256C130.602 461.508 130.278 461.634 129.882 461.634C129.618 461.634 129.396 461.586 129.216 461.49C129.048 461.382 128.922 461.274 128.838 461.166C128.754 461.058 128.64 460.89 128.496 460.662C127.548 458.682 126.024 457.692 123.924 457.692C122.4 457.692 121.182 458.112 120.27 458.952C119.37 459.78 118.854 460.896 118.722 462.3ZM138.269 462.3C138.209 463.08 138.179 463.836 138.179 464.568C138.179 465.312 138.209 466.074 138.269 466.854C138.401 468.27 138.917 469.398 139.817 470.238C140.717 471.066 141.935 471.48 143.471 471.48C144.527 471.48 145.451 471.21 146.243 470.67C147.035 470.13 147.635 469.404 148.043 468.492C148.067 468.456 148.133 468.348 148.241 468.168C148.349 467.976 148.505 467.82 148.709 467.7C148.913 467.58 149.153 467.52 149.429 467.52C149.825 467.52 150.149 467.652 150.401 467.916C150.665 468.168 150.797 468.492 150.797 468.888C150.797 469.092 150.761 469.314 150.689 469.554C150.617 469.782 150.503 470.064 150.347 470.4C149.771 471.576 148.877 472.524 147.665 473.244C146.465 473.964 145.055 474.324 143.435 474.324C141.923 474.324 140.579 474.024 139.403 473.424C138.239 472.824 137.309 471.984 136.613 470.904C135.929 469.824 135.515 468.576 135.371 467.16C135.299 466.452 135.263 465.594 135.263 464.586C135.263 463.566 135.299 462.708 135.371 462.012C135.503 460.596 135.917 459.348 136.613 458.268C137.309 457.176 138.239 456.33 139.403 455.73C140.579 455.13 141.923 454.83 143.435 454.83C145.055 454.83 146.471 455.196 147.683 455.928C148.895 456.648 149.783 457.596 150.347 458.772C150.647 459.384 150.797 459.882 150.797 460.266C150.797 460.662 150.665 460.992 150.401 461.256C150.149 461.508 149.825 461.634 149.429 461.634C149.165 461.634 148.943 461.586 148.763 461.49C148.595 461.382 148.469 461.274 148.385 461.166C148.301 461.058 148.187 460.89 148.043 460.662C147.095 458.682 145.571 457.692 143.471 457.692C141.947 457.692 140.729 458.112 139.817 458.952C138.917 459.78 138.401 460.896 138.269 462.3ZM163.18 474.324C161.644 474.324 160.276 474.024 159.076 473.424C157.876 472.812 156.916 471.96 156.196 470.868C155.476 469.764 155.044 468.498 154.9 467.07C154.828 466.35 154.792 465.486 154.792 464.478C154.792 463.698 154.822 462.966 154.882 462.282C155.014 460.83 155.434 459.546 156.142 458.43C156.862 457.314 157.81 456.444 158.986 455.82C160.162 455.196 161.5 454.884 163 454.884C164.584 454.884 165.952 455.208 167.104 455.856C168.268 456.504 169.156 457.41 169.768 458.574C170.392 459.738 170.704 461.076 170.704 462.588V463.812C170.704 464.4 170.656 464.826 170.56 465.09C170.464 465.354 170.29 465.534 170.038 465.63C169.786 465.726 169.384 465.774 168.832 465.774H157.654C157.654 466.146 157.672 466.512 157.708 466.872C157.78 467.808 158.05 468.636 158.518 469.356C158.986 470.064 159.622 470.616 160.426 471.012C161.23 471.396 162.16 471.588 163.216 471.588C164.692 471.588 166.114 471.3 167.482 470.724C167.59 470.676 167.728 470.622 167.896 470.562C168.064 470.49 168.208 470.442 168.328 470.418C168.448 470.382 168.574 470.364 168.706 470.364C169.066 470.364 169.36 470.484 169.588 470.724C169.816 470.952 169.93 471.258 169.93 471.642C169.93 472.242 169.522 472.74 168.706 473.136C167.062 473.928 165.22 474.324 163.18 474.324ZM167.914 463.434C167.938 463.098 167.95 462.858 167.95 462.714C167.95 461.622 167.74 460.692 167.32 459.924C166.912 459.144 166.33 458.556 165.574 458.16C164.818 457.752 163.942 457.548 162.946 457.548C161.962 457.548 161.086 457.758 160.318 458.178C159.562 458.586 158.956 459.162 158.5 459.906C158.044 460.65 157.78 461.508 157.708 462.48L157.654 463.434H167.914ZM188.419 468.582C188.419 469.746 188.137 470.76 187.573 471.624C187.021 472.488 186.235 473.154 185.215 473.622C184.207 474.09 183.031 474.324 181.687 474.324C180.343 474.324 179.131 474.162 178.051 473.838C176.971 473.502 176.047 473.022 175.279 472.398C174.775 472.026 174.523 471.582 174.523 471.066C174.523 470.742 174.637 470.442 174.865 470.166C175.105 469.89 175.411 469.752 175.783 469.752C176.119 469.752 176.485 469.89 176.881 470.166C177.445 470.598 178.111 470.946 178.879 471.21C179.647 471.462 180.589 471.588 181.705 471.588C182.965 471.588 183.919 471.324 184.567 470.796C185.215 470.268 185.539 469.566 185.539 468.69C185.539 468.018 185.317 467.472 184.873 467.052C184.429 466.632 183.703 466.308 182.695 466.08L179.887 465.396C178.339 465.036 177.139 464.436 176.287 463.596C175.447 462.756 175.027 461.682 175.027 460.374C175.027 459.258 175.303 458.28 175.855 457.44C176.419 456.6 177.199 455.958 178.195 455.514C179.191 455.058 180.331 454.83 181.615 454.83C182.755 454.83 183.775 454.986 184.675 455.298C185.587 455.61 186.331 455.982 186.907 456.414C187.195 456.63 187.399 456.84 187.519 457.044C187.639 457.248 187.699 457.488 187.699 457.764C187.699 458.124 187.579 458.448 187.339 458.736C187.099 459.024 186.793 459.168 186.421 459.168C186.205 459.168 186.007 459.132 185.827 459.06C185.659 458.988 185.455 458.874 185.215 458.718C184.819 458.406 184.309 458.142 183.685 457.926C183.061 457.698 182.395 457.584 181.687 457.584C180.451 457.584 179.503 457.818 178.843 458.286C178.195 458.754 177.871 459.426 177.871 460.302C177.871 460.902 178.081 461.406 178.501 461.814C178.933 462.222 179.665 462.546 180.697 462.786L183.361 463.398C186.733 464.19 188.419 465.918 188.419 468.582ZM205.997 468.582C205.997 469.746 205.715 470.76 205.151 471.624C204.599 472.488 203.813 473.154 202.793 473.622C201.785 474.09 200.609 474.324 199.265 474.324C197.921 474.324 196.709 474.162 195.629 473.838C194.549 473.502 193.625 473.022 192.857 472.398C192.353 472.026 192.101 471.582 192.101 471.066C192.101 470.742 192.215 470.442 192.443 470.166C192.683 469.89 192.989 469.752 193.361 469.752C193.697 469.752 194.063 469.89 194.459 470.166C195.023 470.598 195.689 470.946 196.457 471.21C197.225 471.462 198.167 471.588 199.283 471.588C200.543 471.588 201.497 471.324 202.145 470.796C202.793 470.268 203.117 469.566 203.117 468.69C203.117 468.018 202.895 467.472 202.451 467.052C202.007 466.632 201.281 466.308 200.273 466.08L197.465 465.396C195.917 465.036 194.717 464.436 193.865 463.596C193.025 462.756 192.605 461.682 192.605 460.374C192.605 459.258 192.881 458.28 193.433 457.44C193.997 456.6 194.777 455.958 195.773 455.514C196.769 455.058 197.909 454.83 199.193 454.83C200.333 454.83 201.353 454.986 202.253 455.298C203.165 455.61 203.909 455.982 204.485 456.414C204.773 456.63 204.977 456.84 205.097 457.044C205.217 457.248 205.277 457.488 205.277 457.764C205.277 458.124 205.157 458.448 204.917 458.736C204.677 459.024 204.371 459.168 203.999 459.168C203.783 459.168 203.585 459.132 203.405 459.06C203.237 458.988 203.033 458.874 202.793 458.718C202.397 458.406 201.887 458.142 201.263 457.926C200.639 457.698 199.973 457.584 199.265 457.584C198.029 457.584 197.081 457.818 196.421 458.286C195.773 458.754 195.449 459.426 195.449 460.302C195.449 460.902 195.659 461.406 196.079 461.814C196.511 462.222 197.243 462.546 198.275 462.786L200.939 463.398C204.311 464.19 205.997 465.918 205.997 468.582ZM213.297 474.162C212.841 474.162 212.481 474.03 212.217 473.766C211.965 473.49 211.839 473.106 211.839 472.614V458.16H210.651C210.171 458.16 209.793 458.04 209.517 457.8C209.253 457.56 209.121 457.23 209.121 456.81C209.121 456.39 209.253 456.06 209.517 455.82C209.793 455.568 210.171 455.442 210.651 455.442H211.839V453.912C211.839 452.112 212.331 450.696 213.315 449.664C214.311 448.62 215.757 448.098 217.653 448.098C218.589 448.098 219.495 448.2 220.371 448.404C221.319 448.644 221.793 449.142 221.793 449.898C221.793 450.258 221.673 450.558 221.433 450.798C221.193 451.038 220.893 451.158 220.533 451.158C220.281 451.158 219.993 451.116 219.669 451.032C219.009 450.888 218.367 450.816 217.743 450.816C215.751 450.816 214.755 451.95 214.755 454.218V455.442H219.219C219.723 455.442 220.107 455.562 220.371 455.802C220.647 456.042 220.785 456.378 220.785 456.81C220.785 457.242 220.647 457.578 220.371 457.818C220.107 458.046 219.723 458.16 219.219 458.16H214.755V472.614C214.755 473.106 214.623 473.49 214.359 473.766C214.107 474.03 213.753 474.162 213.297 474.162ZM232.245 474.324C230.589 474.324 229.179 474.03 228.015 473.442C226.851 472.842 225.969 471.978 225.369 470.85C224.769 469.722 224.469 468.372 224.469 466.8V456.54C224.469 456.048 224.595 455.67 224.847 455.406C225.111 455.13 225.471 454.992 225.927 454.992C226.383 454.992 226.737 455.13 226.989 455.406C227.253 455.67 227.385 456.048 227.385 456.54V466.566C227.385 469.842 229.005 471.48 232.245 471.48C233.145 471.48 234.027 471.366 234.891 471.138C235.767 470.898 236.493 470.598 237.069 470.238V456.54C237.069 456.048 237.195 455.67 237.447 455.406C237.711 455.13 238.071 454.992 238.527 454.992C238.983 454.992 239.337 455.13 239.589 455.406C239.853 455.67 239.985 456.048 239.985 456.54V470.868C239.985 471.3 239.919 471.636 239.787 471.876C239.667 472.104 239.439 472.314 239.103 472.506C238.371 472.962 237.387 473.382 236.151 473.766C234.927 474.138 233.625 474.324 232.245 474.324ZM247.484 474.162C247.028 474.162 246.668 474.03 246.404 473.766C246.152 473.49 246.026 473.106 246.026 472.614V449.646C246.026 449.154 246.152 448.776 246.404 448.512C246.668 448.236 247.028 448.098 247.484 448.098C247.94 448.098 248.294 448.236 248.546 448.512C248.81 448.776 248.942 449.154 248.942 449.646V472.614C248.942 473.106 248.81 473.49 248.546 473.766C248.294 474.03 247.94 474.162 247.484 474.162ZM256.625 474.162C256.169 474.162 255.809 474.03 255.545 473.766C255.293 473.49 255.167 473.106 255.167 472.614V449.646C255.167 449.154 255.293 448.776 255.545 448.512C255.809 448.236 256.169 448.098 256.625 448.098C257.081 448.098 257.435 448.236 257.687 448.512C257.951 448.776 258.083 449.154 258.083 449.646V472.614C258.083 473.106 257.951 473.49 257.687 473.766C257.435 474.03 257.081 474.162 256.625 474.162ZM266.179 480.57C265.771 480.57 265.423 480.432 265.135 480.156C264.859 479.892 264.721 479.556 264.721 479.148C264.721 478.608 265.033 478.158 265.657 477.798C267.241 476.922 268.531 475.248 269.527 472.776L262.759 457.512C262.543 457.044 262.435 456.666 262.435 456.378C262.435 455.97 262.579 455.64 262.867 455.388C263.155 455.124 263.503 454.992 263.911 454.992C264.271 454.992 264.571 455.088 264.811 455.28C265.051 455.46 265.249 455.754 265.405 456.162L270.967 469.23C270.991 469.302 271.015 469.35 271.039 469.374C271.063 469.398 271.093 469.41 271.129 469.41C271.177 469.41 271.213 469.398 271.237 469.374C271.261 469.35 271.285 469.302 271.309 469.23L276.457 456.09C276.733 455.358 277.207 454.992 277.879 454.992C278.287 454.992 278.635 455.124 278.923 455.388C279.211 455.64 279.355 455.964 279.355 456.36C279.355 456.624 279.271 456.966 279.103 457.386L272.551 473.262C271.891 474.858 271.123 476.244 270.247 477.42C269.383 478.608 268.495 479.496 267.583 480.084C267.355 480.252 267.133 480.372 266.917 480.444C266.701 480.528 266.455 480.57 266.179 480.57ZM285.371 448.314C285.839 448.314 286.205 448.458 286.469 448.746C286.745 449.022 286.877 449.412 286.865 449.916L286.541 463.488C286.517 464.328 286.127 464.748 285.371 464.748C284.603 464.748 284.207 464.328 284.183 463.488L283.877 449.916C283.865 449.412 283.991 449.022 284.255 448.746C284.531 448.458 284.903 448.314 285.371 448.314ZM284.435 469.302C284.435 468.834 284.561 468.468 284.813 468.204C285.065 467.94 285.407 467.808 285.839 467.808C286.283 467.808 286.625 467.94 286.865 468.204C287.117 468.468 287.243 468.834 287.243 469.302V472.668C287.243 473.148 287.117 473.52 286.865 473.784C286.625 474.036 286.283 474.162 285.839 474.162C285.407 474.162 285.065 474.03 284.813 473.766C284.561 473.502 284.435 473.136 284.435 472.668V469.302Z" fill="#0B3C58"/>
<path opacity="0.44" fill-rule="evenodd" clip-rule="evenodd" d="M353 8L353.46 8.30662C354.11 8.73981 354.5 9.46907 354.5 10.25C354.5 11.0309 354.11 11.7602 353.46 12.1934L353 12.5V8ZM330 4.5H350C351.105 4.5 352 5.39543 352 6.5V14C352 15.1046 351.105 16 350 16H330C328.895 16 328 15.1046 328 14V6.5C328 5.39543 328.895 4.5 330 4.5ZM330 5.5C329.448 5.5 329 5.94772 329 6.5V14C329 14.5523 329.448 15 330 15H350C350.552 15 351 14.5523 351 14V6.5C351 5.94772 350.552 5.5 350 5.5H330Z" fill="#323232"/>
<path fill-rule="evenodd" clip-rule="evenodd" d="M331 6.5H346V14H331C330.448 14 330 13.5523 330 13V7.5C330 6.94772 330.448 6.5 331 6.5Z" fill="#323232"/>
<path d="M166.258 14H167.77V5.54492H166.264L164.055 7.0918V8.54492L166.158 7.06836H166.258V14Z" fill="#323232"/>
<path d="M173.125 14.2051C175.275 14.2051 176.553 12.5234 176.553 9.67578C176.553 8.60352 176.348 7.70117 175.955 7.00391C175.387 5.91992 174.408 5.33398 173.172 5.33398C171.332 5.33398 170.031 6.57031 170.031 8.30469C170.031 9.93359 171.203 11.1172 172.814 11.1172C173.805 11.1172 174.607 10.6543 175.006 9.85156H175.023C175.023 9.85156 175.047 9.85156 175.053 9.85156C175.064 9.85156 175.105 9.85156 175.105 9.85156C175.105 11.7852 174.373 12.9395 173.137 12.9395C172.41 12.9395 171.848 12.541 171.654 11.9023H170.148C170.4 13.291 171.578 14.2051 173.125 14.2051ZM173.178 9.91602C172.205 9.91602 171.514 9.22461 171.514 8.25781C171.514 7.31445 172.24 6.59375 173.184 6.59375C174.127 6.59375 174.854 7.32617 174.854 8.28125C174.854 9.22461 174.145 9.91602 173.178 9.91602Z" fill="#323232"/>
<path d="M179.207 13.1035C179.764 13.1035 180.145 12.7051 180.145 12.1777C180.145 11.6445 179.764 11.252 179.207 11.252C178.656 11.252 178.27 11.6445 178.27 12.1777C178.27 12.7051 178.656 13.1035 179.207 13.1035ZM179.207 8.70898C179.764 8.70898 180.145 8.31641 180.145 7.78906C180.145 7.25586 179.764 6.86328 179.207 6.86328C178.656 6.86328 178.27 7.25586 178.27 7.78906C178.27 8.31641 178.656 8.70898 179.207 8.70898Z" fill="#323232"/>
<path d="M185.113 14.2109C187.135 14.2109 188.336 12.5703 188.336 9.77539C188.336 6.96875 187.117 5.33398 185.113 5.33398C183.104 5.33398 181.885 6.96875 181.885 9.76367C181.885 12.5703 183.086 14.2109 185.113 14.2109ZM185.113 12.957C184.041 12.957 183.414 11.8438 183.414 9.76367C183.414 7.70117 184.053 6.59375 185.113 6.59375C186.174 6.59375 186.807 7.69531 186.807 9.76367C186.807 11.8438 186.186 12.957 185.113 12.957Z" fill="#323232"/>
<path d="M189.906 8.01758V8.04102H191.324V8.01758C191.324 7.15625 191.922 6.57617 192.807 6.57617C193.639 6.57617 194.248 7.11523 194.248 7.85938C194.248 8.45703 193.961 8.89648 192.807 10.0684L189.988 12.9512V14H195.859V12.7168H192.062V12.6172L193.832 10.8418C195.268 9.42383 195.73 8.67383 195.73 7.76562C195.73 6.35352 194.523 5.33398 192.854 5.33398C191.119 5.33398 189.906 6.43555 189.906 8.01758Z" fill="#323232"/>
<path fill-rule="evenodd" clip-rule="evenodd" d="M21.5 5C20.9477 5 20.5 5.44772 20.5 6V14C20.5 14.5523 20.9477 15 21.5 15H22.5C23.0523 15 23.5 14.5523 23.5 14V6C23.5 5.44772 23.0523 5 22.5 5H21.5ZM16 8C16 7.44772 16.4477 7 17 7H18C18.5523 7 19 7.44772 19 8V14C19 14.5523 18.5523 15 18 15H17C16.4477 15 16 14.5523 16 14V8ZM12.5 9C11.9477 9 11.5 9.44772 11.5 10V14C11.5 14.5523 11.9477 15 12.5 15H13.5C14.0523 15 14.5 14.5523 14.5 14V10C14.5 9.44772 14.0523 9 13.5 9H12.5ZM8 15C7.44772 15 7 14.5523 7 14V11.5C7 10.9477 7.44772 10.5 8 10.5H9C9.55228 10.5 10 10.9477 10 11.5V14C10 14.5523 9.55228 15 9 15H8Z" fill="#323232"/>
<path d="M31.328 15.108C30.648 15.108 30.036 15.02 29.492 14.844C28.948 14.668 28.476 14.42 28.076 14.1L28.46 13.212C28.74 13.42 29.024 13.596 29.312 13.74C29.6 13.876 29.908 13.98 30.236 14.052C30.572 14.116 30.936 14.148 31.328 14.148C32.024 14.148 32.536 14.024 32.864 13.776C33.2 13.52 33.368 13.184 33.368 12.768C33.368 12.408 33.252 12.132 33.02 11.94C32.788 11.748 32.384 11.596 31.808 11.484L30.524 11.22C29.748 11.06 29.168 10.8 28.784 10.44C28.408 10.072 28.22 9.576 28.22 8.952C28.22 8.448 28.352 8.008 28.616 7.632C28.888 7.248 29.26 6.952 29.732 6.744C30.212 6.536 30.772 6.432 31.412 6.432C32.004 6.432 32.552 6.52 33.056 6.696C33.56 6.872 33.984 7.132 34.328 7.476L33.944 8.328C33.584 8 33.196 7.764 32.78 7.62C32.372 7.468 31.908 7.392 31.388 7.392C30.756 7.392 30.256 7.528 29.888 7.8C29.52 8.072 29.336 8.44 29.336 8.904C29.336 9.272 29.452 9.564 29.684 9.78C29.916 9.988 30.3 10.148 30.836 10.26L32.12 10.512C32.936 10.672 33.532 10.924 33.908 11.268C34.292 11.612 34.484 12.088 34.484 12.696C34.484 13.176 34.356 13.6 34.1 13.968C33.844 14.328 33.48 14.608 33.008 14.808C32.536 15.008 31.976 15.108 31.328 15.108ZM38.5752 15.108C37.6152 15.108 36.8552 14.832 36.2952 14.28C35.7432 13.728 35.4672 12.968 35.4672 12C35.4672 11.36 35.5872 10.808 35.8272 10.344C36.0752 9.872 36.4152 9.508 36.8472 9.252C37.2792 8.988 37.7832 8.856 38.3592 8.856C38.9112 8.856 39.3792 8.976 39.7632 9.216C40.1472 9.448 40.4392 9.78 40.6392 10.212C40.8392 10.644 40.9392 11.156 40.9392 11.748V12.108H36.3192V11.46H40.1952L39.9912 11.616C39.9912 10.992 39.8512 10.508 39.5712 10.164C39.2992 9.82 38.8952 9.648 38.3592 9.648C37.7752 9.648 37.3232 9.852 37.0032 10.26C36.6832 10.66 36.5232 11.208 36.5232 11.904V12.012C36.5232 12.748 36.7032 13.304 37.0632 13.68C37.4312 14.056 37.9392 14.244 38.5872 14.244C38.9472 14.244 39.2832 14.192 39.5952 14.088C39.9072 13.984 40.2072 13.812 40.4952 13.572L40.8552 14.328C40.5832 14.576 40.2432 14.768 39.8352 14.904C39.4352 15.04 39.0152 15.108 38.5752 15.108ZM42.2342 15V10.44C42.2342 10.2 42.2262 9.956 42.2102 9.708C42.2022 9.452 42.1822 9.204 42.1502 8.964H43.2062L43.3382 10.476L43.1582 10.488C43.2382 10.12 43.3742 9.816 43.5662 9.576C43.7662 9.328 44.0022 9.148 44.2742 9.036C44.5542 8.916 44.8422 8.856 45.1382 8.856C45.2662 8.856 45.3742 8.86 45.4622 8.868C45.5502 8.876 45.6382 8.896 45.7262 8.928L45.7022 9.9C45.5822 9.852 45.4702 9.824 45.3662 9.816C45.2702 9.8 45.1502 9.792 45.0062 9.792C44.6542 9.792 44.3502 9.872 44.0942 10.032C43.8462 10.192 43.6542 10.404 43.5182 10.668C43.3902 10.932 43.3262 11.216 43.3262 11.52V15H42.2342ZM48.7069 15L46.1269 8.964H47.3029L49.4029 14.148H49.0669L51.2029 8.964H52.3189L49.7269 15H48.7069ZM53.2211 15V8.964H54.3131V15H53.2211ZM53.1251 7.644V6.468H54.4211V7.644H53.1251ZM58.611 15.108C58.011 15.108 57.491 14.984 57.051 14.736C56.611 14.48 56.267 14.116 56.019 13.644C55.779 13.164 55.659 12.596 55.659 11.94C55.659 11.292 55.783 10.74 56.031 10.284C56.279 9.82 56.623 9.468 57.063 9.228C57.503 8.98 58.019 8.856 58.611 8.856C59.003 8.856 59.383 8.924 59.751 9.06C60.119 9.188 60.419 9.376 60.651 9.624L60.279 10.392C60.047 10.168 59.791 10.004 59.511 9.9C59.231 9.788 58.955 9.732 58.683 9.732C58.091 9.732 57.627 9.924 57.291 10.308C56.955 10.684 56.787 11.232 56.787 11.952C56.787 12.68 56.955 13.24 57.291 13.632C57.627 14.024 58.091 14.22 58.683 14.22C58.947 14.22 59.219 14.168 59.499 14.064C59.779 13.96 60.039 13.796 60.279 13.572L60.651 14.328C60.411 14.584 60.103 14.78 59.727 14.916C59.359 15.044 58.987 15.108 58.611 15.108ZM64.4947 15.108C63.5347 15.108 62.7747 14.832 62.2147 14.28C61.6627 13.728 61.3867 12.968 61.3867 12C61.3867 11.36 61.5067 10.808 61.7467 10.344C61.9947 9.872 62.3347 9.508 62.7667 9.252C63.1987 8.988 63.7027 8.856 64.2787 8.856C64.8307 8.856 65.2987 8.976 65.6827 9.216C66.0667 9.448 66.3587 9.78 66.5587 10.212C66.7587 10.644 66.8587 11.156 66.8587 11.748V12.108H62.2387V11.46H66.1147L65.9107 11.616C65.9107 10.992 65.7707 10.508 65.4907 10.164C65.2187 9.82 64.8147 9.648 64.2787 9.648C63.6947 9.648 63.2427 9.852 62.9227 10.26C62.6027 10.66 62.4427 11.208 62.4427 11.904V12.012C62.4427 12.748 62.6227 13.304 62.9827 13.68C63.3507 14.056 63.8587 14.244 64.5067 14.244C64.8667 14.244 65.2027 14.192 65.5147 14.088C65.8267 13.984 66.1267 13.812 66.4147 13.572L66.7747 14.328C66.5027 14.576 66.1627 14.768 65.7547 14.904C65.3547 15.04 64.9347 15.108 64.4947 15.108Z" fill="#323232"/>
<path d="M79.8081 6.49216C82.2189 6.49226 84.5375 7.42402 86.2846 9.09485C86.4162 9.22384 86.6265 9.22222 86.7561 9.0912L88.0137 7.81448C88.0793 7.74803 88.1159 7.65802 88.1154 7.56436C88.1148 7.47071 88.0772 7.38114 88.0108 7.31546C83.4251 2.89485 76.1905 2.89485 71.6047 7.31546C71.5383 7.38109 71.5006 7.47063 71.5 7.56429C71.4994 7.65794 71.5359 7.74798 71.6015 7.81448L72.8595 9.0912C72.989 9.22241 73.1994 9.22404 73.3309 9.09485C75.0783 7.42391 77.3972 6.49215 79.8081 6.49216ZM79.8081 10.6459C81.1327 10.6458 82.41 11.141 83.3918 12.0353C83.5246 12.1622 83.7338 12.1595 83.8632 12.0291L85.1195 10.7524C85.1856 10.6854 85.2223 10.5946 85.2214 10.5002C85.2204 10.4058 85.1819 10.3157 85.1144 10.2501C82.1245 7.45256 77.4943 7.45256 74.5045 10.2501C74.4369 10.3157 74.3984 10.4058 74.3975 10.5003C74.3966 10.5947 74.4334 10.6855 74.4997 10.7524L75.7556 12.0291C75.885 12.1595 76.0942 12.1622 76.227 12.0353C77.2082 11.1416 78.4845 10.6464 79.8081 10.6459ZM82.2223 13.6929C82.2895 13.6266 82.3265 13.5353 82.3245 13.4406C82.3226 13.3459 82.2819 13.2563 82.2121 13.1928C80.8244 12.0121 78.7919 12.0121 77.4042 13.1928C77.3343 13.2562 77.2936 13.3459 77.2916 13.4405C77.2896 13.5352 77.3265 13.6265 77.3937 13.6929L79.567 15.8987C79.6307 15.9635 79.7175 16 79.8081 16C79.8988 16 79.9856 15.9635 80.0493 15.8987L82.2223 13.6929Z" fill="#323232"/>
<mask id="mask0_4435_339890" style="mask-type:alpha" maskUnits="userSpaceOnUse" x="0" y="590" width="360" height="210">
<path d="M0 590H360V800H0V590Z" fill="white"/>
</mask>
<g mask="url(#mask0_4435_339890)">
<g clip-path="url(#clip1_4435_339890)">
<path d="M261.066 1070.61C381.22 1070.61 478.624 973.209 478.624 853.055C478.624 732.902 381.22 635.498 261.066 635.498C140.912 635.498 43.5078 732.902 43.5078 853.055C43.5078 973.209 140.912 1070.61 261.066 1070.61Z" fill="#5B5B5B"/>
<g filter="url(#filter1_d_4435_339890)">
<path d="M260.811 1038.53C363.794 1038.53 447.278 955.604 447.278 853.313C447.278 751.023 363.794 668.1 260.811 668.1C157.828 668.1 74.3438 751.023 74.3438 853.313C74.3438 955.604 157.828 1038.53 260.811 1038.53Z" fill="#A0A0A0"/>
<path d="M126.257 733.013L158.038 704.039L168.365 715.211C170.704 717.742 170.541 721.673 168.002 723.988L145.413 744.582C142.874 746.897 138.916 746.723 136.577 744.192L126.25 733.02L126.257 733.013Z" fill="#A0A0A0"/>
<path d="M120.477 731.471L157.006 698.166L159.579 700.951C160.759 702.227 160.677 704.214 159.396 705.382L127.511 734.452C126.23 735.62 124.23 735.532 123.051 734.256L120.477 731.471Z" fill="#A0A0A0"/>
<path d="M117.057 687.727C117.298 688.675 117.035 689.707 116.266 690.409C115.496 691.111 114.478 691.272 113.572 690.988L110.328 701.182C109.945 702.395 110.725 703.681 111.984 703.877C116.565 704.607 121.413 703.328 125.093 699.977C128.858 696.536 130.547 691.676 130.106 686.965C129.985 685.697 128.738 684.836 127.506 685.144L117.069 687.732L117.057 687.727Z" fill="#A0A0A0"/>
<path d="M116.477 686.544C116.802 686.889 117.003 687.3 117.113 687.733L127.548 685.145C128.788 684.835 129.47 683.495 128.966 682.316C128.282 680.701 127.303 679.172 126.038 677.806C120.686 672.002 111.988 671.095 105.641 675.33C104.586 676.036 104.423 677.524 105.284 678.465L112.576 686.366C113.691 685.343 115.431 685.423 116.465 686.538L116.477 686.544Z" fill="#A0A0A0"/>
<path d="M112.379 690.259C111.347 689.146 111.42 687.416 112.534 686.393L105.25 678.499C104.381 677.562 102.881 677.592 102.081 678.58C97.3015 684.503 97.4735 693.195 102.82 698.992C104.172 700.463 105.74 701.61 107.436 702.435C108.572 702.999 109.949 702.393 110.335 701.19L113.583 691.006C113.135 690.863 112.722 690.628 112.388 690.256L112.379 690.259Z" fill="#A0A0A0"/>
<path d="M116.714 696.927C116.714 696.927 116.714 722.582 141.109 717.332" stroke="#A0A0A0" stroke-width="2.21073" stroke-miterlimit="10"/>
<path d="M136.887 717.981C136.887 717.981 124.709 704.579 137.743 693.151C137.743 693.151 149.941 703.603 136.887 717.981Z" fill="#A0A0A0"/>
<path d="M122.095 712.562C122.095 712.562 115.427 708.104 108.858 714.955C108.858 714.955 115.247 722.472 122.095 712.562Z" fill="#A0A0A0"/>
<path d="M246.626 668.933L259.956 642.397C260.992 640.333 263.937 640.329 264.98 642.39L278.374 668.865C279.319 670.734 277.964 672.944 275.87 672.948L249.146 673.009C247.05 673.014 245.685 670.807 246.626 668.933Z" fill="#A0A0A0"/>
<path d="M276.76 667.338L291.395 646.277C292.466 644.736 294.856 645.182 295.299 647.006L301.337 671.855C301.71 673.387 300.38 674.795 298.829 674.511L278.155 670.722C276.598 670.436 275.856 668.637 276.76 667.338Z" fill="#A0A0A0"/>
<path d="M301.381 671.328L314.845 657.923C315.831 656.942 317.513 657.584 317.593 658.972L318.693 677.885C318.761 679.051 317.605 679.901 316.513 679.487L301.948 673.98C300.851 673.565 300.55 672.155 301.381 671.328Z" fill="#A0A0A0"/>
</g>
<g filter="url(#filter2_dd_4435_339890)">
<rect width="20.8733" height="47.3127" rx="1.04131" transform="matrix(0.914042 -0.405619 0.405622 0.914041 178.352 684.254)" fill="#B9B9B9"/>
<path fill-rule="evenodd" clip-rule="evenodd" d="M193.185 681.475L185.375 684.941C185.522 685.124 185.648 685.329 185.748 685.554C186.37 686.956 185.74 688.598 184.339 689.224L197.882 719.741C199.287 719.119 200.929 719.753 201.553 721.157C201.649 721.375 201.716 721.598 201.754 721.822L209.546 718.365C209.403 718.185 209.281 717.984 209.184 717.765C208.56 716.36 209.194 714.715 210.599 714.092L210.599 714.092L197.05 683.56C195.648 684.177 194.009 683.543 193.387 682.142C193.29 681.923 193.223 681.7 193.185 681.475ZM199.156 705.464C201.263 704.528 202.213 702.062 201.278 699.955C200.343 697.847 197.876 696.897 195.769 697.832C193.662 698.767 192.711 701.234 193.646 703.341C194.582 705.449 197.048 706.399 199.156 705.464Z" fill="#5B5B5B"/>
</g>
<g filter="url(#filter3_dd_4435_339890)">
<rect width="20.8733" height="47.3127" rx="1.04131" transform="matrix(0.981291 -0.192532 0.192534 0.98129 189.789 675.643)" fill="#B9B9B9"/>
<path fill-rule="evenodd" clip-rule="evenodd" d="M204.863 676.226L196.51 677.865C196.606 678.069 196.679 678.287 196.724 678.519C197.02 680.027 196.038 681.49 194.529 681.786L194.527 681.786L200.963 714.588C202.469 714.295 203.929 715.278 204.224 716.784C204.27 717.014 204.285 717.242 204.273 717.466L212.631 715.826C212.532 715.618 212.457 715.395 212.411 715.159C212.115 713.65 213.098 712.188 214.606 711.892L214.614 711.89L208.183 679.113L208.178 679.114C206.669 679.41 205.207 678.427 204.911 676.919C204.865 676.685 204.85 676.453 204.863 676.226ZM205.384 700.948C207.646 700.504 209.12 698.31 208.676 696.048C208.233 693.785 206.039 692.311 203.776 692.755C201.514 693.199 200.039 695.393 200.483 697.655C200.927 699.918 203.121 701.392 205.384 700.948Z" fill="#5B5B5B"/>
</g>
<g filter="url(#filter4_d_4435_339890)">
<path d="M260.796 1010.03C347.935 1010.03 418.576 939.865 418.576 853.311C418.576 766.757 347.935 696.592 260.796 696.592C173.656 696.592 103.016 766.757 103.016 853.311C103.016 939.865 173.656 1010.03 260.796 1010.03Z" fill="#B9B9B9"/>
<path d="M75.4166 781.601C68.928 797.013 74.8912 810.488 81.5608 816.789C81.5608 816.789 80.1029 809.189 86.5639 804.923C85.2686 799.72 88.177 792.794 93.226 789.098C92.3406 782.904 95.2617 775.983 99.8881 773.274C98.4238 765.671 104.878 761.402 104.878 761.402C95.7167 761.038 81.9051 766.188 75.4166 781.601Z" fill="#B9B9B9" stroke="#B9B9B9" stroke-width="2.78342" stroke-linejoin="round"/>
<path d="M75.4265 781.607L69.4922 779.108" stroke="#B9B9B9" stroke-width="2.78342" stroke-linecap="round"/>
<path d="M93.2093 789.119L113.979 797.864C115.618 798.553 116.387 800.441 115.697 802.08C115.008 803.719 113.12 804.488 111.481 803.798L106.536 801.716" stroke="#B9B9B9" stroke-width="2.78342" stroke-linecap="round"/>
</g>
<g filter="url(#filter5_d_4435_339890)">
<path d="M260.827 981.507C332.123 981.507 389.92 924.099 389.92 853.283C389.92 782.466 332.123 725.058 260.827 725.058C189.531 725.058 131.734 782.466 131.734 853.283C131.734 924.099 189.531 981.507 260.827 981.507Z" fill="#E6E6E6"/>
<path d="M305.899 718.964C303.818 718.125 301.436 719.125 300.591 721.191C299.747 723.257 300.753 725.624 302.833 726.463C304.914 727.302 307.296 726.302 308.141 724.236C308.985 722.169 307.979 719.803 305.899 718.964ZM303.688 724.373C302.764 724.003 302.321 722.954 302.695 722.04C303.07 721.127 304.124 720.682 305.044 721.054C305.968 721.424 306.411 722.473 306.037 723.387C305.664 724.305 304.608 724.745 303.688 724.373Z" fill="#E6E6E6"/>
<path d="M331.84 676.511C328.234 675.059 324.114 676.79 322.653 680.372C321.191 683.953 322.934 688.045 326.54 689.497C330.146 690.949 334.266 689.218 335.727 685.636C337.189 682.054 335.446 677.962 331.84 676.511ZM328.23 685.354C326.923 684.83 326.292 683.35 326.824 682.05C327.352 680.752 328.841 680.125 330.15 680.654C331.459 681.182 332.084 682.659 331.556 683.957C331.028 685.256 329.539 685.882 328.23 685.354Z" fill="#E6E6E6"/>
<path d="M334.321 670.474C327.362 667.671 319.398 671.013 316.577 677.929C313.755 684.841 317.119 692.751 324.082 695.553C331.046 698.355 339.005 695.015 341.826 688.098C344.648 681.186 341.284 673.276 334.321 670.474ZM325.659 691.68C320.845 689.741 318.523 684.277 320.472 679.497C322.425 674.715 327.925 672.409 332.738 674.344C337.552 676.284 339.878 681.746 337.925 686.528C335.972 691.31 330.474 693.62 325.659 691.68Z" fill="#E6E6E6"/>
<path d="M327.458 712.895C324.996 711.907 322.182 713.087 321.185 715.528C320.19 717.973 321.378 720.768 323.835 721.758C326.297 722.746 329.107 721.568 330.108 719.126C331.103 716.68 329.916 713.889 327.458 712.895ZM324.972 718.987C324.048 718.617 323.604 717.568 323.979 716.655C324.352 715.737 325.407 715.297 326.327 715.668C327.251 716.039 327.694 717.087 327.32 718.001C326.945 718.915 325.892 719.359 324.972 718.987Z" fill="#E6E6E6"/>
<path d="M312.612 697.285C310.024 696.241 307.071 697.485 306.02 700.055C304.969 702.625 306.221 705.558 308.809 706.602C311.396 707.646 314.354 706.401 315.4 703.832C316.451 701.262 315.198 698.324 312.612 697.285ZM310.031 703.606C309.107 703.235 308.664 702.187 309.038 701.273C309.411 700.355 310.467 699.915 311.387 700.287C312.311 700.657 312.754 701.706 312.38 702.619C312.005 703.533 310.951 703.978 310.031 703.606Z" fill="#E6E6E6"/>
<path d="M306.798 741.954L316.122 719.121C316.718 722.233 318.834 724.987 322.005 726.266C326.972 728.265 332.633 725.887 334.646 720.954C336.659 716.021 334.265 710.397 329.299 708.398C326.128 707.119 322.676 707.632 320.067 709.453L322.862 702.611C333.093 705.883 344.291 700.806 348.393 690.752C352.695 680.217 347.583 668.212 336.976 663.938C326.369 659.665 314.283 664.743 309.981 675.279C307.673 680.923 308.074 686.991 310.571 692.062C306.686 692.113 303.03 694.436 301.475 698.236C299.408 703.299 301.863 709.066 306.96 711.12C310.241 712.44 313.809 711.893 316.492 709.993L311.945 721.126C311.447 718.584 309.711 716.334 307.118 715.288C303.035 713.644 298.386 715.599 296.73 719.65C295.075 723.705 297.043 728.323 301.121 729.968C303.719 731.013 306.539 730.6 308.68 729.121L303.983 740.825L306.782 741.965L306.798 741.954ZM302.271 727.868C299.413 726.716 298.027 723.464 299.186 720.625C300.346 717.786 303.62 716.41 306.478 717.562C309.336 718.714 310.722 721.966 309.563 724.805C308.403 727.644 305.129 729.02 302.271 727.868ZM308.101 708.347C304.547 706.915 302.832 702.881 304.27 699.353C305.712 695.824 309.773 694.12 313.325 695.548C316.878 696.98 318.593 701.014 317.156 704.542C315.714 708.072 311.653 709.775 308.101 708.347ZM323.184 697.725C315.017 694.434 311.065 685.156 314.377 677.039C317.689 668.922 327.032 665.001 335.204 668.291C343.371 671.582 347.322 680.86 344.011 688.977C340.697 697.09 331.356 701.015 323.184 697.725ZM323.13 723.504C319.701 722.123 318.045 718.229 319.438 714.827C320.83 711.425 324.748 709.776 328.173 711.159C331.603 712.541 333.258 716.434 331.866 719.836C330.475 723.243 326.555 724.887 323.13 723.504Z" fill="#E6E6E6"/>
<path d="M159.442 747.952C158.763 747.844 158.3 747.211 158.406 746.537L159.138 741.927C156.514 741.847 153.894 742.787 151.91 744.687L155.565 747.622C156.1 748.05 156.182 748.831 155.751 749.362C155.32 749.894 154.533 749.975 153.998 749.547L150.343 746.612C148.891 748.937 148.515 751.678 149.14 754.208L153.524 752.533C154.165 752.287 154.887 752.605 155.135 753.244C155.383 753.88 155.063 754.597 154.419 754.844L150.022 756.524C150.634 757.656 151.478 758.691 152.545 759.547C153.615 760.406 154.806 761.008 156.051 761.363L156.785 756.739C156.894 756.065 157.531 755.605 158.21 755.709C158.889 755.817 159.352 756.45 159.246 757.124L158.514 761.735C161.138 761.815 163.758 760.874 165.742 758.975L162.087 756.04C161.552 755.612 161.471 754.831 161.901 754.299C162.332 753.768 163.119 753.687 163.654 754.115L167.309 757.05C168.761 754.725 169.137 751.983 168.512 749.453L164.128 751.128C163.487 751.374 162.765 751.057 162.517 750.417C162.27 749.781 162.589 749.064 163.233 748.818L167.63 747.138C167.018 746.005 166.174 744.971 165.108 744.115C164.037 743.256 162.846 742.654 161.601 742.299L160.867 746.923C160.758 747.597 160.121 748.057 159.442 747.952Z" fill="#E6E6E6"/>
<path d="M153.34 731.453L137.621 750.764C136.001 752.756 136.311 755.674 138.316 757.284L157.758 772.898C159.763 774.507 162.701 774.198 164.321 772.207L180.041 752.895C181.661 750.904 181.351 747.985 179.346 746.376L159.904 730.762C157.899 729.153 154.96 729.461 153.34 731.453ZM168.389 759.504C164.12 764.748 156.384 765.561 151.105 761.324C145.825 757.084 145.007 749.4 149.272 744.156C153.538 738.912 161.277 738.099 166.557 742.336C171.836 746.576 172.655 754.26 168.389 759.504Z" fill="#E6E6E6"/>
<path d="M137.395 758.348L138.471 757.026L145.621 762.766L144.544 764.088C144.292 764.399 143.835 764.447 143.522 764.196L137.506 759.366C137.193 759.115 137.145 758.661 137.397 758.35L137.395 758.348Z" fill="#E6E6E6"/>
<path d="M149.898 768.385L150.975 767.063L158.124 772.803L157.048 774.125C156.795 774.436 156.338 774.484 156.026 774.233L150.009 769.403C149.697 769.152 149.648 768.698 149.901 768.387L149.898 768.385Z" fill="#E6E6E6"/>
</g>
<g filter="url(#filter6_d_4435_339890)">
<path d="M260.812 953.059C316.264 953.059 361.217 908.408 361.217 853.328C361.217 798.249 316.264 753.598 260.812 753.598C205.359 753.598 160.406 798.249 160.406 853.328C160.406 908.408 205.359 953.059 260.812 953.059Z" fill="#F0F2F2"/>
</g>
</g>
</g>
</g>
<defs>
<filter id="filter0_d_4435_339890" x="144" y="125.5" width="72" height="72" filterUnits="userSpaceOnUse" color-interpolation-filters="sRGB">
<feFlood flood-opacity="0" result="BackgroundImageFix"/>
<feColorMatrix in="SourceAlpha" type="matrix" values="0 0 0 0 0 0 0 0 0 0 0 0 0 0 0 0 0 0 127 0" result="hardAlpha"/>
<feOffset dy="2"/>
<feGaussianBlur stdDeviation="2"/>
<feComposite in2="hardAlpha" operator="out"/>
<feColorMatrix type="matrix" values="0 0 0 0 0 0 0 0 0 0 0 0 0 0 0 0 0 0 0.12 0"/>
<feBlend mode="normal" in2="BackgroundImageFix" result="effect1_dropShadow_4435_339890"/>
<feBlend mode="normal" in="SourceGraphic" in2="effect1_dropShadow_4435_339890" result="shape"/>
</filter>
<filter id="filter1_d_4435_339890" x="71.475" y="637.978" width="402.487" height="434.538" filterUnits="userSpaceOnUse" color-interpolation-filters="sRGB">
<feFlood flood-opacity="0" result="BackgroundImageFix"/>
<feColorMatrix in="SourceAlpha" type="matrix" values="0 0 0 0 0 0 0 0 0 0 0 0 0 0 0 0 0 0 127 0" result="hardAlpha"/>
<feOffset dx="7.1718" dy="7.1718"/>
<feGaussianBlur stdDeviation="5.02026"/>
<feColorMatrix type="matrix" values="0 0 0 0 0 0 0 0 0 0 0 0 0 0 0 0 0 0 0.15 0"/>
<feBlend mode="normal" in2="BackgroundImageFix" result="effect1_dropShadow_4435_339890"/>
<feBlend mode="normal" in="SourceGraphic" in2="effect1_dropShadow_4435_339890" result="shape"/>
</filter>
<filter id="filter2_dd_4435_339890" x="168.749" y="669.909" width="57.4778" height="70.9231" filterUnits="userSpaceOnUse" color-interpolation-filters="sRGB">
<feFlood flood-opacity="0" result="BackgroundImageFix"/>
<feColorMatrix in="SourceAlpha" type="matrix" values="0 0 0 0 0 0 0 0 0 0 0 0 0 0 0 0 0 0 127 0" result="hardAlpha"/>
<feOffset dy="1.24227"/>
<feGaussianBlur stdDeviation="1.8634"/>
<feComposite in2="hardAlpha" operator="out"/>
<feColorMatrix type="matrix" values="0 0 0 0 0 0 0 0 0 0 0 0 0 0 0 0 0 0 0.3 0"/>
<feBlend mode="normal" in2="BackgroundImageFix" result="effect1_dropShadow_4435_339890"/>
<feColorMatrix in="SourceAlpha" type="matrix" values="0 0 0 0 0 0 0 0 0 0 0 0 0 0 0 0 0 0 127 0" result="hardAlpha"/>
<feOffset dy="3.7268"/>
<feGaussianBlur stdDeviation="4.96906"/>
<feComposite in2="hardAlpha" operator="out"/>
<feColorMatrix type="matrix" values="0 0 0 0 0 0 0 0 0 0 0 0 0 0 0 0 0 0 0.15 0"/>
<feBlend mode="normal" in2="effect1_dropShadow_4435_339890" result="effect2_dropShadow_4435_339890"/>
<feBlend mode="normal" in="SourceGraphic" in2="effect2_dropShadow_4435_339890" result="shape"/>
</filter>
<filter id="filter3_dd_4435_339890" x="180.031" y="665.593" width="49.1106" height="69.9612" filterUnits="userSpaceOnUse" color-interpolation-filters="sRGB">
<feFlood flood-opacity="0" result="BackgroundImageFix"/>
<feColorMatrix in="SourceAlpha" type="matrix" values="0 0 0 0 0 0 0 0 0 0 0 0 0 0 0 0 0 0 127 0" result="hardAlpha"/>
<feOffset dy="1.24227"/>
<feGaussianBlur stdDeviation="1.8634"/>
<feComposite in2="hardAlpha" operator="out"/>
<feColorMatrix type="matrix" values="0 0 0 0 0 0 0 0 0 0 0 0 0 0 0 0 0 0 0.3 0"/>
<feBlend mode="normal" in2="BackgroundImageFix" result="effect1_dropShadow_4435_339890"/>
<feColorMatrix in="SourceAlpha" type="matrix" values="0 0 0 0 0 0 0 0 0 0 0 0 0 0 0 0 0 0 127 0" result="hardAlpha"/>
<feOffset dy="3.7268"/>
<feGaussianBlur stdDeviation="4.96906"/>
<feComposite in2="hardAlpha" operator="out"/>
<feColorMatrix type="matrix" values="0 0 0 0 0 0 0 0 0 0 0 0 0 0 0 0 0 0 0.15 0"/>
<feBlend mode="normal" in2="effect1_dropShadow_4435_339890" result="effect2_dropShadow_4435_339890"/>
<feBlend mode="normal" in="SourceGraphic" in2="effect2_dropShadow_4435_339890" result="shape"/>
</filter>
<filter id="filter4_d_4435_339890" x="65.2328" y="693.723" width="370.558" height="357.964" filterUnits="userSpaceOnUse" color-interpolation-filters="sRGB">
<feFlood flood-opacity="0" result="BackgroundImageFix"/>
<feColorMatrix in="SourceAlpha" type="matrix" values="0 0 0 0 0 0 0 0 0 0 0 0 0 0 0 0 0 0 127 0" result="hardAlpha"/>
<feOffset dx="7.1718" dy="7.1718"/>
<feGaussianBlur stdDeviation="5.02026"/>
<feColorMatrix type="matrix" values="0 0 0 0 0 0 0 0 0 0 0 0 0 0 0 0 0 0 0.15 0"/>
<feBlend mode="normal" in2="BackgroundImageFix" result="effect1_dropShadow_4435_339890"/>
<feBlend mode="normal" in="SourceGraphic" in2="effect1_dropShadow_4435_339890" result="shape"/>
</filter>
<filter id="filter5_d_4435_339890" x="128.866" y="659.555" width="299.55" height="339.165" filterUnits="userSpaceOnUse" color-interpolation-filters="sRGB">
<feFlood flood-opacity="0" result="BackgroundImageFix"/>
<feColorMatrix in="SourceAlpha" type="matrix" values="0 0 0 0 0 0 0 0 0 0 0 0 0 0 0 0 0 0 127 0" result="hardAlpha"/>
<feOffset dx="7.1718" dy="7.1718"/>
<feGaussianBlur stdDeviation="5.02026"/>
<feColorMatrix type="matrix" values="0 0 0 0 0 0 0 0 0 0 0 0 0 0 0 0 0 0 0.15 0"/>
<feBlend mode="normal" in2="BackgroundImageFix" result="effect1_dropShadow_4435_339890"/>
<feBlend mode="normal" in="SourceGraphic" in2="effect1_dropShadow_4435_339890" result="shape"/>
</filter>
<filter id="filter6_d_4435_339890" x="157.538" y="750.729" width="220.894" height="219.542" filterUnits="userSpaceOnUse" color-interpolation-filters="sRGB">
<feFlood flood-opacity="0" result="BackgroundImageFix"/>
<feColorMatrix in="SourceAlpha" type="matrix" values="0 0 0 0 0 0 0 0 0 0 0 0 0 0 0 0 0 0 127 0" result="hardAlpha"/>
<feOffset dx="7.1718" dy="7.1718"/>
<feGaussianBlur stdDeviation="5.02026"/>
<feColorMatrix type="matrix" values="0 0 0 0 0 0 0 0 0 0 0 0 0 0 0 0 0 0 0.15 0"/>
<feBlend mode="normal" in2="BackgroundImageFix" result="effect1_dropShadow_4435_339890"/>
<feBlend mode="normal" in="SourceGraphic" in2="effect1_dropShadow_4435_339890" result="shape"/>
</filter>
<clipPath id="clip0_4435_339890">
<rect width="360" height="800" fill="white"/>
</clipPath>
<clipPath id="clip1_4435_339890">
<rect width="442.147" height="439.177" fill="white" transform="translate(40 633)"/>
</clipPath>
</defs>
</svg>
