<svg width="274" height="693" viewBox="0 0 274 693" fill="none" xmlns="http://www.w3.org/2000/svg">
<path d="M13.4786 159.309C15.9247 153.325 22.0628 139.881 31.3891 125.962C36.0156 118.988 41.375 111.895 46.9909 105.361C52.6068 98.8274 58.4426 92.8159 63.857 87.8675C66.9902 85.0083 70.1875 82.2042 73.4948 79.5375C75.1163 78.1538 76.8387 76.935 78.5152 75.652L83.5814 71.8399C90.4341 66.8914 97.4792 62.1995 104.753 57.9017C119.265 49.251 134.482 41.8925 150.038 35.5053C181.196 22.7309 213.6 13.8053 246.012 5.99774C256.154 3.551 273.368 -0.609368 273.515 1.48915C273.671 3.68847 262.43 7.64727 244.831 11.9909C239.508 13.3197 234.185 14.6393 228.881 16.0413C223.558 17.3976 218.272 18.8455 212.977 20.3025C210.329 21.0081 207.69 21.7687 205.061 22.5476L197.164 24.8569L189.313 27.3128C186.702 28.1467 184.072 28.9257 181.489 29.8329C176.313 31.6198 171.1 33.3152 165.997 35.2945L158.32 38.1811L150.743 41.2968L146.96 42.8547C145.705 43.3862 144.468 43.9727 143.231 44.5225L135.792 47.904C133.309 49.022 130.918 50.3232 128.481 51.5237L124.844 53.3656C123.626 53.9704 122.416 54.5844 121.244 55.2717C107.245 62.7585 93.8696 71.3542 81.401 81.0862C68.8591 90.6716 57.5815 101.824 47.6963 114.113C37.8204 126.392 29.2637 139.771 22.6034 154.039C15.9339 168.289 10.9959 183.382 8.58647 198.896C6.47936 212.807 6.18618 227.039 8.48568 240.885L8.89796 243.478C9.04454 244.34 9.25524 245.192 9.4293 246.054L9.97899 248.629L10.2538 249.911L10.5928 251.185L11.967 256.262L13.6069 261.256C13.8634 262.099 14.1841 262.906 14.5047 263.721L15.4575 266.168C15.7873 266.984 16.0713 267.808 16.4286 268.606L17.5371 270.988L19.7542 275.763C20.1023 276.569 20.5512 277.33 20.9726 278.099L22.2461 280.409C29.0346 292.734 37.6188 304.088 47.0551 314.718C56.4821 325.376 66.6237 335.474 76.6921 345.719C86.1558 355.341 95.5828 365.11 104.277 375.63C106.402 378.297 108.528 380.973 110.617 383.676L116.562 392.043C118.45 394.902 120.227 397.825 122.059 400.712C123.003 402.141 123.791 403.662 124.624 405.156L127.107 409.646C139.988 433.802 148.087 460.487 150.881 487.74C151.971 499.516 152.118 511.365 151.321 523.159L150.487 531.983C150.148 534.916 149.635 537.83 149.213 540.753L148.884 542.943C148.783 543.677 148.664 544.4 148.49 545.124L147.574 549.459C146.951 552.345 146.428 555.26 145.576 558.091C144.789 560.941 144.056 563.8 143.222 566.632L140.419 575.035C140.18 575.732 139.961 576.437 139.704 577.134L138.889 579.196L137.258 583.31L135.627 587.425L133.777 591.438L131.926 595.452L131.001 597.459C130.68 598.119 130.323 598.769 129.984 599.42L125.861 607.237C122.856 612.305 119.943 617.436 116.562 622.266C115.014 624.566 113.457 627.031 111.634 629.422C110.754 630.641 109.856 631.869 108.949 633.116C108.024 634.344 107.181 635.654 106.173 636.854C104.213 639.283 102.225 641.748 100.246 644.185C98.1938 646.559 96.05 648.831 93.9979 651.077C92.3305 652.964 90.1776 654.971 87.9239 657.171C86.7971 658.261 85.6244 659.397 84.4426 660.543C83.2333 661.67 81.9415 662.742 80.6864 663.851C75.721 668.36 70.3158 672.328 66.3397 675.342C64.5533 676.543 62.7393 677.771 60.9254 678.999C59.1114 680.208 57.3799 681.519 55.5751 682.619C53.5321 683.92 51.6815 685.102 50.005 686.165C49.1622 686.687 48.3651 687.173 47.6139 687.64C46.8352 688.053 46.1023 688.438 45.4152 688.804C42.6576 690.234 40.6146 691.196 39.2495 691.691C36.5103 692.68 36.4828 691.81 38.7365 689.235C39.7259 688.108 37.9945 688.273 41.8514 685.771C42.0071 685.67 42.3278 685.459 42.4744 685.359C45.3968 683.462 48.1727 681.326 51.0861 679.393L53.2756 677.936L54.375 677.212L55.4377 676.433C56.8669 675.416 58.3052 674.389 59.7436 673.363C61.1727 672.328 62.6752 671.384 64.0677 670.293C65.4694 669.212 66.8802 668.131 68.2911 667.04C69.6928 665.94 71.1403 664.896 72.5053 663.75L76.5455 660.231C83.1967 654.504 89.2615 648.135 95.1522 641.629C96.6089 639.988 97.9648 638.256 99.3756 636.579L101.474 634.041C102.179 633.198 102.875 632.355 103.507 631.457L107.428 626.169C108.079 625.281 108.748 624.419 109.38 623.521L111.194 620.781L114.831 615.292C116.022 613.45 117.075 611.526 118.211 609.647L119.879 606.815C120.438 605.872 121.006 604.937 121.491 603.947L124.524 598.11L126.035 595.186L127.391 592.19L130.103 586.197C130.579 585.207 130.937 584.172 131.34 583.154L132.531 580.084L133.722 577.015C134.116 575.988 134.537 574.98 134.848 573.926C140.593 557.358 144.092 540.048 145.32 522.554C145.439 521.463 145.467 520.364 145.503 519.273L145.613 515.983C145.668 513.793 145.805 511.603 145.787 509.413L145.65 502.833L145.586 499.543C145.531 498.453 145.43 497.353 145.357 496.263L144.871 489.702C144.816 488.602 144.679 487.52 144.523 486.43L144.101 483.168C143.808 480.996 143.579 478.815 143.222 476.652L142.04 470.183C141.793 468.863 141.573 467.534 141.298 466.215L140.364 462.292L139.429 458.361C139.118 457.051 138.834 455.74 138.421 454.457L136.149 446.714C135.801 445.413 135.334 444.148 134.885 442.884L133.548 439.081L132.21 435.278C131.734 434.022 131.193 432.785 130.689 431.539C129.645 429.064 128.674 426.554 127.574 424.098L124.093 416.822L123.223 414.998C122.92 414.402 122.581 413.816 122.261 413.229L120.318 409.692C117.854 404.909 114.84 400.446 112.037 395.864C108.903 391.502 105.953 387.012 102.527 382.851C95.8577 374.402 88.5835 366.411 81.062 358.622C72.8168 350.1 64.1227 341.935 55.8316 333.037L55.9782 333.183C47.1467 324.093 38.425 314.755 30.6562 304.546C23.3271 294.897 16.6851 284.395 11.6372 273.023L10.6569 270.915C10.3546 270.2 10.0798 269.467 9.79575 268.743L8.09175 264.39L6.62593 259.955C6.38773 259.213 6.13121 258.48 5.91134 257.728L5.29752 255.474C3.55686 249.49 2.47583 243.341 1.65131 237.192L1.15659 232.564C0.982523 231.025 0.955051 229.476 0.854276 227.937C0.616081 224.848 0.698523 221.769 0.643555 218.69C0.698523 217.151 0.762655 215.62 0.817623 214.09L0.909242 211.79L1.10162 209.508C1.23904 207.987 1.37647 206.466 1.50473 204.945C1.70628 203.433 1.89866 201.93 2.10021 200.427C2.27428 198.915 2.53994 197.43 2.80562 195.936C3.08047 194.452 3.3095 192.958 3.61183 191.483C4.28061 188.55 4.84863 185.6 5.664 182.731C7.11149 176.94 9.0262 171.35 10.9959 165.852C11.6738 164.175 12.4709 161.82 13.4786 159.309Z" fill="black"/>
</svg>
