<svg width="191" height="348" viewBox="0 0 191 348" fill="none" xmlns="http://www.w3.org/2000/svg">
<path d="M78.0506 168.203C79.0217 168.221 80.2951 168.139 81.8159 167.983C83.3367 167.708 85.1232 167.506 87.0287 166.902C90.8673 165.848 95.2923 163.832 99.5706 160.826C103.858 157.848 107.981 153.944 111.627 149.774C115.273 145.596 118.471 141.188 121.137 137.211C124.233 132.629 127.101 127.781 130.041 122.989L134.329 115.731L138.525 108.418C144.058 98.6403 149.335 88.7159 154.356 78.6631C164.396 58.5669 173.439 37.9757 181.464 17.0181C182.692 13.7282 184.35 9.29294 185.834 5.7557C187.327 2.21846 188.766 -0.384052 189.709 0.046648C191.652 0.944703 190.369 9.01804 186.027 20.5828C180.74 34.5576 174.914 48.3584 168.638 61.93C162.354 75.4925 155.675 88.8442 148.767 102.003C143.692 111.616 138.323 121.064 132.68 130.347C127.101 139.648 121.027 148.931 113.313 157.023C109.447 161.046 105.15 164.767 100.276 167.745C95.4206 170.723 89.9604 172.922 84.2345 173.857C81.3945 174.425 78.4262 174.508 75.5404 174.334C72.6362 174.15 69.7596 173.683 66.9745 172.858C64.1986 172.043 61.4868 170.98 58.9308 169.623C56.3839 168.249 53.9654 166.627 51.73 164.767C49.7328 163.09 47.9188 161.183 46.2606 159.158C44.6665 157.069 43.2282 154.86 42.0739 152.505C39.7744 147.795 38.4094 142.663 38.0612 137.467C37.878 134.874 37.9146 132.253 38.2536 129.669C38.3727 128.368 38.6475 127.094 38.8857 125.811C39.2155 124.546 39.4812 123.264 39.9301 122.036C40.7088 119.534 41.8174 117.142 43.1183 114.842C44.4467 112.542 46.0407 110.397 47.873 108.501C51.5284 104.688 55.9625 101.692 60.7539 99.6758C65.5453 97.6598 70.6757 96.4685 75.8702 96.2485C81.0555 96.0194 86.3233 96.6792 91.2796 98.4662C96.2268 100.226 100.899 103.076 104.545 106.989C107.917 110.617 110.573 114.851 112.415 119.387C114.266 123.914 115.319 128.689 115.841 133.435C116.876 142.975 115.832 152.423 114.128 161.559C113.697 163.85 113.212 166.123 112.681 168.368L111.004 175.067C110.427 177.293 109.932 179.548 109.282 181.756L107.321 188.382L106.341 191.69C106.02 192.799 105.69 193.898 105.306 194.98L103.07 201.513L101.953 204.785L101.394 206.416L100.771 208.029L98.2514 214.462C86.4516 243.997 70.2176 271.672 50.6123 296.616C49.4579 298.082 48.3402 299.704 47.0576 301.262C45.8025 302.847 44.5017 304.478 43.2007 306.119C41.8907 307.768 40.5897 309.445 39.243 311.076C37.8597 312.671 36.4763 314.247 35.1021 315.768C33.9661 317.024 32.6468 318.499 31.2268 320.066C29.8068 321.642 28.1852 323.209 26.6186 324.831C25.0337 326.435 23.4488 328.039 21.9647 329.541C20.4897 331.053 18.9872 332.327 17.7596 333.473C15.6067 335.415 13.3621 337.413 11.3558 339.429C1.79134 348.318 -1.27774 349.986 0.462923 345.321C0.838539 344.295 -0.425714 344.497 1.6814 342.178C1.76385 342.077 1.93792 341.885 2.02037 341.803C3.55948 339.979 5.1902 338.247 6.88505 336.579C8.57075 334.893 10.2289 333.161 11.9696 331.521C13.7011 329.862 15.4784 328.222 17.2466 326.581C18.9506 324.868 20.6638 323.154 22.3495 321.404C38.9499 304.258 53.4523 285.143 66.0858 264.918C67.6616 262.38 69.1183 259.786 70.6391 257.22L72.9019 253.362C73.6623 252.079 74.3219 250.742 75.0365 249.431L79.2507 241.541C80.6066 238.884 81.8618 236.18 83.181 233.504L85.1323 229.481C85.7736 228.134 86.3417 226.751 86.9463 225.394L90.5284 217.193C91.6461 214.434 92.6996 211.64 93.799 208.863L95.4206 204.693C95.9336 203.291 96.4008 201.88 96.8864 200.469L98.6728 195.282C99.2592 193.55 99.9005 191.836 100.395 190.068L103.556 179.557C104.509 176.029 105.388 172.473 106.304 168.936C107.266 165.39 107.981 161.852 108.65 158.297C109.3 154.741 109.758 151.167 110.088 147.593C110.344 144.029 110.445 140.455 110.253 136.927C110.005 133.408 109.547 129.926 108.668 126.581C107.743 123.254 106.497 120.047 104.802 117.115C103.803 115.557 102.805 113.999 101.559 112.633L100.67 111.57L99.7081 110.617C99.3966 110.288 99.0484 110.003 98.7095 109.71C98.3613 109.426 98.0407 109.096 97.6742 108.84C96.2634 107.713 94.706 106.759 93.1119 105.889C91.4903 105.037 89.7863 104.349 88.0365 103.735L88.1556 103.772C80.7074 101.527 72.4347 102.022 65.1056 104.67C58.1521 107.144 51.9132 111.882 48.3861 118.26C44.804 124.693 43.5305 132.501 44.6757 139.85C44.9231 141.692 45.3995 143.497 45.9308 145.266C46.5446 147.007 47.1951 148.739 48.0654 150.352C49.7603 153.587 51.959 156.537 54.6525 158.984C57.3276 161.449 60.3783 163.484 63.6398 165.023C66.9104 166.544 70.3825 167.543 73.8638 168.01C74.1387 168.047 74.441 168.084 74.7617 168.12C75.0823 168.13 75.4213 168.139 75.7786 168.157C76.4657 168.203 77.2444 168.23 78.0506 168.203Z" fill="black"/>
</svg>
