<svg width="304" height="580" viewBox="0 0 304 580" fill="none" xmlns="http://www.w3.org/2000/svg">
<path d="M300.336 383.625C299.668 386.273 298.532 390.608 296.672 395.84C294.821 401.073 292.21 407.176 288.958 413.407C285.706 419.648 281.858 426.035 277.735 431.955C273.631 437.893 269.325 443.4 265.404 448.092C256.316 458.961 246.33 468.977 235.914 478.434C225.451 487.863 214.632 496.734 203.876 505.623C193.112 514.493 182.429 523.373 172.187 532.684C167.048 537.321 162.1 542.141 157.254 547.034C156.054 548.271 154.89 549.536 153.709 550.791C152.545 552.056 151.317 553.275 150.2 554.585L146.801 558.461C146.242 559.112 145.656 559.745 145.106 560.404L143.484 562.402C142.807 563.236 142.074 564.143 141.304 565.096C140.535 566.04 139.728 567.03 138.968 568.074C137.438 570.136 135.807 572.198 134.369 574.049C131.593 577.825 129.193 580.555 128.387 579.896C127.553 579.208 128.222 576.606 130.173 572.546C132.179 568.523 135.679 563.172 140.544 557.215C146.508 550.067 152.893 543.305 159.526 536.816C166.186 530.365 173.112 524.207 180.102 518.186C194.11 506.164 208.521 494.727 222.208 482.695C232.258 473.944 241.923 464.844 250.966 455.167C259.99 445.49 268.354 435.208 275.527 424.175C282.655 413.132 288.601 401.32 292.439 388.83C296.278 376.358 298.018 363.254 297.157 350.25C296.406 338.575 293.749 327.047 289.608 316.06C285.422 305.082 279.797 294.644 273.191 284.866C259.871 265.338 242.84 248.385 223.894 234.144C214.989 227.473 205.589 221.352 196.025 215.533C186.46 209.714 176.694 204.188 166.819 198.818C147.094 188.041 127.031 177.677 107.636 165.929C99.2351 160.916 91.0631 155.473 83.0378 149.837C79.0892 146.923 75.0949 144.073 71.2379 140.985C67.4085 137.878 63.6157 134.726 59.9877 131.39C45.4395 118.112 32.4395 103.037 22.1604 86.1485C19.751 82.1714 17.1125 77.7636 14.7306 73.0809C12.312 68.4165 10.0674 63.523 8.32678 58.6937C7.55722 56.7143 6.82431 54.35 5.99062 51.83C5.25772 49.2733 4.45152 46.5607 3.8377 43.7933C2.54595 38.2858 1.6573 32.6776 1.36413 28.4714C1.3 27.5641 1.19007 26.6477 1.15342 25.7313L1.03432 22.9639C0.906066 21.122 0.924388 19.2892 0.860258 17.5022C0.750322 13.406 0.915226 10.0521 1.22671 7.44954C1.45575 4.82868 1.9413 2.96837 2.28943 1.78624C3.04983 -0.57803 3.77358 -0.128955 4.5981 2.6935C4.97372 3.92146 5.77991 2.68432 5.69746 6.50563C5.69746 6.66142 5.70662 6.98214 5.70662 7.1196C5.85321 12.9111 5.99062 18.6936 6.44869 24.5126C6.8976 30.3316 7.64883 36.1965 9.02304 41.9697C12.4036 56.1278 18.3402 69.6445 25.9166 82.1439C33.5205 94.6434 42.7369 106.171 52.9885 116.655C58.1188 121.897 63.5149 126.891 69.14 131.601C71.9433 133.965 74.82 136.247 77.7425 138.474C80.6741 140.692 83.6974 142.808 86.6657 144.98C98.7129 153.475 111.365 161.127 124.209 168.467C139.994 177.466 156.1 185.988 172.077 194.868C180.075 199.276 188 203.849 195.869 208.531C199.763 210.941 203.711 213.26 207.55 215.78C209.474 217.026 211.416 218.236 213.331 219.501L219.029 223.359C227.357 228.994 235.501 235.033 243.059 241.952L242.931 241.833C246.953 245.352 250.865 249.008 254.667 252.784C258.451 256.568 262.088 260.518 265.578 264.587C278.688 280.028 290.011 297.906 296.818 317.544C300.208 327.341 302.443 337.531 303.231 347.73C303.616 352.825 303.717 357.92 303.378 362.951C303.094 367.982 302.48 372.949 301.509 377.787C301.225 379.336 300.859 381.407 300.336 383.625Z" fill="black"/>
</svg>
