<svg width="178" height="535" viewBox="0 0 178 535" fill="none" xmlns="http://www.w3.org/2000/svg">
<path d="M157.366 453.218C156.954 454.125 156.542 455.207 155.956 456.361C155.378 457.525 154.728 458.808 154.022 460.21C153.317 461.612 152.557 463.124 151.741 464.746C150.843 466.323 149.891 467.99 148.883 469.75C148.379 470.629 147.866 471.528 147.335 472.444C147.069 472.902 146.803 473.37 146.538 473.837C146.244 474.286 145.942 474.744 145.64 475.211C144.44 477.063 143.185 478.978 141.902 480.957C141.581 481.452 141.252 481.947 140.931 482.451C140.574 482.937 140.216 483.422 139.859 483.908C139.144 484.888 138.411 485.878 137.679 486.877C136.204 488.875 134.729 490.937 133.08 492.925C126.602 500.953 118.898 508.907 110.369 515.468C101.876 522.057 92.5222 527.115 83.7364 530.084C73.5673 533.548 62.6745 534.896 51.9282 533.713C46.5596 533.118 41.2369 531.871 36.1524 529.901C31.0678 527.94 26.2489 525.218 21.9431 521.828C17.6372 518.437 13.8444 514.368 10.8211 509.805C7.77957 505.26 5.42513 500.284 3.7486 495.134C0.432182 484.797 -0.236624 473.855 0.972676 463.271C2.21862 452.668 5.40682 442.341 10.2898 432.865C12.7359 428.128 15.6309 423.61 18.9656 419.422C20.6971 417.424 22.3645 415.372 24.151 413.438L26.9084 410.606L28.2918 409.186C28.7499 408.71 29.2538 408.288 29.7394 407.839C37.4166 400.627 45.9733 394.487 54.924 389.172C63.8838 383.848 73.2284 379.321 82.7195 375.271C88.6469 372.714 96.7181 369.497 103.36 367.234C109.993 364.961 115.178 363.605 115.334 364.641C115.508 365.74 112.274 367.839 106.438 370.698C100.603 373.566 92.1374 377.131 82.0233 381.63C69.7928 387.065 57.9015 393.287 47.0452 400.975L43.0234 403.926C41.7041 404.934 40.4399 406.015 39.1481 407.051C38.5068 407.582 37.8563 408.086 37.2242 408.636L35.3919 410.313L33.5596 411.99C32.9458 412.549 32.332 413.099 31.764 413.704L28.301 417.259C27.1558 418.451 26.1298 419.752 25.0396 420.989L23.4272 422.868L21.9339 424.82C21.4209 425.461 20.9627 426.139 20.4955 426.817C20.0374 427.495 19.5428 428.146 19.1122 428.852C11.9664 439.857 7.61471 452.723 6.39625 465.782C6.10308 469.044 5.97479 472.334 6.13053 475.596C6.15801 477.237 6.34124 478.859 6.4695 480.481C6.68937 482.093 6.86347 483.715 7.19328 485.31C7.4498 486.923 7.87124 488.49 8.23769 490.066C8.70492 491.615 9.11715 493.182 9.69432 494.694C10.1982 496.233 10.8761 497.699 11.4991 499.175C12.2137 500.614 12.9008 502.071 13.7345 503.445C16.089 507.505 18.9839 511.225 22.392 514.414C25.8091 517.594 29.6844 520.261 33.862 522.35C42.2355 526.538 51.7633 528.298 61.1812 528.041C70.6357 527.784 79.9803 525.53 88.6103 521.571C97.2678 517.64 105.22 512.178 112.402 505.819C119.576 499.45 126.071 492.247 131.797 484.458C133.217 482.506 134.674 480.572 136.075 478.602L140.024 472.517C141.398 470.52 142.516 468.375 143.734 466.286C144.916 464.178 146.199 462.125 147.225 459.926L150.477 453.438C151.476 451.239 152.41 449.003 153.381 446.785C153.848 445.667 154.38 444.577 154.792 443.44L156.056 440.041L157.321 436.641L157.953 434.936C158.154 434.368 158.319 433.782 158.502 433.204L160.655 426.277C161.04 425.131 161.287 423.94 161.599 422.776L162.488 419.257L163.376 415.738L164.082 412.173C164.531 409.8 165.062 407.436 165.438 405.044L166.345 398.593C166.482 397.511 166.693 396.448 166.766 395.358L167.05 392.114C167.224 389.951 167.462 387.788 167.581 385.617L167.792 379.101C167.819 378.02 167.893 376.929 167.875 375.848L167.801 372.595C167.746 370.423 167.728 368.251 167.645 366.079L167.142 359.582C167.05 358.501 166.986 357.42 166.885 356.338L166.454 353.113L165.584 346.661L164.347 340.274L163.734 337.076L162.973 333.905C162.717 332.851 162.478 331.788 162.204 330.734L161.352 327.582C159.043 319.188 156.221 310.913 153.134 302.711C146.941 286.308 139.722 270.189 133.437 253.584C127.116 237.007 121.875 219.76 119.695 201.891C118.66 193.515 118.311 185.011 118.907 176.525C119.502 168.04 121.078 159.582 123.808 151.462L124.843 148.42C125.21 147.394 125.65 146.358 126.099 145.359C127.015 143.343 128.059 141.401 129.232 139.531C131.568 135.801 134.371 132.338 137.715 129.341C141.05 126.363 144.98 123.806 149.579 122.441C151.86 121.753 154.325 121.46 156.78 121.588C159.235 121.726 161.681 122.321 163.898 123.302C166.088 124.273 168.195 125.611 169.991 127.325C171.786 129.029 173.243 131.082 174.306 133.254C176.431 137.643 177.036 142.344 177.018 146.798C176.981 151.279 176.312 155.632 175.295 159.847C174.287 164.072 172.904 168.159 171.273 172.136C170.476 174.115 169.533 176.122 168.626 177.983L165.886 183.591C164.027 187.33 162.103 191.069 160.023 194.752C155.864 202.102 151.036 209.295 144.934 215.518C139.676 220.915 133.309 225.387 126.309 228.384C119.292 231.334 111.459 232.865 103.635 231.921C95.7928 231.023 88.3538 227.339 82.7654 221.85C79.9437 219.128 77.6442 215.957 75.7569 212.622C73.8697 209.286 72.4038 205.758 71.2678 202.184C69.0233 195 68.0155 187.614 67.7132 180.264C67.4292 172.915 67.8598 165.584 68.8767 158.344C70.8831 144.058 73.8697 129.909 77.745 116.017C78.6886 112.754 79.6872 109.327 80.7132 105.799C81.8309 102.298 82.9761 98.6879 84.1304 95.0499C85.413 91.4485 86.6864 87.8013 88.0148 84.1907C89.444 80.626 90.8274 77.0704 92.2932 73.6432C93.5575 70.839 95.005 67.5401 96.6174 64.0486C97.4602 62.3167 98.3397 60.5297 99.2283 58.7153C100.135 56.91 100.978 55.0406 101.977 53.2445C105.77 45.9684 109.837 38.8664 113.08 33.698C114.491 31.4712 115.93 29.2078 117.368 26.9535C118.834 24.7266 120.327 22.5273 121.72 20.3555C122.526 19.1184 123.268 17.9088 124.046 16.8091C124.825 15.7094 125.558 14.6648 126.254 13.6751C127.656 11.6957 128.911 9.94538 130.047 8.42419C132.402 5.44594 134.188 3.33826 135.434 2.07365C137.935 -0.455565 138.274 0.369184 136.817 4.21799C136.176 5.90414 137.926 4.74949 134.774 9.45054C134.646 9.64298 134.39 10.037 134.271 10.2111C133.098 12.0072 132.026 13.8767 130.853 15.6911C129.69 17.5055 128.517 19.32 127.354 21.1344C126.218 22.9764 125.054 24.8091 123.882 26.6327L122.104 29.3727L120.4 32.1585C119.255 34.0096 118.101 35.8699 116.946 37.7301C115.801 39.5904 114.729 41.5148 113.612 43.4025C112.531 45.3086 111.349 47.178 110.341 49.1391C109.306 51.0818 108.271 53.0337 107.235 54.9856C105.934 57.3682 104.817 59.8333 103.617 62.2617C102.435 64.6993 101.226 67.1277 100.163 69.6202L96.8739 77.0521L93.8231 84.5848C92.7696 87.0773 91.9084 89.6524 90.9556 92.1908L89.5539 96.0029C89.0867 97.2767 88.6928 98.5688 88.2622 99.8517C87.4285 102.427 86.5399 104.993 85.7428 107.577L83.4525 115.375C80.5758 125.822 78.0839 136.37 76.2517 147.055C75.7478 149.712 75.4088 152.406 74.9874 155.082L74.3735 159.096C74.2086 160.425 74.0346 161.753 73.9063 163.082C73.3566 168.406 73.1643 173.758 73.3566 179.073C73.5674 184.388 74.1445 189.694 75.3172 194.816C76.4624 199.948 78.1939 204.924 80.7132 209.396C81.9684 211.632 83.4159 213.74 85.0741 215.646C86.7414 217.543 88.6195 219.238 90.6717 220.668C92.7238 222.097 94.9592 223.279 97.3045 224.177C98.4955 224.553 99.6589 225.03 100.886 225.259C101.5 225.387 102.096 225.589 102.719 225.653L104.579 225.919C107.08 226.148 109.617 226.221 112.146 225.882L113.099 225.79L114.042 225.625L115.929 225.286C117.166 224.956 118.431 224.718 119.64 224.278C122.104 223.554 124.477 222.491 126.795 221.355C129.094 220.164 131.321 218.826 133.419 217.305C135.516 215.774 137.514 214.143 139.373 212.292C141.261 210.487 143.02 208.526 144.696 206.491C146.391 204.466 147.93 202.303 149.442 200.122C150.917 197.905 152.346 195.66 153.693 193.341C157.009 187.66 159.959 181.712 162.882 175.692C165.831 169.808 168.122 163.742 169.579 157.446C170.284 154.312 170.788 151.142 170.907 148.008C170.971 146.441 170.962 144.883 170.806 143.352C170.669 141.831 170.421 140.328 170.009 138.908C169.597 137.488 169.075 136.131 168.369 134.894C167.655 133.666 166.784 132.557 165.777 131.595C164.778 130.615 163.587 129.836 162.314 129.185C161.04 128.516 159.703 128.04 158.319 127.774C155.571 127.233 152.685 127.563 149.936 128.58C147.179 129.588 144.577 131.256 142.232 133.263C137.532 137.295 133.758 142.619 131.229 148.356C130.908 149.08 130.624 149.785 130.349 150.546L129.562 152.846C129.039 154.377 128.481 155.898 128.105 157.483C127.711 159.059 127.216 160.599 126.896 162.193L125.943 166.968C124.889 173.382 124.468 179.907 124.56 186.432C124.761 200.755 127.738 214.959 131.577 229.08L131.513 228.842C135.764 243.541 141.691 257.79 147.573 272.113C153.152 285.667 158.942 299.431 163.697 313.726C166.07 320.874 168.177 328.15 169.844 335.555L170.925 341.145L171.466 343.94C171.649 344.874 171.841 345.8 171.942 346.744L172.702 352.379C172.959 354.258 173.234 356.137 173.335 358.024C176.129 388.201 171.31 418.561 160.692 445.191C160.325 446.263 159.785 447.473 159.226 448.82C158.64 450.212 158.017 451.679 157.366 453.218Z" fill="black"/>
</svg>
