<svg width="393" height="479" viewBox="0 0 393 479" fill="none" xmlns="http://www.w3.org/2000/svg">
<path d="M384.091 336.712C384.21 336.089 384.329 335.429 384.467 334.705C384.577 333.99 384.687 333.22 384.806 332.405C384.925 331.589 385.053 330.737 385.181 329.839C385.282 328.941 385.392 327.988 385.502 327.007C385.758 325.037 385.85 322.893 386.033 320.611C386.116 318.329 386.244 315.901 386.207 313.344C386.189 303.145 384.815 290.874 380.665 278.595C378.603 272.464 375.882 266.352 372.493 260.57C369.13 254.769 365.035 249.399 360.546 244.35C351.568 234.26 341.555 225.408 333.126 217.115C328.234 212.331 323.415 207.383 318.954 202.013C314.51 196.643 310.424 190.824 307.328 184.345C305.816 181.101 304.488 177.729 303.572 174.219C302.683 170.709 302.069 167.108 301.886 163.479C301.739 159.859 301.886 156.203 302.463 152.62C303.059 149.046 303.984 145.545 305.166 142.173C307.584 135.437 310.965 129.215 314.657 123.369C318.34 117.495 322.343 111.951 326.2 106.397C330.057 100.853 333.823 95.3274 336.992 89.5633C338.586 86.6859 340.043 83.7625 341.243 80.7659C342.443 77.7694 343.497 74.727 344.147 71.6113C344.816 68.5047 345.247 65.3524 345.293 62.2092C345.311 59.066 344.999 55.9228 344.358 52.8438C343.094 46.6582 340.327 40.8117 336.727 35.5333C329.37 25.004 318.523 16.9216 306.558 11.8631C303.553 10.6169 300.475 9.54471 297.342 8.66498C294.209 7.79442 291.012 7.16211 287.805 6.71308C286.999 6.62144 286.202 6.50225 285.396 6.41978L282.977 6.22737C281.346 6.15406 279.697 6.14487 278.057 6.08989C276.417 5.99825 274.778 6.14496 273.128 6.18162L270.664 6.27323L268.2 6.50233C264.911 6.74059 261.649 7.28118 258.388 7.79435L253.523 8.78412C251.902 9.10485 250.298 9.56306 248.686 9.94794C242.264 11.6249 235.915 13.6776 229.676 16.0877C213.992 21.87 188.624 35.4692 188.157 33.3249C187.928 32.2344 191.922 29.1644 199.343 24.7658C203.062 22.5848 207.634 20.0464 213.048 17.4164C218.453 14.7864 224.665 11.9639 231.701 9.42554C240.203 6.32816 248.97 3.74404 257.976 2.17703C266.981 0.60085 276.179 0.0601483 285.386 0.765763C294.63 1.59967 303.645 4.16556 311.973 8.11517C320.3 12.0648 328.005 17.3981 334.473 24.0327C337.698 27.3501 340.611 31.0064 343.066 34.9651C345.512 38.9239 347.473 43.2126 348.829 47.7029C350.185 52.184 350.899 56.8759 350.918 61.5678C350.936 66.2688 350.249 70.924 349.04 75.4051C346.594 84.3948 342.15 92.5231 337.322 100.12C332.467 107.726 327.153 114.901 322.316 122.251C320.548 124.936 318.853 127.657 317.25 130.416C315.665 133.183 314.208 135.987 312.898 138.855C311.625 141.733 310.544 144.665 309.673 147.653C308.84 150.64 308.299 153.692 308.006 156.752C307.74 159.813 307.841 162.911 308.134 165.962C308.537 169.014 309.16 172.029 310.104 174.97C311.084 177.893 312.257 180.771 313.713 183.529C315.188 186.278 316.782 188.972 318.615 191.538C325.889 201.866 335.288 210.764 344.67 219.708C354.051 228.661 363.698 237.651 371.751 248.308C379.794 259.003 385.502 271.374 388.791 284.276C392.098 297.188 393.051 310.622 392.043 323.837C391.026 337.06 388.058 350.109 383.367 362.499C378.667 374.87 372.282 386.673 364.174 397.156C357.019 406.641 348.801 415.283 339.823 423.026C330.836 430.76 321.07 437.532 310.873 443.498C290.443 455.411 268.264 464.034 245.516 470.046C234.119 472.996 222.594 475.452 210.849 476.937C199.123 478.412 187.176 478.907 175.294 477.688C169.358 477.083 163.458 476.066 157.649 474.536C151.841 473.006 146.179 470.962 140.737 468.405C135.296 465.848 130.083 462.797 125.218 459.214C120.372 455.622 115.883 451.507 111.934 446.898C108.233 442.563 105.017 437.789 102.452 432.666C99.8595 427.553 97.9997 422.11 96.7354 416.538C95.5261 410.966 94.9123 405.276 94.8573 399.612C94.8207 393.949 95.2421 388.313 96.0575 382.769C99.3464 360.529 107.766 339.828 114.884 319.319C118.356 309.065 121.215 298.627 123.001 288.052C124.751 277.495 125.401 266.755 123.963 256.345C123.239 251.158 121.948 246.081 120.06 241.261C118.118 236.478 115.59 231.942 112.411 227.9C106.08 219.754 97.2851 213.77 87.7115 209.151C79.4387 205.119 70.6072 201.948 61.7573 198.53C52.9074 195.121 43.9385 191.456 35.5192 186.416C31.3141 183.905 27.2831 181 23.591 177.664C19.8898 174.329 16.5918 170.553 13.7517 166.475C8.07168 158.31 4.28801 148.972 2.28167 139.36C0.284492 129.728 0.000475794 119.813 1.23726 110.127C2.48321 100.432 5.24081 90.9379 9.51001 82.1315C18.2316 64.5277 32.3676 50.2504 48.6474 39.9228C56.3063 35.0201 65.2386 30.4199 74.7573 26.7085C84.2668 22.988 94.3443 20.1472 104.12 18.3786C112.191 16.8758 123.056 15.602 133.921 15.1805C144.787 14.7131 155.616 15.0888 163.659 15.5928C170.604 16.0235 177.777 16.7108 184.538 17.2607C200.076 18.5986 209.814 19.964 214.367 20.9354C218.921 21.9251 218.279 22.6398 212.984 23.1896C210.657 23.4371 213.186 24.4176 205.692 23.8953C205.38 23.8769 204.766 23.8312 204.482 23.8128C193.104 23.1988 181.652 22.2 170.109 21.4119C158.575 20.633 146.931 20.1656 135.277 20.5871C128.131 20.8987 121.013 21.4852 113.94 22.4291C106.859 23.3546 99.8961 24.775 93.0068 26.5528C86.1174 28.3123 79.3838 30.6398 72.8242 33.3523L70.369 34.3878L69.1413 34.901L67.9412 35.4692L63.1407 37.7601C60.0258 39.4371 56.8651 41.0592 53.8785 42.9561C41.7672 50.2688 31.0118 59.79 22.6383 71.089C14.1823 82.3239 8.93282 95.7214 7.02725 109.623C5.14001 123.488 6.5509 137.912 11.8737 150.778C14.5671 157.174 18.1675 163.204 22.7757 168.354C27.3105 173.568 32.8715 177.811 38.8997 181.394C51.011 188.551 64.7714 192.922 78.2753 198.31C85.0364 201.014 91.7975 203.992 98.2104 207.768C104.605 211.561 110.633 216.253 115.58 222.017C121.663 229.064 125.924 237.605 128.26 246.531C130.623 255.465 131.2 264.712 130.724 273.766C130.248 282.838 128.727 291.782 126.638 300.524C124.54 309.275 121.847 317.843 118.814 326.256C112.795 342.934 106.547 359.484 103.103 376.565C101.399 385.088 100.437 393.729 100.803 402.279C101.151 410.82 102.901 419.25 106.291 427.003C108.178 431.218 110.505 435.223 113.235 438.971C116.002 442.691 119.19 446.091 122.625 449.244L125.264 451.544L128.04 453.697C128.947 454.44 129.945 455.063 130.898 455.741C131.86 456.419 132.822 457.088 133.839 457.684C137.797 460.231 142.02 462.394 146.363 464.309L146.06 464.181C148.323 465.189 150.668 466.004 153.005 466.847L156.559 467.938C157.741 468.323 158.959 468.57 160.15 468.891C164.969 470.073 169.898 470.925 174.854 471.457C184.785 472.474 194.863 472.346 204.885 471.338C223.84 469.432 242.887 464.813 261.365 458.838C270.572 455.732 279.642 452.185 288.483 448.153C297.269 444.02 305.816 439.411 313.997 434.288C322.151 429.102 329.856 423.319 337.084 417.069C338.852 415.466 340.62 413.853 342.379 412.249C344.102 410.609 345.732 408.868 347.409 407.182C348.224 406.32 349.104 405.514 349.873 404.616L352.209 401.94L354.546 399.273C354.93 398.824 355.333 398.394 355.7 397.926L356.781 396.524C368.7 381.917 377.037 364.936 381.801 347.397C382.515 344.629 383.367 340.854 384.091 336.712Z" fill="black"/>
</svg>
