<svg width="375" height="389" viewBox="0 0 375 389" fill="none" xmlns="http://www.w3.org/2000/svg">
<path d="M287.222 224.056C285.102 223.546 282.302 222.866 278.942 221.996C275.562 221.126 271.612 219.976 267.332 218.476C258.792 215.426 248.722 211.006 239.182 204.056C234.442 200.576 229.832 196.456 225.952 191.556C222.092 186.666 218.902 180.986 217.192 174.886C216.322 171.846 215.782 168.746 215.542 165.656C215.332 162.576 215.442 159.516 215.802 156.566C216.532 150.656 218.292 145.256 220.302 140.516C225.012 129.506 231.622 119.966 237.282 110.256C240.132 105.406 242.762 100.516 244.852 95.4859C245.892 92.9659 246.772 90.4159 247.492 87.8359C247.652 87.1859 247.842 86.5459 247.992 85.8959L248.382 83.9459C248.682 82.6459 248.812 81.3259 248.982 80.0159C250.242 69.4459 247.632 58.6459 242.602 49.1259C237.532 39.5759 230.052 31.2859 221.422 24.5659C212.762 17.8559 202.852 12.6959 192.362 9.58594C187.102 8.03594 181.772 6.97594 176.282 6.57594C173.522 6.39594 170.772 6.08594 168.002 6.15594L163.852 6.12594C162.472 6.12594 161.082 6.25594 159.702 6.31594C148.622 6.89594 137.592 8.95594 126.802 11.9559C116.002 14.9459 105.432 18.9259 95.0316 23.3259C81.9916 28.7359 60.4116 39.6359 59.8116 37.3859C59.5216 36.2259 62.8216 33.5059 69.0416 29.7659C75.2716 26.0359 84.3916 21.2059 95.9516 16.3859C102.932 13.4359 110.072 10.8259 117.302 8.42594C124.562 6.09594 131.952 4.15594 139.462 2.63594C146.992 1.25594 154.622 0.275938 162.312 0.0359381C164.232 -0.0440619 166.162 0.0359381 168.082 0.0259381L170.962 0.0459381L173.842 0.255938C175.762 0.415938 177.672 0.505938 179.602 0.715938L182.492 1.10594C183.452 1.22594 184.402 1.44594 185.362 1.60594C187.282 1.91594 189.152 2.42594 191.042 2.85594C192.902 3.39594 194.782 3.86594 196.602 4.51594C200.292 5.69594 203.862 7.17594 207.362 8.80594C210.872 10.4259 214.222 12.3359 217.512 14.3459C220.762 16.4259 223.922 18.6359 226.922 21.0659C232.892 25.9359 238.342 31.4959 242.862 37.7859C245.132 40.9259 247.192 44.2159 248.922 47.6959C249.842 49.4059 250.572 51.2159 251.352 52.9959C252.032 54.8259 252.752 56.6359 253.272 58.5259C254.922 63.9959 255.792 69.7359 255.752 75.4859C255.702 81.2359 254.702 86.9959 252.962 92.4259C249.462 103.326 243.492 112.886 237.852 122.196C235.012 126.856 232.212 131.486 229.742 136.216C227.272 140.936 225.162 145.786 223.772 150.766C223.102 153.256 222.612 155.776 222.342 158.316C222.072 160.846 222.092 163.396 222.302 165.916C222.492 168.446 223.032 170.926 223.742 173.356C224.452 175.786 225.422 178.136 226.622 180.376C227.822 182.626 229.202 184.786 230.772 186.816C232.352 188.846 234.092 190.766 235.952 192.586C239.692 196.196 243.912 199.376 248.402 202.146C257.402 207.696 267.392 211.756 277.662 214.656C288.032 217.486 298.772 219.676 309.432 222.486C320.082 225.286 330.802 228.686 340.772 234.106C345.192 236.606 349.552 239.346 353.392 242.776L354.872 244.016L356.242 245.376C357.152 246.286 358.082 247.176 358.972 248.116C359.812 249.096 360.682 250.066 361.492 251.066C362.262 252.106 363.082 253.116 363.812 254.186C369.732 262.716 373.182 272.786 374.332 282.956C375.492 293.156 374.472 303.476 371.812 313.276C369.142 323.086 364.812 332.416 359.032 340.796C356.142 344.976 352.882 348.916 349.262 352.516C348.332 353.386 347.442 354.316 346.482 355.136L343.602 357.606C342.622 358.406 341.712 359.296 340.682 360.026L337.642 362.286C329.472 368.236 320.502 372.986 311.172 376.666C292.462 384.036 272.512 387.286 252.702 388.316L245.712 388.576L238.722 388.656C234.042 388.666 229.352 388.496 224.682 388.156C215.332 387.496 206.022 386.096 196.862 383.906C187.702 381.716 178.702 378.616 170.172 374.366C161.652 370.126 153.602 364.606 146.932 357.516C140.252 350.476 135.122 341.806 132.342 332.446C129.542 323.046 129.002 313.316 129.272 303.916C129.592 294.506 130.622 285.316 131.142 276.256C131.702 267.206 131.632 258.256 129.792 249.776C129.582 248.866 129.462 247.926 129.172 247.046L128.352 244.386C127.872 242.586 127.112 240.886 126.422 239.156C124.872 235.776 123.082 232.506 120.912 229.466C118.722 226.446 116.302 223.556 113.602 220.906C110.882 218.266 108.012 215.756 104.942 213.446C98.8116 208.806 92.1416 204.746 85.2816 200.916C78.4216 197.076 71.3616 193.456 64.3216 189.686C57.2916 185.896 50.2416 182.006 43.4616 177.526C36.6716 173.096 30.1816 168.036 24.3816 162.166C12.7516 150.276 5.12157 134.926 1.90157 118.816C0.391568 111.226 -0.398432 102.666 0.201568 93.9259C0.791568 85.1959 2.84157 76.3459 6.20157 68.4559C6.95157 66.8559 7.68157 65.0759 8.60157 63.2759C9.60157 61.5159 10.5616 59.6059 11.7216 57.7259C12.3216 56.8059 12.9416 55.8659 13.5616 54.9159C14.1816 53.9659 14.7916 52.9859 15.5216 52.0959C16.2216 51.1759 16.9316 50.2559 17.6516 49.3259C18.0116 48.8659 18.3516 48.3859 18.7416 47.9459L19.9116 46.6259C26.0416 39.5059 33.4416 33.6259 39.3616 29.9859C40.0016 29.5859 40.6416 29.1959 41.2816 28.7959L42.2516 28.1959L43.2616 27.6559C44.6016 26.9459 45.9516 26.2259 47.3016 25.5159C48.6516 24.8259 50.0616 24.2459 51.4216 23.6059C52.1016 23.2859 52.7816 22.9759 53.4616 22.6659C54.1516 22.3959 54.8516 22.1259 55.5316 21.8659C57.1116 21.2759 58.5916 20.6059 60.0616 20.1659C61.5316 19.7159 62.9316 19.2959 64.2616 18.8959C64.5916 18.7959 64.9216 18.7059 65.2416 18.6059C65.5716 18.5359 65.8916 18.4659 66.2116 18.3959C66.8516 18.2559 67.4716 18.1259 68.0816 17.9959C69.2916 17.7459 70.4216 17.4859 71.4916 17.3059C73.6516 17.0359 75.5116 16.8259 77.0916 16.6859C78.6716 16.6059 79.9716 16.6659 80.9816 16.7059C85.0416 16.9459 84.4816 17.8259 80.2016 19.3759C79.2616 19.7159 79.3616 20.0359 78.9216 20.3759C78.7016 20.5559 78.3416 20.6959 77.6616 20.9059C76.9816 21.1359 75.9816 21.3959 74.4716 21.7059C74.2216 21.7559 73.7216 21.8659 73.4916 21.9059C64.3716 24.0659 55.5816 27.5459 47.3016 32.1059C45.1916 33.1759 43.2416 34.5359 41.2216 35.7859C40.1916 36.3859 39.2816 37.1459 38.3016 37.8359C37.3416 38.5459 36.3616 39.2259 35.4216 39.9559C31.7516 42.9859 28.1316 46.1559 25.0416 49.8159C23.0316 51.9659 21.3516 54.3759 19.5616 56.7059C17.9716 59.1759 16.3016 61.5859 14.9816 64.2059L13.9216 66.1359C13.5616 66.7759 13.3116 67.4659 12.9916 68.1259C12.4016 69.4659 11.7616 70.7859 11.2216 72.1359L9.74157 76.2659L9.37157 77.2959L9.10157 78.3659L8.52157 80.4859L7.94157 82.6059C7.77157 83.3159 7.65157 84.0459 7.51157 84.7559C7.25157 86.1959 6.91157 87.6259 6.72157 89.0759L6.21157 93.4459C6.10157 94.1759 6.08157 94.9059 6.05157 95.6359L5.95157 97.8359C5.75157 103.696 6.08157 109.596 7.18157 115.376C8.23157 121.146 9.75157 126.866 12.0316 132.276C14.2716 137.686 16.9316 142.966 20.3416 147.736C23.7116 152.526 27.4816 156.996 31.8716 160.936C36.2316 164.896 40.9916 168.446 45.9716 171.716C55.9416 178.266 66.7216 183.726 77.5016 189.356C88.2716 195.006 99.1916 200.746 109.162 208.286C114.132 212.056 118.842 216.286 122.942 221.126C127.072 225.936 130.492 231.426 132.962 237.316C133.562 238.796 134.202 240.256 134.622 241.806C135.072 243.336 135.612 244.846 135.992 246.396L136.972 251.056C137.272 252.616 137.402 254.186 137.612 255.746C138.282 262.006 138.322 268.266 138.012 274.416C137.642 281.976 136.872 289.406 136.382 296.776C135.892 304.136 135.662 311.446 136.412 318.596C136.512 319.486 136.542 320.396 136.712 321.266L137.162 323.906C137.332 324.776 137.422 325.676 137.652 326.526L138.332 329.096C139.142 332.546 140.502 335.836 142.022 339.026C143.532 342.226 145.452 345.216 147.562 348.056C149.662 350.906 152.082 353.526 154.682 355.956C155.962 357.196 157.352 358.316 158.722 359.466C160.152 360.546 161.552 361.656 163.052 362.646C164.512 363.686 166.062 364.606 167.582 365.556C169.152 366.436 170.702 367.366 172.322 368.156C178.732 371.476 185.562 374.036 192.552 376.076C206.552 380.116 221.212 381.936 235.822 382.136C243.852 382.176 251.922 381.846 259.942 381.146C267.972 380.436 275.962 379.286 283.922 377.756L283.652 377.806C291.932 376.076 300.062 373.746 307.892 370.696C315.722 367.646 323.192 363.796 330.132 359.196C331.832 358.186 333.352 356.936 334.952 355.776C335.742 355.186 336.552 354.616 337.322 354.006L339.572 352.076C342.652 349.566 345.412 346.836 348.002 343.876C353.192 337.986 357.422 331.196 360.712 323.996C363.992 316.786 366.212 309.076 367.302 301.256C368.352 293.426 368.182 285.466 366.592 277.846C365.012 270.226 361.852 263.036 357.342 256.886C356.752 256.136 356.222 255.336 355.592 254.626L353.722 252.466L351.682 250.436C350.992 249.766 350.352 249.056 349.592 248.466C348.102 247.256 346.712 245.936 345.102 244.876L342.762 243.196C341.962 242.666 341.122 242.186 340.302 241.676C333.712 237.676 326.492 234.656 319.062 232.266C311.642 229.856 304.042 227.966 296.452 226.126C294.042 225.556 290.772 224.906 287.222 224.056Z" fill="black"/>
</svg>
