<svg width="229" height="494" viewBox="0 0 229 494" fill="none" xmlns="http://www.w3.org/2000/svg">
<path d="M228.45 289.458C228.312 292.776 227.992 298.219 226.773 304.863C225.555 311.507 223.383 319.268 220.25 327.213C217.117 335.159 212.939 343.195 208.359 350.645C203.741 358.068 198.73 364.904 194.076 370.659C183.183 383.873 171.154 396.089 158.099 407.085C145.054 418.091 131.156 427.997 116.772 437.033C87.9691 455.122 57.361 469.803 26.5422 483.429C16.8952 487.681 0.533023 494.939 0.019986 492.896C-0.520535 490.76 9.94175 484.804 26.6613 477.299C46.8712 468.181 66.9988 458.76 86.4942 448.222C105.944 437.638 124.761 425.908 142.104 412.446C154.737 402.549 166.684 391.818 177.604 380.125C183.119 374.325 188.341 368.277 193.133 361.908C197.933 355.548 202.413 348.959 206.288 342.041C210.164 335.122 213.572 327.947 216.173 320.496C218.766 313.037 220.708 305.367 221.615 297.568C222.513 289.77 222.522 281.862 221.551 274.082C220.507 266.32 218.491 258.695 215.404 251.539C212.591 245.142 208.872 239.14 204.337 233.898C199.802 228.675 194.351 224.221 188.35 220.73C182.359 217.22 175.753 214.737 168.965 213.408C162.176 212.079 155.168 211.942 148.425 213.206C147.573 213.307 146.749 213.545 145.924 213.765L143.441 214.407C141.811 214.92 140.226 215.561 138.622 216.139C135.517 217.477 132.576 219.218 129.864 221.27C124.431 225.385 119.924 230.773 116.69 236.821C113.456 242.86 111.404 249.577 111.028 256.368C110.625 263.14 111.88 269.995 115.032 275.905C117.936 281.523 122.407 286.205 127.739 289.559C133.135 292.822 139.337 294.847 145.732 295.534C158.539 296.964 171.887 293.857 183.083 287.433C185.868 285.793 188.561 284.006 191.035 281.944C193.499 279.882 195.817 277.655 197.869 275.209C199.921 272.808 201.625 269.985 203.439 267.291L205.784 263.003L206.371 261.93C206.563 261.573 206.71 261.188 206.884 260.822L207.882 258.586C210.502 252.611 212.5 246.324 213.691 239.845C214.075 238.242 214.286 236.611 214.524 234.97C214.753 233.339 215.047 231.717 215.156 230.059L215.596 225.11L215.789 220.134C215.88 218.705 215.825 217.266 215.825 215.836C215.807 214.398 215.834 212.968 215.77 211.529C215.605 208.652 215.55 205.784 215.257 202.906C215.129 201.467 215.019 200.029 214.872 198.599L214.35 194.301C214.195 192.863 213.984 191.433 213.755 190.003L213.095 185.715L212.316 181.444C212.069 180.015 211.794 178.594 211.483 177.174L210.585 172.913L209.568 168.67C208.881 165.838 208.221 163.007 207.507 160.184L205.171 151.763C201.918 140.583 198.281 129.485 193.93 118.672L192.335 114.603C191.804 113.247 191.19 111.918 190.631 110.581L187.168 102.544L183.431 94.6354C182.798 93.325 182.212 91.9871 181.534 90.695L179.528 86.8095C178.245 84.3811 176.963 81.7878 175.479 79.2127C173.985 76.6377 172.446 73.9985 170.898 71.3226C170.137 69.9756 169.304 68.6651 168.47 67.3455C167.646 66.026 166.821 64.7064 165.997 63.3868C165.181 62.0672 164.366 60.7568 163.56 59.4463C162.717 58.1634 161.883 56.8896 161.059 55.6342C159.694 53.554 158.127 51.1073 156.395 48.5231C154.609 45.9755 152.703 43.263 150.807 40.5505C149.873 39.1759 148.883 37.8564 147.903 36.5551C146.932 35.2538 145.97 33.9617 145.044 32.7246C144.119 31.4783 143.231 30.2778 142.388 29.1415C141.508 28.0235 140.684 26.9697 139.923 26.0075C137.285 22.6627 134.628 19.1163 131.779 16.0648C128.563 12.5092 126.007 9.55844 123.909 7.3133C121.857 5.03151 120.428 3.30869 119.613 2.10823C117.973 -0.283532 118.751 -0.595092 121.82 0.944431C123.167 1.62255 122.535 -0.0452489 125.998 3.1346C126.145 3.26289 126.429 3.52864 126.566 3.64777C137.294 13.1323 146.144 24.8987 154.829 36.775C176.111 65.9985 193.096 98.356 205.088 132.482C205.464 133.545 205.867 134.608 206.224 135.68L207.269 138.906L209.348 145.366C210.081 147.511 210.631 149.701 211.272 151.873L213.132 158.397C214.277 162.768 215.331 167.167 216.43 171.566L217.868 178.219L219.123 184.908C220.672 193.861 221.716 202.924 221.991 212.061C222.266 221.188 221.771 230.388 220.122 239.461L219.252 243.612L218.812 245.692L218.235 247.736L217.08 251.832C216.641 253.179 216.128 254.508 215.66 255.846C214.781 258.549 213.498 261.106 212.353 263.708C212.078 264.368 211.739 264.991 211.391 265.614L210.356 267.484L209.321 269.353C208.982 269.976 208.643 270.608 208.221 271.186L205.849 274.751C205.097 275.951 204.181 277.087 203.283 278.233C202.395 279.387 201.378 280.423 200.425 281.513C199.39 282.521 198.4 283.584 197.31 284.538C193.013 288.395 188.231 291.685 183.101 294.26C177.97 296.835 172.547 298.806 166.958 300.089C161.361 301.335 155.608 301.949 149.836 301.756C144.073 301.5 138.274 300.556 132.796 298.494L130.753 297.697C130.075 297.422 129.424 297.083 128.756 296.771C127.409 296.185 126.154 295.397 124.862 294.682C122.379 293.097 119.942 291.374 117.835 289.284C117.24 288.735 116.644 288.176 116.113 287.562L114.482 285.756C113.511 284.455 112.439 283.218 111.605 281.816C109.792 279.122 108.317 276.153 107.235 273.064C105.055 266.879 104.423 260.189 105.22 253.71L105.193 253.93C105.852 247.14 107.868 240.551 110.964 234.521C114.061 228.492 118.257 223.012 123.396 218.512C128.215 214.251 134.051 210.879 140.235 208.899C146.4 206.847 152.932 205.93 159.4 206.077C172.373 206.37 185.034 210.723 195.679 217.852C201.02 221.417 205.821 225.761 209.916 230.682C213.993 235.584 217.355 240.982 220.039 246.645C225.399 257.981 228.037 270.251 228.385 282.21C228.45 283.154 228.477 284.263 228.495 285.481C228.45 286.746 228.523 288.075 228.45 289.458Z" fill="black"/>
</svg>
