<svg width="570" height="318" viewBox="0 0 570 318" fill="none" xmlns="http://www.w3.org/2000/svg">
<path d="M400.258 256.359C400.671 260.391 400.973 267.127 399.727 275.383C399.654 275.896 399.58 276.419 399.507 276.95C399.434 277.482 399.361 278.013 399.223 278.545C398.976 279.608 398.728 280.698 398.472 281.807C398.041 284.043 397.217 286.27 396.466 288.588C396.273 289.166 396.081 289.752 395.888 290.339C395.659 290.916 395.43 291.493 395.192 292.08C394.707 293.244 394.175 294.407 393.607 295.571C392.462 297.899 391.134 300.217 389.567 302.453C386.461 306.916 382.33 311.113 377.19 313.991C371.977 316.923 365.857 318.169 359.948 317.473C356.989 317.125 354.067 316.291 351.401 314.907C348.735 313.542 346.344 311.571 344.511 309.28C342.643 306.989 341.378 304.259 340.7 301.519C340.004 298.769 339.958 296.029 340.251 293.491C340.59 290.549 341.424 287.736 342.597 285.124C343.76 282.513 345.226 280.057 346.967 277.83C350.43 273.376 354.845 269.638 360.077 267.2C361.378 266.586 362.752 266.082 364.126 265.651C365.463 265.321 366.792 264.891 368.148 264.652C369.504 264.396 370.86 264.121 372.215 263.993C372.893 263.919 373.58 263.809 374.258 263.764L376.301 263.635C381.743 263.333 387.084 263.809 392.297 264.506C402.732 265.917 412.663 268.391 422.585 269.179C432.543 269.986 442.621 269.729 452.524 268.245C472.358 265.321 491.542 258.045 508.555 247.36C517.048 241.999 525.082 235.869 532.31 228.886C539.557 221.931 546.162 214.279 551.751 205.931C553.537 203.346 555.452 200.194 557.339 196.941C558.237 195.291 559.199 193.651 560.051 192.002C560.903 190.343 561.727 188.73 562.515 187.2C563.972 184.093 565.355 181.381 566.308 179.438C567.316 177.523 568.122 176.451 568.58 176.716C569.057 176.991 569.176 178.082 568.956 179.915C568.846 180.831 568.654 181.931 568.379 183.195C568.049 184.441 567.627 185.862 567.124 187.438C565.026 193.697 561.086 202.375 554.518 211.704C538.577 234.256 516.214 252.034 490.983 262.966C478.387 268.501 465.02 272.222 451.415 274.091C444.609 275.035 437.738 275.392 430.876 275.301C427.44 275.301 424.014 275.035 420.597 274.769L415.485 274.201C413.79 273.972 412.104 273.734 410.427 273.459C400.634 271.901 391.051 269.803 381.542 269.573C380.351 269.509 379.178 269.573 377.996 269.583C376.814 269.61 375.651 269.729 374.478 269.793C372.16 270.059 369.852 270.398 367.616 270.994L365.94 271.434C365.39 271.59 364.886 271.782 364.364 271.956C363.338 272.368 362.312 272.808 361.341 273.349C359.371 274.412 357.521 275.722 355.826 277.216C352.445 280.213 349.697 283.988 347.956 288.084C346.243 292.181 345.62 296.698 346.802 300.666C347.956 304.616 350.934 307.952 354.754 309.72C358.574 311.535 363.164 311.919 367.47 311.076C369.623 310.655 371.712 309.931 373.635 308.914C375.596 307.869 377.428 306.568 379.105 305.074C382.467 302.068 385.206 298.284 387.377 294.169C388.459 292.107 389.42 289.972 390.218 287.764L391.317 284.401L391.867 282.724C392.041 282.165 392.141 281.578 392.288 281.001L393.085 277.555L393.277 276.694L393.397 275.814L393.644 274.055C393.79 272.882 394.01 271.718 394.102 270.545L394.303 266.998L394.404 265.23C394.413 264.634 394.386 264.048 394.377 263.452L394.294 259.896C394.285 258.714 394.093 257.532 394.001 256.35C393.873 255.168 393.8 253.977 393.616 252.804C392.865 248.103 391.931 243.411 390.456 238.856C387.634 229.72 383.585 220.932 378.427 212.822C373.828 205.509 368.413 198.783 362.385 192.524C356.375 186.265 349.853 180.483 343.009 175.058C329.322 164.208 314.453 154.787 299.547 145.33C284.633 135.891 269.636 126.26 255.729 115.035C248.784 109.426 242.106 103.415 235.94 96.8719C229.784 90.3289 224.131 83.2453 219.358 75.5568C214.851 68.3815 211.021 60.6014 208.685 52.244C207.54 48.0562 206.789 43.7308 206.605 39.323C206.413 34.9152 206.807 30.4524 207.98 26.0996C209.161 21.701 211.177 17.5864 213.825 13.9392C216.463 10.2829 219.798 7.11217 223.664 4.65626C227.521 2.22785 231.982 0.486722 236.7 0.101841C241.428 -0.264712 246.173 0.596687 250.433 2.61273C254.712 4.61045 258.303 7.77197 261.134 11.3092C263.983 14.8648 266.081 18.8327 267.748 22.9015C271.01 31.0756 272.531 39.6804 272.888 48.3036C273.117 56.8534 272.631 65.2933 271.431 73.7149C270.249 82.1181 268.307 90.4297 265.605 98.5031C260.923 112.414 253.759 125.71 243.681 136.68C241.18 139.429 238.487 142.004 235.629 144.396C234.227 145.614 232.724 146.723 231.24 147.859C229.71 148.922 228.199 150.022 226.605 150.984C225.047 152.011 223.407 152.89 221.795 153.816C220.137 154.659 218.506 155.548 216.802 156.29C215.125 157.097 213.394 157.766 211.681 158.471C209.94 159.103 208.209 159.772 206.44 160.304C192.314 164.822 177.518 165.967 163.052 165.701C148.541 165.426 134.221 163.75 120.003 162.091C113.297 161.33 105.94 160.487 98.4554 160.029C90.9614 159.552 83.3025 159.397 76.0375 159.58C70.0276 159.708 62.0206 160.212 54.1601 161.504C46.2905 162.732 38.6499 164.84 33.1531 166.893C28.3984 168.634 23.607 170.861 19.4752 173.546C10.0115 179.786 5.50411 185.413 3.03054 187.731C0.611939 190.123 0.172193 189.427 1.65633 185.578C1.98614 184.726 1.73879 184.606 1.80292 184.093C1.83956 183.837 1.95866 183.498 2.29763 182.92C2.6366 182.352 3.16796 181.527 4.13907 180.446C4.29481 180.263 4.6063 179.896 4.75288 179.731C10.4696 172.913 18.0827 167.589 26.3371 163.841C34.6189 160.084 43.4963 157.802 52.4195 156.244C63.3948 154.347 74.5167 153.77 85.5653 153.963C91.0896 154.073 96.6048 154.375 102.102 154.842C107.608 155.31 113.049 155.942 118.482 156.547C129.348 157.766 140.167 159.003 150.987 159.662C161.797 160.313 172.626 160.432 183.28 159.232C193.917 158.04 204.397 155.548 214.008 151.067C218.808 148.84 223.398 146.164 227.649 143.039C231.891 139.896 235.812 136.313 239.366 132.391C246.512 124.556 252.064 115.31 256.315 105.532C260.511 95.7081 263.369 85.298 265.027 74.7046C266.026 68.1983 266.621 61.6278 266.75 55.039C266.805 53.3987 266.777 51.74 266.777 50.0997C266.75 48.4777 266.686 46.8649 266.557 45.2429C266.319 42.008 265.852 38.7915 265.22 35.63C263.891 29.3253 261.784 23.1397 258.413 17.8705C256.746 15.2313 254.739 12.8671 252.421 10.9518C250.104 9.02741 247.447 7.61618 244.598 6.78227C241.721 5.97586 238.743 5.78342 235.821 6.22328C232.898 6.66314 230.049 7.74448 227.438 9.29316C222.207 12.3814 217.947 17.284 215.4 22.8648C212.835 28.3906 212.093 34.8144 212.615 41.0733C213.137 47.3689 214.997 53.582 217.535 59.5018C218.946 62.7458 220.549 65.9073 222.4 68.9589C223.343 70.4801 224.223 72.0379 225.221 73.5225L228.244 77.9669C232.44 83.7951 237.14 89.2934 242.151 94.5901L241.977 94.4068C252.623 105.321 264.844 114.686 277.478 123.456C301.407 140.024 328.103 154.412 351.382 173.766C362.981 183.397 373.69 194.302 382 206.874C390.337 219.346 396.237 233.294 398.957 247.663C399.159 248.799 399.406 250.128 399.672 251.594C399.828 252.327 399.91 253.097 399.993 253.903C400.084 254.682 400.167 255.516 400.258 256.359Z" fill="black"/>
</svg>
