<svg xmlns="http://www.w3.org/2000/svg" viewBox="300.157074 97.908858 247.74793199999993 170.92425500000002" width="400" height="300"><path d="M354.657467,153.68423 C368.459805,149.808995 381.375355,147.195368 395.739465,146.48974 C402.097554,146.176936 408.253156,146.374387 414.540634,146.431544 C418.160477,146.464799 420.918453,143.545642 418.026524,140.187936 C414.024552,135.538485 401.817187,137.30827 396.408191,137.099387 C381.910128,136.53925 368.616603,138.187446 354.885913,142.966799 C356.337589,140.291858 359.825556,139.94476 362.216978,138.561564 C365.149404,136.863485 367.143121,134.066956 368.396463,130.962819 C371.655983,122.890191 368.374657,115.283132 364.96457,107.908858 C371.663252,109.710858 378.592458,113.65676 385.326446,114.658564 C386.738662,114.868485 387.644142,114.733387 388.89333,115.247799 C389.659666,115.562681 389.901611,116.652819 390.851742,116.890799 C391.310713,117.006152 392.413488,115.969015 392.932685,116.115544 C394.983514,116.695426 393.361542,116.84923 394.658496,117.688917 C395.687545,118.355054 395.604474,119.212407 397.492275,118.897525 C398.329221,118.759309 399.236777,117.464446 399.678095,117.429113 C400.239866,117.383387 400.110067,116.699583 400.969858,116.899113 C402.53368,117.262838 402.395573,119.277877 402.916847,120.269289 C403.473426,121.325132 402.683208,122.729113 404.370599,123.306917 C405.632248,123.73923 405.948959,122.406956 407.02162,122.502564 C407.672693,122.56076 409.024683,123.499172 409.599954,124.07074 C411.453488,125.91223 413.991324,127.945975 416.48347,129.144191 C416.238409,128.897897 417.657894,128.304505 417.318339,128.16525 C417.089892,128.07276 418.581027,128.432328 418.558182,128.427132 C419.997397,128.754485 420.757502,130.963858 421.484378,131.76925 C422.82183,133.245975 424.899657,134.804799 426.773959,135.456387 C430.014788,136.583936 429.91614,135.236074 431.098871,139.087407 C433.403069,135.464701 434.286742,141.531642 437.144404,142.199858 C438.624116,142.545917 438.451742,141.911995 439.796463,142.686211 C440.719596,143.21725 441.335364,144.843623 442.031088,145.62823 C442.330145,144.496525 442.628165,143.363779 442.926184,142.233113 C444.984282,146.13225 449.426533,152.315583 454.29868,151.197387 C454.29868,152.261544 453.860477,153.533544 454.683924,154.441819 C455.259194,155.076779 456.190634,154.355564 456.641297,154.724485 C457.03381,155.046642 457.973557,156.329034 458.274692,156.539995 C458.867615,156.955681 459.94443,157.259132 460.459474,157.673779 C460.913252,158.038544 461.137545,159.781309 461.641166,160.411074 C462.587144,161.59474 464.222615,161.829603 464.996219,163.249172 C465.172746,161.849348 465.349273,160.448485 465.524762,159.048662 C467.059508,160.234407 467.191385,161.155152 467.568322,162.889603 C468.105172,165.359819 467.392833,164.780975 469.096838,165.823309 C470.77073,166.849015 471.64402,166.733662 473.178767,168.512799 C474.6834,170.256603 474.696899,171.331152 476.868182,169.514603 C477.272118,170.858309 477.401917,172.596917 478.47977,173.626779 C479.293871,174.405152 482.665538,174.438407 482.98744,176.276779 C476.653234,170.932093 480.82135,179.049407 482.990556,176.290289 C483.448488,179.24374 485.610425,180.19774 488.078688,182.301113 C490.380809,184.261074 490.757746,184.118701 491.54381,187.411975 C491.526158,187.33923 492.700582,188.067721 492.78573,188.213211 C490.542798,188.533289 494.020381,191.039877 494.608112,191.498172 C495.036969,191.832799 495.595625,191.033642 496.307964,191.575074 C497.123104,192.194446 497.786638,193.602583 498.450172,194.451623 C500.247632,196.753485 501.577816,198.731113 503.46977,200.60274 C505.511254,202.622975 506.503959,205.176328 508.464447,207.537426 C510.638845,210.159368 511.815346,213.174132 513.633575,216.020544 C515.362502,218.727701 517.658392,220.900701 519.660416,223.37923 C522.851402,227.324093 523.936524,236.011936 529.885486,236.240564 C529.536585,236.601172 530.021515,239.293779 530.078627,239.790525 C530.360032,242.235799 530.173121,244.588583 531.619604,246.803152 C531.950852,244.276819 533.272728,245.250564 534.421193,246.577642 C536.3308,248.785975 534.653793,248.229995 534.754517,250.467426 C534.877048,253.179779 535.185451,251.081603 536.218653,253.449975 C537.027563,255.304975 537.470957,256.508387 537.905006,258.567074 C534.544762,258.833113 533.005861,256.087505 531.763941,253.427113 C531.244744,252.314113 531.065102,250.485093 530.146123,249.61527 C529.167955,248.689328 527.824273,248.616583 526.819107,247.583603 C524.88977,245.598701 524.053863,242.503917 521.779779,240.572015 C519.210791,238.389662 518.641751,237.35876 516.518234,234.749289 C514.169386,231.863387 510.925442,229.836917 508.461332,227.045583 C505.993069,224.249054 506.193479,225.775662 503.092833,224.763466 C499.795931,223.685799 494.464814,213.319623 490.311236,217.312289 C490.475303,214.70074 486.563671,212.244034 484.586568,211.297309 C483.731969,210.888897 482.737187,211.258858 481.88155,210.645721 C480.954264,209.980623 480.887807,208.69823 479.952214,207.900113 C479.953252,207.901152 478.518191,208.24825 478.22744,208.101721 C477.634517,207.801387 477.630364,206.739309 477.107013,206.390132 C475.659491,205.422623 473.93368,204.408348 472.397894,203.58425 C468.663828,201.581681 465.36381,199.115623 461.760582,196.704642 C458.674474,194.638681 454.93833,190.907897 451.370407,189.818799 C448.254186,188.867917 446.294735,189.352191 443.7434,187.447309 C442.35299,186.410172 442.762118,186.062034 440.528531,185.416681 C438.401899,184.802505 437.207746,185.118426 436.081088,182.863328 C434.110215,178.917426 435.354212,171.215799 434.973121,166.790819 C434.568147,162.094603 434.087371,157.281995 432.863104,152.715681 C431.414543,147.319034 429.501821,144.497564 423.712772,145.768525 C412.242667,148.289662 400.911707,150.688172 389.389683,152.901701 C366.429744,157.312132 343.864395,164.50974 321.409116,170.899877 C319.69888,171.38727 310.157074,173.571701 312.10614,168.637505 C313.004351,166.361623 319.043653,165.513623 321.065407,164.798642 C332.163767,160.870407 343.313008,156.868387 354.657467,153.68423 " stroke="black" stroke-width="3" fill="none" /></svg>