<svg xmlns="http://www.w3.org/2000/svg" viewBox="366.58005 179.152662 201.30470300000002 227.68101900000002" width="400" height="300"><path d="M554.926367,334.566995 C555.265922,339.032505 555.000093,343.549975 555.595093,347.997819 C556.047833,351.381505 557.418514,354.530328 557.564927,357.952466 C557.884753,365.447289 555.354186,373.079289 550.243208,378.573623 C545.408444,383.77074 538.49066,388.243525 531.964351,390.428995 C529.023618,391.412093 525.954125,393.593407 523.097502,394.399838 C519.937667,395.292525 516.935669,393.35023 514.329299,396.833681 C512.591027,381.891838 513.860983,366.278662 513.723915,351.24225 C513.586847,336.173623 513.748837,321.099799 511.199578,306.193289 C508.929648,292.917309 504.454168,277.984819 496.205163,267.123975 C492.854264,262.713544 488.728723,259.10123 484.377851,255.719623 C482.120381,253.965426 479.861873,252.089642 477.34792,250.704368 C473.477824,248.571897 470.181961,248.867034 465.973348,248.259093 C459.949622,247.38927 454.350599,246.654544 448.305067,248.350544 C442.676969,249.930152 436.478793,251.729034 431.437388,254.472564 C426.415713,257.20674 420.58409,258.33325 415.37135,260.781642 C411.825233,262.447505 404.458863,268.012505 400.524386,267.010701 C396.715556,266.040074 391.078112,259.576152 388.646193,256.680897 C385.538278,252.98025 382.967214,248.691407 380.210276,244.710172 C379.242493,243.312426 377.268505,241.151897 377.017214,239.357172 C376.58005,236.241603 377.8282,237.260034 380.804238,237.608172 C388.457205,238.506054 395.654317,239.925623 402.988496,242.334525 C406.638453,243.53274 413.775337,248.381721 417.425294,245.476074 C422.998357,241.039662 414.53025,233.414936 411.428566,230.85327 C406.144177,226.488564 399.999997,223.24725 394.366707,219.368897 C388.38244,215.247368 380.468837,210.859799 376.617432,204.513309 C387.864282,207.833603 399.099709,211.636093 410.018426,215.916623 C415.014142,217.874505 419.951707,219.943583 424.643173,222.547858 C427.278618,224.010034 432.603505,227.965289 435.776838,226.070799 C442.675931,221.952387 426.83107,209.992054 424.544526,207.547819 C420.992179,203.749485 417.511481,199.987525 413.607118,196.541485 C410.972711,194.21676 406.834709,192.582074 405.610442,189.152662 C409.982083,190.735387 413.516777,193.835368 417.611166,195.941858 C419.754413,197.045505 421.709709,197.680466 424.077248,198.018211 C426.600547,198.379858 426.901681,198.782034 428.890207,199.784877 C430.438453,200.567407 432.029273,201.612858 433.767545,202.144936 C435.00635,202.52425 437.170364,202.589721 438.253409,203.29223 C438.806873,204.082034 439.37799,204.858328 439.968837,205.621113 C440.629255,205.815446 441.27929,206.038877 441.91998,206.293485 C442.880495,207.149799 443.449535,208.330348 444.38409,209.213681 C451.164805,215.625642 460.234142,220.214819 467.836228,225.586525 C475.028147,230.668289 482.660346,235.265779 489.567746,240.812074 C497.516655,247.195975 505.766699,254.056877 512.527685,261.71174 C516.348976,266.037995 519.490119,270.943093 522.699796,275.726603 C525.023723,279.190309 528.403697,282.06374 530.411952,285.635525 C534.791899,293.422368 538.427318,301.840015 543.141629,309.501113 C547.94628,317.307701 554.204683,325.064407 554.926367,334.566995 " stroke="black" stroke-width="3" fill="none" /></svg>