<svg xmlns="http://www.w3.org/2000/svg" viewBox="304.897344 261.669505 210.49345600000004 240.812549" width="400" height="300"><path d="M493.606062,439.004015 C491.915556,444.827779 490.163784,443.325074 484.863819,444.453662 C479.546201,445.585368 475.870285,450.10076 471.189203,452.522132 C472.815329,449.084407 473.82361,444.895328 476.54628,442.106074 C477.175547,441.46176 481.034221,440.18976 478.83594,438.697446 C476.913871,437.39323 474.150704,441.625956 473.326219,442.779485 C469.271289,448.456721 466.435433,455.389328 464.093854,461.921838 C462.942275,465.129897 462.02018,468.39823 461.475023,471.767368 C460.989055,474.769662 461.513444,477.911211 461.01813,480.835564 C460.220643,485.545289 453.824133,485.569191 449.976882,486.784034 C446.494107,487.882485 443.026908,489.074466 439.412257,489.666819 C436.278383,490.180191 433.026132,489.244897 429.988828,489.862191 C426.700233,490.530407 425.222598,492.482054 421.484378,492.040387 C418.43669,491.681858 415.585259,490.279956 412.496036,490.139662 C409.605145,490.00976 406.721524,491.009485 403.848287,490.195779 C400.948051,489.37376 401.088234,489.05576 401.747615,486.20623 C402.159858,486.97525 402.573139,487.74427 402.986419,488.51225 C404.142152,487.606054 404.941716,484.842779 405.649901,483.544799 C406.748522,481.534956 407.643618,480.839721 407.236568,478.33625 C406.636376,474.638721 403.30313,472.008466 402.547179,468.49176 C401.757999,464.822289 404.471324,461.822074 406.074604,458.758466 C408.266655,454.56523 408.23758,451.455897 406.40066,447.11925 C407.785878,447.485054 409.171097,447.850858 410.557353,448.217701 C408.65813,444.095132 402.218008,445.766191 398.988601,446.98727 C397.365591,447.600407 394.793488,450.012426 393.046908,449.951113 C390.647179,449.866936 389.395913,446.711877 388.364788,444.974309 C385.380442,439.947623 381.97347,434.983289 378.442929,430.316172 C377.47203,429.03274 376.199997,428.207603 376.535399,426.744387 C376.820957,425.503564 379.603854,423.743132 380.507257,422.97827 C383.893461,420.11523 388.202798,418.528348 391.3834,415.514623 C396.190128,410.960779 401.733077,407.697642 406.64676,403.233172 C411.767083,398.582681 417.042126,394.311505 422.377397,389.916662 C427.781201,385.465701 432.462283,380.220779 437.826629,375.724093 C439.217039,378.243152 441.909596,387.262505 444.989474,387.960858 C448.580241,388.773525 448.473287,384.525211 448.294683,381.96874 C448.040276,378.32525 446.017484,374.785681 445.792152,371.308466 C445.550207,367.589113 449.128514,365.926368 451.829378,363.775191 C456.000608,360.451779 465.232973,352.882132 460.270486,346.652034 C455.995416,341.285525 442.093392,351.574799 438.261716,354.668544 C435.005311,357.29776 432.489282,359.675485 428.822711,361.74976 C426.244378,363.20674 421.919465,368.81227 418.86347,368.29474 C415.228051,367.679525 413.807528,363.709721 409.361123,363.840662 C405.015442,363.967446 401.32395,367.097564 398.629317,370.240152 C392.537056,377.343191 390.443653,386.847858 384.892397,394.25227 C382.155189,397.903034 378.604919,400.91676 375.636149,404.371113 C372.375591,408.162172 371.682981,412.529995 368.468112,416.239995 C359.267938,403.983485 349.244317,392.378564 339.542598,380.52423 C334.697449,374.604858 329.953025,368.614819 325.211716,362.612309 C323.435023,360.362407 321.430922,358.25176 319.803758,355.888583 C317.575364,352.652466 317.976184,350.053387 317.100817,346.444191 C316.713496,344.844838 314.897344,342.928525 315.383313,341.399838 C316.037502,339.345309 320.63032,337.732446 322.286559,336.89276 C329.049622,333.459191 335.184456,329.16827 341.490625,324.973995 C353.169447,317.207936 364.983261,309.925113 377.403496,303.291799 C377.189587,306.149642 375.329823,309.111407 376.579011,311.978603 C377.160512,310.329368 378.081568,302.981074 380.284002,302.665152 C379.862414,302.725426 380.209238,312.08876 380.549831,313.425191 C381.566419,317.41474 384.51546,320.142681 388.735495,320.115662 C396.771629,320.063701 403.974971,311.321819 408.435913,305.53027 C411.455564,301.609309 414.356838,297.04923 415.420154,292.142054 C416.376515,287.735779 415.324622,284.671132 419.90498,282.433701 C429.303488,277.843485 438.77676,274.103348 448.828418,271.669505 C448.377755,276.000956 447.122336,281.333172 451.058889,284.44874 C455.40457,287.887505 461.090817,284.822858 465.182091,282.548015 C469.234945,280.294995 475.484002,274.105426 480.244002,275.90327 C484.926123,277.672015 488.184604,283.543583 490.805512,287.442721 C493.114901,290.879407 495.628854,293.357936 492.95395,297.188485 C489.956105,301.481485 488.004962,305.671603 485.603156,310.334564 C484.680023,312.127211 483.799465,313.296328 484.451577,315.132623 C484.663409,315.729132 487.070407,319.278054 487.723557,319.78623 C491.893749,323.031701 497.524962,316.85876 500.502039,314.515328 C501.551856,324.606113 501.786533,334.652211 502.210198,344.774172 C502.520678,352.187936 505.3908,359.486348 499.306847,364.905858 C493.224971,370.323289 488.148261,375.885172 484.441193,383.220995 C482.460974,387.139877 480.68532,391.161642 478.543112,394.999466 C477.112205,397.563211 474.093592,401.323093 475.940896,404.340975 C477.889962,402.491172 478.470425,399.679054 480.094474,397.593348 C481.067449,401.921681 482.046655,406.723897 486.624936,408.558113 C491.892711,410.66876 497.128296,407.016956 501.793802,404.98425 C500.120948,416.555917 496.858313,427.80023 493.606062,439.004015 " stroke="black" stroke-width="3" fill="none" /></svg>