<svg width="567" height="27" viewBox="0 0 567 27" fill="none" xmlns="http://www.w3.org/2000/svg">
<path fill-rule="evenodd" clip-rule="evenodd" d="M386.62 0.124053C381.906 0.107938 378.105 0.094948 375.903 0.0913075C375.014 0.0913075 374.168 0.118182 373.404 0.142445C372.775 0.162412 372.202 0.18061 371.706 0.18061C353.572 0.0391921 334.39 0.060517 315.198 0.0818535C304.96 0.093235 294.719 0.10462 284.633 0.0913075C279.232 0.0823061 273.825 0.14953 268.416 0.216778C266.19 0.244447 263.964 0.27212 261.738 0.294489C256.77 0.165986 251.843 0.27107 246.932 0.375789C244.605 0.425409 242.283 0.474947 239.961 0.499513C220.453 0.706649 200.903 0.69835 181.357 0.690053C174.421 0.687109 167.486 0.684166 160.554 0.690848C147.866 0.705854 135.177 0.715345 122.488 0.724837C92.0306 0.747618 61.5709 0.770402 31.1175 0.869452C28.9243 0.875818 26.7352 0.836909 24.5524 0.798113C17.9876 0.681434 11.4802 0.565776 5.095 1.68582C5.03759 1.6922 4.95147 1.70496 4.86536 1.71773C4.77924 1.73049 4.69312 1.74325 4.63572 1.74963C2.74552 2.00738 2.57406 2.40981 2.40241 2.8127C2.31921 3.00797 2.23597 3.20335 1.95696 3.38241C-1.93366 5.8571 1.14058 6.63521 12.7359 6.27804C14.8623 6.2136 17.0972 6.28479 19.2884 6.35458C19.6998 6.36769 20.1097 6.38074 20.5171 6.39284C25.3774 6.54862 32.9433 6.58603 38.8438 6.61521C40.1908 6.62187 41.4511 6.6281 42.5725 6.63521C46.224 6.6544 50.0581 6.56459 53.8115 6.47667C57.5451 6.38921 61.1988 6.30363 64.513 6.32908C75.5654 6.41893 86.6159 6.56154 97.666 6.70414C114.852 6.92592 132.037 7.14769 149.227 7.17099C167.921 7.19285 186.616 7.04814 205.313 6.90341C219.34 6.79484 233.368 6.68625 247.398 6.64798C265.791 6.59412 284.184 6.60777 302.577 6.62143C319.033 6.63364 335.49 6.64586 351.947 6.60971C364.501 6.58083 377.053 6.59599 389.606 6.61116C415.856 6.64288 442.109 6.6746 468.385 6.30354C487.976 6.02125 507.713 6.24568 527.432 6.4699C534.444 6.54964 541.455 6.62936 548.455 6.68625C559.477 6.77554 566.671 5.47441 566.901 3.21658C567.102 1.19827 557.812 1.04737 551.423 0.943591C550.948 0.935866 550.488 0.928402 550.05 0.920449C509.6 0.193349 469.036 0.16784 428.484 0.206108C415.959 0.22434 398.425 0.164403 386.62 0.124053ZM281.878 18.9964C270.78 19.0857 253.457 19.0602 248.571 19.0475C248.011 19.0475 247.478 19.0782 246.997 19.106C246.601 19.1287 246.241 19.1495 245.931 19.1495C235.19 19.0562 223.871 19.0814 212.511 19.1066C205.226 19.1227 197.925 19.139 190.748 19.124C187.518 19.1155 184.282 19.175 181.045 19.2345C179.443 19.2639 177.841 19.2933 176.239 19.3146C173.058 19.176 169.906 19.2812 166.768 19.3859C165.319 19.4343 163.873 19.4825 162.429 19.5067C151.506 19.6814 140.561 19.6933 129.611 19.7052C123.772 19.7116 117.932 19.718 112.093 19.749C84.7315 19.8766 57.3695 20.0679 30.0203 20.6547C28.6316 20.6865 27.2444 20.6731 25.8614 20.6598C21.693 20.6197 17.5623 20.58 13.5394 21.7773C13.4757 21.8028 13.3353 21.841 13.2588 21.8538C12.0776 22.1277 11.9761 22.5337 11.8754 22.9369C11.826 23.1346 11.7767 23.3316 11.6005 23.5121C9.18957 26.0251 11.154 26.7777 18.4888 26.2802C19.9066 26.1781 21.4051 26.2273 22.8677 26.2753C23.05 26.2813 23.2317 26.2873 23.4127 26.2929C26.2597 26.3888 30.5618 26.355 34.143 26.3269C35.3273 26.3176 36.4328 26.3089 37.3807 26.3057C39.7105 26.2993 42.1539 26.1759 44.5439 26.0553C46.8909 25.9368 49.1864 25.821 51.272 25.821C59.844 25.8271 68.413 25.9327 76.9805 26.0383C86.3006 26.1531 95.6189 26.268 104.937 26.2547C115.947 26.2343 126.957 26.0917 137.969 25.949C147.689 25.823 157.411 25.697 167.136 25.6551C178.176 25.6488 189.222 25.6392 200.268 25.6296C211.315 25.62 222.363 25.6105 233.404 25.6041C239.553 25.569 245.702 25.5555 251.851 25.5419C270.298 25.5012 288.75 25.4606 307.224 24.8387C318.12 24.4587 329.097 24.4425 340.078 24.4263C346.053 24.4175 352.029 24.4087 357.993 24.3413C364.984 24.2775 369.512 22.8616 369.602 20.6037C369.685 18.5993 363.801 18.5799 359.755 18.5665C359.45 18.5655 359.155 18.5645 358.874 18.5627C338.707 18.4623 318.51 18.6542 298.299 18.8462C292.826 18.8982 287.352 18.9502 281.878 18.9964Z" fill="#4633FF"/>
</svg>
