<svg width="567" height="29" viewBox="0 0 567 29" fill="none" xmlns="http://www.w3.org/2000/svg">
<path fill-rule="evenodd" clip-rule="evenodd" d="M387.812 0.105572C382.481 0.0822613 378.165 0.0633912 375.758 0.0594126C374.801 0.0518229 373.89 0.0984225 373.075 0.140101C372.521 0.168473 372.01 0.194564 371.561 0.199731C353.75 0.0199924 334.93 0.0547907 316.082 0.0896406C305.501 0.109204 294.912 0.128783 284.488 0.110438C279.022 0.10133 273.551 0.189785 268.077 0.278269C265.916 0.313205 263.754 0.348145 261.593 0.377087C256.613 0.205356 251.675 0.344517 246.754 0.483195C244.438 0.548448 242.126 0.613593 239.816 0.646194C220.237 0.920217 200.617 0.914267 181.001 0.908319C174.135 0.906237 167.271 0.904155 160.409 0.914076C148.081 0.935946 135.753 0.951567 123.424 0.967188C92.6066 1.00624 61.7861 1.04529 30.9721 1.18195C28.7767 1.19151 26.5853 1.14058 24.4002 1.0898C17.8377 0.937281 11.3326 0.786096 4.94956 2.27898C4.89216 2.29174 4.80605 2.30768 4.71995 2.32363C4.63384 2.33957 4.54774 2.35552 4.49034 2.36828C2.60039 2.70331 2.42871 3.24084 2.25708 3.77825C2.17385 4.03883 2.09064 4.29938 1.81155 4.53681C-2.07907 7.8279 0.982403 8.87391 12.5905 8.38917C14.92 8.28328 17.3798 8.39443 19.7696 8.50241C19.9708 8.5115 20.1716 8.52057 20.3717 8.52949C25.8007 8.7615 34.6053 8.81416 40.694 8.85058C41.3007 8.85421 41.8804 8.85768 42.4271 8.86114C46.0925 8.88682 49.942 8.76713 53.709 8.65001C57.4278 8.53439 61.0661 8.42126 64.3676 8.45295C75.4853 8.56844 86.601 8.75708 97.7162 8.94571C114.837 9.23625 131.957 9.52677 149.081 9.54998C167.875 9.57928 186.67 9.38132 205.466 9.18333C219.393 9.03664 233.322 8.88993 247.252 8.83564C265.403 8.76255 283.554 8.77598 301.705 8.78941C318.404 8.80176 335.103 8.81411 351.802 8.7591C364.643 8.71267 377.483 8.73049 390.324 8.74832C416.286 8.78436 442.251 8.82041 468.24 8.32539C488.013 7.9455 507.934 8.24441 527.836 8.54302C534.665 8.64549 541.492 8.74792 548.31 8.82288C559.331 8.93768 566.526 7.20285 566.755 4.1924C566.957 1.50007 557.686 1.30001 551.297 1.16214C550.815 1.15173 550.349 1.14168 549.905 1.13093C509.455 0.186974 468.89 0.148704 428.339 0.212485C416.278 0.23004 399.573 0.156999 387.812 0.105572ZM250.094 19.0213C249.446 19.0194 248.889 19.0178 248.439 19.0166C247.932 19.0166 247.444 19.0512 246.997 19.0829C246.543 19.1151 246.132 19.1443 245.785 19.1314C234.976 18.9983 223.576 19.0334 212.137 19.0685C204.933 19.0907 197.713 19.1129 190.615 19.0931C187.385 19.0846 184.15 19.1668 180.912 19.2489C179.31 19.2896 177.707 19.3303 176.105 19.36C172.944 19.1881 169.819 19.327 166.701 19.4657C165.232 19.531 163.765 19.5963 162.296 19.6289C150.95 19.8881 139.581 19.9015 128.207 19.9149C122.792 19.9213 117.376 19.9276 111.961 19.9606C84.5987 20.1136 57.2368 20.3177 29.8749 20.9555C28.4841 20.9905 27.0949 20.9652 25.7098 20.9399C21.5435 20.864 17.4148 20.7886 13.3939 22.3587C13.3448 22.3685 13.2503 22.401 13.1745 22.4271C13.1519 22.4349 13.1309 22.4421 13.1133 22.448C11.9271 22.809 11.8298 23.3496 11.7325 23.8902C11.6854 24.1518 11.6383 24.4135 11.4677 24.6548C9.06959 27.9969 11.034 29.0047 18.3688 28.3924C19.767 28.2693 21.2437 28.3425 22.687 28.4139C22.8896 28.424 23.0916 28.434 23.2927 28.4434C26.1736 28.5889 30.5444 28.5647 34.1504 28.5448C35.2866 28.5385 36.3469 28.5327 37.2607 28.5327C39.5702 28.5263 41.9913 28.3731 44.3614 28.2232C46.7302 28.0734 49.0479 27.9268 51.1521 27.9331C59.4696 27.9628 67.7844 28.1192 76.0977 28.2755C85.6722 28.4556 95.2447 28.6356 104.817 28.622C116.122 28.6081 127.426 28.4121 138.732 28.216C148.158 28.0526 157.586 27.8891 167.016 27.8311C178.057 27.8183 189.105 27.8024 200.153 27.7864C211.199 27.7705 222.245 27.7546 233.284 27.7418C239.869 27.694 246.453 27.6809 253.037 27.6679C271.057 27.6321 289.076 27.5963 307.117 26.8489C318.333 26.3727 329.635 26.418 340.942 26.4633C346.596 26.486 352.252 26.5087 357.899 26.4662C364.889 26.4279 369.418 24.5783 369.482 21.5678C369.529 18.8653 363.557 18.8083 359.51 18.7697C359.24 18.7672 358.979 18.7647 358.728 18.7615C336.1 18.4574 313.442 18.6804 290.763 18.9036C287.757 18.9331 284.751 18.9627 281.745 18.9911C271.671 19.0837 256.468 19.0397 250.094 19.0213Z" fill="#4633FF"/>
</svg>
