<svg width="143" height="131" viewBox="0 0 143 131" fill="none" xmlns="http://www.w3.org/2000/svg">
<path d="M120.659 39.2038C118.675 37.2064 113.761 32.7982 107.023 29.4558C103.681 27.7646 99.9386 26.2999 96.2101 25.2346C92.4815 24.1693 88.7529 23.5034 85.4637 23.1838C77.8467 22.4647 70.203 23.0506 62.9323 25.4076C55.5683 27.6048 48.5772 31.0541 42.1454 35.4352C29.3217 44.3039 18.8284 56.6212 10.7586 70.3238C10.1061 71.3891 9.38705 72.6544 8.68128 73.9728C7.97551 75.2911 7.13665 76.5826 6.41756 77.7544C4.95276 80.0848 3.40801 81.7094 2.04974 81.0569C-0.733387 79.7652 -0.267326 73.3732 4.36678 65.3035C5.71174 62.8399 7.30973 60.5364 8.80117 58.166C10.4391 55.8889 11.9838 53.5451 13.7682 51.3745C17.1772 46.9269 21.0123 42.7853 25.0605 38.8969L28.1499 36.021L31.3858 33.3174C32.4378 32.3986 33.583 31.5597 34.7149 30.7341C35.8601 29.9218 36.9387 29.0165 38.1372 28.2574C42.7713 25.0615 47.7516 22.3713 52.8651 19.9744C54.7827 19.2153 56.6869 18.3901 58.6445 17.6843C60.6286 17.0851 62.5861 16.4061 64.6102 15.8735C68.685 14.8481 72.8664 14.2484 77.0611 14.062C85.4371 13.7024 93.8397 14.928 101.776 17.5647C109.7 20.2013 117.21 24.249 123.682 29.6821C130.14 35.1152 135.52 42.0397 138.849 49.9896C141.845 57.1005 143.11 64.9709 142.538 72.6145C142.005 80.2714 139.941 87.7548 136.532 94.5196C133.136 101.284 128.689 107.544 123.149 112.724C117.649 117.917 111.204 122.245 104.147 125.108C90.8968 130.567 76.1022 131.38 62.2798 128.344C48.4574 125.294 35.3008 118.343 25.4733 107.716C16.9775 98.6079 11.4645 86.5964 10.0662 74.3453C8.50822 62.0676 10.4923 49.6837 14.94 38.4314C17.0307 33.1447 19.7073 26.7128 23.4891 21.6259C24.9939 19.4953 27.2045 16.7917 29.628 14.2882C32.0117 11.7448 34.7415 9.54795 36.8188 8.00325C37.751 7.37738 38.6964 6.73796 39.6286 6.09877C40.5874 5.48621 41.5329 4.8741 42.4118 4.2216C46.5665 1.33194 49.6559 0.226677 51.2539 0.226677C52.8785 0.213361 53.0782 1.3586 52.3058 3.58244C51.9862 4.55453 53.0782 5.14007 51.2938 6.51166C51.2272 6.57824 51.0808 6.69832 51.0142 6.75159C48.4841 9.10859 45.9006 11.0657 43.2374 13.0366C40.5874 14.9941 37.9108 17.045 35.6071 19.5218C24.2748 31.5865 17.7631 48.2319 17.8031 64.7443C17.8297 72.9871 19.5608 81.2035 23.103 88.5408C26.6185 95.8915 31.9584 102.35 38.3902 107.45C42.3185 110.62 46.6996 113.243 51.2938 115.387C55.8879 117.544 60.7485 119.142 65.7288 120.167C70.6958 121.206 75.7826 121.685 80.8295 121.485C85.8631 121.299 90.8835 120.54 95.6241 119.022C98.2475 118.263 100.711 117.091 103.161 115.932C105.558 114.654 107.942 113.376 110.232 111.884L110.152 111.938C114.84 108.662 118.915 104.534 122.43 100.033C125.759 95.7715 128.502 90.9507 130.42 85.8372C132.337 80.7237 133.403 75.3177 133.496 69.9778C133.576 64.638 132.684 59.3515 130.859 54.491C128.982 49.6305 126.238 45.1824 122.856 41.3339C122.35 40.7347 121.525 40.0161 120.659 39.2038Z" fill="black"/>
</svg>
