<svg width="257" height="136" viewBox="0 0 257 136" fill="none" xmlns="http://www.w3.org/2000/svg">
<path d="M73.4144 26.0466C70.4373 26.5945 65.57 27.5168 59.6524 28.9962C53.7531 30.503 46.758 32.5486 39.7994 35.69C32.8591 38.7949 25.9005 43.0778 20.4213 48.42C17.6817 51.0957 15.28 54.0361 13.3075 57.0771C11.3441 60.1272 9.80993 63.2595 8.6867 66.2822C6.08408 73.2591 5.36265 80.9025 7.3169 87.8976C8.32142 91.3952 9.88297 94.7284 11.9194 97.7877C13.9284 100.865 16.522 103.596 19.3529 106.07C25.033 111.038 31.9003 114.773 39.0506 117.778C42.6486 119.248 46.3379 120.545 50.0821 121.677C53.8992 122.691 57.6708 123.869 61.5427 124.672C92.3085 131.813 124.809 131.54 155.493 123.85C156.698 123.595 157.995 123.211 159.347 122.837C160.698 122.462 162.113 122.07 163.538 121.677C164.981 121.312 166.387 120.819 167.794 120.408C169.191 119.978 170.561 119.567 171.866 119.202C177.026 117.595 181.062 116.517 181.309 117.558C181.556 118.618 179.126 120.462 174.533 122.855C172.204 123.96 169.328 125.175 165.967 126.417C162.561 127.512 158.726 128.837 154.397 129.795C133.539 134.836 111.869 136.489 90.4912 134.827C79.8067 133.978 69.1954 132.298 58.794 129.814L56.8397 129.375L54.9038 128.855L51.0318 127.804C48.4566 127.129 45.8722 126.343 43.3335 125.476C38.247 123.75 33.2427 121.695 28.4392 119.193C26.6676 118.316 24.969 117.266 23.2522 116.262C21.5902 115.157 19.9008 114.097 18.321 112.855C15.1248 110.445 12.0929 107.723 9.51771 104.554C9.18896 104.162 8.84194 103.787 8.54058 103.385L7.64564 102.134C7.06119 101.294 6.41281 100.5 5.92882 99.5866C5.41742 98.7008 4.87863 97.8151 4.3855 96.911L3.09792 94.0983C1.53634 90.2902 0.504423 86.2083 0.239595 82.0807C-0.37225 73.7888 1.81943 65.5881 5.51789 58.4103C7.37169 54.8032 9.62729 51.4245 12.1934 48.3105C14.7777 45.2148 17.7274 42.3839 20.8779 39.9C27.179 34.9322 34.2837 31.1333 41.6258 28.2567C48.9771 25.371 56.5475 23.2797 64.1453 21.5994C67.9443 20.741 71.7614 20.0835 75.5695 19.3438C77.4689 18.9512 79.3958 18.6954 81.3044 18.3849L87.0575 17.4809C94.7467 16.4672 102.463 15.563 110.207 15.0882C138.014 13.1978 166.077 15.0153 193.418 20.4853C196.824 21.2342 200.24 21.9281 203.628 22.7226C207.006 23.5902 210.404 24.348 213.764 25.2977L218.796 26.7132L221.316 27.4255L223.855 28.2201C227.234 29.3251 230.567 30.6125 233.827 32.1558C237.078 33.7083 240.256 35.4982 243.206 37.7082C246.155 39.9181 248.886 42.53 251.114 45.6075C255.616 51.7442 257.662 59.7347 256.575 67.2777C255.607 74.3641 252.228 81.003 247.288 86.0712C242.521 91.0025 236.795 94.9293 230.841 98.0068C227.864 99.5501 224.814 100.947 221.764 102.153L217.189 103.997L214.896 104.92C214.129 105.221 213.353 105.477 212.577 105.76C206.404 108.015 200.13 110.034 193.783 111.76C168.405 118.673 141.831 121.248 115.577 119.266C104.253 118.399 92.9751 116.764 81.9071 114.17C79.1401 113.531 76.4005 112.773 73.6518 112.07C70.903 111.394 68.1634 110.536 65.433 109.65C62.7025 108.755 59.9903 107.76 57.3237 106.618C54.6572 105.477 52.0089 104.226 49.4611 102.755C46.9133 101.285 44.4294 99.6597 42.1007 97.7877C39.7812 95.9065 37.626 93.7971 35.69 91.4775L34.2928 89.6966C33.8545 89.0756 33.4436 88.4366 33.0235 87.8156L32.3934 86.8658C32.2016 86.5371 32.0281 86.2082 31.8363 85.8795L30.7496 83.8888L29.8273 81.8249L29.3707 80.7929L28.9963 79.7245C28.7497 79.0122 28.4849 78.309 28.2566 77.5967L27.6721 75.4234C24.8138 63.7618 26.558 51.3696 31.9185 40.8312C33.1513 38.3199 34.7038 35.8727 36.3932 33.3979C38.1283 30.9596 40.0825 28.5762 42.2103 26.3114C46.5023 21.8185 51.4975 17.8642 56.6571 14.7959C60.8944 12.2115 66.8667 9.31684 73.0856 7.19822C79.2862 5.06133 85.6695 3.65502 90.4364 2.8788C94.5549 2.20303 98.847 1.71898 102.874 1.22585C112.143 0.130011 118.015 0.10249 120.782 0.412978C123.558 0.750862 123.248 1.54548 120.216 2.83309C118.883 3.39928 120.462 4.01103 116.061 4.56808C115.878 4.59548 115.513 4.64124 115.349 4.66863C108.691 5.71881 101.988 6.49493 95.3038 7.52684C88.6283 8.58616 81.9254 9.90119 75.5056 12.1203C67.6429 14.8142 60.1455 18.604 53.5431 23.5536C46.9498 28.494 41.2697 34.6398 37.352 41.781C33.4801 48.8674 31.5167 57.0497 31.7633 65.1042C31.9916 73.1586 34.5942 81.1126 39.5985 87.2767C40.8222 88.8474 42.2468 90.2537 43.7079 91.6236C45.233 92.9386 46.7945 94.208 48.4931 95.3221C51.8445 97.6051 55.5156 99.4954 59.3419 101.084C63.1682 102.683 67.1224 104.025 71.1679 105.185C73.1769 105.787 75.2407 106.271 77.2863 106.792C79.341 107.285 81.3683 107.869 83.4413 108.299C99.9428 111.924 116.837 113.86 133.749 113.714C154.497 113.723 175.227 110.728 195.199 105.176C205.171 102.372 214.951 98.7374 224.375 94.6372C229.005 92.5003 233.425 90.0345 237.389 87.0118C239.37 85.5051 241.233 83.8614 242.959 82.0898C244.649 80.3821 246.091 78.5007 247.269 76.4369C249.872 71.9531 251.132 66.7296 250.767 61.6523C250.694 61.0221 250.676 60.3831 250.548 59.7621L250.402 58.8215L250.173 57.8991C250 57.2873 249.909 56.648 249.689 56.0544L249.05 54.2646C248.073 51.9268 246.749 49.7258 245.133 47.6711L245.251 47.8082C241.699 43.6623 236.941 40.4204 231.736 37.9547C229.142 36.6945 226.43 35.626 223.663 34.6854C222.284 34.1923 220.878 33.7814 219.472 33.343L215.134 32.1286C193.272 25.928 170.195 22.1107 147.21 21.0057C124.234 19.8642 101.377 21.225 79.8524 24.7956C78.1447 25.0056 75.8983 25.59 73.4144 26.0466Z" fill="black"/>
</svg>
